<svg width="24" height="24" viewBox="0 0 24 24" fill="none" xmlns="http://www.w3.org/2000/svg">
<g clip-path="url(#clip0)">
<path d="M19.3825 6.79265C18.5719 2.72551 14.6177 0.0856794 10.5506 0.896288C7.57584 1.48918 5.24986 3.81371 4.65513 6.78807C1.7714 7.12041 -0.297143 9.72747 0.0350106 12.6114C0.340797 15.2655 2.58878 17.2679 5.26048 17.2661H9.01487C9.4296 17.2661 9.76579 16.9299 9.76579 16.5152C9.76579 16.1005 9.4296 15.7643 9.01487 15.7643H5.26048C3.18681 15.752 1.51597 14.0612 1.52805 11.9877C1.54032 9.91405 3.23112 8.24303 5.30479 8.2553C5.68748 8.2553 6.00901 7.96746 6.05112 7.58696C6.43235 4.29143 9.41312 1.92882 12.7088 2.31005C15.4796 2.63048 17.6653 4.81621 17.9858 7.58696C18.0487 7.97423 18.3842 8.25786 18.7764 8.2553C20.8501 8.2553 22.531 9.93621 22.531 12.0099C22.531 14.0834 20.8501 15.7643 18.7764 15.7643H15.022C14.6073 15.7643 14.2711 16.1005 14.2711 16.5152C14.2711 16.9299 14.6073 17.2661 15.022 17.2661H18.7766C21.6794 17.248 24.018 14.8801 24 11.9773C23.9836 9.33379 22.0064 7.11382 19.3825 6.79265Z" fill="white"/>
<path d="M14.6726 18.8055L12.769 20.7096V11.259C12.769 10.8442 12.4328 10.5081 12.0183 10.5081C11.6036 10.5081 11.2674 10.8442 11.2674 11.259V20.7096L9.36381 18.8055C9.07578 18.507 8.60026 18.4988 8.30198 18.787C8.0037 19.075 7.99546 19.5504 8.28349 19.8486C8.28971 19.855 8.29575 19.8611 8.30198 19.8671L11.4865 23.0524C11.5561 23.1218 11.6385 23.1769 11.7292 23.2147C11.9139 23.2928 12.1225 23.2928 12.3074 23.2147C12.398 23.1769 12.4804 23.1218 12.5498 23.0524L15.7344 19.8671C16.0327 19.5791 16.0409 19.1038 15.7529 18.8055C15.4647 18.5072 14.9894 18.499 14.6911 18.787C14.6849 18.793 14.6786 18.7991 14.6726 18.8055Z" fill="white"/>
</g>
<defs>
<clipPath id="clip0">
<rect width="24" height="24" fill="white"/>
</clipPath>
</defs>
</svg>
