<svg width="21" height="22" viewBox="0 0 21 22" fill="none" xmlns="http://www.w3.org/2000/svg">
<path d="M18.244 3.29997C17.9651 2.91325 17.436 2.83161 17.0628 3.1195C16.6895 3.40739 16.6116 3.95309 16.8905 4.33981C19.5483 8.03083 19.5483 14.0336 16.8905 17.7246C16.6116 18.1113 16.6813 18.6656 17.0628 18.9449C17.5303 19.2843 18.0799 18.9965 18.244 18.7644C21.3161 14.5062 21.3161 7.56676 18.244 3.29997Z" fill="white"/>
<path d="M16.1891 6.1531C15.9102 5.76638 15.3811 5.68904 15.0078 5.97263C14.6346 6.26052 14.5567 6.80622 14.8356 7.19294C16.3367 9.27263 16.3367 12.7918 14.8356 14.8715C14.5567 15.2582 14.6305 15.8082 15.0078 16.0918C15.4877 16.4484 16.025 16.1433 16.1891 15.9113C18.1619 13.1785 18.1619 8.89021 16.1891 6.1531Z" fill="white"/>
<path d="M11.9725 18.8332L6.05801 14.0035V8.06521L11.9725 3.23982V18.8332ZM4.36816 13.5566H2.14102V8.49919H4.36816V13.5566ZM12.3539 0.657395L4.96699 6.75466H1.29609C0.828516 6.75466 0.451172 7.14568 0.451172 7.62693V14.4246C0.451172 14.9058 0.828516 15.2969 1.29609 15.2969H5.03672L12.3539 21.3426C12.8789 21.7765 13.6623 21.3898 13.6623 20.6937V1.30622C13.6623 0.610129 12.883 0.219113 12.3539 0.657395Z" fill="white"/>
</svg>
