<svg width="17" height="18" viewBox="0 0 17 18" fill="none" xmlns="http://www.w3.org/2000/svg">
<path d="M6.8 12.9121L11.9 8.99997L6.8 5.08781V12.9121ZM8.5 0.306274C3.825 0.306274 0 4.21844 0 8.99997C0 13.7815 3.825 17.6937 8.5 17.6937C13.175 17.6937 17 13.7815 17 8.99997C17 4.21844 13.175 0.306274 8.5 0.306274ZM8.5 15.9549C4.76 15.9549 1.7 12.8252 1.7 8.99997C1.7 5.17474 4.76 2.04501 8.5 2.04501C12.24 2.04501 15.3 5.17474 15.3 8.99997C15.3 12.8252 12.24 15.9549 8.5 15.9549Z" fill="black"/>
</svg>
