<?xml version="1.0" standalone="no"?>
<!DOCTYPE svg PUBLIC "-//W3C//DTD SVG 1.1//EN" "http://www.w3.org/Graphics/SVG/1.1/DTD/svg11.dtd" >
<svg xmlns="http://www.w3.org/2000/svg" xmlns:xlink="http://www.w3.org/1999/xlink" version="1.1">
<metadata>
Created by FontForge 20170731 at Thu Jul 30 05:03:57 2020
 By Aleksey,,,
Nespresso Lucas is a licensed version of FS Lucas, Copyright (c) 2016. All rights reserved. This font may not be altered in any way without prior permission of Fontsmith Ltd.
</metadata>
<defs>
<font id="NespressoLucas-BoldItalic" horiz-adv-x="1212" >
  <font-face 
    font-family="Nespresso Lucas"
    font-weight="700"
    font-style="italic"
    font-stretch="normal"
    units-per-em="2048"
    panose-1="2 11 6 3 6 3 2 10 2 3"
    ascent="1516"
    descent="-532"
    x-height="924"
    cap-height="1327"
    bbox="-940 -446 2693 1845"
    underline-thickness="212"
    underline-position="-417"
    slope="-8"
    unicode-range="U+000D-FB02"
  />
<missing-glyph horiz-adv-x="1583" 
d="M274 -424v1751h1033v-1751h-1033zM791 512l421 758h-843zM336 -297l424 750l-424 747v-1497zM1245 -297v1497l-424 -747zM369 -365h843l-421 768z" />
    <glyph glyph-name="fi" unicode="fi" horiz-adv-x="1288" 
d="M1106 1096q-62 0 -99.5 37t-37.5 98q0 75 44.5 119.5t112.5 44.5q60 0 98 -36.5t38 -98.5q0 -78 -45 -121t-111 -43zM805 0l98 719h-381l-102 -719h-273l103 719h-160l29 205h160l12 84q28 197 121 290t270 93q68 0 135 -23l-31 -217q-28 14 -75 14q-67 0 -102.5 -43.5
t-49.5 -136.5l-8 -61h655l-129 -924h-272z" />
    <glyph glyph-name="fl" unicode="fl" horiz-adv-x="1273" 
d="M147 0l103 719h-160l29 205h160l12 84q28 196 119.5 289.5t263.5 93.5q70 0 137 -23l-33 -217q-28 14 -73 14q-63 0 -97.5 -43.5t-48.5 -136.5l-8 -61h164l-31 -205h-162l-102 -719h-273zM803 0l190 1358h273l-191 -1358h-272z" />
    <glyph glyph-name="f_f.liga" unicode="ff" horiz-adv-x="1413" 
d="M147 0l101 719h-158l29 205h157l9 61q28 197 121 290t270 93q111 0 180 -31l-53 -215q-48 21 -96 21q-68 0 -104 -43.5t-48 -136.5l-6 -39h383l10 75q26 192 121.5 292t292.5 100q126 0 203 -37l-31 -221q-50 30 -133 30q-89 0 -131 -50t-54 -142l-6 -47h211l-31 -205
h-208l-101 -719h-272l100 719h-383l-100 -719h-273z" />
    <glyph glyph-name="f_f_i.liga" unicode="ffi" horiz-adv-x="1943" 
d="M1759 1096q-63 0 -100 37t-37 98q0 75 45 119.5t113 44.5q60 0 98.5 -36.5t38.5 -98.5q0 -78 -46 -121t-112 -43zM1458 0l101 719h-383l-101 -719h-272l100 719h-383l-100 -719h-273l101 719h-158l29 205h157l9 61q28 197 121 290t270 93q89 0 158 -31l-31 -215
q-48 21 -96 21q-68 0 -104 -43.5t-48 -136.5l-6 -39h383l12 84q28 197 121 290t270 93q68 0 135 -23l-30 -217q-28 14 -76 14q-67 0 -102.5 -43.5t-47.5 -136.5l-10 -61h656l-129 -924h-273z" />
    <glyph glyph-name="f_f_j.liga" unicode="ffj" horiz-adv-x="1941" 
d="M1757 1096q-62 0 -98.5 37t-36.5 98q0 75 44 119.5t112 44.5q61 0 99 -36.5t38 -98.5q0 -78 -45.5 -121t-112.5 -43zM1272 -424q-130 0 -201 31l31 209q54 -21 131 -21q63 0 106 19.5t68.5 62t38.5 89.5t24 120l89 633h-383l-101 -719h-272l100 719h-383l-100 -719h-273
l101 719h-158l29 205h157l9 61q28 197 121 290t270 93q89 0 158 -31l-31 -215q-48 21 -96 21q-68 0 -104 -43.5t-48 -136.5l-6 -39h383l12 84q28 197 121 290t270 93q68 0 135 -23l-30 -217q-28 14 -76 14q-67 0 -102.5 -43.5t-47.5 -136.5l-10 -61h656l-115 -820
q-10 -71 -19.5 -121t-27 -109.5t-40 -99.5t-57.5 -80.5t-80 -64t-108 -38.5t-141 -15z" />
    <glyph glyph-name="f_f_l.liga" unicode="ffl" horiz-adv-x="1927" 
d="M147 0l101 719h-158l29 205h157l9 61q28 197 121 290t270 93q89 0 158 -31l-31 -215q-48 21 -96 21q-68 0 -104 -43.5t-48 -136.5l-6 -39h383l12 84q28 196 119.5 289.5t263.5 93.5q70 0 137 -23l-30 -217q-32 14 -76 14q-63 0 -97.5 -43.5t-46.5 -136.5l-10 -61h191
l-31 -205h-188l-101 -719h-272l100 719h-383l-100 -719h-273zM1456 0l191 1358h272l-190 -1358h-273z" />
    <glyph glyph-name="f_f_t.liga" unicode="fft" horiz-adv-x="2172" 
d="M147 0l101 719h-158l29 205h157l9 61q28 197 121 290t270 93q89 0 158 -31l-31 -215q-48 21 -96 21q-68 0 -104 -43.5t-48 -136.5l-6 -39h383l12 84q28 197 121 290t270 93q68 0 135 -23l-38 -217q-17 14 -68 14q-67 0 -102.5 -43.5t-47.5 -136.5l-10 -61h156l-29 -205
h-155l-101 -719h-272l100 719h-383l-100 -719h-273zM1833 -12q-158 0 -242 70t-84 196q0 52 19 172l41 293h-113l4 20q69 63 215.5 223.5t216.5 247.5h21l-41 -286h254l-31 -205h-252l-43 -295q-14 -95 -14 -125q0 -88 125 -88q71 0 155 39l-32 -227q-19 -11 -77 -23
t-122 -12z" />
    <glyph glyph-name="f_j.liga" unicode="fj" horiz-adv-x="1286" 
d="M1104 1096q-62 0 -99.5 37t-37.5 98q0 75 44.5 119.5t112.5 44.5q60 0 98 -36.5t38 -98.5q0 -78 -45 -121t-111 -43zM616 -424q-129 0 -200 31l30 209q54 -21 134 -21q50 0 88 14.5t62 37.5t41 62.5t26.5 79t17.5 97.5l88 633h-383l-100 -719h-273l101 719h-158l29 205
h157l13 84q30 197 122 290t269 93q70 0 137 -23l-33 -217q-28 14 -73 14q-68 0 -103 -43t-49 -137l-10 -61h657l-116 -820q-7 -54 -14 -94.5t-18.5 -88t-25 -83t-34 -73t-45 -64.5t-58.5 -52t-74 -40t-92 -24t-113 -9z" />
    <glyph glyph-name="f_t.liga" unicode="ft" horiz-adv-x="1492" 
d="M147 0l101 719h-158l29 205h157l13 84q30 197 122 290t269 93q70 0 137 -23l-33 -217q-28 14 -73 14q-68 0 -103 -43t-49 -137l-10 -61h145l-28 -205h-146l-100 -719h-273zM1155 -12q-159 0 -242.5 70t-83.5 196q0 65 17 172l41 293h-113l4 20q69 63 215.5 223.5
t216.5 247.5h21l-41 -286h254l-31 -205h-252l-41 -295q-14 -95 -14 -125q0 -88 123 -88q71 0 155 39l-32 -227q-18 -11 -76.5 -23t-120.5 -12z" />
    <glyph glyph-name="t_t.liga" unicode="tt" horiz-adv-x="1628" 
d="M492 -12q-159 0 -242.5 70t-83.5 196q0 48 20 192l37 265h-166l4 20q61 50 242.5 227.5t243.5 251.5h20l-39 -286h252l-30 -213h-252l-41 -287q-15 -81 -15 -125q0 -88 125 -88q74 0 154 39l-33 -227q-19 -11 -76.5 -23t-119.5 -12zM1288 -12q-159 0 -242 70t-83 196
q0 48 20 192l37 265h-166l4 20q61 49 242 227t243 252h21l-39 -286h252l-31 -213h-252l-41 -287q-14 -75 -14 -125q0 -88 125 -88q74 0 154 39l-33 -227q-18 -11 -76.5 -23t-120.5 -12z" />
    <glyph glyph-name=".notdef" horiz-adv-x="1583" 
d="M274 -424v1751h1033v-1751h-1033zM791 512l421 758h-843zM336 -297l424 750l-424 747v-1497zM1245 -297v1497l-424 -747zM369 -365h843l-421 768z" />
    <glyph glyph-name=".null" horiz-adv-x="0" 
 />
    <glyph glyph-name="nonmarkingreturn" horiz-adv-x="682" 
 />
    <glyph glyph-name="CR" unicode="&#xd;" horiz-adv-x="430" 
 />
    <glyph glyph-name="space" unicode=" " horiz-adv-x="430" 
 />
    <glyph glyph-name="exclam" unicode="!" horiz-adv-x="632" 
d="M176 428l113 899h291l-134 -899h-270zM262 -18q-71 0 -112 41t-41 108q0 76 52.5 128t123.5 52q68 0 109.5 -42t41.5 -111q0 -79 -51 -127.5t-123 -48.5z" />
    <glyph glyph-name="quotedbl" unicode="&#x22;" horiz-adv-x="1042" 
d="M246 860l28 467h289l-104 -467h-213zM696 860l27 467h289l-105 -467h-211z" />
    <glyph glyph-name="numbersign" unicode="#" horiz-adv-x="1183" 
d="M29 0l125 315h-183l76 195h180l125 307h-186l78 195h184l123 315h246l-123 -315h164l125 315h245l-125 -315h189l-80 -195h-182l-125 -307h188l-78 -195h-186l-123 -315h-246l123 315h-164l-125 -315h-245zM473 510h166l123 307h-164z" />
    <glyph glyph-name="dollar" unicode="$" horiz-adv-x="1099" 
d="M401 -184l25 188q-204 12 -344 80l33 240q57 -39 152 -68t192 -35l45 336q-84 28 -140 55t-107 68t-76 100t-25 138q0 194 120.5 293.5t337.5 113.5l27 207h123l-27 -209q185 -18 283 -68l-35 -243q-126 84 -280 96l-46 -330q61 -21 103.5 -39t93 -50t81.5 -69t52 -93
t21 -124q0 -191 -120.5 -289.5t-340.5 -109.5l-25 -188h-123zM543 813l41 295q-73 -11 -113.5 -51t-40.5 -105q0 -57 29 -88.5t84 -50.5zM582 219q73 11 113 52t40 108q0 60 -27 91.5t-85 51.5z" />
    <glyph glyph-name="percent" unicode="%" horiz-adv-x="1949" 
d="M479 684q-140 0 -227.5 77.5t-87.5 209.5q0 167 112.5 273t278.5 106q140 0 227.5 -78.5t87.5 -210.5q0 -174 -114 -275.5t-277 -101.5zM399 0l924 1327h281l-924 -1327h-281zM492 862q78 0 129 51t51 129q0 61 -36.5 95t-98.5 34q-75 0 -125 -53.5t-50 -128.5
q0 -58 34.5 -92.5t95.5 -34.5zM1452 -20q-141 0 -228 77t-87 209q0 167 112.5 273t278.5 106q140 0 227.5 -78.5t87.5 -210.5q0 -116 -55 -203t-143 -130t-193 -43zM1464 158q78 0 129.5 51t51.5 129q0 61 -37 95t-99 34q-75 0 -125.5 -53.5t-50.5 -128.5q0 -58 35 -92.5
t96 -34.5z" />
    <glyph glyph-name="ampersand" unicode="&#x26;" horiz-adv-x="1443" 
d="M1364 586q0 -186 -123 -340l119 -115l-166 -166l-131 131q-183 -114 -440 -114q-254 0 -401.5 121.5t-147.5 312.5q0 140 80 236t206 143q-69 92 -69 200q0 154 114 253.5t308 99.5q152 0 245 -58l-32 -225q-69 61 -183 61q-85 0 -130.5 -41.5t-45.5 -105.5
q0 -35 22.5 -73.5t46 -63.5t77.5 -78l364 -356q41 69 41 167q0 85 -43 140.5t-147 83.5l159 145q122 -28 199.5 -120t77.5 -238zM354 440q0 -115 83.5 -180t226.5 -65q137 0 237 51l-414 409q-133 -70 -133 -215z" />
    <glyph glyph-name="quotesingle" unicode="'" horiz-adv-x="593" 
d="M246 860l28 467h289l-104 -467h-213z" />
    <glyph glyph-name="parenleft" unicode="(" horiz-adv-x="741" 
d="M354 -406q-58 54 -106.5 118t-93 148.5t-70 193t-25.5 227.5q0 322 142.5 593.5t382.5 452.5h331q-571 -427 -571 -1059q0 -198 73.5 -360.5t233.5 -313.5h-297z" />
    <glyph glyph-name="parenright" unicode=")" horiz-adv-x="741" 
d="M-174 -406q571 429 571 1059q0 198 -73.5 360.5t-233.5 313.5h295q58 -54 106.5 -117.5t94 -148.5t71 -193t25.5 -227q0 -322 -142.5 -594.5t-383.5 -452.5h-330z" />
    <glyph glyph-name="asterisk" unicode="*" horiz-adv-x="817" 
d="M360 717l52 209l-168 -125l-76 139l199 82l-174 82l94 141l149 -123l8 205h170l-49 -207l164 125l76 -141l-193 -82l174 -82l-94 -139l-153 125l-9 -209h-170z" />
    <glyph glyph-name="plus" unicode="+" 
d="M422 23l47 333h-322l29 213h324l47 334h244l-48 -334h324l-31 -213h-323l-45 -333h-246z" />
    <glyph glyph-name="comma" unicode="," horiz-adv-x="595" 
d="M-8 -293q79 63 133 137t78 140q-61 6 -94 41t-33 94q0 83 54 137.5t136 54.5q78 0 124 -48t46 -136q0 -113 -62.5 -223.5t-187.5 -196.5h-194z" />
    <glyph glyph-name="hyphen" unicode="-" horiz-adv-x="571" 
d="M61 391l31 213h430l-33 -213h-428z" />
    <glyph glyph-name="period" unicode="." horiz-adv-x="595" 
d="M242 -18q-70 0 -111 41t-41 108q0 77 52 128.5t122 51.5q68 0 111 -42t43 -111q0 -79 -52 -127.5t-124 -48.5z" />
    <glyph glyph-name="slash" unicode="/" horiz-adv-x="880" 
d="M-123 -406l817 1733h285l-817 -1733h-285z" />
    <glyph glyph-name="zero" unicode="0" horiz-adv-x="1251" 
d="M575 -20q-221 0 -337.5 143t-116.5 389q0 68 12 158q43 320 199.5 499t400.5 179q217 0 336 -141.5t119 -393.5q0 -58 -10 -143q-38 -324 -197 -507t-406 -183zM590 223q113 0 192.5 120t108.5 337q10 66 10 127q0 301 -180 301q-113 0 -193.5 -120t-111.5 -337
q-8 -68 -8 -129q0 -299 182 -299z" />
    <glyph glyph-name="one" unicode="1" horiz-adv-x="927" 
d="M362 0l142 997l-309 -135l34 242l580 244h20l-190 -1348h-277z" />
    <glyph glyph-name="two" unicode="2" horiz-adv-x="1110" 
d="M23 0l4 20l479 541q118 134 172.5 222t54.5 173q0 75 -47.5 113.5t-132.5 38.5q-92 0 -186 -45.5t-152 -91.5l41 278q160 99 356 99q197 0 302.5 -99.5t105.5 -271.5q0 -60 -13.5 -114t-34 -99.5t-63.5 -103.5t-83.5 -105.5t-112.5 -126.5l-176 -195h405l-33 -233h-886z
" />
    <glyph glyph-name="three" unicode="3" horiz-adv-x="1144" 
d="M1108 1327l-4 -20l-361 -514q111 -19 188 -102t77 -228q0 -99 -26.5 -179t-74.5 -136t-115.5 -94.5t-147.5 -56t-173 -17.5q-126 0 -225 25t-150 58l37 259q141 -101 320 -101q132 0 200 64t68 168q0 92 -57 137t-154 45q-113 0 -193 -70l-24 21l358 510h-405l35 231h827
z" />
    <glyph glyph-name="four" unicode="4" horiz-adv-x="1169" 
d="M610 0l31 211h-649l2 20l1044 1117h21l-131 -932h182l-31 -205h-180l-29 -211h-260zM438 416h230l41 291z" />
    <glyph glyph-name="five" unicode="5" horiz-adv-x="1148" 
d="M457 -20q-126 0 -221 27t-140 59l37 256q51 -43 140.5 -72t177.5 -29q131 0 199.5 63.5t68.5 164.5q0 95 -58.5 140.5t-156.5 45.5q-84 0 -156.5 -31.5t-120.5 -83.5l-24 12l219 795h629l-33 -231h-397l-70 -252q31 8 74 8q76 0 142 -22.5t120 -68.5t85.5 -125.5
t31.5 -184.5q0 -231 -149 -351t-398 -120z" />
    <glyph glyph-name="six" unicode="6" horiz-adv-x="1208" 
d="M715 874q81 0 150 -23.5t123.5 -71t86 -126.5t31.5 -182q0 -225 -143.5 -358t-378.5 -133q-213 0 -337 116.5t-124 345.5q0 132 47 266t129 248.5t190.5 210t231.5 160.5h422q-178 -91 -369 -238.5t-278 -277.5q85 63 219 63zM594 219q100 0 163.5 64.5t63.5 171.5
q0 91 -47.5 138.5t-130.5 47.5q-106 0 -168.5 -67t-62.5 -168q0 -84 47.5 -135.5t134.5 -51.5z" />
    <glyph glyph-name="seven" unicode="7" horiz-adv-x="1196" 
d="M258 0q55 257 198.5 573.5t315.5 520.5h-524l33 233h993l-4 -22q-215 -188 -425 -561t-292 -744h-295z" />
    <glyph glyph-name="eight" unicode="8" horiz-adv-x="1204" 
d="M563 -20q-205 0 -320.5 100.5t-115.5 279.5q0 126 64.5 222t168.5 127q-59 28 -91.5 86t-32.5 137q0 184 130 300t341 116q82 0 152.5 -20t126.5 -61t88 -110t32 -160q0 -106 -52 -188t-141 -113q68 -31 107 -99t39 -173q0 -204 -136.5 -324t-359.5 -120zM653 805
q76 0 126 45.5t50 124.5q0 67 -39.5 102t-101.5 35q-80 0 -127 -51.5t-47 -124.5q0 -61 37.5 -96t101.5 -35zM575 219q87 0 146 50.5t59 142.5q0 74 -44 117.5t-124 43.5q-93 0 -149.5 -54.5t-56.5 -141.5q0 -72 45.5 -115t123.5 -43z" />
    <glyph glyph-name="nine" unicode="9" horiz-adv-x="1191" 
d="M678 1348q206 0 328 -119t122 -346q0 -182 -79.5 -350.5t-208 -297.5t-303.5 -235h-394q119 74 232.5 157.5t225 188.5t161.5 189q-80 -64 -215 -64q-98 0 -174.5 32.5t-121.5 88t-68 123.5t-23 145q0 217 144 352.5t374 135.5zM618 702q96 0 162 62t66 168q0 90 -49 135
t-129 45q-98 0 -163 -66t-65 -167q0 -83 48.5 -130t129.5 -47z" />
    <glyph glyph-name="colon" unicode=":" horiz-adv-x="595" 
d="M334 627q-70 0 -111 41t-41 108q0 76 52 128t122 52q68 0 111 -42t43 -111q0 -79 -52 -127.5t-124 -48.5zM242 -18q-70 0 -111 41t-41 108q0 77 52 128.5t122 51.5q68 0 111 -42t43 -111q0 -79 -52 -127.5t-124 -48.5z" />
    <glyph glyph-name="semicolon" unicode=";" horiz-adv-x="569" 
d="M334 627q-70 0 -111 41t-41 108q0 76 52 128t122 52q68 0 111 -42t43 -111q0 -79 -52 -127.5t-124 -48.5zM-8 -293q79 63 133 137t78 140q-61 6 -94 41t-33 94q0 83 54 137.5t136 54.5q78 0 124 -48t46 -136q0 -113 -62.5 -223.5t-187.5 -196.5h-194z" />
    <glyph glyph-name="less" unicode="&#x3c;" 
d="M1116 934l-37 -264l-473 -207l414 -211l-37 -260l-823 461l4 20z" />
    <glyph glyph-name="equal" unicode="=" 
d="M164 543l29 213h890l-30 -213h-889zM111 170l28 213h891l-31 -213h-888z" />
    <glyph glyph-name="greater" unicode="&#x3e;" 
d="M96 -8l37 264l473 207l-413 211l36 260l824 -461l-4 -20z" />
    <glyph glyph-name="question" unicode="?" horiz-adv-x="890" 
d="M246 428l45 313q62 0 115.5 12.5t97.5 38.5t69 70t25 103q0 75 -48.5 112t-129.5 37q-163 0 -287 -113l39 265q42 30 120.5 56t178.5 26q193 0 302.5 -98t109.5 -261q0 -166 -96 -272.5t-248 -118.5l-23 -170h-270zM330 -18q-70 0 -111 41t-41 108q0 77 52 128.5
t122 51.5q68 0 111 -42t43 -111q0 -79 -52 -127.5t-124 -48.5z" />
    <glyph glyph-name="at" unicode="@" horiz-adv-x="2074" 
d="M1505 856l-73 -297q-5 -21 -15 -61t-15.5 -62.5t-10.5 -50.5t-5 -47q0 -90 107 -90q81 0 140 64.5t85.5 159t26.5 202.5q0 105 -33 190.5t-89.5 143t-134 96.5t-164.5 56.5t-183 17.5q-177 0 -327.5 -67t-252.5 -182t-159.5 -270t-57.5 -329q0 -255 161.5 -396
t446.5 -141q187 0 375 56t326 133l-35 -252q-76 -44 -270.5 -99t-401.5 -55q-258 0 -450 86t-299 257.5t-107 410.5t77.5 437.5t215.5 335t333.5 211.5t428.5 75q139 0 263.5 -25t234 -80.5t189 -136.5t125.5 -200.5t46 -266.5q0 -179 -61.5 -321t-185 -227t-290.5 -85
q-101 0 -172 38.5t-88 109.5q-47 -68 -119.5 -108t-156.5 -40q-164 0 -253 86t-89 242q0 136 57.5 252t161.5 185t231 69q171 0 224 -123l32 98h211zM1161 436q17 56 17 105q0 63 -29.5 97t-87.5 34q-99 0 -163 -87.5t-64 -195.5q0 -64 31 -97.5t89 -33.5q74 0 127 47.5
t80 130.5z" />
    <glyph glyph-name="A" unicode="A" horiz-adv-x="1312" 
d="M-31 0l803 1348h21l419 -1348h-292l-58 205h-477l-117 -205h-299zM504 424h307l-102 367z" />
    <glyph glyph-name="B" unicode="B" horiz-adv-x="1214" 
d="M930 698q192 -56 192 -270q0 -163 -78 -260q-130 -168 -475 -168h-481l186 1327h351q503 0 503 -332q0 -76 -27 -141t-77 -106q-44 -35 -94 -50zM797 842q47 47 47 129q0 40 -19.5 67t-55 40.5t-73.5 18.5t-88 5h-84l-43 -320h88q165 0 228 60zM799 305q37 48 37 115
q0 42 -18 70.5t-53 43t-75.5 20t-97.5 5.5h-143l-46 -330h150q185 0 246 76z" />
    <glyph glyph-name="C" unicode="C" horiz-adv-x="1296" 
d="M750 -20q-153 0 -274.5 44.5t-199.5 124t-118.5 186.5t-40.5 234q0 59 10 121q53 308 258.5 483t521.5 175q121 0 219 -28.5t146 -68.5l-37 -266q-143 107 -330 107q-191 0 -326.5 -120t-166.5 -308q-6 -38 -6 -78q0 -163 93.5 -255.5t270.5 -92.5q212 0 393 114
l-41 -293q-49 -31 -152 -55t-220 -24z" />
    <glyph glyph-name="D" unicode="D" horiz-adv-x="1398" 
d="M88 0l186 1327h254q69 0 118.5 -1.5t120.5 -7t123.5 -16t115 -30.5t107.5 -47t89.5 -69t72.5 -94t45 -123.5t17 -156.5q0 -69 -10 -143q-17 -119 -58.5 -215.5t-96 -162t-130.5 -114.5t-150 -76.5t-166 -44t-168 -21.5t-165 -5h-305zM403 231h13q99 0 180 11.5
t159.5 41.5t134.5 78.5t96.5 127t55.5 182.5q7 51 7 92q0 63 -14.5 113t-38.5 85t-62 60t-78 39.5t-94.5 23t-103 11t-111.5 2.5h-25z" />
    <glyph glyph-name="E" unicode="E" horiz-adv-x="1077" 
d="M88 0l186 1327h822l-33 -231h-541l-43 -303h383l-33 -232h-383l-45 -328h566l-33 -233h-846z" />
    <glyph glyph-name="F" unicode="F" horiz-adv-x="1042" 
d="M88 0l186 1327h828l-33 -231h-547l-47 -334h395l-34 -230h-394l-73 -532h-281z" />
    <glyph glyph-name="G" unicode="G" horiz-adv-x="1458" 
d="M745 -20q-298 0 -463 156t-165 427q0 56 10 131q31 209 141.5 358.5t272.5 222.5t360 73q153 0 261.5 -38t162.5 -81l-35 -260q-62 49 -167.5 87t-225.5 38q-191 0 -323.5 -120t-161.5 -319q-6 -44 -6 -82q0 -160 90.5 -248.5t248.5 -88.5q143 0 237 76t114 210h-338
l30 223h635l-20 -147q-8 -58 -18.5 -106.5t-33.5 -115t-53 -118t-81 -106t-114.5 -90.5t-155.5 -59t-202 -23z" />
    <glyph glyph-name="H" unicode="H" horiz-adv-x="1429" 
d="M88 0l186 1327h281l-74 -534h559l76 534h281l-187 -1327h-280l78 557h-562l-77 -557h-281z" />
    <glyph glyph-name="I" unicode="I" horiz-adv-x="587" 
d="M88 0l186 1327h281l-186 -1327h-281z" />
    <glyph glyph-name="J" unicode="J" horiz-adv-x="962" 
d="M313 -20q-178 0 -272 51l33 241q32 -21 89 -35t116 -14q123 0 184 66t84 233l82 576h-307l34 229h584l-123 -876q-16 -114 -50 -198t-92.5 -147t-149 -94.5t-212.5 -31.5z" />
    <glyph glyph-name="K" unicode="K" horiz-adv-x="1390" 
d="M88 0l186 1327h281l-88 -633l637 633h366l-673 -665l497 -662h-368l-465 647l-92 -647h-281z" />
    <glyph glyph-name="L" unicode="L" horiz-adv-x="1081" 
d="M88 0l186 1327h281l-154 -1094h586l-33 -233h-866z" />
    <glyph glyph-name="M" unicode="M" horiz-adv-x="1757" 
d="M807 -20l-281 661l-198 -641h-287l451 1348h20l369 -865l610 865h20l74 -1348h-274l-23 641l-461 -661h-20z" />
    <glyph glyph-name="N" unicode="N" horiz-adv-x="1445" 
d="M1206 -20l-735 792l-109 -772h-274l191 1348h20l733 -791l109 770h274l-188 -1347h-21z" />
    <glyph glyph-name="O" unicode="O" horiz-adv-x="1562" 
d="M737 -20q-152 0 -271.5 44.5t-194.5 124t-113.5 186t-38.5 234.5q0 62 8 117q42 299 244.5 480.5t513.5 181.5q287 0 451.5 -158.5t164.5 -425.5q0 -60 -8 -117q-19 -142 -79.5 -263.5t-155 -211.5t-229 -141t-292.5 -51zM745 238q187 0 311.5 120t151.5 314q4 31 4 82
q0 153 -88.5 245.5t-251.5 92.5q-186 0 -309.5 -119.5t-150.5 -308.5q-6 -46 -6 -80q0 -155 87 -250.5t252 -95.5z" />
    <glyph glyph-name="P" unicode="P" horiz-adv-x="1200" 
d="M88 0l186 1327h334q71 0 122.5 -2.5t116.5 -11t111 -24.5t93.5 -45.5t76.5 -70t47.5 -101.5t18.5 -138q0 -52 -6 -96q-12 -84 -44 -149.5t-70.5 -108t-98.5 -72.5t-108.5 -44.5t-121.5 -22.5t-116 -9.5t-113 -1.5h-86l-61 -430h-281zM461 657h69q45 0 73.5 1t69 5
t66.5 12.5t56 23.5t49.5 37.5t35.5 55.5t23 76q4 24 4 54q0 49 -15.5 82.5t-39.5 52.5t-67.5 29.5t-84.5 13t-106 2.5h-70z" />
    <glyph glyph-name="Q" unicode="Q" horiz-adv-x="1562" 
d="M1501 764q0 -60 -8 -117q-36 -254 -188 -426l155 -143l-153 -160l-174 160q-178 -98 -396 -98q-152 0 -271.5 44.5t-194.5 124t-113.5 186t-38.5 234.5q0 62 8 117q42 299 244.5 480.5t513.5 181.5q287 0 451.5 -158.5t164.5 -425.5zM913 582l189 -174q85 111 106 264
q4 31 4 82q0 153 -88.5 245.5t-251.5 92.5q-186 0 -309.5 -119.5t-150.5 -308.5q-6 -46 -6 -80q0 -155 87 -250.5t252 -95.5q92 0 177 32l-162 150z" />
    <glyph glyph-name="R" unicode="R" horiz-adv-x="1220" 
d="M1184 950q0 -184 -86.5 -303.5t-237.5 -161.5l248 -485h-315l-213 453h-148l-63 -453h-281l186 1327h342q62 0 112.5 -2.5t111.5 -12t107.5 -25.5t93 -44.5t76.5 -67t48.5 -96t18.5 -129.5zM522 680q50 0 86.5 2t79 9t72.5 20.5t58 35t46 55.5t27 79q6 24 6 51
q0 34 -9.5 61t-24 44.5t-39.5 29.5t-47 18.5t-57 10t-58.5 4t-61.5 0.5h-76l-59 -420h57z" />
    <glyph glyph-name="S" unicode="S" horiz-adv-x="1024" 
d="M430 -20q-229 0 -367 83l37 261q63 -45 147 -75t175 -30q109 0 163 44.5t54 125.5q0 40 -24.5 72.5t-64 56t-87 47t-95 54.5t-87 70t-64 101t-24.5 140q0 200 126.5 309t346.5 109q100 0 189.5 -21.5t131.5 -48.5l-39 -258q-54 39 -130.5 64.5t-147.5 25.5
q-92 0 -141.5 -45.5t-49.5 -110.5q0 -43 25 -77t64.5 -57.5t87.5 -47t95.5 -53.5t87 -68.5t64.5 -101t25 -141.5q0 -208 -135 -318t-363 -110z" />
    <glyph glyph-name="T" unicode="T" horiz-adv-x="1150" 
d="M371 0l153 1096h-362l33 231h1003l-33 -231h-358l-154 -1096h-282z" />
    <glyph glyph-name="U" unicode="U" horiz-adv-x="1353" 
d="M627 -20q-238 0 -361 109t-123 325q0 25 2.5 54.5t5 48t7 51t6.5 44.5l98 715h283l-107 -760q-12 -74 -12 -135q0 -99 48.5 -151t160.5 -52q145 0 216 85t95 266l107 747h280l-110 -788q-8 -54 -17.5 -99t-30.5 -105t-48.5 -107t-73.5 -95t-103.5 -80t-140.5 -52.5
t-182 -20.5z" />
    <glyph glyph-name="V" unicode="V" horiz-adv-x="1366" 
d="M606 -18l-450 1345h301l233 -786l447 786h317l-827 -1345h-21z" />
    <glyph glyph-name="W" unicode="W" horiz-adv-x="2097" 
d="M586 -18l-416 1345h301l213 -741l467 741h20l261 -741l421 741h316l-791 -1345h-20l-268 766l-484 -766h-20z" />
    <glyph glyph-name="X" unicode="X" horiz-adv-x="1343" 
d="M-31 0l561 676l-356 651h324l231 -455l354 455h338l-542 -651l364 -676h-323l-240 475l-371 -475h-340z" />
    <glyph glyph-name="Y" unicode="Y" horiz-adv-x="1302" 
d="M440 0l76 526l-360 801h301l229 -555l389 555h314l-592 -801l-74 -526h-283z" />
    <glyph glyph-name="Z" unicode="Z" horiz-adv-x="1222" 
d="M2 0l4 20l766 1076h-571l32 231h1029l-5 -20l-761 -1074h608l-33 -233h-1069z" />
    <glyph glyph-name="bracketleft" unicode="[" horiz-adv-x="724" 
d="M31 -406l243 1733h512l-32 -225h-240l-178 -1282h239l-32 -226h-512z" />
    <glyph glyph-name="backslash" unicode="\" horiz-adv-x="1054" 
d="M651 -406l-508 1733h281l508 -1733h-281z" />
    <glyph glyph-name="bracketright" unicode="]" horiz-adv-x="727" 
d="M-61 -406l32 226h240l180 1282h-241l32 225h512l-243 -1733h-512z" />
    <glyph glyph-name="asciicircum" unicode="^" 
d="M176 659l543 689h20l346 -689h-280l-125 275l-205 -275h-299z" />
    <glyph glyph-name="underscore" unicode="_" horiz-adv-x="839" 
d="M-119 -381l31 213h840l-31 -213h-840z" />
    <glyph glyph-name="grave" unicode="`" horiz-adv-x="1040" 
d="M653 1065l-291 346h353l200 -346h-262z" />
    <glyph glyph-name="a" unicode="a" horiz-adv-x="1075" 
d="M567 942q191 0 292.5 -78.5t101.5 -226.5q0 -40 -13 -131l-71 -506h-248l8 90q-97 -108 -281 -108q-149 0 -230 70t-81 196q0 106 60.5 183.5t157 115t214.5 37.5q124 0 207 -39q4 40 4 59q0 64 -40.5 100.5t-147.5 36.5q-145 0 -297 -88l30 217q153 72 334 72zM451 158
q82 0 137.5 54.5t68.5 154.5l2 10q-57 39 -147 39q-87 0 -138.5 -39.5t-51.5 -108.5q0 -54 34.5 -82t94.5 -28z" />
    <glyph glyph-name="b" unicode="b" horiz-adv-x="1210" 
d="M631 -18q-103 0 -178.5 32.5t-114.5 91.5l-21 -106h-249l190 1358h272l-71 -504q110 88 272 88q191 0 301.5 -117.5t110.5 -302.5q0 -44 -6 -90q-30 -210 -171.5 -330t-334.5 -120zM590 211q122 0 196 88t74 213q0 95 -54 149t-147 54q-122 0 -196 -88.5t-74 -212.5
q0 -95 54 -149t147 -54z" />
    <glyph glyph-name="c" unicode="c" horiz-adv-x="907" 
d="M514 -20q-95 0 -174.5 25t-141 74.5t-96 131t-34.5 188.5q0 37 6 84q22 154 102 259t195 152.5t258 47.5q158 0 256 -59l-33 -228q-100 62 -213 62q-107 0 -186.5 -63t-100.5 -185q-4 -24 -4 -49q0 -98 55 -154.5t160 -56.5q119 0 238 76l-35 -250q-38 -23 -109 -39
t-143 -16z" />
    <glyph glyph-name="d" unicode="d" horiz-adv-x="1208" 
d="M475 -18q-183 0 -294 111.5t-111 307.5q0 45 6 91q30 210 165 330t332 120q201 0 281 -113l74 529h272l-188 -1358h-250l6 94q-46 -51 -120.5 -81.5t-172.5 -30.5zM551 211q121 0 195.5 88t74.5 213q0 97 -52.5 150t-143.5 53q-123 0 -199 -87t-76 -214q0 -93 53.5 -148
t147.5 -55z" />
    <glyph glyph-name="e" unicode="e" horiz-adv-x="1075" 
d="M551 -18q-83 0 -152 12.5t-131 42t-105 75.5t-68 117.5t-25 163.5q0 43 6 92q27 206 162.5 331.5t351.5 125.5q209 0 311.5 -100.5t102.5 -263.5q0 -91 -27 -201h-633v-8q0 -168 236 -168q180 0 344 82l-35 -232q-50 -26 -138 -47.5t-200 -21.5zM369 549h364q4 16 4 39
q0 62 -43 100.5t-114 38.5q-78 0 -136 -49t-75 -129z" />
    <glyph glyph-name="f" unicode="f" horiz-adv-x="757" 
d="M147 0l101 711h-160l31 213h157l11 75q26 192 121 292t292 100q126 0 203 -37l-31 -221q-50 30 -133 30q-89 0 -130 -49.5t-54 -142.5l-6 -47h211l-31 -213h-209l-100 -711h-273z" />
    <glyph glyph-name="g" unicode="g" horiz-adv-x="1214" 
d="M451 -426q-186 0 -293 43l32 223q105 -41 232 -41q154 0 233 74.5t101 226.5l2 13q-40 -48 -115 -80.5t-172 -32.5q-184 0 -291.5 110.5t-107.5 303.5q0 41 6 88q32 209 168 324.5t336 115.5q102 0 177 -36t113 -99l27 117h248l-119 -836q-20 -145 -65 -244.5
t-118 -158.5t-168 -85t-226 -26zM549 227q117 0 191.5 87.5t74.5 203.5q0 97 -54 148t-138 51q-117 0 -194 -86.5t-77 -206.5q0 -91 53 -144t144 -53z" />
    <glyph glyph-name="h" unicode="h" horiz-adv-x="1120" 
d="M68 0l190 1358h272l-69 -510q94 94 252 94q142 0 224.5 -79t82.5 -224q0 -30 -10 -115l-74 -524h-272l73 520q0 1 4 34t4 50q0 50 -30 81.5t-97 31.5q-54 0 -93 -20t-62.5 -59t-36.5 -82.5t-23 -104.5l-63 -451h-272z" />
    <glyph glyph-name="i" unicode="i" horiz-adv-x="575" 
d="M391 1096q-63 0 -100 37t-37 98q0 75 45 119.5t113 44.5q61 0 99 -36.5t38 -98.5q0 -78 -45.5 -121t-112.5 -43zM92 0l101 711h-117l30 213h388l-129 -924h-273z" />
    <glyph glyph-name="j" unicode="j" horiz-adv-x="575" 
d="M391 1096q-63 0 -100 37t-37 98q0 75 45 119.5t113 44.5q61 0 99 -36.5t38 -98.5q0 -78 -45.5 -121t-112.5 -43zM-94 -424q-130 0 -201 31l31 209q54 -21 131 -21q63 0 106 19.5t68.5 62t38.5 89.5t24 120l89 625h-117l30 213h388l-115 -820q-10 -71 -19.5 -121
t-27.5 -109t-40.5 -99.5t-57.5 -81t-80 -64t-108 -38.5t-140 -15z" />
    <glyph glyph-name="k" unicode="k" horiz-adv-x="1095" 
d="M68 0l190 1358h272l-118 -850l389 416h340l-436 -439l313 -485h-328l-284 469l-66 -469h-272z" />
    <glyph glyph-name="l" unicode="l" horiz-adv-x="538" 
d="M68 0l190 1358h272l-190 -1358h-272z" />
    <glyph glyph-name="m" unicode="m" horiz-adv-x="1667" 
d="M68 0l131 924h247l-8 -107q40 56 110.5 90.5t156.5 34.5q90 0 154 -36.5t97 -104.5q47 62 123.5 101.5t177.5 39.5q146 0 228 -79.5t82 -225.5q0 -47 -11 -115l-73 -522h-273l72 500q10 72 10 106q0 111 -110 111q-88 0 -138 -67.5t-69 -205.5l-64 -444h-272l72 500
q10 72 10 106q0 111 -111 111q-88 0 -138 -67.5t-69 -205.5l-63 -444h-272z" />
    <glyph glyph-name="n" unicode="n" horiz-adv-x="1120" 
d="M68 0l131 924h247l-8 -101q99 119 275 119q142 0 224.5 -79.5t82.5 -223.5q0 -30 -10 -115l-74 -524h-272l73 520q0 1 4 34t4 50q0 50 -30 81.5t-97 31.5q-54 0 -93 -20t-62.5 -59t-36.5 -82.5t-23 -104.5l-63 -451h-272z" />
    <glyph glyph-name="o" unicode="o" horiz-adv-x="1173" 
d="M535 -18q-222 0 -343.5 117.5t-121.5 308.5q0 38 6 81q30 204 181.5 328.5t381.5 124.5q215 0 341 -111.5t126 -308.5q0 -40 -6 -84q-30 -214 -183.5 -335t-381.5 -121zM547 211q124 0 200 88t76 213q0 95 -52 149t-144 54q-122 0 -198.5 -91t-76.5 -216
q0 -90 52.5 -143.5t142.5 -53.5z" />
    <glyph glyph-name="p" unicode="p" horiz-adv-x="1210" 
d="M10 -406l189 1330h247l-6 -88q109 106 291 106q190 0 300 -117.5t110 -302.5q0 -44 -6 -90q-30 -211 -171 -330.5t-333 -119.5q-191 0 -279 106l-69 -494h-273zM590 211q122 0 196 88t74 213q0 95 -54 149t-147 54q-122 0 -196 -88.5t-74 -212.5q0 -95 54 -149t147 -54z
" />
    <glyph glyph-name="q" unicode="q" horiz-adv-x="1208" 
d="M680 -424l70 498q-106 -92 -275 -92q-183 0 -294 111.5t-111 307.5q0 45 6 91q31 211 168 330.5t342 119.5q101 0 175.5 -33t110.5 -96l21 111h250l-174 -1227zM551 211q121 0 195.5 88t74.5 213q0 97 -52.5 150t-143.5 53q-123 0 -199 -87t-76 -214q0 -93 53.5 -148
t147.5 -55z" />
    <glyph glyph-name="r" unicode="r" horiz-adv-x="704" 
d="M68 0l131 924h247l-8 -99q98 117 262 117q32 0 48 -4l-33 -233q-30 12 -80 12q-58 0 -100.5 -20t-68.5 -58.5t-40.5 -83t-22.5 -104.5l-63 -451h-272z" />
    <glyph glyph-name="s" unicode="s" horiz-adv-x="802" 
d="M311 -18q-89 0 -162.5 17.5t-107.5 39.5l29 205q38 -23 101.5 -44.5t129.5 -21.5q143 0 143 103q0 31 -17.5 54t-46 37.5t-62.5 28t-68.5 32t-63 43.5t-46 68.5t-17.5 100.5q0 135 91 216t263 81q81 0 150.5 -17t97.5 -34l-29 -203q-91 60 -196 60q-59 0 -90 -23t-31 -61
q0 -31 24 -53t59.5 -34.5t77 -33t77 -46t59.5 -77t24 -121.5q0 -157 -107 -237t-282 -80z" />
    <glyph glyph-name="t" unicode="t" horiz-adv-x="829" 
d="M492 -12q-159 0 -242.5 70t-83.5 196q0 48 20 192l37 265h-166l4 20q61 50 242.5 227.5t243.5 251.5h20l-39 -286h252l-30 -213h-252l-41 -287q-15 -81 -15 -125q0 -88 125 -88q74 0 154 39l-33 -227q-19 -11 -76.5 -23t-119.5 -12z" />
    <glyph glyph-name="u" unicode="u" horiz-adv-x="1064" 
d="M481 -18q-197 0 -287 91t-90 236q0 37 15 144l65 471h273l-74 -529q-8 -62 -8 -84q0 -106 119 -106q76 0 118.5 44t55.5 140l75 535h269l-76 -529q-9 -70 -26 -126t-51 -111.5t-82.5 -92.5t-124 -60t-171.5 -23z" />
    <glyph glyph-name="v" unicode="v" horiz-adv-x="1044" 
d="M446 -18l-370 942h289l151 -471l281 471h303l-633 -942h-21z" />
    <glyph glyph-name="w" unicode="w" horiz-adv-x="1468" 
d="M416 -18l-326 942h289l123 -437l280 437h21l153 -437l252 437h303l-591 -942h-21l-166 464l-297 -464h-20z" />
    <glyph glyph-name="x" unicode="x" horiz-adv-x="1130" 
d="M-37 0l440 461l-299 463h312l172 -297l258 297h319l-432 -467l299 -457h-313l-176 291l-258 -291h-322z" />
    <glyph glyph-name="y" unicode="y" horiz-adv-x="1060" 
d="M55 -406l281 480l-258 850h291l141 -566l303 566h301l-762 -1330h-297z" />
    <glyph glyph-name="z" unicode="z" horiz-adv-x="954" 
d="M-14 0l4 20l516 691h-385l31 213h819l-4 -21l-516 -688h428l-33 -215h-860z" />
    <glyph glyph-name="braceleft" unicode="{" horiz-adv-x="804" 
d="M414 -424q-170 0 -264.5 72t-94.5 205q0 64 21 124t51 104.5t60.5 86.5t51.5 87t21 89q0 64 -32 95.5t-103 37.5l6 43q182 15 182 158q0 42 -14.5 85t-32.5 74.5t-32.5 83t-14.5 107.5q0 163 116 262t310 99q123 0 225 -41l-28 -203q-69 41 -170 41q-86 0 -134.5 -49
t-48.5 -129q0 -38 14.5 -79t32 -72t32 -75.5t14.5 -89.5q0 -152 -193 -200q55 -16 97 -61.5t42 -117.5q0 -48 -20.5 -95t-50 -85t-59 -75.5t-50 -81.5t-20.5 -87q0 -108 131 -108q108 0 196 45l-30 -217q-100 -33 -211 -33z" />
    <glyph glyph-name="bar" unicode="|" horiz-adv-x="569" 
d="M25 -406l241 1733h279l-244 -1733h-276z" />
    <glyph glyph-name="braceright" unicode="}" horiz-adv-x="804" 
d="M164 -424q-136 0 -223 41l28 203q65 -39 170 -39q86 0 134.5 46.5t48.5 133.5q0 46 -23 101t-46.5 114t-23.5 113q0 87 55.5 145t121.5 72q-53 17 -89 54t-36 95q0 48 20.5 93.5t50 82t59 72.5t50 80.5t20.5 91.5q0 111 -139 111q-94 0 -186 -47l30 215q97 35 213 35
q169 0 262 -76t93 -217q0 -70 -21 -130t-51 -101.5t-59.5 -77.5t-50.5 -76.5t-21 -81.5q0 -99 139 -109l-8 -43q-84 -8 -134 -55t-50 -127q0 -42 23.5 -98t47 -121.5t23.5 -130.5q0 -171 -116 -270t-312 -99z" />
    <glyph glyph-name="asciitilde" unicode="~" 
d="M760 311q-53 0 -105 15.5t-85.5 34t-71 34t-64.5 15.5q-74 0 -94 -88h-197q14 136 94.5 214t211.5 78q57 0 106.5 -15.5t79.5 -33.5t67 -33.5t72 -15.5q78 0 96 88h199q-15 -139 -97.5 -216t-211.5 -77z" />
    <glyph glyph-name="uni00A0" unicode="&#xa0;" horiz-adv-x="430" 
 />
    <glyph glyph-name="exclamdown" unicode="&#xa1;" horiz-adv-x="632" 
d="M348 610q-68 0 -109.5 42.5t-41.5 111.5q0 79 51 127.5t123 48.5q71 0 112 -41t41 -108q0 -76 -52.5 -128.5t-123.5 -52.5zM53 -406l133 900h271l-113 -900h-291z" />
    <glyph glyph-name="cent" unicode="&#xa2;" horiz-adv-x="980" 
d="M512 0l27 186q-87 5 -160.5 32.5t-130.5 77t-89 128.5t-32 180q0 38 6 84q33 223 177.5 339t363.5 122l24 178h123l-26 -186q114 -8 198 -51l-32 -222q-93 61 -193 72l-78 -547q104 10 221 88l-34 -248q-72 -37 -215 -47l-27 -186h-123zM567 395l78 543
q-122 -18 -191 -107t-69 -215q0 -88 47.5 -148t134.5 -73z" />
    <glyph glyph-name="sterling" unicode="&#xa3;" horiz-adv-x="1001" 
d="M16 0l4 20q134 120 233 259.5t99 232.5q0 6 -1 14t-1 11h-237l32 227h129q-36 77 -36 162q0 81 29.5 154.5t86 134.5t150 97t211.5 36q106 0 192 -25.5t129 -62.5l-32 -252q-39 39 -105 70.5t-143 31.5q-104 0 -170 -60t-66 -157q0 -63 29 -129h319l-32 -227h-215
q6 -15 6 -43q0 -131 -117 -261h418l-33 -233h-879z" />
    <glyph glyph-name="currency" unicode="&#xa4;" 
d="M315 186l-182 176l150 148q-31 67 -31 139q0 82 33 144l-152 151l182 176l150 -149q71 33 141 33q71 0 142 -33l151 149l180 -176l-151 -151q30 -67 30 -144q0 -69 -28 -139l149 -148l-182 -176l-143 144q-72 -35 -148 -35q-72 0 -143 33zM606 485q72 0 119 42.5
t47 119.5t-48 122.5t-118 45.5q-72 0 -118 -45.5t-46 -122.5q0 -75 46 -118.5t118 -43.5z" />
    <glyph glyph-name="yen" unicode="&#xa5;" horiz-adv-x="1173" 
d="M381 0l41 305h-295l29 205h307l-51 135h-267l31 205h139l-190 477h299l192 -588l359 588h313l-325 -477h133l-31 -205h-256l-90 -135h299l-29 -205h-293l-43 -305h-272z" />
    <glyph glyph-name="brokenbar" unicode="&#xa6;" horiz-adv-x="569" 
d="M172 649l94 678h279l-94 -678h-279zM25 -406l94 678h278l-96 -678h-276z" />
    <glyph glyph-name="section" unicode="&#xa7;" horiz-adv-x="892" 
d="M307 -426q-195 0 -317 61l30 209q134 -67 271 -67q89 0 146 37t57 110q0 41 -24 73.5t-62 55.5t-84 45t-92.5 49t-84.5 60t-62 86.5t-24 120.5q0 120 70.5 203t177.5 116q-133 86 -133 248q0 173 121 270t315 97q72 0 141 -15t109 -35l-31 -206q-94 53 -213 53
q-90 0 -142 -41t-52 -109q0 -41 24 -74t62.5 -56.5t85 -46t93 -50.5t85 -62t62.5 -87.5t24 -120.5q0 -69 -23.5 -126t-62.5 -94.5t-82.5 -61t-91.5 -36.5q145 -86 145 -250q0 -173 -114.5 -264.5t-323.5 -91.5zM451 274q72 20 121 66.5t49 124.5q0 59 -39 99.5t-119 78.5
q-69 -23 -116.5 -71.5t-47.5 -120.5q0 -61 38.5 -99.5t113.5 -77.5z" />
    <glyph glyph-name="dieresis" unicode="&#xa8;" horiz-adv-x="1040" 
d="M401 1096q-62 0 -98.5 36.5t-36.5 94.5q0 72 49.5 120t118.5 48q59 0 96 -37.5t37 -93.5q0 -76 -47.5 -122t-118.5 -46zM846 1096q-63 0 -99 36.5t-36 94.5q0 72 49.5 120t118.5 48q59 0 95 -37t36 -94q0 -76 -46.5 -122t-117.5 -46z" />
    <glyph glyph-name="copyright" unicode="&#xa9;" horiz-adv-x="1574" 
d="M813 -20q-139 0 -265 52t-218 142t-146.5 218t-54.5 272t54.5 272t146.5 218t218 142t265 52t265.5 -52t219.5 -142t148 -218t55 -272t-55 -272t-148 -218t-219.5 -142t-265.5 -52zM815 156q217 0 351 143t134 367q0 223 -134 364t-351 141q-216 0 -350.5 -141.5
t-134.5 -363.5q0 -224 134.5 -367t350.5 -143zM842 326q-147 0 -246.5 85t-99.5 246q0 158 95 253.5t257 95.5q95 0 172 -35v-168q-68 47 -150 47q-78 0 -129 -48.5t-51 -139.5q0 -81 43 -130t135 -49q83 0 158 52v-168q-72 -41 -184 -41z" />
    <glyph glyph-name="ordfeminine" unicode="&#xaa;" horiz-adv-x="770" 
d="M487 1348q148 0 218.5 -59.5t70.5 -166.5q0 -11 -1 -22.5t-2.5 -25.5t-2.5 -23l-55 -387h-158l6 65q-73 -80 -194 -80q-112 0 -176 50.5t-64 144.5q0 120 87.5 180.5t225.5 60.5q69 0 133 -22l3 10q2 14 2 35q0 82 -129 82q-53 0 -113 -14t-98 -33l24 168q95 37 223 37z
M428 793q57 0 88 35t39 92l2 16q-45 20 -102 20q-55 0 -86 -25t-31 -67q0 -71 90 -71zM82 401l24 166h613l-23 -166h-614z" />
    <glyph glyph-name="guillemotleft" unicode="&#xab;" horiz-adv-x="1368" 
d="M317 152l-243 321l329 322h324l-356 -326l245 -317h-299zM874 152l-243 321l330 322h323l-356 -326l246 -317h-300z" />
    <glyph glyph-name="logicalnot" unicode="&#xac;" 
d="M768 180l49 355h-645l29 213h891l-80 -568h-244z" />
    <glyph glyph-name="uni00AD" unicode="&#xad;" horiz-adv-x="571" 
d="M61 391l31 213h430l-33 -213h-428z" />
    <glyph glyph-name="registered" unicode="&#xae;" horiz-adv-x="1574" 
d="M813 -20q-139 0 -265 52t-218 142t-146.5 218t-54.5 272t54.5 272t146.5 218t218 142t265 52t265.5 -52t219.5 -142t148 -218t55 -272t-55 -272t-148 -218t-219.5 -142t-265.5 -52zM815 156q217 0 351 143t134 367q0 223 -134 364t-351 141q-216 0 -350.5 -141.5
t-134.5 -363.5q0 -224 134.5 -367t350.5 -143zM580 334v663h256q42 0 76 -4.5t69 -18.5t58 -37t38 -62.5t15 -92.5q0 -153 -115 -198l141 -250h-192l-121 229h-53v-229h-172zM752 686h39q70 0 98.5 18.5t28.5 77.5q0 28 -8.5 46t-26.5 26.5t-37 11t-49 2.5h-45v-182z" />
    <glyph glyph-name="macron" unicode="&#xaf;" horiz-adv-x="1046" 
d="M313 1130l29 213h633l-29 -213h-633z" />
    <glyph glyph-name="degree" unicode="&#xb0;" horiz-adv-x="1087" 
d="M633 836q-111 0 -186.5 72t-75.5 184q0 111 76 183.5t186 72.5t186 -72.5t76 -183.5q0 -112 -75.5 -184t-186.5 -72zM633 975q49 0 80.5 31.5t31.5 85.5q0 53 -32 84.5t-80 31.5q-47 0 -80 -31.5t-33 -84.5q0 -54 32.5 -85.5t80.5 -31.5z" />
    <glyph glyph-name="plusminus" unicode="&#xb1;" 
d="M465 303l47 334h-322l29 213h324l47 334h244l-48 -334h324l-31 -213h-323l-45 -334h-246zM102 0l29 213h891l-31 -213h-889z" />
    <glyph glyph-name="uni00B2" unicode="&#xb2;" horiz-adv-x="778" 
d="M115 539l4 18l282 342q66 81 87.5 117t21.5 76q0 36 -24.5 56.5t-69.5 20.5q-95 0 -201 -90l29 207q33 24 91 43t128 19q126 0 191 -63t65 -167q0 -80 -38.5 -145.5t-145.5 -188.5l-62 -73h209l-25 -172h-542z" />
    <glyph glyph-name="uni00B3" unicode="&#xb3;" horiz-adv-x="780" 
d="M770 1327l-2 -20l-203 -299q58 -11 100 -58t42 -133q0 -149 -90 -224t-242 -75q-144 0 -223 49l24 189q79 -60 189 -60q135 0 135 113q0 39 -25 61.5t-76 22.5q-63 0 -116 -39l-17 16l191 285h-221l24 172h510z" />
    <glyph glyph-name="acute" unicode="&#xb4;" horiz-adv-x="1052" 
d="M315 1065l297 346h365l-385 -346h-277z" />
    <glyph glyph-name="uni00B5" unicode="&#xb5;" horiz-adv-x="1122" 
d="M782 924h273l-131 -924h-248l10 102q-37 -58 -92.5 -89t-112.5 -31q-91 0 -141 47l-61 -435h-269l189 1330h272l-70 -498q-8 -62 -8 -107q0 -114 125 -114q42 0 73.5 14.5t52.5 37.5t36.5 62.5t24.5 79.5t18 99z" />
    <glyph glyph-name="paragraph" unicode="&#xb6;" horiz-adv-x="1628" 
d="M524 -424q-110 0 -182 35l27 194q33 -14 82 -14q54 0 75.5 29.5t34.5 103.5l72 506h-17q-78 0 -140.5 6.5t-132.5 29t-117 60.5t-78 105.5t-31 159.5q0 30 8 96q12 87 42.5 156.5t69 114.5t93 78t103 50t113 27t108.5 12t102 2h954l-31 -231h-229l-211 -1502h-283
l213 1502h-161l-177 -1246q-9 -64 -27 -111t-52.5 -85.5t-91 -58t-136.5 -19.5z" />
    <glyph glyph-name="periodcentered" unicode="&#xb7;" horiz-adv-x="593" 
d="M287 311q-70 0 -111 41.5t-41 108.5q0 77 51.5 128.5t122.5 51.5q68 0 111 -42.5t43 -111.5q0 -79 -52 -127.5t-124 -48.5z" />
    <glyph glyph-name="cedilla" unicode="&#xb8;" horiz-adv-x="1056" 
d="M469 -82q65 -2 105 -37t40 -102q0 -203 -256 -203q-87 0 -143 25l18 129q42 -25 103 -25q40 0 65 17t25 51q0 25 -15 40t-44 15q-45 0 -74 -33l-23 15l101 237h159z" />
    <glyph glyph-name="uni00B9" unicode="&#xb9;" horiz-adv-x="788" 
d="M340 539l78 551l-207 -93l25 181l405 170h18l-114 -809h-205z" />
    <glyph glyph-name="ordmasculine" unicode="&#xba;" horiz-adv-x="845" 
d="M455 649q-145 0 -228.5 76t-83.5 215q0 55 13 111q33 138 134.5 216.5t252.5 78.5q144 0 226.5 -76t82.5 -215q0 -59 -12 -111q-33 -138 -133.5 -216.5t-251.5 -78.5zM465 815q138 0 178 170q6 34 6 59q0 69 -31.5 103.5t-87.5 34.5q-69 0 -113.5 -45t-62.5 -127
q-8 -31 -8 -60q0 -68 31.5 -101.5t87.5 -33.5zM106 401l25 166h612l-24 -166h-613z" />
    <glyph glyph-name="guillemotright" unicode="&#xbb;" horiz-adv-x="1368" 
d="M90 152l356 321l-247 322h301l243 -322l-329 -321h-324zM647 152l357 321l-248 322h301l243 -322l-329 -321h-324z" />
    <glyph glyph-name="onequarter" unicode="&#xbc;" horiz-adv-x="1945" 
d="M340 539l78 551l-207 -93l25 181l405 170h18l-114 -809h-205zM397 0l924 1327h281l-924 -1327h-281zM1440 0l16 113h-371l5 20l630 676h21l-78 -559h111l-21 -137h-115l-12 -113h-186zM1380 250h97l18 121z" />
    <glyph glyph-name="onehalf" unicode="&#xbd;" horiz-adv-x="1945" 
d="M340 539l78 551l-207 -93l25 181l405 170h18l-114 -809h-205zM416 0l923 1327h281l-924 -1327h-280zM1239 0l4 18l283 342q66 80 87 116.5t21 76.5q0 36 -24.5 57t-69.5 21q-95 0 -201 -90l29 207q33 24 91 42.5t128 18.5q126 0 191 -62.5t65 -166.5q0 -80 -38.5 -145.5
t-145.5 -188.5l-62 -74h209l-24 -172h-543z" />
    <glyph glyph-name="threequarters" unicode="&#xbe;" horiz-adv-x="1945" 
d="M707 817q0 -149 -90 -224t-242 -75q-144 0 -223 49l24 189q79 -60 189 -60q135 0 135 113q0 39 -25 61.5t-76 22.5q-63 0 -116 -39l-17 16l191 285h-221l24 172h510l-2 -20l-203 -299q58 -11 100 -58t42 -133zM1337 1327h281l-924 -1327h-280zM1663 250h111l-21 -137
h-115l-12 -113h-186l14 113h-369v14l635 682h21zM1477 250l18 123l-115 -123h97z" />
    <glyph glyph-name="questiondown" unicode="&#xbf;" horiz-adv-x="890" 
d="M539 612q-68 0 -110 42.5t-42 111.5q0 79 51 127.5t123 48.5q71 0 112.5 -41t41.5 -108q0 -76 -52.5 -128.5t-123.5 -52.5zM420 -426q-192 0 -301 98t-109 262q0 166 95.5 272t246.5 120l25 168h268l-43 -312q-86 -1 -152.5 -22.5t-110.5 -73.5t-44 -129q0 -75 48.5 -111
t129.5 -36q159 0 285 110l-37 -262q-40 -31 -120.5 -57.5t-180.5 -26.5z" />
    <glyph glyph-name="Agrave" unicode="&#xc0;" horiz-adv-x="1312" 
d="M719 1448l-291 346h352l201 -346h-262zM-31 0l803 1348h21l419 -1348h-292l-58 205h-477l-117 -205h-299zM504 424h307l-102 367z" />
    <glyph glyph-name="Aacute" unicode="&#xc1;" horiz-adv-x="1312" 
d="M584 1448l297 346h364l-385 -346h-276zM-31 0l803 1348h21l419 -1348h-292l-58 205h-477l-117 -205h-299zM504 424h307l-102 367z" />
    <glyph glyph-name="Acircumflex" unicode="&#xc2;" horiz-adv-x="1312" 
d="M416 1448l428 364l317 -364h-260l-88 111l-117 -111h-280zM-31 0l803 1348h21l419 -1348h-292l-58 205h-477l-117 -205h-299zM504 424h307l-102 367z" />
    <glyph glyph-name="Atilde" unicode="&#xc3;" horiz-adv-x="1312" 
d="M950 1477q-54 0 -104.5 21t-91 42t-70.5 21q-40 0 -59 -22.5t-23 -51.5h-166q14 126 78.5 194t171.5 68q56 0 107.5 -21t92 -42t68.5 -21q37 0 56.5 23t23.5 51h166q-9 -120 -75.5 -191t-174.5 -71zM-31 0l803 1348h21l419 -1348h-292l-58 205h-477l-117 -205h-299z
M504 424h307l-102 367z" />
    <glyph glyph-name="Adieresis" unicode="&#xc4;" horiz-adv-x="1312" 
d="M588 1464q-70 0 -111 41t-41 107q0 73 50 122.5t122 49.5q67 0 108.5 -42.5t41.5 -107.5q0 -74 -48.5 -122t-121.5 -48zM1034 1464q-68 0 -109.5 41.5t-41.5 106.5q0 73 50 122.5t122 49.5q67 0 108 -42.5t41 -107.5q0 -74 -48.5 -122t-121.5 -48zM-31 0l803 1348h21
l419 -1348h-292l-58 205h-477l-117 -205h-299zM504 424h307l-102 367z" />
    <glyph glyph-name="Aring" unicode="&#xc5;" horiz-adv-x="1312" 
d="M827 1239l385 -1239h-292l-58 205h-477l-117 -205h-299l740 1241q-65 15 -103.5 65t-38.5 121q0 102 71 165t171 63q92 0 148.5 -51.5t56.5 -139.5q0 -94 -53 -152.5t-134 -72.5zM797 1526q-36 0 -61 -25t-25 -63q0 -33 19.5 -53.5t55.5 -20.5t61 23.5t25 62.5
q0 34 -20.5 55t-54.5 21zM504 424h307l-102 367z" />
    <glyph glyph-name="AE" unicode="&#xc6;" horiz-adv-x="1828" 
d="M-31 0l791 1327h629l73 -231h-592l95 -303h458l72 -232h-457l101 -328h583l74 -233h-876l-58 205h-477l-117 -205h-299zM504 424h307l-102 367z" />
    <glyph glyph-name="Ccedilla" unicode="&#xc7;" horiz-adv-x="1296" 
d="M905 1092q-191 0 -326.5 -120t-166.5 -308q-6 -38 -6 -78q0 -163 93.5 -255.5t270.5 -92.5q212 0 393 114l-41 -293q-45 -29 -137 -52t-201 -27l-30 -62q65 -2 105 -37t40 -102q0 -203 -256 -203q-87 0 -143 25l18 129q42 -25 103 -25q40 0 65 17t25 51q0 25 -15.5 40
t-44.5 15q-44 0 -73 -33l-23 15l76 178q-248 31 -381 189t-133 392q0 59 10 121q53 308 258.5 483t521.5 175q121 0 219 -28.5t146 -68.5l-37 -266q-143 107 -330 107z" />
    <glyph glyph-name="Egrave" unicode="&#xc8;" horiz-adv-x="1077" 
d="M713 1448l-291 346h352l201 -346h-262zM88 0l186 1327h822l-33 -231h-541l-43 -303h383l-33 -232h-383l-45 -328h566l-33 -233h-846z" />
    <glyph glyph-name="Eacute" unicode="&#xc9;" horiz-adv-x="1077" 
d="M494 1448l297 346h364l-385 -346h-276zM88 0l186 1327h822l-33 -231h-541l-43 -303h383l-33 -232h-383l-45 -328h566l-33 -233h-846z" />
    <glyph glyph-name="Ecircumflex" unicode="&#xca;" horiz-adv-x="1077" 
d="M326 1448l428 364l317 -364h-260l-88 111l-117 -111h-280zM88 0l186 1327h822l-33 -231h-541l-43 -303h383l-33 -232h-383l-45 -328h566l-33 -233h-846z" />
    <glyph glyph-name="Edieresis" unicode="&#xcb;" horiz-adv-x="1077" 
d="M498 1464q-70 0 -111 41t-41 107q0 73 50 122.5t122 49.5q67 0 108.5 -42.5t41.5 -107.5q0 -74 -48.5 -122t-121.5 -48zM944 1464q-68 0 -109.5 41.5t-41.5 106.5q0 73 50 122.5t122 49.5q67 0 108 -42.5t41 -107.5q0 -74 -48.5 -122t-121.5 -48zM88 0l186 1327h822
l-33 -231h-541l-43 -303h383l-33 -232h-383l-45 -328h566l-33 -233h-846z" />
    <glyph glyph-name="Igrave" unicode="&#xcc;" horiz-adv-x="587" 
d="M309 1448l-291 346h353l200 -346h-262zM88 0l186 1327h281l-186 -1327h-281z" />
    <glyph glyph-name="Iacute" unicode="&#xcd;" horiz-adv-x="587" 
d="M291 1448l297 346h364l-385 -346h-276zM88 0l186 1327h281l-186 -1327h-281z" />
    <glyph glyph-name="Icircumflex" unicode="&#xce;" horiz-adv-x="587" 
d="M53 1448l428 364l318 -364h-260l-88 111l-117 -111h-281zM88 0l186 1327h281l-186 -1327h-281z" />
    <glyph glyph-name="Idieresis" unicode="&#xcf;" horiz-adv-x="587" 
d="M225 1464q-69 0 -110 41t-41 107q0 73 50 122.5t122 49.5q67 0 108 -42.5t41 -107.5q0 -74 -48.5 -122t-121.5 -48zM672 1464q-68 0 -110 41.5t-42 106.5q0 73 50 122.5t122 49.5q67 0 108.5 -42.5t41.5 -107.5q0 -74 -48.5 -122t-121.5 -48zM88 0l186 1327h281
l-186 -1327h-281z" />
    <glyph glyph-name="Eth" unicode="&#xd0;" horiz-adv-x="1468" 
d="M600 1327q69 0 118.5 -1.5t120.5 -7t123.5 -16t115 -30.5t107.5 -47t89.5 -69t72.5 -94t45 -123.5t17 -156.5q0 -69 -10 -143q-17 -119 -58.5 -215.5t-96 -162t-130.5 -114.5t-150 -76.5t-166 -44t-168 -21.5t-165 -5h-305l80 567h-222l31 219h221l76 541h254zM1114 672
q6 44 6 92q0 63 -14.5 113t-38.5 85t-62 60t-78 39.5t-94.5 23t-103 11t-111.5 2.5h-24l-43 -312h250l-31 -219h-250l-45 -336h12q99 0 180.5 11.5t159.5 41.5t134.5 78.5t97 127t55.5 182.5z" />
    <glyph glyph-name="Ntilde" unicode="&#xd1;" horiz-adv-x="1445" 
d="M1018 1477q-54 0 -104.5 21t-91 42t-70.5 21q-40 0 -59 -22.5t-23 -51.5h-166q14 126 78.5 194t171.5 68q56 0 107.5 -21t92 -42t68.5 -21q37 0 56.5 23t23.5 51h166q-9 -120 -75.5 -191t-174.5 -71zM1206 -20l-735 792l-109 -772h-274l191 1348h20l733 -791l109 770h274
l-188 -1347h-21z" />
    <glyph glyph-name="Ograve" unicode="&#xd2;" horiz-adv-x="1562" 
d="M930 1448l-291 346h352l201 -346h-262zM737 -20q-152 0 -271.5 44.5t-194.5 124t-113.5 186t-38.5 234.5q0 62 8 117q42 299 244.5 480.5t513.5 181.5q287 0 451.5 -158.5t164.5 -425.5q0 -60 -8 -117q-19 -142 -79.5 -263.5t-155 -211.5t-229 -141t-292.5 -51zM745 238
q187 0 311.5 120t151.5 314q4 31 4 82q0 153 -88.5 245.5t-251.5 92.5q-186 0 -309.5 -119.5t-150.5 -308.5q-6 -46 -6 -80q0 -155 87 -250.5t252 -95.5z" />
    <glyph glyph-name="Oacute" unicode="&#xd3;" horiz-adv-x="1562" 
d="M711 1448l297 346h364l-385 -346h-276zM737 -20q-152 0 -271.5 44.5t-194.5 124t-113.5 186t-38.5 234.5q0 62 8 117q42 299 244.5 480.5t513.5 181.5q287 0 451.5 -158.5t164.5 -425.5q0 -60 -8 -117q-19 -142 -79.5 -263.5t-155 -211.5t-229 -141t-292.5 -51zM745 238
q187 0 311.5 120t151.5 314q4 31 4 82q0 153 -88.5 245.5t-251.5 92.5q-186 0 -309.5 -119.5t-150.5 -308.5q-6 -46 -6 -80q0 -155 87 -250.5t252 -95.5z" />
    <glyph glyph-name="Ocircumflex" unicode="&#xd4;" horiz-adv-x="1562" 
d="M543 1448l428 364l317 -364h-260l-88 111l-117 -111h-280zM737 -20q-152 0 -271.5 44.5t-194.5 124t-113.5 186t-38.5 234.5q0 62 8 117q42 299 244.5 480.5t513.5 181.5q287 0 451.5 -158.5t164.5 -425.5q0 -60 -8 -117q-19 -142 -79.5 -263.5t-155 -211.5t-229 -141
t-292.5 -51zM745 238q187 0 311.5 120t151.5 314q4 31 4 82q0 153 -88.5 245.5t-251.5 92.5q-186 0 -309.5 -119.5t-150.5 -308.5q-6 -46 -6 -80q0 -155 87 -250.5t252 -95.5z" />
    <glyph glyph-name="Otilde" unicode="&#xd5;" horiz-adv-x="1562" 
d="M1077 1477q-54 0 -104.5 21t-91 42t-70.5 21q-40 0 -59 -22.5t-23 -51.5h-166q14 126 78.5 194t171.5 68q56 0 107.5 -21t92 -42t68.5 -21q37 0 56.5 23t23.5 51h166q-9 -120 -75.5 -191t-174.5 -71zM737 -20q-152 0 -271.5 44.5t-194.5 124t-113.5 186t-38.5 234.5
q0 62 8 117q42 299 244.5 480.5t513.5 181.5q287 0 451.5 -158.5t164.5 -425.5q0 -60 -8 -117q-19 -142 -79.5 -263.5t-155 -211.5t-229 -141t-292.5 -51zM745 238q187 0 311.5 120t151.5 314q4 31 4 82q0 153 -88.5 245.5t-251.5 92.5q-186 0 -309.5 -119.5t-150.5 -308.5
q-6 -46 -6 -80q0 -155 87 -250.5t252 -95.5z" />
    <glyph glyph-name="Odieresis" unicode="&#xd6;" horiz-adv-x="1562" 
d="M715 1464q-69 0 -110.5 41t-41.5 107q0 73 50 122.5t122 49.5q67 0 108.5 -42.5t41.5 -107.5q0 -74 -48.5 -122t-121.5 -48zM1161 1464q-68 0 -109.5 41.5t-41.5 106.5q0 73 50 122.5t122 49.5q67 0 108 -42.5t41 -107.5q0 -74 -48.5 -122t-121.5 -48zM737 -20
q-152 0 -271.5 44.5t-194.5 124t-113.5 186t-38.5 234.5q0 62 8 117q42 299 244.5 480.5t513.5 181.5q287 0 451.5 -158.5t164.5 -425.5q0 -60 -8 -117q-19 -142 -79.5 -263.5t-155 -211.5t-229 -141t-292.5 -51zM745 238q187 0 311.5 120t151.5 314q4 31 4 82
q0 153 -88.5 245.5t-251.5 92.5q-186 0 -309.5 -119.5t-150.5 -308.5q-6 -46 -6 -80q0 -155 87 -250.5t252 -95.5z" />
    <glyph glyph-name="multiply" unicode="&#xd7;" 
d="M252 -4l-162 184l330 289l-244 285l197 174l245 -287l332 293l164 -184l-330 -293l246 -289l-194 -172l-250 287z" />
    <glyph glyph-name="Oslash" unicode="&#xd8;" horiz-adv-x="1562" 
d="M41 -61l205 237q-127 151 -127 393q0 62 8 117q42 299 244.5 480.5t513.5 181.5q176 0 313 -64l107 123h260l-207 -240q143 -152 143 -403q0 -60 -8 -117q-19 -142 -79.5 -263.5t-155 -211.5t-229 -141t-292.5 -51q-196 0 -336 73l-100 -114h-260zM444 408l570 661
q-54 23 -142 23q-186 0 -309.5 -119.5t-150.5 -308.5q-6 -46 -6 -80q0 -107 38 -176zM745 238q187 0 311.5 120t151.5 314q4 31 4 82q0 110 -47 190l-579 -676q55 -30 159 -30z" />
    <glyph glyph-name="Ugrave" unicode="&#xd9;" horiz-adv-x="1353" 
d="M821 1448l-291 346h353l200 -346h-262zM627 -20q-238 0 -361 109t-123 325q0 25 2.5 54.5t5 48t7 51t6.5 44.5l98 715h283l-107 -760q-12 -74 -12 -135q0 -99 48.5 -151t160.5 -52q145 0 216 85t95 266l107 747h280l-110 -788q-8 -54 -17.5 -99t-30.5 -105t-48.5 -107
t-73.5 -95t-103.5 -80t-140.5 -52.5t-182 -20.5z" />
    <glyph glyph-name="Uacute" unicode="&#xda;" horiz-adv-x="1353" 
d="M602 1448l297 346h365l-385 -346h-277zM627 -20q-238 0 -361 109t-123 325q0 25 2.5 54.5t5 48t7 51t6.5 44.5l98 715h283l-107 -760q-12 -74 -12 -135q0 -99 48.5 -151t160.5 -52q145 0 216 85t95 266l107 747h280l-110 -788q-8 -54 -17.5 -99t-30.5 -105t-48.5 -107
t-73.5 -95t-103.5 -80t-140.5 -52.5t-182 -20.5z" />
    <glyph glyph-name="Ucircumflex" unicode="&#xdb;" horiz-adv-x="1353" 
d="M434 1448l428 364l318 -364h-260l-89 111l-116 -111h-281zM627 -20q-238 0 -361 109t-123 325q0 25 2.5 54.5t5 48t7 51t6.5 44.5l98 715h283l-107 -760q-12 -74 -12 -135q0 -99 48.5 -151t160.5 -52q145 0 216 85t95 266l107 747h280l-110 -788q-8 -54 -17.5 -99
t-30.5 -105t-48.5 -107t-73.5 -95t-103.5 -80t-140.5 -52.5t-182 -20.5z" />
    <glyph glyph-name="Udieresis" unicode="&#xdc;" horiz-adv-x="1353" 
d="M606 1464q-69 0 -110 41t-41 107q0 73 50 122.5t122 49.5q67 0 108 -42.5t41 -107.5q0 -74 -48.5 -122t-121.5 -48zM1053 1464q-68 0 -110 41.5t-42 106.5q0 73 50 122.5t122 49.5q67 0 108.5 -42.5t41.5 -107.5q0 -74 -48.5 -122t-121.5 -48zM627 -20q-238 0 -361 109
t-123 325q0 25 2.5 54.5t5 48t7 51t6.5 44.5l98 715h283l-107 -760q-12 -74 -12 -135q0 -99 48.5 -151t160.5 -52q145 0 216 85t95 266l107 747h280l-110 -788q-8 -54 -17.5 -99t-30.5 -105t-48.5 -107t-73.5 -95t-103.5 -80t-140.5 -52.5t-182 -20.5z" />
    <glyph glyph-name="Yacute" unicode="&#xdd;" horiz-adv-x="1302" 
d="M575 1448l297 346h365l-385 -346h-277zM440 0l76 526l-360 801h301l229 -555l389 555h314l-592 -801l-74 -526h-283z" />
    <glyph glyph-name="Thorn" unicode="&#xde;" horiz-adv-x="1198" 
d="M575 1112q69 0 122.5 -3t117 -12.5t110.5 -26.5t93.5 -46.5t76.5 -70.5t48 -101t18 -135q0 -53 -6 -94q-11 -78 -40.5 -140.5t-69 -104t-95 -72.5t-108 -47.5t-120 -26.5t-120 -12.5t-117.5 -2.5h-86l-30 -217h-281l186 1327h281l-31 -215h51zM870 649q7 42 7 53
q0 49 -15.5 83t-40.5 54t-68 31t-86 14t-106 3h-67l-64 -445h68q52 0 87.5 2t79.5 8.5t73.5 20t58 36t46.5 58t27 82.5z" />
    <glyph glyph-name="germandbls" unicode="&#xdf;" horiz-adv-x="1271" 
d="M1188 924l-4 -21l-189 -348q83 -17 131 -81t48 -157q0 -168 -105 -251.5t-289 -83.5q-153 0 -221 28l29 207q68 -29 153 -29q156 0 156 121q0 48 -31 71t-82 23q-67 0 -110 -34l-23 18l176 324h-307l-141 -1010h-273l142 1010h-160l31 213h157l11 75q26 192 121 292
t292 100q126 0 203 -37l-31 -221q-50 30 -133 30q-89 0 -130 -49.5t-54 -142.5l-6 -47h639z" />
    <glyph glyph-name="agrave" unicode="&#xe0;" horiz-adv-x="1075" 
d="M850 1065h-262l-291 346h352zM567 942q191 0 292.5 -78.5t101.5 -226.5q0 -40 -13 -131l-71 -506h-248l8 90q-97 -108 -281 -108q-149 0 -230 70t-81 196q0 106 60.5 183.5t157 115t214.5 37.5q124 0 207 -39q4 40 4 59q0 64 -40.5 100.5t-147.5 36.5q-145 0 -297 -88
l30 217q153 72 334 72zM451 158q82 0 137.5 54.5t68.5 154.5l2 10q-57 39 -147 39q-87 0 -138.5 -39.5t-51.5 -108.5q0 -54 34.5 -82t94.5 -28z" />
    <glyph glyph-name="aacute" unicode="&#xe1;" horiz-adv-x="1075" 
d="M1057 1411l-385 -346h-277l297 346h365zM567 942q191 0 292.5 -78.5t101.5 -226.5q0 -40 -13 -131l-71 -506h-248l8 90q-97 -108 -281 -108q-149 0 -230 70t-81 196q0 106 60.5 183.5t157 115t214.5 37.5q124 0 207 -39q4 40 4 59q0 64 -40.5 100.5t-147.5 36.5
q-145 0 -297 -88l30 217q153 72 334 72zM451 158q82 0 137.5 54.5t68.5 154.5l2 10q-57 39 -147 39q-87 0 -138.5 -39.5t-51.5 -108.5q0 -54 34.5 -82t94.5 -28z" />
    <glyph glyph-name="acircumflex" unicode="&#xe2;" horiz-adv-x="1075" 
d="M629 1176l-117 -111h-281l428 365l318 -365h-260zM567 942q191 0 292.5 -78.5t101.5 -226.5q0 -40 -13 -131l-71 -506h-248l8 90q-97 -108 -281 -108q-149 0 -230 70t-81 196q0 106 60.5 183.5t157 115t214.5 37.5q124 0 207 -39q4 40 4 59q0 64 -40.5 100.5t-147.5 36.5
q-145 0 -297 -88l30 217q153 72 334 72zM451 158q82 0 137.5 54.5t68.5 154.5l2 10q-57 39 -147 39q-87 0 -138.5 -39.5t-51.5 -108.5q0 -54 34.5 -82t94.5 -28z" />
    <glyph glyph-name="atilde" unicode="&#xe3;" horiz-adv-x="1075" 
d="M496 1178q-39 0 -58.5 -22.5t-23.5 -51.5h-166q14 126 78.5 194t171.5 68q56 0 107.5 -21t92 -42t68.5 -21q37 0 56.5 23t23.5 51h166q-9 -121 -75.5 -191.5t-174.5 -70.5q-54 0 -104.5 21t-91 42t-70.5 21zM567 942q191 0 292.5 -78.5t101.5 -226.5q0 -40 -13 -131
l-71 -506h-248l8 90q-97 -108 -281 -108q-149 0 -230 70t-81 196q0 106 60.5 183.5t157 115t214.5 37.5q124 0 207 -39q4 40 4 59q0 64 -40.5 100.5t-147.5 36.5q-145 0 -297 -88l30 217q153 72 334 72zM451 158q82 0 137.5 54.5t68.5 154.5l2 10q-57 39 -147 39
q-87 0 -138.5 -39.5t-51.5 -108.5q0 -54 34.5 -82t94.5 -28z" />
    <glyph glyph-name="adieresis" unicode="&#xe4;" horiz-adv-x="1075" 
d="M389 1096q-62 0 -98.5 36.5t-36.5 94.5q0 72 49.5 120t118.5 48q59 0 96 -37.5t37 -93.5q0 -76 -47.5 -122t-118.5 -46zM834 1096q-63 0 -99.5 36.5t-36.5 94.5q0 72 49.5 120t118.5 48q59 0 95 -37t36 -94q0 -76 -46 -122t-117 -46zM567 942q191 0 292.5 -78.5
t101.5 -226.5q0 -40 -13 -131l-71 -506h-248l8 90q-97 -108 -281 -108q-149 0 -230 70t-81 196q0 106 60.5 183.5t157 115t214.5 37.5q124 0 207 -39q4 40 4 59q0 64 -40.5 100.5t-147.5 36.5q-145 0 -297 -88l30 217q153 72 334 72zM451 158q82 0 137.5 54.5t68.5 154.5
l2 10q-57 39 -147 39q-87 0 -138.5 -39.5t-51.5 -108.5q0 -54 34.5 -82t94.5 -28z" />
    <glyph glyph-name="aring" unicode="&#xe5;" horiz-adv-x="1075" 
d="M614 1044q-91 0 -146.5 53t-55.5 142q0 103 69.5 165t171.5 62q91 0 148 -51t57 -139q0 -111 -71 -171.5t-173 -60.5zM639 1337q-35 0 -60.5 -25.5t-25.5 -62.5q0 -33 20.5 -53t55.5 -20q36 0 61 23.5t25 62.5q0 34 -21 54.5t-55 20.5zM567 942q191 0 292.5 -78.5
t101.5 -226.5q0 -40 -13 -131l-71 -506h-248l8 90q-97 -108 -281 -108q-149 0 -230 70t-81 196q0 106 60.5 183.5t157 115t214.5 37.5q124 0 207 -39q4 40 4 59q0 64 -40.5 100.5t-147.5 36.5q-145 0 -297 -88l30 217q153 72 334 72zM451 158q82 0 137.5 54.5t68.5 154.5
l2 10q-57 39 -147 39q-87 0 -138.5 -39.5t-51.5 -108.5q0 -54 34.5 -82t94.5 -28z" />
    <glyph glyph-name="ae" unicode="&#xe6;" horiz-adv-x="1638" 
d="M1542 377h-633v-10q0 -166 234 -166q187 0 344 82l-33 -232q-146 -69 -342 -69q-304 0 -381 163q-43 -69 -133 -116t-221 -47q-164 0 -248 69t-84 197q0 106 60.5 183.5t157 115t214.5 37.5q124 0 207 -39q4 40 4 59q0 64 -40.5 100.5t-147.5 36.5q-145 0 -297 -88
l30 217q153 72 334 72q204 0 273 -111q51 53 136.5 82t180.5 29q206 0 309 -101t103 -263q0 -91 -27 -201zM1145 727q-79 0 -136.5 -49t-76.5 -129h364q4 16 4 39q0 62 -42.5 100.5t-112.5 38.5zM451 158q82 0 137.5 54.5t68.5 154.5l2 10q-57 39 -147 39
q-87 0 -138.5 -39.5t-51.5 -108.5q0 -54 34.5 -82t94.5 -28z" />
    <glyph glyph-name="ccedilla" unicode="&#xe7;" horiz-adv-x="907" 
d="M639 717q-107 0 -186.5 -63t-100.5 -185q-4 -24 -4 -49q0 -98 55 -154.5t160 -56.5q119 0 238 76l-35 -250q-39 -23 -108 -39t-140 -16l-31 -62q65 -2 105.5 -37t40.5 -102q0 -203 -256 -203q-88 0 -144 25l19 129q42 -25 102 -25q40 0 65 17t25 51q0 25 -15 40t-44 15
q-45 0 -74 -33l-22 15l80 186q-139 34 -220 135.5t-81 267.5q0 37 6 84q22 154 102 259t195 152.5t258 47.5q158 0 256 -59l-33 -228q-100 62 -213 62z" />
    <glyph glyph-name="egrave" unicode="&#xe8;" horiz-adv-x="1075" 
d="M612 1065l-290 346h352l200 -346h-262zM551 -18q-83 0 -152 12.5t-131 42t-105 75.5t-68 117.5t-25 163.5q0 43 6 92q27 206 162.5 331.5t351.5 125.5q209 0 311.5 -100.5t102.5 -263.5q0 -91 -27 -201h-633v-8q0 -168 236 -168q180 0 344 82l-35 -232
q-50 -26 -138 -47.5t-200 -21.5zM369 549h364q4 16 4 39q0 62 -43 100.5t-114 38.5q-78 0 -136 -49t-75 -129z" />
    <glyph glyph-name="eacute" unicode="&#xe9;" horiz-adv-x="1075" 
d="M420 1065l297 346h364l-385 -346h-276zM551 -18q-83 0 -152 12.5t-131 42t-105 75.5t-68 117.5t-25 163.5q0 43 6 92q27 206 162.5 331.5t351.5 125.5q209 0 311.5 -100.5t102.5 -263.5q0 -91 -27 -201h-633v-8q0 -168 236 -168q180 0 344 82l-35 -232
q-50 -26 -138 -47.5t-200 -21.5zM369 549h364q4 16 4 39q0 62 -43 100.5t-114 38.5q-78 0 -136 -49t-75 -129z" />
    <glyph glyph-name="ecircumflex" unicode="&#xea;" horiz-adv-x="1075" 
d="M256 1065l428 365l317 -365h-260l-88 111l-116 -111h-281zM551 -18q-83 0 -152 12.5t-131 42t-105 75.5t-68 117.5t-25 163.5q0 43 6 92q27 206 162.5 331.5t351.5 125.5q209 0 311.5 -100.5t102.5 -263.5q0 -91 -27 -201h-633v-8q0 -168 236 -168q180 0 344 82l-35 -232
q-50 -26 -138 -47.5t-200 -21.5zM369 549h364q4 16 4 39q0 62 -43 100.5t-114 38.5q-78 0 -136 -49t-75 -129z" />
    <glyph glyph-name="edieresis" unicode="&#xeb;" horiz-adv-x="1075" 
d="M414 1096q-62 0 -98.5 36.5t-36.5 94.5q0 72 49 120t118 48q59 0 96.5 -37.5t37.5 -93.5q0 -76 -47.5 -122t-118.5 -46zM858 1096q-63 0 -99 36.5t-36 94.5q0 72 49.5 120t118.5 48q59 0 95 -37t36 -94q0 -76 -46.5 -122t-117.5 -46zM551 -18q-83 0 -152 12.5t-131 42
t-105 75.5t-68 117.5t-25 163.5q0 43 6 92q27 206 162.5 331.5t351.5 125.5q209 0 311.5 -100.5t102.5 -263.5q0 -91 -27 -201h-633v-8q0 -168 236 -168q180 0 344 82l-35 -232q-50 -26 -138 -47.5t-200 -21.5zM369 549h364q4 16 4 39q0 62 -43 100.5t-114 38.5
q-78 0 -136 -49t-75 -129z" />
    <glyph glyph-name="igrave" unicode="&#xec;" horiz-adv-x="575" 
d="M342 1065l-291 346h352l201 -346h-262zM92 0l101 711h-117l30 213h388l-129 -924h-273z" />
    <glyph glyph-name="iacute" unicode="&#xed;" horiz-adv-x="575" 
d="M150 1065l296 346h365l-385 -346h-276zM92 0l101 711h-117l30 213h388l-129 -924h-273z" />
    <glyph glyph-name="icircumflex" unicode="&#xee;" horiz-adv-x="575" 
d="M-14 1065l428 365l317 -365h-260l-88 111l-117 -111h-280zM92 0l101 711h-117l30 213h388l-129 -924h-273z" />
    <glyph glyph-name="idieresis" unicode="&#xef;" horiz-adv-x="575" 
d="M143 1096q-62 0 -98.5 36.5t-36.5 94.5q0 72 49.5 120t118.5 48q59 0 96 -37.5t37 -93.5q0 -76 -47.5 -122t-118.5 -46zM588 1096q-63 0 -99 36.5t-36 94.5q0 72 49.5 120t118.5 48q59 0 95 -37t36 -94q0 -76 -46.5 -122t-117.5 -46zM92 0l101 711h-117l30 213h388
l-129 -924h-273z" />
    <glyph glyph-name="eth" unicode="&#xf0;" horiz-adv-x="1169" 
d="M532 -18q-222 0 -343 111.5t-121 305.5q0 41 6 82q28 200 168 328.5t346 128.5q75 0 148 -25.5t112 -81.5q-15 136 -92 236l-142 -80l-71 129l78 45q-82 33 -222 43l27 189q133 -7 237.5 -40.5t167.5 -76.5l152 82l70 -131l-103 -56q83 -94 125.5 -224.5t42.5 -272.5
q0 -74 -12 -160q-38 -261 -186.5 -396.5t-387.5 -135.5zM545 211q102 0 177.5 65t94.5 187q4 24 4 49q0 95 -52 149t-144 54q-100 0 -170.5 -62t-94.5 -159q-10 -42 -10 -84q0 -91 52.5 -145t142.5 -54z" />
    <glyph glyph-name="ntilde" unicode="&#xf1;" horiz-adv-x="1120" 
d="M846 1094q-54 0 -104.5 21t-91 42t-70.5 21q-39 0 -58.5 -22.5t-23.5 -51.5h-166q14 126 78.5 194t171.5 68q56 0 107.5 -21t92 -42t68.5 -21q37 0 56.5 23t23.5 51h166q-9 -121 -75.5 -191.5t-174.5 -70.5zM68 0l131 924h247l-8 -101q99 119 275 119q142 0 224.5 -79.5
t82.5 -223.5q0 -30 -10 -115l-74 -524h-272l73 520q0 1 4 34t4 50q0 50 -30 81.5t-97 31.5q-54 0 -93 -20t-62.5 -59t-36.5 -82.5t-23 -104.5l-63 -451h-272z" />
    <glyph glyph-name="ograve" unicode="&#xf2;" horiz-adv-x="1173" 
d="M653 1065l-291 346h353l200 -346h-262zM535 -18q-222 0 -343.5 117.5t-121.5 308.5q0 38 6 81q30 204 181.5 328.5t381.5 124.5q215 0 341 -111.5t126 -308.5q0 -40 -6 -84q-30 -214 -183.5 -335t-381.5 -121zM547 211q124 0 200 88t76 213q0 95 -52 149t-144 54
q-122 0 -198.5 -91t-76.5 -216q0 -90 52.5 -143.5t142.5 -53.5z" />
    <glyph glyph-name="oacute" unicode="&#xf3;" horiz-adv-x="1173" 
d="M461 1065l297 346h364l-385 -346h-276zM535 -18q-222 0 -343.5 117.5t-121.5 308.5q0 38 6 81q30 204 181.5 328.5t381.5 124.5q215 0 341 -111.5t126 -308.5q0 -40 -6 -84q-30 -214 -183.5 -335t-381.5 -121zM547 211q124 0 200 88t76 213q0 95 -52 149t-144 54
q-122 0 -198.5 -91t-76.5 -216q0 -90 52.5 -143.5t142.5 -53.5z" />
    <glyph glyph-name="ocircumflex" unicode="&#xf4;" horiz-adv-x="1173" 
d="M297 1065l428 365l317 -365h-260l-88 111l-116 -111h-281zM535 -18q-222 0 -343.5 117.5t-121.5 308.5q0 38 6 81q30 204 181.5 328.5t381.5 124.5q215 0 341 -111.5t126 -308.5q0 -40 -6 -84q-30 -214 -183.5 -335t-381.5 -121zM547 211q124 0 200 88t76 213
q0 95 -52 149t-144 54q-122 0 -198.5 -91t-76.5 -216q0 -90 52.5 -143.5t142.5 -53.5z" />
    <glyph glyph-name="otilde" unicode="&#xf5;" horiz-adv-x="1173" 
d="M827 1094q-54 0 -104.5 21t-91 42t-70.5 21q-39 0 -58.5 -22.5t-23.5 -51.5h-166q14 126 78.5 194t171.5 68q56 0 107.5 -21t92 -42t68.5 -21q37 0 56.5 23t23.5 51h166q-9 -121 -75.5 -191.5t-174.5 -70.5zM535 -18q-222 0 -343.5 117.5t-121.5 308.5q0 38 6 81
q30 204 181.5 328.5t381.5 124.5q215 0 341 -111.5t126 -308.5q0 -40 -6 -84q-30 -214 -183.5 -335t-381.5 -121zM547 211q124 0 200 88t76 213q0 95 -52 149t-144 54q-122 0 -198.5 -91t-76.5 -216q0 -90 52.5 -143.5t142.5 -53.5z" />
    <glyph glyph-name="odieresis" unicode="&#xf6;" horiz-adv-x="1173" 
d="M455 1096q-62 0 -99 36.5t-37 94.5q0 72 49.5 120t118.5 48q59 0 96.5 -37.5t37.5 -93.5q0 -76 -47.5 -122t-118.5 -46zM899 1096q-63 0 -99 36.5t-36 94.5q0 72 49.5 120t118.5 48q59 0 95 -37t36 -94q0 -76 -46.5 -122t-117.5 -46zM535 -18q-222 0 -343.5 117.5
t-121.5 308.5q0 38 6 81q30 204 181.5 328.5t381.5 124.5q215 0 341 -111.5t126 -308.5q0 -40 -6 -84q-30 -214 -183.5 -335t-381.5 -121zM547 211q124 0 200 88t76 213q0 95 -52 149t-144 54q-122 0 -198.5 -91t-76.5 -216q0 -90 52.5 -143.5t142.5 -53.5z" />
    <glyph glyph-name="divide" unicode="&#xf7;" 
d="M637 678q-64 0 -103.5 40t-39.5 103q0 69 48.5 116.5t114.5 47.5q63 0 102.5 -39.5t39.5 -103.5q0 -72 -48 -118t-114 -46zM137 356l29 213h891l-31 -213h-889zM532 -59q-64 0 -103.5 39t-39.5 102q0 70 49 118t115 48q63 0 102 -40.5t39 -103.5q0 -73 -47.5 -118
t-114.5 -45z" />
    <glyph glyph-name="oslash" unicode="&#xf8;" horiz-adv-x="1173" 
d="M66 -74l131 166q-127 115 -127 316q0 38 6 81q30 204 181.5 328.5t381.5 124.5q124 0 207 -35l72 92h192l-133 -165q129 -114 129 -312q0 -40 -6 -84q-30 -214 -183.5 -335t-381.5 -121q-123 0 -207 34l-72 -90h-190zM373 313l315 394q-21 8 -61 8q-122 0 -198.5 -91
t-76.5 -216q0 -58 21 -95zM547 211q124 0 200 88t76 213q0 52 -20 100l-316 -393q21 -8 60 -8z" />
    <glyph glyph-name="ugrave" unicode="&#xf9;" horiz-adv-x="1064" 
d="M596 1065l-291 346h352l201 -346h-262zM481 -18q-197 0 -287 91t-90 236q0 37 15 144l65 471h273l-74 -529q-8 -62 -8 -84q0 -106 119 -106q76 0 118.5 44t55.5 140l75 535h269l-76 -529q-9 -70 -26 -126t-51 -111.5t-82.5 -92.5t-124 -60t-171.5 -23z" />
    <glyph glyph-name="uacute" unicode="&#xfa;" horiz-adv-x="1064" 
d="M403 1065l297 346h365l-385 -346h-277zM481 -18q-197 0 -287 91t-90 236q0 37 15 144l65 471h273l-74 -529q-8 -62 -8 -84q0 -106 119 -106q76 0 118.5 44t55.5 140l75 535h269l-76 -529q-9 -70 -26 -126t-51 -111.5t-82.5 -92.5t-124 -60t-171.5 -23z" />
    <glyph glyph-name="ucircumflex" unicode="&#xfb;" horiz-adv-x="1064" 
d="M240 1065l428 365l317 -365h-260l-88 111l-117 -111h-280zM481 -18q-197 0 -287 91t-90 236q0 37 15 144l65 471h273l-74 -529q-8 -62 -8 -84q0 -106 119 -106q76 0 118.5 44t55.5 140l75 535h269l-76 -529q-9 -70 -26 -126t-51 -111.5t-82.5 -92.5t-124 -60t-171.5 -23z
" />
    <glyph glyph-name="udieresis" unicode="&#xfc;" horiz-adv-x="1064" 
d="M397 1096q-62 0 -98.5 36.5t-36.5 94.5q0 72 49.5 120t118.5 48q59 0 96 -37.5t37 -93.5q0 -76 -47.5 -122t-118.5 -46zM842 1096q-63 0 -99 36.5t-36 94.5q0 72 49 120t118 48q59 0 95.5 -37.5t36.5 -93.5q0 -76 -46.5 -122t-117.5 -46zM481 -18q-197 0 -287 91t-90 236
q0 37 15 144l65 471h273l-74 -529q-8 -62 -8 -84q0 -106 119 -106q76 0 118.5 44t55.5 140l75 535h269l-76 -529q-9 -70 -26 -126t-51 -111.5t-82.5 -92.5t-124 -60t-171.5 -23z" />
    <glyph glyph-name="yacute" unicode="&#xfd;" horiz-adv-x="1060" 
d="M401 1065l297 346h365l-385 -346h-277zM55 -406l281 480l-258 850h291l141 -566l303 566h301l-762 -1330h-297z" />
    <glyph glyph-name="thorn" unicode="&#xfe;" horiz-adv-x="1210" 
d="M10 -406l248 1764h272l-69 -502q105 84 270 84q191 0 300.5 -116.5t109.5 -301.5q0 -44 -6 -90q-30 -211 -171 -330.5t-333 -119.5q-191 0 -279 106l-69 -494h-273zM590 211q122 0 196 88t74 213q0 95 -54 149t-147 54q-122 0 -196 -88.5t-74 -212.5q0 -95 54 -149
t147 -54z" />
    <glyph glyph-name="ydieresis" unicode="&#xff;" horiz-adv-x="1060" 
d="M395 1096q-62 0 -98.5 36.5t-36.5 94.5q0 72 49.5 120t118.5 48q59 0 96 -37.5t37 -93.5q0 -76 -47.5 -122t-118.5 -46zM840 1096q-63 0 -99 36.5t-36 94.5q0 72 49 120t118 48q59 0 95.5 -37.5t36.5 -93.5q0 -76 -46.5 -122t-117.5 -46zM55 -406l281 480l-258 850h291
l141 -566l303 566h301l-762 -1330h-297z" />
    <glyph glyph-name="Amacron" unicode="&#x100;" horiz-adv-x="1312" 
d="M489 1520l29 213h633l-29 -213h-633zM-31 0l803 1348h21l419 -1348h-292l-58 205h-477l-117 -205h-299zM504 424h307l-102 367z" />
    <glyph glyph-name="amacron" unicode="&#x101;" horiz-adv-x="1075" 
d="M961 1343l-29 -213h-633l29 213h633zM567 942q191 0 292.5 -78.5t101.5 -226.5q0 -40 -13 -131l-71 -506h-248l8 90q-97 -108 -281 -108q-149 0 -230 70t-81 196q0 106 60.5 183.5t157 115t214.5 37.5q124 0 207 -39q4 40 4 59q0 64 -40.5 100.5t-147.5 36.5
q-145 0 -297 -88l30 217q153 72 334 72zM451 158q82 0 137.5 54.5t68.5 154.5l2 10q-57 39 -147 39q-87 0 -138.5 -39.5t-51.5 -108.5q0 -54 34.5 -82t94.5 -28z" />
    <glyph glyph-name="Abreve" unicode="&#x102;" horiz-adv-x="1312" 
d="M803 1430q-171 0 -248.5 74.5t-77.5 201.5q0 49 8 88h203q-4 -36 -4 -47q0 -107 129 -107q88 0 128.5 38t49.5 116h205q-18 -364 -393 -364zM-31 0l803 1348h21l419 -1348h-292l-58 205h-477l-117 -205h-299zM504 424h307l-102 367z" />
    <glyph glyph-name="abreve" unicode="&#x103;" horiz-adv-x="1075" 
d="M614 1047q-171 0 -248 74.5t-77 201.5q0 49 8 88h203q-4 -36 -4 -47q0 -107 129 -107q88 0 128.5 38t49.5 116h205q-18 -364 -394 -364zM567 942q191 0 292.5 -78.5t101.5 -226.5q0 -40 -13 -131l-71 -506h-248l8 90q-97 -108 -281 -108q-149 0 -230 70t-81 196
q0 106 60.5 183.5t157 115t214.5 37.5q124 0 207 -39q4 40 4 59q0 64 -40.5 100.5t-147.5 36.5q-145 0 -297 -88l30 217q153 72 334 72zM451 158q82 0 137.5 54.5t68.5 154.5l2 10q-57 39 -147 39q-87 0 -138.5 -39.5t-51.5 -108.5q0 -54 34.5 -82t94.5 -28z" />
    <glyph glyph-name="Aogonek" unicode="&#x104;" horiz-adv-x="1312" 
d="M993 -424q-102 0 -167.5 44.5t-65.5 137.5q0 82 42.5 145t117.5 103l-58 199h-477l-117 -205h-299l803 1348h21l419 -1348q-112 -17 -185 -77.5t-73 -129.5q0 -63 76 -63q62 0 111 28l-23 -164q-56 -18 -125 -18zM504 424h309l-104 369z" />
    <glyph glyph-name="aogonek" unicode="&#x105;" horiz-adv-x="1075" 
d="M567 942q191 0 292.5 -78.5t101.5 -226.5q0 -40 -13 -131l-71 -506q-100 -19 -172 -78t-72 -129q0 -63 78 -63q32 0 63.5 9.5t44.5 18.5l-22 -164q-52 -18 -123 -18q-103 0 -169.5 45t-66.5 137q0 91 51.5 157.5t141.5 104.5l6 70q-97 -108 -281 -108q-149 0 -230 70
t-81 196q0 106 60.5 183.5t157 115t214.5 37.5q124 0 207 -39q4 40 4 59q0 64 -40.5 100.5t-147.5 36.5q-145 0 -297 -88l30 217q153 72 334 72zM451 158q82 0 137.5 54.5t68.5 154.5l2 10q-57 39 -147 39q-87 0 -138.5 -39.5t-51.5 -108.5q0 -54 34.5 -82t94.5 -28z" />
    <glyph glyph-name="Cacute" unicode="&#x106;" horiz-adv-x="1296" 
d="M717 1448l297 346h364l-385 -346h-276zM750 -20q-153 0 -274.5 44.5t-199.5 124t-118.5 186.5t-40.5 234q0 59 10 121q53 308 258.5 483t521.5 175q121 0 219 -28.5t146 -68.5l-37 -266q-143 107 -330 107q-191 0 -326.5 -120t-166.5 -308q-6 -38 -6 -78
q0 -163 93.5 -255.5t270.5 -92.5q212 0 393 114l-41 -293q-49 -31 -152 -55t-220 -24z" />
    <glyph glyph-name="cacute" unicode="&#x107;" horiz-adv-x="907" 
d="M451 1065l297 346h364l-385 -346h-276zM514 -20q-95 0 -174.5 25t-141 74.5t-96 131t-34.5 188.5q0 37 6 84q22 154 102 259t195 152.5t258 47.5q158 0 256 -59l-33 -228q-100 62 -213 62q-107 0 -186.5 -63t-100.5 -185q-4 -24 -4 -49q0 -98 55 -154.5t160 -56.5
q119 0 238 76l-35 -250q-38 -23 -109 -39t-143 -16z" />
    <glyph glyph-name="Ccircumflex" unicode="&#x108;" horiz-adv-x="1296" 
d="M549 1448l428 364l317 -364h-260l-88 111l-117 -111h-280zM750 -20q-153 0 -274.5 44.5t-199.5 124t-118.5 186.5t-40.5 234q0 59 10 121q53 308 258.5 483t521.5 175q121 0 219 -28.5t146 -68.5l-37 -266q-143 107 -330 107q-191 0 -326.5 -120t-166.5 -308
q-6 -38 -6 -78q0 -163 93.5 -255.5t270.5 -92.5q212 0 393 114l-41 -293q-49 -31 -152 -55t-220 -24z" />
    <glyph glyph-name="ccircumflex" unicode="&#x109;" horiz-adv-x="907" 
d="M287 1065l428 365l317 -365h-260l-88 111l-117 -111h-280zM514 -20q-95 0 -174.5 25t-141 74.5t-96 131t-34.5 188.5q0 37 6 84q22 154 102 259t195 152.5t258 47.5q158 0 256 -59l-33 -228q-100 62 -213 62q-107 0 -186.5 -63t-100.5 -185q-4 -24 -4 -49
q0 -98 55 -154.5t160 -56.5q119 0 238 76l-35 -250q-38 -23 -109 -39t-143 -16z" />
    <glyph glyph-name="Cdotaccent" unicode="&#x10a;" horiz-adv-x="1296" 
d="M944 1464q-70 0 -111.5 41.5t-41.5 108.5q0 73 50 122.5t124 49.5q67 0 109 -42.5t42 -107.5q0 -75 -49.5 -123.5t-122.5 -48.5zM750 -20q-153 0 -274.5 44.5t-199.5 124t-118.5 186.5t-40.5 234q0 59 10 121q53 308 258.5 483t521.5 175q121 0 219 -28.5t146 -68.5
l-37 -266q-143 107 -330 107q-191 0 -326.5 -120t-166.5 -308q-6 -38 -6 -78q0 -163 93.5 -255.5t270.5 -92.5q212 0 393 114l-41 -293q-49 -31 -152 -55t-220 -24z" />
    <glyph glyph-name="cdotaccent" unicode="&#x10b;" horiz-adv-x="907" 
d="M674 1096q-62 0 -98.5 36.5t-36.5 94.5q0 72 49.5 120t118.5 48q59 0 96 -37.5t37 -93.5q0 -76 -47.5 -122t-118.5 -46zM514 -20q-95 0 -174.5 25t-141 74.5t-96 131t-34.5 188.5q0 37 6 84q22 154 102 259t195 152.5t258 47.5q158 0 256 -59l-33 -228q-100 62 -213 62
q-107 0 -186.5 -63t-100.5 -185q-4 -24 -4 -49q0 -98 55 -154.5t160 -56.5q119 0 238 76l-35 -250q-38 -23 -109 -39t-143 -16z" />
    <glyph glyph-name="Ccaron" unicode="&#x10c;" horiz-adv-x="1296" 
d="M920 1430l-318 364h260l88 -111l117 111h281zM750 -20q-153 0 -274.5 44.5t-199.5 124t-118.5 186.5t-40.5 234q0 59 10 121q53 308 258.5 483t521.5 175q121 0 219 -28.5t146 -68.5l-37 -266q-143 107 -330 107q-191 0 -326.5 -120t-166.5 -308q-6 -38 -6 -78
q0 -163 93.5 -255.5t270.5 -92.5q212 0 393 114l-41 -293q-49 -31 -152 -55t-220 -24z" />
    <glyph glyph-name="ccaron" unicode="&#x10d;" horiz-adv-x="907" 
d="M657 1047l-317 364h260l88 -111l117 111h280zM514 -20q-95 0 -174.5 25t-141 74.5t-96 131t-34.5 188.5q0 37 6 84q22 154 102 259t195 152.5t258 47.5q158 0 256 -59l-33 -228q-100 62 -213 62q-107 0 -186.5 -63t-100.5 -185q-4 -24 -4 -49q0 -98 55 -154.5t160 -56.5
q119 0 238 76l-35 -250q-38 -23 -109 -39t-143 -16z" />
    <glyph glyph-name="Dcaron" unicode="&#x10e;" horiz-adv-x="1398" 
d="M829 1430l-317 364h260l88 -111l117 111h280zM88 0l186 1327h254q69 0 118.5 -1.5t120.5 -7t123.5 -16t115 -30.5t107.5 -47t89.5 -69t72.5 -94t45 -123.5t17 -156.5q0 -69 -10 -143q-17 -119 -58.5 -215.5t-96 -162t-130.5 -114.5t-150 -76.5t-166 -44t-168 -21.5
t-165 -5h-305zM403 231h13q99 0 180 11.5t159.5 41.5t134.5 78.5t96.5 127t55.5 182.5q7 51 7 92q0 63 -14.5 113t-38.5 85t-62 60t-78 39.5t-94.5 23t-103 11t-111.5 2.5h-25z" />
    <glyph glyph-name="dcaron" unicode="&#x10f;" horiz-adv-x="1552" 
d="M1300 981q101 77 148 145q-46 6 -72 34t-26 73q0 62 40.5 98.5t100.5 36.5q59 0 96 -36t37 -99q0 -74 -49.5 -141.5t-126.5 -110.5h-148zM475 -18q-183 0 -294 111.5t-111 307.5q0 45 6 91q30 210 165 330t332 120q201 0 281 -113l74 529h272l-188 -1358h-250l6 94
q-46 -51 -120.5 -81.5t-172.5 -30.5zM551 211q121 0 195.5 88t74.5 213q0 97 -52.5 150t-143.5 53q-123 0 -199 -87t-76 -214q0 -93 53.5 -148t147.5 -55z" />
    <glyph glyph-name="Dcroat" unicode="&#x110;" horiz-adv-x="1468" 
d="M600 1327q69 0 118.5 -1.5t120.5 -7t123.5 -16t115 -30.5t107.5 -47t89.5 -69t72.5 -94t45 -123.5t17 -156.5q0 -69 -10 -143q-17 -119 -58.5 -215.5t-96 -162t-130.5 -114.5t-150 -76.5t-166 -44t-168 -21.5t-165 -5h-305l80 567h-222l31 219h221l76 541h254zM1114 672
q6 44 6 92q0 63 -14.5 113t-38.5 85t-62 60t-78 39.5t-94.5 23t-103 11t-111.5 2.5h-24l-43 -312h250l-31 -219h-250l-45 -336h12q99 0 180.5 11.5t159.5 41.5t134.5 78.5t97 127t55.5 182.5z" />
    <glyph glyph-name="dcroat" unicode="&#x111;" horiz-adv-x="1163" 
d="M1341 1223l-30 -197h-156l-143 -1026h-250l6 94q-46 -51 -120.5 -81.5t-172.5 -30.5q-183 0 -294 111.5t-111 307.5q0 45 6 91q30 210 165 330t332 120q201 0 281 -113l27 197h-211l30 197h209l19 135h272l-18 -135h159zM551 211q121 0 195.5 88t74.5 213q0 97 -52.5 150
t-143.5 53q-123 0 -199 -87t-76 -214q0 -93 53.5 -148t147.5 -55z" />
    <glyph glyph-name="Emacron" unicode="&#x112;" horiz-adv-x="1077" 
d="M399 1520l29 213h633l-29 -213h-633zM88 0l186 1327h822l-33 -231h-541l-43 -303h383l-33 -232h-383l-45 -328h566l-33 -233h-846z" />
    <glyph glyph-name="emacron" unicode="&#x113;" horiz-adv-x="1075" 
d="M324 1130l28 213h633l-29 -213h-632zM551 -18q-83 0 -152 12.5t-131 42t-105 75.5t-68 117.5t-25 163.5q0 43 6 92q27 206 162.5 331.5t351.5 125.5q209 0 311.5 -100.5t102.5 -263.5q0 -91 -27 -201h-633v-8q0 -168 236 -168q180 0 344 82l-35 -232q-50 -26 -138 -47.5
t-200 -21.5zM369 549h364q4 16 4 39q0 62 -43 100.5t-114 38.5q-78 0 -136 -49t-75 -129z" />
    <glyph glyph-name="Ebreve" unicode="&#x114;" horiz-adv-x="1077" 
d="M713 1430q-171 0 -248.5 74.5t-77.5 201.5q0 49 8 88h203q-4 -36 -4 -47q0 -107 129 -107q88 0 128.5 38t49.5 116h205q-18 -364 -393 -364zM88 0l186 1327h822l-33 -231h-541l-43 -303h383l-33 -232h-383l-45 -328h566l-33 -233h-846z" />
    <glyph glyph-name="ebreve" unicode="&#x115;" horiz-adv-x="1075" 
d="M639 1047q-171 0 -248.5 74.5t-77.5 201.5q0 45 9 88h202q-4 -36 -4 -47q0 -107 129 -107q88 0 128.5 38t49.5 116h205q-18 -364 -393 -364zM551 -18q-83 0 -152 12.5t-131 42t-105 75.5t-68 117.5t-25 163.5q0 43 6 92q27 206 162.5 331.5t351.5 125.5
q209 0 311.5 -100.5t102.5 -263.5q0 -91 -27 -201h-633v-8q0 -168 236 -168q180 0 344 82l-35 -232q-50 -26 -138 -47.5t-200 -21.5zM369 549h364q4 16 4 39q0 62 -43 100.5t-114 38.5q-78 0 -136 -49t-75 -129z" />
    <glyph glyph-name="Edotaccent" unicode="&#x116;" horiz-adv-x="1077" 
d="M721 1464q-70 0 -112 41.5t-42 108.5q0 73 50 122.5t124 49.5q67 0 109.5 -42.5t42.5 -107.5q0 -75 -49.5 -123.5t-122.5 -48.5zM88 0l186 1327h822l-33 -231h-541l-43 -303h383l-33 -232h-383l-45 -328h566l-33 -233h-846z" />
    <glyph glyph-name="edotaccent" unicode="&#x117;" horiz-adv-x="1075" 
d="M643 1096q-62 0 -98.5 36.5t-36.5 94.5q0 72 49.5 120t118.5 48q59 0 96 -37.5t37 -93.5q0 -76 -47.5 -122t-118.5 -46zM551 -18q-83 0 -152 12.5t-131 42t-105 75.5t-68 117.5t-25 163.5q0 43 6 92q27 206 162.5 331.5t351.5 125.5q209 0 311.5 -100.5t102.5 -263.5
q0 -91 -27 -201h-633v-8q0 -168 236 -168q180 0 344 82l-35 -232q-50 -26 -138 -47.5t-200 -21.5zM369 549h364q4 16 4 39q0 62 -43 100.5t-114 38.5q-78 0 -136 -49t-75 -129z" />
    <glyph glyph-name="Eogonek" unicode="&#x118;" horiz-adv-x="1077" 
d="M735 -424q-102 0 -168.5 45t-66.5 137q0 76 43 141t112 101h-567l186 1327h822l-33 -231h-541l-43 -303h383l-33 -232h-383l-45 -328h566l-33 -233q-102 -23 -171 -82t-69 -125q0 -63 78 -63q32 0 64 10t45 18l-23 -164q-52 -18 -123 -18z" />
    <glyph glyph-name="eogonek" unicode="&#x119;" horiz-adv-x="1075" 
d="M977 377h-633v-8q0 -168 236 -168q177 0 344 82l-35 -232q-67 -26 -118 -51.5t-97 -57.5t-71 -70t-25 -79q0 -63 77 -63q32 0 64 10t45 18l-23 -164q-52 -18 -123 -18q-102 0 -167.5 44.5t-65.5 137.5q0 77 38 137t107 91q-78 0 -143.5 12t-125 41t-101 74t-66 116
t-24.5 162q0 45 6 94q27 206 162.5 331.5t351.5 125.5q209 0 311.5 -100.5t102.5 -263.5q0 -91 -27 -201zM580 727q-78 0 -136 -49t-75 -129h362q4 16 4 39q0 62 -42 100.5t-113 38.5z" />
    <glyph glyph-name="Ecaron" unicode="&#x11a;" horiz-adv-x="1077" 
d="M696 1430l-317 364h260l88 -111l117 111h280zM88 0l186 1327h822l-33 -231h-541l-43 -303h383l-33 -232h-383l-45 -328h566l-33 -233h-846z" />
    <glyph glyph-name="ecaron" unicode="&#x11b;" horiz-adv-x="1075" 
d="M627 1047l-318 364h260l88 -111l117 111h281zM551 -18q-83 0 -152 12.5t-131 42t-105 75.5t-68 117.5t-25 163.5q0 43 6 92q27 206 162.5 331.5t351.5 125.5q209 0 311.5 -100.5t102.5 -263.5q0 -91 -27 -201h-633v-8q0 -168 236 -168q180 0 344 82l-35 -232
q-50 -26 -138 -47.5t-200 -21.5zM369 549h364q4 16 4 39q0 62 -43 100.5t-114 38.5q-78 0 -136 -49t-75 -129z" />
    <glyph glyph-name="Gcircumflex" unicode="&#x11c;" horiz-adv-x="1458" 
d="M547 1448l428 364l317 -364h-260l-88 111l-117 -111h-280zM745 -20q-298 0 -463 156t-165 427q0 56 10 131q31 209 141.5 358.5t272.5 222.5t360 73q153 0 261.5 -38t162.5 -81l-35 -260q-62 49 -167.5 87t-225.5 38q-191 0 -323.5 -120t-161.5 -319q-6 -44 -6 -82
q0 -160 90.5 -248.5t248.5 -88.5q143 0 237 76t114 210h-338l30 223h635l-20 -147q-8 -58 -18.5 -106.5t-33.5 -115t-53 -118t-81 -106t-114.5 -90.5t-155.5 -59t-202 -23z" />
    <glyph glyph-name="gcircumflex" unicode="&#x11d;" horiz-adv-x="1214" 
d="M297 1065l428 365l317 -365h-260l-88 111l-116 -111h-281zM451 -426q-186 0 -293 43l32 223q105 -41 232 -41q154 0 233 74.5t101 226.5l2 13q-40 -48 -115 -80.5t-172 -32.5q-184 0 -291.5 110.5t-107.5 303.5q0 41 6 88q32 209 168 324.5t336 115.5q102 0 177 -36
t113 -99l27 117h248l-119 -836q-20 -145 -65 -244.5t-118 -158.5t-168 -85t-226 -26zM549 227q117 0 191.5 87.5t74.5 203.5q0 97 -54 148t-138 51q-117 0 -194 -86.5t-77 -206.5q0 -91 53 -144t144 -53z" />
    <glyph glyph-name="Gbreve" unicode="&#x11e;" horiz-adv-x="1458" 
d="M934 1430q-171 0 -248.5 74.5t-77.5 201.5q0 49 8 88h203q-4 -36 -4 -47q0 -107 129 -107q88 0 128.5 38t49.5 116h205q-18 -364 -393 -364zM745 -20q-298 0 -463 156t-165 427q0 56 10 131q31 209 141.5 358.5t272.5 222.5t360 73q153 0 261.5 -38t162.5 -81l-35 -260
q-62 49 -167.5 87t-225.5 38q-191 0 -323.5 -120t-161.5 -319q-6 -44 -6 -82q0 -160 90.5 -248.5t248.5 -88.5q143 0 237 76t114 210h-338l30 223h635l-20 -147q-8 -58 -18.5 -106.5t-33.5 -115t-53 -118t-81 -106t-114.5 -90.5t-155.5 -59t-202 -23z" />
    <glyph glyph-name="gbreve" unicode="&#x11f;" horiz-adv-x="1214" 
d="M680 1047q-171 0 -248.5 74.5t-77.5 201.5q0 49 8 88h203q-4 -36 -4 -47q0 -107 129 -107q88 0 128.5 38t49.5 116h205q-18 -364 -393 -364zM451 -426q-186 0 -293 43l32 223q105 -41 232 -41q154 0 233 74.5t101 226.5l2 13q-40 -48 -115 -80.5t-172 -32.5
q-184 0 -291.5 110.5t-107.5 303.5q0 41 6 88q32 209 168 324.5t336 115.5q102 0 177 -36t113 -99l27 117h248l-119 -836q-20 -145 -65 -244.5t-118 -158.5t-168 -85t-226 -26zM549 227q117 0 191.5 87.5t74.5 203.5q0 97 -54 148t-138 51q-117 0 -194 -86.5t-77 -206.5
q0 -91 53 -144t144 -53z" />
    <glyph glyph-name="Gdotaccent" unicode="&#x120;" horiz-adv-x="1458" 
d="M942 1464q-70 0 -112 41.5t-42 108.5q0 73 50.5 122.5t124.5 49.5q67 0 109 -42.5t42 -107.5q0 -75 -49.5 -123.5t-122.5 -48.5zM745 -20q-298 0 -463 156t-165 427q0 56 10 131q31 209 141.5 358.5t272.5 222.5t360 73q153 0 261.5 -38t162.5 -81l-35 -260
q-62 49 -167.5 87t-225.5 38q-191 0 -323.5 -120t-161.5 -319q-6 -44 -6 -82q0 -160 90.5 -248.5t248.5 -88.5q143 0 237 76t114 210h-338l30 223h635l-20 -147q-8 -58 -18.5 -106.5t-33.5 -115t-53 -118t-81 -106t-114.5 -90.5t-155.5 -59t-202 -23z" />
    <glyph glyph-name="gdotaccent" unicode="&#x121;" horiz-adv-x="1214" 
d="M684 1096q-62 0 -98.5 36.5t-36.5 94.5q0 72 49.5 120t118.5 48q59 0 96 -37.5t37 -93.5q0 -76 -47.5 -122t-118.5 -46zM451 -426q-186 0 -293 43l32 223q105 -41 232 -41q154 0 233 74.5t101 226.5l2 13q-40 -48 -115 -80.5t-172 -32.5q-184 0 -291.5 110.5
t-107.5 303.5q0 41 6 88q32 209 168 324.5t336 115.5q102 0 177 -36t113 -99l27 117h248l-119 -836q-20 -145 -65 -244.5t-118 -158.5t-168 -85t-226 -26zM549 227q117 0 191.5 87.5t74.5 203.5q0 97 -54 148t-138 51q-117 0 -194 -86.5t-77 -206.5q0 -91 53 -144t144 -53z
" />
    <glyph glyph-name="Gcommaaccent" unicode="&#x122;" horiz-adv-x="1458" 
d="M745 -20q-298 0 -463 156t-165 427q0 56 10 131q31 209 141.5 358.5t272.5 222.5t360 73q153 0 261.5 -38t162.5 -81l-35 -260q-62 49 -167.5 87t-225.5 38q-191 0 -323.5 -120t-161.5 -319q-6 -44 -6 -82q0 -160 90.5 -248.5t248.5 -88.5q143 0 237 76t114 210h-338
l30 223h635l-20 -147q-8 -58 -18.5 -106.5t-33.5 -115t-53 -118t-81 -106t-114.5 -90.5t-155.5 -59t-202 -23zM537 -446q69 56 110 114q-44 5 -70 33t-26 74q0 62 40 98.5t99 36.5q60 0 96.5 -36t36.5 -99q0 -71 -40 -127.5t-99 -93.5h-147z" />
    <glyph glyph-name="gcommaaccent" unicode="&#x123;" horiz-adv-x="1214" 
d="M844 1452q-101 -77 -148 -145q46 -6 72.5 -34t26.5 -73q0 -62 -41 -98.5t-101 -36.5q-59 0 -96 36t-37 99q0 74 49.5 141.5t126.5 110.5h148zM451 -426q-186 0 -293 43l32 223q105 -41 232 -41q154 0 233 74.5t101 226.5l2 13q-40 -48 -115 -80.5t-172 -32.5
q-184 0 -291.5 110.5t-107.5 303.5q0 41 6 88q32 209 168 324.5t336 115.5q102 0 177 -36t113 -99l27 117h248l-119 -836q-20 -145 -65 -244.5t-118 -158.5t-168 -85t-226 -26zM549 227q117 0 191.5 87.5t74.5 203.5q0 97 -54 148t-138 51q-117 0 -194 -86.5t-77 -206.5
q0 -91 53 -144t144 -53z" />
    <glyph glyph-name="Hcircumflex" unicode="&#x124;" horiz-adv-x="1429" 
d="M473 1448l428 364l318 -364h-261l-88 111l-116 -111h-281zM88 0l186 1327h281l-74 -534h559l76 534h281l-187 -1327h-280l78 557h-562l-77 -557h-281z" />
    <glyph glyph-name="hcircumflex" unicode="&#x125;" horiz-adv-x="1120" 
d="M31 1468l428 365l317 -365h-260l-88 111l-117 -111h-280zM68 0l190 1358h272l-69 -510q94 94 252 94q142 0 224.5 -79t82.5 -224q0 -30 -10 -115l-74 -524h-272l73 520q0 1 4 34t4 50q0 50 -30 81.5t-97 31.5q-54 0 -93 -20t-62.5 -59t-36.5 -82.5t-23 -104.5l-63 -451
h-272z" />
    <glyph glyph-name="Hbar" unicode="&#x126;" horiz-adv-x="1540" 
d="M147 0l136 952h-209l28 211h209l23 164h282l-24 -164h561l25 164h280l-22 -164h198l-30 -211h-197l-135 -952h-281l76 557h-559l-78 -557h-283zM541 793h561l22 159h-559z" />
    <glyph glyph-name="hbar" unicode="&#x127;" horiz-adv-x="1157" 
d="M752 942q142 0 224.5 -79t82.5 -224q0 -30 -10 -115l-74 -524h-273l74 520q0 1 4 34t4 50q0 50 -30 81.5t-97 31.5q-54 0 -93 -20t-62.5 -59t-36.5 -82.5t-23 -104.5l-63 -451h-273l144 1026h-158l31 197h156l18 135h272l-18 -135h213l-31 -197h-209l-24 -178
q94 94 252 94z" />
    <glyph glyph-name="Itilde" unicode="&#x128;" horiz-adv-x="587" 
d="M588 1477q-54 0 -104.5 21t-91 42t-70.5 21q-40 0 -59 -22.5t-23 -51.5h-166q14 126 78.5 194t171.5 68q56 0 107.5 -21t92 -42t68.5 -21q37 0 56.5 23t23.5 51h166q-9 -120 -75.5 -191t-174.5 -71zM88 0l186 1327h281l-186 -1327h-281z" />
    <glyph glyph-name="itilde" unicode="&#x129;" horiz-adv-x="575" 
d="M516 1094q-54 0 -104.5 21t-91 42t-70.5 21q-39 0 -58.5 -22.5t-23.5 -51.5h-166q14 126 78.5 194t171.5 68q56 0 107.5 -21t92 -42t68.5 -21q37 0 56.5 23t23.5 51h166q-9 -121 -75.5 -191.5t-174.5 -70.5zM92 0l101 711h-117l30 213h388l-129 -924h-273z" />
    <glyph glyph-name="Imacron" unicode="&#x12a;" horiz-adv-x="587" 
d="M127 1520l29 213h632l-28 -213h-633zM88 0l186 1327h281l-186 -1327h-281z" />
    <glyph glyph-name="imacron" unicode="&#x12b;" horiz-adv-x="575" 
d="M53 1130l29 213h633l-29 -213h-633zM92 0l101 711h-117l30 213h388l-129 -924h-273z" />
    <glyph glyph-name="Ibreve" unicode="&#x12c;" horiz-adv-x="587" 
d="M440 1430q-171 0 -248 74.5t-77 201.5q0 49 8 88h203q-4 -36 -4 -47q0 -107 129 -107q88 0 128.5 38t49.5 116h205q-18 -364 -394 -364zM88 0l186 1327h281l-186 -1327h-281z" />
    <glyph glyph-name="ibreve" unicode="&#x12d;" horiz-adv-x="575" 
d="M369 1047q-171 0 -248.5 74.5t-77.5 201.5q0 49 8 88h203q-4 -36 -4 -47q0 -107 129 -107q88 0 128.5 38t49.5 116h205q-18 -364 -393 -364zM92 0l101 711h-117l30 213h388l-129 -924h-273z" />
    <glyph glyph-name="Iogonek" unicode="&#x12e;" horiz-adv-x="573" 
d="M152 -424q-103 0 -169.5 45t-66.5 137q0 167 160 250l186 1319h283l-187 -1327q-107 -23 -176 -81.5t-69 -125.5q0 -63 75 -63q62 0 111 28l-23 -164q-56 -18 -124 -18z" />
    <glyph glyph-name="iogonek" unicode="&#x12f;" horiz-adv-x="575" 
d="M412 1395q61 0 99 -36.5t38 -98.5q0 -78 -45.5 -121t-112.5 -43q-63 0 -100 37t-37 98q0 75 45 119.5t113 44.5zM76 711l30 213h388l-129 -924q-107 -23 -175.5 -81t-68.5 -126q0 -63 78 -63q32 0 63.5 9.5t44.5 18.5l-22 -164q-52 -18 -123 -18q-103 0 -169.5 45
t-66.5 137q0 85 44.5 149.5t123.5 102.5l99 701h-117z" />
    <glyph glyph-name="Idotaccent" unicode="&#x130;" horiz-adv-x="587" 
d="M449 1464q-70 0 -112 41.5t-42 108.5q0 73 50 122.5t124 49.5q67 0 109.5 -42.5t42.5 -107.5q0 -75 -49.5 -123.5t-122.5 -48.5zM88 0l186 1327h281l-186 -1327h-281z" />
    <glyph glyph-name="dotlessi" unicode="&#x131;" horiz-adv-x="575" 
d="M92 0l101 711h-117l30 213h388l-129 -924h-273z" />
    <glyph glyph-name="IJ" unicode="&#x132;" horiz-adv-x="1556" 
d="M88 0l186 1327h281l-186 -1327h-281zM907 -20q-178 0 -272 51l33 241q32 -21 88.5 -35t115.5 -14q123 0 184.5 66.5t84.5 232.5l82 576h-308l35 229h584l-123 -876q-16 -114 -50 -198t-92.5 -147t-149 -94.5t-212.5 -31.5z" />
    <glyph glyph-name="ij" unicode="&#x133;" horiz-adv-x="1150" 
d="M391 1096q-63 0 -100 37t-37 98q0 75 45 119.5t113 44.5q61 0 99 -36.5t38 -98.5q0 -78 -45.5 -121t-112.5 -43zM967 1096q-63 0 -100.5 37.5t-37.5 97.5q0 75 45 119.5t113 44.5q61 0 99 -36.5t38 -98.5q0 -78 -45 -121t-112 -43zM92 0l101 711h-117l30 213h388
l-129 -924h-273zM481 -424q-129 0 -200 31l30 209q54 -21 131 -21q51 0 89 14t62.5 37.5t42 62.5t27 79t17.5 98l88 625h-117l31 213h387l-115 -820q-10 -71 -19.5 -121t-27.5 -109t-40.5 -99.5t-57.5 -81t-80 -64t-108 -38.5t-140 -15z" />
    <glyph glyph-name="Jcircumflex" unicode="&#x134;" horiz-adv-x="962" 
d="M287 1448l428 364l317 -364h-260l-88 111l-117 -111h-280zM313 -20q-178 0 -272 51l33 241q32 -21 89 -35t116 -14q123 0 184 66t84 233l82 576h-307l34 229h584l-123 -876q-16 -114 -50 -198t-92.5 -147t-149 -94.5t-212.5 -31.5z" />
    <glyph glyph-name="jcircumflex" unicode="&#x135;" horiz-adv-x="575" 
d="M-4 1065l428 365l317 -365h-260l-88 111l-117 -111h-280zM-94 -424q-130 0 -201 31l31 209q54 -21 131 -21q63 0 106 19.5t68.5 62t38.5 89.5t24 120l89 625h-117l30 213h388l-115 -820q-10 -71 -19.5 -121t-27.5 -109t-40.5 -99.5t-57.5 -81t-80 -64t-108 -38.5
t-140 -15z" />
    <glyph glyph-name="Kcommaaccent" unicode="&#x136;" horiz-adv-x="1390" 
d="M88 0l186 1327h281l-88 -633l637 633h366l-673 -665l497 -662h-368l-465 647l-92 -647h-281zM451 -446q69 56 110 114q-44 5 -70 33t-26 74q0 62 40 98.5t99 36.5q60 0 96.5 -36t36.5 -99q0 -71 -40 -127.5t-99 -93.5h-147z" />
    <glyph glyph-name="kcommaaccent" unicode="&#x137;" horiz-adv-x="1095" 
d="M68 0l190 1358h272l-118 -850l389 416h340l-436 -439l313 -485h-328l-284 469l-66 -469h-272zM332 -446q69 56 110 114q-44 5 -70 33t-26 74q0 62 40 98.5t99 36.5q60 0 96.5 -36t36.5 -99q0 -71 -40 -127.5t-99 -93.5h-147z" />
    <glyph glyph-name="kgreenlandic" unicode="&#x138;" horiz-adv-x="1087" 
d="M68 0l131 924h272l-61 -430l389 430h340l-434 -455l313 -469h-328l-287 451l-63 -451h-272z" />
    <glyph glyph-name="Lacute" unicode="&#x139;" horiz-adv-x="1081" 
d="M295 1448l297 346h364l-385 -346h-276zM88 0l186 1327h281l-154 -1094h586l-33 -233h-866z" />
    <glyph glyph-name="lacute" unicode="&#x13a;" horiz-adv-x="610" 
d="M293 1499l297 346h364l-385 -346h-276zM68 0l190 1358h272l-190 -1358h-272z" />
    <glyph glyph-name="Lcommaaccent" unicode="&#x13b;" horiz-adv-x="1081" 
d="M88 0l186 1327h281l-154 -1094h586l-33 -233h-866zM350 -446q72 58 111 114q-44 5 -70 33t-26 74q0 62 40 98.5t99 36.5q60 0 96.5 -36t36.5 -99q0 -71 -40 -127.5t-99 -93.5h-148z" />
    <glyph glyph-name="lcommaaccent" unicode="&#x13c;" horiz-adv-x="538" 
d="M68 0l190 1358h272l-190 -1358h-272zM23 -446q69 56 110 114q-44 5 -70 33t-26 74q0 62 40 98.5t99 36.5q60 0 96.5 -36t36.5 -99q0 -71 -40 -127.5t-99 -93.5h-147z" />
    <glyph glyph-name="Lcaron" unicode="&#x13d;" horiz-adv-x="1081" 
d="M707 961q99 76 147 145q-46 6 -72 33.5t-26 72.5q0 62 41 99t100 37q58 0 95.5 -36.5t37.5 -99.5q0 -74 -49.5 -141t-126.5 -110h-147zM88 0l186 1327h281l-154 -1094h586l-33 -233h-866z" />
    <glyph glyph-name="lcaron" unicode="&#x13e;" horiz-adv-x="894" 
d="M643 981q101 77 148 145q-46 6 -72.5 34t-26.5 73q0 62 41 98.5t101 36.5q59 0 96 -36t37 -99q0 -74 -49.5 -141.5t-126.5 -110.5h-148zM68 0l190 1358h272l-190 -1358h-272z" />
    <glyph glyph-name="Ldot" unicode="&#x13f;" horiz-adv-x="1081" 
d="M88 0l186 1327h281l-154 -1094h586l-33 -233h-866zM846 514q-70 0 -111 41.5t-41 108.5q0 76 52 128t122 52q68 0 111 -42.5t43 -111.5q0 -79 -52 -127.5t-124 -48.5z" />
    <glyph glyph-name="ldot" unicode="&#x140;" horiz-adv-x="1005" 
d="M68 0l190 1358h272l-190 -1358h-272zM776 537q-62 0 -98.5 36.5t-36.5 94.5q0 72 49.5 120t118.5 48q59 0 96 -37.5t37 -93.5q0 -76 -47.5 -122t-118.5 -46z" />
    <glyph glyph-name="Lslash" unicode="&#x141;" horiz-adv-x="1081" 
d="M88 0l64 459l-201 -109l33 236l200 106l90 635h281l-74 -520l289 156l-33 -240l-286 -154l-50 -336h586l-33 -233h-866z" />
    <glyph glyph-name="lslash" unicode="&#x142;" horiz-adv-x="735" 
d="M164 0l74 512l-168 -92l32 217l164 90l88 631h273l-70 -508l170 94l-31 -223l-170 -86l-90 -635h-272z" />
    <glyph glyph-name="Nacute" unicode="&#x143;" horiz-adv-x="1445" 
d="M651 1448l297 346h365l-385 -346h-277zM1206 -20l-735 792l-109 -772h-274l191 1348h20l733 -791l109 770h274l-188 -1347h-21z" />
    <glyph glyph-name="nacute" unicode="&#x144;" horiz-adv-x="1120" 
d="M479 1065l297 346h365l-385 -346h-277zM68 0l131 924h247l-8 -101q99 119 275 119q142 0 224.5 -79.5t82.5 -223.5q0 -30 -10 -115l-74 -524h-272l73 520q0 1 4 34t4 50q0 50 -30 81.5t-97 31.5q-54 0 -93 -20t-62.5 -59t-36.5 -82.5t-23 -104.5l-63 -451h-272z" />
    <glyph glyph-name="Ncommaaccent" unicode="&#x145;" horiz-adv-x="1445" 
d="M1206 -20l-735 792l-109 -772h-274l191 1348h20l733 -791l109 770h274l-188 -1347h-21zM477 -446q72 58 111 114q-44 5 -70 33t-26 74q0 62 40 98.5t99 36.5q60 0 96.5 -36t36.5 -99q0 -71 -40 -127.5t-99 -93.5h-148z" />
    <glyph glyph-name="ncommaaccent" unicode="&#x146;" horiz-adv-x="1120" 
d="M68 0l131 924h247l-8 -101q99 119 275 119q142 0 224.5 -79.5t82.5 -223.5q0 -30 -10 -115l-74 -524h-272l73 520q0 1 4 34t4 50q0 50 -30 81.5t-97 31.5q-54 0 -93 -20t-62.5 -59t-36.5 -82.5t-23 -104.5l-63 -451h-272zM317 -446q72 58 111 114q-44 5 -70 33t-26 74
q0 62 40 98.5t99 36.5q60 0 96.5 -36t36.5 -99q0 -71 -40 -127.5t-99 -93.5h-148z" />
    <glyph glyph-name="Ncaron" unicode="&#x147;" horiz-adv-x="1445" 
d="M854 1430l-317 364h260l88 -111l116 111h281zM1206 -20l-735 792l-109 -772h-274l191 1348h20l733 -791l109 770h274l-188 -1347h-21z" />
    <glyph glyph-name="ncaron" unicode="&#x148;" horiz-adv-x="1120" 
d="M686 1047l-317 364h260l88 -111l117 111h280zM68 0l131 924h247l-8 -101q99 119 275 119q142 0 224.5 -79.5t82.5 -223.5q0 -30 -10 -115l-74 -524h-272l73 520q0 1 4 34t4 50q0 50 -30 81.5t-97 31.5q-54 0 -93 -20t-62.5 -59t-36.5 -82.5t-23 -104.5l-63 -451h-272z
" />
    <glyph glyph-name="Eng" unicode="&#x14a;" horiz-adv-x="1445" 
d="M743 -424q-132 0 -221 29l31 213q56 -23 152 -23q61 0 106 16.5t72.5 42t46.5 68t27.5 82t15.5 96.5l14 113l-516 559l-109 -772h-274l191 1348h20l733 -791l109 770h274l-174 -1245q-15 -100 -34.5 -172.5t-56.5 -139t-89.5 -107t-132 -64t-185.5 -23.5z" />
    <glyph glyph-name="eng" unicode="&#x14b;" horiz-adv-x="1120" 
d="M543 -424q-101 0 -158 21l29 202q38 -10 75 -10q41 0 70.5 15t47 36t31 62.5t19.5 74t15 91.5l65 452q0 1 4 34t4 50q0 50 -30 81.5t-97 31.5q-54 0 -93 -20t-62.5 -59t-36.5 -82.5t-23 -104.5l-63 -451h-272l131 924h247l-8 -99q101 119 275 119q142 0 224.5 -79.5
t82.5 -223.5q0 -32 -10 -117l-76 -524q-11 -77 -26 -135.5t-44.5 -115t-70 -93t-104 -58.5t-146.5 -22z" />
    <glyph glyph-name="Omacron" unicode="&#x14c;" horiz-adv-x="1562" 
d="M616 1520l29 213h633l-29 -213h-633zM737 -20q-152 0 -271.5 44.5t-194.5 124t-113.5 186t-38.5 234.5q0 62 8 117q42 299 244.5 480.5t513.5 181.5q287 0 451.5 -158.5t164.5 -425.5q0 -60 -8 -117q-19 -142 -79.5 -263.5t-155 -211.5t-229 -141t-292.5 -51zM745 238
q187 0 311.5 120t151.5 314q4 31 4 82q0 153 -88.5 245.5t-251.5 92.5q-186 0 -309.5 -119.5t-150.5 -308.5q-6 -46 -6 -80q0 -155 87 -250.5t252 -95.5z" />
    <glyph glyph-name="omacron" unicode="&#x14d;" horiz-adv-x="1173" 
d="M365 1130l28 213h633l-29 -213h-632zM535 -18q-222 0 -343.5 117.5t-121.5 308.5q0 38 6 81q30 204 181.5 328.5t381.5 124.5q215 0 341 -111.5t126 -308.5q0 -40 -6 -84q-30 -214 -183.5 -335t-381.5 -121zM547 211q124 0 200 88t76 213q0 95 -52 149t-144 54
q-122 0 -198.5 -91t-76.5 -216q0 -90 52.5 -143.5t142.5 -53.5z" />
    <glyph glyph-name="Obreve" unicode="&#x14e;" horiz-adv-x="1562" 
d="M930 1430q-171 0 -248.5 74.5t-77.5 201.5q0 49 8 88h203q-4 -36 -4 -47q0 -107 129 -107q88 0 128.5 38t49.5 116h205q-18 -364 -393 -364zM737 -20q-152 0 -271.5 44.5t-194.5 124t-113.5 186t-38.5 234.5q0 62 8 117q42 299 244.5 480.5t513.5 181.5
q287 0 451.5 -158.5t164.5 -425.5q0 -60 -8 -117q-19 -142 -79.5 -263.5t-155 -211.5t-229 -141t-292.5 -51zM745 238q187 0 311.5 120t151.5 314q4 31 4 82q0 153 -88.5 245.5t-251.5 92.5q-186 0 -309.5 -119.5t-150.5 -308.5q-6 -46 -6 -80q0 -155 87 -250.5t252 -95.5z
" />
    <glyph glyph-name="obreve" unicode="&#x14f;" horiz-adv-x="1173" 
d="M680 1047q-171 0 -248.5 74.5t-77.5 201.5q0 49 8 88h203q-4 -36 -4 -47q0 -107 129 -107q88 0 128.5 38t49.5 116h205q-18 -364 -393 -364zM535 -18q-222 0 -343.5 117.5t-121.5 308.5q0 38 6 81q30 204 181.5 328.5t381.5 124.5q215 0 341 -111.5t126 -308.5
q0 -40 -6 -84q-30 -214 -183.5 -335t-381.5 -121zM547 211q124 0 200 88t76 213q0 95 -52 149t-144 54q-122 0 -198.5 -91t-76.5 -216q0 -90 52.5 -143.5t142.5 -53.5z" />
    <glyph glyph-name="Ohungarumlaut" unicode="&#x150;" horiz-adv-x="1562" 
d="M434 1448l328 346h364l-415 -346h-277zM928 1448l327 346h365l-416 -346h-276zM737 -20q-152 0 -271.5 44.5t-194.5 124t-113.5 186t-38.5 234.5q0 62 8 117q42 299 244.5 480.5t513.5 181.5q287 0 451.5 -158.5t164.5 -425.5q0 -60 -8 -117q-19 -142 -79.5 -263.5
t-155 -211.5t-229 -141t-292.5 -51zM745 238q187 0 311.5 120t151.5 314q4 31 4 82q0 153 -88.5 245.5t-251.5 92.5q-186 0 -309.5 -119.5t-150.5 -308.5q-6 -46 -6 -80q0 -155 87 -250.5t252 -95.5z" />
    <glyph glyph-name="ohungarumlaut" unicode="&#x151;" horiz-adv-x="1173" 
d="M444 1065l332 346h447l-416 -346h-363zM639 942q215 0 341 -111.5t126 -308.5q0 -40 -6 -84q-30 -214 -183.5 -335t-381.5 -121q-222 0 -343.5 117.5t-121.5 308.5q0 38 6 81q30 204 181.5 328.5t381.5 124.5zM547 211q124 0 200 88t76 213q0 95 -52 149t-144 54
q-122 0 -198.5 -91t-76.5 -216q0 -90 52.5 -143.5t142.5 -53.5z" />
    <glyph glyph-name="OE" unicode="&#x152;" horiz-adv-x="2097" 
d="M727 -20q-149 0 -266 44.5t-191 124t-112.5 186.5t-38.5 234q0 62 8 117q42 299 244.5 480.5t513.5 181.5q145 0 251.5 -47.5t168.5 -124.5l22 151h789l-33 -231h-541l-41 -303h381l-33 -232h-383l-45 -328h566l-33 -233h-813l20 135q-75 -74 -186 -114.5t-248 -40.5z
M745 238q187 0 311.5 120t151.5 314q4 31 4 82q0 153 -88.5 245.5t-251.5 92.5q-186 0 -309.5 -119.5t-150.5 -308.5q-6 -46 -6 -80q0 -155 87 -250.5t252 -95.5z" />
    <glyph glyph-name="oe" unicode="&#x153;" horiz-adv-x="1812" 
d="M528 -18q-219 0 -338.5 117.5t-119.5 308.5q0 38 6 81q30 204 181.5 328.5t381.5 124.5q116 0 204.5 -40t133.5 -103q140 143 350 143q209 0 311.5 -100.5t102.5 -263.5q0 -91 -27 -201h-633v-8q0 -168 236 -168q180 0 344 82l-35 -232q-50 -26 -138 -47.5t-200 -21.5
q-276 0 -383 141q-138 -141 -377 -141zM1106 549h362q5 20 5 39q0 62 -42.5 100.5t-113.5 38.5q-78 0 -136 -49t-75 -129zM547 211q123 0 198.5 88t75.5 213q0 96 -51 149.5t-143 53.5q-122 0 -199.5 -91t-77.5 -216q0 -90 53.5 -143.5t143.5 -53.5z" />
    <glyph glyph-name="Racute" unicode="&#x154;" horiz-adv-x="1220" 
d="M1178 1794l-385 -346h-277l297 346h365zM1184 950q0 -184 -86.5 -303.5t-237.5 -161.5l248 -485h-315l-213 453h-148l-63 -453h-281l186 1327h342q62 0 112.5 -2.5t111.5 -12t107.5 -25.5t93 -44.5t76.5 -67t48.5 -96t18.5 -129.5zM522 680q50 0 86.5 2t79 9t72.5 20.5
t58 35t46 55.5t27 79q6 24 6 51q0 34 -9.5 61t-24 44.5t-39.5 29.5t-47 18.5t-57 10t-58.5 4t-61.5 0.5h-76l-59 -420h57z" />
    <glyph glyph-name="racute" unicode="&#x155;" horiz-adv-x="704" 
d="M340 1065l297 346h364l-385 -346h-276zM68 0l131 924h247l-8 -99q98 117 262 117q32 0 48 -4l-33 -233q-30 12 -80 12q-58 0 -100.5 -20t-68.5 -58.5t-40.5 -83t-22.5 -104.5l-63 -451h-272z" />
    <glyph glyph-name="Rcommaaccent" unicode="&#x156;" horiz-adv-x="1220" 
d="M1184 950q0 -184 -86.5 -303.5t-237.5 -161.5l248 -485h-315l-213 453h-148l-63 -453h-281l186 1327h342q62 0 112.5 -2.5t111.5 -12t107.5 -25.5t93 -44.5t76.5 -67t48.5 -96t18.5 -129.5zM522 680q50 0 86.5 2t79 9t72.5 20.5t58 35t46 55.5t27 79q6 24 6 51
q0 34 -9.5 61t-24 44.5t-39.5 29.5t-47 18.5t-57 10t-58.5 4t-61.5 0.5h-76l-59 -420h57zM537 -90q60 0 96.5 -36t36.5 -99q0 -71 -40 -127.5t-100 -93.5h-147q72 58 111 114q-45 5 -71 33.5t-26 73.5q0 62 40.5 98.5t99.5 36.5z" />
    <glyph glyph-name="rcommaaccent" unicode="&#x157;" horiz-adv-x="704" 
d="M68 0l131 924h247l-8 -99q98 117 262 117q32 0 48 -4l-33 -233q-30 12 -80 12q-58 0 -100.5 -20t-68.5 -58.5t-40.5 -83t-22.5 -104.5l-63 -451h-272zM18 -446q72 58 111 114q-44 5 -70 33t-26 74q0 62 40 98.5t99 36.5q60 0 96.5 -36t36.5 -99q0 -71 -40 -127.5
t-99 -93.5h-148z" />
    <glyph glyph-name="Rcaron" unicode="&#x158;" horiz-adv-x="1220" 
d="M1147 1794l-428 -364l-318 364h261l88 -111l116 111h281zM1184 950q0 -184 -86.5 -303.5t-237.5 -161.5l248 -485h-315l-213 453h-148l-63 -453h-281l186 1327h342q62 0 112.5 -2.5t111.5 -12t107.5 -25.5t93 -44.5t76.5 -67t48.5 -96t18.5 -129.5zM522 680q50 0 86.5 2
t79 9t72.5 20.5t58 35t46 55.5t27 79q6 24 6 51q0 34 -9.5 61t-24 44.5t-39.5 29.5t-47 18.5t-57 10t-58.5 4t-61.5 0.5h-76l-59 -420h57z" />
    <glyph glyph-name="rcaron" unicode="&#x159;" horiz-adv-x="704" 
d="M547 1047l-318 364h260l89 -111l116 111h281zM68 0l131 924h247l-8 -99q98 117 262 117q32 0 48 -4l-33 -233q-30 12 -80 12q-58 0 -100.5 -20t-68.5 -58.5t-40.5 -83t-22.5 -104.5l-63 -451h-272z" />
    <glyph glyph-name="Sacute" unicode="&#x15a;" horiz-adv-x="1024" 
d="M475 1448l297 346h365l-385 -346h-277zM430 -20q-229 0 -367 83l37 261q63 -45 147 -75t175 -30q109 0 163 44.5t54 125.5q0 40 -24.5 72.5t-64 56t-87 47t-95 54.5t-87 70t-64 101t-24.5 140q0 200 126.5 309t346.5 109q100 0 189.5 -21.5t131.5 -48.5l-39 -258
q-54 39 -130.5 64.5t-147.5 25.5q-92 0 -141.5 -45.5t-49.5 -110.5q0 -43 25 -77t64.5 -57.5t87.5 -47t95.5 -53.5t87 -68.5t64.5 -101t25 -141.5q0 -208 -135 -318t-363 -110z" />
    <glyph glyph-name="sacute" unicode="&#x15b;" horiz-adv-x="802" 
d="M309 1065l297 346h365l-385 -346h-277zM311 -18q-89 0 -162.5 17.5t-107.5 39.5l29 205q38 -23 101.5 -44.5t129.5 -21.5q143 0 143 103q0 31 -17.5 54t-46 37.5t-62.5 28t-68.5 32t-63 43.5t-46 68.5t-17.5 100.5q0 135 91 216t263 81q81 0 150.5 -17t97.5 -34l-29 -203
q-91 60 -196 60q-59 0 -90 -23t-31 -61q0 -31 24 -53t59.5 -34.5t77 -33t77 -46t59.5 -77t24 -121.5q0 -157 -107 -237t-282 -80z" />
    <glyph glyph-name="Scircumflex" unicode="&#x15c;" horiz-adv-x="1024" 
d="M307 1448l428 364l318 -364h-260l-88 111l-117 -111h-281zM430 -20q-229 0 -367 83l37 261q63 -45 147 -75t175 -30q109 0 163 44.5t54 125.5q0 40 -24.5 72.5t-64 56t-87 47t-95 54.5t-87 70t-64 101t-24.5 140q0 200 126.5 309t346.5 109q100 0 189.5 -21.5
t131.5 -48.5l-39 -258q-54 39 -130.5 64.5t-147.5 25.5q-92 0 -141.5 -45.5t-49.5 -110.5q0 -43 25 -77t64.5 -57.5t87.5 -47t95.5 -53.5t87 -68.5t64.5 -101t25 -141.5q0 -208 -135 -318t-363 -110z" />
    <glyph glyph-name="scircumflex" unicode="&#x15d;" horiz-adv-x="802" 
d="M145 1065l428 365l318 -365h-260l-88 111l-117 -111h-281zM311 -18q-89 0 -162.5 17.5t-107.5 39.5l29 205q38 -23 101.5 -44.5t129.5 -21.5q143 0 143 103q0 31 -17.5 54t-46 37.5t-62.5 28t-68.5 32t-63 43.5t-46 68.5t-17.5 100.5q0 135 91 216t263 81q81 0 150.5 -17
t97.5 -34l-29 -203q-91 60 -196 60q-59 0 -90 -23t-31 -61q0 -31 24 -53t59.5 -34.5t77 -33t77 -46t59.5 -77t24 -121.5q0 -157 -107 -237t-282 -80z" />
    <glyph glyph-name="Scedilla" unicode="&#x15e;" horiz-adv-x="1024" 
d="M670 1110q-92 0 -141.5 -45.5t-49.5 -110.5q0 -43 25 -77t64.5 -57.5t87.5 -47t95.5 -53.5t87 -68.5t64.5 -101t25 -141.5q0 -191 -115 -299.5t-313 -126.5l-31 -64q65 -2 105 -37t40 -102q0 -203 -256 -203q-87 0 -143 25l18 129q42 -25 103 -25q40 0 65 17t25 51
q0 25 -15 40t-44 15q-45 0 -74 -33l-23 15l74 174q-178 14 -281 79l37 261q63 -45 147 -75t175 -30q109 0 163 44.5t54 125.5q0 40 -24.5 72.5t-64 56t-87 47t-95 54.5t-87 70t-64 101t-24.5 140q0 200 126.5 309t346.5 109q100 0 189.5 -21.5t131.5 -48.5l-39 -258
q-54 39 -130.5 64.5t-147.5 25.5z" />
    <glyph glyph-name="scedilla" unicode="&#x15f;" horiz-adv-x="802" 
d="M379 664q0 -31 24 -53t59.5 -34.5t77 -33t77 -46t59.5 -77t24 -121.5q0 -136 -82 -214.5t-223 -96.5l-33 -70q65 -2 105.5 -37t40.5 -102q0 -203 -256 -203q-87 0 -143 25l18 129q42 -25 102 -25q40 0 65 17t25 51q0 25 -15 40t-44 15q-45 0 -74 -33l-22 15l74 176
q-132 11 -197 53l29 205q38 -23 101.5 -44.5t129.5 -21.5q143 0 143 103q0 31 -17.5 54t-46 37.5t-62.5 28t-68.5 32t-63 43.5t-46 68.5t-17.5 100.5q0 135 91 216t263 81q81 0 150.5 -17t97.5 -34l-29 -203q-91 60 -196 60q-59 0 -90 -23t-31 -61z" />
    <glyph glyph-name="Scaron" unicode="&#x160;" horiz-adv-x="1024" 
d="M678 1430l-318 364h261l88 -111l116 111h281zM430 -20q-229 0 -367 83l37 261q63 -45 147 -75t175 -30q109 0 163 44.5t54 125.5q0 40 -24.5 72.5t-64 56t-87 47t-95 54.5t-87 70t-64 101t-24.5 140q0 200 126.5 309t346.5 109q100 0 189.5 -21.5t131.5 -48.5l-39 -258
q-54 39 -130.5 64.5t-147.5 25.5q-92 0 -141.5 -45.5t-49.5 -110.5q0 -43 25 -77t64.5 -57.5t87.5 -47t95.5 -53.5t87 -68.5t64.5 -101t25 -141.5q0 -208 -135 -318t-363 -110z" />
    <glyph glyph-name="scaron" unicode="&#x161;" horiz-adv-x="802" 
d="M516 1047l-317 364h260l88 -111l117 111h280zM311 -18q-89 0 -162.5 17.5t-107.5 39.5l29 205q38 -23 101.5 -44.5t129.5 -21.5q143 0 143 103q0 31 -17.5 54t-46 37.5t-62.5 28t-68.5 32t-63 43.5t-46 68.5t-17.5 100.5q0 135 91 216t263 81q81 0 150.5 -17t97.5 -34
l-29 -203q-91 60 -196 60q-59 0 -90 -23t-31 -61q0 -31 24 -53t59.5 -34.5t77 -33t77 -46t59.5 -77t24 -121.5q0 -157 -107 -237t-282 -80z" />
    <glyph glyph-name="uni0162" unicode="&#x162;" horiz-adv-x="1150" 
d="M371 0l153 1096h-362l33 231h1003l-33 -231h-358l-154 -1096h-282zM328 -446q69 56 110 114q-44 5 -70 33t-26 74q0 62 40 98.5t99 36.5q60 0 96.5 -36t36.5 -99q0 -71 -40 -127.5t-99 -93.5h-147z" />
    <glyph glyph-name="uni0163" unicode="&#x163;" horiz-adv-x="829" 
d="M492 -12q-159 0 -242.5 70t-83.5 196q0 48 20 192l37 265h-166l4 20q61 50 242.5 227.5t243.5 251.5h20l-39 -286h252l-30 -213h-252l-41 -287q-15 -81 -15 -125q0 -88 125 -88q74 0 154 39l-33 -227q-19 -11 -76.5 -23t-119.5 -12zM236 -446q69 56 110 114q-44 5 -70 33
t-26 74q0 62 40 98.5t99 36.5q60 0 96.5 -36t36.5 -99q0 -71 -40 -127.5t-99 -93.5h-147z" />
    <glyph glyph-name="Tcaron" unicode="&#x164;" horiz-adv-x="1150" 
d="M705 1430l-318 364h260l88 -111l117 111h281zM371 0l153 1096h-362l33 231h1003l-33 -231h-358l-154 -1096h-282z" />
    <glyph glyph-name="tcaron" unicode="&#x165;" horiz-adv-x="921" 
d="M711 1026q99 76 147 145q-46 6 -72 34t-26 73q0 62 40.5 98.5t100.5 36.5q59 0 96 -36t37 -99q0 -74 -49.5 -141.5t-126.5 -110.5h-147zM492 -12q-159 0 -242.5 70t-83.5 196q0 48 20 192l37 265h-166l4 20q61 50 242.5 227.5t243.5 251.5h20l-39 -286h252l-30 -213h-252
l-41 -287q-15 -81 -15 -125q0 -88 125 -88q74 0 154 39l-33 -227q-19 -11 -76.5 -23t-119.5 -12z" />
    <glyph glyph-name="Tbar" unicode="&#x166;" horiz-adv-x="1150" 
d="M1165 1096h-358l-53 -377h194l-30 -217h-195l-70 -502h-282l69 502h-188l31 217h188l53 377h-362l33 231h1003z" />
    <glyph glyph-name="tbar" unicode="&#x167;" horiz-adv-x="829" 
d="M750 711h-252l-19 -136h221l-26 -202h-225q-7 -51 -7 -74q0 -88 125 -88q74 0 154 39l-33 -227q-19 -11 -76.5 -23t-119.5 -12q-159 0 -242.5 70t-83.5 196q0 47 10 119h-104l26 202h107l18 136h-166l4 20q61 50 242.5 227.5t243.5 251.5h20l-39 -286h252z" />
    <glyph glyph-name="Utilde" unicode="&#x168;" horiz-adv-x="1353" 
d="M969 1477q-54 0 -104.5 21t-91.5 42t-71 21q-71 0 -81 -74h-166q14 126 78.5 194t171.5 68q56 0 107.5 -21t92 -42t68.5 -21q37 0 56.5 23t23.5 51h166q-9 -120 -75.5 -191t-174.5 -71zM627 -20q-238 0 -361 109t-123 325q0 25 2.5 54.5t5 48t7 51t6.5 44.5l98 715h283
l-107 -760q-12 -74 -12 -135q0 -99 48.5 -151t160.5 -52q145 0 216 85t95 266l107 747h280l-110 -788q-8 -54 -17.5 -99t-30.5 -105t-48.5 -107t-73.5 -95t-103.5 -80t-140.5 -52.5t-182 -20.5z" />
    <glyph glyph-name="utilde" unicode="&#x169;" horiz-adv-x="1064" 
d="M770 1094q-54 0 -104.5 21t-91 42t-70.5 21q-39 0 -58.5 -22.5t-23.5 -51.5h-166q14 126 78.5 194t171.5 68q56 0 107.5 -21t92 -42t68.5 -21q37 0 56.5 23t23.5 51h166q-9 -121 -75.5 -191.5t-174.5 -70.5zM481 -18q-197 0 -287 91t-90 236q0 37 15 144l65 471h273
l-74 -529q-8 -62 -8 -84q0 -106 119 -106q76 0 118.5 44t55.5 140l75 535h269l-76 -529q-9 -70 -26 -126t-51 -111.5t-82.5 -92.5t-124 -60t-171.5 -23z" />
    <glyph glyph-name="Umacron" unicode="&#x16a;" horiz-adv-x="1353" 
d="M508 1520l29 213h632l-28 -213h-633zM627 -20q-238 0 -361 109t-123 325q0 25 2.5 54.5t5 48t7 51t6.5 44.5l98 715h283l-107 -760q-12 -74 -12 -135q0 -99 48.5 -151t160.5 -52q145 0 216 85t95 266l107 747h280l-110 -788q-8 -54 -17.5 -99t-30.5 -105t-48.5 -107
t-73.5 -95t-103.5 -80t-140.5 -52.5t-182 -20.5z" />
    <glyph glyph-name="umacron" unicode="&#x16b;" horiz-adv-x="1064" 
d="M307 1130l29 213h633l-29 -213h-633zM481 -18q-197 0 -287 91t-90 236q0 37 15 144l65 471h273l-74 -529q-8 -62 -8 -84q0 -106 119 -106q76 0 118.5 44t55.5 140l75 535h269l-76 -529q-9 -70 -26 -126t-51 -111.5t-82.5 -92.5t-124 -60t-171.5 -23z" />
    <glyph glyph-name="Ubreve" unicode="&#x16c;" horiz-adv-x="1353" 
d="M821 1430q-171 0 -248 74.5t-77 201.5q0 49 8 88h203q-5 -45 -5 -47q0 -107 129 -107q88 0 129 38t50 116h204q-18 -364 -393 -364zM627 -20q-238 0 -361 109t-123 325q0 25 2.5 54.5t5 48t7 51t6.5 44.5l98 715h283l-107 -760q-12 -74 -12 -135q0 -99 48.5 -151
t160.5 -52q145 0 216 85t95 266l107 747h280l-110 -788q-8 -54 -17.5 -99t-30.5 -105t-48.5 -107t-73.5 -95t-103.5 -80t-140.5 -52.5t-182 -20.5z" />
    <glyph glyph-name="ubreve" unicode="&#x16d;" horiz-adv-x="1064" 
d="M623 1047q-171 0 -248.5 74.5t-77.5 201.5q0 49 8 88h203q-4 -36 -4 -47q0 -107 129 -107q88 0 128.5 38t49.5 116h205q-18 -364 -393 -364zM481 -18q-197 0 -287 91t-90 236q0 37 15 144l65 471h273l-74 -529q-8 -62 -8 -84q0 -106 119 -106q76 0 118.5 44t55.5 140
l75 535h269l-76 -529q-9 -70 -26 -126t-51 -111.5t-82.5 -92.5t-124 -60t-171.5 -23z" />
    <glyph glyph-name="Uring" unicode="&#x16e;" horiz-adv-x="1353" 
d="M819 1413q-90 0 -146.5 53.5t-56.5 141.5q0 102 70.5 164.5t171.5 62.5q92 0 148.5 -51t56.5 -139q0 -111 -71 -171.5t-173 -60.5zM836 1544q36 0 61 23.5t25 62.5q0 34 -21 55t-55 21q-36 0 -61 -25t-25 -63q0 -33 20 -53.5t56 -20.5zM627 -20q-238 0 -361 109t-123 325
q0 25 2.5 54.5t5 48t7 51t6.5 44.5l98 715h283l-107 -760q-12 -74 -12 -135q0 -99 48.5 -151t160.5 -52q145 0 216 85t95 266l107 747h280l-110 -788q-8 -54 -17.5 -99t-30.5 -105t-48.5 -107t-73.5 -95t-103.5 -80t-140.5 -52.5t-182 -20.5z" />
    <glyph glyph-name="uring" unicode="&#x16f;" horiz-adv-x="1064" 
d="M623 1044q-91 0 -147 53t-56 142q0 103 70 165t172 62q91 0 147.5 -51t56.5 -139q0 -111 -70.5 -171.5t-172.5 -60.5zM637 1176q36 0 61 23.5t25 62.5q0 34 -21 54.5t-55 20.5q-35 0 -60.5 -25.5t-25.5 -62.5q0 -33 20.5 -53t55.5 -20zM481 -18q-197 0 -287 91t-90 236
q0 37 15 144l65 471h273l-74 -529q-8 -62 -8 -84q0 -106 119 -106q76 0 118.5 44t55.5 140l75 535h269l-76 -529q-9 -70 -26 -126t-51 -111.5t-82.5 -92.5t-124 -60t-171.5 -23z" />
    <glyph glyph-name="Uhungarumlaut" unicode="&#x170;" horiz-adv-x="1353" 
d="M326 1448l327 346h365l-416 -346h-276zM819 1448l328 346h364l-415 -346h-277zM627 -20q-238 0 -361 109t-123 325q0 25 2.5 54.5t5 48t7 51t6.5 44.5l98 715h283l-107 -760q-12 -74 -12 -135q0 -99 48.5 -151t160.5 -52q145 0 216 85t95 266l107 747h280l-110 -788
q-8 -54 -17.5 -99t-30.5 -105t-48.5 -107t-73.5 -95t-103.5 -80t-140.5 -52.5t-182 -20.5z" />
    <glyph glyph-name="uhungarumlaut" unicode="&#x171;" horiz-adv-x="1064" 
d="M387 1065l332 346h446l-415 -346h-363zM668 389l75 535h269l-76 -529q-9 -70 -26 -126t-51 -111.5t-82.5 -92.5t-124 -60t-171.5 -23q-197 0 -287 91t-90 236q0 37 15 144l65 471h273l-74 -529q-8 -62 -8 -84q0 -106 119 -106q76 0 118.5 44t55.5 140z" />
    <glyph glyph-name="Uogonek" unicode="&#x172;" horiz-adv-x="1353" 
d="M727 -424q-103 0 -168 45t-65 141q0 75 37 131.5t96 88.5q-10 -2 -31 -2q-216 0 -334.5 111t-118.5 323q0 25 2.5 54.5t5 48t7 51t6.5 44.5l98 715h283l-107 -760q-12 -74 -12 -137q0 -98 49 -149.5t162 -51.5q144 0 214.5 86t94.5 265l107 747h280l-110 -788
q-12 -82 -28.5 -143t-46.5 -127t-81 -121t-123 -99q-74 -45 -112 -70t-76.5 -57.5t-53 -62t-14.5 -64.5q0 -65 76 -65q61 0 110 28l-22 -164q-56 -18 -125 -18z" />
    <glyph glyph-name="uogonek" unicode="&#x173;" horiz-adv-x="1064" 
d="M580 -424q-103 0 -168.5 45t-65.5 141q0 145 141 222q-8 -2 -22 -2q-182 0 -271.5 90.5t-89.5 236.5q0 37 15 144l65 471h273l-74 -529q-8 -62 -8 -84q0 -106 119 -106q76 0 118.5 44t55.5 140l75 535h269l-76 -529q-33 -241 -186 -356q-118 -86 -163.5 -135.5
t-45.5 -108.5q0 -65 75 -65q62 0 111 28l-25 -164q-52 -18 -122 -18z" />
    <glyph glyph-name="Wcircumflex" unicode="&#x174;" horiz-adv-x="2097" 
d="M807 1448l428 364l317 -364h-260l-88 111l-117 -111h-280zM586 -18l-416 1345h301l213 -741l467 741h20l261 -741l421 741h316l-791 -1345h-20l-268 766l-484 -766h-20z" />
    <glyph glyph-name="wcircumflex" unicode="&#x175;" horiz-adv-x="1468" 
d="M444 1065l428 365l318 -365h-260l-88 111l-117 -111h-281zM416 -18l-326 942h289l123 -437l280 437h21l153 -437l252 437h303l-591 -942h-21l-166 464l-297 -464h-20z" />
    <glyph glyph-name="Ycircumflex" unicode="&#x176;" horiz-adv-x="1302" 
d="M408 1448l428 364l317 -364h-260l-88 111l-117 -111h-280zM440 0l76 526l-360 801h301l229 -555l389 555h314l-592 -801l-74 -526h-283z" />
    <glyph glyph-name="ycircumflex" unicode="&#x177;" horiz-adv-x="1060" 
d="M238 1065l428 365l317 -365h-260l-88 111l-117 -111h-280zM55 -406l281 480l-258 850h291l141 -566l303 566h301l-762 -1330h-297z" />
    <glyph glyph-name="Ydieresis" unicode="&#x178;" horiz-adv-x="1302" 
d="M580 1464q-70 0 -111 41t-41 107q0 73 50 122.5t122 49.5q67 0 108.5 -42.5t41.5 -107.5q0 -74 -48.5 -122t-121.5 -48zM1026 1464q-68 0 -110 41.5t-42 106.5q0 73 50.5 122.5t122.5 49.5q67 0 108 -42.5t41 -107.5q0 -74 -48.5 -122t-121.5 -48zM440 0l76 526l-360 801
h301l229 -555l389 555h314l-592 -801l-74 -526h-283z" />
    <glyph glyph-name="Zacute" unicode="&#x179;" horiz-adv-x="1222" 
d="M530 1448l297 346h365l-385 -346h-277zM2 0l4 20l766 1076h-571l32 231h1029l-5 -20l-761 -1074h608l-33 -233h-1069z" />
    <glyph glyph-name="zacute" unicode="&#x17a;" horiz-adv-x="954" 
d="M352 1065l297 346h365l-385 -346h-277zM-14 0l4 20l516 691h-385l31 213h819l-4 -21l-516 -688h428l-33 -215h-860z" />
    <glyph glyph-name="Zdotaccent" unicode="&#x17b;" horiz-adv-x="1222" 
d="M758 1464q-70 0 -112 41.5t-42 108.5q0 73 50 122.5t124 49.5q67 0 109.5 -42.5t42.5 -107.5q0 -75 -49.5 -123.5t-122.5 -48.5zM2 0l4 20l766 1076h-571l32 231h1029l-5 -20l-761 -1074h608l-33 -233h-1069z" />
    <glyph glyph-name="zdotaccent" unicode="&#x17c;" horiz-adv-x="954" 
d="M575 1096q-62 0 -98.5 36.5t-36.5 94.5q0 72 49.5 120t118.5 48q59 0 96 -37.5t37 -93.5q0 -76 -47.5 -122t-118.5 -46zM-14 0l4 20l516 691h-385l31 213h819l-4 -21l-516 -688h428l-33 -215h-860z" />
    <glyph glyph-name="Zcaron" unicode="&#x17d;" horiz-adv-x="1222" 
d="M733 1430l-317 364h260l88 -111l117 111h280zM2 0l4 20l766 1076h-571l32 231h1029l-5 -20l-761 -1074h608l-33 -233h-1069z" />
    <glyph glyph-name="zcaron" unicode="&#x17e;" horiz-adv-x="954" 
d="M559 1047l-317 364h260l88 -111l117 111h280zM-14 0l4 20l516 691h-385l31 213h819l-4 -21l-516 -688h428l-33 -215h-860z" />
    <glyph glyph-name="longs" unicode="&#x17f;" horiz-adv-x="757" 
d="M147 0l101 711h-160l31 213h157l11 75q26 192 121 292t292 100q126 0 203 -37l-31 -221q-50 30 -133 30q-89 0 -130 -49.5t-54 -142.5l-135 -971h-273z" />
    <glyph glyph-name="florin" unicode="&#x192;" horiz-adv-x="956" 
d="M-29 -424q-60 0 -108.5 9.5t-63.5 19.5l23 219q41 -17 98 -17q86 0 131.5 46t85.5 174l162 512h-154l33 227h195l67 211q60 188 162 279.5t285 91.5q59 0 107 -9t65 -18l-31 -227q-44 18 -100 18q-86 0 -136.5 -49t-86.5 -162l-43 -135h227l-33 -227h-266l-172 -551
q-17 -53 -30 -87.5t-35 -82t-44 -78.5t-56 -65t-73 -53.5t-92.5 -32.5t-116.5 -13z" />
    <glyph glyph-name="uni01CD" unicode="&#x1cd;" horiz-adv-x="1312" 
d="M786 1430l-317 364h260l88 -111l117 111h280zM-31 0l803 1348h21l419 -1348h-292l-58 205h-477l-117 -205h-299zM504 424h307l-102 367z" />
    <glyph glyph-name="uni01CE" unicode="&#x1ce;" horiz-adv-x="1075" 
d="M1030 1411l-428 -364l-317 364h260l88 -111l117 111h280zM567 942q191 0 292.5 -78.5t101.5 -226.5q0 -40 -13 -131l-71 -506h-248l8 90q-97 -108 -281 -108q-149 0 -230 70t-81 196q0 106 60.5 183.5t157 115t214.5 37.5q124 0 207 -39q4 40 4 59q0 64 -40.5 100.5
t-147.5 36.5q-145 0 -297 -88l30 217q153 72 334 72zM451 158q82 0 137.5 54.5t68.5 154.5l2 10q-57 39 -147 39q-87 0 -138.5 -39.5t-51.5 -108.5q0 -54 34.5 -82t94.5 -28z" />
    <glyph glyph-name="AEacute" unicode="&#x1fc;" horiz-adv-x="1828" 
d="M823 1448l297 346h365l-385 -346h-277zM-31 0l791 1327h629l73 -231h-592l95 -303h458l72 -232h-457l101 -328h583l74 -233h-876l-58 205h-477l-117 -205h-299zM504 424h307l-102 367z" />
    <glyph glyph-name="aeacute" unicode="&#x1fd;" horiz-adv-x="1638" 
d="M1401 1411l-385 -346h-277l297 346h365zM1542 377h-633v-10q0 -166 234 -166q187 0 344 82l-33 -232q-146 -69 -342 -69q-304 0 -381 163q-43 -69 -133 -116t-221 -47q-164 0 -248 69t-84 197q0 106 60.5 183.5t157 115t214.5 37.5q124 0 207 -39q4 40 4 59
q0 64 -40.5 100.5t-147.5 36.5q-145 0 -297 -88l30 217q153 72 334 72q204 0 273 -111q51 53 136.5 82t180.5 29q206 0 309 -101t103 -263q0 -91 -27 -201zM1145 727q-79 0 -136.5 -49t-76.5 -129h364q4 16 4 39q0 62 -42.5 100.5t-112.5 38.5zM451 158q82 0 137.5 54.5
t68.5 154.5l2 10q-57 39 -147 39q-87 0 -138.5 -39.5t-51.5 -108.5q0 -54 34.5 -82t94.5 -28z" />
    <glyph glyph-name="Oslashacute" unicode="&#x1fe;" horiz-adv-x="1562" 
d="M764 1448l297 346h364l-385 -346h-276zM41 -61l205 237q-127 151 -127 393q0 62 8 117q42 299 244.5 480.5t513.5 181.5q176 0 313 -64l107 123h260l-207 -240q143 -152 143 -403q0 -60 -8 -117q-19 -142 -79.5 -263.5t-155 -211.5t-229 -141t-292.5 -51q-196 0 -336 73
l-100 -114h-260zM444 408l570 661q-54 23 -142 23q-186 0 -309.5 -119.5t-150.5 -308.5q-6 -46 -6 -80q0 -107 38 -176zM745 238q187 0 311.5 120t151.5 314q4 31 4 82q0 110 -47 190l-579 -676q55 -30 159 -30z" />
    <glyph glyph-name="oslashacute" unicode="&#x1ff;" horiz-adv-x="1173" 
d="M461 1065l297 346h364l-385 -346h-276zM66 -74l131 166q-127 115 -127 316q0 38 6 81q30 204 181.5 328.5t381.5 124.5q124 0 207 -35l72 92h192l-133 -165q129 -114 129 -312q0 -40 -6 -84q-30 -214 -183.5 -335t-381.5 -121q-123 0 -207 34l-72 -90h-190zM373 313
l315 394q-21 8 -61 8q-122 0 -198.5 -91t-76.5 -216q0 -58 21 -95zM547 211q124 0 200 88t76 213q0 52 -20 100l-316 -393q21 -8 60 -8z" />
    <glyph glyph-name="Scommaaccent" unicode="&#x218;" horiz-adv-x="1024" 
d="M430 -20q-229 0 -367 83l37 261q63 -45 147 -75t175 -30q109 0 163 44.5t54 125.5q0 40 -24.5 72.5t-64 56t-87 47t-95 54.5t-87 70t-64 101t-24.5 140q0 200 126.5 309t346.5 109q100 0 189.5 -21.5t131.5 -48.5l-39 -258q-54 39 -130.5 64.5t-147.5 25.5
q-92 0 -141.5 -45.5t-49.5 -110.5q0 -43 25 -77t64.5 -57.5t87.5 -47t95.5 -53.5t87 -68.5t64.5 -101t25 -141.5q0 -208 -135 -318t-363 -110zM240 -446q69 56 110 114q-44 5 -70 33t-26 74q0 62 40 98.5t99 36.5q60 0 96.5 -36t36.5 -99q0 -71 -40 -127.5t-99 -93.5h-147z
" />
    <glyph glyph-name="scommaaccent" unicode="&#x219;" horiz-adv-x="802" 
d="M311 -18q-89 0 -162.5 17.5t-107.5 39.5l29 205q38 -23 101.5 -44.5t129.5 -21.5q143 0 143 103q0 31 -17.5 54t-46 37.5t-62.5 28t-68.5 32t-63 43.5t-46 68.5t-17.5 100.5q0 135 91 216t263 81q81 0 150.5 -17t97.5 -34l-29 -203q-91 60 -196 60q-59 0 -90 -23t-31 -61
q0 -31 24 -53t59.5 -34.5t77 -33t77 -46t59.5 -77t24 -121.5q0 -157 -107 -237t-282 -80zM133 -446q72 58 111 114q-45 5 -71 33.5t-26 73.5q0 62 40.5 98.5t99.5 36.5q60 0 96.5 -36t36.5 -99q0 -71 -40 -127.5t-99 -93.5h-148z" />
    <glyph glyph-name="uni021A" unicode="&#x21a;" horiz-adv-x="1150" 
d="M371 0l153 1096h-362l33 231h1003l-33 -231h-358l-154 -1096h-282zM328 -446q69 56 110 114q-44 5 -70 33t-26 74q0 62 40 98.5t99 36.5q60 0 96.5 -36t36.5 -99q0 -71 -40 -127.5t-99 -93.5h-147z" />
    <glyph glyph-name="uni021B" unicode="&#x21b;" horiz-adv-x="829" 
d="M492 -12q-159 0 -242.5 70t-83.5 196q0 48 20 192l37 265h-166l4 20q61 50 242.5 227.5t243.5 251.5h20l-39 -286h252l-30 -213h-252l-41 -287q-15 -81 -15 -125q0 -88 125 -88q74 0 154 39l-33 -227q-19 -11 -76.5 -23t-119.5 -12zM236 -446q69 56 110 114q-44 5 -70 33
t-26 74q0 62 40 98.5t99 36.5q60 0 96.5 -36t36.5 -99q0 -71 -40 -127.5t-99 -93.5h-147z" />
    <glyph glyph-name="uni0237" unicode="&#x237;" horiz-adv-x="575" 
d="M-94 -424q-130 0 -201 31l31 209q54 -21 131 -21q63 0 106 19.5t68.5 62t38.5 89.5t24 120l89 625h-117l30 213h388l-115 -820q-10 -71 -19.5 -121t-27.5 -109t-40.5 -99.5t-57.5 -81t-80 -64t-108 -38.5t-140 -15z" />
    <glyph glyph-name="circumflex" unicode="&#x2c6;" horiz-adv-x="1040" 
d="M240 1065l428 365l317 -365h-260l-88 111l-117 -111h-280z" />
    <glyph glyph-name="caron" unicode="&#x2c7;" horiz-adv-x="1040" 
d="M606 1047l-317 364h260l88 -111l117 111h280z" />
    <glyph glyph-name="breve" unicode="&#x2d8;" horiz-adv-x="1046" 
d="M627 1047q-171 0 -248.5 74.5t-77.5 201.5q0 49 8 88h203q-4 -36 -4 -47q0 -107 129 -107q88 0 128.5 38t49.5 116h205q-18 -364 -393 -364z" />
    <glyph glyph-name="dotaccent" unicode="&#x2d9;" horiz-adv-x="1069" 
d="M653 1096q-62 0 -98.5 36.5t-36.5 94.5q0 72 49.5 120t118.5 48q59 0 96 -37.5t37 -93.5q0 -76 -47.5 -122t-118.5 -46z" />
    <glyph glyph-name="ring" unicode="&#x2da;" horiz-adv-x="1058" 
d="M639 1044q-91 0 -147 53t-56 142q0 103 70 165t172 62q91 0 148 -51t57 -139q0 -111 -71 -171.5t-173 -60.5zM653 1176q36 0 61 23.5t25 62.5q0 34 -20.5 54.5t-54.5 20.5q-35 0 -60.5 -25.5t-25.5 -62.5q0 -33 20 -53t55 -20z" />
    <glyph glyph-name="ogonek" unicode="&#x2db;" horiz-adv-x="1062" 
d="M559 -424q-102 0 -168.5 45t-66.5 137q0 117 81.5 192t215.5 103l127 -49q-100 -31 -165 -88t-65 -123q0 -63 76 -63q34 0 66 9.5t45 18.5l-23 -164q-52 -18 -123 -18z" />
    <glyph glyph-name="tilde" unicode="&#x2dc;" horiz-adv-x="1040" 
d="M772 1094q-54 0 -104.5 21t-91 42t-70.5 21q-39 0 -58.5 -22.5t-23.5 -51.5h-166q14 126 78.5 194t171.5 68q56 0 107.5 -21t92 -42t68.5 -21q37 0 56.5 23t23.5 51h166q-9 -121 -75.5 -191.5t-174.5 -70.5z" />
    <glyph glyph-name="hungarumlaut" unicode="&#x2dd;" horiz-adv-x="1019" 
d="M1004 1411l-416 -346h-363l332 346h447z" />
    <glyph glyph-name="gravecomb" unicode="&#x300;" horiz-adv-x="0" 
d="M-401 1065l-291 346h352l201 -346h-262z" />
    <glyph glyph-name="acutecomb" unicode="&#x301;" horiz-adv-x="0" 
d="M-752 1065l297 346h365l-385 -346h-277z" />
    <glyph glyph-name="uni0302" unicode="&#x302;" horiz-adv-x="0" 
d="M-809 1065l428 365l318 -365h-261l-88 111l-116 -111h-281z" />
    <glyph glyph-name="tildecomb" unicode="&#x303;" horiz-adv-x="0" 
d="M-279 1094q-54 0 -104.5 21t-91 42t-70.5 21q-39 0 -58.5 -22.5t-23.5 -51.5h-166q14 126 78.5 194t171.5 68q56 0 108 -21t92.5 -42t68.5 -21q37 0 56 23t23 51h166q-9 -121 -75.5 -191.5t-174.5 -70.5z" />
    <glyph glyph-name="uni0304" unicode="&#x304;" horiz-adv-x="0" 
d="M-748 1130l29 213h633l-29 -213h-633z" />
    <glyph glyph-name="uni0306" unicode="&#x306;" horiz-adv-x="0" 
d="M-430 1047q-171 0 -248.5 74.5t-77.5 201.5q0 49 8 88h203q-4 -36 -4 -47q0 -107 129 -107q88 0 128.5 38t49.5 116h205q-18 -364 -393 -364z" />
    <glyph glyph-name="uni0307" unicode="&#x307;" horiz-adv-x="0" 
d="M-438 1096q-62 0 -98.5 36.5t-36.5 94.5q0 72 49 120t118 48q59 0 96.5 -37.5t37.5 -93.5q0 -76 -47.5 -122t-118.5 -46z" />
    <glyph glyph-name="uni0308" unicode="&#x308;" horiz-adv-x="0" 
d="M-649 1096q-62 0 -98.5 36.5t-36.5 94.5q0 72 49.5 120t118.5 48q59 0 96 -37.5t37 -93.5q0 -76 -47.5 -122t-118.5 -46zM-205 1096q-63 0 -99 36.5t-36 94.5q0 72 49.5 120t118.5 48q59 0 95 -37t36 -94q0 -76 -46.5 -122t-117.5 -46z" />
    <glyph glyph-name="uni030A" unicode="&#x30a;" horiz-adv-x="0" 
d="M-438 1044q-91 0 -147 53t-56 142q0 103 70 165t172 62q91 0 147.5 -51t56.5 -139q0 -111 -70.5 -171.5t-172.5 -60.5zM-424 1176q36 0 61 23.5t25 62.5q0 34 -21 54.5t-55 20.5q-35 0 -60.5 -25.5t-25.5 -62.5q0 -33 20.5 -53t55.5 -20z" />
    <glyph glyph-name="uni030B" unicode="&#x30b;" horiz-adv-x="0" 
d="M-12 1411l-416 -346h-363l332 346h447z" />
    <glyph glyph-name="uni030C" unicode="&#x30c;" horiz-adv-x="0" 
d="M-442 1047l-318 364h260l88 -111l117 111h281z" />
    <glyph glyph-name="uni0315" unicode="&#x315;" horiz-adv-x="0" 
d="M-590 961q101 77 148 145q-46 6 -72.5 33.5t-26.5 72.5q0 62 41 99t101 37q58 0 95.5 -36.5t37.5 -99.5q0 -74 -49.5 -141t-126.5 -110h-148z" />
    <glyph glyph-name="uni0326" unicode="&#x326;" horiz-adv-x="0" 
d="M-760 -446q72 58 111 114q-44 5 -70 33t-26 74q0 62 40 98.5t99 36.5q60 0 96.5 -36t36.5 -99q0 -71 -40 -127.5t-99 -93.5h-148z" />
    <glyph glyph-name="uni0327" unicode="&#x327;" horiz-adv-x="0" 
d="M-608 -82q65 -2 105 -37t40 -102q0 -203 -256 -203q-87 0 -143 25l18 129q42 -25 103 -25q40 0 65 17t25 51q0 25 -15.5 40t-44.5 15q-44 0 -73 -33l-23 15l100 237h160z" />
    <glyph glyph-name="uni0328" unicode="&#x328;" horiz-adv-x="0" 
d="M-528 -424q-103 0 -169.5 45t-66.5 137q0 117 81.5 192t215.5 103l127 -49q-99 -31 -164 -87.5t-65 -123.5q0 -63 75 -63q34 0 66 9.5t45 18.5l-23 -164q-52 -18 -122 -18z" />
    <glyph glyph-name="uni0374" unicode="&#x374;" horiz-adv-x="499" 
d="M41 844l139 483h289l-221 -483h-207z" />
    <glyph glyph-name="uni0375" unicode="&#x375;" horiz-adv-x="499" 
d="M20 -283l140 484h289l-222 -484h-207z" />
    <glyph glyph-name="uni037E" unicode="&#x37e;" horiz-adv-x="569" 
d="M334 627q-70 0 -111 41t-41 108q0 76 52 128t122 52q68 0 111 -42t43 -111q0 -79 -52 -127.5t-124 -48.5zM-8 -293q79 63 133 137t78 140q-61 6 -94 41t-33 94q0 83 54 137.5t136 54.5q78 0 124 -48t46 -136q0 -113 -62.5 -223.5t-187.5 -196.5h-194z" />
    <glyph glyph-name="tonos" unicode="&#x384;" horiz-adv-x="1056" 
d="M260 1065l201 346h321l-266 -346h-256z" />
    <glyph glyph-name="dieresistonos" unicode="&#x385;" horiz-adv-x="1228" 
d="M367 1065l120 346h256l-188 -346h-188zM193 1065q-59 0 -94.5 34.5t-35.5 88.5q0 70 47 115t113 45q59 0 93 -35t34 -90q0 -70 -45 -114t-112 -44zM838 1065q-58 0 -92.5 34.5t-34.5 88.5q0 70 46.5 115t112.5 45q57 0 91 -35t34 -90q0 -70 -45 -114t-112 -44z" />
    <glyph glyph-name="Alphatonos" unicode="&#x386;" horiz-adv-x="1443" 
d="M100 0l803 1348h21l419 -1348h-292l-58 205h-477l-117 -205h-299zM72 981l188 346h287l-256 -346h-219zM635 424h307l-102 367z" />
    <glyph glyph-name="anoteleia" unicode="&#x387;" horiz-adv-x="591" 
d="M287 311q-70 0 -111 41.5t-41 108.5q0 77 51.5 128.5t122.5 51.5q68 0 111 -42.5t43 -111.5q0 -79 -52 -127.5t-124 -48.5z" />
    <glyph glyph-name="Epsilontonos" unicode="&#x388;" horiz-adv-x="1558" 
d="M72 981l188 346h287l-256 -346h-219zM569 0l187 1327h821l-33 -231h-540l-43 -303h382l-32 -232h-383l-45 -328h565l-33 -233h-846z" />
    <glyph glyph-name="Etatonos" unicode="&#x389;" horiz-adv-x="1910" 
d="M72 981l188 346h287l-256 -346h-219zM569 0l187 1327h280l-73 -534h559l75 534h281l-186 -1327h-281l78 557h-561l-78 -557h-281z" />
    <glyph glyph-name="Iotatonos" unicode="&#x38a;" horiz-adv-x="1069" 
d="M72 981l188 346h287l-256 -346h-219zM569 0l187 1327h280l-186 -1327h-281z" />
    <glyph glyph-name="Omicrontonos" unicode="&#x38c;" horiz-adv-x="1886" 
d="M1063 -20q-152 0 -271.5 44.5t-194.5 124t-114 186t-39 234.5q0 55 9 117q42 299 244 480.5t513 181.5q288 0 452.5 -158.5t164.5 -425.5q0 -60 -8 -117q-19 -142 -79.5 -263.5t-155 -211.5t-229 -141t-292.5 -51zM72 981l188 346h287l-256 -346h-219zM1071 238
q187 0 311.5 120t151.5 314q4 31 4 82q0 153 -88.5 245.5t-251.5 92.5q-186 0 -310 -119.5t-151 -308.5q-6 -47 -6 -80q0 -155 87.5 -250.5t252.5 -95.5z" />
    <glyph glyph-name="Upsilontonos" unicode="&#x38e;" horiz-adv-x="1875" 
d="M72 981l188 346h287l-256 -346h-219zM1012 0l75 526l-360 801h301l229 -555l390 555h313l-592 -801l-74 -526h-282z" />
    <glyph glyph-name="Omegatonos" unicode="&#x38f;" horiz-adv-x="1894" 
d="M1835 768q0 -98 -27.5 -191t-96 -187t-171.5 -157h223l-30 -233h-568l33 238q164 79 254 204.5t90 294.5q0 160 -95 257.5t-255 97.5q-203 0 -328 -126t-125 -323q0 -139 62 -243t162 -162l-33 -238h-565l30 233h242q-84 76 -134 184.5t-50 229.5q0 98 28 195t89.5 188.5
t149 162t217 113t282.5 42.5q139 0 256 -46.5t195 -125.5t121.5 -184.5t43.5 -223.5zM260 1327h287l-256 -346h-219z" />
    <glyph glyph-name="iotadieresistonos" unicode="&#x390;" horiz-adv-x="575" 
d="M227 1065l121 346h256l-188 -346h-189zM53 1065q-59 0 -94 34.5t-35 88.5q0 70 47 115t113 45q59 0 93 -35t34 -90q0 -69 -45.5 -113.5t-112.5 -44.5zM698 1065q-58 0 -92.5 34.5t-34.5 88.5q0 70 47 115t113 45q57 0 91 -35t34 -90q0 -69 -45.5 -113.5t-112.5 -44.5z
M92 0l101 711h-117l30 213h388l-129 -924h-273z" />
    <glyph glyph-name="Alpha" unicode="&#x391;" horiz-adv-x="1312" 
d="M-31 0l803 1348h21l419 -1348h-292l-58 205h-477l-117 -205h-299zM504 424h307l-102 367z" />
    <glyph glyph-name="Beta" unicode="&#x392;" horiz-adv-x="1214" 
d="M930 698q192 -56 192 -270q0 -163 -78 -260q-130 -168 -475 -168h-481l186 1327h351q503 0 503 -332q0 -76 -27 -141t-77 -106q-44 -35 -94 -50zM797 842q47 47 47 129q0 40 -19.5 67t-55 40.5t-73.5 18.5t-88 5h-84l-43 -320h88q165 0 228 60zM799 305q37 48 37 115
q0 42 -18 70.5t-53 43t-75.5 20t-97.5 5.5h-143l-46 -330h150q185 0 246 76z" />
    <glyph glyph-name="Gamma" unicode="&#x393;" horiz-adv-x="1024" 
d="M88 0l186 1327h830l-33 -231h-549l-153 -1096h-281z" />
    <glyph glyph-name="uni0394" unicode="&#x394;" horiz-adv-x="1308" 
d="M788 1348l422 -1348h-1243l801 1348h20zM858 233l-151 558l-308 -558h459z" />
    <glyph glyph-name="Epsilon" unicode="&#x395;" horiz-adv-x="1077" 
d="M88 0l186 1327h822l-33 -231h-541l-43 -303h383l-33 -232h-383l-45 -328h566l-33 -233h-846z" />
    <glyph glyph-name="Zeta" unicode="&#x396;" horiz-adv-x="1222" 
d="M2 0l4 20l766 1076h-571l32 231h1029l-5 -20l-761 -1074h608l-33 -233h-1069z" />
    <glyph glyph-name="Eta" unicode="&#x397;" horiz-adv-x="1429" 
d="M88 0l186 1327h281l-74 -534h559l76 534h281l-187 -1327h-280l78 557h-562l-77 -557h-281z" />
    <glyph glyph-name="Theta" unicode="&#x398;" horiz-adv-x="1562" 
d="M737 -20q-152 0 -271.5 44.5t-194.5 124t-113.5 186t-38.5 234.5q0 62 8 117q42 299 244.5 480.5t513.5 181.5q287 0 451.5 -158.5t164.5 -425.5q0 -60 -8 -117q-19 -142 -79.5 -263.5t-155 -211.5t-229 -141t-292.5 -51zM745 238q187 0 311.5 120t151.5 314q4 31 4 82
q0 153 -88.5 245.5t-251.5 92.5q-186 0 -309.5 -119.5t-150.5 -308.5q-6 -46 -6 -80q0 -155 87 -250.5t252 -95.5zM551 557l35 236h481l-33 -236h-483z" />
    <glyph glyph-name="Iota" unicode="&#x399;" horiz-adv-x="587" 
d="M88 0l186 1327h281l-186 -1327h-281z" />
    <glyph glyph-name="Kappa" unicode="&#x39a;" horiz-adv-x="1390" 
d="M88 0l186 1327h281l-88 -633l637 633h366l-673 -665l497 -662h-368l-465 647l-92 -647h-281z" />
    <glyph glyph-name="Lambda" unicode="&#x39b;" horiz-adv-x="1292" 
d="M1192 0h-293l-203 786l-428 -786h-299l793 1348h20z" />
    <glyph glyph-name="Mu" unicode="&#x39c;" horiz-adv-x="1757" 
d="M807 -20l-281 661l-198 -641h-287l451 1348h20l369 -865l610 865h20l74 -1348h-274l-23 641l-461 -661h-20z" />
    <glyph glyph-name="Nu" unicode="&#x39d;" horiz-adv-x="1445" 
d="M1206 -20l-735 792l-109 -772h-274l191 1348h20l733 -791l109 770h274l-188 -1347h-21z" />
    <glyph glyph-name="Xi" unicode="&#x39e;" horiz-adv-x="1150" 
d="M199 1096l32 231h934l-35 -231h-931zM236 561l32 230h709l-33 -230h-708zM33 0l35 233h952l-33 -233h-954z" />
    <glyph glyph-name="Omicron" unicode="&#x39f;" horiz-adv-x="1562" 
d="M737 -20q-152 0 -271.5 44.5t-194.5 124t-113.5 186t-38.5 234.5q0 62 8 117q42 299 244.5 480.5t513.5 181.5q287 0 451.5 -158.5t164.5 -425.5q0 -60 -8 -117q-19 -142 -79.5 -263.5t-155 -211.5t-229 -141t-292.5 -51zM745 238q187 0 311.5 120t151.5 314q4 31 4 82
q0 153 -88.5 245.5t-251.5 92.5q-186 0 -309.5 -119.5t-150.5 -308.5q-6 -46 -6 -80q0 -155 87 -250.5t252 -95.5z" />
    <glyph glyph-name="Pi" unicode="&#x3a0;" horiz-adv-x="1409" 
d="M274 1327h1104l-186 -1327h-283l154 1096h-541l-153 -1096h-281z" />
    <glyph glyph-name="Rho" unicode="&#x3a1;" horiz-adv-x="1200" 
d="M88 0l186 1327h334q71 0 122.5 -2.5t116.5 -11t111 -24.5t93.5 -45.5t76.5 -70t47.5 -101.5t18.5 -138q0 -52 -6 -96q-12 -84 -44 -149.5t-70.5 -108t-98.5 -72.5t-108.5 -44.5t-121.5 -22.5t-116 -9.5t-113 -1.5h-86l-61 -430h-281zM461 657h69q45 0 73.5 1t69 5
t66.5 12.5t56 23.5t49.5 37.5t35.5 55.5t23 76q4 24 4 54q0 49 -15.5 82.5t-39.5 52.5t-67.5 29.5t-84.5 13t-106 2.5h-70z" />
    <glyph glyph-name="Sigma" unicode="&#x3a3;" horiz-adv-x="1191" 
d="M1155 1327l-33 -231h-530l250 -426l-369 -437h549l-35 -233h-1020l2 20l557 662l-368 625l4 20h993z" />
    <glyph glyph-name="Tau" unicode="&#x3a4;" horiz-adv-x="1150" 
d="M371 0l153 1096h-362l33 231h1003l-33 -231h-358l-154 -1096h-282z" />
    <glyph glyph-name="Upsilon" unicode="&#x3a5;" horiz-adv-x="1302" 
d="M440 0l76 526l-360 801h301l229 -555l389 555h314l-592 -801l-74 -526h-283z" />
    <glyph glyph-name="Phi" unicode="&#x3a6;" horiz-adv-x="1738" 
d="M1673 719q0 -187 -90.5 -329t-253 -220.5t-375.5 -85.5l-18 -141h-274l18 143q-249 19 -404 158.5t-155 359.5q0 185 92 328.5t256 223.5t375 87l18 141h275l-21 -143q253 -19 405 -161t152 -361zM408 625q0 -132 86.5 -209t222.5 -90l94 678q-178 -15 -290.5 -116
t-112.5 -263zM985 324q183 14 293.5 112t110.5 260q0 129 -85 210t-223 95z" />
    <glyph glyph-name="Chi" unicode="&#x3a7;" horiz-adv-x="1343" 
d="M-31 0l561 676l-356 651h324l231 -455l354 455h338l-542 -651l364 -676h-323l-240 475l-371 -475h-340z" />
    <glyph glyph-name="Psi" unicode="&#x3a8;" horiz-adv-x="1779" 
d="M1460 1327h283l-41 -289q-44 -300 -212.5 -454t-465.5 -166l-59 -418h-281l59 420q-250 10 -382 131t-132 330q0 70 15 184l37 262h282l-39 -270q-10 -72 -10 -152q0 -119 67.5 -176t196.5 -63l92 661h283l-94 -661q158 8 245 95t117 283z" />
    <glyph glyph-name="uni03A9" unicode="&#x3a9;" horiz-adv-x="1568" 
d="M1509 768q0 -98 -27.5 -191t-96 -187t-171.5 -157h224l-31 -233h-567l32 238q165 79 255 204.5t90 294.5q0 159 -95.5 257t-255.5 98q-203 0 -327.5 -126t-124.5 -323q0 -139 61.5 -243t161.5 -162l-33 -238h-565l31 233h241q-84 76 -134 184.5t-50 229.5q0 98 28 195
t89.5 188.5t149 162t217 113t282.5 42.5q139 0 256 -46.5t195 -125.5t121.5 -184.5t43.5 -223.5z" />
    <glyph glyph-name="Iotadieresis" unicode="&#x3aa;" horiz-adv-x="587" 
d="M225 1464q-69 0 -110 41t-41 107q0 73 50 122.5t122 49.5q67 0 108 -42.5t41 -107.5q0 -74 -48.5 -122t-121.5 -48zM672 1464q-68 0 -110 41.5t-42 106.5q0 73 50 122.5t122 49.5q67 0 108.5 -42.5t41.5 -107.5q0 -74 -48.5 -122t-121.5 -48zM88 0l186 1327h281
l-186 -1327h-281z" />
    <glyph glyph-name="Upsilondieresis" unicode="&#x3ab;" horiz-adv-x="1302" 
d="M578 1464q-70 0 -111 41t-41 107q0 73 50 122.5t122 49.5q67 0 108.5 -42.5t41.5 -107.5q0 -74 -48.5 -122t-121.5 -48zM1024 1464q-68 0 -110 41.5t-42 106.5q0 73 50 122.5t122 49.5q67 0 108.5 -42.5t41.5 -107.5q0 -74 -48.5 -122t-121.5 -48zM440 0l76 526l-360 801
h301l229 -555l389 555h314l-592 -801l-74 -526h-283z" />
    <glyph glyph-name="alphatonos" unicode="&#x3ac;" horiz-adv-x="1208" 
d="M530 1065l201 346h322l-267 -346h-256zM479 -18q-189 0 -299 112t-110 307q0 45 6 91q33 215 171 332.5t341 117.5q101 0 171.5 -35t106.5 -94l25 111h248l-127 -924h-250l8 94q-105 -112 -291 -112zM549 211q119 0 192.5 88t73.5 211q0 105 -55 155t-137 50
q-120 0 -196.5 -88t-76.5 -213q0 -95 54 -149t145 -54z" />
    <glyph glyph-name="epsilontonos" unicode="&#x3ad;" horiz-adv-x="933" 
d="M956 1411l-266 -346h-256l201 346h321zM143 664q0 56 24 104t73.5 88t135 63t197.5 23q178 0 299 -57l-26 -213q-117 69 -252 69q-174 0 -174 -98q0 -86 160 -86h102l-25 -188h-104q-205 0 -205 -101q0 -84 162 -84q158 0 295 72l-25 -221q-120 -53 -340 -53
q-174 0 -277.5 62t-103.5 183q0 89 60.5 156t163.5 90q-61 19 -100.5 71t-39.5 120z" />
    <glyph glyph-name="etatonos" unicode="&#x3ae;" horiz-adv-x="1120" 
d="M469 1065l250 346h321l-315 -346h-256zM70 0l129 924h247l-8 -103q100 121 283 121q145 0 222 -71t77 -214q0 -45 -10 -133l-131 -930h-273l127 904q8 49 8 88q0 131 -129 131q-44 0 -78 -15.5t-55.5 -39.5t-37 -64t-24 -78.5t-16.5 -93.5l-59 -426h-272z" />
    <glyph glyph-name="iotatonos" unicode="&#x3af;" horiz-adv-x="575" 
d="M217 1065l201 346h321l-266 -346h-256zM92 0l101 711h-117l30 213h388l-129 -924h-273z" />
    <glyph glyph-name="upsilondieresistonos" unicode="&#x3b0;" horiz-adv-x="1064" 
d="M477 1065l121 346h256l-188 -346h-189zM303 1065q-59 0 -94 34.5t-35 88.5q0 70 47 115t113 45q59 0 93 -35t34 -90q0 -69 -45.5 -113.5t-112.5 -44.5zM948 1065q-58 0 -92.5 34.5t-34.5 88.5q0 70 47 115t113 45q57 0 91 -35t34 -90q0 -69 -45.5 -113.5t-112.5 -44.5z
M481 -18q-197 0 -287 91t-90 236q0 37 15 144l65 471h273l-74 -529q-8 -62 -8 -84q0 -106 119 -106q76 0 118.5 44t55.5 140l75 535h269l-76 -529q-9 -70 -26 -126t-51 -111.5t-82.5 -92.5t-124 -60t-171.5 -23z" />
    <glyph glyph-name="alpha" unicode="&#x3b1;" horiz-adv-x="1208" 
d="M479 -18q-189 0 -299 112t-110 307q0 45 6 91q33 215 171 332.5t341 117.5q101 0 171.5 -35t106.5 -94l25 111h248l-127 -924h-250l8 94q-105 -112 -291 -112zM549 211q119 0 192.5 88t73.5 211q0 105 -55 155t-137 50q-120 0 -196.5 -88t-76.5 -213q0 -95 54 -149
t145 -54z" />
    <glyph glyph-name="beta" unicode="&#x3b2;" horiz-adv-x="1155" 
d="M1104 979q-14 -105 -77.5 -172.5t-156.5 -93.5q93 -31 152 -108.5t59 -186.5q0 -24 -4 -60q-11 -98 -52.5 -172t-104 -117.5t-134.5 -65t-153 -21.5q-194 0 -283 92l-67 -480h-273l191 1358q33 226 152.5 332.5t351.5 106.5q182 0 292.5 -91.5t110.5 -248.5q0 -26 -4 -72
zM805 373q2 14 2 43q0 93 -59 131.5t-164 38.5h-49l30 209h43q101 0 153 44t66 136q4 32 4 49q0 72 -41 113t-110 41q-176 0 -205 -220l-65 -464q-9 -55 -9 -115q0 -92 53 -138t148 -46q83 0 136.5 44.5t66.5 133.5z" />
    <glyph glyph-name="gamma" unicode="&#x3b3;" horiz-adv-x="1054" 
d="M1112 924l-491 -779l-78 -553h-273l78 555l-272 777h299l141 -527l305 527h291z" />
    <glyph glyph-name="delta" unicode="&#x3b4;" horiz-adv-x="1167" 
d="M823 895q93 -45 153 -101.5t90 -138t21 -184.5q-15 -217 -167 -353t-396 -136q-220 0 -340.5 121.5t-105.5 314.5q11 157 105 272.5t249 159.5q-135 85 -123 233q5 64 35 118t85.5 97.5t147 68t209.5 24.5q84 0 168.5 -19.5t141.5 -48.5l-31 -233q-140 75 -287 75
q-183 0 -188 -98q-3 -39 26.5 -64.5t118.5 -66.5zM805 461q8 97 -43 157t-146 60q-115 0 -183 -76t-73 -176q-6 -95 45 -155t150 -60q109 0 176.5 72t73.5 178z" />
    <glyph glyph-name="epsilon" unicode="&#x3b5;" horiz-adv-x="933" 
d="M594 741q-174 0 -174 -98q0 -86 160 -86h102l-25 -188h-104q-205 0 -205 -101q0 -84 162 -84q158 0 295 72l-25 -221q-120 -53 -340 -53q-174 0 -277.5 62t-103.5 183q0 89 60.5 156t163.5 90q-61 19 -100.5 71t-39.5 120q0 56 24 104t73.5 88t135 63t197.5 23
q178 0 299 -57l-26 -213q-117 69 -252 69z" />
    <glyph glyph-name="zeta" unicode="&#x3b6;" horiz-adv-x="876" 
d="M985 1337l-205 -229q-226 -253 -329 -424t-103 -305q0 -75 45 -113.5t158 -68.5q123 -33 177 -80.5t54 -124.5q0 -129 -135 -273h-237q88 98 88 166q0 41 -33.5 66t-130.5 49q-138 36 -208.5 108t-70.5 207q0 155 99.5 334t355.5 451l43 45h-377l29 213h782z" />
    <glyph glyph-name="eta" unicode="&#x3b7;" horiz-adv-x="1120" 
d="M70 0l129 924h247l-8 -103q100 121 283 121q145 0 222 -71t77 -214q0 -45 -10 -133l-131 -930h-273l127 904q8 49 8 88q0 131 -129 131q-44 0 -78 -15.5t-55.5 -39.5t-37 -64t-24 -78.5t-16.5 -93.5l-59 -426h-272z" />
    <glyph glyph-name="theta" unicode="&#x3b8;" horiz-adv-x="1236" 
d="M739 1391q118 0 206.5 -37.5t141 -106t78 -157.5t25.5 -199q0 -118 -19 -238q-23 -154 -68.5 -274.5t-118 -210t-177 -137.5t-236.5 -49q-224 -1 -342 136t-118 363q0 115 18 244q41 312 193.5 489t416.5 177zM719 1165q-232 0 -301 -372h491q4 66 4 86q0 286 -194 286z
M588 209q222 0 293 371h-492q-4 -66 -4 -88q0 -134 49.5 -208.5t153.5 -74.5z" />
    <glyph glyph-name="iota" unicode="&#x3b9;" horiz-adv-x="575" 
d="M92 0l101 711h-117l30 213h388l-129 -924h-273z" />
    <glyph glyph-name="kappa" unicode="&#x3ba;" horiz-adv-x="1107" 
d="M1149 924l-432 -457l313 -467h-330l-284 451l-64 -451h-272l129 924h272l-59 -428l389 428h338z" />
    <glyph glyph-name="lambda" unicode="&#x3bb;" horiz-adv-x="1099" 
d="M973 201q31 0 55 8l-29 -201q-58 -20 -127 -20q-111 0 -163 52.5t-84 186.5l-84 353l-318 -580h-284l520 915l-31 134q-15 61 -36 84.5t-58 23.5q-36 0 -66 -10l29 201q68 22 145 22q111 0 164 -50.5t84 -180.5l197 -828q15 -62 33.5 -86t52.5 -24z" />
    <glyph glyph-name="uni03BC" unicode="&#x3bc;" horiz-adv-x="1122" 
d="M782 924h273l-131 -924h-248l10 102q-37 -58 -92.5 -89t-112.5 -31q-91 0 -141 47l-61 -435h-269l189 1330h272l-70 -498q-8 -62 -8 -107q0 -114 125 -114q42 0 73.5 14.5t52.5 37.5t36.5 62.5t24.5 79.5t18 99z" />
    <glyph glyph-name="nu" unicode="&#x3bd;" horiz-adv-x="1044" 
d="M446 -18l-370 942h289l151 -471l281 471h303l-633 -942h-21z" />
    <glyph glyph-name="xi" unicode="&#x3be;" horiz-adv-x="909" 
d="M725 1167q-105 0 -163.5 -44t-69.5 -122q-3 -21 -3 -32q0 -76 51.5 -118t145.5 -42h90l-31 -213h-116q-246 0 -269 -178q-2 -14 -2 -35q0 -68 46 -109.5t163 -74.5q131 -37 186.5 -83.5t55.5 -123.5q0 -129 -135 -273h-238q90 101 90 164q0 41 -32 66.5t-127 50.5
q-299 82 -299 332q0 30 6 71q19 122 102 205t205 107q-77 31 -124.5 101t-47.5 157q0 25 4 57q12 92 57.5 163t115 113.5t154.5 63.5t183 21q168 0 278 -56l-32 -227q-103 59 -244 59z" />
    <glyph glyph-name="omicron" unicode="&#x3bf;" horiz-adv-x="1173" 
d="M535 -18q-222 0 -343.5 117.5t-121.5 308.5q0 38 6 81q30 204 181.5 328.5t381.5 124.5q215 0 341 -111.5t126 -308.5q0 -40 -6 -84q-30 -214 -183.5 -335t-381.5 -121zM547 211q124 0 200 88t76 213q0 95 -52 149t-144 54q-122 0 -198.5 -91t-76.5 -216
q0 -90 52.5 -143.5t142.5 -53.5z" />
    <glyph glyph-name="pi" unicode="&#x3c0;" horiz-adv-x="1251" 
d="M1239 924l-31 -213h-129l-100 -711h-272l100 711h-291l-102 -711h-273l101 711h-131l30 213h1098z" />
    <glyph glyph-name="rho" unicode="&#x3c1;" horiz-adv-x="1179" 
d="M-18 -406l120 869q34 245 177.5 362t375.5 117q107 0 194.5 -34t144.5 -92.5t87.5 -135t30.5 -162.5q0 -44 -6 -88q-21 -147 -96 -250.5t-177 -150.5t-221 -47q-91 0 -167 28t-123 76l-68 -492h-272zM567 211q117 0 188.5 81.5t71.5 203.5q0 99 -55.5 159t-148.5 60
q-109 0 -180.5 -66t-84.5 -186q-2 -20 -2 -43q0 -95 58 -152t153 -57z" />
    <glyph glyph-name="uni03C2" unicode="&#x3c2;" horiz-adv-x="913" 
d="M395 -281q88 99 88 164q0 38 -27.5 61.5t-105.5 49.5q-291 95 -291 383q0 45 9 100q33 224 184.5 344.5t382.5 120.5q149 0 246 -51l-33 -229q-93 55 -207 55q-119 0 -199 -65.5t-92 -190.5q-2 -23 -2 -47q0 -91 45.5 -139t151.5 -80q121 -37 172 -83t51 -122
q0 -126 -135 -271h-238z" />
    <glyph glyph-name="sigma" unicode="&#x3c3;" horiz-adv-x="1183" 
d="M1200 924l-29 -213h-204q104 -90 104 -244q0 -32 -6 -72q-22 -191 -166.5 -302t-368.5 -111q-206 0 -334 116t-128 303q0 23 6 72q26 216 182.5 333.5t419.5 117.5h524zM549 211q111 0 180.5 75t69.5 197q0 98 -52.5 154.5t-142.5 56.5q-105 0 -172.5 -61t-79.5 -170
q-2 -20 -2 -41q0 -97 55 -154t144 -57z" />
    <glyph glyph-name="tau" unicode="&#x3c4;" horiz-adv-x="884" 
d="M612 711l-53 -396q-6 -38 -6 -61q0 -53 68 -53q38 0 59 6l-29 -199q-58 -20 -133 -20q-124 0 -184 54.5t-60 145.5q0 48 13 136l53 387h-242l29 213h760l-31 -213h-244z" />
    <glyph glyph-name="upsilon" unicode="&#x3c5;" horiz-adv-x="1064" 
d="M481 -18q-197 0 -287 91t-90 236q0 37 15 144l65 471h273l-74 -529q-8 -62 -8 -84q0 -106 119 -106q76 0 118.5 44t55.5 140l75 535h269l-76 -529q-9 -70 -26 -126t-51 -111.5t-82.5 -92.5t-124 -60t-171.5 -23z" />
    <glyph glyph-name="phi" unicode="&#x3c6;" horiz-adv-x="1445" 
d="M1374 504q0 -69 -16.5 -135.5t-59.5 -136t-107 -122t-168.5 -88t-236.5 -40.5l-55 -388h-264l55 390q-204 15 -328 137t-124 297q0 71 18.5 139.5t63 136.5t109.5 120.5t167 87.5t227 40l60 416h264l-59 -416q212 -12 333 -131.5t121 -306.5zM813 199q78 5 137 33.5
t91 72t47.5 89.5t15.5 95q0 102 -57.5 166.5t-157.5 71.5zM340 434q0 -98 58 -159.5t155 -73.5l76 526q-135 -9 -212 -90t-77 -203z" />
    <glyph glyph-name="chi" unicode="&#x3c7;" horiz-adv-x="1118" 
d="M862 -100q26 -63 47 -86t52 -23t49 6l-27 -198q-57 -21 -125 -21q-69 0 -114 23t-77.5 70.5t-70.5 138.5l-88 223l-279 -439h-319l496 695l-136 338q-26 60 -48 80t-58 20q-32 0 -60 -8l29 199q61 22 146 22q73 0 117 -22t69.5 -62t60.5 -125l84 -207l264 400h320
l-485 -643z" />
    <glyph glyph-name="psi" unicode="&#x3c8;" horiz-adv-x="1482" 
d="M1155 924h272l-65 -467q-16 -112 -52.5 -196t-101 -147t-164.5 -96.5t-235 -35.5l-55 -392h-271l56 392q-213 3 -318.5 102t-105.5 268q0 68 10 142l59 430h273l-62 -432q-8 -71 -8 -117q0 -77 46.5 -121.5t135.5 -48.5l103 719h270l-102 -719q215 12 254 287z" />
    <glyph glyph-name="omega" unicode="&#x3c9;" horiz-adv-x="1511" 
d="M1337 924q105 -169 105 -394q0 -59 -8 -114q-29 -200 -143.5 -317t-272.5 -117q-235 0 -287 204q-106 -204 -348 -204q-144 0 -232 97t-88 261q0 31 7 96q17 151 82.5 276t154.5 212h277q-87 -87 -147 -210t-79 -257q-6 -46 -6 -80q0 -168 119 -168q141 0 184 317l17 119
h223l-16 -119q-13 -86 -13 -139q0 -178 125 -178q68 0 110.5 65.5t57.5 184.5q6 47 6 100q0 102 -28 198t-78 167h278z" />
    <glyph glyph-name="iotadieresis" unicode="&#x3ca;" horiz-adv-x="561" 
d="M184 1065q-63 0 -98 37t-35 96q0 72 49 119t119 47q58 0 94.5 -38.5t36.5 -96.5q0 -75 -47 -119.5t-119 -44.5zM561 1065q-63 0 -98 37t-35 96q0 72 48.5 119t117.5 47q59 0 96 -38.5t37 -96.5q0 -75 -47 -119.5t-119 -44.5zM92 0l101 711h-117l30 213h388l-129 -924
h-273z" />
    <glyph glyph-name="upsilondieresis" unicode="&#x3cb;" horiz-adv-x="1064" 
d="M401 1065q-62 0 -98.5 36.5t-36.5 94.5q0 72 49.5 120t118.5 48q59 0 96 -37.5t37 -93.5q0 -76 -47.5 -122t-118.5 -46zM846 1065q-63 0 -99 36.5t-36 94.5q0 72 49.5 120t118.5 48q59 0 95 -37t36 -94q0 -76 -46.5 -122t-117.5 -46zM481 -18q-197 0 -287 91t-90 236
q0 37 15 144l65 471h273l-74 -529q-8 -62 -8 -84q0 -106 119 -106q76 0 118.5 44t55.5 140l75 535h269l-76 -529q-9 -70 -26 -126t-51 -111.5t-82.5 -92.5t-124 -60t-171.5 -23z" />
    <glyph glyph-name="omicrontonos" unicode="&#x3cc;" horiz-adv-x="1173" 
d="M528 1065l201 346h322l-267 -346h-256zM535 -18q-222 0 -343.5 117.5t-121.5 308.5q0 38 6 81q30 204 181.5 328.5t381.5 124.5q215 0 341 -111.5t126 -308.5q0 -40 -6 -84q-30 -214 -183.5 -335t-381.5 -121zM547 211q124 0 200 88t76 213q0 95 -52 149t-144 54
q-122 0 -198.5 -91t-76.5 -216q0 -90 52.5 -143.5t142.5 -53.5z" />
    <glyph glyph-name="upsilontonos" unicode="&#x3cd;" horiz-adv-x="1064" 
d="M477 1065l201 346h321l-266 -346h-256zM481 -18q-197 0 -287 91t-90 236q0 37 15 144l65 471h273l-74 -529q-8 -62 -8 -84q0 -106 119 -106q76 0 118.5 44t55.5 140l75 535h269l-76 -529q-9 -70 -26 -126t-51 -111.5t-82.5 -92.5t-124 -60t-171.5 -23z" />
    <glyph glyph-name="omegatonos" unicode="&#x3ce;" horiz-adv-x="1511" 
d="M1219 1411l-267 -346h-256l201 346h322zM1337 924q105 -169 105 -394q0 -59 -8 -114q-29 -200 -143.5 -317t-272.5 -117q-235 0 -287 204q-106 -204 -348 -204q-144 0 -232 97t-88 261q0 31 7 96q17 151 82.5 276t154.5 212h277q-87 -87 -147 -210t-79 -257
q-6 -46 -6 -80q0 -168 119 -168q141 0 184 317l17 119h223l-16 -119q-13 -86 -13 -139q0 -178 125 -178q68 0 110.5 65.5t57.5 184.5q6 47 6 100q0 102 -28 198t-78 167h278z" />
    <glyph glyph-name="beta.ss02" unicode="&#x3d0;" horiz-adv-x="1126" 
d="M815 721q105 -26 164 -109.5t59 -193.5q0 -57 -13.5 -112.5t-50 -115.5t-92 -105t-148 -74t-210.5 -29q-208 0 -318 89.5t-110 268.5q0 75 13 174l57 399q37 258 153.5 368t356.5 110q181 0 286 -93t105 -241q0 -129 -67.5 -218.5t-184.5 -117.5zM645 1178
q-90 0 -139 -58t-68 -192l-18 -131h106q75 0 126.5 18.5t78.5 52.5t38 72.5t11 87.5q0 70 -36 110t-99 40zM547 195q107 0 158 61t51 154q0 90 -52.5 134t-162.5 44h-150l-16 -111q-8 -57 -8 -119q0 -82 47.5 -122.5t132.5 -40.5z" />
    <glyph glyph-name="theta.ss02" unicode="&#x3d1;" horiz-adv-x="1220" 
d="M782 1391q106 0 188.5 -38.5t133 -107t76.5 -158t26 -196.5q0 -82 -14 -201q-16 -125 -42 -225.5t-73 -193t-112 -154.5t-160 -98.5t-215 -36.5q-191 0 -307.5 88.5t-116.5 244.5q0 16 1 34t2.5 40t2.5 35q4 36 4 51q0 21 -11.5 31t-43.5 10q-34 0 -58 -8l27 201
q77 22 170 22q104 0 151.5 -40.5t47.5 -119.5q0 -7 -6 -100q-9 -88 -9 -115q0 -71 47 -109t127 -38q136 0 208.5 122t99.5 363q0 11 2 17q-98 -39 -217 -39q-176 0 -279.5 96t-103.5 242q0 166 120.5 273.5t333.5 107.5zM764 887q94 0 176 31v14q0 235 -180 235
q-74 0 -118 -40t-44 -107q0 -63 44.5 -98t121.5 -35z" />
    <glyph glyph-name="phi.ss02" unicode="&#x3d5;" horiz-adv-x="1468" 
d="M864 934q254 0 394.5 -114.5t140.5 -313.5q0 -34 -6 -80q-27 -207 -187.5 -321.5t-396.5 -122.5l-55 -390h-267l56 390q-209 7 -339 129.5t-130 306.5q0 49 4 84q33 243 201 422h276q-174 -196 -197 -422q-4 -29 -4 -51q0 -110 59.5 -175t159.5 -73l103 731h188z
M1118 453q4 36 4 47q0 99 -54.5 156.5t-156.5 58.5l-71 -512q118 8 192 73t86 177z" />
    <glyph glyph-name="uni0401" unicode="&#x401;" horiz-adv-x="1077" 
d="M498 1464q-70 0 -111 41t-41 107q0 73 50 122.5t122 49.5q67 0 108.5 -42.5t41.5 -107.5q0 -74 -48.5 -122t-121.5 -48zM944 1464q-68 0 -109.5 41.5t-41.5 106.5q0 73 50 122.5t122 49.5q67 0 108 -42.5t41 -107.5q0 -74 -48.5 -122t-121.5 -48zM88 0l186 1327h822
l-33 -231h-541l-43 -303h383l-33 -232h-383l-45 -328h566l-33 -233h-846z" />
    <glyph glyph-name="uni0402" unicode="&#x402;" horiz-adv-x="1656" 
d="M1122 887q191 0 310.5 -114.5t119.5 -297.5q0 -104 -27 -190t-84 -157t-157.5 -111t-236.5 -40q-81 0 -132 15l33 233q38 -12 90 -12q115 0 171.5 67t56.5 173q0 87 -59.5 139.5t-166.5 52.5q-161 0 -240 -82.5t-104 -245.5l-45 -317h-280l153 1096h-362l33 231h1085
l-33 -231h-442l-43 -318q142 109 360 109z" />
    <glyph glyph-name="uni0403" unicode="&#x403;" horiz-adv-x="1024" 
d="M586 1448l297 346h364l-385 -346h-276zM88 0l186 1327h830l-33 -231h-549l-153 -1096h-281z" />
    <glyph glyph-name="uni0404" unicode="&#x404;" horiz-adv-x="1318" 
d="M893 1100q-176 0 -295.5 -80.5t-163.5 -235.5h545l-31 -223h-545q0 -167 102 -249.5t283 -82.5q116 0 218.5 30.5t175.5 74.5l-37 -273q-145 -81 -402 -81q-148 0 -266.5 44t-196 123t-118.5 186.5t-41 235.5q0 67 10 152q44 303 248.5 465t523.5 162q230 0 387 -86
l-37 -263q-164 101 -360 101z" />
    <glyph glyph-name="uni0405" unicode="&#x405;" horiz-adv-x="1024" 
d="M430 -20q-229 0 -367 83l37 261q63 -45 147 -75t175 -30q109 0 163 44.5t54 125.5q0 40 -24.5 72.5t-64 56t-87 47t-95 54.5t-87 70t-64 101t-24.5 140q0 200 126.5 309t346.5 109q100 0 189.5 -21.5t131.5 -48.5l-39 -258q-54 39 -130.5 64.5t-147.5 25.5
q-92 0 -141.5 -45.5t-49.5 -110.5q0 -43 25 -77t64.5 -57.5t87.5 -47t95.5 -53.5t87 -68.5t64.5 -101t25 -141.5q0 -208 -135 -318t-363 -110z" />
    <glyph glyph-name="uni0406" unicode="&#x406;" horiz-adv-x="587" 
d="M88 0l186 1327h281l-186 -1327h-281z" />
    <glyph glyph-name="uni0407" unicode="&#x407;" horiz-adv-x="587" 
d="M225 1464q-69 0 -110 41t-41 107q0 73 50 122.5t122 49.5q67 0 108 -42.5t41 -107.5q0 -74 -48.5 -122t-121.5 -48zM672 1464q-68 0 -110 41.5t-42 106.5q0 73 50 122.5t122 49.5q67 0 108.5 -42.5t41.5 -107.5q0 -74 -48.5 -122t-121.5 -48zM88 0l186 1327h281
l-186 -1327h-281z" />
    <glyph glyph-name="uni0408" unicode="&#x408;" horiz-adv-x="962" 
d="M313 -20q-178 0 -272 51l33 241q32 -21 89 -35t116 -14q123 0 184 66t84 233l82 576h-307l34 229h584l-123 -876q-16 -114 -50 -198t-92.5 -147t-149 -94.5t-212.5 -31.5z" />
    <glyph glyph-name="uni0409" unicode="&#x409;" horiz-adv-x="2048" 
d="M1497 897q86 0 156 -11.5t132 -39.5t104 -72t66.5 -112t24.5 -156q0 -54 -6 -103q-8 -64 -27.5 -117.5t-44.5 -92.5t-62 -70t-71 -51t-82.5 -34t-85 -21.5t-89.5 -11.5t-86 -4.5t-83 -0.5h-411l153 1096h-411l-31 -213q-18 -126 -31 -207.5t-32 -178t-38.5 -156
t-47.5 -124.5t-62 -102t-78.5 -69.5t-100 -46t-124.5 -13.5q-88 0 -152 22l37 254q32 -14 84 -14q41 0 72.5 15t57.5 51t45.5 83t38 124.5t33 161.5t32.5 206l63 438h961l-60 -430h156zM1686 432q2 18 2 57q0 105 -59.5 143t-180.5 38h-139l-64 -445h111q45 0 77.5 2.5t71 9
t66 21t53 36.5t41 57t21.5 81z" />
    <glyph glyph-name="uni040A" unicode="&#x40a;" horiz-adv-x="2043" 
d="M1495 897q86 0 156 -11.5t132 -39.5t104 -72t66.5 -112t24.5 -156q0 -54 -6 -103q-8 -64 -27.5 -117.5t-44.5 -92.5t-62 -70t-71 -51t-82.5 -34t-85 -21.5t-89.5 -11.5t-86 -4.5t-83 -0.5h-411l78 557h-562l-77 -557h-281l186 1327h281l-76 -534h561l76 534h281l-60 -430
h158zM1683 432q3 27 3 57q0 105 -60 143t-180 38h-139l-64 -445h109q38 0 67 1.5t63 6.5t59 13.5t50.5 24t43 37t30.5 53t18 71.5z" />
    <glyph glyph-name="uni040B" unicode="&#x40b;" horiz-adv-x="1638" 
d="M1141 887q179 0 282 -91t103 -264q0 -89 -17 -208l-47 -324h-282l43 295q12 83 12 160q0 182 -213 182q-155 0 -229.5 -78.5t-98.5 -251.5l-43 -307h-280l153 1096h-362l33 231h1085l-33 -231h-442l-45 -322q138 113 381 113z" />
    <glyph glyph-name="uni040C" unicode="&#x40c;" horiz-adv-x="1390" 
d="M598 1448l297 346h365l-386 -346h-276zM88 0l186 1327h281l-88 -633l637 633h366l-673 -665l497 -662h-368l-465 647l-92 -647h-281z" />
    <glyph glyph-name="uni040D" unicode="&#x40d;" horiz-adv-x="1421" 
d="M1092 1448h-263l-290 346h352zM1374 1348h21l-191 -1348h-274l104 748l-928 -768h-20l190 1347h275l-107 -747z" />
    <glyph glyph-name="uni040E" unicode="&#x40e;" horiz-adv-x="1310" 
d="M795 1409q-96 0 -164 25t-104 70.5t-48 104.5t-2 132l6 33h222q-26 -183 114 -183q145 0 168 183h221l-4 -33q-22 -150 -124 -241t-285 -91zM1106 1327h295l-819 -1327h-285l256 422l-397 905h311l256 -627z" />
    <glyph glyph-name="uni040F" unicode="&#x40f;" horiz-adv-x="1402" 
d="M1370 1327l-186 -1327h-418l-39 -281h-262l41 281h-418l186 1327h281l-154 -1094h533l156 1094h280z" />
    <glyph glyph-name="uni0410" unicode="&#x410;" horiz-adv-x="1312" 
d="M-31 0l803 1348h21l419 -1348h-292l-58 205h-477l-117 -205h-299zM504 424h307l-102 367z" />
    <glyph glyph-name="uni0411" unicode="&#x411;" horiz-adv-x="1208" 
d="M1133 1096h-611l-39 -273h86q82 0 145.5 -5t131 -18.5t116 -39.5t88.5 -66t60 -101t20 -140q0 -45 -6 -86q-12 -76 -42.5 -135t-65.5 -97.5t-92.5 -65t-102 -40t-117.5 -20.5t-115 -8t-116 -1h-385l186 1327h891zM557 596h-104l-54 -371h88h61t55 1.5t52.5 4.5t45 8.5
t42 14t33.5 21t29.5 29t20 38.5t14.5 49q4 24 4 45q0 99 -64 129.5t-223 30.5z" />
    <glyph glyph-name="uni0412" unicode="&#x412;" horiz-adv-x="1214" 
d="M930 698q192 -56 192 -270q0 -163 -78 -260q-130 -168 -475 -168h-481l186 1327h351q503 0 503 -332q0 -76 -27 -141t-77 -106q-44 -35 -94 -50zM797 842q47 47 47 129q0 40 -19.5 67t-55 40.5t-73.5 18.5t-88 5h-84l-43 -320h88q165 0 228 60zM799 305q37 48 37 115
q0 42 -18 70.5t-53 43t-75.5 20t-97.5 5.5h-143l-46 -330h150q185 0 246 76z" />
    <glyph glyph-name="uni0413" unicode="&#x413;" horiz-adv-x="1024" 
d="M88 0l186 1327h830l-33 -231h-549l-153 -1096h-281z" />
    <glyph glyph-name="uni0414" unicode="&#x414;" horiz-adv-x="1542" 
d="M1260 233h174l-72 -514h-262l41 283h-910l-38 -283h-263l72 512h18q132 0 228 152q116 184 176 627l45 317h944zM688 1010q-39 -284 -94 -473t-148 -304h535l121 863h-402z" />
    <glyph glyph-name="uni0415" unicode="&#x415;" horiz-adv-x="1077" 
d="M88 0l186 1327h822l-33 -231h-541l-43 -303h383l-33 -232h-383l-45 -328h566l-33 -233h-846z" />
    <glyph glyph-name="uni0416" unicode="&#x416;" horiz-adv-x="2115" 
d="M2195 1327l-649 -663l475 -664h-362l-432 651l-92 -651h-283l92 651l-614 -651h-365l670 696l-467 631h342l440 -635l90 635h281l-90 -635l610 635h354z" />
    <glyph glyph-name="uni0417" unicode="&#x417;" horiz-adv-x="1091" 
d="M840 690q71 -26 116 -88.5t45 -165.5q0 -116 -41 -204.5t-117 -143t-177.5 -81.5t-227.5 -27q-123 0 -222.5 21.5t-154.5 57.5l37 267q151 -107 357 -107q120 0 191 46.5t71 150.5q0 79 -55.5 111t-184.5 32h-125l31 225h104q277 0 277 181q0 141 -211 141
q-183 0 -358 -109l36 269q67 36 166.5 59t210.5 23q199 0 320 -83t121 -255q0 -115 -58.5 -202.5t-150.5 -117.5z" />
    <glyph glyph-name="uni0418" unicode="&#x418;" horiz-adv-x="1421" 
d="M1374 1348h21l-191 -1348h-274l104 748l-928 -768h-20l190 1347h275l-107 -747z" />
    <glyph glyph-name="uni0419" unicode="&#x419;" horiz-adv-x="1421" 
d="M889 1409q-96 0 -164 25t-104 70.5t-48 104.5t-2 132l7 33h221q-26 -183 114 -183q145 0 168 183h222l-5 -33q-22 -150 -124 -241t-285 -91zM1374 1348h21l-191 -1348h-274l104 748l-928 -768h-20l190 1347h275l-107 -747z" />
    <glyph glyph-name="uni041A" unicode="&#x41a;" horiz-adv-x="1390" 
d="M88 0l186 1327h281l-88 -633l637 633h366l-673 -665l497 -662h-368l-465 647l-92 -647h-281z" />
    <glyph glyph-name="uni041B" unicode="&#x41b;" horiz-adv-x="1431" 
d="M440 1327h961l-187 -1327h-282l153 1096h-411l-31 -213q-18 -126 -31 -207.5t-32 -178t-38.5 -156t-47.5 -124.5t-62 -102t-78.5 -69.5t-100 -46t-124.5 -13.5q-88 0 -152 22l37 254q32 -14 84 -14q41 0 72.5 15t57.5 51t45.5 83t38 124.5t33 161.5t32.5 206z" />
    <glyph glyph-name="uni041C" unicode="&#x41c;" horiz-adv-x="1757" 
d="M807 -20l-281 661l-198 -641h-287l451 1348h20l369 -865l610 865h20l74 -1348h-274l-23 641l-461 -661h-20z" />
    <glyph glyph-name="uni041D" unicode="&#x41d;" horiz-adv-x="1429" 
d="M88 0l186 1327h281l-74 -534h559l76 534h281l-187 -1327h-280l78 557h-562l-77 -557h-281z" />
    <glyph glyph-name="uni041E" unicode="&#x41e;" horiz-adv-x="1562" 
d="M737 -20q-152 0 -271.5 44.5t-194.5 124t-113.5 186t-38.5 234.5q0 62 8 117q42 299 244.5 480.5t513.5 181.5q287 0 451.5 -158.5t164.5 -425.5q0 -60 -8 -117q-19 -142 -79.5 -263.5t-155 -211.5t-229 -141t-292.5 -51zM745 238q187 0 311.5 120t151.5 314q4 31 4 82
q0 153 -88.5 245.5t-251.5 92.5q-186 0 -309.5 -119.5t-150.5 -308.5q-6 -46 -6 -80q0 -155 87 -250.5t252 -95.5z" />
    <glyph glyph-name="uni041F" unicode="&#x41f;" horiz-adv-x="1409" 
d="M274 1327h1104l-186 -1327h-283l154 1096h-541l-153 -1096h-281z" />
    <glyph glyph-name="uni0420" unicode="&#x420;" horiz-adv-x="1200" 
d="M88 0l186 1327h334q71 0 122.5 -2.5t116.5 -11t111 -24.5t93.5 -45.5t76.5 -70t47.5 -101.5t18.5 -138q0 -52 -6 -96q-12 -84 -44 -149.5t-70.5 -108t-98.5 -72.5t-108.5 -44.5t-121.5 -22.5t-116 -9.5t-113 -1.5h-86l-61 -430h-281zM461 657h69q45 0 73.5 1t69 5
t66.5 12.5t56 23.5t49.5 37.5t35.5 55.5t23 76q4 24 4 54q0 49 -15.5 82.5t-39.5 52.5t-67.5 29.5t-84.5 13t-106 2.5h-70z" />
    <glyph glyph-name="uni0421" unicode="&#x421;" horiz-adv-x="1296" 
d="M750 -20q-153 0 -274.5 44.5t-199.5 124t-118.5 186.5t-40.5 234q0 59 10 121q53 308 258.5 483t521.5 175q121 0 219 -28.5t146 -68.5l-37 -266q-143 107 -330 107q-191 0 -326.5 -120t-166.5 -308q-6 -38 -6 -78q0 -163 93.5 -255.5t270.5 -92.5q212 0 393 114
l-41 -293q-49 -31 -152 -55t-220 -24z" />
    <glyph glyph-name="uni0422" unicode="&#x422;" horiz-adv-x="1150" 
d="M371 0l153 1096h-362l33 231h1003l-33 -231h-358l-154 -1096h-282z" />
    <glyph glyph-name="uni0423" unicode="&#x423;" horiz-adv-x="1310" 
d="M1106 1327h295l-819 -1327h-285l256 422l-397 905h311l256 -627z" />
    <glyph glyph-name="uni0424" unicode="&#x424;" horiz-adv-x="1738" 
d="M1673 719q0 -187 -90.5 -329t-253 -220.5t-375.5 -85.5l-18 -141h-274l18 143q-249 19 -404 158.5t-155 359.5q0 185 92 328.5t256 223.5t375 87l18 141h275l-21 -143q253 -19 405 -161t152 -361zM408 625q0 -132 86.5 -209t222.5 -90l94 678q-178 -15 -290.5 -116
t-112.5 -263zM985 324q183 14 293.5 112t110.5 260q0 129 -85 210t-223 95z" />
    <glyph glyph-name="uni0425" unicode="&#x425;" horiz-adv-x="1343" 
d="M-31 0l561 676l-356 651h324l231 -455l354 455h338l-542 -651l364 -676h-323l-240 475l-371 -475h-340z" />
    <glyph glyph-name="uni0426" unicode="&#x426;" horiz-adv-x="1501" 
d="M1217 233h176l-74 -514h-262l39 281h-1008l186 1327h283l-156 -1094h535l154 1094h282z" />
    <glyph glyph-name="uni0427" unicode="&#x427;" horiz-adv-x="1366" 
d="M1055 1327h280l-186 -1327h-283l78 545q-120 -107 -346 -107q-420 0 -420 377q0 62 23 227l41 285h280l-45 -330q-25 -160 19.5 -235.5t193.5 -75.5q147 0 220 79t100 247z" />
    <glyph glyph-name="uni0428" unicode="&#x428;" horiz-adv-x="2050" 
d="M1737 1327h280l-186 -1327h-1743l186 1327h283l-156 -1094h449l156 1094h280l-153 -1094h450z" />
    <glyph glyph-name="uni0429" unicode="&#x429;" horiz-adv-x="2148" 
d="M1864 233h174l-74 -514h-260l39 281h-1655l186 1327h283l-156 -1094h449l156 1094h280l-153 -1094h450l154 1094h280z" />
    <glyph glyph-name="uni042A" unicode="&#x42a;" horiz-adv-x="1482" 
d="M934 897q86 0 156 -11.5t132 -39.5t104 -72t66.5 -112t24.5 -156q0 -54 -6 -103q-8 -64 -27.5 -117.5t-44.5 -92.5t-62 -70t-71 -51t-82.5 -34t-85 -21.5t-89.5 -11.5t-86 -4.5t-83 -0.5h-411l155 1096h-362l33 231h645l-62 -430h156zM1122 432q2 18 2 57
q0 105 -59.5 143t-179.5 38h-140l-61 -445h109q54 0 92.5 3t82.5 15t73 33.5t51.5 61t29.5 94.5z" />
    <glyph glyph-name="uni042B" unicode="&#x42b;" horiz-adv-x="1773" 
d="M653 897q482 0 482 -391q0 -45 -7 -103q-8 -64 -27.5 -117.5t-43.5 -92.5t-61 -70t-71 -51t-82 -34t-84.5 -21.5t-89.5 -11.5t-86 -4.5t-83 -0.5h-412l188 1327h281l-61 -430h157zM1460 1327h281l-187 -1327h-280zM840 432q4 36 4 57q0 105 -60 143t-180 38h-141
l-62 -445h109q45 0 77.5 2.5t71.5 9t66.5 21t53 36.5t40.5 57t21 81z" />
    <glyph glyph-name="uni042C" unicode="&#x42c;" horiz-adv-x="1202" 
d="M653 897q482 0 482 -391q0 -45 -7 -103q-8 -64 -27.5 -117.5t-43.5 -92.5t-61 -70t-71 -51t-82 -34t-84.5 -21.5t-89.5 -11.5t-86 -4.5t-83 -0.5h-412l188 1327h281l-61 -430h157zM840 432q4 36 4 57q0 105 -60 143t-180 38h-141l-62 -445h109q45 0 77.5 2.5t71.5 9
t66.5 21t53 36.5t40.5 57t21 81z" />
    <glyph glyph-name="uni042D" unicode="&#x42d;" horiz-adv-x="1318" 
d="M655 1348q141 0 256 -45.5t189 -125t113.5 -184.5t39.5 -225q0 -100 -10 -168q-44 -301 -239 -460.5t-525 -159.5q-242 0 -416 92l37 264q179 -107 387 -107q185 0 302.5 85t160.5 247h-553l31 223h541q-10 148 -108 231t-255 83q-212 0 -393 -111l37 273q154 88 405 88z
" />
    <glyph glyph-name="uni042E" unicode="&#x42e;" horiz-adv-x="2148" 
d="M1475 1348q287 0 450.5 -158.5t163.5 -425.5q0 -60 -8 -117q-20 -142 -80.5 -263.5t-154.5 -211.5t-227.5 -141t-291.5 -51q-150 0 -267.5 43.5t-192 121.5t-113.5 182.5t-41 229.5h-264l-80 -557h-281l188 1327h281l-76 -534h262q67 255 259.5 405t472.5 150zM1794 672
q6 47 6 82q0 154 -87 246t-249 92q-186 0 -308.5 -119t-149.5 -309q-5 -39 -5 -80q0 -155 86.5 -250.5t249.5 -95.5q186 0 308 120t149 314z" />
    <glyph glyph-name="uni042F" unicode="&#x42f;" horiz-adv-x="1241" 
d="M788 1327h422l-188 -1327h-283l64 453h-131l-353 -453h-333l407 498q-101 42 -166 132.5t-65 213.5q0 51 6 84q12 84 42.5 150t78 108.5t101.5 71.5t124 43.5t133.5 20t140.5 5.5zM723 680h113l61 422h-98q-62 0 -105 -3.5t-87 -14.5t-72.5 -30.5t-49.5 -53.5t-28 -82
q-4 -20 -4 -50q0 -93 75.5 -140.5t194.5 -47.5z" />
    <glyph glyph-name="uni0430" unicode="&#x430;" horiz-adv-x="1085" 
d="M567 942q191 0 292.5 -78.5t101.5 -226.5q0 -40 -13 -131l-71 -506h-248l8 90q-97 -108 -281 -108q-149 0 -230 70t-81 196q0 106 60.5 183.5t157 115t214.5 37.5q124 0 207 -39q4 40 4 59q0 64 -40.5 100.5t-147.5 36.5q-145 0 -297 -88l30 217q153 72 334 72zM451 158
q82 0 137.5 54.5t68.5 154.5l2 10q-57 39 -147 39q-87 0 -138.5 -39.5t-51.5 -108.5q0 -54 34.5 -82t94.5 -28z" />
    <glyph glyph-name="uni0431" unicode="&#x431;" 
d="M743 903q180 0 290 -107t110 -292q0 -46 -6 -92q-28 -200 -179.5 -315t-382.5 -115q-229 0 -350 114.5t-121 319.5q0 103 17 225q28 199 86.5 337.5t165.5 223.5q89 70 203 105t294 49q241 17 299 35l-34 -242q-61 -19 -263 -35q-153 -12 -223.5 -32t-124.5 -66
q-87 -70 -118 -248q117 135 337 135zM854 424q4 32 4 55q0 91 -54.5 146t-146.5 55q-115 0 -187.5 -59.5t-84.5 -167.5q-4 -32 -4 -47q0 -91 57.5 -145t155.5 -54q107 0 177.5 57.5t82.5 159.5z" />
    <glyph glyph-name="uni0432" unicode="&#x432;" horiz-adv-x="1026" 
d="M766 500q160 -39 160 -199q0 -45 -12.5 -86t-45 -81.5t-81.5 -69t-128 -46.5t-180 -18h-401l131 924h330q77 0 140.5 -10.5t120 -34t88.5 -69t32 -108.5q0 -77 -43 -128.5t-111 -73.5zM639 664q0 86 -121 86h-61l-29 -201h68q143 0 143 115zM477 176q84 0 127 26t43 87
q0 90 -143 90h-101l-28 -203h102z" />
    <glyph glyph-name="uni0433" unicode="&#x433;" horiz-adv-x="821" 
d="M838 924l-31 -217h-356l-99 -707h-272l129 924h629z" />
    <glyph glyph-name="uni0434" unicode="&#x434;" horiz-adv-x="1234" 
d="M1006 217h143l-64 -457h-251l34 242h-618l-35 -242h-252l64 457h20q90 0 146 84q76 113 112 369l37 254h762zM555 709l-6 -39q-40 -300 -150 -453h336l68 492h-248z" />
    <glyph glyph-name="uni0435" unicode="&#x435;" horiz-adv-x="1075" 
d="M551 -18q-83 0 -152 12.5t-131 42t-105 75.5t-68 117.5t-25 163.5q0 43 6 92q27 206 162.5 331.5t351.5 125.5q209 0 311.5 -100.5t102.5 -263.5q0 -91 -27 -201h-633v-8q0 -168 236 -168q180 0 344 82l-35 -232q-50 -26 -138 -47.5t-200 -21.5zM369 549h364q4 16 4 39
q0 62 -43 100.5t-114 38.5q-78 0 -136 -49t-75 -129z" />
    <glyph glyph-name="uni0436" unicode="&#x436;" horiz-adv-x="1636" 
d="M1665 924l-418 -457l312 -467h-345l-264 455l-63 -455h-273l64 457l-389 -457h-342l440 492l-291 432h330l256 -435l61 435h273l-62 -437l377 437h334z" />
    <glyph glyph-name="uni0437" unicode="&#x437;" horiz-adv-x="907" 
d="M647 498q70 -19 113 -71.5t43 -143.5q0 -39 -10 -76.5t-39.5 -79.5t-76.5 -73t-129 -51.5t-188 -20.5q-188 0 -317 63l31 207q139 -68 274 -68q187 0 187 103q0 84 -162 84h-113l27 186h75q96 0 142.5 23.5t46.5 78.5q0 82 -127 82q-138 0 -274 -82l30 213
q50 27 137 48.5t185 21.5q143 0 233 -57t90 -168q0 -88 -50 -144.5t-128 -74.5z" />
    <glyph glyph-name="uni0438" unicode="&#x438;" horiz-adv-x="1124" 
d="M1028 942h21l-134 -942h-268l64 440l-615 -458h-20l133 942h268l-63 -447z" />
    <glyph glyph-name="uni0439" unicode="&#x439;" horiz-adv-x="1124" 
d="M840 1372h213l-4 -26q-20 -145 -115.5 -233.5t-271.5 -88.5q-92 0 -155.5 24.5t-96 69.5t-43 101.5t-0.5 126.5l4 26h213l-2 -6q-22 -176 102 -176q68 0 106.5 48t49.5 128v6zM414 477l614 465h21l-134 -942h-268l64 440l-615 -458h-20l133 942h268z" />
    <glyph glyph-name="uni043A" unicode="&#x43a;" horiz-adv-x="1107" 
d="M1149 924l-432 -457l313 -467h-330l-284 451l-64 -451h-272l129 924h272l-59 -428l389 428h338z" />
    <glyph glyph-name="uni043B" unicode="&#x43b;" horiz-adv-x="1179" 
d="M315 924h787l-129 -924h-273l99 707h-256l-19 -132q-19 -120 -40.5 -208.5t-54 -164t-75 -122t-100.5 -72.5t-133 -26q-79 0 -139 22l30 219q27 -10 62 -10q83 0 124.5 85.5t69.5 285.5z" />
    <glyph glyph-name="uni043C" unicode="&#x43c;" horiz-adv-x="1392" 
d="M1270 0h-269l-45 399l-315 -417h-20l-197 417l-164 -399h-270l407 940h21l262 -565l422 565h20z" />
    <glyph glyph-name="uni043D" unicode="&#x43d;" horiz-adv-x="1163" 
d="M813 924h272l-129 -924h-272l49 356h-332l-49 -356h-272l129 924h272l-49 -351h332z" />
    <glyph glyph-name="uni043E" unicode="&#x43e;" horiz-adv-x="1173" 
d="M535 -18q-222 0 -343.5 117.5t-121.5 308.5q0 38 6 81q30 204 181.5 328.5t381.5 124.5q215 0 341 -111.5t126 -308.5q0 -40 -6 -84q-30 -214 -183.5 -335t-381.5 -121zM547 211q124 0 200 88t76 213q0 95 -52 149t-144 54q-122 0 -198.5 -91t-76.5 -216
q0 -90 52.5 -143.5t142.5 -53.5z" />
    <glyph glyph-name="uni043F" unicode="&#x43f;" horiz-adv-x="1148" 
d="M209 924h862l-131 -924h-272l100 707h-317l-99 -707h-272z" />
    <glyph glyph-name="uni0440" unicode="&#x440;" horiz-adv-x="1220" 
d="M20 -406l189 1330h248l-6 -88q109 106 290 106q191 0 300.5 -117.5t109.5 -302.5q0 -44 -6 -90q-30 -211 -171 -330.5t-333 -119.5q-191 0 -279 106l-69 -494h-273zM600 211q122 0 196 88t74 213q0 95 -53.5 149t-146.5 54q-122 0 -196.5 -88.5t-74.5 -212.5
q0 -95 54 -149t147 -54z" />
    <glyph glyph-name="uni0441" unicode="&#x441;" horiz-adv-x="907" 
d="M514 -20q-95 0 -174.5 25t-141 74.5t-96 131t-34.5 188.5q0 37 6 84q22 154 102 259t195 152.5t258 47.5q158 0 256 -59l-33 -228q-100 62 -213 62q-107 0 -186.5 -63t-100.5 -185q-4 -24 -4 -49q0 -98 55 -154.5t160 -56.5q119 0 238 76l-35 -250q-38 -23 -109 -39
t-143 -16z" />
    <glyph glyph-name="uni0442" unicode="&#x442;" horiz-adv-x="907" 
d="M911 924l-30 -217h-258l-99 -707h-272l98 707h-254l31 217h784z" />
    <glyph glyph-name="uni0443" unicode="&#x443;" horiz-adv-x="1060" 
d="M55 -406l281 480l-258 850h291l141 -566l303 566h301l-762 -1330h-297z" />
    <glyph glyph-name="uni0444" unicode="&#x444;" horiz-adv-x="1445" 
d="M1374 504q0 -69 -16.5 -135.5t-59.5 -136t-107 -122t-168.5 -88t-236.5 -40.5l-55 -388h-264l55 390q-204 15 -328 137t-124 297q0 71 18.5 139.5t63 136.5t109.5 120.5t167 87.5t227 40l60 416h264l-59 -416q212 -12 333 -131.5t121 -306.5zM813 199q78 5 137 33.5
t91 72t47.5 89.5t15.5 95q0 102 -57.5 166.5t-157.5 71.5zM340 434q0 -98 58 -159.5t155 -73.5l76 526q-135 -9 -212 -90t-77 -203z" />
    <glyph glyph-name="uni0445" unicode="&#x445;" horiz-adv-x="1130" 
d="M-37 0l440 461l-299 463h312l172 -297l258 297h319l-432 -467l299 -457h-313l-176 291l-258 -291h-322z" />
    <glyph glyph-name="uni0446" unicode="&#x446;" horiz-adv-x="1196" 
d="M965 217h145l-63 -457h-252l32 240h-749l131 924h272l-100 -707h309l98 707h273z" />
    <glyph glyph-name="uni0447" unicode="&#x447;" horiz-adv-x="1101" 
d="M752 924h272l-131 -924h-270l51 356q-93 -75 -256 -75q-148 0 -228.5 72t-80.5 208q0 43 6 101l43 262h272l-33 -207q-8 -54 -8 -90q0 -57 34 -89t103 -32q96 0 137 53t60 172z" />
    <glyph glyph-name="uni0448" unicode="&#x448;" horiz-adv-x="1634" 
d="M1284 924h272l-131 -924h-1347l131 924h272l-100 -707h268l99 707h272l-100 -707h264z" />
    <glyph glyph-name="uni0449" unicode="&#x449;" horiz-adv-x="1691" 
d="M1458 217h148l-64 -457h-252l33 240h-1245l131 924h272l-100 -707h268l99 707h272l-100 -707h266l98 707h272z" />
    <glyph glyph-name="uni044A" unicode="&#x44a;" horiz-adv-x="1177" 
d="M702 662q180 0 291 -75.5t111 -221.5q0 -178 -129 -277q-117 -88 -367 -88h-356l100 707h-256l33 217h526l-37 -262h84zM776 236q47 41 47 112q0 121 -170 121h-63l-39 -276h53q123 0 172 43z" />
    <glyph glyph-name="uni044B" unicode="&#x44b;" horiz-adv-x="1538" 
d="M528 662q180 0 291 -75.5t111 -221.5q0 -178 -129 -277q-120 -88 -367 -88h-356l131 924h272l-37 -262h84zM1188 924h272l-131 -924h-272zM602 236q45 42 45 112q0 121 -168 121h-63l-39 -276h51q125 0 174 43z" />
    <glyph glyph-name="uni044C" unicode="&#x44c;" horiz-adv-x="1003" 
d="M528 662q180 0 291 -75.5t111 -221.5q0 -178 -129 -277q-120 -88 -367 -88h-356l131 924h272l-37 -262h84zM602 236q45 42 45 112q0 121 -168 121h-63l-39 -276h51q125 0 174 43z" />
    <glyph glyph-name="uni044D" unicode="&#x44d;" horiz-adv-x="937" 
d="M432 942q90 0 167.5 -24.5t138.5 -72t96.5 -127t35.5 -181.5q0 -43 -6 -93q-30 -225 -181 -343.5t-380 -118.5q-166 0 -270 55l33 231q107 -67 239 -67q104 0 177.5 44t103.5 126h-340l26 190h332q-13 78 -74.5 121t-158.5 43q-124 0 -242 -76l31 234q38 23 115 41
t157 18z" />
    <glyph glyph-name="uni044E" unicode="&#x44e;" horiz-adv-x="1648" 
d="M1116 942q213 0 338 -111t125 -309q0 -40 -6 -84q-29 -213 -181.5 -334.5t-377.5 -121.5q-208 0 -326.5 102.5t-134.5 273.5h-152l-51 -358h-272l131 924h272l-49 -353h143q50 170 194 270.5t347 100.5zM1026 211q122 0 196 88t74 213q0 95 -50.5 149t-139.5 54
q-120 0 -196 -91t-76 -216q0 -90 51.5 -143.5t140.5 -53.5z" />
    <glyph glyph-name="uni044F" unicode="&#x44f;" horiz-adv-x="1050" 
d="M575 924h400l-131 -924h-273l41 289h-75l-228 -289h-303l268 319q-78 27 -125 92t-47 156q0 26 4 62q8 73 40 127t75.5 85.5t105.5 51t119.5 25.5t128.5 6zM535 479h104l35 254h-107q-80 0 -127 -24t-57 -91q-2 -14 -2 -36q0 -51 40 -77t114 -26z" />
    <glyph glyph-name="uni0451" unicode="&#x451;" horiz-adv-x="1075" 
d="M414 1096q-62 0 -98.5 36.5t-36.5 94.5q0 72 49 120t118 48q59 0 96.5 -37.5t37.5 -93.5q0 -76 -47.5 -122t-118.5 -46zM872 1096q-62 0 -98.5 36.5t-36.5 94.5q0 72 49.5 120t118.5 48q59 0 96 -37.5t37 -93.5q0 -76 -47.5 -122t-118.5 -46zM551 -18q-83 0 -152 12.5
t-131 42t-105 75.5t-68 117.5t-25 163.5q0 43 6 92q27 206 162.5 331.5t351.5 125.5q209 0 311.5 -100.5t102.5 -263.5q0 -91 -27 -201h-633v-8q0 -168 236 -168q180 0 344 82l-35 -232q-50 -26 -138 -47.5t-200 -21.5zM369 549h364q4 16 4 39q0 62 -43 100.5t-114 38.5
q-78 0 -136 -49t-75 -129z" />
    <glyph glyph-name="uni0452" unicode="&#x452;" horiz-adv-x="1181" 
d="M782 881q145 0 230.5 -89t85.5 -270q0 -179 -103 -387t-274 -375h-297q112 112 192 220t121.5 198.5t59.5 163t18 137.5q0 176 -143 176q-116 0 -162 -67t-68 -223l-51 -365h-272l139 997h-192l28 197h193l22 164h273l-23 -164h293l-27 -197h-293l-30 -215q106 99 280 99
z" />
    <glyph glyph-name="uni0453" unicode="&#x453;" horiz-adv-x="821" 
d="M1065 1411l-385 -346h-277l297 346h365zM838 924l-31 -217h-356l-99 -707h-272l129 924h629z" />
    <glyph glyph-name="uni0454" unicode="&#x454;" horiz-adv-x="933" 
d="M633 725q-100 0 -172.5 -43t-104.5 -121h338l-24 -190h-338q12 -82 74 -126t161 -44q79 0 145 24.5t101 50.5l-31 -235q-39 -23 -117.5 -41t-158.5 -18q-91 0 -168.5 24.5t-138.5 72.5t-96 127t-35 181q0 43 6 92q32 225 182 344t379 119q155 0 256 -55l-33 -230
q-101 68 -225 68z" />
    <glyph glyph-name="uni0455" unicode="&#x455;" horiz-adv-x="802" 
d="M311 -18q-89 0 -162.5 17.5t-107.5 39.5l29 205q38 -23 101.5 -44.5t129.5 -21.5q143 0 143 103q0 31 -17.5 54t-46 37.5t-62.5 28t-68.5 32t-63 43.5t-46 68.5t-17.5 100.5q0 135 91 216t263 81q81 0 150.5 -17t97.5 -34l-29 -203q-91 60 -196 60q-59 0 -90 -23t-31 -61
q0 -31 24 -53t59.5 -34.5t77 -33t77 -46t59.5 -77t24 -121.5q0 -157 -107 -237t-282 -80z" />
    <glyph glyph-name="uni0456" unicode="&#x456;" horiz-adv-x="575" 
d="M401 1096q-63 0 -100 37t-37 98q0 75 45 119.5t113 44.5q61 0 99 -36.5t38 -98.5q0 -78 -45.5 -121t-112.5 -43zM102 0l101 711h-117l31 213h387l-129 -924h-273z" />
    <glyph glyph-name="uni0457" unicode="&#x457;" horiz-adv-x="575" 
d="M176 1096q-63 0 -99 36.5t-36 94.5q0 72 49.5 120t118.5 48q59 0 95 -37t36 -94q0 -76 -46.5 -122t-117.5 -46zM575 1096q-63 0 -99 36.5t-36 94.5q0 72 49 120t119 48q58 0 94.5 -37.5t36.5 -93.5q0 -76 -46.5 -122t-117.5 -46zM102 0l101 711h-117l31 213h387
l-129 -924h-273z" />
    <glyph glyph-name="uni0458" unicode="&#x458;" horiz-adv-x="630" 
d="M420 1096q-62 0 -99.5 37t-37.5 98q0 75 44.5 119.5t112.5 44.5q61 0 99.5 -36.5t38.5 -98.5q0 -78 -45.5 -121t-112.5 -43zM-66 -424q-129 0 -200 31l30 209q54 -21 132 -21q63 0 106 19.5t68.5 62t38.5 89.5t24 120l88 625h-117l31 213h387l-114 -820
q-10 -70 -20 -120.5t-27.5 -109.5t-40 -99.5t-58 -81t-80.5 -64t-108 -38.5t-140 -15z" />
    <glyph glyph-name="uni0459" unicode="&#x459;" horiz-adv-x="1624" 
d="M1149 662q180 0 290.5 -75.5t110.5 -221.5q0 -179 -131 -277q-117 -88 -364 -88h-355l99 707h-256l-19 -132q-19 -120 -40.5 -208.5t-54 -164t-75 -122t-100.5 -72.5t-133 -26q-79 0 -139 22l30 219q27 -10 62 -10q83 0 124.5 85.5t69.5 285.5l47 340h787l-37 -262h84z
M1223 236q45 42 45 112q0 121 -170 121h-60l-39 -276h50q125 0 174 43z" />
    <glyph glyph-name="uni045A" unicode="&#x45a;" horiz-adv-x="1607" 
d="M1133 662q180 0 290.5 -75.5t110.5 -221.5q0 -178 -129 -277q-120 -88 -367 -88h-356l51 356h-332l-49 -356h-272l129 924h272l-49 -351h332l49 351h272l-36 -262h84zM1206 236q45 42 45 112q0 121 -168 121h-63l-39 -276h51q125 0 174 43z" />
    <glyph glyph-name="uni045B" unicode="&#x45b;" horiz-adv-x="1171" 
d="M774 881q138 0 213.5 -71.5t75.5 -211.5q0 -64 -12 -141l-66 -457h-272l61 434q8 70 8 96q0 125 -127 125q-56 0 -94 -19t-61 -60.5t-35 -88.5t-23 -122l-53 -365h-272l141 997h-192l28 197h193l22 164h273l-23 -164h293l-27 -197h-293l-30 -215q48 46 119 72.5t153 26.5
z" />
    <glyph glyph-name="uni045C" unicode="&#x45c;" horiz-adv-x="1107" 
d="M1163 1411l-385 -346h-276l297 346h364zM811 924h338l-432 -457l313 -467h-330l-284 451l-64 -451h-272l129 924h272l-59 -428z" />
    <glyph glyph-name="uni045D" unicode="&#x45d;" horiz-adv-x="1105" 
d="M862 1065h-262l-291 346h353zM1028 942h21l-134 -942h-268l64 440l-615 -458h-20l133 942h268l-63 -447z" />
    <glyph glyph-name="uni045E" unicode="&#x45e;" horiz-adv-x="1060" 
d="M604 1024q-92 0 -155.5 24.5t-96 69.5t-43 101.5t-0.5 126.5l4 26h213l-2 -6q-22 -176 103 -176q68 0 106 48t49 128v6h213l-4 -26q-20 -145 -115.5 -233.5t-271.5 -88.5zM55 -406l281 480l-258 850h291l141 -566l303 566h301l-762 -1330h-297z" />
    <glyph glyph-name="uni045F" unicode="&#x45f;" horiz-adv-x="1138" 
d="M1059 924l-129 -924h-299l-35 -240h-252l35 240h-299l129 924h272l-100 -707h309l96 707h273z" />
    <glyph glyph-name="uni0490" unicode="&#x490;" horiz-adv-x="1026" 
d="M1145 1608l-72 -512h-549l-155 -1096h-281l186 1327h570l39 281h262z" />
    <glyph glyph-name="uni0491" unicode="&#x491;" horiz-adv-x="802" 
d="M870 1163l-63 -456h-354l-101 -707h-272l129 924h375l34 239h252z" />
    <glyph glyph-name="Wgrave" unicode="&#x1e80;" horiz-adv-x="2097" 
d="M1079 1448l-291 346h353l200 -346h-262zM586 -18l-416 1345h301l213 -741l467 741h20l261 -741l421 741h316l-791 -1345h-20l-268 766l-484 -766h-20z" />
    <glyph glyph-name="wgrave" unicode="&#x1e81;" horiz-adv-x="1468" 
d="M719 1065l-291 346h352l201 -346h-262zM416 -18l-326 942h289l123 -437l280 437h21l153 -437l252 437h303l-591 -942h-21l-166 464l-297 -464h-20z" />
    <glyph glyph-name="Wacute" unicode="&#x1e82;" horiz-adv-x="2097" 
d="M975 1448l297 346h364l-385 -346h-276zM586 -18l-416 1345h301l213 -741l467 741h20l261 -741l421 741h316l-791 -1345h-20l-268 766l-484 -766h-20z" />
    <glyph glyph-name="wacute" unicode="&#x1e83;" horiz-adv-x="1468" 
d="M608 1065l297 346h365l-385 -346h-277zM416 -18l-326 942h289l123 -437l280 437h21l153 -437l252 437h303l-591 -942h-21l-166 464l-297 -464h-20z" />
    <glyph glyph-name="Wdieresis" unicode="&#x1e84;" horiz-adv-x="2097" 
d="M979 1464q-69 0 -110.5 41t-41.5 107q0 73 50 122.5t122 49.5q67 0 108.5 -42.5t41.5 -107.5q0 -74 -48.5 -122t-121.5 -48zM1425 1464q-68 0 -109.5 41.5t-41.5 106.5q0 73 50 122.5t122 49.5q67 0 108 -42.5t41 -107.5q0 -74 -48.5 -122t-121.5 -48zM586 -18l-416 1345
h301l213 -741l467 741h20l261 -741l421 741h316l-791 -1345h-20l-268 766l-484 -766h-20z" />
    <glyph glyph-name="wdieresis" unicode="&#x1e85;" horiz-adv-x="1468" 
d="M602 1096q-62 0 -98.5 36.5t-36.5 94.5q0 72 49.5 120t118.5 48q59 0 96 -37.5t37 -93.5q0 -76 -47.5 -122t-118.5 -46zM1047 1096q-63 0 -99.5 36.5t-36.5 94.5q0 72 49.5 120t118.5 48q59 0 95 -37t36 -94q0 -76 -46 -122t-117 -46zM416 -18l-326 942h289l123 -437
l280 437h21l153 -437l252 437h303l-591 -942h-21l-166 464l-297 -464h-20z" />
    <glyph glyph-name="uni1E9E" unicode="&#x1e9e;" horiz-adv-x="1423" 
d="M1397 1327l-4 -20l-299 -510q109 -30 174 -114.5t65 -227.5q0 -237 -136 -356t-394 -119q-163 0 -266 36l32 234q94 -37 222 -37q118 0 187 61t69 175q0 80 -50.5 127t-140.5 47q-98 0 -158 -48l-20 19l299 506h-455l-153 -1100h-281l186 1327h1123z" />
    <glyph glyph-name="Ygrave" unicode="&#x1ef2;" horiz-adv-x="1302" 
d="M795 1448l-291 346h352l201 -346h-262zM440 0l76 526l-360 801h301l229 -555l389 555h314l-592 -801l-74 -526h-283z" />
    <glyph glyph-name="ygrave" unicode="&#x1ef3;" horiz-adv-x="1060" 
d="M594 1065l-291 346h352l201 -346h-262zM55 -406l281 480l-258 850h291l141 -566l303 566h301l-762 -1330h-297z" />
    <glyph glyph-name="uni2002" unicode="&#x2002;" horiz-adv-x="987" 
 />
    <glyph glyph-name="uni2003" unicode="&#x2003;" horiz-adv-x="1636" 
 />
    <glyph glyph-name="uni2009" unicode="&#x2009;" horiz-adv-x="327" 
 />
    <glyph glyph-name="uni200A" unicode="&#x200a;" horiz-adv-x="102" 
 />
    <glyph glyph-name="endash" unicode="&#x2013;" horiz-adv-x="987" 
d="M61 389l31 217h846l-33 -217h-844z" />
    <glyph glyph-name="emdash" unicode="&#x2014;" horiz-adv-x="1636" 
d="M61 389l31 217h1495l-33 -217h-1493z" />
    <glyph glyph-name="quoteleft" unicode="&#x2018;" horiz-adv-x="595" 
d="M612 1327q-79 -63 -133 -137t-78 -139q60 -6 93.5 -41t33.5 -95q0 -83 -54 -137.5t-136 -54.5q-78 0 -124 48t-46 136q0 113 62.5 223.5t187.5 196.5h194z" />
    <glyph glyph-name="quoteright" unicode="&#x2019;" horiz-adv-x="593" 
d="M141 735q79 63 133 137t78 140q-61 6 -94 41t-33 94q0 83 54.5 137.5t136.5 54.5q78 0 124 -48t46 -136q0 -113 -62.5 -223.5t-187.5 -196.5h-195z" />
    <glyph glyph-name="quotesinglbase" unicode="&#x201a;" horiz-adv-x="593" 
d="M-10 -313q79 63 133 137t78 139q-61 6 -94 41t-33 94q0 83 54 138t136 55q78 0 124 -48.5t46 -136.5q0 -113 -62.5 -223t-187.5 -196h-194z" />
    <glyph glyph-name="quotedblleft" unicode="&#x201c;" horiz-adv-x="1073" 
d="M614 1327q-79 -63 -133 -137t-78 -139q60 -6 93.5 -41t33.5 -95q0 -83 -54 -137.5t-136 -54.5q-78 0 -124 48t-46 136q0 113 62.5 223.5t187.5 196.5h194zM1090 1327q-79 -63 -133 -137t-78 -139q60 -6 93.5 -41t33.5 -95q0 -83 -54.5 -137.5t-136.5 -54.5q-78 0 -124 48
t-46 136q0 113 62.5 223.5t187.5 196.5h195z" />
    <glyph glyph-name="quotedblright" unicode="&#x201d;" horiz-adv-x="1071" 
d="M143 735q79 63 133 137t78 140q-61 6 -94 41t-33 94q0 83 54.5 137.5t136.5 54.5q78 0 124 -48t46 -136q0 -113 -62.5 -223.5t-187.5 -196.5h-195zM618 735q79 63 133 137t78 140q-61 6 -94 41t-33 94q0 83 54.5 137.5t136.5 54.5q78 0 124 -48t46 -136
q0 -113 -62.5 -223.5t-187.5 -196.5h-195z" />
    <glyph glyph-name="quotedblbase" unicode="&#x201e;" horiz-adv-x="1069" 
d="M-10 -313q79 63 133 137t78 139q-61 6 -94 41t-33 94q0 83 54 138t136 55q78 0 124 -48.5t46 -136.5q0 -113 -62.5 -223t-187.5 -196h-194zM463 -313q79 63 133 137t78 139q-61 6 -94 41t-33 94q0 83 54 138t136 55q78 0 124 -48.5t46 -136.5q0 -113 -62.5 -223
t-187.5 -196h-194z" />
    <glyph glyph-name="dagger" unicode="&#x2020;" horiz-adv-x="1198" 
d="M371 -406l131 1117h-316l33 213h309l47 403h289l-65 -403h313l-31 -213h-317l-180 -1117h-213z" />
    <glyph glyph-name="daggerdbl" unicode="&#x2021;" horiz-adv-x="1198" 
d="M1081 711h-317l-49 -310h286l-30 -213h-291l-96 -594h-213l69 594h-321l31 213h315l37 310h-316l33 213h309l47 403h289l-65 -403h313z" />
    <glyph glyph-name="bullet" unicode="&#x2022;" horiz-adv-x="911" 
d="M459 238q-103 0 -170.5 66.5t-67.5 170.5q0 100 70.5 167t167.5 67q102 0 167.5 -66.5t65.5 -169.5q0 -104 -65.5 -169.5t-167.5 -65.5z" />
    <glyph glyph-name="ellipsis" unicode="&#x2026;" horiz-adv-x="1548" 
d="M242 -18q-70 0 -111 41t-41 108q0 77 52 128.5t122 51.5q68 0 111 -42t43 -111q0 -79 -52 -127.5t-124 -48.5zM717 -18q-70 0 -111 41t-41 108q0 77 51.5 128.5t122.5 51.5q68 0 111 -42t43 -111q0 -79 -52 -127.5t-124 -48.5zM1194 -18q-70 0 -111 41t-41 108
q0 76 52 128t123 52q68 0 110.5 -42t42.5 -111q0 -79 -52 -127.5t-124 -48.5z" />
    <glyph glyph-name="perthousand" unicode="&#x2030;" horiz-adv-x="2799" 
d="M479 684q-140 0 -227.5 77.5t-87.5 209.5q0 167 112.5 273t278.5 106q140 0 227.5 -78.5t87.5 -210.5q0 -174 -114 -275.5t-277 -101.5zM399 0l924 1327h281l-924 -1327h-281zM492 862q78 0 129 51t51 129q0 61 -36.5 95t-98.5 34q-75 0 -125 -53.5t-50 -128.5
q0 -58 34.5 -92.5t95.5 -34.5zM1452 -20q-141 0 -228 77t-87 209q0 167 112.5 273t278.5 106q140 0 227.5 -78.5t87.5 -210.5q0 -116 -55 -203t-143 -130t-193 -43zM2302 -20q-141 0 -228 77t-87 209q0 167 112.5 273t278.5 106q140 0 227.5 -78.5t87.5 -210.5
q0 -116 -55 -203t-143 -130t-193 -43zM1464 158q78 0 129.5 51t51.5 129q0 61 -37 95t-99 34q-75 0 -125.5 -53.5t-50.5 -128.5q0 -58 35 -92.5t96 -34.5zM2314 158q78 0 129 51t51 129q0 61 -36.5 95t-98.5 34q-75 0 -125.5 -53.5t-50.5 -128.5q0 -58 35 -92.5t96 -34.5z
" />
    <glyph glyph-name="guilsinglleft" unicode="&#x2039;" horiz-adv-x="813" 
d="M317 152l-243 321l329 322h324l-356 -326l245 -317h-299z" />
    <glyph glyph-name="guilsinglright" unicode="&#x203a;" horiz-adv-x="813" 
d="M90 152l356 321l-247 322h301l243 -322l-329 -321h-324z" />
    <glyph glyph-name="fraction" unicode="&#x2044;" horiz-adv-x="1017" 
d="M-66 0l924 1327h281l-924 -1327h-281z" />
    <glyph glyph-name="Euro" unicode="&#x20ac;" horiz-adv-x="1234" 
d="M778 -20q-255 0 -411.5 107t-176.5 314h-182l27 193h155q3 63 19 133h-156l27 193h180q71 203 240.5 315.5t425.5 112.5q120 0 217.5 -19t138.5 -43l-35 -244q-50 29 -133 49.5t-170 20.5q-146 0 -243.5 -52.5t-143.5 -139.5h385l-27 -193h-426q-13 -49 -20 -133h428
l-27 -193h-399q12 -53 47 -91t85 -56.5t98 -26.5t100 -8q204 0 352 66l-35 -252q-43 -18 -140 -35.5t-200 -17.5z" />
    <glyph glyph-name="uni20B4" unicode="&#x20b4;" horiz-adv-x="1073" 
d="M1053 735h-203q-40 -33 -184 -125h370l-26 -182l-580 2q-31 -45 -31 -92q0 -129 189 -129q80 0 173 31t165 77l-37 -262q-167 -75 -379 -75q-199 0 -302.5 75t-103.5 221q0 80 33 154h-84l25 180h213q53 42 190 127h-385l25 181h586q22 36 22 75q0 58 -44.5 91.5
t-133.5 33.5q-140 0 -305 -90l35 260q142 60 356 60q194 0 290.5 -75t96.5 -208q0 -78 -29 -147h84z" />
    <glyph glyph-name="uni20BD" unicode="&#x20bd;" horiz-adv-x="1298" 
d="M752 1327q93 0 170 -10.5t148 -36.5t119 -68t76.5 -108.5t28.5 -153.5q0 -24 -4 -90q-10 -87 -40.5 -156.5t-70 -114.5t-97 -78t-109 -50t-119.5 -27t-113.5 -12t-105.5 -2h-107l-14 -101h236l-29 -200h-236l-16 -119h-281l17 119h-170l28 200h170l15 101h-172l30 198
h170l101 709h375zM1004 874q4 28 4 48q0 47 -16 81t-40.5 52.5t-63.5 29.5t-74.5 14t-84.5 3h-104l-66 -463h100q79 0 133 9t100.5 33.5t73.5 72t38 120.5z" />
    <glyph glyph-name="uni2113" unicode="&#x2113;" horiz-adv-x="538" 
d="M68 0l190 1358h272l-190 -1358h-272z" />
    <glyph glyph-name="uni2116" unicode="&#x2116;" horiz-adv-x="2291" 
d="M1206 -20l-735 792l-109 -772h-274l191 1348h20l733 -791l109 770h274l-188 -1347h-21zM1901 649q-145 0 -228.5 76t-83.5 215q0 55 13 111q33 138 134.5 216.5t252.5 78.5q144 0 226.5 -76t82.5 -215q0 -59 -12 -111q-33 -138 -133.5 -216.5t-251.5 -78.5zM1911 815
q138 0 178 170q6 35 6 59q0 69 -31.5 103.5t-87.5 34.5q-69 0 -113.5 -45t-62.5 -127q-8 -31 -8 -60q0 -68 31.5 -101.5t87.5 -33.5zM1552 401l25 166h612l-24 -166h-613z" />
    <glyph glyph-name="trademark" unicode="&#x2122;" horiz-adv-x="1955" 
d="M1350 514l-213 363l-64 -351h-203l174 822h21l297 -500l297 500h20l172 -822h-202l-62 353l-217 -365h-20zM377 526v629h-213v172h629v-172h-209v-629h-207z" />
    <glyph glyph-name="uni2126" unicode="&#x2126;" horiz-adv-x="1568" 
d="M1509 768q0 -98 -27.5 -191t-96 -187t-171.5 -157h224l-31 -233h-567l32 238q165 79 255 204.5t90 294.5q0 159 -95.5 257t-255.5 98q-203 0 -327.5 -126t-124.5 -323q0 -139 61.5 -243t161.5 -162l-33 -238h-565l31 233h241q-84 76 -134 184.5t-50 229.5q0 98 28 195
t89.5 188.5t149 162t217 113t282.5 42.5q139 0 256 -46.5t195 -125.5t121.5 -184.5t43.5 -223.5z" />
    <glyph glyph-name="estimated" unicode="&#x212e;" horiz-adv-x="1820" 
d="M946 -20q-159 0 -304 55t-250.5 148t-167.5 222.5t-62 272.5t62 273t167.5 223.5t250.5 148.5t304 55q156 0 300 -55t248.5 -148.5t167 -223.5t62.5 -273v-16h-1263q-17 0 -17 -13v-383q0 -18 25 -43q91 -94 215.5 -147t263.5 -53q147 0 276.5 60.5t223.5 164.5h115
q-113 -124 -274 -196t-343 -72zM461 700h962q17 0 17 11v389q0 18 -27 45q-87 90 -209.5 141t-255.5 51q-139 0 -262 -52t-217 -146q-25 -25 -25 -49v-379q0 -11 17 -11z" />
    <glyph glyph-name="arrowleft" unicode="&#x2190;" horiz-adv-x="1775" 
d="M780 72l-608 604l608 604h348l-475 -475h994v-256h-994l475 -477h-348z" />
    <glyph glyph-name="arrowup" unicode="&#x2191;" horiz-adv-x="1361" 
d="M571 0v907l-378 -383v303l518 521l520 -521v-303l-379 383v-907h-281z" />
    <glyph glyph-name="arrowright" unicode="&#x2192;" horiz-adv-x="1775" 
d="M709 72l473 477h-992v256h992l-473 475h348l608 -604l-608 -604h-348z" />
    <glyph glyph-name="arrowdown" unicode="&#x2193;" horiz-adv-x="1361" 
d="M709 -20l-521 520v303l379 -383v907h281v-907l379 383v-303z" />
    <glyph glyph-name="partialdiff" unicode="&#x2202;" horiz-adv-x="1206" 
d="M541 -18q-120 0 -211.5 32.5t-147.5 90t-84 133t-28 165.5q0 41 6 82q30 202 168.5 330.5t343.5 128.5q102 0 180.5 -37t120.5 -102v57q0 160 -69.5 230.5t-221.5 70.5q-69 0 -136 -12.5t-106 -28.5l33 236q91 31 238 31q96 0 173.5 -16.5t147.5 -59t117 -110t74.5 -175
t27.5 -248.5q0 -93 -14 -194q-30 -200 -117.5 -337.5t-212.5 -202t-282 -64.5zM551 209q102 0 179.5 66t96.5 190q4 24 4 47q0 96 -52.5 150.5t-145.5 54.5q-103 0 -174 -62t-97 -161q-12 -37 -12 -86q0 -91 54 -145t147 -54z" />
    <glyph glyph-name="uni2206" unicode="&#x2206;" horiz-adv-x="1308" 
d="M788 1348l422 -1348h-1243l801 1348h20zM858 233l-151 558l-308 -558h459z" />
    <glyph glyph-name="product" unicode="&#x220f;" horiz-adv-x="1693" 
d="M207 -406l211 1502h-230l33 231h1493l-33 -231h-229l-209 -1502h-282l210 1502h-473l-209 -1502h-282z" />
    <glyph glyph-name="summation" unicode="&#x2211;" horiz-adv-x="1161" 
d="M2 0l4 20l584 658l-397 629l4 20h985l-33 -231h-490l269 -426l-383 -437h506l-35 -233h-1014z" />
    <glyph glyph-name="minus" unicode="&#x2212;" 
d="M147 356l29 213h891l-31 -213h-889z" />
    <glyph glyph-name="radical" unicode="&#x221a;" horiz-adv-x="1247" 
d="M430 0l-117 430h-217l29 213h395l78 -307l485 991h291l-674 -1327h-270z" />
    <glyph glyph-name="infinity" unicode="&#x221e;" horiz-adv-x="1398" 
d="M387 346q-124 0 -205.5 75t-81.5 214q0 152 98 249t248 97q198 0 287 -180q141 180 332 180q123 0 207 -72.5t84 -216.5q0 -156 -97 -251t-247 -95q-209 0 -299 174q-74 -96 -152.5 -135t-173.5 -39zM434 551q50 0 92 30t86 91q-62 106 -153 106q-59 0 -94 -40t-35 -91
q0 -47 28.5 -71.5t75.5 -24.5zM997 551q59 0 94 40t35 91q0 47 -28.5 71.5t-75.5 24.5q-51 0 -92.5 -30t-85.5 -91q60 -106 153 -106z" />
    <glyph glyph-name="integral" unicode="&#x222b;" horiz-adv-x="843" 
d="M113 -424q-119 0 -193 31l29 209q52 -21 123 -21q97 0 138.5 58.5t61.5 195.5l127 899q12 92 39.5 161.5t76 125t127 84.5t183.5 29t179 -27l-31 -217q-46 20 -113 20q-95 0 -137.5 -54.5t-54.5 -149.5l-123 -863q-9 -66 -18 -112.5t-25 -100.5t-36.5 -90.5t-52.5 -72.5
t-73 -57.5t-98.5 -34.5t-128.5 -13z" />
    <glyph glyph-name="approxequal" unicode="&#x2248;" 
d="M778 510q-67 0 -130 24.5t-112.5 49t-82.5 24.5q-75 0 -95 -88h-196q14 136 94 214.5t211 78.5q57 0 107 -15.5t79.5 -33.5t67 -33.5t72.5 -15.5q78 0 96 88h198q-15 -139 -97.5 -216t-211.5 -77zM721 113q-67 0 -130.5 24.5t-113 49t-82.5 24.5q-74 0 -94 -88h-197
q14 136 94.5 214.5t211.5 78.5q57 0 106.5 -15.5t79.5 -34t67 -34t72 -15.5q32 0 54.5 17.5t30 34.5t11.5 37h199q-15 -139 -97.5 -216t-211.5 -77z" />
    <glyph glyph-name="notequal" unicode="&#x2260;" 
d="M207 0l110 172h-196l29 211h292l101 160h-371l31 213h467l110 168h224l-111 -168h199l-29 -213h-297l-100 -160h374l-30 -211h-469l-109 -172h-225z" />
    <glyph glyph-name="lessequal" unicode="&#x2264;" 
d="M1167 1298l-37 -264l-473 -207l414 -211l-37 -260l-823 461l4 21zM98 0l29 213h891l-31 -213h-889z" />
    <glyph glyph-name="greaterequal" unicode="&#x2265;" 
d="M150 356l36 265l473 206l-413 211l37 260l823 -460l-4 -21zM100 0l29 213h891l-31 -213h-889z" />
    <glyph glyph-name="dotmath" unicode="&#x22c5;" horiz-adv-x="708" 
d="M344 311q-70 0 -110.5 41.5t-40.5 108.5q0 77 51.5 128.5t122.5 51.5q68 0 110.5 -42.5t42.5 -111.5q0 -79 -52 -127.5t-124 -48.5z" />
    <glyph glyph-name="lozenge" unicode="&#x25ca;" horiz-adv-x="1136" 
d="M492 -20l-414 671l602 697h20l412 -697l-600 -671h-20zM547 344l287 318l-191 321l-285 -332z" />
    <glyph glyph-name="uniF8FF" unicode="&#xf8ff;" horiz-adv-x="1232" 
d="M346 1206q-26 0 -43.5 18t-17.5 46q0 25 17.5 43t43.5 18q25 0 44.5 -18.5t19.5 -42.5q0 -27 -19.5 -45.5t-44.5 -18.5zM481 1206q-25 0 -43 18.5t-18 45.5q0 25 18 43t43 18q26 0 44 -18t18 -43q0 -28 -18 -46t-44 -18zM614 1206q-25 0 -44 18.5t-19 45.5q0 25 19 43
t44 18q26 0 44 -18t18 -43q0 -28 -18 -46t-44 -18zM750 1206q-26 0 -44 18t-18 46q0 25 18 43t44 18q25 0 44 -18t19 -43q0 -27 -19 -45.5t-44 -18.5zM885 1206q-28 0 -46 18t-18 46q0 25 18.5 43t45.5 18q24 0 42.5 -18.5t18.5 -42.5q0 -27 -18.5 -45.5t-42.5 -18.5z
M1018 1206q-25 0 -44.5 18.5t-19.5 45.5q0 24 19.5 42.5t44.5 18.5q26 0 43.5 -18t17.5 -43q0 -28 -17.5 -46t-43.5 -18zM346 1073q-26 0 -43.5 18t-17.5 44q0 25 17.5 43t43.5 18q25 0 44.5 -18.5t19.5 -42.5q0 -26 -19.5 -44t-44.5 -18zM346 938q-26 0 -43.5 18.5
t-17.5 44.5q0 25 17.5 42.5t43.5 17.5q25 0 44.5 -18t19.5 -42q0 -26 -19.5 -44.5t-44.5 -18.5zM614 938q-25 0 -44 18.5t-19 44.5q0 24 19 42t44 18q26 0 44 -17.5t18 -42.5q0 -26 -18 -44.5t-44 -18.5zM750 938q-26 0 -44 18.5t-18 44.5q0 25 18 42.5t44 17.5q25 0 44 -18
t19 -42q0 -26 -19 -44.5t-44 -18.5zM885 938q-27 0 -45.5 18t-18.5 45q0 25 18.5 42.5t45.5 17.5q24 0 42.5 -18t18.5 -42q0 -26 -18.5 -44.5t-42.5 -18.5zM1018 938q-25 0 -44.5 18.5t-19.5 44.5q0 24 19.5 42t44.5 18q26 0 43.5 -17.5t17.5 -42.5q0 -26 -17.5 -44.5
t-43.5 -18.5zM346 807q-26 0 -43.5 16.5t-17.5 42.5t17.5 44t43.5 18q25 0 44.5 -18t19.5 -44q0 -25 -19 -42t-45 -17zM614 807q-26 0 -44.5 16.5t-18.5 42.5t19 44t44 18q26 0 44 -18t18 -44t-17.5 -42.5t-44.5 -16.5zM346 670q-26 0 -43.5 17.5t-17.5 43.5q0 27 17.5 45.5
t43.5 18.5q25 0 44.5 -19t19.5 -45t-19.5 -43.5t-44.5 -17.5zM614 670q-25 0 -44 17.5t-19 43.5t19 45t44 19q26 0 44 -19t18 -45t-18 -43.5t-44 -17.5zM750 670q-26 0 -44 17.5t-18 43.5t18 45t44 19q25 0 44 -19t19 -45t-19 -43.5t-44 -17.5zM885 670q-28 0 -46 17.5
t-18 43.5q0 27 18.5 45.5t45.5 18.5q24 0 42.5 -19t18.5 -45t-18.5 -43.5t-42.5 -17.5zM1018 670q-25 0 -44.5 17.5t-19.5 43.5t19.5 45t44.5 19q26 0 43.5 -18.5t17.5 -45.5q0 -26 -17.5 -43.5t-43.5 -17.5zM346 537q-26 0 -43.5 17.5t-17.5 43.5q0 25 17.5 43t43.5 18
q25 0 44.5 -18.5t19.5 -42.5q0 -26 -19.5 -43.5t-44.5 -17.5zM1018 537q-25 0 -44.5 17.5t-19.5 43.5q0 24 19.5 42.5t44.5 18.5q26 0 43.5 -18t17.5 -43q0 -26 -17.5 -43.5t-43.5 -17.5zM346 403q-26 0 -43.5 18t-17.5 44q0 25 17.5 42t43.5 17q25 0 44.5 -17.5t19.5 -41.5
q0 -26 -19.5 -44t-44.5 -18zM614 403q-25 0 -44 18t-19 44q0 24 19 41.5t44 17.5q26 0 44 -17t18 -42q0 -26 -18 -44t-44 -18zM750 403q-26 0 -44 18t-18 44q0 25 18 42t44 17q25 0 44 -17.5t19 -41.5q0 -26 -19 -44t-44 -18zM885 403q-28 0 -46 18t-18 44q0 25 18 42t46 17
q24 0 42.5 -17.5t18.5 -41.5q0 -26 -18.5 -44t-42.5 -18zM1018 403q-25 0 -44.5 18t-19.5 44q0 24 19.5 41.5t44.5 17.5q26 0 43.5 -17t17.5 -42q0 -26 -17.5 -44t-43.5 -18zM346 266q-26 0 -43.5 18.5t-17.5 45.5q0 26 17.5 43.5t43.5 17.5q25 0 44.5 -17.5t19.5 -43.5
t-19.5 -45t-44.5 -19zM346 133q-26 0 -43.5 18t-17.5 44q0 27 17 44t44 17q26 0 45 -17t19 -44q0 -26 -19.5 -44t-44.5 -18zM614 133q-25 0 -44 18t-19 44q0 27 18.5 44t44.5 17q27 0 44.5 -17t17.5 -44q0 -26 -18 -44t-44 -18zM346 0q-26 0 -43.5 17.5t-17.5 43.5
q0 25 17.5 44.5t43.5 19.5q25 0 44.5 -19.5t19.5 -44.5q0 -26 -19.5 -43.5t-44.5 -17.5zM481 0q-25 0 -43 17.5t-18 43.5q0 25 18.5 44.5t42.5 19.5q26 0 44 -19.5t18 -44.5q0 -26 -18 -43.5t-44 -17.5zM614 0q-25 0 -44 17.5t-19 43.5q0 25 19 44.5t44 19.5q26 0 44 -19.5
t18 -44.5q0 -26 -18 -43.5t-44 -17.5z" />
    <glyph glyph-name="Cacute.loclPLK" horiz-adv-x="1296" 
d="M795 1448l215 346h319l-274 -346h-260zM750 -20q-153 0 -274.5 44.5t-199.5 124t-118.5 186.5t-40.5 234q0 59 10 121q53 308 258.5 483t521.5 175q121 0 219 -28.5t146 -68.5l-37 -266q-143 107 -330 107q-191 0 -326.5 -120t-166.5 -308q-6 -38 -6 -78
q0 -163 93.5 -255.5t270.5 -92.5q212 0 393 114l-41 -293q-49 -31 -152 -55t-220 -24z" />
    <glyph glyph-name="Iacute_J.loclNLD" horiz-adv-x="1554" 
d="M291 1448l297 346h364l-385 -346h-276zM967 1448l297 346h364l-385 -346h-276zM88 0l186 1327h281l-186 -1327h-281zM905 -20q-178 0 -272 51l33 241q32 -21 88.5 -35t115.5 -14q123 0 184.5 66.5t84.5 232.5l82 576h-308l35 229h584l-123 -876q-16 -114 -50 -198
t-92.5 -147t-149 -94.5t-212.5 -31.5z" />
    <glyph glyph-name="Nacute.loclPLK" horiz-adv-x="1445" 
d="M729 1448l215 346h320l-275 -346h-260zM1206 -20l-735 792l-109 -772h-274l191 1348h20l733 -791l109 770h274l-188 -1347h-21z" />
    <glyph glyph-name="Oacute.loclPLK" horiz-adv-x="1562" 
d="M788 1448l216 346h319l-274 -346h-261zM737 -20q-152 0 -271.5 44.5t-194.5 124t-113.5 186t-38.5 234.5q0 62 8 117q42 299 244.5 480.5t513.5 181.5q287 0 451.5 -158.5t164.5 -425.5q0 -60 -8 -117q-19 -142 -79.5 -263.5t-155 -211.5t-229 -141t-292.5 -51zM745 238
q187 0 311.5 120t151.5 314q4 31 4 82q0 153 -88.5 245.5t-251.5 92.5q-186 0 -309.5 -119.5t-150.5 -308.5q-6 -46 -6 -80q0 -155 87 -250.5t252 -95.5z" />
    <glyph glyph-name="Sacute.loclPLK" horiz-adv-x="1024" 
d="M553 1448l215 346h319l-274 -346h-260zM430 -20q-229 0 -367 83l37 261q63 -45 147 -75t175 -30q109 0 163 44.5t54 125.5q0 40 -24.5 72.5t-64 56t-87 47t-95 54.5t-87 70t-64 101t-24.5 140q0 200 126.5 309t346.5 109q100 0 189.5 -21.5t131.5 -48.5l-39 -258
q-54 39 -130.5 64.5t-147.5 25.5q-92 0 -141.5 -45.5t-49.5 -110.5q0 -43 25 -77t64.5 -57.5t87.5 -47t95.5 -53.5t87 -68.5t64.5 -101t25 -141.5q0 -208 -135 -318t-363 -110z" />
    <glyph glyph-name="Zacute.loclPLK" horiz-adv-x="1222" 
d="M608 1448l215 346h320l-275 -346h-260zM2 0l4 20l766 1076h-571l32 231h1029l-5 -20l-761 -1074h608l-33 -233h-1069z" />
    <glyph glyph-name="cacute.loclPLK" horiz-adv-x="907" 
d="M502 1065l215 346h321l-274 -346h-262zM514 -20q-95 0 -174.5 25t-141 74.5t-96 131t-34.5 188.5q0 37 6 84q22 154 102 259t195 152.5t258 47.5q158 0 256 -59l-33 -228q-100 62 -213 62q-107 0 -186.5 -63t-100.5 -185q-4 -24 -4 -49q0 -98 55 -154.5t160 -56.5
q119 0 238 76l-35 -250q-38 -23 -109 -39t-143 -16z" />
    <glyph glyph-name="iacute_j.loclNLD" horiz-adv-x="1150" 
d="M150 1065l296 346h365l-385 -346h-276zM735 1065l297 346h365l-385 -346h-277zM92 0l101 711h-117l30 213h388l-129 -924h-273zM481 -424q-129 0 -200 31l30 209q54 -21 131 -21q51 0 89 14t62.5 37.5t42 62.5t27 79t17.5 98l88 625h-117l31 213h387l-115 -820
q-10 -71 -19.5 -121t-27.5 -109t-40.5 -99.5t-57.5 -81t-80 -64t-108 -38.5t-140 -15z" />
    <glyph glyph-name="i.loclTRK" horiz-adv-x="575" 
d="M373 1096q-62 0 -98.5 36.5t-36.5 94.5q0 72 49.5 120t118.5 48q59 0 96 -37.5t37 -93.5q0 -76 -47.5 -122t-118.5 -46zM92 0l101 711h-117l30 213h388l-129 -924h-273z" />
    <glyph glyph-name="nacute.loclPLK" horiz-adv-x="1120" 
d="M530 1065l215 346h322l-274 -346h-263zM68 0l131 924h247l-8 -101q99 119 275 119q142 0 224.5 -79.5t82.5 -223.5q0 -30 -10 -115l-74 -524h-272l73 520q0 1 4 34t4 50q0 50 -30 81.5t-97 31.5q-54 0 -93 -20t-62.5 -59t-36.5 -82.5t-23 -104.5l-63 -451h-272z" />
    <glyph glyph-name="oacute.loclPLK" horiz-adv-x="1173" 
d="M512 1065l215 346h322l-275 -346h-262zM535 -18q-222 0 -343.5 117.5t-121.5 308.5q0 38 6 81q30 204 181.5 328.5t381.5 124.5q215 0 341 -111.5t126 -308.5q0 -40 -6 -84q-30 -214 -183.5 -335t-381.5 -121zM547 211q124 0 200 88t76 213q0 95 -52 149t-144 54
q-122 0 -198.5 -91t-76.5 -216q0 -90 52.5 -143.5t142.5 -53.5z" />
    <glyph glyph-name="sacute.loclPLK" horiz-adv-x="802" 
d="M360 1065l215 346h322l-274 -346h-263zM311 -18q-89 0 -162.5 17.5t-107.5 39.5l29 205q38 -23 101.5 -44.5t129.5 -21.5q143 0 143 103q0 31 -17.5 54t-46 37.5t-62.5 28t-68.5 32t-63 43.5t-46 68.5t-17.5 100.5q0 135 91 216t263 81q81 0 150.5 -17t97.5 -34l-29 -203
q-91 60 -196 60q-59 0 -90 -23t-31 -61q0 -31 24 -53t59.5 -34.5t77 -33t77 -46t59.5 -77t24 -121.5q0 -157 -107 -237t-282 -80z" />
    <glyph glyph-name="germandbls.calt" horiz-adv-x="1423" 
d="M1397 1327l-4 -20l-299 -510q109 -30 174 -114.5t65 -227.5q0 -237 -136 -356t-394 -119q-163 0 -266 36l32 234q94 -37 222 -37q118 0 187 61t69 175q0 80 -50.5 127t-140.5 47q-98 0 -158 -48l-20 19l299 506h-455l-153 -1100h-281l186 1327h1123z" />
    <glyph glyph-name="zacute.loclPLK" horiz-adv-x="954" 
d="M403 1065l215 346h322l-274 -346h-263zM-14 0l4 20l516 691h-385l31 213h819l-4 -21l-516 -688h428l-33 -215h-860z" />
    <glyph glyph-name="uni0414.loclBGR" horiz-adv-x="1517" 
d="M1262 233h153l-72 -514h-262l41 283h-854l-41 -283h-260l72 514h154l681 1115h21zM813 811l-334 -578h504z" />
    <glyph glyph-name="uni041B.loclBGR" horiz-adv-x="1292" 
d="M1192 0h-293l-203 786l-428 -786h-299l793 1348h20z" />
    <glyph glyph-name="uni0424.loclBGR" horiz-adv-x="1722" 
d="M1657 717q0 -95 -25.5 -185t-82 -174t-138.5 -149t-203 -108.5t-268 -53.5l-16 -125h-275l17 127q-241 26 -393 178.5t-152 374.5q0 96 25.5 187t82 176.5t138.5 151.5t203.5 110.5t269.5 54.5l18 123h275l-19 -125q246 -26 394.5 -182t148.5 -381zM408 621
q0 -136 82 -223.5t212 -110.5l105 753q-102 -12 -180.5 -51.5t-125 -97.5t-70 -126.5t-23.5 -143.5zM973 285q99 13 177 53t125 97.5t71 124t24 138.5q0 138 -80.5 229.5t-212.5 112.5z" />
    <glyph glyph-name="uni0431.loclSRB" horiz-adv-x="1175" 
d="M756 928q181 -61 265.5 -163t84.5 -253q0 -75 -19 -147t-63 -142t-109 -123t-165.5 -85.5t-223.5 -32.5q-212 0 -335 110t-123 301q0 160 89 276.5t253 170.5q-164 77 -164 235q0 41 10 78t37.5 75.5t71.5 66t118.5 45.5t171.5 18h283q107 0 184 22l-30 -213
q-59 -22 -205 -22h-244q-115 0 -115 -80q0 -38 35.5 -61t124.5 -54zM557 211q122 0 192 78.5t70 193.5q0 94 -54.5 152.5t-148.5 58.5q-122 0 -193 -77.5t-71 -194.5q0 -96 55 -153.5t150 -57.5z" />
    <glyph glyph-name="uni0432.loclBGR" horiz-adv-x="1126" 
d="M815 721q105 -26 164 -109.5t59 -193.5q0 -57 -13.5 -112.5t-50 -115.5t-92 -105t-148 -74t-210.5 -29q-208 0 -318 89.5t-110 268.5q0 75 13 174l57 399q37 258 153.5 368t356.5 110q181 0 286 -93t105 -241q0 -129 -67.5 -218.5t-184.5 -117.5zM645 1178
q-90 0 -139 -58t-68 -192l-18 -131h106q75 0 126.5 18.5t78.5 52.5t38 72.5t11 87.5q0 70 -36 110t-99 40zM547 195q107 0 158 61t51 154q0 90 -52.5 134t-162.5 44h-150l-16 -111q-8 -57 -8 -119q0 -82 47.5 -122.5t132.5 -40.5z" />
    <glyph glyph-name="uni0433.loclBGR" horiz-adv-x="866" 
d="M383 -18q-148 0 -231.5 60.5t-83.5 188.5q0 66 25 118.5t65.5 84.5t89 57.5t97 44t89 36.5t65.5 42.5t25 55.5q0 36 -23 51.5t-79 15.5q-121 0 -240 -63l31 219q117 49 293 49q146 0 223.5 -58.5t77.5 -174.5q0 -69 -25.5 -122.5t-66 -85.5t-89 -56.5t-97.5 -42.5
t-89.5 -36t-66 -44t-25.5 -60q0 -78 98 -78q128 0 269 86l-31 -221q-50 -28 -133 -47.5t-168 -19.5z" />
    <glyph glyph-name="uni0433.loclSRB" horiz-adv-x="575" 
d="M49 1130l29 213h631l-31 -213h-629zM102 0l101 711h-117l31 213h387l-129 -924h-273z" />
    <glyph glyph-name="uni0434.loclBGR" horiz-adv-x="1214" 
d="M451 -426q-186 0 -293 43l32 223q105 -41 232 -41q154 0 233 74.5t101 226.5l2 13q-40 -48 -115 -80.5t-172 -32.5q-184 0 -291.5 110.5t-107.5 303.5q0 41 6 88q32 209 168 324.5t336 115.5q102 0 177 -36t113 -99l27 117h248l-119 -836q-20 -145 -65 -244.5
t-118 -158.5t-168 -85t-226 -26zM549 227q117 0 191.5 87.5t74.5 203.5q0 97 -54 148t-138 51q-117 0 -194 -86.5t-77 -206.5q0 -91 53 -144t144 -53z" />
    <glyph glyph-name="uni0434.loclSRB" horiz-adv-x="1214" 
d="M451 -426q-186 0 -293 43l32 223q105 -41 232 -41q154 0 233 74.5t101 226.5l2 13q-40 -48 -115 -80.5t-172 -32.5q-184 0 -291.5 110.5t-107.5 303.5q0 41 6 88q32 209 168 324.5t336 115.5q102 0 177 -36t113 -99l27 117h248l-119 -836q-20 -145 -65 -244.5
t-118 -158.5t-168 -85t-226 -26zM549 227q117 0 191.5 87.5t74.5 203.5q0 97 -54 148t-138 51q-117 0 -194 -86.5t-77 -206.5q0 -91 53 -144t144 -53z" />
    <glyph glyph-name="uni0436.loclBGR" horiz-adv-x="1636" 
d="M1665 924l-418 -457l312 -467h-345l-264 455l-63 -455h-273l64 457l-389 -457h-342l440 492l-291 432h330l256 -435l121 869h272l-121 -871l377 437h334z" />
    <glyph glyph-name="uni0437.loclBGR" horiz-adv-x="892" 
d="M604 289q178 -77 178 -295q0 -44 -7.5 -85t-25.5 -83.5t-45.5 -79t-70 -68.5t-97 -55t-129.5 -36t-163 -13q-84 0 -170.5 17.5t-128.5 41.5l35 230q121 -62 268 -62q118 0 185 49t67 144q0 87 -49.5 126.5t-147.5 39.5h-113l29 215h78q254 0 254 194q0 69 -42.5 108.5
t-127.5 39.5q-143 0 -272 -72l32 227q138 70 334 70q102 0 183.5 -33.5t132.5 -106t51 -175.5q0 -126 -66 -216t-172 -122z" />
    <glyph glyph-name="uni0438.loclBGR" horiz-adv-x="1132" 
d="M782 924h273l-129 -924h-250l8 96q-102 -114 -278 -114q-139 0 -217 71t-78 203q0 48 14 158l70 510h272l-70 -496q-8 -57 -8 -104q0 -117 131 -117q45 0 77.5 14.5t52.5 36.5t34.5 63.5t22 78.5t16.5 98z" />
    <glyph glyph-name="uni0439.loclBGR" horiz-adv-x="1132" 
d="M637 1024q-92 0 -155.5 24.5t-96 69.5t-43 101.5t-0.5 126.5l4 26h213l-2 -6q-22 -176 102 -176q68 0 106.5 48t49.5 128v6h213l-4 -26q-20 -145 -115.5 -233.5t-271.5 -88.5zM782 924h273l-129 -924h-250l8 96q-102 -114 -278 -114q-139 0 -217 71t-78 203q0 48 14 158
l70 510h272l-70 -496q-8 -57 -8 -104q0 -117 131 -117q45 0 77.5 14.5t52.5 36.5t34.5 63.5t22 78.5t16.5 98z" />
    <glyph glyph-name="uni045D.loclBGR" horiz-adv-x="1132" 
d="M774 1065h-262l-291 346h352zM782 924h273l-129 -924h-250l8 96q-102 -114 -278 -114q-139 0 -217 71t-78 203q0 48 14 158l70 510h272l-70 -496q-8 -57 -8 -104q0 -117 131 -117q45 0 77.5 14.5t52.5 36.5t34.5 63.5t22 78.5t16.5 98z" />
    <glyph glyph-name="uni043A.loclBGR" horiz-adv-x="1105" 
d="M78 0l190 1358h273l-119 -850l389 416h340l-436 -439l313 -485h-328l-284 469l-66 -469h-272z" />
    <glyph glyph-name="uni043B.loclBGR" horiz-adv-x="1044" 
d="M969 0h-295l-152 469l-284 -469h-293l630 942h21z" />
    <glyph glyph-name="uni043F.loclBGR" horiz-adv-x="1140" 
d="M78 0l131 924h248l-8 -101q99 119 274 119q142 0 224.5 -79.5t82.5 -223.5q0 -30 -10 -115l-74 -524h-272l74 520q0 1 4 34t4 50q0 50 -30 81.5t-97 31.5q-54 0 -93 -20t-62.5 -59t-36.5 -82.5t-23 -104.5l-64 -451h-272z" />
    <glyph glyph-name="uni043F.loclSRB" horiz-adv-x="1132" 
d="M997 1343l-28 -213h-633l29 213h632zM782 924h273l-129 -924h-250l8 96q-102 -114 -278 -114q-139 0 -217 71t-78 203q0 48 14 158l70 510h272l-70 -496q-8 -57 -8 -104q0 -117 131 -117q45 0 77.5 14.5t52.5 36.5t34.5 63.5t22 78.5t16.5 98z" />
    <glyph glyph-name="uni0442.loclBGR" horiz-adv-x="1687" 
d="M78 0l131 924h248l-8 -107q40 56 110 90.5t156 34.5q90 0 155 -36.5t97 -104.5q47 62 123.5 101.5t177.5 39.5q146 0 227.5 -79t81.5 -226q0 -53 -10 -115l-74 -522h-272l71 500q11 79 11 106q0 111 -111 111q-88 0 -138 -67.5t-69 -205.5l-63 -444h-273l72 500
q10 72 10 106q0 111 -110 111q-88 0 -138 -67.5t-69 -205.5l-64 -444h-272z" />
    <glyph glyph-name="uni0442.loclSRB" horiz-adv-x="1673" 
d="M1499 1343l-29 -213h-1091l29 213h1091zM1321 924h272l-129 -924h-247l8 100q-45 -52 -113 -85t-149 -33q-87 0 -151 36t-97 101q-59 -72 -141 -104.5t-158 -32.5q-151 0 -228 73t-77 209q0 50 10 133l74 527h272l-72 -518q-8 -55 -8 -95q0 -106 123 -106q39 0 69 15.5
t49 39.5t33 65t21.5 80t15.5 97l60 422h272l-67 -494q-11 -79 -11 -111q0 -114 119 -114q38 0 67.5 15t49 39.5t34.5 64.5t23.5 80.5t16.5 97.5z" />
    <glyph glyph-name="uni0446.loclBGR" horiz-adv-x="1202" 
d="M1053 201q39 0 63 8l-61 -449h-252l33 238q-54 2 -93 30t-47 85q-98 -131 -303 -131q-135 0 -209.5 69.5t-74.5 200.5q0 54 14 160l72 512h272l-68 -488q-10 -62 -10 -114q0 -117 127 -117q95 0 140.5 70t66.5 223l59 426h273l-80 -566q-8 -47 -8 -84q0 -38 20 -55.5
t66 -17.5z" />
    <glyph glyph-name="uni0448.loclBGR" horiz-adv-x="1673" 
d="M1321 924h272l-129 -924h-247l8 100q-45 -52 -113 -85t-149 -33q-87 0 -151 36t-97 101q-59 -72 -141 -104.5t-158 -32.5q-151 0 -228 73t-77 209q0 50 10 133l74 527h272l-72 -518q-8 -55 -8 -95q0 -106 123 -106q39 0 69 15.5t49 39.5t33 65t21.5 80t15.5 97l60 422
h272l-67 -494q-11 -79 -11 -111q0 -114 119 -114q38 0 67.5 15t49 39.5t34.5 64.5t23.5 80.5t16.5 97.5z" />
    <glyph glyph-name="uni0449.loclBGR" horiz-adv-x="1742" 
d="M1595 201q38 0 62 8l-64 -449h-252l33 238q-54 3 -91 31t-44 86q-45 -58 -118 -95.5t-163 -37.5q-82 0 -147 35t-98 102q-58 -72 -139.5 -104.5t-159.5 -32.5q-151 0 -227 74.5t-76 209.5q0 46 12 148l72 510h272l-70 -504q-8 -44 -8 -92q0 -123 119 -123q39 0 68.5 15
t48.5 38.5t33.5 64.5t23 80.5t16.5 98.5l60 422h272l-72 -506q-8 -63 -8 -94q0 -119 123 -119q39 0 68.5 16t48 40t33.5 65.5t22.5 79.5t16.5 96l59 422h272l-82 -588q-6 -30 -6 -62q0 -39 21 -56t69 -17z" />
    <glyph glyph-name="uni044C.loclBGR" horiz-adv-x="1087" 
d="M688 748q147 0 234.5 -96t87.5 -236q0 -58 -13.5 -114.5t-49.5 -115.5t-90.5 -103.5t-143.5 -72.5t-201 -28q-197 0 -298 92t-101 272q0 63 16 172l57 406h273l-37 -267q105 91 266 91zM539 190q86 0 140 55t54 142q0 68 -39.5 111t-107.5 43q-91 0 -145 -56.5
t-54 -140.5q0 -67 41.5 -110.5t110.5 -43.5z" />
    <glyph glyph-name="uni044A.loclBGR" horiz-adv-x="1261" 
d="M862 748q147 0 234.5 -96t87.5 -236q0 -58 -13.5 -114.5t-49 -115.5t-90 -103.5t-143.5 -72.5t-202 -28q-195 0 -296 92t-101 272q0 53 14 172l29 193h-254l28 213h527l-37 -267q105 91 266 91zM715 190q86 0 139 55t53 142q0 68 -39.5 111t-107.5 43q-90 0 -144.5 -56.5
t-54.5 -140.5q0 -67 41.5 -110.5t112.5 -43.5z" />
    <glyph glyph-name="xi.ss02" horiz-adv-x="874" 
d="M793 1145q-123 0 -188.5 -42.5t-80.5 -135.5q-2 -12 -2 -31q0 -70 49.5 -110t143.5 -40h73l-30 -211h-117q-130 0 -202.5 -39t-82.5 -128q-2 -18 -2 -35q0 -68 47.5 -105.5t147.5 -66.5q134 -39 190 -85t56 -120q0 -132 -136 -277h-237q45 52 67.5 90.5t22.5 75.5
q0 39 -34 65t-126 50q-137 36 -211.5 117.5t-74.5 206.5q0 30 6 71q19 123 105.5 202.5t223.5 104.5q-68 25 -109.5 79.5t-41.5 123.5q0 19 2 35q9 71 53 123.5t113 81.5h-244l29 213h747l-28 -213h-129z" />
    </font>
</defs>
</svg>
