<?xml version="1.0" standalone="no"?>
<!DOCTYPE svg PUBLIC "-//W3C//DTD SVG 1.1//EN" "http://www.w3.org/Graphics/SVG/1.1/DTD/svg11.dtd" >
<svg xmlns="http://www.w3.org/2000/svg" xmlns:xlink="http://www.w3.org/1999/xlink" version="1.1">
<metadata>
Created by FontForge 20170731 at Thu Jul 30 05:03:59 2020
 By Aleksey,,,
Nespresso Lucas is a licensed version of FS Lucas, Copyright (c) 2016. All rights reserved. This font may not be altered in any way without prior permission of Fontsmith Ltd.
</metadata>
<defs>
<font id="NespressoLucas-Bold" horiz-adv-x="1232" >
  <font-face 
    font-family="Nespresso Lucas"
    font-weight="700"
    font-stretch="normal"
    units-per-em="2048"
    panose-1="2 11 6 3 6 3 2 3 2 3"
    ascent="1516"
    descent="-532"
    x-height="924"
    cap-height="1327"
    bbox="-1077 -446 2695 1845"
    underline-thickness="212"
    underline-position="-417"
    unicode-range="U+000D-FB02"
  />
<missing-glyph horiz-adv-x="1337" 
d="M154 -424v1751h1032v-1751h-1032zM670 512l422 758h-844zM215 -297l424 750l-424 747v-1497zM1124 -297v1497l-424 -747zM248 -365h844l-422 768z" />
    <glyph glyph-name="fi" unicode="fi" horiz-adv-x="1271" 
d="M1006 1096q-67 0 -108.5 41.5t-41.5 107.5q0 64 44 107t106 43t103.5 -43t41.5 -109q0 -65 -40.5 -106t-104.5 -41zM213 0v719h-160v205h160v73q0 394 338 394q99 0 137 -23v-223q-27 20 -82 20q-121 0 -121 -170v-71h656v-924h-273v719h-383v-719h-272z" />
    <glyph glyph-name="fl" unicode="fl" horiz-adv-x="1271" 
d="M213 0v719h-160v205h160v73q0 394 338 394q99 0 137 -23v-223q-27 20 -82 20q-121 0 -121 -170v-71h189v-205h-189v-719h-272zM868 0v1358h273v-1358h-273z" />
    <glyph glyph-name="f_f.liga" unicode="ff" horiz-adv-x="1419" 
d="M213 0v719h-160v205h160v51q0 196 84 294.5t264 98.5q94 0 154 -29v-223q-52 27 -107 27q-123 0 -123 -164v-55h383v73q0 394 379 394q109 0 191 -33v-230q-20 12 -63 24.5t-87 12.5q-86 0 -116.5 -46.5t-30.5 -133.5v-61h209v-205h-209v-719h-273v719h-383v-719h-272z
" />
    <glyph glyph-name="f_f_i.liga" unicode="ffi" horiz-adv-x="1925" 
d="M1657 1096q-66 0 -107 41.5t-41 107.5q0 64 43.5 107t104.5 43q63 0 105 -43t42 -109q0 -65 -41.5 -106t-105.5 -41zM213 0v719h-160v205h160v51q0 196 84 294.5t264 98.5q94 0 154 -29v-223q-52 27 -107 27q-123 0 -123 -164v-55h381v73q0 394 338 394q93 0 137 -23
v-223q-33 20 -81 20q-121 0 -121 -170v-71h653v-924h-272v719h-381v-719h-273v719h-381v-719h-272z" />
    <glyph glyph-name="f_f_j.liga" unicode="ffj" horiz-adv-x="1931" 
d="M1657 1090q-69 0 -111.5 43.5t-42.5 111.5q0 67 45 111.5t109 44.5q66 0 109.5 -44.5t43.5 -113.5q0 -68 -43 -110.5t-110 -42.5zM1354 -424q-106 0 -170 25v219q65 -25 133 -25q110 0 156.5 65t46.5 201v658h-381v-719h-273v719h-381v-719h-272v719h-160v205h160v51
q0 196 84 294.5t264 98.5q94 0 154 -29v-223q-52 27 -107 27q-123 0 -123 -164v-55h381v73q0 394 338 394q93 0 137 -23v-223q-33 20 -81 20q-121 0 -121 -170v-71h653v-850q0 -140 -30.5 -238.5t-90 -154.5t-137 -80.5t-180.5 -24.5z" />
    <glyph glyph-name="f_f_l.liga" unicode="ffl" horiz-adv-x="1925" 
d="M213 0v719h-160v205h160v51q0 196 84 294.5t264 98.5q94 0 154 -29v-223q-52 27 -107 27q-123 0 -123 -164v-55h381v73q0 394 338 394q93 0 137 -23v-223q-33 20 -81 20q-121 0 -121 -170v-71h188v-205h-188v-719h-273v719h-381v-719h-272zM1520 0v1358h272v-1358h-272z
" />
    <glyph glyph-name="f_f_t.liga" unicode="fft" horiz-adv-x="2168" 
d="M213 0v719h-160v205h160v51q0 196 84 294.5t264 98.5q94 0 154 -29v-223q-52 27 -107 27q-123 0 -123 -164v-55h383v73q0 394 336 394q99 0 137 -23v-223q-27 20 -81 20q-61 0 -90 -42t-29 -138v-61h143v-205h-143v-719h-273v719h-383v-719h-272zM1876 -18
q-176 0 -265 86t-89 268v383h-119v20q218 258 371 471h20v-286h254v-205h-254v-346q0 -84 28.5 -126t114.5 -42q73 0 152 35v-220q-78 -38 -213 -38z" />
    <glyph glyph-name="f_j.liga" unicode="fj" horiz-adv-x="1271" 
d="M1004 1096q-66 0 -108 41.5t-42 107.5q0 63 44.5 106.5t105.5 43.5q63 0 105 -43t42 -109q0 -65 -41.5 -106t-105.5 -41zM700 -424q-106 0 -170 25v219q60 -25 134 -25q109 0 155.5 65.5t46.5 200.5v658h-381v-719h-272v719h-160v205h160v73q0 394 338 394q99 0 137 -23
v-223q-27 20 -82 20q-121 0 -121 -170v-71h654v-850q0 -140 -30.5 -238.5t-90.5 -154.5t-137.5 -80.5t-180.5 -24.5z" />
    <glyph glyph-name="f_t.liga" unicode="ft" horiz-adv-x="1513" 
d="M213 0v719h-160v205h160v73q0 394 338 394q97 0 135 -23v-223q-27 20 -80 20q-121 0 -121 -170v-71h144v-205h-144v-719h-272zM1219 -18q-175 0 -264 86.5t-89 267.5v383h-118v20q211 250 370 471h21v-286h252v-205h-252v-346q0 -84 28.5 -126t114.5 -42q73 0 152 35
v-220q-78 -38 -215 -38z" />
    <glyph glyph-name="t_t.liga" unicode="tt" horiz-adv-x="1615" 
d="M547 -18q-177 0 -265.5 86t-88.5 268v375h-166v20q64 68 215.5 240.5t201.5 238.5h21v-286h254v-213h-254v-338q0 -84 28.5 -126t114.5 -42q73 0 152 35v-220q-78 -38 -213 -38zM1323 -18q-176 0 -264 86t-88 268v375h-168v20q61 63 215 237.5t205 241.5h20v-286h252
v-213h-252v-338q0 -84 28.5 -126t114.5 -42q73 0 152 35v-220q-78 -38 -215 -38z" />
    <glyph glyph-name=".notdef" horiz-adv-x="1337" 
d="M154 -424v1751h1032v-1751h-1032zM670 512l422 758h-844zM215 -297l424 750l-424 747v-1497zM1124 -297v1497l-424 -747zM248 -365h844l-422 768z" />
    <glyph glyph-name=".null" horiz-adv-x="0" 
 />
    <glyph glyph-name="nonmarkingreturn" horiz-adv-x="682" 
 />
    <glyph glyph-name="CR" unicode="&#xd;" horiz-adv-x="430" 
 />
    <glyph glyph-name="space" unicode=" " horiz-adv-x="430" 
 />
    <glyph glyph-name="exclam" unicode="!" horiz-adv-x="630" 
d="M180 428l-12 899h291l-8 -899h-271zM315 -18q-72 0 -116.5 45.5t-44.5 119.5q0 71 47 117.5t114 46.5q70 0 116 -46.5t46 -119.5q0 -72 -46.5 -117.5t-115.5 -45.5z" />
    <glyph glyph-name="quotedbl" unicode="&#x22;" horiz-adv-x="1042" 
d="M190 860l-36 467h288l-39 -467h-213zM639 860l-37 467h289l-39 -467h-213z" />
    <glyph glyph-name="numbersign" unicode="#" horiz-adv-x="1179" 
d="M94 0l80 315h-182l49 195h182l78 307h-186l51 195h184l80 315h242l-80 -315h170l80 315h241l-79 -315h186l-51 -195h-185l-77 -307h186l-51 -195h-187l-77 -315h-242l78 315h-168l-80 -315h-242zM465 510h168l78 307h-168z" />
    <glyph glyph-name="dollar" unicode="$" horiz-adv-x="1093" 
d="M487 -184v188q-222 13 -360 76v250q60 -42 161 -72.5t199 -36.5v332q-56 17 -95.5 31t-84.5 34t-75.5 41t-60 50.5t-47 64t-28 79.5t-10.5 99q0 166 105.5 260.5t295.5 112.5v207h123v-209q196 -15 289 -61v-254q-134 85 -289 100v-326q40 -12 70.5 -22.5t75.5 -30
t78 -39.5t70 -51.5t60 -66.5t38.5 -83t15.5 -102q0 -169 -100 -269.5t-308 -113.5v-188h-123zM487 819v287q-129 -20 -129 -143q0 -55 32 -88t97 -56zM610 221q69 10 101 48t32 96t-31.5 93t-101.5 60v-297z" />
    <glyph glyph-name="percent" unicode="%" horiz-adv-x="1937" 
d="M434 684q-151 0 -248.5 89t-97.5 243q0 150 101 241t245 91q142 0 244 -90t102 -240q0 -153 -99.5 -243.5t-246.5 -90.5zM459 0l737 1327h281l-738 -1327h-280zM434 862q64 0 107 42t43 114t-43 111.5t-107 39.5q-65 0 -107 -41.5t-42 -111.5q0 -71 42.5 -112.5
t106.5 -41.5zM1503 -20q-152 0 -250 89t-98 242q0 151 101 241.5t247 90.5q141 0 243.5 -90t102.5 -240q0 -152 -100 -242.5t-246 -90.5zM1503 158q64 0 107 41.5t43 113.5q0 73 -43 112.5t-107 39.5q-65 0 -108 -41t-43 -111q0 -71 43.5 -113t107.5 -42z" />
    <glyph glyph-name="ampersand" unicode="&#x26;" horiz-adv-x="1454" 
d="M1405 133l-148 -168l-145 127q-182 -112 -426 -112q-174 0 -311 56.5t-216 164t-79 250.5q0 124 61 216t162 138q-70 87 -70 196q0 67 25.5 128.5t74.5 111t127.5 78.5t176.5 29q143 0 227 -54v-231q-33 25 -87.5 44t-108.5 19q-74 0 -114 -37t-40 -96q0 -53 35 -100
t127 -127l424 -367q26 59 26 142q0 209 -223 276l160 150q135 -31 225 -144.5t90 -277.5q0 -168 -100 -301zM360 473q0 -119 95 -194.5t264 -75.5q123 0 213 41l-479 415q-93 -67 -93 -186z" />
    <glyph glyph-name="quotesingle" unicode="'" horiz-adv-x="593" 
d="M190 860l-36 467h288l-39 -467h-213z" />
    <glyph glyph-name="parenleft" unicode="(" horiz-adv-x="731" 
d="M451 -406q-79 65 -144 146t-119.5 187t-85 242t-30.5 288q0 153 30.5 288.5t85.5 242.5t120.5 189.5t146.5 149.5h329q-96 -80 -168 -163.5t-133 -189.5t-93 -237.5t-32 -283.5q0 -248 98.5 -458.5t327.5 -400.5h-333z" />
    <glyph glyph-name="parenright" unicode=")" horiz-adv-x="731" 
d="M-53 -406q229 190 327.5 400.5t98.5 458.5q0 152 -32 283.5t-93 237.5t-133 189.5t-168 163.5h332q81 -67 146.5 -149.5t120.5 -189.5t85.5 -242.5t30.5 -288.5q0 -152 -30.5 -288t-85 -242t-119.5 -187t-144 -146h-336z" />
    <glyph glyph-name="asterisk" unicode="*" horiz-adv-x="813" 
d="M322 717l20 201l-160 -119l-84 141l185 82l-185 82l84 141l160 -119l-20 201h170l-21 -201l158 119l86 -141l-187 -82l187 -82l-86 -141l-158 119l21 -201h-170z" />
    <glyph glyph-name="plus" unicode="+" 
d="M496 23v333h-324v213h324v334h243v-334h324v-213h-324v-333h-243z" />
    <glyph glyph-name="comma" unicode="," horiz-adv-x="587" 
d="M291 311q86 0 138 -56t52 -163q0 -103 -54.5 -208t-158.5 -177h-170q73 63 115.5 137t56.5 138q-72 2 -114.5 43.5t-42.5 113.5q0 76 50 124t128 48z" />
    <glyph glyph-name="hyphen" unicode="-" horiz-adv-x="571" 
d="M72 391v213h430v-213h-430z" />
    <glyph glyph-name="period" unicode="." horiz-adv-x="591" 
d="M297 -18q-72 0 -118 46t-46 119q0 71 48.5 117.5t115.5 46.5q70 0 116 -46.5t46 -119.5q0 -72 -46.5 -117.5t-115.5 -45.5z" />
    <glyph glyph-name="slash" unicode="/" horiz-adv-x="876" 
d="M0 -406l573 1733h281l-573 -1733h-281z" />
    <glyph glyph-name="zero" unicode="0" horiz-adv-x="1259" 
d="M629 -20q-163 0 -284 92t-182 246.5t-61 347.5q0 188 61 341t182.5 247t283.5 94q122 0 223 -54.5t167 -147.5t102 -216.5t36 -263.5q0 -191 -62 -345.5t-183.5 -247.5t-282.5 -93zM629 223q116 0 178.5 117t62.5 326q0 208 -62 325t-179 117q-114 0 -177 -116.5
t-63 -325.5q0 -208 63 -325.5t177 -117.5z" />
    <glyph glyph-name="one" unicode="1" horiz-adv-x="929" 
d="M428 0v1004l-289 -136v236l545 244h21v-1348h-277z" />
    <glyph glyph-name="two" unicode="2" horiz-adv-x="1110" 
d="M88 0v20l408 535q89 116 129.5 197t40.5 159q0 93 -55 145t-148 52t-178.5 -44.5t-134.5 -88.5v268q146 105 350 105q218 0 335 -114t117 -310q0 -120 -48 -215.5t-187 -276.5l-154 -199h412v-233h-887z" />
    <glyph glyph-name="three" unicode="3" horiz-adv-x="1144" 
d="M698 795q35 -2 73 -13t83 -38.5t79.5 -67.5t57.5 -106.5t23 -149.5q0 -215 -139.5 -327.5t-368.5 -112.5q-109 0 -206.5 23.5t-147.5 55.5v269q160 -107 327 -107q113 0 180.5 48.5t67.5 156.5q0 97 -57.5 152t-169.5 55q-115 0 -199 -64l-18 17l295 510h-414v231h829
v-20z" />
    <glyph glyph-name="four" unicode="4" horiz-adv-x="1169" 
d="M676 0v211h-649v20l886 1117h21v-932h182v-205h-182v-211h-258zM442 416h234v295z" />
    <glyph glyph-name="five" unicode="5" horiz-adv-x="1144" 
d="M502 -20q-222 0 -350 79v269q52 -43 136.5 -75t182.5 -32q123 0 187.5 53.5t64.5 159.5q0 102 -67 151.5t-173 49.5q-155 0 -264 -113l-20 6l106 799h629v-231h-397l-35 -267q47 23 119 23q171 0 280 -105.5t109 -304.5q0 -235 -132.5 -348.5t-375.5 -113.5z" />
    <glyph glyph-name="six" unicode="6" horiz-adv-x="1185" 
d="M678 874q80 0 152 -25.5t131.5 -75t95 -134t35.5 -193.5q0 -209 -132 -337.5t-356 -128.5q-227 0 -363.5 138.5t-136.5 377.5q0 247 142 482.5t346 348.5h403q-169 -93 -334 -245t-223 -287q86 79 240 79zM602 219q90 0 149.5 58.5t59.5 156.5t-59.5 153.5t-149.5 55.5
q-89 0 -150 -56t-61 -153q0 -96 60.5 -155.5t150.5 -59.5z" />
    <glyph glyph-name="seven" unicode="7" horiz-adv-x="1196" 
d="M319 0q20 257 121.5 573t245.5 521h-526v233h993v-20q-113 -112 -227.5 -318.5t-202 -475t-107.5 -513.5h-297z" />
    <glyph glyph-name="eight" unicode="8" horiz-adv-x="1191" 
d="M596 -20q-210 0 -335.5 109t-125.5 296q0 107 48 190t132 123q-64 27 -105.5 98.5t-41.5 166.5q0 175 121 280t307 105q118 0 214.5 -45t155 -133.5t58.5 -204.5q0 -93 -40.5 -164t-106.5 -99q180 -78 180 -307q0 -193 -125 -304t-336 -111zM596 805q62 0 108 42.5
t46 113.5q0 70 -45.5 110.5t-108.5 40.5q-61 0 -107.5 -42.5t-46.5 -111.5q0 -70 45.5 -111.5t108.5 -41.5zM594 219q76 0 129 47t53 129q0 81 -53 129.5t-127 48.5t-127 -48.5t-53 -131.5t50.5 -128.5t127.5 -45.5z" />
    <glyph glyph-name="nine" unicode="9" horiz-adv-x="1179" 
d="M580 1348q236 0 368.5 -133.5t132.5 -393.5q0 -238 -120 -451t-359 -370h-379q89 62 160.5 117.5t154 129.5t143 153t89.5 155q-90 -82 -242 -82q-106 0 -190 34t-136 92.5t-79 133.5t-27 160q0 197 131 326t353 129zM584 705q89 0 148 55t59 149q0 96 -60.5 151.5
t-146.5 55.5t-145.5 -56.5t-59.5 -150.5t58.5 -149t146.5 -55z" />
    <glyph glyph-name="colon" unicode=":" horiz-adv-x="591" 
d="M297 627q-72 0 -118 46.5t-46 119.5q0 71 48 117t116 46q70 0 116 -46t46 -119q0 -72 -46.5 -118t-115.5 -46zM297 -18q-72 0 -118 46t-46 119q0 71 48.5 117.5t115.5 46.5q70 0 116 -46.5t46 -119.5q0 -72 -46.5 -117.5t-115.5 -45.5z" />
    <glyph glyph-name="semicolon" unicode=";" horiz-adv-x="561" 
d="M295 627q-72 0 -118 46.5t-46 119.5q0 71 48 117t116 46q70 0 116 -46t46 -119q0 -72 -46.5 -118t-115.5 -46zM291 311q86 0 138 -56t52 -163q0 -103 -54.5 -208t-158.5 -177h-170q73 63 115.5 137t56.5 138q-72 2 -114.5 43.5t-42.5 113.5q0 76 50 124t128 48z" />
    <glyph glyph-name="less" unicode="&#x3c;" 
d="M1061 -8l-889 461v20l889 461v-256l-443 -209l443 -211v-266z" />
    <glyph glyph-name="equal" unicode="=" 
d="M172 543v213h891v-213h-891zM172 170v213h891v-213h-891z" />
    <glyph glyph-name="greater" unicode="&#x3e;" 
d="M172 -8v256l440 209l-440 211v266l889 -461v-20z" />
    <glyph glyph-name="question" unicode="?" horiz-adv-x="899" 
d="M256 428v313q133 0 208 53.5t75 149.5q0 82 -55 126t-152 44q-80 0 -158 -34.5t-117 -71.5v252q38 32 124.5 60t201.5 28q208 0 323 -103t115 -284q0 -154 -85 -248.5t-210 -114.5v-170h-270zM389 -18q-72 0 -118 46t-46 117q0 72 48 119t116 47q70 0 116 -46.5
t46 -119.5q0 -72 -47 -117.5t-115 -45.5z" />
    <glyph glyph-name="at" unicode="@" horiz-adv-x="2058" 
d="M1044 -424q-207 0 -381.5 61.5t-301 174.5t-197 283t-70.5 378q0 171 49 318t137 256t208.5 186.5t266 116.5t306.5 39q147 0 281.5 -33t247.5 -100t196.5 -161.5t130.5 -224t47 -280.5q0 -256 -128.5 -399.5t-336.5 -143.5q-98 0 -173.5 35t-104.5 104
q-42 -72 -118.5 -105.5t-156.5 -33.5q-96 0 -175 41.5t-130 132t-51 217.5q0 88 27 167.5t76.5 141t125.5 98t168 36.5q171 0 236 -125l14 100h209l-31 -291q-16 -136 -16 -180q0 -66 27.5 -101.5t95.5 -35.5q91 0 139.5 73.5t48.5 217.5q0 157 -52 281t-143 201t-207.5 117
t-250.5 40q-316 0 -511.5 -196.5t-195.5 -514.5q0 -315 191 -494.5t512 -179.5q189 0 369.5 57.5t287.5 122.5v-237q-17 -13 -73 -37t-142 -53t-208.5 -49.5t-242.5 -20.5zM987 258q81 0 128.5 65t47.5 162q0 87 -37.5 137t-107.5 50q-82 0 -131 -65t-49 -167
q0 -87 39.5 -134.5t109.5 -47.5z" />
    <glyph glyph-name="A" unicode="A" horiz-adv-x="1312" 
d="M35 0l612 1348h21l610 -1348h-301l-86 205h-479l-86 -205h-291zM498 424h313l-158 369z" />
    <glyph glyph-name="B" unicode="B" horiz-adv-x="1212" 
d="M897 707q43 -11 80.5 -32t75 -58t59 -97.5t21.5 -138.5q0 -381 -537 -381h-442v1327h368q60 0 110.5 -3.5t106.5 -13.5t100.5 -26.5t86 -44.5t69 -64.5t44 -89.5t16.5 -118q0 -102 -45 -167t-113 -93zM770 944q0 41 -14 70.5t-36 46t-56.5 26t-67.5 12.5t-78 3h-84v-318
h82q58 0 98.5 6t78.5 22t57.5 49t19.5 83zM582 229q45 0 77.5 2.5t70.5 12.5t61 27.5t39 49.5t16 76t-17 76t-40.5 48.5t-62 26t-68.5 11.5t-72 2h-152v-332h148z" />
    <glyph glyph-name="C" unicode="C" horiz-adv-x="1300" 
d="M797 -20q-165 0 -299 52.5t-221.5 145t-135 216.5t-47.5 268q0 198 85.5 354t244.5 244t367 88q118 0 215.5 -26.5t156.5 -64.5v-276q-163 111 -358 111q-187 0 -304.5 -118.5t-117.5 -307.5q0 -199 121.5 -313.5t312.5 -114.5q205 0 367 110v-280q-55 -36 -159 -62
t-228 -26z" />
    <glyph glyph-name="D" unicode="D" horiz-adv-x="1392" 
d="M424 1327q93 0 169.5 -5t169.5 -21t165.5 -43.5t144.5 -77t119 -116t76.5 -164.5t29.5 -220q0 -121 -28.5 -220.5t-76.5 -169t-117.5 -122.5t-143 -84t-162.5 -50.5t-167 -26.5t-165 -7h-284v1327h270zM434 229q576 4 576 451q0 104 -31.5 180.5t-82 121.5t-129 72
t-155.5 36t-178 10v-871z" />
    <glyph glyph-name="E" unicode="E" horiz-adv-x="1077" 
d="M154 0v1327h821v-231h-541v-303h381v-232h-381v-328h565v-233h-845z" />
    <glyph glyph-name="F" unicode="F" horiz-adv-x="1042" 
d="M154 0v1327h827v-231h-547v-334h391v-230h-391v-532h-280z" />
    <glyph glyph-name="G" unicode="G" horiz-adv-x="1458" 
d="M782 -20q-141 0 -256.5 37.5t-194.5 101.5t-133.5 152t-79 187.5t-24.5 209.5q0 310 191.5 495t502.5 185q84 0 163 -14.5t133.5 -36t83.5 -36t44 -24.5v-272q-69 50 -177 89.5t-226 39.5q-86 0 -162.5 -27.5t-135.5 -79.5t-93.5 -133.5t-34.5 -181.5
q0 -201 111.5 -318.5t287.5 -117.5q144 0 230.5 72t93.5 214h-358v223h634v-59q0 -80 -7 -150.5t-25.5 -143.5t-47.5 -132t-76 -112.5t-108 -89.5t-146.5 -57t-189.5 -21z" />
    <glyph glyph-name="H" unicode="H" horiz-adv-x="1429" 
d="M154 0v1327h280v-534h561v534h281v-1327h-281v557h-561v-557h-280z" />
    <glyph glyph-name="I" unicode="I" horiz-adv-x="587" 
d="M154 0v1327h280v-1327h-280z" />
    <glyph glyph-name="J" unicode="J" horiz-adv-x="966" 
d="M371 -20q-84 0 -157.5 14.5t-111.5 34.5v252q83 -58 213 -58q46 0 81 8.5t59 22t41 37.5t26 47t14 58.5t6 63.5t1 70v568h-303v229h585v-864q0 -483 -454 -483z" />
    <glyph glyph-name="K" unicode="K" horiz-adv-x="1390" 
d="M154 0v1327h280v-633l553 633h361l-586 -647l598 -680h-375l-551 647v-647h-280z" />
    <glyph glyph-name="L" unicode="L" horiz-adv-x="1081" 
d="M154 0v1327h280v-1094h586v-233h-866z" />
    <glyph glyph-name="M" unicode="M" horiz-adv-x="1757" 
d="M870 -20l-368 645l-113 -625h-283l269 1348h20l486 -854l481 854h20l269 -1348h-277l-117 627l-366 -647h-21z" />
    <glyph glyph-name="N" unicode="N" horiz-adv-x="1445" 
d="M1274 -20l-846 782v-762h-274v1348h20l844 -783l2 762h274v-1347h-20z" />
    <glyph glyph-name="O" unicode="O" horiz-adv-x="1560" 
d="M776 -20q-205 0 -361 88t-238.5 243t-82.5 353q0 200 84.5 355t242 242t365.5 87q205 0 360 -86.5t237.5 -240.5t82.5 -353q0 -197 -83.5 -353t-241.5 -245.5t-365 -89.5zM784 238q170 0 282 116t112 310q0 195 -114.5 311.5t-283.5 116.5q-171 0 -284 -116t-113 -308
q0 -196 114 -313t287 -117z" />
    <glyph glyph-name="P" unicode="P" horiz-adv-x="1196" 
d="M557 1327q64 0 118 -4t114.5 -16t108 -31.5t92.5 -53.5t74.5 -79t47.5 -111t18 -147q0 -69 -13.5 -128t-36 -102t-56.5 -78t-69.5 -58t-81.5 -40t-86.5 -26t-89.5 -14.5t-85 -7t-80 -1.5h-98v-430h-280v1327h403zM514 655q42 0 74.5 2.5t73.5 10t70.5 23.5t55.5 40t40 63
t14 89q0 58 -21 100.5t-51 64.5t-77.5 35t-86 16t-90.5 3h-82v-447h80z" />
    <glyph glyph-name="Q" unicode="Q" horiz-adv-x="1560" 
d="M1528 86l-139 -172l-218 176q-162 -110 -395 -110q-205 0 -361 88t-238.5 243t-82.5 353q0 200 84.5 355t242 242t365.5 87q205 0 360 -86.5t237.5 -240.5t82.5 -353q0 -251 -133 -424zM383 668q0 -196 114 -313t287 -117q97 0 168 32l-180 146l137 174l211 -172
q58 110 58 246q0 195 -114.5 311.5t-283.5 116.5q-171 0 -284 -116t-113 -308z" />
    <glyph glyph-name="R" unicode="R" horiz-adv-x="1239" 
d="M856 498l338 -498h-340l-283 455h-137v-455h-280v1327h405q89 0 161 -9t148.5 -37t128 -74t84.5 -126t33 -188q0 -157 -72.5 -255.5t-185.5 -139.5zM524 680q53 0 93.5 4.5t81 18t67 36.5t43 62t16.5 92q0 54 -18 93t-46 61t-70 35t-80 16.5t-87 3.5h-90v-422h90z" />
    <glyph glyph-name="S" unicode="S" horiz-adv-x="1024" 
d="M479 -20q-193 0 -360 79v275q72 -50 164.5 -82.5t187.5 -32.5q89 0 135.5 35.5t46.5 99.5q0 48 -29 84.5t-75 62t-102 51t-112 59t-102 76.5t-75 114t-29 162q0 179 114.5 282t319.5 103q95 0 182 -20t132 -44v-272q-66 42 -145 70t-150 28q-81 0 -124.5 -36t-43.5 -99
q0 -46 29 -81.5t75.5 -60t103 -49t113 -57t103 -75.5t75.5 -113.5t29 -161.5q0 -191 -120 -294t-343 -103z" />
    <glyph glyph-name="T" unicode="T" horiz-adv-x="1150" 
d="M436 0v1096h-362v231h1003v-231h-360v-1096h-281z" />
    <glyph glyph-name="U" unicode="U" horiz-adv-x="1353" 
d="M676 -20q-266 0 -400.5 132.5t-134.5 426.5v788h283v-735q0 -49 2 -86.5t9 -76.5t18 -67.5t30.5 -55t46 -42.5t64 -25.5t84.5 -9.5q65 0 111.5 18t73.5 47.5t43 78.5t21 99t5 120v735h280v-786q0 -297 -134.5 -429t-401.5 -132z" />
    <glyph glyph-name="V" unicode="V" horiz-adv-x="1366" 
d="M674 -18l-639 1345h311l338 -782l344 782h305l-639 -1345h-20z" />
    <glyph glyph-name="W" unicode="W" horiz-adv-x="2088" 
d="M655 -18l-606 1345h311l314 -752l362 752h21l360 -752l320 752h303l-604 -1345h-21l-368 768l-371 -768h-21z" />
    <glyph glyph-name="X" unicode="X" horiz-adv-x="1339" 
d="M35 0l461 674l-449 653h340l283 -448l293 448h329l-448 -651l461 -676h-342l-295 475l-306 -475h-327z" />
    <glyph glyph-name="Y" unicode="Y" horiz-adv-x="1302" 
d="M508 0v526l-473 801h311l311 -557l310 557h301l-477 -801v-526h-283z" />
    <glyph glyph-name="Z" unicode="Z" horiz-adv-x="1220" 
d="M74 0v20l631 1076h-586v231h1028v-20l-627 -1074h623v-233h-1069z" />
    <glyph glyph-name="bracketleft" unicode="[" horiz-adv-x="724" 
d="M154 -406v1733h512v-225h-240v-1282h240v-226h-512z" />
    <glyph glyph-name="backslash" unicode="\" horiz-adv-x="876" 
d="M596 -406l-573 1733h280l574 -1733h-281z" />
    <glyph glyph-name="bracketright" unicode="]" horiz-adv-x="724" 
d="M59 -406v226h240v1282h-240v225h512v-1733h-512z" />
    <glyph glyph-name="asciicircum" unicode="^" 
d="M162 659l446 689h21l442 -689h-289l-164 275l-165 -275h-291z" />
    <glyph glyph-name="underscore" unicode="_" horiz-adv-x="839" 
d="M0 -381v213h840v-213h-840z" />
    <glyph glyph-name="grave" unicode="`" horiz-adv-x="1050" 
d="M569 1065l-340 346h363l248 -346h-271z" />
    <glyph glyph-name="a" unicode="a" horiz-adv-x="1058" 
d="M512 942q216 0 322 -97.5t106 -297.5v-547h-250l-6 90q-85 -108 -270 -108q-156 0 -249 78t-93 212q0 143 105 227.5t290 84.5q105 0 203 -37v10q0 36 -9.5 67t-31 58.5t-61.5 43t-95 15.5q-147 0 -297 -90v217q145 74 336 74zM492 160q81 0 129.5 48.5t48.5 149.5v21
q-72 35 -164 35q-74 0 -117 -32.5t-43 -94.5q0 -58 40 -92.5t106 -34.5z" />
    <glyph glyph-name="b" unicode="b" horiz-adv-x="1206" 
d="M684 -18q-99 0 -177 33.5t-120 90.5l-4 -106h-250v1358h273v-518q99 102 278 102q204 0 327.5 -134t123.5 -345q0 -216 -129 -348.5t-322 -132.5zM625 211q103 0 166 71.5t63 184.5q0 110 -63 179t-166 69q-108 0 -170 -73.5t-62 -180.5q0 -113 64.5 -181.5t167.5 -68.5z
" />
    <glyph glyph-name="c" unicode="c" horiz-adv-x="911" 
d="M567 -18q-76 0 -146.5 16.5t-134.5 53t-111 89.5t-75 131.5t-28 173.5q0 223 137.5 359.5t363.5 136.5q146 0 246 -51v-240q-100 66 -213 66q-110 0 -182 -68t-72 -192q0 -120 68 -184t182 -64q123 0 227 72v-242q-37 -22 -110 -39.5t-152 -17.5z" />
    <glyph glyph-name="d" unicode="d" horiz-adv-x="1206" 
d="M524 -18q-94 0 -176 32.5t-143.5 92.5t-97 151.5t-35.5 202.5q0 216 124.5 348.5t325.5 132.5q184 0 279 -100v516h272v-1358h-250l-6 104q-38 -56 -114 -89t-179 -33zM584 211q99 0 164 70t65 186q0 115 -65.5 181.5t-163.5 66.5q-105 0 -168.5 -72.5t-63.5 -179.5
q0 -113 66 -182.5t166 -69.5z" />
    <glyph glyph-name="e" unicode="e" horiz-adv-x="1062" 
d="M586 -18q-240 0 -377 121t-137 352q0 141 52.5 250t159.5 173t257 64q118 0 207.5 -38.5t141.5 -105.5t77.5 -150t25.5 -179q0 -45 -8 -92h-633q25 -176 279 -176q165 0 313 78v-222q-150 -75 -358 -75zM352 549h367q-5 78 -52 127t-126 49q-75 0 -127.5 -48.5
t-61.5 -127.5z" />
    <glyph glyph-name="f" unicode="f" horiz-adv-x="763" 
d="M213 0v711h-160v213h160v73q0 394 379 394q103 0 192 -33v-230q-81 35 -151 35q-86 0 -117 -46t-31 -132v-61h209v-213h-209v-711h-272z" />
    <glyph glyph-name="g" unicode="g" horiz-adv-x="1210" 
d="M565 -426q-196 0 -297 43v229q129 -47 264 -47q137 0 205 71t68 218v18q-44 -47 -116.5 -76.5t-164.5 -29.5q-208 0 -330 130t-122 335q0 215 131.5 346t326.5 131q95 0 172 -31t123 -88l4 101h248v-832q0 -149 -36 -252.5t-106 -160.5t-159.5 -81t-210.5 -24zM578 227
q96 0 160.5 65t64.5 179q0 111 -59 178.5t-162 67.5q-101 0 -165.5 -67t-64.5 -181q0 -113 63.5 -177.5t162.5 -64.5z" />
    <glyph glyph-name="h" unicode="h" horiz-adv-x="1118" 
d="M133 0v1358h273v-514q86 98 247 98q167 0 256.5 -94.5t89.5 -286.5v-561h-272v508q0 47 -5.5 80.5t-20.5 65t-46 47.5t-77 16q-45 0 -77.5 -15.5t-50.5 -40t-28 -65t-13 -78t-3 -92.5v-426h-273z" />
    <glyph glyph-name="i" unicode="i" horiz-adv-x="565" 
d="M297 1096q-66 0 -108 41.5t-42 107.5q0 63 44.5 106.5t105.5 43.5q63 0 105 -43t42 -109q0 -65 -41.5 -106t-105.5 -41zM160 0v711h-119v213h391v-924h-272z" />
    <glyph glyph-name="j" unicode="j" horiz-adv-x="565" 
d="M297 1096q-66 0 -108 41.5t-42 107.5q0 63 44.5 106.5t105.5 43.5q63 0 105 -43t42 -109q0 -65 -41.5 -106t-105.5 -41zM-6 -424q-106 0 -170 25v219q60 -25 133 -25q109 0 156 65.5t47 200.5v650h-119v213h391v-850q0 -140 -30.5 -238.5t-90 -154.5t-137 -80.5
t-180.5 -24.5z" />
    <glyph glyph-name="k" unicode="k" horiz-adv-x="1107" 
d="M133 0v1358h273v-846l329 412h342l-370 -426l389 -498h-342l-348 471v-471h-273z" />
    <glyph glyph-name="l" unicode="l" horiz-adv-x="536" 
d="M133 0v1358h273v-1358h-273z" />
    <glyph glyph-name="m" unicode="m" horiz-adv-x="1667" 
d="M133 0v924h248l6 -105q37 54 103.5 88.5t146.5 34.5q90 0 160.5 -35t111.5 -100q49 71 128 103t155 32q178 0 267 -100.5t89 -294.5v-547h-272v518q0 34 -2 58.5t-10 52.5t-22.5 46t-40.5 30t-62 12q-42 0 -72 -15.5t-47 -40t-27 -64.5t-13 -80t-3 -95v-422h-272v518
q0 33 -2 58t-10.5 53t-23 46t-40.5 30t-62 12q-42 0 -71.5 -15.5t-47 -40t-27 -64.5t-12.5 -79.5t-3 -95.5v-422h-273z" />
    <glyph glyph-name="n" unicode="n" horiz-adv-x="1118" 
d="M133 0v924h248l6 -103q82 121 266 121q167 0 256.5 -94.5t89.5 -286.5v-561h-272v508q0 47 -5.5 80.5t-21 65t-47 47.5t-78.5 16q-45 0 -76.5 -16t-49.5 -40t-28 -65t-12.5 -78.5t-2.5 -91.5v-426h-273z" />
    <glyph glyph-name="o" unicode="o" horiz-adv-x="1167" 
d="M580 -18q-231 0 -369.5 131t-138.5 344q0 214 141 349.5t377 135.5q230 0 368 -126t138 -345q0 -221 -143 -355t-373 -134zM584 211q105 0 167 71.5t62 184.5q0 110 -63 179t-166 69q-108 0 -170 -75t-62 -177q0 -109 64.5 -180.5t167.5 -71.5z" />
    <glyph glyph-name="p" unicode="p" horiz-adv-x="1206" 
d="M133 -406v1330h248l6 -103q100 121 297 121q203 0 327 -134.5t124 -342.5q0 -217 -128 -350t-321 -133q-89 0 -162.5 28t-120.5 76l3 -492h-273zM625 211q103 0 166 71.5t63 184.5q0 110 -63 179t-166 69q-108 0 -170 -73.5t-62 -178.5q0 -115 64 -183.5t168 -68.5z" />
    <glyph glyph-name="q" unicode="q" horiz-adv-x="1206" 
d="M801 -424v510q-97 -104 -277 -104q-93 0 -174.5 32.5t-143.5 92t-98 151.5t-36 203q0 216 124.5 348.5t327.5 132.5q202 0 297 -121l4 103h248v-1227zM584 211q99 0 164 70t65 186q0 115 -65.5 181.5t-163.5 66.5q-105 0 -168.5 -72.5t-63.5 -179.5q0 -113 66 -182.5
t166 -69.5z" />
    <glyph glyph-name="r" unicode="r" horiz-adv-x="704" 
d="M133 0v924h248l6 -109q41 62 111 94.5t147 32.5q29 0 35 -2v-244q-8 6 -34 13.5t-56 7.5q-48 0 -82 -15.5t-53.5 -40t-30.5 -64.5t-14.5 -79t-3.5 -94v-424h-273z" />
    <glyph glyph-name="s" unicode="s" horiz-adv-x="796" 
d="M373 -18q-80 0 -155 15.5t-118 37.5v215q41 -24 113 -48t141 -24q60 0 90.5 24.5t30.5 65.5q0 33 -20.5 56t-53.5 37.5t-72.5 28.5t-79.5 34.5t-73 48.5t-53.5 77t-20.5 114q0 140 90.5 209t247.5 69q74 0 134.5 -13t87.5 -28v-213q-114 60 -203 60q-51 0 -77 -20.5
t-26 -53.5q0 -28 20.5 -47.5t53 -33t72 -26.5t79.5 -33.5t72.5 -49.5t53 -79t20.5 -116q0 -150 -96.5 -228.5t-257.5 -78.5z" />
    <glyph glyph-name="t" unicode="t" horiz-adv-x="839" 
d="M547 -18q-177 0 -265.5 86t-88.5 268v375h-166v20q64 68 215.5 240.5t201.5 238.5h21v-286h254v-213h-254v-338q0 -84 28.5 -126t114.5 -42q73 0 152 35v-220q-78 -38 -213 -38z" />
    <glyph glyph-name="u" unicode="u" horiz-adv-x="1064" 
d="M532 -18q-95 0 -168.5 23.5t-119 61.5t-74.5 93t-40 112.5t-11 124.5v527h272v-531q0 -188 144 -188q143 0 143 188v531h268v-527q0 -65 -11 -121.5t-39.5 -112t-74 -94.5t-119.5 -63t-170 -24z" />
    <glyph glyph-name="v" unicode="v" horiz-adv-x="1044" 
d="M514 -18l-504 942h299l215 -467l221 467h289l-499 -942h-21z" />
    <glyph glyph-name="w" unicode="w" horiz-adv-x="1468" 
d="M485 -18l-460 942h299l184 -435l219 435h21l219 -435l188 435h291l-455 -942h-20l-234 464l-231 -464h-21z" />
    <glyph glyph-name="x" unicode="x" horiz-adv-x="1132" 
d="M29 0l370 463l-362 461h325l205 -287l213 287h316l-365 -461l373 -463h-326l-215 283l-217 -283h-317z" />
    <glyph glyph-name="y" unicode="y" horiz-adv-x="1056" 
d="M178 -406l209 467l-375 863h299l217 -555l226 555h290l-571 -1330h-295z" />
    <glyph glyph-name="z" unicode="z" horiz-adv-x="954" 
d="M51 0v20l428 691h-393v213h817v-21l-426 -688h434v-215h-860z" />
    <glyph glyph-name="braceleft" unicode="{" horiz-adv-x="817" 
d="M532 -424q-181 0 -285 87t-104 235q0 66 22 127t49 99.5t49 87.5t22 95q0 66 -44.5 115t-117.5 55v43q71 5 116.5 43.5t45.5 102.5q0 35 -14.5 71.5t-35.5 69.5t-42 69.5t-35.5 85.5t-14.5 103q0 148 104 236t285 88q131 0 224 -39v-207q-76 43 -183 43q-73 0 -115 -37
t-42 -102q0 -49 22 -98.5t48.5 -85t48.5 -86t22 -101.5q0 -148 -190 -176q29 -4 59.5 -17.5t61 -36.5t50 -62t19.5 -87q0 -53 -22 -106t-48.5 -89.5t-48.5 -86t-22 -97.5q0 -68 41.5 -102.5t115.5 -34.5q105 0 183 43v-211q-94 -37 -224 -37z" />
    <glyph glyph-name="bar" unicode="|" horiz-adv-x="569" 
d="M145 -406v1733h279v-1733h-279z" />
    <glyph glyph-name="braceright" unicode="}" horiz-adv-x="817" 
d="M285 -424q-129 0 -226 37v211q78 -43 183 -43q75 0 117 34.5t42 102.5q0 48 -22 97.5t-48.5 86t-48.5 89.5t-22 106q0 48 19.5 87t50 62t61.5 36.5t60 17.5q-191 29 -191 176q0 50 22 100.5t48.5 86t48.5 85.5t22 99q0 64 -42.5 101.5t-116.5 37.5q-104 0 -183 -43v207
q96 39 226 39q181 0 285 -88t104 -236q0 -54 -14.5 -103.5t-35.5 -86t-42 -69.5t-35.5 -69t-14.5 -71q0 -64 45.5 -102.5t116.5 -43.5v-43q-73 -6 -117.5 -55t-44.5 -115q0 -37 14.5 -75t35.5 -72.5t42 -71t35.5 -86.5t14.5 -104q0 -148 -104 -235t-285 -87z" />
    <glyph glyph-name="asciitilde" unicode="~" 
d="M778 311q-51 0 -102 15.5t-85.5 34t-72.5 34t-65 15.5q-41 0 -59.5 -25.5t-20.5 -58.5h-201q2 133 74.5 210.5t206.5 77.5q69 0 127.5 -24.5t106 -49t89.5 -24.5t63 27t23 57h201q-2 -133 -77.5 -211t-207.5 -78z" />
    <glyph glyph-name="uni00A0" unicode="&#xa0;" horiz-adv-x="430" 
 />
    <glyph glyph-name="exclamdown" unicode="&#xa1;" horiz-adv-x="630" 
d="M315 610q-67 0 -114 46.5t-47 117.5q0 74 44.5 120t116.5 46q69 0 115.5 -46t46.5 -118q0 -73 -46 -119.5t-116 -46.5zM168 -406l12 900h271l8 -900h-291z" />
    <glyph glyph-name="cent" unicode="&#xa2;" horiz-adv-x="980" 
d="M575 0v184q-93 3 -175.5 32t-150.5 83.5t-107.5 144.5t-39.5 205q0 215 129 350t344 146v182h123v-182q114 -8 201 -49v-234q-107 67 -201 76v-545q103 8 209 84v-239q-74 -42 -209 -52v-186h-123zM575 391v551q-81 -10 -147 -83.5t-66 -196.5q0 -114 56.5 -187.5
t156.5 -83.5z" />
    <glyph glyph-name="sterling" unicode="&#xa3;" horiz-adv-x="1001" 
d="M82 0v20q126 149 192 260.5t66 196.5q0 33 -10 60h-228v227h123q-51 83 -51 188q0 178 120.5 287t323.5 109q97 0 180.5 -25t131.5 -59v-260q-31 33 -112.5 69.5t-164.5 36.5q-93 0 -144.5 -49.5t-51.5 -126.5q0 -83 63 -170h305v-227h-217q10 -27 10 -60
q0 -126 -100 -244h443v-233h-879z" />
    <glyph glyph-name="currency" unicode="&#xa4;" 
d="M326 186l-181 176l148 148q-31 74 -31 139q0 73 33 144l-150 151l181 176l149 -149q74 33 141 33q74 0 142 -33l151 149l181 -176l-152 -151q33 -74 33 -144q0 -61 -31 -139l150 -148l-183 -176l-143 144q-68 -35 -148 -35q-69 0 -143 33zM616 485q73 0 119.5 42.5
t46.5 119.5t-47.5 122.5t-118.5 45.5q-72 0 -117.5 -45.5t-45.5 -122.5q0 -75 46 -118.5t117 -43.5z" />
    <glyph glyph-name="yen" unicode="&#xa5;" horiz-adv-x="1173" 
d="M449 0v305h-297v205h305l-70 135h-264v205h139l-258 477h311l277 -588l274 588h301l-258 -477h133v-205h-262l-69 -135h303v-205h-293v-305h-272z" />
    <glyph glyph-name="brokenbar" unicode="&#xa6;" horiz-adv-x="569" 
d="M145 649v678h279v-678h-279zM145 -406v678h279v-678h-279z" />
    <glyph glyph-name="section" unicode="&#xa7;" horiz-adv-x="888" 
d="M414 -426q-173 0 -305 53v219q151 -69 290 -69q168 0 168 133q0 43 -28 76.5t-72 56.5t-98 46t-108 52t-98 65.5t-72 95.5t-28 134q0 102 58.5 176.5t142.5 110.5q-164 90 -164 266q0 93 33 164t90 112.5t127.5 62t151.5 20.5q130 0 235 -43v-215q-108 55 -221 55
q-81 0 -124.5 -36t-43.5 -97q0 -43 28 -77.5t72.5 -59.5t98.5 -49.5t108 -55t98.5 -67.5t72.5 -95.5t28 -132.5q0 -105 -55 -178.5t-135 -110.5q153 -81 153 -260q0 -75 -22 -137t-68 -111t-126 -76.5t-187 -27.5zM475 276q58 19 100.5 61.5t42.5 113.5q0 65 -42 105.5
t-142 82.5q-47 -14 -90 -58.5t-43 -113.5q0 -31 10.5 -57t25 -44t41 -36t45.5 -28t52 -26z" />
    <glyph glyph-name="dieresis" unicode="&#xa8;" horiz-adv-x="1040" 
d="M309 1096q-67 0 -108 41.5t-41 107.5q0 64 43.5 107t105.5 43t105 -43.5t43 -108.5t-42 -106t-106 -41zM754 1096q-67 0 -108.5 41.5t-41.5 107.5q0 64 44 107t106 43t103.5 -43t41.5 -109q0 -65 -40.5 -106t-104.5 -41z" />
    <glyph glyph-name="copyright" unicode="&#xa9;" horiz-adv-x="1560" 
d="M778 -20q-139 0 -265 52t-218 142t-146.5 218t-54.5 272t54.5 272t146.5 218t218 142t265 52t265.5 -52t219.5 -142t148 -218t55 -272t-55 -272t-148 -218t-219.5 -142t-265.5 -52zM780 156q217 0 351.5 143t134.5 367q0 223 -134.5 364t-351.5 141q-216 0 -350.5 -141.5
t-134.5 -363.5q0 -224 134.5 -367t350.5 -143zM807 326q-147 0 -246.5 85t-99.5 246q0 158 95 253.5t257 95.5q95 0 172 -35v-168q-68 47 -149 47q-78 0 -129.5 -48.5t-51.5 -139.5q0 -81 43.5 -130t135.5 -49q82 0 157 52v-168q-72 -41 -184 -41z" />
    <glyph glyph-name="ordfeminine" unicode="&#xaa;" horiz-adv-x="757" 
d="M315 649q-111 0 -177 57t-66 158q0 108 75 164.5t203 56.5q74 0 139 -26v10q0 58 -30 89.5t-107 31.5q-110 0 -205 -45v158q31 16 96.5 30.5t147.5 14.5q154 0 223.5 -71.5t69.5 -207.5v-405h-160l-4 65q-70 -80 -205 -80zM381 956q-44 0 -73 -21.5t-29 -60.5t24.5 -60
t67.5 -21q59 0 88.5 34.5t29.5 92.5v14q-53 22 -108 22zM80 567h612v-166h-612v166z" />
    <glyph glyph-name="guillemotleft" unicode="&#xab;" horiz-adv-x="1359" 
d="M358 152l-286 321l286 322h312l-297 -322l297 -321h-312zM913 152l-286 321l286 322h314l-297 -322l297 -321h-314z" />
    <glyph glyph-name="logicalnot" unicode="&#xac;" 
d="M817 180v355h-645v213h891v-568h-246z" />
    <glyph glyph-name="uni00AD" unicode="&#xad;" horiz-adv-x="571" 
d="M72 391v213h430v-213h-430z" />
    <glyph glyph-name="registered" unicode="&#xae;" horiz-adv-x="1560" 
d="M778 -20q-139 0 -265 52t-218 142t-146.5 218t-54.5 272t54.5 272t146.5 218t218 142t265 52t265.5 -52t219.5 -142t148 -218t55 -272t-55 -272t-148 -218t-219.5 -142t-265.5 -52zM780 156q217 0 351.5 143t134.5 367q0 223 -134.5 364t-351.5 141q-216 0 -350.5 -141.5
t-134.5 -363.5q0 -224 134.5 -367t350.5 -143zM545 334v663h256q42 0 76 -4.5t69 -18.5t58 -37t38 -62.5t15 -92.5q0 -153 -115 -198l141 -250h-192l-121 229h-53v-229h-172zM717 686h39q70 0 98.5 18.5t28.5 77.5q0 28 -8.5 46t-26.5 26.5t-37 11t-49 2.5h-45v-182z" />
    <glyph glyph-name="macron" unicode="&#xaf;" horiz-adv-x="1046" 
d="M219 1130v213h633v-213h-633z" />
    <glyph glyph-name="degree" unicode="&#xb0;" horiz-adv-x="1083" 
d="M543 836q-111 0 -186.5 72t-75.5 184q0 111 76 183.5t186 72.5t186 -72.5t76 -183.5q0 -112 -75.5 -184t-186.5 -72zM543 975q48 0 80 31.5t32 85.5q0 52 -32.5 84t-79.5 32q-48 0 -80.5 -31t-32.5 -85t32 -85.5t81 -31.5z" />
    <glyph glyph-name="plusminus" unicode="&#xb1;" 
d="M496 301v336h-324v213h324v332h243v-332h324v-213h-324v-336h-243zM172 0v213h891v-213h-891z" />
    <glyph glyph-name="uni00B2" unicode="&#xb2;" horiz-adv-x="788" 
d="M111 539v18l223 320q46 66 69 111t23 83q0 49 -29 73.5t-75 24.5q-93 0 -183 -84v197q87 66 217 66q135 0 207 -70.5t72 -187.5q0 -73 -29.5 -133t-111.5 -169l-58 -77h215v-172h-540z" />
    <glyph glyph-name="uni00B3" unicode="&#xb3;" horiz-adv-x="788" 
d="M352 518q-132 0 -213 43v199q103 -64 197 -64q121 0 121 99q0 46 -30 72t-91 26q-64 0 -111 -35l-12 12l160 285h-228v172h510v-16l-172 -303q73 -4 128 -56.5t55 -163.5q0 -134 -85.5 -202t-228.5 -68z" />
    <glyph glyph-name="acute" unicode="&#xb4;" horiz-adv-x="1050" 
d="M231 1065l248 346h361l-342 -346h-267z" />
    <glyph glyph-name="uni00B5" unicode="&#xb5;" horiz-adv-x="1122" 
d="M717 924h272v-924h-248l-6 115q-33 -57 -90 -86t-117 -29q-83 0 -129 41v-447h-266v1330h273v-498q0 -37 3 -65t12.5 -56.5t25 -46.5t42.5 -29.5t64 -11.5q43 0 73.5 16t48 40.5t27 64.5t12.5 78t3 92v416z" />
    <glyph glyph-name="paragraph" unicode="&#xb6;" horiz-adv-x="1628" 
d="M643 -424q-104 0 -176 31v200q35 -14 82 -14q51 0 69.5 24.5t18.5 73.5v539h-21q-60 0 -109.5 3.5t-108.5 14.5t-104 30t-89.5 52.5t-73.5 78.5t-47 111.5t-18 149.5q0 89 21 160t53.5 118t82.5 81.5t97.5 52.5t109.5 29t108 13.5t103 2.5h948v-231h-227v-1502h-283v1502
h-161v-1237q0 -64 -12.5 -112.5t-42.5 -88.5t-85 -61t-135 -21z" />
    <glyph glyph-name="periodcentered" unicode="&#xb7;" horiz-adv-x="591" 
d="M297 311q-72 0 -118 46.5t-46 119.5q0 70 48 116t116 46q70 0 116 -45.5t46 -118.5t-46.5 -118.5t-115.5 -45.5z" />
    <glyph glyph-name="cedilla" unicode="&#xb8;" horiz-adv-x="1062" 
d="M475 -424q-92 0 -139 21v137q17 -10 49 -19.5t59 -9.5q80 0 80 62q0 59 -65 59q-42 0 -72 -27l-18 11l67 237h154l-39 -127q4 2 12 2q65 -2 110.5 -40.5t45.5 -119.5q0 -42 -14 -75t-37 -53.5t-55 -33.5t-66 -18.5t-72 -5.5z" />
    <glyph glyph-name="uni00B9" unicode="&#xb9;" horiz-adv-x="788" 
d="M332 539v553l-197 -91v177l383 170h17v-809h-203z" />
    <glyph glyph-name="ordmasculine" unicode="&#xba;" horiz-adv-x="849" 
d="M424 649q-158 0 -255 95t-97 249t99 253.5t259 99.5q157 0 252.5 -93.5t95.5 -251.5q0 -159 -99 -255.5t-255 -96.5zM428 815q64 0 103.5 47.5t39.5 138.5q0 88 -40 134.5t-103 46.5q-70 0 -109.5 -50.5t-39.5 -134.5q0 -89 41 -135.5t108 -46.5zM119 401v166h612v-166
h-612z" />
    <glyph glyph-name="guillemotright" unicode="&#xbb;" horiz-adv-x="1359" 
d="M133 152l297 323l-297 320h311l287 -322l-287 -321h-311zM688 152l297 323l-297 320h313l287 -322l-287 -321h-313z" />
    <glyph glyph-name="onequarter" unicode="&#xbc;" horiz-adv-x="1941" 
d="M535 539h-203v553l-197 -91v177l383 170h17v-809zM1200 1327h281l-738 -1327h-280zM1804 250v-137h-112v-113h-187v113h-370v14l538 682h19v-559h112zM1505 375l-98 -125h98v125z" />
    <glyph glyph-name="onehalf" unicode="&#xbd;" horiz-adv-x="1941" 
d="M332 539v553l-197 -91v177l383 170h17v-809h-203zM481 0l738 1327h280l-737 -1327h-281zM1311 0v18l223 320q46 66 69 111t23 83q0 49 -29.5 74t-74.5 25q-93 0 -183 -84v196q87 66 217 66q135 0 207 -70.5t72 -187.5q0 -73 -29 -132.5t-112 -168.5l-58 -78h215v-172
h-540z" />
    <glyph glyph-name="threequarters" unicode="&#xbe;" horiz-adv-x="1941" 
d="M666 788q0 -134 -85.5 -202t-228.5 -68q-132 0 -213 43v199q103 -64 197 -64q121 0 121 99q0 46 -30 72t-91 26q-64 0 -111 -35l-12 12l160 285h-228v172h510v-16l-172 -303q73 -4 128 -56.5t55 -163.5zM1198 1327h281l-738 -1327h-280zM1804 250v-137h-112v-113h-187
v113h-370v14l538 682h19v-559h112zM1505 375l-98 -125h98v125z" />
    <glyph glyph-name="questiondown" unicode="&#xbf;" horiz-adv-x="899" 
d="M510 612q-70 0 -116 46.5t-46 119.5q0 72 47.5 118t116.5 46q70 0 116 -46.5t46 -117.5q0 -72 -47.5 -119t-116.5 -47zM516 -426q-208 0 -323 103t-115 284q0 154 85.5 248.5t211.5 114.5v170h270v-314q-134 0 -209.5 -53.5t-75.5 -149.5q0 -82 55 -126t152 -44
q80 0 158 35t117 72v-252q-38 -32 -124.5 -60t-201.5 -28z" />
    <glyph glyph-name="Agrave" unicode="&#xc0;" horiz-adv-x="1312" 
d="M590 1448l-342 346h362l248 -346h-268zM35 0l612 1348h21l610 -1348h-301l-86 205h-479l-86 -205h-291zM498 424h313l-158 369z" />
    <glyph glyph-name="Aacute" unicode="&#xc1;" horiz-adv-x="1312" 
d="M487 1448l248 346h361l-342 -346h-267zM35 0l612 1348h21l610 -1348h-301l-86 205h-479l-86 -205h-291zM498 424h313l-158 369z" />
    <glyph glyph-name="Acircumflex" unicode="&#xc2;" horiz-adv-x="1312" 
d="M285 1448l372 364l373 -364h-272l-101 111l-102 -111h-270zM35 0l612 1348h21l610 -1348h-301l-86 205h-479l-86 -205h-291zM498 424h313l-158 369z" />
    <glyph glyph-name="Atilde" unicode="&#xc3;" horiz-adv-x="1312" 
d="M797 1477q-52 0 -105.5 21t-96.5 42t-69 21q-36 0 -51.5 -22.5t-15.5 -51.5h-168q0 107 58 184.5t165 77.5q54 0 109 -21t97.5 -42t67.5 -21q34 0 50 23.5t16 50.5h168q0 -48 -14 -93.5t-40.5 -83.5t-71 -61.5t-99.5 -23.5zM35 0l612 1348h21l610 -1348h-301l-86 205
h-479l-86 -205h-291zM498 424h313l-158 369z" />
    <glyph glyph-name="Adieresis" unicode="&#xc4;" horiz-adv-x="1312" 
d="M432 1464q-70 0 -115 45.5t-45 114.5t45 114.5t115 45.5t115 -45.5t45 -114.5t-45 -114.5t-115 -45.5zM879 1464q-70 0 -116 45.5t-46 114.5t46 114.5t116 45.5t114.5 -45.5t44.5 -114.5t-44.5 -114.5t-114.5 -45.5zM35 0l612 1348h21l610 -1348h-301l-86 205h-479
l-86 -205h-291zM498 424h313l-158 369z" />
    <glyph glyph-name="Aring" unicode="&#xc5;" horiz-adv-x="1312" 
d="M35 0l559 1241q-70 20 -115 76.5t-45 126.5q0 85 65.5 148t157.5 63t158 -63t66 -148q0 -69 -45.5 -125.5t-114.5 -77.5l557 -1241h-301l-86 205h-477l-88 -205h-291zM657 1364q33 0 56.5 23.5t23.5 58.5q0 33 -23.5 56.5t-56.5 23.5t-56 -23t-23 -57q0 -35 23 -58.5
t56 -23.5zM498 424h313l-158 373z" />
    <glyph glyph-name="AE" unicode="&#xc6;" horiz-adv-x="1828" 
d="M35 0l602 1327h631l106 -231h-592l138 -303h456l105 -232h-457l147 -328h584l107 -233h-885l-86 205h-479l-86 -205h-291zM500 424h309l-156 371z" />
    <glyph glyph-name="Ccedilla" unicode="&#xc7;" horiz-adv-x="1300" 
d="M1184 68q-53 -35 -153 -61t-220 -27l-18 -60q4 2 12 2q65 -2 110.5 -40.5t45.5 -119.5q0 -42 -14 -75t-37 -53.5t-55 -33.5t-66 -18.5t-72 -5.5q-92 0 -139 21v137q17 -10 49 -19.5t59 -9.5q80 0 80 62q0 59 -66 59q-41 0 -71 -27l-19 11l52 180q-178 26 -308 121.5
t-195 237t-65 313.5q0 198 85.5 354t244.5 244t367 88q118 0 215.5 -26.5t156.5 -64.5v-276q-163 111 -358 111q-187 0 -304.5 -118.5t-117.5 -307.5q0 -199 121.5 -313.5t312.5 -114.5q205 0 367 110v-280z" />
    <glyph glyph-name="Egrave" unicode="&#xc8;" horiz-adv-x="1077" 
d="M571 1448l-342 346h363l248 -346h-269zM154 0v1327h821v-231h-541v-303h381v-232h-381v-328h565v-233h-845z" />
    <glyph glyph-name="Eacute" unicode="&#xc9;" horiz-adv-x="1077" 
d="M358 1448l248 346h361l-342 -346h-267zM154 0v1327h821v-231h-541v-303h381v-232h-381v-328h565v-233h-845z" />
    <glyph glyph-name="Ecircumflex" unicode="&#xca;" horiz-adv-x="1077" 
d="M195 1448l372 364l373 -364h-272l-101 111l-102 -111h-270zM154 0v1327h821v-231h-541v-303h381v-232h-381v-328h565v-233h-845z" />
    <glyph glyph-name="Edieresis" unicode="&#xcb;" horiz-adv-x="1077" 
d="M342 1464q-70 0 -115 45.5t-45 114.5t45 114.5t115 45.5t115 -45.5t45 -114.5t-45 -114.5t-115 -45.5zM788 1464q-70 0 -115.5 45.5t-45.5 114.5t45.5 114.5t115.5 45.5t115 -45.5t45 -114.5t-45 -114.5t-115 -45.5zM154 0v1327h821v-231h-541v-303h381v-232h-381v-328
h565v-233h-845z" />
    <glyph glyph-name="Igrave" unicode="&#xcc;" horiz-adv-x="587" 
d="M166 1448l-342 346h362l248 -346h-268zM154 0v1327h280v-1327h-280z" />
    <glyph glyph-name="Iacute" unicode="&#xcd;" horiz-adv-x="587" 
d="M154 1448l247 346h361l-342 -346h-266zM154 0v1327h280v-1327h-280z" />
    <glyph glyph-name="Icircumflex" unicode="&#xce;" horiz-adv-x="587" 
d="M-78 1448l373 364l373 -364h-273l-100 111l-102 -111h-271zM154 0v1327h280v-1327h-280z" />
    <glyph glyph-name="Idieresis" unicode="&#xcf;" horiz-adv-x="587" 
d="M70 1464q-70 0 -115 45.5t-45 114.5t45 114.5t115 45.5t114.5 -45.5t44.5 -114.5t-44.5 -114.5t-114.5 -45.5zM516 1464q-70 0 -116 45.5t-46 114.5t46 114.5t116 45.5t115 -45.5t45 -114.5t-45 -114.5t-115 -45.5zM154 0v1327h280v-1327h-280z" />
    <glyph glyph-name="Eth" unicode="&#xd0;" horiz-adv-x="1464" 
d="M496 1327q93 0 169.5 -5t169.5 -21t165.5 -43.5t144.5 -77t119 -116t76.5 -164.5t29.5 -220q0 -121 -28.5 -220.5t-76.5 -169t-117.5 -122.5t-143 -84t-162.5 -50.5t-167 -26.5t-165 -7h-285v567h-221v219h221v541h271zM506 229q575 4 575 451q0 104 -31.5 180.5
t-82 121.5t-128.5 72t-155 36t-178 10v-314h250v-219h-250v-338z" />
    <glyph glyph-name="Ntilde" unicode="&#xd1;" horiz-adv-x="1445" 
d="M864 1477q-52 0 -105.5 21t-96 42t-68.5 21q-36 0 -52 -22.5t-16 -51.5h-168q0 107 58.5 184.5t165.5 77.5q54 0 109 -21t97.5 -42t67.5 -21q34 0 50 23.5t16 50.5h168q0 -65 -23.5 -123t-76.5 -98.5t-126 -40.5zM1274 -20l-846 782v-762h-274v1348h20l844 -783l2 762
h274v-1347h-20z" />
    <glyph glyph-name="Ograve" unicode="&#xd2;" horiz-adv-x="1560" 
d="M791 1448l-342 346h362l248 -346h-268zM776 -20q-205 0 -361 88t-238.5 243t-82.5 353q0 200 84.5 355t242 242t365.5 87q205 0 360 -86.5t237.5 -240.5t82.5 -353q0 -197 -83.5 -353t-241.5 -245.5t-365 -89.5zM784 238q170 0 282 116t112 310q0 195 -114.5 311.5
t-283.5 116.5q-171 0 -284 -116t-113 -308q0 -196 114 -313t287 -117z" />
    <glyph glyph-name="Oacute" unicode="&#xd3;" horiz-adv-x="1560" 
d="M578 1448l247 346h361l-342 -346h-266zM776 -20q-205 0 -361 88t-238.5 243t-82.5 353q0 200 84.5 355t242 242t365.5 87q205 0 360 -86.5t237.5 -240.5t82.5 -353q0 -197 -83.5 -353t-241.5 -245.5t-365 -89.5zM784 238q170 0 282 116t112 310q0 195 -114.5 311.5
t-283.5 116.5q-171 0 -284 -116t-113 -308q0 -196 114 -313t287 -117z" />
    <glyph glyph-name="Ocircumflex" unicode="&#xd4;" horiz-adv-x="1560" 
d="M414 1448l372 364l373 -364h-272l-101 111l-102 -111h-270zM776 -20q-205 0 -361 88t-238.5 243t-82.5 353q0 200 84.5 355t242 242t365.5 87q205 0 360 -86.5t237.5 -240.5t82.5 -353q0 -197 -83.5 -353t-241.5 -245.5t-365 -89.5zM784 238q170 0 282 116t112 310
q0 195 -114.5 311.5t-283.5 116.5q-171 0 -284 -116t-113 -308q0 -196 114 -313t287 -117z" />
    <glyph glyph-name="Otilde" unicode="&#xd5;" horiz-adv-x="1560" 
d="M926 1477q-52 0 -105.5 21t-96.5 42t-69 21q-36 0 -51.5 -22.5t-15.5 -51.5h-168q0 107 58 184.5t165 77.5q54 0 109 -21t98 -42t68 -21q34 0 49.5 23t15.5 51h168q0 -48 -14 -93.5t-40.5 -83.5t-71 -61.5t-99.5 -23.5zM776 -20q-205 0 -361 88t-238.5 243t-82.5 353
q0 200 84.5 355t242 242t365.5 87q205 0 360 -86.5t237.5 -240.5t82.5 -353q0 -197 -83.5 -353t-241.5 -245.5t-365 -89.5zM784 238q170 0 282 116t112 310q0 195 -114.5 311.5t-283.5 116.5q-171 0 -284 -116t-113 -308q0 -196 114 -313t287 -117z" />
    <glyph glyph-name="Odieresis" unicode="&#xd6;" horiz-adv-x="1560" 
d="M561 1464q-70 0 -115 45.5t-45 114.5t45 114.5t115 45.5t115 -45.5t45 -114.5t-45 -114.5t-115 -45.5zM1008 1464q-70 0 -116 45.5t-46 114.5t46 114.5t116 45.5t114.5 -45.5t44.5 -114.5t-44.5 -114.5t-114.5 -45.5zM776 -20q-205 0 -361 88t-238.5 243t-82.5 353
q0 200 84.5 355t242 242t365.5 87q205 0 360 -86.5t237.5 -240.5t82.5 -353q0 -197 -83.5 -353t-241.5 -245.5t-365 -89.5zM784 238q170 0 282 116t112 310q0 195 -114.5 311.5t-283.5 116.5q-171 0 -284 -116t-113 -308q0 -196 114 -313t287 -117z" />
    <glyph glyph-name="multiply" unicode="&#xd7;" 
d="M328 -4l-181 178l289 289l-289 289l181 180l290 -291l293 291l176 -180l-288 -289l288 -289l-180 -178l-289 287z" />
    <glyph glyph-name="Oslash" unicode="&#xd8;" horiz-adv-x="1560" 
d="M94 -61l174 243q-174 190 -174 482q0 200 84.5 355t242 242t365.5 87q154 0 283 -52l82 111h276l-165 -231q99 -90 151.5 -220t52.5 -288q0 -197 -83.5 -353t-241.5 -245.5t-365 -89.5q-182 0 -323 69l-80 -110h-279zM444 426l465 645q-54 21 -129 21q-171 0 -284 -116
t-113 -308q0 -139 61 -242zM784 238q170 0 282 116t112 310q0 165 -84 274l-480 -664q59 -36 170 -36z" />
    <glyph glyph-name="Ugrave" unicode="&#xd9;" horiz-adv-x="1353" 
d="M680 1448l-342 346h362l248 -346h-268zM676 -20q-266 0 -400.5 132.5t-134.5 426.5v788h283v-735q0 -49 2 -86.5t9 -76.5t18 -67.5t30.5 -55t46 -42.5t64 -25.5t84.5 -9.5q65 0 111.5 18t73.5 47.5t43 78.5t21 99t5 120v735h280v-786q0 -297 -134.5 -429t-401.5 -132z
" />
    <glyph glyph-name="Uacute" unicode="&#xda;" horiz-adv-x="1353" 
d="M467 1448l248 346h360l-342 -346h-266zM676 -20q-266 0 -400.5 132.5t-134.5 426.5v788h283v-735q0 -49 2 -86.5t9 -76.5t18 -67.5t30.5 -55t46 -42.5t64 -25.5t84.5 -9.5q65 0 111.5 18t73.5 47.5t43 78.5t21 99t5 120v735h280v-786q0 -297 -134.5 -429t-401.5 -132z
" />
    <glyph glyph-name="Ucircumflex" unicode="&#xdb;" horiz-adv-x="1353" 
d="M303 1448l373 364l373 -364h-273l-100 111l-103 -111h-270zM676 -20q-266 0 -400.5 132.5t-134.5 426.5v788h283v-735q0 -49 2 -86.5t9 -76.5t18 -67.5t30.5 -55t46 -42.5t64 -25.5t84.5 -9.5q65 0 111.5 18t73.5 47.5t43 78.5t21 99t5 120v735h280v-786
q0 -297 -134.5 -429t-401.5 -132z" />
    <glyph glyph-name="Udieresis" unicode="&#xdc;" horiz-adv-x="1353" 
d="M451 1464q-70 0 -115 45.5t-45 114.5t45 114.5t115 45.5t114.5 -45.5t44.5 -114.5t-44.5 -114.5t-114.5 -45.5zM897 1464q-70 0 -116 45.5t-46 114.5t46 114.5t116 45.5t115 -45.5t45 -114.5t-45 -114.5t-115 -45.5zM676 -20q-266 0 -400.5 132.5t-134.5 426.5v788h283
v-735q0 -49 2 -86.5t9 -76.5t18 -67.5t30.5 -55t46 -42.5t64 -25.5t84.5 -9.5q65 0 111.5 18t73.5 47.5t43 78.5t21 99t5 120v735h280v-786q0 -297 -134.5 -429t-401.5 -132z" />
    <glyph glyph-name="Yacute" unicode="&#xdd;" horiz-adv-x="1302" 
d="M442 1448l248 346h361l-342 -346h-267zM508 0v526l-473 801h311l311 -557l310 557h301l-477 -801v-526h-283z" />
    <glyph glyph-name="Thorn" unicode="&#xde;" horiz-adv-x="1193" 
d="M557 1114q64 0 118 -4t114.5 -16t108 -32t92.5 -54t74.5 -79t47.5 -110.5t18 -146.5q0 -70 -13.5 -129t-36 -102t-56.5 -78t-69.5 -58t-82 -40t-86 -26t-89.5 -14t-85.5 -6.5t-79.5 -1.5h-98v-217h-280v1327h280v-213h123zM514 440q41 0 74.5 2.5t73.5 10.5t70 24
t56 40.5t40 63.5t14 89q0 58 -21 100.5t-51 64.5t-77.5 35t-86 16t-90.5 3h-82v-449h80z" />
    <glyph glyph-name="germandbls" unicode="&#xdf;" horiz-adv-x="1263" 
d="M975 551q101 -8 160 -73.5t59 -174.5q0 -72 -21 -128t-56.5 -91.5t-86 -59t-105 -33t-118.5 -9.5q-54 0 -110.5 7.5t-80.5 16.5v211q82 -29 162 -29q57 0 98.5 24t41.5 81q0 108 -134 108q-68 0 -106 -26l-14 14l135 322h-314v-1010h-272v1010h-160v213h160v73
q0 394 379 394q103 0 192 -33v-230q-81 35 -151 35q-86 0 -117 -46t-31 -132v-61h635v-21z" />
    <glyph glyph-name="agrave" unicode="&#xe0;" horiz-adv-x="1058" 
d="M770 1065h-270l-340 346h362zM512 942q216 0 322 -97.5t106 -297.5v-547h-250l-6 90q-85 -108 -270 -108q-156 0 -249 78t-93 212q0 143 105 227.5t290 84.5q105 0 203 -37v10q0 36 -9.5 67t-31 58.5t-61.5 43t-95 15.5q-147 0 -297 -90v217q145 74 336 74zM492 160
q81 0 129.5 48.5t48.5 149.5v21q-72 35 -164 35q-74 0 -117 -32.5t-43 -94.5q0 -58 40 -92.5t106 -34.5z" />
    <glyph glyph-name="aacute" unicode="&#xe1;" horiz-adv-x="1058" 
d="M928 1411l-342 -346h-267l248 346h361zM512 942q216 0 322 -97.5t106 -297.5v-547h-250l-6 90q-85 -108 -270 -108q-156 0 -249 78t-93 212q0 143 105 227.5t290 84.5q105 0 203 -37v10q0 36 -9.5 67t-31 58.5t-61.5 43t-95 15.5q-147 0 -297 -90v217q145 74 336 74z
M492 160q81 0 129.5 48.5t48.5 149.5v21q-72 35 -164 35q-74 0 -117 -32.5t-43 -94.5q0 -58 40 -92.5t106 -34.5z" />
    <glyph glyph-name="acircumflex" unicode="&#xe2;" horiz-adv-x="1058" 
d="M526 1176l-102 -111h-270l372 365l373 -365h-272zM512 942q216 0 322 -97.5t106 -297.5v-547h-250l-6 90q-85 -108 -270 -108q-156 0 -249 78t-93 212q0 143 105 227.5t290 84.5q105 0 203 -37v10q0 36 -9.5 67t-31 58.5t-61.5 43t-95 15.5q-147 0 -297 -90v217
q145 74 336 74zM492 160q81 0 129.5 48.5t48.5 149.5v21q-72 35 -164 35q-74 0 -117 -32.5t-43 -94.5q0 -58 40 -92.5t106 -34.5z" />
    <glyph glyph-name="atilde" unicode="&#xe3;" horiz-adv-x="1058" 
d="M395 1178q-36 0 -51.5 -23t-15.5 -51h-168q0 107 58 184.5t165 77.5q54 0 109 -21t97.5 -42t67.5 -21q34 0 50 23.5t16 50.5h168q0 -48 -14 -93.5t-40.5 -83.5t-71 -61.5t-99.5 -23.5q-52 0 -105.5 21t-96.5 42t-69 21zM512 942q216 0 322 -97.5t106 -297.5v-547h-250
l-6 90q-85 -108 -270 -108q-156 0 -249 78t-93 212q0 143 105 227.5t290 84.5q105 0 203 -37v10q0 36 -9.5 67t-31 58.5t-61.5 43t-95 15.5q-147 0 -297 -90v217q145 74 336 74zM492 160q81 0 129.5 48.5t48.5 149.5v21q-72 35 -164 35q-74 0 -117 -32.5t-43 -94.5
q0 -58 40 -92.5t106 -34.5z" />
    <glyph glyph-name="adieresis" unicode="&#xe4;" horiz-adv-x="1058" 
d="M305 1096q-67 0 -108 41.5t-41 107.5q0 64 43.5 107t105.5 43t105 -43.5t43 -108.5t-42 -106t-106 -41zM750 1096q-67 0 -108.5 41.5t-41.5 107.5q0 64 44 107t106 43t103.5 -43t41.5 -109q0 -65 -40.5 -106t-104.5 -41zM512 942q216 0 322 -97.5t106 -297.5v-547h-250
l-6 90q-85 -108 -270 -108q-156 0 -249 78t-93 212q0 143 105 227.5t290 84.5q105 0 203 -37v10q0 36 -9.5 67t-31 58.5t-61.5 43t-95 15.5q-147 0 -297 -90v217q145 74 336 74zM492 160q81 0 129.5 48.5t48.5 149.5v21q-72 35 -164 35q-74 0 -117 -32.5t-43 -94.5
q0 -58 40 -92.5t106 -34.5z" />
    <glyph glyph-name="aring" unicode="&#xe5;" horiz-adv-x="1058" 
d="M526 1044q-92 0 -157.5 63t-65.5 148t65.5 148t157.5 63t158 -63t66 -148t-66 -148t-158 -63zM526 1337q-33 0 -56.5 -23.5t-23.5 -56.5q0 -35 23.5 -58t56.5 -23t56.5 23t23.5 58q0 33 -23.5 56.5t-56.5 23.5zM512 942q216 0 322 -97.5t106 -297.5v-547h-250l-6 90
q-85 -108 -270 -108q-156 0 -249 78t-93 212q0 143 105 227.5t290 84.5q105 0 203 -37v10q0 36 -9.5 67t-31 58.5t-61.5 43t-95 15.5q-147 0 -297 -90v217q145 74 336 74zM492 160q81 0 129.5 48.5t48.5 149.5v21q-72 35 -164 35q-74 0 -117 -32.5t-43 -94.5q0 -58 40 -92.5
t106 -34.5z" />
    <glyph glyph-name="ae" unicode="&#xe6;" horiz-adv-x="1640" 
d="M1571 469q0 -48 -8 -92h-633q28 -176 280 -176q169 0 312 78v-222q-139 -75 -357 -75q-137 0 -239 42.5t-148 116.5q-44 -68 -130 -113.5t-222 -45.5q-166 0 -260 77.5t-94 212.5q0 143 105 227.5t292 84.5q103 0 201 -37v10q0 36 -9 67t-30 58.5t-61 43t-95 15.5
q-149 0 -299 -90v217q145 74 338 74q213 0 297 -123q48 57 127.5 90t177.5 33q97 0 174.5 -25.5t129.5 -69.5t86.5 -104.5t49.5 -128.5t15 -145zM932 549h364q-3 77 -50.5 126.5t-127.5 49.5q-75 0 -127 -48.5t-59 -127.5zM492 160q81 0 129.5 48.5t48.5 149.5v21
q-72 35 -164 35q-74 0 -117 -32.5t-43 -94.5q0 -58 40 -92.5t106 -34.5z" />
    <glyph glyph-name="ccedilla" unicode="&#xe7;" horiz-adv-x="911" 
d="M829 39q-34 -21 -98.5 -37.5t-136.5 -19.5l-19 -62q4 2 13 2q65 -2 110 -40.5t45 -119.5q0 -52 -20.5 -90t-56.5 -58t-76.5 -29t-89.5 -9q-93 0 -140 21v137q17 -10 49.5 -19.5t59.5 -9.5q80 0 80 62q0 59 -66 59q-41 0 -71 -27l-19 11l51 184q-78 15 -143.5 49
t-117.5 88t-81.5 135t-29.5 180q0 223 137.5 359.5t363.5 136.5q146 0 246 -51v-240q-100 66 -213 66q-110 0 -182 -68t-72 -192q0 -120 68 -184t182 -64q123 0 227 72v-242z" />
    <glyph glyph-name="egrave" unicode="&#xe8;" horiz-adv-x="1062" 
d="M514 1065l-340 346h363l247 -346h-270zM586 -18q-240 0 -377 121t-137 352q0 141 52.5 250t159.5 173t257 64q118 0 207.5 -38.5t141.5 -105.5t77.5 -150t25.5 -179q0 -45 -8 -92h-633q25 -176 279 -176q165 0 313 78v-222q-150 -75 -358 -75zM352 549h367q-5 78 -52 127
t-126 49q-75 0 -127.5 -48.5t-61.5 -127.5z" />
    <glyph glyph-name="eacute" unicode="&#xe9;" horiz-adv-x="1062" 
d="M334 1065l248 346h360l-342 -346h-266zM586 -18q-240 0 -377 121t-137 352q0 141 52.5 250t159.5 173t257 64q118 0 207.5 -38.5t141.5 -105.5t77.5 -150t25.5 -179q0 -45 -8 -92h-633q25 -176 279 -176q165 0 313 78v-222q-150 -75 -358 -75zM352 549h367q-5 78 -52 127
t-126 49q-75 0 -127.5 -48.5t-61.5 -127.5z" />
    <glyph glyph-name="ecircumflex" unicode="&#xea;" horiz-adv-x="1062" 
d="M168 1065l373 365l372 -365h-272l-100 111l-103 -111h-270zM586 -18q-240 0 -377 121t-137 352q0 141 52.5 250t159.5 173t257 64q118 0 207.5 -38.5t141.5 -105.5t77.5 -150t25.5 -179q0 -45 -8 -92h-633q25 -176 279 -176q165 0 313 78v-222q-150 -75 -358 -75z
M352 549h367q-5 78 -52 127t-126 49q-75 0 -127.5 -48.5t-61.5 -127.5z" />
    <glyph glyph-name="edieresis" unicode="&#xeb;" horiz-adv-x="1062" 
d="M319 1096q-67 0 -108 41.5t-41 107.5q0 64 43.5 107t105.5 43t105 -43.5t43 -108.5t-42 -106t-106 -41zM764 1096q-67 0 -108.5 41.5t-41.5 107.5q0 64 44 107t106 43t103.5 -43t41.5 -109q0 -65 -40.5 -106t-104.5 -41zM586 -18q-240 0 -377 121t-137 352
q0 141 52.5 250t159.5 173t257 64q118 0 207.5 -38.5t141.5 -105.5t77.5 -150t25.5 -179q0 -45 -8 -92h-633q25 -176 279 -176q165 0 313 78v-222q-150 -75 -358 -75zM352 549h367q-5 78 -52 127t-126 49q-75 0 -127.5 -48.5t-61.5 -127.5z" />
    <glyph glyph-name="igrave" unicode="&#xec;" horiz-adv-x="565" 
d="M258 1065l-340 346h363l247 -346h-270zM160 0v711h-119v213h391v-924h-272z" />
    <glyph glyph-name="iacute" unicode="&#xed;" horiz-adv-x="565" 
d="M35 1065l248 346h360l-342 -346h-266zM160 0v711h-119v213h391v-924h-272z" />
    <glyph glyph-name="icircumflex" unicode="&#xee;" horiz-adv-x="565" 
d="M-88 1065l373 365l372 -365h-272l-100 111l-103 -111h-270zM160 0v711h-119v213h391v-924h-272z" />
    <glyph glyph-name="idieresis" unicode="&#xef;" horiz-adv-x="565" 
d="M63 1096q-67 0 -108 41.5t-41 107.5q0 64 43.5 107t105.5 43t105 -43.5t43 -108.5t-42 -106t-106 -41zM508 1096q-67 0 -108.5 41.5t-41.5 107.5q0 64 44 107t106 43t103.5 -43t41.5 -109q0 -65 -40.5 -106t-104.5 -41zM160 0v711h-119v213h391v-924h-272z" />
    <glyph glyph-name="eth" unicode="&#xf0;" horiz-adv-x="1167" 
d="M582 -18q-233 0 -371.5 131t-138.5 344q0 212 127.5 346.5t339.5 134.5q74 0 148 -26t118 -89q-18 64 -57 129.5t-84 112.5l-127 -78l-84 129l69 43q-72 33 -223 43v191q137 -7 246 -40.5t178 -76.5l139 82l84 -131l-92 -53q242 -230 242 -615q0 -277 -135.5 -427
t-378.5 -150zM584 211q107 0 168 70t61 186q0 115 -64 181.5t-165 66.5q-109 0 -170.5 -73t-61.5 -179q0 -113 64 -182.5t168 -69.5z" />
    <glyph glyph-name="ntilde" unicode="&#xf1;" horiz-adv-x="1118" 
d="M743 1094q-52 0 -105.5 21t-96 42t-68.5 21q-36 0 -51.5 -23t-15.5 -51h-168q0 107 58 184.5t165 77.5q54 0 109 -21t97.5 -42t67.5 -21q34 0 50 23.5t16 50.5h168q0 -65 -23.5 -123t-76.5 -98.5t-126 -40.5zM133 0v924h248l6 -103q82 121 266 121q167 0 256.5 -94.5
t89.5 -286.5v-561h-272v508q0 47 -5.5 80.5t-21 65t-47 47.5t-78.5 16q-45 0 -76.5 -16t-49.5 -40t-28 -65t-12.5 -78.5t-2.5 -91.5v-426h-273z" />
    <glyph glyph-name="ograve" unicode="&#xf2;" horiz-adv-x="1167" 
d="M557 1065l-340 346h363l247 -346h-270zM580 -18q-231 0 -369.5 131t-138.5 344q0 214 141 349.5t377 135.5q230 0 368 -126t138 -345q0 -221 -143 -355t-373 -134zM584 211q105 0 167 71.5t62 184.5q0 110 -63 179t-166 69q-108 0 -170 -75t-62 -177q0 -109 64.5 -180.5
t167.5 -71.5z" />
    <glyph glyph-name="oacute" unicode="&#xf3;" horiz-adv-x="1167" 
d="M377 1065l248 346h360l-342 -346h-266zM580 -18q-231 0 -369.5 131t-138.5 344q0 214 141 349.5t377 135.5q230 0 368 -126t138 -345q0 -221 -143 -355t-373 -134zM584 211q105 0 167 71.5t62 184.5q0 110 -63 179t-166 69q-108 0 -170 -75t-62 -177q0 -109 64.5 -180.5
t167.5 -71.5z" />
    <glyph glyph-name="ocircumflex" unicode="&#xf4;" horiz-adv-x="1167" 
d="M211 1065l373 365l372 -365h-272l-100 111l-103 -111h-270zM580 -18q-231 0 -369.5 131t-138.5 344q0 214 141 349.5t377 135.5q230 0 368 -126t138 -345q0 -221 -143 -355t-373 -134zM584 211q105 0 167 71.5t62 184.5q0 110 -63 179t-166 69q-108 0 -170 -75t-62 -177
q0 -109 64.5 -180.5t167.5 -71.5z" />
    <glyph glyph-name="otilde" unicode="&#xf5;" horiz-adv-x="1167" 
d="M723 1094q-52 0 -105.5 21t-96 42t-68.5 21q-36 0 -52 -23t-16 -51h-168q0 107 58 184.5t165 77.5q54 0 109 -21t98 -42t68 -21q34 0 49.5 23t15.5 51h168q0 -48 -14 -93.5t-40.5 -83.5t-71 -61.5t-99.5 -23.5zM580 -18q-231 0 -369.5 131t-138.5 344q0 214 141 349.5
t377 135.5q230 0 368 -126t138 -345q0 -221 -143 -355t-373 -134zM584 211q105 0 167 71.5t62 184.5q0 110 -63 179t-166 69q-108 0 -170 -75t-62 -177q0 -109 64.5 -180.5t167.5 -71.5z" />
    <glyph glyph-name="odieresis" unicode="&#xf6;" horiz-adv-x="1167" 
d="M362 1096q-67 0 -108 41.5t-41 107.5q0 64 43.5 107t105.5 43t105 -43.5t43 -108.5t-42 -106t-106 -41zM807 1096q-67 0 -108.5 41.5t-41.5 107.5q0 64 44 107t106 43t103.5 -43t41.5 -109q0 -65 -41 -106t-104 -41zM580 -18q-231 0 -369.5 131t-138.5 344
q0 214 141 349.5t377 135.5q230 0 368 -126t138 -345q0 -221 -143 -355t-373 -134zM584 211q105 0 167 71.5t62 184.5q0 110 -63 179t-166 69q-108 0 -170 -75t-62 -177q0 -109 64.5 -180.5t167.5 -71.5z" />
    <glyph glyph-name="divide" unicode="&#xf7;" 
d="M618 678q-66 0 -109.5 44.5t-43.5 111.5q0 65 44.5 108t108.5 43t108 -43.5t44 -110.5q0 -68 -44 -110.5t-108 -42.5zM172 356v213h891v-213h-891zM618 -59q-66 0 -109.5 43t-43.5 110q0 65 44.5 109.5t108.5 44.5t108 -44.5t44 -111.5q0 -66 -44 -108.5t-108 -42.5z" />
    <glyph glyph-name="oslash" unicode="&#xf8;" horiz-adv-x="1167" 
d="M127 -74l109 164q-79 64 -121.5 158t-42.5 209q0 214 141 349.5t377 135.5q102 0 184 -24l53 81h211l-106 -161q164 -132 164 -367q0 -221 -143 -355t-373 -134q-103 0 -189 28l-55 -84h-209zM387 326l252 383q-19 8 -55 8q-108 0 -170 -75.5t-62 -178.5q0 -81 35 -137z
M584 211q105 0 167 71.5t62 184.5q0 82 -33 135l-254 -383q19 -8 58 -8z" />
    <glyph glyph-name="ugrave" unicode="&#xf9;" horiz-adv-x="1064" 
d="M504 1065l-340 346h362l248 -346h-270zM532 -18q-95 0 -168.5 23.5t-119 61.5t-74.5 93t-40 112.5t-11 124.5v527h272v-531q0 -188 144 -188q143 0 143 188v531h268v-527q0 -65 -11 -121.5t-39.5 -112t-74 -94.5t-119.5 -63t-170 -24z" />
    <glyph glyph-name="uacute" unicode="&#xfa;" horiz-adv-x="1064" 
d="M324 1065l247 346h361l-342 -346h-266zM532 -18q-95 0 -168.5 23.5t-119 61.5t-74.5 93t-40 112.5t-11 124.5v527h272v-531q0 -188 144 -188q143 0 143 188v531h268v-527q0 -65 -11 -121.5t-39.5 -112t-74 -94.5t-119.5 -63t-170 -24z" />
    <glyph glyph-name="ucircumflex" unicode="&#xfb;" horiz-adv-x="1064" 
d="M158 1065l372 365l373 -365h-272l-101 111l-102 -111h-270zM532 -18q-95 0 -168.5 23.5t-119 61.5t-74.5 93t-40 112.5t-11 124.5v527h272v-531q0 -188 144 -188q143 0 143 188v531h268v-527q0 -65 -11 -121.5t-39.5 -112t-74 -94.5t-119.5 -63t-170 -24z" />
    <glyph glyph-name="udieresis" unicode="&#xfc;" horiz-adv-x="1064" 
d="M309 1096q-67 0 -108 41.5t-41 107.5q0 64 43.5 107t105.5 43t105 -43.5t43 -108.5t-42 -106t-106 -41zM754 1096q-67 0 -108.5 41.5t-41.5 107.5q0 64 44 107t106 43t103.5 -43t41.5 -109q0 -65 -40.5 -106t-104.5 -41zM532 -18q-95 0 -168.5 23.5t-119 61.5t-74.5 93
t-40 112.5t-11 124.5v527h272v-531q0 -188 144 -188q143 0 143 188v531h268v-527q0 -65 -11 -121.5t-39.5 -112t-74 -94.5t-119.5 -63t-170 -24z" />
    <glyph glyph-name="yacute" unicode="&#xfd;" horiz-adv-x="1056" 
d="M322 1065l247 346h361l-342 -346h-266zM178 -406l209 467l-375 863h299l217 -555l226 555h290l-571 -1330h-295z" />
    <glyph glyph-name="thorn" unicode="&#xfe;" horiz-adv-x="1206" 
d="M133 -406v1764h273l-3 -520q101 104 281 104q203 0 327 -134.5t124 -342.5q0 -217 -128 -350t-321 -133q-89 0 -162.5 28t-120.5 76l3 -492h-273zM625 211q103 0 166 71.5t63 184.5q0 110 -63 179t-166 69q-108 0 -170 -73.5t-62 -178.5q0 -115 64 -183.5t168 -68.5z" />
    <glyph glyph-name="ydieresis" unicode="&#xff;" horiz-adv-x="1056" 
d="M307 1096q-67 0 -108 41.5t-41 107.5q0 64 43.5 107t105.5 43t105 -43.5t43 -108.5t-42 -106t-106 -41zM752 1096q-67 0 -108.5 41.5t-41.5 107.5q0 64 44 107t106 43t103.5 -43t41.5 -109q0 -65 -40.5 -106t-104.5 -41zM178 -406l209 467l-375 863h299l217 -555l226 555
h290l-571 -1330h-295z" />
    <glyph glyph-name="Amacron" unicode="&#x100;" horiz-adv-x="1312" 
d="M340 1520v213h633v-213h-633zM35 0l612 1348h21l610 -1348h-301l-86 205h-479l-86 -205h-291zM498 424h313l-158 369z" />
    <glyph glyph-name="amacron" unicode="&#x101;" horiz-adv-x="1058" 
d="M842 1343v-213h-633v213h633zM512 942q216 0 322 -97.5t106 -297.5v-547h-250l-6 90q-85 -108 -270 -108q-156 0 -249 78t-93 212q0 143 105 227.5t290 84.5q105 0 203 -37v10q0 36 -9.5 67t-31 58.5t-61.5 43t-95 15.5q-147 0 -297 -90v217q145 74 336 74zM492 160
q81 0 129.5 48.5t48.5 149.5v21q-72 35 -164 35q-74 0 -117 -32.5t-43 -94.5q0 -58 40 -92.5t106 -34.5z" />
    <glyph glyph-name="Abreve" unicode="&#x102;" horiz-adv-x="1312" 
d="M655 1430q-356 0 -356 331v33h207q0 -152 149 -152q152 0 152 152h205v-33q0 -331 -357 -331zM35 0l612 1348h21l610 -1348h-301l-86 205h-479l-86 -205h-291zM498 424h313l-158 369z" />
    <glyph glyph-name="abreve" unicode="&#x103;" horiz-adv-x="1058" 
d="M524 1047q-354 0 -354 331v33h205q0 -154 149 -154q152 0 152 154h205v-33q0 -152 -84 -241.5t-273 -89.5zM512 942q216 0 322 -97.5t106 -297.5v-547h-250l-6 90q-85 -108 -270 -108q-156 0 -249 78t-93 212q0 143 105 227.5t290 84.5q105 0 203 -37v10q0 36 -9.5 67
t-31 58.5t-61.5 43t-95 15.5q-147 0 -297 -90v217q145 74 336 74zM492 160q81 0 129.5 48.5t48.5 149.5v21q-72 35 -164 35q-74 0 -117 -32.5t-43 -94.5q0 -58 40 -92.5t106 -34.5z" />
    <glyph glyph-name="Aogonek" unicode="&#x104;" horiz-adv-x="1312" 
d="M1098 -424q-108 0 -177 51.5t-69 159.5q0 80 37.5 133.5t91.5 83.5l-90 201h-477l-88 -205h-291l612 1348h21l610 -1348q-105 -14 -169.5 -61t-64.5 -113q0 -96 101 -96q56 0 86 20v-153q-51 -21 -133 -21zM498 424h313l-158 369z" />
    <glyph glyph-name="aogonek" unicode="&#x105;" horiz-adv-x="1058" 
d="M940 0q-203 -53 -203 -174q0 -96 101 -96q53 0 88 20v-153q-51 -21 -133 -21q-109 0 -177.5 51.5t-68.5 159.5q0 78 38.5 135.5t104.5 85.5l-6 82q-85 -108 -270 -108q-156 0 -249 78t-93 212q0 143 105 227.5t290 84.5q105 0 203 -37v10q0 36 -9.5 67t-31 58.5t-61.5 43
t-95 15.5q-147 0 -297 -90v217q145 74 336 74q216 0 322 -97.5t106 -297.5v-547zM492 160q81 0 129.5 48.5t48.5 149.5v21q-72 35 -164 35q-74 0 -117 -32.5t-43 -94.5q0 -58 40 -92.5t106 -34.5z" />
    <glyph glyph-name="Cacute" unicode="&#x106;" horiz-adv-x="1300" 
d="M582 1448l247 346h361l-342 -346h-266zM797 -20q-165 0 -299 52.5t-221.5 145t-135 216.5t-47.5 268q0 198 85.5 354t244.5 244t367 88q118 0 215.5 -26.5t156.5 -64.5v-276q-163 111 -358 111q-187 0 -304.5 -118.5t-117.5 -307.5q0 -199 121.5 -313.5t312.5 -114.5
q205 0 367 110v-280q-55 -36 -159 -62t-228 -26z" />
    <glyph glyph-name="cacute" unicode="&#x107;" horiz-adv-x="911" 
d="M369 1065l247 346h361l-342 -346h-266zM567 -18q-76 0 -146.5 16.5t-134.5 53t-111 89.5t-75 131.5t-28 173.5q0 223 137.5 359.5t363.5 136.5q146 0 246 -51v-240q-100 66 -213 66q-110 0 -182 -68t-72 -192q0 -120 68 -184t182 -64q123 0 227 72v-242
q-37 -22 -110 -39.5t-152 -17.5z" />
    <glyph glyph-name="Ccircumflex" unicode="&#x108;" horiz-adv-x="1300" 
d="M418 1448l373 364l372 -364h-272l-100 111l-103 -111h-270zM797 -20q-165 0 -299 52.5t-221.5 145t-135 216.5t-47.5 268q0 198 85.5 354t244.5 244t367 88q118 0 215.5 -26.5t156.5 -64.5v-276q-163 111 -358 111q-187 0 -304.5 -118.5t-117.5 -307.5
q0 -199 121.5 -313.5t312.5 -114.5q205 0 367 110v-280q-55 -36 -159 -62t-228 -26z" />
    <glyph glyph-name="ccircumflex" unicode="&#x109;" horiz-adv-x="911" 
d="M203 1065l372 365l373 -365h-272l-101 111l-102 -111h-270zM567 -18q-76 0 -146.5 16.5t-134.5 53t-111 89.5t-75 131.5t-28 173.5q0 223 137.5 359.5t363.5 136.5q146 0 246 -51v-240q-100 66 -213 66q-110 0 -182 -68t-72 -192q0 -120 68 -184t182 -64q123 0 227 72
v-242q-37 -22 -110 -39.5t-152 -17.5z" />
    <glyph glyph-name="Cdotaccent" unicode="&#x10a;" horiz-adv-x="1300" 
d="M791 1464q-73 0 -118.5 45.5t-45.5 116.5q0 68 48 115t116 47q69 0 115 -47t46 -117t-46.5 -115t-114.5 -45zM797 -20q-165 0 -299 52.5t-221.5 145t-135 216.5t-47.5 268q0 198 85.5 354t244.5 244t367 88q118 0 215.5 -26.5t156.5 -64.5v-276q-163 111 -358 111
q-187 0 -304.5 -118.5t-117.5 -307.5q0 -199 121.5 -313.5t312.5 -114.5q205 0 367 110v-280q-55 -36 -159 -62t-228 -26z" />
    <glyph glyph-name="cdotaccent" unicode="&#x10b;" horiz-adv-x="911" 
d="M575 1096q-67 0 -108 41.5t-41 107.5q0 64 43.5 107t105.5 43t105 -43.5t43 -108.5t-42 -106t-106 -41zM567 -18q-76 0 -146.5 16.5t-134.5 53t-111 89.5t-75 131.5t-28 173.5q0 223 137.5 359.5t363.5 136.5q146 0 246 -51v-240q-100 66 -213 66q-110 0 -182 -68
t-72 -192q0 -120 68 -184t182 -64q123 0 227 72v-242q-37 -22 -110 -39.5t-152 -17.5z" />
    <glyph glyph-name="Ccaron" unicode="&#x10c;" horiz-adv-x="1300" 
d="M791 1430l-373 364h270l103 -111l100 111h272zM797 -20q-165 0 -299 52.5t-221.5 145t-135 216.5t-47.5 268q0 198 85.5 354t244.5 244t367 88q118 0 215.5 -26.5t156.5 -64.5v-276q-163 111 -358 111q-187 0 -304.5 -118.5t-117.5 -307.5q0 -199 121.5 -313.5
t312.5 -114.5q205 0 367 110v-280q-55 -36 -159 -62t-228 -26z" />
    <glyph glyph-name="ccaron" unicode="&#x10d;" horiz-adv-x="911" 
d="M575 1047l-372 364h270l102 -111l101 111h272zM567 -18q-76 0 -146.5 16.5t-134.5 53t-111 89.5t-75 131.5t-28 173.5q0 223 137.5 359.5t363.5 136.5q146 0 246 -51v-240q-100 66 -213 66q-110 0 -182 -68t-72 -192q0 -120 68 -184t182 -64q123 0 227 72v-242
q-37 -22 -110 -39.5t-152 -17.5z" />
    <glyph glyph-name="Dcaron" unicode="&#x10e;" horiz-adv-x="1392" 
d="M1073 1794l-373 -364l-372 364h270l102 -111l101 111h272zM424 1327q93 0 169.5 -5t169.5 -21t165.5 -43.5t144.5 -77t119 -116t76.5 -164.5t29.5 -220q0 -121 -28.5 -220.5t-76.5 -169t-117.5 -122.5t-143 -84t-162.5 -50.5t-167 -26.5t-165 -7h-284v1327h270zM434 229
q576 4 576 451q0 104 -31.5 180.5t-82 121.5t-129 72t-155.5 36t-178 10v-871z" />
    <glyph glyph-name="dcaron" unicode="&#x10f;" horiz-adv-x="1517" 
d="M1352 1368q63 0 104 -40t41 -111q0 -63 -43 -129.5t-113 -106.5h-127q92 84 119 145q-51 3 -82.5 35.5t-31.5 81.5q0 58 37.5 91.5t95.5 33.5zM801 842v516h272v-1358h-250l-6 104q-38 -56 -114 -89t-179 -33q-94 0 -176 32.5t-143.5 92.5t-97 151.5t-35.5 202.5
q0 216 124.5 348.5t325.5 132.5q184 0 279 -100zM584 211q99 0 164 70t65 186q0 115 -65.5 181.5t-163.5 66.5q-105 0 -168.5 -72.5t-63.5 -179.5q0 -113 66 -182.5t166 -69.5z" />
    <glyph glyph-name="Dcroat" unicode="&#x110;" horiz-adv-x="1464" 
d="M496 1327q93 0 169.5 -5t169.5 -21t165.5 -43.5t144.5 -77t119 -116t76.5 -164.5t29.5 -220q0 -121 -28.5 -220.5t-76.5 -169t-117.5 -122.5t-143 -84t-162.5 -50.5t-167 -26.5t-165 -7h-285v567h-221v219h221v541h271zM506 229q575 4 575 451q0 104 -31.5 180.5
t-82 121.5t-128.5 72t-155 36t-178 10v-314h250v-219h-250v-338z" />
    <glyph glyph-name="dcroat" unicode="&#x111;" horiz-adv-x="1161" 
d="M1233 1223v-197h-160v-1026h-250l-6 104q-38 -56 -114 -89t-179 -33q-94 0 -176 32.5t-143.5 92.5t-97 151.5t-35.5 202.5q0 216 124.5 348.5t325.5 132.5q184 0 279 -100v184h-209v197h209v135h272v-135h160zM584 211q99 0 164 70t65 186q0 115 -65.5 181.5t-163.5 66.5
q-105 0 -168.5 -72.5t-63.5 -179.5q0 -113 66 -182.5t166 -69.5z" />
    <glyph glyph-name="Emacron" unicode="&#x112;" horiz-adv-x="1077" 
d="M250 1520v213h633v-213h-633zM154 0v1327h821v-231h-541v-303h381v-232h-381v-328h565v-233h-845z" />
    <glyph glyph-name="emacron" unicode="&#x113;" horiz-adv-x="1062" 
d="M223 1130v213h633v-213h-633zM586 -18q-240 0 -377 121t-137 352q0 141 52.5 250t159.5 173t257 64q118 0 207.5 -38.5t141.5 -105.5t77.5 -150t25.5 -179q0 -45 -8 -92h-633q25 -176 279 -176q165 0 313 78v-222q-150 -75 -358 -75zM352 549h367q-5 78 -52 127t-126 49
q-75 0 -127.5 -48.5t-61.5 -127.5z" />
    <glyph glyph-name="Ebreve" unicode="&#x114;" horiz-adv-x="1077" 
d="M565 1430q-356 0 -356 331v33h207q0 -152 149 -152q152 0 152 152h205v-33q0 -331 -357 -331zM154 0v1327h821v-231h-541v-303h381v-232h-381v-328h565v-233h-845z" />
    <glyph glyph-name="ebreve" unicode="&#x115;" horiz-adv-x="1062" 
d="M539 1047q-355 0 -355 331v33h205q0 -154 150 -154q151 0 151 154h205v-33q0 -152 -83.5 -241.5t-272.5 -89.5zM586 -18q-240 0 -377 121t-137 352q0 141 52.5 250t159.5 173t257 64q118 0 207.5 -38.5t141.5 -105.5t77.5 -150t25.5 -179q0 -45 -8 -92h-633
q25 -176 279 -176q165 0 313 78v-222q-150 -75 -358 -75zM352 549h367q-5 78 -52 127t-126 49q-75 0 -127.5 -48.5t-61.5 -127.5z" />
    <glyph glyph-name="Edotaccent" unicode="&#x116;" horiz-adv-x="1077" 
d="M567 1464q-73 0 -118.5 45.5t-45.5 116.5q0 68 48 115t116 47q69 0 115.5 -47t46.5 -117t-47 -115t-115 -45zM154 0v1327h821v-231h-541v-303h381v-232h-381v-328h565v-233h-845z" />
    <glyph glyph-name="edotaccent" unicode="&#x117;" horiz-adv-x="1062" 
d="M541 1096q-67 0 -108.5 41.5t-41.5 107.5q0 64 44 107t106 43t104.5 -43.5t42.5 -108.5t-41.5 -106t-105.5 -41zM586 -18q-240 0 -377 121t-137 352q0 141 52.5 250t159.5 173t257 64q118 0 207.5 -38.5t141.5 -105.5t77.5 -150t25.5 -179q0 -45 -8 -92h-633
q25 -176 279 -176q165 0 313 78v-222q-150 -75 -358 -75zM352 549h367q-5 78 -52 127t-126 49q-75 0 -127.5 -48.5t-61.5 -127.5z" />
    <glyph glyph-name="Eogonek" unicode="&#x118;" horiz-adv-x="1077" 
d="M852 -424q-109 0 -177.5 51.5t-68.5 159.5q0 73 38 129t106 84h-596v1327h821v-231h-541v-303h381v-232h-381v-328h565v-233q-92 -18 -147 -64t-55 -110q0 -96 100 -96q53 0 88 20v-153q-51 -21 -133 -21z" />
    <glyph glyph-name="eogonek" unicode="&#x119;" horiz-adv-x="1062" 
d="M725 -424q-107 0 -176.5 51.5t-69.5 151.5q0 69 33 124t90 83q-8 -2 -24 -2q-236 0 -371 120t-135 351q0 141 52.5 250t159.5 173t257 64q118 0 207.5 -38.5t141.5 -105.5t77.5 -150t25.5 -179q0 -45 -8 -92h-633q25 -176 283 -176q161 0 309 78v-222
q-150 -64 -211 -114.5t-61 -118.5q0 -94 98 -94q58 0 88 20v-153q-51 -21 -133 -21zM352 549h367q-5 78 -52 127t-126 49q-75 0 -127.5 -48.5t-61.5 -127.5z" />
    <glyph glyph-name="Ecaron" unicode="&#x11a;" horiz-adv-x="1077" 
d="M567 1430l-372 364h270l102 -111l101 111h272zM154 0v1327h821v-231h-541v-303h381v-232h-381v-328h565v-233h-845z" />
    <glyph glyph-name="ecaron" unicode="&#x11b;" horiz-adv-x="1062" 
d="M541 1047l-373 364h270l103 -111l100 111h272zM586 -18q-240 0 -377 121t-137 352q0 141 52.5 250t159.5 173t257 64q118 0 207.5 -38.5t141.5 -105.5t77.5 -150t25.5 -179q0 -45 -8 -92h-633q25 -176 279 -176q165 0 313 78v-222q-150 -75 -358 -75zM352 549h367
q-5 78 -52 127t-126 49q-75 0 -127.5 -48.5t-61.5 -127.5z" />
    <glyph glyph-name="Gcircumflex" unicode="&#x11c;" horiz-adv-x="1458" 
d="M416 1448l372 364l373 -364h-272l-101 111l-102 -111h-270zM782 -20q-141 0 -256.5 37.5t-194.5 101.5t-133.5 152t-79 187.5t-24.5 209.5q0 310 191.5 495t502.5 185q84 0 163 -14.5t133.5 -36t83.5 -36t44 -24.5v-272q-69 50 -177 89.5t-226 39.5q-86 0 -162.5 -27.5
t-135.5 -79.5t-93.5 -133.5t-34.5 -181.5q0 -201 111.5 -318.5t287.5 -117.5q144 0 230.5 72t93.5 214h-358v223h634v-59q0 -80 -7 -150.5t-25.5 -143.5t-47.5 -132t-76 -112.5t-108 -89.5t-146.5 -57t-189.5 -21z" />
    <glyph glyph-name="gcircumflex" unicode="&#x11d;" horiz-adv-x="1210" 
d="M223 1065l373 365l373 -365h-273l-100 111l-102 -111h-271zM565 -426q-196 0 -297 43v229q129 -47 264 -47q137 0 205 71t68 218v18q-44 -47 -116.5 -76.5t-164.5 -29.5q-208 0 -330 130t-122 335q0 215 131.5 346t326.5 131q95 0 172 -31t123 -88l4 101h248v-832
q0 -149 -36 -252.5t-106 -160.5t-159.5 -81t-210.5 -24zM578 227q96 0 160.5 65t64.5 179q0 111 -59 178.5t-162 67.5q-101 0 -165.5 -67t-64.5 -181q0 -113 63.5 -177.5t162.5 -64.5z" />
    <glyph glyph-name="Gbreve" unicode="&#x11e;" horiz-adv-x="1458" 
d="M786 1430q-356 0 -356 331v33h207q0 -152 149 -152q152 0 152 152h205v-33q0 -331 -357 -331zM782 -20q-141 0 -256.5 37.5t-194.5 101.5t-133.5 152t-79 187.5t-24.5 209.5q0 310 191.5 495t502.5 185q84 0 163 -14.5t133.5 -36t83.5 -36t44 -24.5v-272
q-69 50 -177 89.5t-226 39.5q-86 0 -162.5 -27.5t-135.5 -79.5t-93.5 -133.5t-34.5 -181.5q0 -201 111.5 -318.5t287.5 -117.5q144 0 230.5 72t93.5 214h-358v223h634v-59q0 -80 -7 -150.5t-25.5 -143.5t-47.5 -132t-76 -112.5t-108 -89.5t-146.5 -57t-189.5 -21z" />
    <glyph glyph-name="gbreve" unicode="&#x11f;" horiz-adv-x="1210" 
d="M594 1047q-354 0 -354 331v33h204q0 -154 150 -154q151 0 151 154h205v-33q0 -152 -83.5 -241.5t-272.5 -89.5zM565 -426q-196 0 -297 43v229q129 -47 264 -47q137 0 205 71t68 218v18q-44 -47 -116.5 -76.5t-164.5 -29.5q-208 0 -330 130t-122 335q0 215 131.5 346
t326.5 131q95 0 172 -31t123 -88l4 101h248v-832q0 -149 -36 -252.5t-106 -160.5t-159.5 -81t-210.5 -24zM578 227q96 0 160.5 65t64.5 179q0 111 -59 178.5t-162 67.5q-101 0 -165.5 -67t-64.5 -181q0 -113 63.5 -177.5t162.5 -64.5z" />
    <glyph glyph-name="Gdotaccent" unicode="&#x120;" horiz-adv-x="1458" 
d="M788 1464q-73 0 -118 45.5t-45 116.5q0 69 47.5 115.5t115.5 46.5q69 0 115.5 -47t46.5 -117t-47 -115t-115 -45zM782 -20q-141 0 -256.5 37.5t-194.5 101.5t-133.5 152t-79 187.5t-24.5 209.5q0 310 191.5 495t502.5 185q84 0 163 -14.5t133.5 -36t83.5 -36t44 -24.5
v-272q-69 50 -177 89.5t-226 39.5q-86 0 -162.5 -27.5t-135.5 -79.5t-93.5 -133.5t-34.5 -181.5q0 -201 111.5 -318.5t287.5 -117.5q144 0 230.5 72t93.5 214h-358v223h634v-59q0 -80 -7 -150.5t-25.5 -143.5t-47.5 -132t-76 -112.5t-108 -89.5t-146.5 -57t-189.5 -21z" />
    <glyph glyph-name="gdotaccent" unicode="&#x121;" horiz-adv-x="1210" 
d="M596 1096q-67 0 -108.5 41.5t-41.5 107.5q0 64 44 107t106 43t104.5 -43.5t42.5 -108.5t-41.5 -106t-105.5 -41zM565 -426q-196 0 -297 43v229q129 -47 264 -47q137 0 205 71t68 218v18q-44 -47 -116.5 -76.5t-164.5 -29.5q-208 0 -330 130t-122 335q0 215 131.5 346
t326.5 131q95 0 172 -31t123 -88l4 101h248v-832q0 -149 -36 -252.5t-106 -160.5t-159.5 -81t-210.5 -24zM578 227q96 0 160.5 65t64.5 179q0 111 -59 178.5t-162 67.5q-101 0 -165.5 -67t-64.5 -181q0 -113 63.5 -177.5t162.5 -64.5z" />
    <glyph glyph-name="Gcommaaccent" unicode="&#x122;" horiz-adv-x="1458" 
d="M748 745h634v-59q0 -80 -7 -150.5t-25.5 -143.5t-47.5 -132t-76 -112.5t-108 -89.5t-146.5 -57t-189.5 -21q-141 0 -256.5 37.5t-194.5 101.5t-133.5 152t-79 187.5t-24.5 209.5q0 310 191.5 495t502.5 185q84 0 163 -14.5t133.5 -36t83.5 -36t44 -24.5v-272
q-69 50 -177 89.5t-226 39.5q-86 0 -162.5 -27.5t-135.5 -79.5t-93.5 -133.5t-34.5 -181.5q0 -201 111.5 -318.5t287.5 -117.5q144 0 230.5 72t93.5 214h-358v223zM774 -90q63 0 105.5 -40.5t42.5 -111.5q0 -108 -115 -204h-143q58 51 94 116q-52 3 -84.5 35t-32.5 82
q0 57 38 90t95 33z" />
    <glyph glyph-name="gcommaaccent" unicode="&#x123;" horiz-adv-x="1210" 
d="M551 1065q-62 0 -103.5 40.5t-41.5 111.5q0 63 42.5 129t112.5 106h127q-92 -84 -119 -145q51 -3 83 -35.5t32 -81.5q0 -58 -37.5 -91.5t-95.5 -33.5zM829 924h248v-832q0 -149 -36 -252.5t-106 -160.5t-159.5 -81t-210.5 -24q-196 0 -297 43v229q129 -47 264 -47
q137 0 205 71t68 218v18q-44 -47 -116.5 -76.5t-164.5 -29.5q-208 0 -330 130t-122 335q0 215 131.5 346t326.5 131q95 0 172 -31t123 -88zM578 227q96 0 160.5 65t64.5 179q0 111 -59 178.5t-162 67.5q-101 0 -165.5 -67t-64.5 -181q0 -113 63.5 -177.5t162.5 -64.5z" />
    <glyph glyph-name="Hcircumflex" unicode="&#x124;" horiz-adv-x="1429" 
d="M342 1448l373 364l372 -364h-272l-100 111l-103 -111h-270zM154 0v1327h280v-534h561v534h281v-1327h-281v557h-561v-557h-280z" />
    <glyph glyph-name="hcircumflex" unicode="&#x125;" horiz-adv-x="1118" 
d="M-102 1468l372 365l373 -365h-272l-101 111l-102 -111h-270zM133 0v1358h273v-514q86 98 247 98q167 0 256.5 -94.5t89.5 -286.5v-561h-272v508q0 47 -5.5 80.5t-20.5 65t-46 47.5t-77 16q-45 0 -77.5 -15.5t-50.5 -40t-28 -65t-13 -78t-3 -92.5v-426h-273z" />
    <glyph glyph-name="Hbar" unicode="&#x126;" horiz-adv-x="1540" 
d="M1536 1163v-211h-188v-952h-281v557h-561v-557h-281v952h-221v211h221v164h281v-164h561v164h281v-164h188zM1067 793v159h-561v-159h561z" />
    <glyph glyph-name="hbar" unicode="&#x127;" horiz-adv-x="1118" 
d="M653 942q167 0 256.5 -94.5t89.5 -286.5v-561h-272v508q0 47 -5.5 80.5t-20.5 65t-46 47.5t-77 16q-45 0 -77.5 -15.5t-50.5 -40t-28 -65t-13 -78t-3 -92.5v-426h-273v1026h-160v197h160v135h273v-135h208v-197h-208v-182q86 98 247 98z" />
    <glyph glyph-name="Itilde" unicode="&#x128;" horiz-adv-x="587" 
d="M434 1477q-52 0 -105.5 21t-96 42t-68.5 21q-36 0 -52 -22.5t-16 -51.5h-168q0 107 58.5 184.5t165.5 77.5q54 0 109 -21t97.5 -42t67.5 -21q34 0 50 23.5t16 50.5h167q0 -48 -14 -93.5t-40.5 -83.5t-71 -61.5t-99.5 -23.5zM154 0v1327h280v-1327h-280z" />
    <glyph glyph-name="itilde" unicode="&#x129;" horiz-adv-x="565" 
d="M424 1094q-52 0 -105.5 21t-96 42t-68.5 21q-36 0 -52 -23t-16 -51h-168q0 107 58 184.5t165 77.5q54 0 109 -21t98 -42t68 -21q34 0 49.5 23t15.5 51h168q0 -48 -14 -93.5t-40.5 -83.5t-71 -61.5t-99.5 -23.5zM160 0v711h-119v213h391v-924h-272z" />
    <glyph glyph-name="Imacron" unicode="&#x12a;" horiz-adv-x="587" 
d="M-23 1520v213h633v-213h-633zM154 0v1327h280v-1327h-280z" />
    <glyph glyph-name="imacron" unicode="&#x12b;" horiz-adv-x="565" 
d="M-33 1130v213h633v-213h-633zM160 0v711h-119v213h391v-924h-272z" />
    <glyph glyph-name="Ibreve" unicode="&#x12c;" horiz-adv-x="587" 
d="M293 1430q-356 0 -356 331v33h206q0 -152 150 -152q151 0 151 152h205v-33q0 -331 -356 -331zM154 0v1327h280v-1327h-280z" />
    <glyph glyph-name="ibreve" unicode="&#x12d;" horiz-adv-x="565" 
d="M283 1047q-355 0 -355 331v33h205q0 -154 150 -154q151 0 151 154h205v-33q0 -152 -83.5 -241.5t-272.5 -89.5zM160 0v711h-119v213h391v-924h-272z" />
    <glyph glyph-name="Iogonek" unicode="&#x12e;" horiz-adv-x="587" 
d="M279 -424q-52 0 -95 11.5t-79 35.5t-56 68t-20 104q0 64 34.5 121.5t90.5 85.5v1325h280v-1327q-98 -20 -155.5 -64.5t-57.5 -109.5q0 -96 98 -96q59 0 89 20v-153q-49 -21 -129 -21z" />
    <glyph glyph-name="iogonek" unicode="&#x12f;" horiz-adv-x="565" 
d="M297 1096q-66 0 -108 41.5t-42 107.5q0 63 44.5 106.5t105.5 43.5q63 0 105 -43t42 -109q0 -65 -41.5 -106t-105.5 -41zM41 711v213h391v-924q-96 -21 -151.5 -65.5t-55.5 -108.5q0 -96 101 -96q53 0 88 20v-153q-51 -21 -133 -21q-110 0 -179 51.5t-69 159.5
q0 140 127 219v705h-119z" />
    <glyph glyph-name="Idotaccent" unicode="&#x130;" horiz-adv-x="587" 
d="M295 1464q-73 0 -118.5 45.5t-45.5 116.5q0 68 48 115t116 47q69 0 115.5 -47t46.5 -117t-47 -115t-115 -45zM154 0v1327h280v-1327h-280z" />
    <glyph glyph-name="dotlessi" unicode="&#x131;" horiz-adv-x="565" 
d="M160 0v711h-119v213h391v-924h-272z" />
    <glyph glyph-name="IJ" unicode="&#x132;" horiz-adv-x="1560" 
d="M154 0v1327h280v-1327h-280zM965 -20q-84 0 -157.5 14.5t-111.5 34.5v252q83 -58 213 -58q46 0 81 8.5t59 22t41 37.5t26 47t14 58.5t6 63.5t1 70v568h-303v229h585v-864q0 -483 -454 -483z" />
    <glyph glyph-name="ij" unicode="&#x133;" horiz-adv-x="1138" 
d="M297 1096q-66 0 -108 41.5t-42 107.5q0 63 44.5 106.5t105.5 43.5q63 0 105 -43t42 -109q0 -65 -41.5 -106t-105.5 -41zM870 1096q-66 0 -107.5 41.5t-41.5 107.5q0 64 44 107t105 43q63 0 105.5 -43t42.5 -109q0 -65 -42 -106t-106 -41zM160 0v711h-119v213h391v-924
h-272zM567 -424q-106 0 -170 25v219q60 -25 133 -25q109 0 156 65.5t47 200.5v650h-119v213h392v-850q0 -140 -30.5 -238.5t-90.5 -154.5t-137.5 -80.5t-180.5 -24.5z" />
    <glyph glyph-name="Jcircumflex" unicode="&#x134;" horiz-adv-x="966" 
d="M145 1448l373 364l373 -364h-273l-100 111l-102 -111h-271zM371 -20q-84 0 -157.5 14.5t-111.5 34.5v252q83 -58 213 -58q46 0 81 8.5t59 22t41 37.5t26 47t14 58.5t6 63.5t1 70v568h-303v229h585v-864q0 -483 -454 -483z" />
    <glyph glyph-name="jcircumflex" unicode="&#x135;" horiz-adv-x="565" 
d="M-111 1065l373 365l373 -365h-273l-100 111l-102 -111h-271zM-6 -424q-106 0 -170 25v219q60 -25 133 -25q109 0 156 65.5t47 200.5v650h-119v213h391v-850q0 -140 -30.5 -238.5t-90 -154.5t-137 -80.5t-180.5 -24.5z" />
    <glyph glyph-name="Kcommaaccent" unicode="&#x136;" horiz-adv-x="1390" 
d="M762 680l598 -680h-375l-551 647v-647h-280v1327h280v-633l553 633h361zM690 -90q63 0 105.5 -40.5t42.5 -111.5q0 -108 -115 -204h-143q58 51 94 116q-52 3 -84.5 35t-32.5 82q0 57 38 90t95 33z" />
    <glyph glyph-name="kcommaaccent" unicode="&#x137;" horiz-adv-x="1107" 
d="M707 498l389 -498h-342l-348 471v-471h-273v1358h273v-846l329 412h342zM571 -90q63 0 105.5 -40.5t42.5 -111.5q0 -108 -115 -204h-143q58 51 94 116q-52 3 -84.5 35t-32.5 82q0 57 38 90t95 33z" />
    <glyph glyph-name="kgreenlandic" unicode="&#x138;" horiz-adv-x="1099" 
d="M133 0v924h273v-428l329 428h340l-368 -445l389 -479h-344l-346 449v-449h-273z" />
    <glyph glyph-name="Lacute" unicode="&#x139;" horiz-adv-x="1081" 
d="M156 1448l247 346h361l-342 -346h-266zM154 0v1327h280v-1094h586v-233h-866z" />
    <glyph glyph-name="lacute" unicode="&#x13a;" horiz-adv-x="536" 
d="M133 1499l248 346h360l-342 -346h-266zM133 0v1358h273v-1358h-273z" />
    <glyph glyph-name="Lcommaaccent" unicode="&#x13b;" horiz-adv-x="1081" 
d="M434 233h586v-233h-866v1327h280v-1094zM590 -90q63 0 105 -40.5t42 -111.5q0 -109 -114 -204h-144q58 51 94 116q-52 3 -84 35t-32 82q0 57 38 90t95 33z" />
    <glyph glyph-name="lcommaaccent" unicode="&#x13c;" horiz-adv-x="536" 
d="M406 1358v-1358h-273v1358h273zM262 -90q63 0 105.5 -40.5t42.5 -111.5q0 -108 -115 -204h-143q58 51 94 116q-52 3 -84.5 35t-32.5 82q0 57 38 90t95 33z" />
    <glyph glyph-name="Lcaron" unicode="&#x13d;" horiz-adv-x="1081" 
d="M616 961q92 84 119 145q-51 3 -82.5 35.5t-31.5 81.5q0 58 37.5 91.5t95.5 33.5q62 0 103.5 -40.5t41.5 -111.5q0 -63 -42.5 -129t-113.5 -106h-127zM434 233h586v-233h-866v1327h280v-1094z" />
    <glyph glyph-name="lcaron" unicode="&#x13e;" horiz-adv-x="827" 
d="M684 1368q63 0 104 -40t41 -111q0 -63 -42.5 -129.5t-112.5 -106.5h-127q92 84 119 145q-51 3 -83 35.5t-32 81.5q0 58 37.5 91.5t95.5 33.5zM133 0v1358h273v-1358h-273z" />
    <glyph glyph-name="Ldot" unicode="&#x13f;" horiz-adv-x="1081" 
d="M154 0v1327h280v-1094h586v-233h-866zM838 514q-72 0 -118 46.5t-46 119.5q0 71 48.5 117.5t115.5 46.5q70 0 115.5 -46.5t45.5 -119.5q0 -72 -46 -118t-115 -46z" />
    <glyph glyph-name="ldot" unicode="&#x140;" horiz-adv-x="931" 
d="M133 0v1358h273v-1358h-273zM727 524q-73 0 -118.5 45.5t-45.5 116.5q0 68 48 114t116 46q71 0 116.5 -46t45.5 -116q0 -71 -46.5 -115.5t-115.5 -44.5z" />
    <glyph glyph-name="Lslash" unicode="&#x141;" horiz-adv-x="1081" 
d="M154 0v457l-191 -107v234l191 106v637h280v-516l268 152v-240l-268 -152v-338h586v-233h-866z" />
    <glyph glyph-name="lslash" unicode="&#x142;" horiz-adv-x="700" 
d="M215 2v510l-160 -94v217l160 90v633h272v-508l160 94v-223l-160 -88v-631h-272z" />
    <glyph glyph-name="Nacute" unicode="&#x143;" horiz-adv-x="1445" 
d="M516 1448l248 346h360l-342 -346h-266zM1274 -20l-846 782v-762h-274v1348h20l844 -783l2 762h274v-1347h-20z" />
    <glyph glyph-name="nacute" unicode="&#x144;" horiz-adv-x="1118" 
d="M397 1065l248 346h361l-342 -346h-267zM133 0v924h248l6 -103q82 121 266 121q167 0 256.5 -94.5t89.5 -286.5v-561h-272v508q0 47 -5.5 80.5t-21 65t-47 47.5t-78.5 16q-45 0 -76.5 -16t-49.5 -40t-28 -65t-12.5 -78.5t-2.5 -91.5v-426h-273z" />
    <glyph glyph-name="Ncommaaccent" unicode="&#x145;" horiz-adv-x="1445" 
d="M1020 1327h274v-1347h-20l-846 782v-762h-274v1348h20l844 -783zM717 -90q63 0 105 -40.5t42 -111.5q0 -109 -114 -204h-144q58 51 94 116q-52 3 -84 35t-32 82q0 57 38 90t95 33z" />
    <glyph glyph-name="ncommaaccent" unicode="&#x146;" horiz-adv-x="1118" 
d="M653 942q167 0 256.5 -94.5t89.5 -286.5v-561h-272v508q0 47 -5.5 80.5t-21 65t-47 47.5t-78.5 16q-45 0 -76.5 -16t-49.5 -40t-28 -65t-12.5 -78.5t-2.5 -91.5v-426h-273v924h248l6 -103q82 121 266 121zM555 -90q63 0 105 -40.5t42 -111.5q0 -109 -114 -204h-144
q60 52 95 116q-52 3 -84.5 35t-32.5 82q0 57 38 90t95 33z" />
    <glyph glyph-name="Ncaron" unicode="&#x147;" horiz-adv-x="1445" 
d="M725 1430l-373 364h271l102 -111l100 111h273zM1274 -20l-846 782v-762h-274v1348h20l844 -783l2 762h274v-1347h-20z" />
    <glyph glyph-name="ncaron" unicode="&#x148;" horiz-adv-x="1118" 
d="M604 1047l-373 364h271l102 -111l101 111h272zM133 0v924h248l6 -103q82 121 266 121q167 0 256.5 -94.5t89.5 -286.5v-561h-272v508q0 47 -5.5 80.5t-21 65t-47 47.5t-78.5 16q-45 0 -76.5 -16t-49.5 -40t-28 -65t-12.5 -78.5t-2.5 -91.5v-426h-273z" />
    <glyph glyph-name="Eng" unicode="&#x14a;" horiz-adv-x="1445" 
d="M848 -424q-122 0 -209 25v221q62 -27 154 -27q46 0 81 8.5t59 21t40.5 37t25.5 47t14 60t6 67.5t1 77v96l-592 553v-762h-274v1348h22l842 -783l2 762h274v-1223q0 -268 -104.5 -398t-341.5 -130z" />
    <glyph glyph-name="eng" unicode="&#x14b;" horiz-adv-x="1118" 
d="M616 -424q-68 0 -110 10v211q30 -6 63 -6q52 0 84.5 19t53 73.5t20.5 147.5v477q0 47 -5.5 80.5t-21 65t-47 47.5t-78.5 16q-45 0 -76.5 -16t-49.5 -40t-28 -65t-12.5 -78.5t-2.5 -91.5v-426h-273v924h248l6 -103q83 121 266 121q167 0 256.5 -94.5t89.5 -286.5v-487
q0 -121 -15.5 -205.5t-56 -154t-118 -104t-193.5 -34.5z" />
    <glyph glyph-name="Omacron" unicode="&#x14c;" horiz-adv-x="1560" 
d="M469 1520v213h633v-213h-633zM776 -20q-205 0 -361 88t-238.5 243t-82.5 353q0 200 84.5 355t242 242t365.5 87q205 0 360 -86.5t237.5 -240.5t82.5 -353q0 -197 -83.5 -353t-241.5 -245.5t-365 -89.5zM784 238q170 0 282 116t112 310q0 195 -114.5 311.5t-283.5 116.5
q-171 0 -284 -116t-113 -308q0 -196 114 -313t287 -117z" />
    <glyph glyph-name="omacron" unicode="&#x14d;" horiz-adv-x="1167" 
d="M266 1130v213h633v-213h-633zM580 -18q-231 0 -369.5 131t-138.5 344q0 214 141 349.5t377 135.5q230 0 368 -126t138 -345q0 -221 -143 -355t-373 -134zM584 211q105 0 167 71.5t62 184.5q0 110 -63 179t-166 69q-108 0 -170 -75t-62 -177q0 -109 64.5 -180.5
t167.5 -71.5z" />
    <glyph glyph-name="Obreve" unicode="&#x14e;" horiz-adv-x="1560" 
d="M784 1430q-356 0 -356 331v33h207q0 -152 149 -152q152 0 152 152h205v-33q0 -331 -357 -331zM776 -20q-205 0 -361 88t-238.5 243t-82.5 353q0 200 84.5 355t242 242t365.5 87q205 0 360 -86.5t237.5 -240.5t82.5 -353q0 -197 -83.5 -353t-241.5 -245.5t-365 -89.5z
M784 238q170 0 282 116t112 310q0 195 -114.5 311.5t-283.5 116.5q-171 0 -284 -116t-113 -308q0 -196 114 -313t287 -117z" />
    <glyph glyph-name="obreve" unicode="&#x14f;" horiz-adv-x="1167" 
d="M582 1047q-355 0 -355 331v33h205q0 -154 150 -154q151 0 151 154h205v-33q0 -152 -83.5 -241.5t-272.5 -89.5zM580 -18q-231 0 -369.5 131t-138.5 344q0 214 141 349.5t377 135.5q230 0 368 -126t138 -345q0 -221 -143 -355t-373 -134zM584 211q105 0 167 71.5t62 184.5
q0 110 -63 179t-166 69q-108 0 -170 -75t-62 -177q0 -109 64.5 -180.5t167.5 -71.5z" />
    <glyph glyph-name="Ohungarumlaut" unicode="&#x150;" horiz-adv-x="1560" 
d="M291 1448l280 346h363l-373 -346h-270zM786 1448l279 346h362l-372 -346h-269zM776 -20q-205 0 -361 88t-238.5 243t-82.5 353q0 200 84.5 355t242 242t365.5 87q205 0 360 -86.5t237.5 -240.5t82.5 -353q0 -197 -83.5 -353t-241.5 -245.5t-365 -89.5zM784 238
q170 0 282 116t112 310q0 195 -114.5 311.5t-283.5 116.5q-171 0 -284 -116t-113 -308q0 -196 114 -313t287 -117z" />
    <glyph glyph-name="ohungarumlaut" unicode="&#x151;" horiz-adv-x="1167" 
d="M360 1065l281 346h446l-372 -346h-355zM590 942q230 0 368 -126t138 -345q0 -221 -143 -355t-373 -134q-231 0 -369.5 131t-138.5 344q0 214 141 349.5t377 135.5zM584 211q105 0 167 71.5t62 184.5q0 110 -63 179t-166 69q-108 0 -170 -75t-62 -177q0 -109 64.5 -180.5
t167.5 -71.5z" />
    <glyph glyph-name="OE" unicode="&#x152;" horiz-adv-x="2097" 
d="M776 -20q-205 0 -361 88t-238.5 243.5t-82.5 354.5t84.5 354t240.5 241.5t359 86.5q128 0 239 -46.5t189 -125.5v151h787v-231h-539v-303h379v-232h-379v-328h563v-233h-811v156q-70 -77 -186.5 -126.5t-243.5 -49.5zM784 240q167 0 279.5 119t112.5 305
q0 192 -114.5 310t-281.5 118q-171 0 -284 -117t-113 -307q0 -189 115 -308.5t286 -119.5z" />
    <glyph glyph-name="oe" unicode="&#x153;" horiz-adv-x="1804" 
d="M578 -18q-230 0 -368 131t-138 342q0 214 141 350.5t371 136.5q121 0 213 -36.5t143 -104.5q118 141 342 141q119 0 208.5 -38.5t141.5 -105.5t77.5 -149.5t25.5 -179.5q0 -39 -9 -92h-632q26 -178 282 -178q160 0 310 80v-222q-139 -75 -347 -75q-129 0 -234 37
t-163 112q-60 -74 -157.5 -111.5t-206.5 -37.5zM1094 549h366q-5 78 -52 127t-126 49q-75 0 -127 -48.5t-61 -127.5zM584 211q105 0 168 72t63 182q0 111 -63.5 180.5t-167.5 69.5q-109 0 -170.5 -74.5t-61.5 -179.5q0 -107 64.5 -178.5t167.5 -71.5z" />
    <glyph glyph-name="Racute" unicode="&#x154;" horiz-adv-x="1239" 
d="M989 1794l-342 -346h-266l248 346h360zM856 498l338 -498h-340l-283 455h-137v-455h-280v1327h405q89 0 161 -9t148.5 -37t128 -74t84.5 -126t33 -188q0 -157 -72.5 -255.5t-185.5 -139.5zM524 680q53 0 93.5 4.5t81 18t67 36.5t43 62t16.5 92q0 54 -18 93t-46 61t-70 35
t-80 16.5t-87 3.5h-90v-422h90z" />
    <glyph glyph-name="racute" unicode="&#x155;" horiz-adv-x="704" 
d="M260 1065l248 346h360l-342 -346h-266zM133 0v924h248l6 -109q41 62 111 94.5t147 32.5q29 0 35 -2v-244q-8 6 -34 13.5t-56 7.5q-48 0 -82 -15.5t-53.5 -40t-30.5 -64.5t-14.5 -79t-3.5 -94v-424h-273z" />
    <glyph glyph-name="Rcommaaccent" unicode="&#x156;" horiz-adv-x="1239" 
d="M856 498l338 -498h-340l-283 455h-137v-455h-280v1327h405q89 0 161 -9t148.5 -37t128 -74t84.5 -126t33 -188q0 -157 -72.5 -255.5t-185.5 -139.5zM524 680q53 0 93.5 4.5t81 18t67 36.5t43 62t16.5 92q0 54 -18 93t-46 61t-70 35t-80 16.5t-87 3.5h-90v-422h90z
M623 -90q63 0 105 -40.5t42 -111.5q0 -108 -115 -204h-143q58 51 94 116q-52 3 -84.5 35t-32.5 82q0 57 38 90t96 33z" />
    <glyph glyph-name="rcommaaccent" unicode="&#x157;" horiz-adv-x="704" 
d="M645 942q29 0 35 -2v-244q-8 6 -34 13.5t-56 7.5q-48 0 -82 -15.5t-53.5 -40t-30.5 -64.5t-14.5 -79t-3.5 -94v-424h-273v924h248l6 -109q41 62 111 94.5t147 32.5zM256 -90q63 0 105 -40.5t42 -111.5q0 -109 -114 -204h-144q60 52 95 116q-52 3 -84.5 35t-32.5 82
q0 57 38 90t95 33z" />
    <glyph glyph-name="Rcaron" unicode="&#x158;" horiz-adv-x="1239" 
d="M963 1794l-373 -364l-373 364h270l103 -111l100 111h273zM856 498l338 -498h-340l-283 455h-137v-455h-280v1327h405q89 0 161 -9t148.5 -37t128 -74t84.5 -126t33 -188q0 -157 -72.5 -255.5t-185.5 -139.5zM524 680q53 0 93.5 4.5t81 18t67 36.5t43 62t16.5 92
q0 54 -18 93t-46 61t-70 35t-80 16.5t-87 3.5h-90v-422h90z" />
    <glyph glyph-name="rcaron" unicode="&#x159;" horiz-adv-x="704" 
d="M467 1047l-373 364h271l102 -111l100 111h273zM133 0v924h248l6 -109q41 62 111 94.5t147 32.5q29 0 35 -2v-244q-8 6 -34 13.5t-56 7.5q-48 0 -82 -15.5t-53.5 -40t-30.5 -64.5t-14.5 -79t-3.5 -94v-424h-273z" />
    <glyph glyph-name="Sacute" unicode="&#x15a;" horiz-adv-x="1024" 
d="M354 1448l248 346h361l-342 -346h-267zM479 -20q-193 0 -360 79v275q72 -50 164.5 -82.5t187.5 -32.5q89 0 135.5 35.5t46.5 99.5q0 48 -29 84.5t-75 62t-102 51t-112 59t-102 76.5t-75 114t-29 162q0 179 114.5 282t319.5 103q95 0 182 -20t132 -44v-272q-66 42 -145 70
t-150 28q-81 0 -124.5 -36t-43.5 -99q0 -46 29 -81.5t75.5 -60t103 -49t113 -57t103 -75.5t75.5 -113.5t29 -161.5q0 -191 -120 -294t-343 -103z" />
    <glyph glyph-name="sacute" unicode="&#x15b;" horiz-adv-x="796" 
d="M229 1065l248 346h361l-342 -346h-267zM373 -18q-80 0 -155 15.5t-118 37.5v215q41 -24 113 -48t141 -24q60 0 90.5 24.5t30.5 65.5q0 33 -20.5 56t-53.5 37.5t-72.5 28.5t-79.5 34.5t-73 48.5t-53.5 77t-20.5 114q0 140 90.5 209t247.5 69q74 0 134.5 -13t87.5 -28v-213
q-114 60 -203 60q-51 0 -77 -20.5t-26 -53.5q0 -28 20.5 -47.5t53 -33t72 -26.5t79.5 -33.5t72.5 -49.5t53 -79t20.5 -116q0 -150 -96.5 -228.5t-257.5 -78.5z" />
    <glyph glyph-name="Scircumflex" unicode="&#x15c;" horiz-adv-x="1024" 
d="M190 1448l373 364l373 -364h-272l-101 111l-102 -111h-271zM479 -20q-193 0 -360 79v275q72 -50 164.5 -82.5t187.5 -32.5q89 0 135.5 35.5t46.5 99.5q0 48 -29 84.5t-75 62t-102 51t-112 59t-102 76.5t-75 114t-29 162q0 179 114.5 282t319.5 103q95 0 182 -20t132 -44
v-272q-66 42 -145 70t-150 28q-81 0 -124.5 -36t-43.5 -99q0 -46 29 -81.5t75.5 -60t103 -49t113 -57t103 -75.5t75.5 -113.5t29 -161.5q0 -191 -120 -294t-343 -103z" />
    <glyph glyph-name="scircumflex" unicode="&#x15d;" horiz-adv-x="796" 
d="M63 1065l373 365l373 -365h-272l-101 111l-102 -111h-271zM373 -18q-80 0 -155 15.5t-118 37.5v215q41 -24 113 -48t141 -24q60 0 90.5 24.5t30.5 65.5q0 33 -20.5 56t-53.5 37.5t-72.5 28.5t-79.5 34.5t-73 48.5t-53.5 77t-20.5 114q0 140 90.5 209t247.5 69
q74 0 134.5 -13t87.5 -28v-213q-114 60 -203 60q-51 0 -77 -20.5t-26 -53.5q0 -28 20.5 -47.5t53 -33t72 -26.5t79.5 -33.5t72.5 -49.5t53 -79t20.5 -116q0 -150 -96.5 -228.5t-257.5 -78.5z" />
    <glyph glyph-name="Scedilla" unicode="&#x15e;" horiz-adv-x="1024" 
d="M942 377q0 -179 -105.5 -281t-301.5 -114l-19 -62q4 2 12 2q65 -2 110.5 -40.5t45.5 -119.5q0 -42 -14 -75t-37 -53.5t-55 -33.5t-66 -18.5t-72 -5.5q-92 0 -139 21v137q17 -10 49.5 -19.5t59.5 -9.5q79 0 79 62q0 59 -65 59q-42 0 -72 -27l-18 11l49 176
q-135 14 -264 73v275q72 -50 164.5 -82.5t187.5 -32.5q89 0 135.5 35.5t46.5 99.5q0 48 -29 84.5t-75 62t-102 51t-112 59t-102 76.5t-75 114t-29 162q0 179 114.5 282t319.5 103q95 0 182 -20t132 -44v-272q-66 42 -145 70t-150 28q-81 0 -124.5 -36t-43.5 -99
q0 -46 29 -81.5t75.5 -60t103 -49t113 -57t103 -75.5t75.5 -113.5t29 -161.5z" />
    <glyph glyph-name="scedilla" unicode="&#x15f;" horiz-adv-x="796" 
d="M727 289q0 -134 -78.5 -211.5t-212.5 -91.5l-20 -66q4 2 12 2q65 -2 110.5 -40.5t45.5 -119.5q0 -42 -14 -75t-37 -53.5t-55 -33.5t-66 -18.5t-72 -5.5q-92 0 -139 21v137q17 -10 49 -19.5t59 -9.5q80 0 80 62q0 59 -65 59q-42 0 -72 -27l-19 11l52 178q-107 11 -185 47
v215q41 -24 113 -48t141 -24q60 0 90.5 24.5t30.5 65.5q0 33 -20.5 56t-53.5 37.5t-72.5 28.5t-79.5 34.5t-73 48.5t-53.5 77t-20.5 114q0 140 90.5 209t247.5 69q74 0 134.5 -13t87.5 -28v-213q-114 60 -203 60q-51 0 -77 -20.5t-26 -53.5q0 -28 20.5 -47.5t53 -33
t72 -26.5t79.5 -33.5t72.5 -49.5t53 -79t20.5 -116z" />
    <glyph glyph-name="Scaron" unicode="&#x160;" horiz-adv-x="1024" 
d="M563 1430l-373 364h271l102 -111l101 111h272zM479 -20q-193 0 -360 79v275q72 -50 164.5 -82.5t187.5 -32.5q89 0 135.5 35.5t46.5 99.5q0 48 -29 84.5t-75 62t-102 51t-112 59t-102 76.5t-75 114t-29 162q0 179 114.5 282t319.5 103q95 0 182 -20t132 -44v-272
q-66 42 -145 70t-150 28q-81 0 -124.5 -36t-43.5 -99q0 -46 29 -81.5t75.5 -60t103 -49t113 -57t103 -75.5t75.5 -113.5t29 -161.5q0 -191 -120 -294t-343 -103z" />
    <glyph glyph-name="scaron" unicode="&#x161;" horiz-adv-x="796" 
d="M436 1047l-373 364h271l102 -111l101 111h272zM373 -18q-80 0 -155 15.5t-118 37.5v215q41 -24 113 -48t141 -24q60 0 90.5 24.5t30.5 65.5q0 33 -20.5 56t-53.5 37.5t-72.5 28.5t-79.5 34.5t-73 48.5t-53.5 77t-20.5 114q0 140 90.5 209t247.5 69q74 0 134.5 -13
t87.5 -28v-213q-114 60 -203 60q-51 0 -77 -20.5t-26 -53.5q0 -28 20.5 -47.5t53 -33t72 -26.5t79.5 -33.5t72.5 -49.5t53 -79t20.5 -116q0 -150 -96.5 -228.5t-257.5 -78.5z" />
    <glyph glyph-name="uni0162" unicode="&#x162;" horiz-adv-x="1150" 
d="M74 1327h1003v-231h-360v-1096h-281v1096h-362v231zM567 -90q63 0 105.5 -40.5t42.5 -111.5q0 -108 -115 -204h-143q58 51 94 116q-52 3 -84.5 35t-32.5 82q0 57 38 90t95 33z" />
    <glyph glyph-name="uni0163" unicode="&#x163;" horiz-adv-x="839" 
d="M608 205q73 0 152 35v-220q-78 -38 -213 -38q-177 0 -265.5 86t-88.5 268v375h-166v20q64 68 215.5 240.5t201.5 238.5h21v-286h254v-213h-254v-338q0 -84 28.5 -126t114.5 -42zM477 -90q63 0 105.5 -40.5t42.5 -111.5q0 -108 -115 -204h-143q58 51 94 116
q-52 3 -84.5 35t-32.5 82q0 57 38 90t95 33z" />
    <glyph glyph-name="Tcaron" unicode="&#x164;" horiz-adv-x="1150" 
d="M575 1430l-372 364h270l102 -111l101 111h272zM436 0v1096h-362v231h1003v-231h-360v-1096h-281z" />
    <glyph glyph-name="tcaron" unicode="&#x165;" horiz-adv-x="864" 
d="M754 1413q63 0 104 -40t41 -111q0 -63 -43 -129.5t-113 -106.5h-127q92 84 119 145q-51 3 -82.5 35.5t-31.5 81.5q0 58 37.5 91.5t95.5 33.5zM465 373q0 -84 28.5 -126t114.5 -42q73 0 152 35v-220q-78 -38 -213 -38q-177 0 -265.5 86t-88.5 268v375h-166v20
q64 68 215.5 240.5t201.5 238.5h21v-286h254v-213h-254v-338z" />
    <glyph glyph-name="Tbar" unicode="&#x166;" horiz-adv-x="1150" 
d="M1077 1096h-360v-377h194v-217h-194v-502h-281v502h-190v217h190v377h-362v231h1003v-231z" />
    <glyph glyph-name="tbar" unicode="&#x167;" horiz-adv-x="839" 
d="M608 205q73 0 152 35v-220q-78 -38 -213 -38q-177 0 -265.5 86t-88.5 268v37h-115v202h115v136h-166v20q64 68 215.5 240.5t201.5 238.5h21v-286h254v-213h-254v-136h215v-202h-215q0 -84 28.5 -126t114.5 -42z" />
    <glyph glyph-name="Utilde" unicode="&#x168;" horiz-adv-x="1353" 
d="M815 1477q-52 0 -105.5 21t-96 42t-68.5 21q-36 0 -52 -22.5t-16 -51.5h-168q0 107 58 184.5t165 77.5q54 0 109 -21t98 -42t68 -21q34 0 49.5 23t15.5 51h168q0 -48 -14 -93.5t-40.5 -83.5t-71 -61.5t-99.5 -23.5zM676 -20q-266 0 -400.5 132.5t-134.5 426.5v788h283
v-735q0 -49 2 -86.5t9 -76.5t18 -67.5t30.5 -55t46 -42.5t64 -25.5t84.5 -9.5q65 0 111.5 18t73.5 47.5t43 78.5t21 99t5 120v735h280v-786q0 -297 -134.5 -429t-401.5 -132z" />
    <glyph glyph-name="utilde" unicode="&#x169;" horiz-adv-x="1064" 
d="M670 1094q-52 0 -105.5 21t-96.5 42t-69 21q-36 0 -51.5 -23t-15.5 -51h-168q0 107 58 184.5t165 77.5q54 0 109 -21t98 -42t68 -21q34 0 49.5 23t15.5 51h168q0 -48 -14 -93.5t-40.5 -83.5t-71 -61.5t-99.5 -23.5zM532 -18q-95 0 -168.5 23.5t-119 61.5t-74.5 93
t-40 112.5t-11 124.5v527h272v-531q0 -188 144 -188q143 0 143 188v531h268v-527q0 -65 -11 -121.5t-39.5 -112t-74 -94.5t-119.5 -63t-170 -24z" />
    <glyph glyph-name="Umacron" unicode="&#x16a;" horiz-adv-x="1353" 
d="M358 1520v213h633v-213h-633zM676 -20q-266 0 -400.5 132.5t-134.5 426.5v788h283v-735q0 -49 2 -86.5t9 -76.5t18 -67.5t30.5 -55t46 -42.5t64 -25.5t84.5 -9.5q65 0 111.5 18t73.5 47.5t43 78.5t21 99t5 120v735h280v-786q0 -297 -134.5 -429t-401.5 -132z" />
    <glyph glyph-name="umacron" unicode="&#x16b;" horiz-adv-x="1064" 
d="M213 1130v213h633v-213h-633zM532 -18q-95 0 -168.5 23.5t-119 61.5t-74.5 93t-40 112.5t-11 124.5v527h272v-531q0 -188 144 -188q143 0 143 188v531h268v-527q0 -65 -11 -121.5t-39.5 -112t-74 -94.5t-119.5 -63t-170 -24z" />
    <glyph glyph-name="Ubreve" unicode="&#x16c;" horiz-adv-x="1353" 
d="M674 1430q-357 0 -357 331v33h207q0 -152 150 -152q151 0 151 152h205v-33q0 -331 -356 -331zM676 -20q-266 0 -400.5 132.5t-134.5 426.5v788h283v-735q0 -49 2 -86.5t9 -76.5t18 -67.5t30.5 -55t46 -42.5t64 -25.5t84.5 -9.5q65 0 111.5 18t73.5 47.5t43 78.5t21 99
t5 120v735h280v-786q0 -297 -134.5 -429t-401.5 -132z" />
    <glyph glyph-name="ubreve" unicode="&#x16d;" horiz-adv-x="1064" 
d="M528 1047q-354 0 -354 331v33h205q0 -154 149 -154q152 0 152 154h205v-33q0 -152 -84 -241.5t-273 -89.5zM532 -18q-95 0 -168.5 23.5t-119 61.5t-74.5 93t-40 112.5t-11 124.5v527h272v-531q0 -188 144 -188q143 0 143 188v531h268v-527q0 -65 -11 -121.5t-39.5 -112
t-74 -94.5t-119.5 -63t-170 -24z" />
    <glyph glyph-name="Uring" unicode="&#x16e;" horiz-adv-x="1353" 
d="M676 1413q-92 0 -157.5 63t-65.5 148t65.5 148t157.5 63t157.5 -63t65.5 -148t-65.5 -148t-157.5 -63zM676 1544q33 0 56.5 23.5t23.5 58.5q0 33 -23.5 56.5t-56.5 23.5t-56.5 -23.5t-23.5 -56.5q0 -35 23.5 -58.5t56.5 -23.5zM676 -20q-266 0 -400.5 132.5t-134.5 426.5
v788h283v-735q0 -49 2 -86.5t9 -76.5t18 -67.5t30.5 -55t46 -42.5t64 -25.5t84.5 -9.5q65 0 111.5 18t73.5 47.5t43 78.5t21 99t5 120v735h280v-786q0 -297 -134.5 -429t-401.5 -132z" />
    <glyph glyph-name="uring" unicode="&#x16f;" horiz-adv-x="1064" 
d="M530 1044q-92 0 -157.5 63t-65.5 148t65.5 148t157.5 63t158 -63t66 -148t-66 -148t-158 -63zM530 1176q33 0 56.5 23t23.5 58q0 33 -23.5 56.5t-56.5 23.5q-32 0 -55.5 -23.5t-23.5 -56.5q0 -35 23 -58t56 -23zM532 -18q-95 0 -168.5 23.5t-119 61.5t-74.5 93t-40 112.5
t-11 124.5v527h272v-531q0 -188 144 -188q143 0 143 188v531h268v-527q0 -65 -11 -121.5t-39.5 -112t-74 -94.5t-119.5 -63t-170 -24z" />
    <glyph glyph-name="Uhungarumlaut" unicode="&#x170;" horiz-adv-x="1353" 
d="M180 1448l281 346h362l-372 -346h-271zM676 1448l278 346h363l-373 -346h-268zM676 -20q-266 0 -400.5 132.5t-134.5 426.5v788h283v-735q0 -49 2 -86.5t9 -76.5t18 -67.5t30.5 -55t46 -42.5t64 -25.5t84.5 -9.5q65 0 111.5 18t73.5 47.5t43 78.5t21 99t5 120v735h280
v-786q0 -297 -134.5 -429t-401.5 -132z" />
    <glyph glyph-name="uhungarumlaut" unicode="&#x171;" horiz-adv-x="1064" 
d="M307 1065l281 346h446l-372 -346h-355zM678 393v531h268v-527q0 -65 -11 -121.5t-39.5 -112t-74 -94.5t-119.5 -63t-170 -24q-95 0 -168.5 23.5t-119 61.5t-74.5 93t-40 112.5t-11 124.5v527h272v-531q0 -188 144 -188q143 0 143 188z" />
    <glyph glyph-name="Uogonek" unicode="&#x172;" horiz-adv-x="1353" 
d="M834 -424q-108 0 -177 51.5t-69 159.5q0 132 121 197q-20 -4 -39 -4q-263 0 -396 133t-133 426v788h283v-735q0 -49 2 -86.5t9 -76.5t18 -67.5t30.5 -55t46 -42.5t64 -25.5t84.5 -9.5q65 0 111.5 18t73.5 47.5t43 78.5t21 99t5 120v735h280v-782q0 -112 -18.5 -201
t-49 -144t-69.5 -98.5t-79 -67.5t-79 -48t-69.5 -42.5t-49 -48.5t-18.5 -69q0 -96 101 -96q53 0 88 20v-153q-51 -21 -135 -21z" />
    <glyph glyph-name="uogonek" unicode="&#x173;" horiz-adv-x="1064" 
d="M688 -424q-109 0 -177.5 51.5t-68.5 159.5q0 68 33.5 120t77.5 77q-6 -2 -23 -2q-411 0 -411 415v527h272v-531q0 -188 144 -188q143 0 143 188v531h268v-533q0 -78 -17.5 -143t-45 -108t-60.5 -79t-66.5 -63t-61 -52.5t-45 -55.5t-17.5 -64q0 -96 100 -96q53 0 88 20
v-153q-51 -21 -133 -21z" />
    <glyph glyph-name="Wcircumflex" unicode="&#x174;" horiz-adv-x="2088" 
d="M674 1448l373 364l372 -364h-272l-100 111l-103 -111h-270zM655 -18l-606 1345h311l314 -752l362 752h21l360 -752l320 752h303l-604 -1345h-21l-368 768l-371 -768h-21z" />
    <glyph glyph-name="wcircumflex" unicode="&#x175;" horiz-adv-x="1468" 
d="M365 1065l372 365l373 -365h-272l-101 111l-102 -111h-270zM485 -18l-460 942h299l184 -435l219 435h21l219 -435l188 435h291l-455 -942h-20l-234 464l-231 -464h-21z" />
    <glyph glyph-name="Ycircumflex" unicode="&#x176;" horiz-adv-x="1302" 
d="M279 1448l372 364l373 -364h-272l-101 111l-102 -111h-270zM508 0v526l-473 801h311l311 -557l310 557h301l-477 -801v-526h-283z" />
    <glyph glyph-name="ycircumflex" unicode="&#x177;" horiz-adv-x="1056" 
d="M156 1065l372 365l373 -365h-272l-101 111l-102 -111h-270zM178 -406l209 467l-375 863h299l217 -555l226 555h290l-571 -1330h-295z" />
    <glyph glyph-name="Ydieresis" unicode="&#x178;" horiz-adv-x="1302" 
d="M426 1464q-70 0 -115 45.5t-45 114.5t45 114.5t115 45.5t115 -45.5t45 -114.5t-45 -114.5t-115 -45.5zM872 1464q-70 0 -115.5 45.5t-45.5 114.5t45.5 114.5t115.5 45.5t115 -45.5t45 -114.5t-45 -114.5t-115 -45.5zM508 0v526l-473 801h311l311 -557l310 557h301
l-477 -801v-526h-283z" />
    <glyph glyph-name="Zacute" unicode="&#x179;" horiz-adv-x="1220" 
d="M401 1448l248 346h361l-342 -346h-267zM74 0v20l631 1076h-586v231h1028v-20l-627 -1074h623v-233h-1069z" />
    <glyph glyph-name="zacute" unicode="&#x17a;" horiz-adv-x="954" 
d="M272 1065l248 346h361l-342 -346h-267zM51 0v20l428 691h-393v213h817v-21l-426 -688h434v-215h-860z" />
    <glyph glyph-name="Zdotaccent" unicode="&#x17b;" horiz-adv-x="1220" 
d="M610 1464q-73 0 -118.5 45.5t-45.5 116.5q0 68 48 115t116 47q69 0 115.5 -47t46.5 -117t-47 -115t-115 -45zM74 0v20l631 1076h-586v231h1028v-20l-627 -1074h623v-233h-1069z" />
    <glyph glyph-name="zdotaccent" unicode="&#x17c;" horiz-adv-x="954" 
d="M479 1096q-67 0 -108 41.5t-41 107.5q0 64 43.5 107t105.5 43t105 -43.5t43 -108.5t-42 -106t-106 -41zM51 0v20l428 691h-393v213h817v-21l-426 -688h434v-215h-860z" />
    <glyph glyph-name="Zcaron" unicode="&#x17d;" horiz-adv-x="1220" 
d="M610 1430l-372 364h270l102 -111l101 111h272zM74 0v20l631 1076h-586v231h1028v-20l-627 -1074h623v-233h-1069z" />
    <glyph glyph-name="zcaron" unicode="&#x17e;" horiz-adv-x="954" 
d="M479 1047l-373 364h271l102 -111l101 111h272zM51 0v20l428 691h-393v213h817v-21l-426 -688h434v-215h-860z" />
    <glyph glyph-name="longs" unicode="&#x17f;" horiz-adv-x="763" 
d="M213 0v711h-160v213h160v73q0 394 379 394q103 0 192 -33v-230q-81 35 -151 35q-86 0 -117 -46t-31 -132v-985h-272z" />
    <glyph glyph-name="florin" unicode="&#x192;" horiz-adv-x="954" 
d="M59 -424q-85 0 -147 25v227q53 -21 104 -21q40 0 68.5 10t46 25t31 45t20 57.5t15.5 75.5l90 519h-158v227h199l32 188q17 93 46.5 162.5t78 123t122.5 81t173 27.5q93 0 154 -23v-238q-58 25 -115 25q-81 0 -122 -44.5t-56 -141.5l-29 -160h228v-227h-267l-100 -570
q-8 -45 -16.5 -79t-24.5 -77t-36 -74.5t-51.5 -64t-70.5 -52.5t-94 -33t-121 -13z" />
    <glyph glyph-name="uni01CD" unicode="&#x1cd;" horiz-adv-x="1312" 
d="M657 1430l-372 364h270l102 -111l101 111h272zM35 0l612 1348h21l610 -1348h-301l-86 205h-479l-86 -205h-291zM498 424h313l-158 369z" />
    <glyph glyph-name="uni01CE" unicode="&#x1ce;" horiz-adv-x="1058" 
d="M899 1411l-373 -364l-372 364h270l102 -111l101 111h272zM512 942q216 0 322 -97.5t106 -297.5v-547h-250l-6 90q-85 -108 -270 -108q-156 0 -249 78t-93 212q0 143 105 227.5t290 84.5q105 0 203 -37v10q0 36 -9.5 67t-31 58.5t-61.5 43t-95 15.5q-147 0 -297 -90v217
q145 74 336 74zM492 160q81 0 129.5 48.5t48.5 149.5v21q-72 35 -164 35q-74 0 -117 -32.5t-43 -94.5q0 -58 40 -92.5t106 -34.5z" />
    <glyph glyph-name="AEacute" unicode="&#x1fc;" horiz-adv-x="1828" 
d="M674 1448l248 346h360l-342 -346h-266zM35 0l602 1327h631l106 -231h-592l138 -303h456l105 -232h-457l147 -328h584l107 -233h-885l-86 205h-479l-86 -205h-291zM500 424h309l-156 371z" />
    <glyph glyph-name="aeacute" unicode="&#x1fd;" horiz-adv-x="1640" 
d="M1294 1411l-342 -346h-266l248 346h360zM1571 469q0 -48 -8 -92h-633q28 -176 280 -176q169 0 312 78v-222q-139 -75 -357 -75q-137 0 -239 42.5t-148 116.5q-44 -68 -130 -113.5t-222 -45.5q-166 0 -260 77.5t-94 212.5q0 143 105 227.5t292 84.5q103 0 201 -37v10
q0 36 -9 67t-30 58.5t-61 43t-95 15.5q-149 0 -299 -90v217q145 74 338 74q213 0 297 -123q48 57 127.5 90t177.5 33q97 0 174.5 -25.5t129.5 -69.5t86.5 -104.5t49.5 -128.5t15 -145zM932 549h364q-3 77 -50.5 126.5t-127.5 49.5q-75 0 -127 -48.5t-59 -127.5zM492 160
q81 0 129.5 48.5t48.5 149.5v21q-72 35 -164 35q-74 0 -117 -32.5t-43 -94.5q0 -58 40 -92.5t106 -34.5z" />
    <glyph glyph-name="Oslashacute" unicode="&#x1fe;" horiz-adv-x="1560" 
d="M594 1448l248 346h360l-342 -346h-266zM94 -61l174 243q-174 190 -174 482q0 200 84.5 355t242 242t365.5 87q154 0 283 -52l82 111h276l-165 -231q99 -90 151.5 -220t52.5 -288q0 -197 -83.5 -353t-241.5 -245.5t-365 -89.5q-182 0 -323 69l-80 -110h-279zM444 426
l465 645q-54 21 -129 21q-171 0 -284 -116t-113 -308q0 -139 61 -242zM784 238q170 0 282 116t112 310q0 165 -84 274l-480 -664q59 -36 170 -36z" />
    <glyph glyph-name="oslashacute" unicode="&#x1ff;" horiz-adv-x="1167" 
d="M358 1065l248 346h361l-342 -346h-267zM127 -74l109 164q-79 64 -121.5 158t-42.5 209q0 214 141 349.5t377 135.5q102 0 184 -24l53 81h211l-106 -161q164 -132 164 -367q0 -221 -143 -355t-373 -134q-103 0 -189 28l-55 -84h-209zM387 326l252 383q-19 8 -55 8
q-108 0 -170 -75.5t-62 -178.5q0 -81 35 -137zM584 211q105 0 167 71.5t62 184.5q0 82 -33 135l-254 -383q19 -8 58 -8z" />
    <glyph glyph-name="Scommaaccent" unicode="&#x218;" horiz-adv-x="1024" 
d="M414 975q0 -46 29 -81.5t75.5 -60t103 -49t113 -57t103 -75.5t75.5 -113.5t29 -161.5q0 -191 -120 -294t-343 -103q-193 0 -360 79v275q72 -50 164.5 -82.5t187.5 -32.5q89 0 135.5 35.5t46.5 99.5q0 48 -29 84.5t-75 62t-102 51t-112 59t-102 76.5t-75 114t-29 162
q0 179 114.5 282t319.5 103q95 0 182 -20t132 -44v-272q-66 42 -145 70t-150 28q-81 0 -124.5 -36t-43.5 -99zM475 -90q63 0 105.5 -40.5t42.5 -111.5q0 -108 -115 -204h-143q58 51 94 116q-52 3 -84.5 35t-32.5 82q0 57 38 90t95 33z" />
    <glyph glyph-name="scommaaccent" unicode="&#x219;" horiz-adv-x="796" 
d="M356 674q0 -28 20.5 -47.5t53 -33t72 -26.5t79.5 -33.5t72.5 -49.5t53 -79t20.5 -116q0 -150 -96.5 -228.5t-257.5 -78.5q-80 0 -155 15.5t-118 37.5v215q41 -24 113 -48t141 -24q60 0 90.5 24.5t30.5 65.5q0 33 -20.5 56t-53.5 37.5t-72.5 28.5t-79.5 34.5t-73 48.5
t-53.5 77t-20.5 114q0 140 90.5 209t247.5 69q74 0 134.5 -13t87.5 -28v-213q-114 60 -203 60q-51 0 -77 -20.5t-26 -53.5zM375 -90q63 0 105 -40.5t42 -111.5q0 -109 -114 -204h-144q58 51 94 116q-52 3 -84 35t-32 82q0 57 38 90t95 33z" />
    <glyph glyph-name="uni021A" unicode="&#x21a;" horiz-adv-x="1150" 
d="M74 1327h1003v-231h-360v-1096h-281v1096h-362v231zM567 -90q63 0 105.5 -40.5t42.5 -111.5q0 -108 -115 -204h-143q58 51 94 116q-52 3 -84.5 35t-32.5 82q0 57 38 90t95 33z" />
    <glyph glyph-name="uni021B" unicode="&#x21b;" horiz-adv-x="839" 
d="M608 205q73 0 152 35v-220q-78 -38 -213 -38q-177 0 -265.5 86t-88.5 268v375h-166v20q64 68 215.5 240.5t201.5 238.5h21v-286h254v-213h-254v-338q0 -84 28.5 -126t114.5 -42zM477 -90q63 0 105.5 -40.5t42.5 -111.5q0 -108 -115 -204h-143q58 51 94 116
q-52 3 -84.5 35t-32.5 82q0 57 38 90t95 33z" />
    <glyph glyph-name="uni0237" unicode="&#x237;" horiz-adv-x="565" 
d="M-6 -424q-106 0 -170 25v219q60 -25 133 -25q109 0 156 65.5t47 200.5v650h-119v213h391v-850q0 -140 -30.5 -238.5t-90 -154.5t-137 -80.5t-180.5 -24.5z" />
    <glyph glyph-name="circumflex" unicode="&#x2c6;" horiz-adv-x="1040" 
d="M156 1065l372 365l373 -365h-272l-101 111l-102 -111h-270z" />
    <glyph glyph-name="caron" unicode="&#x2c7;" horiz-adv-x="1040" 
d="M528 1047l-372 364h270l102 -111l101 111h272z" />
    <glyph glyph-name="breve" unicode="&#x2d8;" horiz-adv-x="1044" 
d="M530 1047q-354 0 -354 331v33h205q0 -154 149 -154q152 0 152 154h205v-33q0 -152 -84 -241.5t-273 -89.5z" />
    <glyph glyph-name="dotaccent" unicode="&#x2d9;" horiz-adv-x="1067" 
d="M559 1096q-67 0 -108 41.5t-41 107.5q0 64 43.5 107t105.5 43t105 -43.5t43 -108.5t-42 -106t-106 -41z" />
    <glyph glyph-name="ring" unicode="&#x2da;" horiz-adv-x="1058" 
d="M547 1044q-92 0 -157.5 63t-65.5 148t65.5 148t157.5 63t157.5 -63t65.5 -148t-65.5 -148t-157.5 -63zM547 1176q33 0 56.5 23t23.5 58q0 33 -23.5 56.5t-56.5 23.5t-56.5 -23.5t-23.5 -56.5q0 -35 23.5 -58t56.5 -23z" />
    <glyph glyph-name="ogonek" unicode="&#x2db;" horiz-adv-x="1062" 
d="M666 -424q-108 0 -177 51.5t-69 159.5q0 105 69.5 171t182.5 91l141 -43q-97 -31 -149 -74t-52 -106q0 -96 101 -96q53 0 88 20v-153q-51 -21 -135 -21z" />
    <glyph glyph-name="tilde" unicode="&#x2dc;" horiz-adv-x="1040" 
d="M672 1094q-52 0 -105.5 21t-96.5 42t-69 21q-36 0 -51.5 -23t-15.5 -51h-168q0 107 58 184.5t165 77.5q54 0 109 -21t98 -42t68 -21q34 0 49.5 23t15.5 51h168q0 -48 -14 -93.5t-40.5 -83.5t-71 -61.5t-99.5 -23.5z" />
    <glyph glyph-name="hungarumlaut" unicode="&#x2dd;" horiz-adv-x="1017" 
d="M868 1411l-372 -346h-355l281 346h446z" />
    <glyph glyph-name="gravecomb" unicode="&#x300;" horiz-adv-x="0" 
d="M-494 1065l-340 346h363l248 -346h-271z" />
    <glyph glyph-name="acutecomb" unicode="&#x301;" horiz-adv-x="0" 
d="M-831 1065l247 346h361l-342 -346h-266z" />
    <glyph glyph-name="uni0302" unicode="&#x302;" horiz-adv-x="0" 
d="M-893 1065l373 365l373 -365h-273l-100 111l-103 -111h-270z" />
    <glyph glyph-name="tildecomb" unicode="&#x303;" horiz-adv-x="0" 
d="M-381 1094q-52 0 -105.5 21t-96 42t-68.5 21q-36 0 -52 -23t-16 -51h-168q0 107 58 184.5t165 77.5q54 0 109 -21t98 -42t68 -21q34 0 49.5 23t15.5 51h168q0 -48 -14 -93.5t-40.5 -83.5t-71 -61.5t-99.5 -23.5z" />
    <glyph glyph-name="uni0304" unicode="&#x304;" horiz-adv-x="0" 
d="M-842 1130v213h633v-213h-633z" />
    <glyph glyph-name="uni0306" unicode="&#x306;" horiz-adv-x="0" 
d="M-522 1047q-355 0 -355 331v33h205q0 -154 150 -154q151 0 151 154h205v-33q0 -152 -83.5 -241.5t-272.5 -89.5z" />
    <glyph glyph-name="uni0307" unicode="&#x307;" horiz-adv-x="0" 
d="M-532 1096q-67 0 -108.5 41.5t-41.5 107.5q0 64 44 107t106 43t104.5 -43.5t42.5 -108.5t-41.5 -106t-105.5 -41z" />
    <glyph glyph-name="uni0308" unicode="&#x308;" horiz-adv-x="0" 
d="M-741 1096q-67 0 -108.5 41.5t-41.5 107.5q0 64 44 107t106 43t104.5 -43.5t42.5 -108.5t-41.5 -106t-105.5 -41zM-297 1096q-67 0 -108 41.5t-41 107.5q0 64 43.5 107t105.5 43t103.5 -43t41.5 -109q0 -65 -41 -106t-104 -41z" />
    <glyph glyph-name="uni030A" unicode="&#x30a;" horiz-adv-x="0" 
d="M-530 1044q-92 0 -158 63t-66 148t66 148t158 63t157.5 -63t65.5 -148t-65.5 -148t-157.5 -63zM-530 1176q33 0 56 23t23 58q0 33 -23.5 56.5t-55.5 23.5q-33 0 -56.5 -23.5t-23.5 -56.5q0 -35 23.5 -58t56.5 -23z" />
    <glyph glyph-name="uni030B" unicode="&#x30b;" horiz-adv-x="0" 
d="M-145 1411l-373 -346h-354l280 346h447z" />
    <glyph glyph-name="uni030C" unicode="&#x30c;" horiz-adv-x="0" 
d="M-520 1047l-373 364h270l103 -111l100 111h273z" />
    <glyph glyph-name="uni0315" unicode="&#x315;" horiz-adv-x="0" 
d="M-516 1348q62 0 103.5 -40.5t41.5 -111.5q0 -63 -42.5 -129t-112.5 -106h-127q91 82 118 145q-51 3 -82.5 35.5t-31.5 81.5q0 58 37.5 91.5t95.5 33.5z" />
    <glyph glyph-name="uni0326" unicode="&#x326;" horiz-adv-x="0" 
d="M-522 -90q63 0 105 -40.5t42 -111.5q0 -109 -114 -204h-144q58 51 94 116q-52 3 -84 35t-32 82q0 57 38 90t95 33z" />
    <glyph glyph-name="uni0327" unicode="&#x327;" horiz-adv-x="0" 
d="M-608 -424q-93 0 -140 21v137q17 -10 49.5 -19.5t59.5 -9.5q80 0 80 62q0 59 -66 59q-41 0 -71 -27l-19 11l68 237h153l-38 -127q4 2 12 2q65 -2 110 -40.5t45 -119.5q0 -52 -20.5 -90t-56.5 -58t-76.5 -29t-89.5 -9z" />
    <glyph glyph-name="uni0328" unicode="&#x328;" horiz-adv-x="0" 
d="M-422 -424q-108 0 -177 51.5t-69 159.5q0 105 69.5 171t182.5 91l142 -43q-97 -31 -149 -74t-52 -106q0 -96 100 -96q53 0 88 20v-153q-51 -21 -135 -21z" />
    <glyph glyph-name="uni0374" unicode="&#x374;" horiz-adv-x="499" 
d="M41 844l139 483h289l-221 -483h-207z" />
    <glyph glyph-name="uni0375" unicode="&#x375;" horiz-adv-x="499" 
d="M20 -283l140 484h289l-222 -484h-207z" />
    <glyph glyph-name="uni037E" unicode="&#x37e;" horiz-adv-x="561" 
d="M295 627q-72 0 -118 46.5t-46 119.5q0 71 48 117t116 46q70 0 116 -46t46 -119q0 -72 -46.5 -118t-115.5 -46zM291 311q86 0 138 -56t52 -163q0 -103 -54.5 -208t-158.5 -177h-170q73 63 115.5 137t56.5 138q-72 2 -114.5 43.5t-42.5 113.5q0 76 50 124t128 48z" />
    <glyph glyph-name="tonos" unicode="&#x384;" horiz-adv-x="1056" 
d="M285 1065l151 346h322l-217 -346h-256z" />
    <glyph glyph-name="dieresistonos" unicode="&#x385;" horiz-adv-x="1310" 
d="M485 1065l72 346h256l-141 -346h-187zM299 1065q-63 0 -102 39.5t-39 101.5t40 102t101 40t100 -40t39 -102t-39 -101.5t-100 -39.5zM944 1065q-62 0 -101.5 39.5t-39.5 101.5q0 61 40.5 101.5t100.5 40.5q61 0 101 -40t40 -102q0 -63 -39.5 -102t-101.5 -39z" />
    <glyph glyph-name="Alphatonos" unicode="&#x386;" horiz-adv-x="1302" 
d="M25 0l612 1348h20l611 -1348h-301l-86 205h-480l-86 -205h-290zM0 981l139 346h287l-207 -346h-219zM487 424h314l-158 369z" />
    <glyph glyph-name="anoteleia" unicode="&#x387;" horiz-adv-x="591" 
d="M297 311q-72 0 -118 46.5t-46 119.5q0 70 48 116t116 46q70 0 116 -45.5t46 -118.5t-46.5 -118.5t-115.5 -45.5z" />
    <glyph glyph-name="Epsilontonos" unicode="&#x388;" horiz-adv-x="1462" 
d="M0 981l139 346h287l-207 -346h-219zM539 0v1327h821v-231h-541v-303h381v-232h-381v-328h565v-233h-845z" />
    <glyph glyph-name="Etatonos" unicode="&#x389;" horiz-adv-x="1814" 
d="M0 981l139 346h287l-207 -346h-219zM539 0v1327h280v-534h561v534h281v-1327h-281v557h-561v-557h-280z" />
    <glyph glyph-name="Iotatonos" unicode="&#x38a;" horiz-adv-x="970" 
d="M0 981l139 346h287l-207 -346h-219zM539 0v1327h280v-1327h-280z" />
    <glyph glyph-name="Omicrontonos" unicode="&#x38c;" horiz-adv-x="1787" 
d="M1004 -20q-205 0 -361 88t-238.5 243t-82.5 353q0 200 84.5 355t242 242t365.5 87q205 0 360 -86.5t237.5 -240.5t82.5 -353q0 -197 -83.5 -353t-241.5 -245.5t-365 -89.5zM0 981l139 346h287l-207 -346h-219zM1012 238q170 0 281.5 116t111.5 310q0 195 -114.5 311.5
t-282.5 116.5q-171 0 -284.5 -116t-113.5 -308q0 -196 114.5 -313t287.5 -117z" />
    <glyph glyph-name="Upsilontonos" unicode="&#x38e;" horiz-adv-x="1777" 
d="M0 981l139 346h287l-207 -346h-219zM983 0v526l-473 801h311l312 -557l309 557h301l-477 -801v-526h-283z" />
    <glyph glyph-name="Omegatonos" unicode="&#x38f;" horiz-adv-x="1839" 
d="M1718 692q0 -317 -229 -459h229v-233h-565v238q118 39 197.5 146.5t79.5 277.5q0 197 -111.5 313.5t-282.5 116.5q-172 0 -284.5 -116t-112.5 -314q0 -170 78.5 -277.5t197.5 -146.5v-238h-565v233h232q-232 145 -232 453q0 135 47 255t133.5 211t218.5 143.5t291 52.5
q206 0 361.5 -88t236 -236t80.5 -332zM139 1327h287l-207 -346h-219z" />
    <glyph glyph-name="iotadieresistonos" unicode="&#x390;" horiz-adv-x="565" 
d="M147 1065l72 346h256l-141 -346h-187zM-39 1065q-63 0 -102 39.5t-39 101.5t40 102t101 40t100 -40t39 -102t-39 -101.5t-100 -39.5zM606 1065q-62 0 -101.5 39.5t-39.5 101.5q0 61 40.5 101.5t100.5 40.5q62 0 102 -40t40 -102q0 -63 -40 -102t-102 -39zM160 0v711h-119
v213h391v-924h-272z" />
    <glyph glyph-name="Alpha" unicode="&#x391;" horiz-adv-x="1312" 
d="M35 0l612 1348h21l610 -1348h-301l-86 205h-479l-86 -205h-291zM498 424h313l-158 369z" />
    <glyph glyph-name="Beta" unicode="&#x392;" horiz-adv-x="1212" 
d="M897 707q43 -11 80.5 -32t75 -58t59 -97.5t21.5 -138.5q0 -381 -537 -381h-442v1327h368q60 0 110.5 -3.5t106.5 -13.5t100.5 -26.5t86 -44.5t69 -64.5t44 -89.5t16.5 -118q0 -102 -45 -167t-113 -93zM770 944q0 41 -14 70.5t-36 46t-56.5 26t-67.5 12.5t-78 3h-84v-318
h82q58 0 98.5 6t78.5 22t57.5 49t19.5 83zM582 229q45 0 77.5 2.5t70.5 12.5t61 27.5t39 49.5t16 76t-17 76t-40.5 48.5t-62 26t-68.5 11.5t-72 2h-152v-332h148z" />
    <glyph glyph-name="Gamma" unicode="&#x393;" horiz-adv-x="1021" 
d="M981 1327v-231h-547v-1096h-280v1327h827z" />
    <glyph glyph-name="uni0394" unicode="&#x394;" horiz-adv-x="1308" 
d="M666 1348l610 -1348h-1243l612 1348h21zM887 233l-236 560l-237 -560h473z" />
    <glyph glyph-name="Epsilon" unicode="&#x395;" horiz-adv-x="1077" 
d="M154 0v1327h821v-231h-541v-303h381v-232h-381v-328h565v-233h-845z" />
    <glyph glyph-name="Zeta" unicode="&#x396;" horiz-adv-x="1220" 
d="M74 0v20l631 1076h-586v231h1028v-20l-627 -1074h623v-233h-1069z" />
    <glyph glyph-name="Eta" unicode="&#x397;" horiz-adv-x="1429" 
d="M154 0v1327h280v-534h561v534h281v-1327h-281v557h-561v-557h-280z" />
    <glyph glyph-name="Theta" unicode="&#x398;" horiz-adv-x="1560" 
d="M776 -20q-205 0 -361 88t-238.5 243t-82.5 353q0 200 84.5 355t242 242t365.5 87q205 0 360 -86.5t237.5 -240.5t82.5 -353q0 -197 -83.5 -353t-241.5 -245.5t-365 -89.5zM784 238q170 0 282 116t112 310q0 195 -114.5 311.5t-283.5 116.5q-171 0 -284 -116t-113 -308
q0 -196 114 -313t287 -117zM539 557v236h483v-236h-483z" />
    <glyph glyph-name="Iota" unicode="&#x399;" horiz-adv-x="587" 
d="M154 0v1327h280v-1327h-280z" />
    <glyph glyph-name="Kappa" unicode="&#x39a;" horiz-adv-x="1390" 
d="M154 0v1327h280v-633l553 633h361l-586 -647l598 -680h-375l-551 647v-647h-280z" />
    <glyph glyph-name="Lambda" unicode="&#x39b;" horiz-adv-x="1292" 
d="M1257 0h-301l-313 784l-317 -784h-291l602 1348h20z" />
    <glyph glyph-name="Mu" unicode="&#x39c;" horiz-adv-x="1757" 
d="M870 -20l-368 645l-113 -625h-283l269 1348h20l486 -854l481 854h20l269 -1348h-277l-117 627l-366 -647h-21z" />
    <glyph glyph-name="Nu" unicode="&#x39d;" horiz-adv-x="1445" 
d="M1274 -20l-846 782v-762h-274v1348h20l844 -783l2 762h274v-1347h-20z" />
    <glyph glyph-name="Xi" unicode="&#x39e;" horiz-adv-x="1150" 
d="M109 1096v231h933v-231h-933zM221 561v230h709v-230h-709zM98 0v233h955v-233h-955z" />
    <glyph glyph-name="Omicron" unicode="&#x39f;" horiz-adv-x="1560" 
d="M776 -20q-205 0 -361 88t-238.5 243t-82.5 353q0 200 84.5 355t242 242t365.5 87q205 0 360 -86.5t237.5 -240.5t82.5 -353q0 -197 -83.5 -353t-241.5 -245.5t-365 -89.5zM784 238q170 0 282 116t112 310q0 195 -114.5 311.5t-283.5 116.5q-171 0 -284 -116t-113 -308
q0 -196 114 -313t287 -117z" />
    <glyph glyph-name="Pi" unicode="&#x3a0;" horiz-adv-x="1409" 
d="M154 1327h1101v-1327h-280v1096h-541v-1096h-280v1327z" />
    <glyph glyph-name="Rho" unicode="&#x3a1;" horiz-adv-x="1196" 
d="M557 1327q64 0 118 -4t114.5 -16t108 -31.5t92.5 -53.5t74.5 -79t47.5 -111t18 -147q0 -69 -13.5 -128t-36 -102t-56.5 -78t-69.5 -58t-81.5 -40t-86.5 -26t-89.5 -14.5t-85 -7t-80 -1.5h-98v-430h-280v1327h403zM514 655q42 0 74.5 2.5t73.5 10t70.5 23.5t55.5 40t40 63
t14 89q0 58 -21 100.5t-51 64.5t-77.5 35t-86 16t-90.5 3h-82v-447h80z" />
    <glyph glyph-name="Sigma" unicode="&#x3a3;" horiz-adv-x="1171" 
d="M539 233h551v-233h-1018v20l463 654l-457 633v20h991v-231h-528l309 -426z" />
    <glyph glyph-name="Tau" unicode="&#x3a4;" horiz-adv-x="1150" 
d="M436 0v1096h-362v231h1003v-231h-360v-1096h-281z" />
    <glyph glyph-name="Upsilon" unicode="&#x3a5;" horiz-adv-x="1302" 
d="M508 0v526l-473 801h311l311 -557l310 557h301l-477 -801v-526h-283z" />
    <glyph glyph-name="Phi" unicode="&#x3a6;" horiz-adv-x="1708" 
d="M1614 664q0 -181 -81.5 -319t-221.5 -213t-320 -87v-123h-274v123q-286 17 -454.5 183t-168.5 436q0 274 170 437t453 181v123h274v-123q282 -19 452.5 -184.5t170.5 -433.5zM379 668q0 -166 96 -268.5t244 -116.5v761q-155 -15 -247.5 -115t-92.5 -261zM989 283
q150 15 246 116.5t96 259.5q0 165 -98 267t-244 118v-761z" />
    <glyph glyph-name="Chi" unicode="&#x3a7;" horiz-adv-x="1339" 
d="M35 0l461 674l-449 653h340l283 -448l293 448h329l-448 -651l461 -676h-342l-295 475l-306 -475h-327z" />
    <glyph glyph-name="Psi" unicode="&#x3a8;" horiz-adv-x="1726" 
d="M1313 1327h280v-285q0 -296 -150 -454t-439 -170v-418h-281v418q-293 12 -441.5 171t-148.5 453v285h281v-270q0 -198 79 -290.5t230 -100.5v661h281v-663q156 9 232.5 101t76.5 284v278z" />
    <glyph glyph-name="uni03A9" unicode="&#x3a9;" horiz-adv-x="1609" 
d="M1489 692q0 -317 -229 -459h229v-233h-565v238q55 18 103 52.5t87.5 85t62.5 124.5t23 162q0 198 -111.5 314t-281.5 116q-172 0 -284.5 -116t-112.5 -314q0 -170 78.5 -277.5t197.5 -146.5v-238h-565v233h231q-231 145 -231 453q0 135 47 255t133.5 211t218.5 143.5
t291 52.5q206 0 361.5 -88t236 -236t80.5 -332z" />
    <glyph glyph-name="Iotadieresis" unicode="&#x3aa;" horiz-adv-x="587" 
d="M70 1464q-70 0 -115 45.5t-45 114.5t45 114.5t115 45.5t114.5 -45.5t44.5 -114.5t-44.5 -114.5t-114.5 -45.5zM516 1464q-70 0 -116 45.5t-46 114.5t46 114.5t116 45.5t115 -45.5t45 -114.5t-45 -114.5t-115 -45.5zM154 0v1327h280v-1327h-280z" />
    <glyph glyph-name="Upsilondieresis" unicode="&#x3ab;" horiz-adv-x="1302" 
d="M426 1464q-70 0 -115 45.5t-45 114.5t45 114.5t115 45.5t115 -45.5t45 -114.5t-45 -114.5t-115 -45.5zM872 1464q-70 0 -115.5 45.5t-45.5 114.5t45.5 114.5t115.5 45.5t115 -45.5t45 -114.5t-45 -114.5t-115 -45.5zM508 0v526l-473 801h311l311 -557l310 557h301
l-477 -801v-526h-283z" />
    <glyph glyph-name="alphatonos" unicode="&#x3ac;" horiz-adv-x="1208" 
d="M932 1411l-217 -346h-256l151 346h322zM827 924h248v-924h-250l-8 106q-41 -52 -118 -88t-179 -36q-89 0 -168.5 30.5t-142.5 87.5t-100 149.5t-37 207.5q0 221 126.5 353t327.5 132q190 0 295 -121zM575 211q45 0 85 14t73.5 43t53.5 79t20 116q0 124 -64.5 188
t-160.5 64q-98 0 -164 -67t-66 -187t62.5 -185t160.5 -65z" />
    <glyph glyph-name="epsilontonos" unicode="&#x3ad;" horiz-adv-x="929" 
d="M819 1411l-217 -346h-256l152 346h321zM547 184q160 0 291 84v-225q-52 -26 -153 -43.5t-218 -17.5q-171 0 -273 64.5t-102 197.5q0 85 51 145t136 82q-73 21 -119.5 77t-46.5 136q0 69 32.5 120t89 80.5t124.5 43.5t147 14q93 0 179.5 -18t131.5 -41v-224
q-52 32 -126 57t-144 25q-76 0 -115 -24.5t-39 -67.5q0 -92 172 -92h103v-190h-103q-98 0 -145 -21.5t-47 -69.5q0 -92 174 -92z" />
    <glyph glyph-name="etatonos" unicode="&#x3ae;" horiz-adv-x="1118" 
d="M889 1411l-217 -346h-256l151 346h322zM653 942q167 0 256.5 -94.5t89.5 -286.5v-967h-272v914q0 47 -5.5 80.5t-21 65t-47 47.5t-78.5 16q-45 0 -76.5 -16t-49.5 -40t-28 -65t-12.5 -78.5t-2.5 -91.5v-426h-273v924h248l6 -103q85 121 266 121z" />
    <glyph glyph-name="iotatonos" unicode="&#x3af;" horiz-adv-x="565" 
d="M139 1065l152 346h321l-217 -346h-256zM160 0v711h-119v213h391v-924h-272z" />
    <glyph glyph-name="upsilondieresistonos" unicode="&#x3b0;" horiz-adv-x="1064" 
d="M395 1065l72 346h256l-141 -346h-187zM209 1065q-63 0 -102 39.5t-39 101.5t40 102t101 40t100 -40t39 -102t-39 -101.5t-100 -39.5zM854 1065q-62 0 -101.5 39.5t-39.5 101.5q0 61 40.5 101.5t100.5 40.5q61 0 101 -40t40 -102q0 -63 -39.5 -102t-101.5 -39zM532 -18
q-95 0 -168.5 23.5t-119 61.5t-74.5 93t-40 112.5t-11 124.5v527h272v-531q0 -188 144 -188q143 0 143 188v531h268v-527q0 -65 -11 -121.5t-39.5 -112t-74 -94.5t-119.5 -63t-170 -24z" />
    <glyph glyph-name="alpha" unicode="&#x3b1;" horiz-adv-x="1208" 
d="M827 924h248v-924h-250l-8 106q-41 -52 -118 -88t-179 -36q-89 0 -168.5 30.5t-142.5 87.5t-100 149.5t-37 207.5q0 221 126.5 353t327.5 132q190 0 295 -121zM575 211q45 0 85 14t73.5 43t53.5 79t20 116q0 124 -64.5 188t-160.5 64q-98 0 -164 -67t-66 -187t62.5 -185
t160.5 -65z" />
    <glyph glyph-name="beta" unicode="&#x3b2;" horiz-adv-x="1155" 
d="M842 715q107 -28 176 -111t69 -213q0 -103 -35.5 -183t-96.5 -128.5t-136.5 -73t-161.5 -24.5q-164 0 -251 81v-469h-273v1303q0 234 117 364t344 130q128 0 223.5 -39t152 -125.5t56.5 -212.5q0 -109 -50.5 -187t-133.5 -112zM629 195q88 0 137 48t49 140
q0 62 -19 103.5t-55.5 62.5t-79.5 29t-102 8h-41v209h41q102 0 148.5 47.5t46.5 144.5q0 99 -47.5 145t-126.5 46q-84 0 -129 -56.5t-45 -163.5v-464q0 -157 54 -228t169 -71z" />
    <glyph glyph-name="gamma" unicode="&#x3b3;" horiz-adv-x="1054" 
d="M1047 924l-381 -777v-555h-273v555l-383 777h299l223 -525l224 525h291z" />
    <glyph glyph-name="delta" unicode="&#x3b4;" horiz-adv-x="1167" 
d="M770 891q156 -72 235.5 -179t79.5 -268q0 -209 -139.5 -335.5t-365.5 -126.5q-227 0 -362.5 128t-135.5 334q0 145 77.5 252.5t213.5 151.5q-74 44 -114 107.5t-40 136.5q0 141 119 220t324 79q84 0 167.5 -19.5t143.5 -50.5v-236q-143 80 -295 80q-176 0 -176 -86
q0 -39 34.5 -67.5t133.5 -73.5zM584 211q101 0 161 65.5t60 167.5q0 103 -61 168.5t-160 65.5q-103 0 -162.5 -70t-59.5 -164q0 -101 61 -167t161 -66z" />
    <glyph glyph-name="epsilon" unicode="&#x3b5;" horiz-adv-x="929" 
d="M547 184q160 0 291 84v-225q-52 -26 -153 -43.5t-218 -17.5q-171 0 -273 64.5t-102 197.5q0 85 51 145t136 82q-73 21 -119.5 77t-46.5 136q0 69 32.5 120t89 80.5t124.5 43.5t147 14q93 0 179.5 -18t131.5 -41v-224q-52 32 -126 57t-144 25q-76 0 -115 -24.5t-39 -67.5
q0 -92 172 -92h103v-190h-103q-98 0 -145 -21.5t-47 -69.5q0 -92 174 -92z" />
    <glyph glyph-name="zeta" unicode="&#x3b6;" horiz-adv-x="872" 
d="M858 1337l-160 -213q-179 -239 -262.5 -402.5t-83.5 -287.5q0 -56 12.5 -93.5t43.5 -64t70.5 -43t107.5 -34.5q143 -40 202.5 -95.5t59.5 -152.5q0 -106 -98 -232h-240q65 93 65 152q0 47 -34 74.5t-135 52.5q-82 20 -139.5 47t-103.5 70t-68.5 107.5t-22.5 152.5
q0 165 86 335.5t260 389.5l37 45h-379v213h782v-21z" />
    <glyph glyph-name="eta" unicode="&#x3b7;" horiz-adv-x="1118" 
d="M653 942q167 0 256.5 -94.5t89.5 -286.5v-967h-272v914q0 47 -5.5 80.5t-21 65t-47 47.5t-78.5 16q-45 0 -76.5 -16t-49.5 -40t-28 -65t-12.5 -78.5t-2.5 -91.5v-426h-273v924h248l6 -103q85 121 266 121z" />
    <glyph glyph-name="theta" unicode="&#x3b8;" 
d="M616 1391q116 0 206.5 -36.5t150 -99.5t98 -153.5t54.5 -192t16 -221.5q0 -149 -33 -276t-97 -223.5t-165 -151.5t-230 -55q-116 0 -206.5 36t-149.5 98.5t-97.5 153t-54.5 193t-16 225.5q0 146 32.5 271.5t95.5 222.5t164.5 153t231.5 56zM616 1165q-225 0 -245 -372
h491q-4 83 -19.5 149t-44 117t-75 78.5t-107.5 27.5zM616 209q229 0 246 371h-491q21 -371 245 -371z" />
    <glyph glyph-name="iota" unicode="&#x3b9;" horiz-adv-x="565" 
d="M160 0v711h-119v213h391v-924h-272z" />
    <glyph glyph-name="kappa" unicode="&#x3ba;" horiz-adv-x="1118" 
d="M1106 0h-344l-346 451v-451h-273v924h273v-432l329 432h340l-370 -447z" />
    <glyph glyph-name="lambda" unicode="&#x3bb;" horiz-adv-x="1099" 
d="M1038 201q28 0 52 8v-201q-54 -20 -136 -20q-108 0 -165.5 52t-100.5 167l-147 385l-228 -592h-282l389 913l-51 134q-23 61 -48.5 85.5t-64.5 24.5q-34 0 -57 -10v201q64 22 147 22q109 0 167.5 -52t102.5 -167l318 -840q23 -60 46.5 -85t57.5 -25z" />
    <glyph glyph-name="uni03BC" unicode="&#x3bc;" horiz-adv-x="1122" 
d="M717 924h272v-924h-248l-6 115q-33 -57 -90 -86t-117 -29q-83 0 -129 41v-447h-266v1330h273v-498q0 -37 3 -65t12.5 -56.5t25 -46.5t42.5 -29.5t64 -11.5q43 0 73.5 16t48 40.5t27 64.5t12.5 78t3 92v416z" />
    <glyph glyph-name="nu" unicode="&#x3bd;" horiz-adv-x="1044" 
d="M514 -18l-504 942h299l215 -467l221 467h289l-499 -942h-21z" />
    <glyph glyph-name="xi" unicode="&#x3be;" horiz-adv-x="905" 
d="M614 1167q-98 0 -148 -45.5t-52 -122.5q-3 -190 219 -190h90v-213h-113q-119 0 -182 -45.5t-63 -136.5q0 -90 53.5 -134.5t183.5 -78.5q150 -40 211 -96t61 -154q0 -107 -100 -232h-237q65 93 65 154q0 47 -36 74t-140 51q-172 39 -258 125.5t-86 251.5q0 123 66.5 217
t181.5 121q-87 26 -143 109.5t-56 187.5q0 126 62 213.5t163 127.5t232 40q180 0 286 -54v-239q-120 69 -260 69z" />
    <glyph glyph-name="omicron" unicode="&#x3bf;" horiz-adv-x="1167" 
d="M580 -18q-231 0 -369.5 131t-138.5 344q0 214 141 349.5t377 135.5q230 0 368 -126t138 -345q0 -221 -143 -355t-373 -134zM584 211q105 0 167 71.5t62 184.5q0 110 -63 179t-166 69q-108 0 -170 -75t-62 -177q0 -109 64.5 -180.5t167.5 -71.5z" />
    <glyph glyph-name="pi" unicode="&#x3c0;" horiz-adv-x="1251" 
d="M1174 924v-213h-130v-711h-272v711h-293v-711h-272v711h-131v213h1098z" />
    <glyph glyph-name="rho" unicode="&#x3c1;" horiz-adv-x="1175" 
d="M102 -406v771q0 280 134.5 428.5t371.5 148.5q235 0 365.5 -132.5t130.5 -344.5q0 -217 -128 -350t-321 -133q-181 0 -282 104l2 -492h-273zM594 211q103 0 166 71.5t63 184.5q0 110 -63 179t-166 69q-108 0 -170 -73.5t-62 -178.5q0 -115 64 -183.5t168 -68.5z" />
    <glyph glyph-name="uni03C2" unicode="&#x3c2;" horiz-adv-x="911" 
d="M496 -281q67 91 67 152q0 43 -30 69.5t-109 49.5q-179 52 -268.5 160t-89.5 307q0 218 139 351.5t368 133.5q146 0 246 -51v-240q-100 66 -213 66t-185.5 -63.5t-72.5 -180.5q0 -120 54.5 -178.5t181.5 -99.5q135 -42 192.5 -95t57.5 -145q0 -113 -99 -236h-239z" />
    <glyph glyph-name="sigma" unicode="&#x3c3;" horiz-adv-x="1183" 
d="M1133 924v-213h-189q123 -99 123 -293q0 -192 -138.5 -314t-359.5 -122q-227 0 -362 130.5t-135 342.5q0 208 144 338.5t400 130.5h517zM573 211q101 0 160.5 69t59.5 177q0 105 -60 171t-158 66q-105 0 -164 -71t-59 -170q0 -104 61.5 -173t159.5 -69z" />
    <glyph glyph-name="tau" unicode="&#x3c4;" horiz-adv-x="882" 
d="M821 711h-243v-410q0 -52 18.5 -76t67.5 -24q33 0 51 6v-199q-50 -20 -131 -20q-86 0 -143 22.5t-85.5 66.5t-39.5 94.5t-11 121.5v418h-244v213h760v-213z" />
    <glyph glyph-name="upsilon" unicode="&#x3c5;" horiz-adv-x="1064" 
d="M532 -18q-95 0 -168.5 23.5t-119 61.5t-74.5 93t-40 112.5t-11 124.5v527h272v-531q0 -188 144 -188q143 0 143 188v531h268v-527q0 -65 -11 -121.5t-39.5 -112t-74 -94.5t-119.5 -63t-170 -24z" />
    <glyph glyph-name="phi" unicode="&#x3c6;" horiz-adv-x="1433" 
d="M1364 471q0 -210 -143.5 -343t-370.5 -144v-390h-264v388q-232 11 -373 140.5t-141 334.5q0 203 141.5 337t372.5 146v418h264v-416q231 -9 372.5 -134.5t141.5 -336.5zM342 463q0 -109 70 -182t176 -82v528q-109 -9 -177.5 -86t-68.5 -178zM848 199q106 8 175 82.5
t69 185.5q0 107 -70 179.5t-174 80.5v-528z" />
    <glyph glyph-name="chi" unicode="&#x3c7;" horiz-adv-x="1148" 
d="M946 -100q32 -60 57 -84.5t58 -24.5q27 0 45 6v-198q-52 -21 -125 -21q-56 0 -97.5 13.5t-75 46.5t-55.5 64.5t-55 90.5l-129 242l-217 -441h-317l397 693l-178 329q-34 61 -63.5 86t-67.5 25q-27 0 -51 -8v199q57 22 137 22q103 0 163 -48t122 -161l112 -207l207 400
h317l-395 -639z" />
    <glyph glyph-name="psi" unicode="&#x3c8;" horiz-adv-x="1480" 
d="M1090 924h272v-430q0 -92 -14.5 -166.5t-49.5 -139.5t-90 -109.5t-139.5 -70t-194.5 -26.5v-392h-266v392q-137 1 -234.5 38.5t-152 108.5t-78.5 160t-24 205v430h272v-432q0 -141 53 -212.5t164 -74.5v719h266v-719q110 4 163 75.5t53 211.5v432z" />
    <glyph glyph-name="omega" unicode="&#x3c9;" horiz-adv-x="1509" 
d="M1270 924q71 -92 118.5 -223t47.5 -281q0 -201 -103 -319.5t-272 -118.5q-232 0 -307 196q-35 -96 -110.5 -146t-205.5 -50q-164 0 -265 118.5t-101 319.5q0 152 47.5 283.5t120.5 220.5h276q-75 -85 -118.5 -206.5t-43.5 -254.5q0 -116 37.5 -185t108.5 -69q65 0 104 80
t39 237v119h223v-119q0 -162 39.5 -239.5t106.5 -77.5q70 0 106.5 69t36.5 185q0 130 -45 252t-119 209h279z" />
    <glyph glyph-name="iotadieresis" unicode="&#x3ca;" horiz-adv-x="610" 
d="M121 1065q-67 0 -108.5 41.5t-41.5 107.5q0 64 44 107t106 43t104.5 -43.5t42.5 -108.5t-41.5 -106t-105.5 -41zM498 1065q-67 0 -108.5 41.5t-41.5 107.5q0 64 44 107t106 43t104.5 -43.5t42.5 -108.5t-41.5 -106t-105.5 -41zM195 0v711h-119v213h391v-924h-272z" />
    <glyph glyph-name="upsilondieresis" unicode="&#x3cb;" horiz-adv-x="1064" 
d="M311 1065q-67 0 -108 41.5t-41 107.5q0 64 43.5 107t105.5 43t105 -43.5t43 -108.5t-42 -106t-106 -41zM756 1065q-67 0 -108.5 41.5t-41.5 107.5q0 64 44 107t106 43t103.5 -43t41.5 -109t-40.5 -106.5t-104.5 -40.5zM532 -18q-95 0 -168.5 23.5t-119 61.5t-74.5 93
t-40 112.5t-11 124.5v527h272v-531q0 -188 144 -188q143 0 143 188v531h268v-527q0 -65 -11 -121.5t-39.5 -112t-74 -94.5t-119.5 -63t-170 -24z" />
    <glyph glyph-name="omicrontonos" unicode="&#x3cc;" horiz-adv-x="1167" 
d="M438 1065l152 346h321l-217 -346h-256zM580 -18q-231 0 -369.5 131t-138.5 344q0 214 141 349.5t377 135.5q230 0 368 -126t138 -345q0 -221 -143 -355t-373 -134zM584 211q105 0 167 71.5t62 184.5q0 110 -63 179t-166 69q-108 0 -170 -75t-62 -177q0 -109 64.5 -180.5
t167.5 -71.5z" />
    <glyph glyph-name="upsilontonos" unicode="&#x3cd;" horiz-adv-x="1064" 
d="M387 1065l152 346h321l-217 -346h-256zM532 -18q-95 0 -168.5 23.5t-119 61.5t-74.5 93t-40 112.5t-11 124.5v527h272v-531q0 -188 144 -188q143 0 143 188v531h268v-527q0 -65 -11 -121.5t-39.5 -112t-74 -94.5t-119.5 -63t-170 -24z" />
    <glyph glyph-name="omegatonos" unicode="&#x3ce;" horiz-adv-x="1509" 
d="M1081 1411l-217 -346h-256l152 346h321zM1270 924q71 -92 118.5 -223t47.5 -281q0 -201 -103 -319.5t-272 -118.5q-232 0 -307 196q-35 -96 -110.5 -146t-205.5 -50q-164 0 -265 118.5t-101 319.5q0 152 47.5 283.5t120.5 220.5h276q-75 -85 -118.5 -206.5t-43.5 -254.5
q0 -116 37.5 -185t108.5 -69q65 0 104 80t39 237v119h223v-119q0 -162 39.5 -239.5t106.5 -77.5q70 0 106.5 69t36.5 185q0 130 -45 252t-119 209h279z" />
    <glyph glyph-name="beta.ss02" unicode="&#x3d0;" horiz-adv-x="1124" 
d="M788 723q120 -21 189.5 -112.5t69.5 -219.5q0 -195 -130.5 -302t-347.5 -107q-240 0 -353.5 116.5t-113.5 372.5v371q0 285 115.5 417t360.5 132q185 0 296 -97.5t111 -271.5q0 -111 -54.5 -191t-142.5 -108zM545 1178q-88 0 -129 -61.5t-41 -192.5v-127h92q121 0 178 49
t57 160q0 86 -42 129t-115 43zM580 195q89 0 136.5 48t47.5 136q0 111 -60 160t-188 49h-141v-135q0 -131 54 -194.5t151 -63.5z" />
    <glyph glyph-name="theta.ss02" unicode="&#x3d1;" horiz-adv-x="1220" 
d="M664 1391q107 0 191.5 -36t141 -98.5t93.5 -152.5t53 -192.5t16 -223.5q0 -122 -15.5 -223.5t-53.5 -192.5t-96.5 -154t-149 -99.5t-207.5 -36.5q-213 0 -336 117t-123 317v16q0 47 -13 65.5t-59 18.5q-32 0 -51 -8v201q55 22 160 22q129 0 182.5 -63.5t53.5 -192.5v-14
q0 -252 206 -252q67 0 113 33.5t70.5 98.5t34.5 144.5t10 188.5v43q-93 -45 -228 -45q-184 0 -294.5 98t-110.5 254q0 161 108 264t304 103zM518 1040q0 -71 55.5 -113t145.5 -40q98 3 160 31q-35 249 -215 249q-67 0 -106.5 -34t-39.5 -93z" />
    <glyph glyph-name="phi.ss02" unicode="&#x3d5;" horiz-adv-x="1460" 
d="M1389 471q0 -217 -141.5 -350t-373.5 -139v-390h-266v390q-243 0 -389.5 141.5t-146.5 372.5q0 125 40 238.5t99 189.5h278q-65 -77 -103 -187t-38 -223q0 -139 71 -224.5t189 -86.5v731h187q285 0 439.5 -114t154.5 -349zM874 203q112 4 176 74.5t64 189.5
q0 110 -64 176t-176 72v-512z" />
    <glyph glyph-name="uni0401" unicode="&#x401;" horiz-adv-x="1077" 
d="M342 1464q-70 0 -115 45.5t-45 114.5t45 114.5t115 45.5t115 -45.5t45 -114.5t-45 -114.5t-115 -45.5zM788 1464q-70 0 -115.5 45.5t-45.5 114.5t45.5 114.5t115.5 45.5t115 -45.5t45 -114.5t-45 -114.5t-115 -45.5zM154 0v1327h821v-231h-541v-303h381v-232h-381v-328
h565v-233h-845z" />
    <glyph glyph-name="uni0402" unicode="&#x402;" horiz-adv-x="1648" 
d="M1083 887q218 0 342.5 -118t124.5 -339q0 -223 -117 -338t-329 -115q-66 0 -123 15v233q30 -12 86 -12q108 0 154.5 58t46.5 147q0 105 -62.5 165t-181.5 60q-91 0 -151.5 -22t-94.5 -69t-47.5 -109.5t-13.5 -153.5v-289h-281v1096h-362v231h1085v-231h-442v-322
q124 113 366 113z" />
    <glyph glyph-name="uni0403" unicode="&#x403;" horiz-adv-x="1021" 
d="M1057 1794l-342 -346h-266l247 346h361zM154 0v1327h827v-231h-547v-1096h-280z" />
    <glyph glyph-name="uni0404" unicode="&#x404;" horiz-adv-x="1310" 
d="M817 229q207 0 377 111v-272q-57 -36 -163.5 -62t-233.5 -26q-165 0 -299 52.5t-221.5 145t-135 216.5t-47.5 268q0 198 85.5 354t244.5 244t367 88q121 0 221.5 -26.5t161.5 -64.5v-268q-168 111 -369 111q-161 0 -274 -86.5t-144 -229.5h541v-223h-543
q26 -153 144.5 -242.5t287.5 -89.5z" />
    <glyph glyph-name="uni0405" unicode="&#x405;" horiz-adv-x="1024" 
d="M479 -20q-193 0 -360 79v275q72 -50 164.5 -82.5t187.5 -32.5q89 0 135.5 35.5t46.5 99.5q0 48 -29 84.5t-75 62t-102 51t-112 59t-102 76.5t-75 114t-29 162q0 179 114.5 282t319.5 103q95 0 182 -20t132 -44v-272q-66 42 -145 70t-150 28q-81 0 -124.5 -36t-43.5 -99
q0 -46 29 -81.5t75.5 -60t103 -49t113 -57t103 -75.5t75.5 -113.5t29 -161.5q0 -191 -120 -294t-343 -103z" />
    <glyph glyph-name="uni0406" unicode="&#x406;" horiz-adv-x="587" 
d="M154 0v1327h280v-1327h-280z" />
    <glyph glyph-name="uni0407" unicode="&#x407;" horiz-adv-x="587" 
d="M70 1464q-70 0 -115 45.5t-45 114.5t45 114.5t115 45.5t114.5 -45.5t44.5 -114.5t-44.5 -114.5t-114.5 -45.5zM516 1464q-70 0 -116 45.5t-46 114.5t46 114.5t116 45.5t115 -45.5t45 -114.5t-45 -114.5t-115 -45.5zM154 0v1327h280v-1327h-280z" />
    <glyph glyph-name="uni0408" unicode="&#x408;" horiz-adv-x="966" 
d="M371 -20q-84 0 -157.5 14.5t-111.5 34.5v252q83 -58 213 -58q46 0 81 8.5t59 22t41 37.5t26 47t14 58.5t6 63.5t1 70v568h-303v229h585v-864q0 -483 -454 -483z" />
    <glyph glyph-name="uni0409" unicode="&#x409;" horiz-adv-x="2037" 
d="M1401 897q64 0 118 -4t114.5 -16t108 -32t92.5 -54t74.5 -79t47.5 -110.5t18 -146.5q0 -89 -22.5 -160.5t-57 -118t-87.5 -81t-102.5 -52t-114.5 -28t-110.5 -13t-103.5 -2.5h-381v1096h-411v-193q0 -124 -3.5 -216.5t-13.5 -193t-28 -171.5t-49 -138.5t-73.5 -108
t-103.5 -65t-139 -24.5q-84 0 -133 22v250q27 -10 72 -10q116 0 160 172.5t44 527.5v379h961v-430h123zM1358 223q50 0 89 3.5t85.5 17.5t77.5 37.5t52 67.5t21 104q0 58 -20.5 100t-50.5 64t-77.5 34.5t-85.5 15.5t-91 3h-80v-447h80z" />
    <glyph glyph-name="uni040A" unicode="&#x40a;" horiz-adv-x="2037" 
d="M1401 897q64 0 117.5 -4t114 -16t108 -32t92 -54t74 -79t47.5 -110.5t18 -146.5q0 -70 -13.5 -129t-36 -102t-56.5 -78t-69.5 -58t-81.5 -40t-86 -26t-89 -14t-84.5 -6.5t-79.5 -1.5h-381v557h-561v-557h-280v1327h280v-534h561v534h281v-430h125zM1358 223q50 0 89 3.5
t85.5 17.5t77.5 37.5t52 67.5t21 104q0 58 -20.5 100t-50.5 64t-77.5 34.5t-85.5 15.5t-91 3h-82v-447h82z" />
    <glyph glyph-name="uni040B" unicode="&#x40b;" horiz-adv-x="1650" 
d="M1069 887q461 0 461 -490v-399h-281v313q0 79 -11 135t-39 101t-80.5 67.5t-131.5 22.5q-150 0 -210 -78t-60 -260v-299h-281v1096h-362v231h1085v-231h-442v-320q119 111 352 111z" />
    <glyph glyph-name="uni040C" unicode="&#x40c;" horiz-adv-x="1390" 
d="M539 1448l247 346h361l-342 -346h-266zM154 0v1327h280v-633l553 633h361l-586 -647l598 -680h-375l-551 647v-647h-280z" />
    <glyph glyph-name="uni040D" unicode="&#x40d;" horiz-adv-x="1421" 
d="M963 1448h-269l-342 346h363zM1249 1348h21v-1348h-279v778l-817 -798h-20v1347h278v-778z" />
    <glyph glyph-name="uni040E" unicode="&#x40e;" horiz-adv-x="1310" 
d="M682 1409q-187 0 -275 90.5t-88 241.5v33h222q0 -183 141 -183q143 0 143 183h222v-33q0 -150 -90 -241t-275 -91zM1012 1327h268l-631 -1327h-268l192 403l-538 924h301l369 -645z" />
    <glyph glyph-name="uni040F" unicode="&#x40f;" horiz-adv-x="1400" 
d="M1249 1327v-1327h-418v-281h-262v281h-415v1327h280v-1094h533v1094h282z" />
    <glyph glyph-name="uni0410" unicode="&#x410;" horiz-adv-x="1312" 
d="M35 0l612 1348h21l610 -1348h-301l-86 205h-479l-86 -205h-291zM498 424h313l-158 369z" />
    <glyph glyph-name="uni0411" unicode="&#x411;" horiz-adv-x="1202" 
d="M573 823q90 0 162.5 -8t149 -34t128 -68.5t84.5 -117t33 -175.5q0 -78 -20 -141.5t-52.5 -106.5t-80.5 -75.5t-97 -50.5t-110.5 -28.5t-111.5 -14t-109 -3.5h-395v1327h888v-231h-608v-273h139zM537 225q305 0 305 191q0 48 -20 82.5t-48.5 53t-72.5 29t-80 13t-84 2.5
h-103v-371h103z" />
    <glyph glyph-name="uni0412" unicode="&#x412;" horiz-adv-x="1212" 
d="M897 707q43 -11 80.5 -32t75 -58t59 -97.5t21.5 -138.5q0 -381 -537 -381h-442v1327h368q60 0 110.5 -3.5t106.5 -13.5t100.5 -26.5t86 -44.5t69 -64.5t44 -89.5t16.5 -118q0 -102 -45 -167t-113 -93zM770 944q0 41 -14 70.5t-36 46t-56.5 26t-67.5 12.5t-78 3h-84v-318
h82q58 0 98.5 6t78.5 22t57.5 49t19.5 83zM582 229q45 0 77.5 2.5t70.5 12.5t61 27.5t39 49.5t16 76t-17 76t-40.5 48.5t-62 26t-68.5 11.5t-72 2h-152v-332h148z" />
    <glyph glyph-name="uni0413" unicode="&#x413;" horiz-adv-x="1021" 
d="M981 1327v-231h-547v-1096h-280v1327h827z" />
    <glyph glyph-name="uni0414" unicode="&#x414;" horiz-adv-x="1542" 
d="M1292 233h174v-514h-262v283h-907v-283h-262v512h24q67 0 113.5 35.5t81.5 106.5q94 187 94 637v317h944v-1094zM612 1096v-54q0 -261 -28 -456t-115 -353h545v863h-402z" />
    <glyph glyph-name="uni0415" unicode="&#x415;" horiz-adv-x="1077" 
d="M154 0v1327h821v-231h-541v-303h381v-232h-381v-328h565v-233h-845z" />
    <glyph glyph-name="uni0416" unicode="&#x416;" horiz-adv-x="2115" 
d="M2085 0h-363l-526 653v-653h-276v653l-527 -653h-362l575 682l-563 645h338l539 -639v639h276v-639l539 639h338l-564 -645z" />
    <glyph glyph-name="uni0417" unicode="&#x417;" horiz-adv-x="1089" 
d="M799 715q41 -13 76.5 -37.5t67 -63t49.5 -96t18 -127.5q0 -109 -37.5 -189t-107 -128t-161 -71t-206.5 -23q-121 0 -223 22t-158 57v269q167 -109 370 -109q236 0 236 166q0 94 -52 134t-155 40h-178v225h86q132 0 201 38t69 126q0 84 -54 121t-175 37q-188 0 -348 -109
v269q61 35 169.5 58.5t225.5 23.5q102 0 185 -20.5t147 -62.5t99.5 -112.5t35.5 -163.5q0 -104 -51 -177.5t-129 -96.5z" />
    <glyph glyph-name="uni0418" unicode="&#x418;" horiz-adv-x="1421" 
d="M1249 1348h21v-1348h-279v778l-817 -798h-20v1347h278v-778z" />
    <glyph glyph-name="uni0419" unicode="&#x419;" horiz-adv-x="1421" 
d="M768 1409q-187 0 -274.5 90.5t-87.5 241.5v33h221q0 -183 141 -183q143 0 143 183h222v-33q0 -150 -90 -241t-275 -91zM1249 1348h21v-1348h-279v778l-817 -798h-20v1347h278v-778z" />
    <glyph glyph-name="uni041A" unicode="&#x41a;" horiz-adv-x="1390" 
d="M154 0v1327h280v-633l553 633h361l-586 -647l598 -680h-375l-551 647v-647h-280z" />
    <glyph glyph-name="uni041B" unicode="&#x41b;" horiz-adv-x="1429" 
d="M317 1327h961v-1327h-283v1096h-411v-193q0 -124 -3.5 -216.5t-13.5 -193t-28 -171.5t-49 -138.5t-73.5 -108t-103.5 -65t-139 -24.5q-84 0 -133 22v250q27 -10 72 -10q116 0 160 172.5t44 527.5v379z" />
    <glyph glyph-name="uni041C" unicode="&#x41c;" horiz-adv-x="1757" 
d="M870 -20l-368 645l-113 -625h-283l269 1348h20l486 -854l481 854h20l269 -1348h-277l-117 627l-366 -647h-21z" />
    <glyph glyph-name="uni041D" unicode="&#x41d;" horiz-adv-x="1429" 
d="M154 0v1327h280v-534h561v534h281v-1327h-281v557h-561v-557h-280z" />
    <glyph glyph-name="uni041E" unicode="&#x41e;" horiz-adv-x="1560" 
d="M776 -20q-205 0 -361 88t-238.5 243t-82.5 353q0 200 84.5 355t242 242t365.5 87q205 0 360 -86.5t237.5 -240.5t82.5 -353q0 -197 -83.5 -353t-241.5 -245.5t-365 -89.5zM784 238q170 0 282 116t112 310q0 195 -114.5 311.5t-283.5 116.5q-171 0 -284 -116t-113 -308
q0 -196 114 -313t287 -117z" />
    <glyph glyph-name="uni041F" unicode="&#x41f;" horiz-adv-x="1409" 
d="M154 1327h1101v-1327h-280v1096h-541v-1096h-280v1327z" />
    <glyph glyph-name="uni0420" unicode="&#x420;" horiz-adv-x="1196" 
d="M557 1327q64 0 118 -4t114.5 -16t108 -31.5t92.5 -53.5t74.5 -79t47.5 -111t18 -147q0 -69 -13.5 -128t-36 -102t-56.5 -78t-69.5 -58t-81.5 -40t-86.5 -26t-89.5 -14.5t-85 -7t-80 -1.5h-98v-430h-280v1327h403zM514 655q42 0 74.5 2.5t73.5 10t70.5 23.5t55.5 40t40 63
t14 89q0 58 -21 100.5t-51 64.5t-77.5 35t-86 16t-90.5 3h-82v-447h80z" />
    <glyph glyph-name="uni0421" unicode="&#x421;" horiz-adv-x="1300" 
d="M797 -20q-165 0 -299 52.5t-221.5 145t-135 216.5t-47.5 268q0 198 85.5 354t244.5 244t367 88q118 0 215.5 -26.5t156.5 -64.5v-276q-163 111 -358 111q-187 0 -304.5 -118.5t-117.5 -307.5q0 -199 121.5 -313.5t312.5 -114.5q205 0 367 110v-280q-55 -36 -159 -62
t-228 -26z" />
    <glyph glyph-name="uni0422" unicode="&#x422;" horiz-adv-x="1150" 
d="M436 0v1096h-362v231h1003v-231h-360v-1096h-281z" />
    <glyph glyph-name="uni0423" unicode="&#x423;" horiz-adv-x="1310" 
d="M1012 1327h268l-631 -1327h-268l192 403l-538 924h301l369 -645z" />
    <glyph glyph-name="uni0424" unicode="&#x424;" horiz-adv-x="1728" 
d="M1634 664q0 -256 -173.5 -409.5t-459.5 -168.5v-143h-274v143q-295 15 -464 168.5t-169 409.5t171.5 409t461.5 168v143h274v-143q290 -15 461.5 -169t171.5 -408zM379 668q0 -150 97 -241t253 -103v680q-162 -12 -256 -101.5t-94 -234.5zM999 324q158 12 255.5 101.5
t97.5 233.5q0 148 -100 240t-253 105v-680z" />
    <glyph glyph-name="uni0425" unicode="&#x425;" horiz-adv-x="1339" 
d="M35 0l461 674l-449 653h340l283 -448l293 448h329l-448 -651l461 -676h-342l-295 475l-306 -475h-327z" />
    <glyph glyph-name="uni0426" unicode="&#x426;" horiz-adv-x="1499" 
d="M1247 233h174v-514h-260v281h-1007v1327h280v-1094h533v1094h280v-1094z" />
    <glyph glyph-name="uni0427" unicode="&#x427;" horiz-adv-x="1368" 
d="M934 1327h280v-1327h-280v547q-117 -109 -330 -109q-483 0 -483 475v414h282v-346q0 -146 59 -219.5t208 -73.5q145 0 204.5 74t59.5 219v346z" />
    <glyph glyph-name="uni0428" unicode="&#x428;" horiz-adv-x="2048" 
d="M1614 1327h282v-1327h-1742v1327h280v-1094h449v1094h282v-1094h449v1094z" />
    <glyph glyph-name="uni0429" unicode="&#x429;" horiz-adv-x="2146" 
d="M1896 233h175v-514h-263v281h-1654v1327h280v-1094h449v1094h282v-1094h449v1094h282v-1094z" />
    <glyph glyph-name="uni042A" unicode="&#x42a;" horiz-adv-x="1478" 
d="M840 897q64 0 118 -4t114.5 -16t108 -32t92.5 -54t74.5 -79t47.5 -110.5t18 -146.5q0 -70 -13.5 -129t-36 -102t-56.5 -78t-69.5 -58t-82 -40t-86 -26t-89.5 -14t-85.5 -6.5t-79.5 -1.5h-379v1096h-362v231h643v-430h123zM797 223q50 0 89.5 3.5t86.5 17.5t78 37.5
t52 67.5t21 104q0 49 -13.5 86.5t-39.5 60.5t-54.5 37.5t-69.5 21.5t-73 9t-75 2h-82v-447h80z" />
    <glyph glyph-name="uni042B" unicode="&#x42b;" horiz-adv-x="1773" 
d="M557 897q64 0 118 -4t114.5 -16t108 -32t92.5 -54t74.5 -79t47.5 -110.5t18 -146.5q0 -70 -13.5 -129t-36 -102t-56.5 -78t-69.5 -58t-82 -40t-86 -26t-89.5 -14t-85.5 -6.5t-79.5 -1.5h-378v1327h280v-430h123zM1339 1327h281v-1327h-281v1327zM514 223q41 0 74.5 2.5
t73.5 10.5t70 24t56 40.5t40 63.5t14 89q0 58 -21 100t-51 64t-77.5 34.5t-85.5 15.5t-91 3h-82v-447h80z" />
    <glyph glyph-name="uni042C" unicode="&#x42c;" horiz-adv-x="1196" 
d="M557 897q64 0 118 -4t114.5 -16t108 -32t92.5 -54t74.5 -79t47.5 -110.5t18 -146.5q0 -70 -13.5 -129t-36 -102t-56.5 -78t-69.5 -58t-82 -40t-86 -26t-89.5 -14t-85.5 -6.5t-79.5 -1.5h-378v1327h280v-430h123zM514 223q41 0 74.5 2.5t73.5 10.5t70 24t56 40.5t40 63.5
t14 89q0 58 -21 100t-51 64t-77.5 34.5t-85.5 15.5t-91 3h-82v-447h80z" />
    <glyph glyph-name="uni042D" unicode="&#x42d;" horiz-adv-x="1310" 
d="M516 1348q165 0 298.5 -52.5t221 -145t134.5 -216.5t47 -268q0 -199 -85 -354.5t-244 -243.5t-366 -88q-128 0 -234.5 26t-170.5 64v268q182 -109 391 -109q166 0 281.5 92t140.5 240h-547v223h543q-34 147 -150 231.5t-280 84.5q-198 0 -359 -113v273q55 36 156.5 62
t222.5 26z" />
    <glyph glyph-name="uni042E" unicode="&#x42e;" horiz-adv-x="2142" 
d="M1372 1348q307 0 491.5 -189t184.5 -491q0 -197 -83 -353t-240 -245.5t-363 -89.5q-279 0 -458 158t-212 419h-258v-557h-280v1327h280v-534h262q39 253 219 404t457 151zM1370 238q168 0 278.5 116t110.5 310q0 195 -112 311.5t-279 116.5q-170 0 -281.5 -116
t-111.5 -308q0 -197 112 -313.5t283 -116.5z" />
    <glyph glyph-name="uni042F" unicode="&#x42f;" horiz-adv-x="1239" 
d="M676 1327h411v-1327h-282v453h-131l-289 -453h-334l336 492q-260 83 -260 380q0 106 31.5 187t82.5 131t124 81.5t148 43.5t163 12zM725 680h80v422h-84q-54 0 -93 -3.5t-81.5 -16t-69 -35t-44 -62t-17.5 -94.5q0 -52 16.5 -90t43.5 -61t68 -37t83.5 -18.5t97.5 -4.5z
" />
    <glyph glyph-name="uni0430" unicode="&#x430;" horiz-adv-x="1058" 
d="M512 942q216 0 322 -97.5t106 -297.5v-547h-250l-6 90q-85 -108 -270 -108q-156 0 -249 78t-93 212q0 143 105 227.5t290 84.5q105 0 203 -37v10q0 36 -9.5 67t-31 58.5t-61.5 43t-95 15.5q-147 0 -297 -90v217q145 74 336 74zM492 160q81 0 129.5 48.5t48.5 149.5v21
q-72 35 -164 35q-74 0 -117 -32.5t-43 -94.5q0 -58 40 -92.5t106 -34.5z" />
    <glyph glyph-name="uni0431" unicode="&#x431;" horiz-adv-x="1212" 
d="M688 903q200 0 321 -123.5t121 -335.5q0 -211 -137.5 -336.5t-365.5 -125.5q-269 0 -395 149.5t-126 470.5v31q0 404 185 567q87 76 183.5 109.5t270.5 46.5q237 17 295 35v-242q-62 -19 -258 -35q-152 -12 -214.5 -30.5t-114.5 -67.5q-84 -73 -84 -256
q53 70 136.5 106.5t182.5 36.5zM616 207q105 0 169.5 66t64.5 171q0 106 -65 171t-169 65q-109 0 -171 -65t-62 -171q0 -104 64 -170.5t169 -66.5z" />
    <glyph glyph-name="uni0432" unicode="&#x432;" horiz-adv-x="1019" 
d="M754 500q81 -21 135.5 -78t54.5 -150q0 -73 -35 -127t-96 -85t-134.5 -45.5t-158.5 -14.5h-377v924h334q84 0 153.5 -11.5t130 -38t94.5 -76.5t34 -120q0 -68 -37.5 -113t-97.5 -65zM614 649q0 101 -137 101h-61v-201h61q137 0 137 100zM504 176q164 0 164 98
q0 101 -164 101h-88v-199h88z" />
    <glyph glyph-name="uni0433" unicode="&#x433;" horiz-adv-x="819" 
d="M770 924v-217h-354v-707h-273v924h627z" />
    <glyph glyph-name="uni0434" unicode="&#x434;" horiz-adv-x="1234" 
d="M1036 217h148v-457h-252v242h-619v-242h-252v457h21q85 0 133 88q61 113 61 371v248h760v-707zM516 709v-17q0 -314 -90 -475h342v492h-252z" />
    <glyph glyph-name="uni0435" unicode="&#x435;" horiz-adv-x="1062" 
d="M586 -18q-240 0 -377 121t-137 352q0 141 52.5 250t159.5 173t257 64q118 0 207.5 -38.5t141.5 -105.5t77.5 -150t25.5 -179q0 -45 -8 -92h-633q25 -176 279 -176q165 0 313 78v-222q-150 -75 -358 -75zM352 549h367q-5 78 -52 127t-126 49q-75 0 -127.5 -48.5
t-61.5 -127.5z" />
    <glyph glyph-name="uni0436" unicode="&#x436;" horiz-adv-x="1628" 
d="M1616 0h-336l-332 459v-459h-268v459l-332 -459h-336l371 479l-352 445h315l334 -437v437h268v-437l334 437h315l-352 -445z" />
    <glyph glyph-name="uni0437" unicode="&#x437;" horiz-adv-x="903" 
d="M643 502q79 -20 132.5 -77t53.5 -155q0 -147 -119 -217.5t-325 -70.5q-85 0 -163.5 19t-119.5 46v223q130 -86 275 -86q184 0 184 92q0 48 -47 69.5t-143 21.5h-99v190h70q93 0 137.5 20t44.5 72q0 43 -34.5 67.5t-102.5 24.5q-66 0 -139.5 -26t-124.5 -60v217
q50 26 140 48t190 22q66 0 124 -12.5t107.5 -39.5t78 -74.5t28.5 -110.5q0 -76 -42 -129.5t-106 -73.5z" />
    <glyph glyph-name="uni0438" unicode="&#x438;" horiz-adv-x="1124" 
d="M961 942h20v-942h-264v455l-553 -473h-21v942h265v-465z" />
    <glyph glyph-name="uni0439" unicode="&#x439;" horiz-adv-x="1124" 
d="M582 1024q-178 0 -259 87.5t-81 234.5v26h213v-6q0 -176 127 -176q129 0 129 176v6h213v-26q0 -145 -83 -233.5t-259 -88.5zM961 942h20v-942h-264v455l-553 -473h-21v942h265v-465z" />
    <glyph glyph-name="uni043A" unicode="&#x43a;" horiz-adv-x="1118" 
d="M1106 0h-344l-346 451v-451h-273v924h273v-432l329 432h340l-370 -447z" />
    <glyph glyph-name="uni043B" unicode="&#x43b;" horiz-adv-x="1177" 
d="M250 924h786v-924h-272v707h-256v-125q0 -146 -15.5 -251.5t-52.5 -186.5t-103 -121.5t-163 -40.5q-83 0 -129 22v219q27 -10 61 -10q42 0 71 27t44.5 82.5t22 126t6.5 169.5v306z" />
    <glyph glyph-name="uni043C" unicode="&#x43c;" horiz-adv-x="1388" 
d="M1331 0h-268l-105 401l-253 -419h-21l-252 417l-106 -399h-271l277 940h20l342 -559l342 559h21z" />
    <glyph glyph-name="uni043D" unicode="&#x43d;" horiz-adv-x="1161" 
d="M748 924h272v-924h-272v356h-332v-356h-273v924h273v-351h332v351z" />
    <glyph glyph-name="uni043E" unicode="&#x43e;" horiz-adv-x="1167" 
d="M580 -18q-231 0 -369.5 131t-138.5 344q0 214 141 349.5t377 135.5q230 0 368 -126t138 -345q0 -221 -143 -355t-373 -134zM584 211q105 0 167 71.5t62 184.5q0 110 -63 179t-166 69q-108 0 -170 -75t-62 -177q0 -109 64.5 -180.5t167.5 -71.5z" />
    <glyph glyph-name="uni043F" unicode="&#x43f;" horiz-adv-x="1146" 
d="M143 924h861v-924h-273v707h-315v-707h-273v924z" />
    <glyph glyph-name="uni0440" unicode="&#x440;" horiz-adv-x="1216" 
d="M143 -406v1330h248l6 -103q100 121 297 121q203 0 327 -134.5t124 -342.5q0 -217 -128 -350t-321 -133q-181 0 -282 104l2 -492h-273zM635 211q103 0 166 71.5t63 184.5q0 110 -63 179t-166 69q-108 0 -170 -73.5t-62 -178.5q0 -115 64 -183.5t168 -68.5z" />
    <glyph glyph-name="uni0441" unicode="&#x441;" horiz-adv-x="911" 
d="M567 -18q-76 0 -146.5 16.5t-134.5 53t-111 89.5t-75 131.5t-28 173.5q0 223 137.5 359.5t363.5 136.5q146 0 246 -51v-240q-100 66 -213 66q-110 0 -182 -68t-72 -192q0 -120 68 -184t182 -64q123 0 227 72v-242q-37 -22 -110 -39.5t-152 -17.5z" />
    <glyph glyph-name="uni0442" unicode="&#x442;" horiz-adv-x="907" 
d="M846 924v-217h-256v-707h-273v707h-256v217h785z" />
    <glyph glyph-name="uni0443" unicode="&#x443;" horiz-adv-x="1056" 
d="M178 -406l209 467l-375 863h299l217 -555l226 555h290l-571 -1330h-295z" />
    <glyph glyph-name="uni0444" unicode="&#x444;" horiz-adv-x="1433" 
d="M1364 471q0 -210 -143.5 -343t-370.5 -144v-390h-264v388q-232 11 -373 140.5t-141 334.5q0 203 141.5 337t372.5 146v418h264v-416q231 -9 372.5 -134.5t141.5 -336.5zM342 463q0 -109 70 -182t176 -82v528q-109 -9 -177.5 -86t-68.5 -178zM848 199q106 8 175 82.5
t69 185.5q0 107 -70 179.5t-174 80.5v-528z" />
    <glyph glyph-name="uni0445" unicode="&#x445;" horiz-adv-x="1132" 
d="M29 0l370 463l-362 461h325l205 -287l213 287h316l-365 -461l373 -463h-326l-215 283l-217 -283h-317z" />
    <glyph glyph-name="uni0446" unicode="&#x446;" horiz-adv-x="1196" 
d="M995 217h150v-457h-252v240h-750v924h273v-707h307v707h272v-707z" />
    <glyph glyph-name="uni0447" unicode="&#x447;" horiz-adv-x="1099" 
d="M686 924h272v-924h-272v354q-79 -73 -242 -73q-173 0 -262.5 94t-89.5 293v256h273v-217q0 -106 33.5 -153.5t121.5 -47.5q90 0 128 48.5t38 152.5v217z" />
    <glyph glyph-name="uni0448" unicode="&#x448;" horiz-adv-x="1632" 
d="M1217 924h272v-924h-1346v924h273v-707h264v707h272v-707h265v707z" />
    <glyph glyph-name="uni0449" unicode="&#x449;" horiz-adv-x="1689" 
d="M1489 217h149v-457h-252v240h-1243v924h273v-707h264v707h272v-707h265v707h272v-707z" />
    <glyph glyph-name="uni044A" unicode="&#x44a;" horiz-adv-x="1179" 
d="M694 662q422 0 422 -322q0 -79 -26 -140t-68 -98t-101 -60.5t-118.5 -32.5t-128.5 -9h-357v707h-256v217h529v-262h104zM653 193q185 0 185 141q0 135 -183 135h-65v-276h63z" />
    <glyph glyph-name="uni044B" unicode="&#x44b;" horiz-adv-x="1499" 
d="M520 662q420 0 420 -322q0 -79 -26 -140t-67.5 -98t-100.5 -60.5t-118 -32.5t-128 -9h-357v924h273v-262h104zM1083 924h273v-924h-273v924zM479 193q185 0 185 141q0 135 -183 135h-65v-276h63z" />
    <glyph glyph-name="uni044C" unicode="&#x44c;" horiz-adv-x="1003" 
d="M520 662q420 0 420 -322q0 -79 -26 -140t-67.5 -98t-100.5 -60.5t-118 -32.5t-128 -9h-357v924h273v-262h104zM479 193q185 0 185 141q0 135 -183 135h-65v-276h63z" />
    <glyph glyph-name="uni044D" unicode="&#x44d;" horiz-adv-x="931" 
d="M365 942q76 0 147 -16.5t135 -53t111.5 -89.5t75.5 -132t28 -174q0 -223 -138 -359t-364 -136q-160 0 -268 51v233q111 -65 242 -65q98 0 166.5 43.5t89.5 126.5h-328v190h328q-20 81 -86.5 122.5t-167.5 41.5q-131 0 -234 -72v232q35 22 111.5 39.5t151.5 17.5z" />
    <glyph glyph-name="uni044E" unicode="&#x44e;" horiz-adv-x="1640" 
d="M1067 942q228 0 365 -126t137 -345q0 -221 -141.5 -355t-370.5 -134q-200 0 -332.5 102t-163.5 274h-145v-358h-273v924h273v-353h149q36 168 169.5 269.5t332.5 101.5zM1063 211q103 0 164 72t61 184q0 109 -62 178.5t-163 69.5q-108 0 -167.5 -74.5t-59.5 -177.5
q0 -109 62.5 -180.5t164.5 -71.5z" />
    <glyph glyph-name="uni044F" unicode="&#x44f;" horiz-adv-x="1050" 
d="M522 924h387v-924h-272v289h-74l-188 -289h-303l225 319q-88 28 -140.5 97.5t-52.5 177.5q0 75 24.5 134t64.5 95t95.5 59.5t112.5 32.5t121 9zM545 479h92v254h-98q-77 0 -117.5 -29.5t-40.5 -97.5q0 -62 43 -94.5t121 -32.5z" />
    <glyph glyph-name="uni0451" unicode="&#x451;" horiz-adv-x="1062" 
d="M315 1096q-67 0 -108 41.5t-41 107.5q0 64 43.5 107t105.5 43t105 -43.5t43 -108.5t-42 -106t-106 -41zM770 1096q-67 0 -108 41.5t-41 107.5q0 64 43.5 107t105.5 43t103.5 -43t41.5 -109q0 -65 -40.5 -106t-104.5 -41zM586 -18q-240 0 -377 121t-137 352
q0 141 52.5 250t159.5 173t257 64q118 0 207.5 -38.5t141.5 -105.5t77.5 -150t25.5 -179q0 -45 -8 -92h-633q25 -176 279 -176q165 0 313 78v-222q-150 -75 -358 -75zM352 549h367q-5 78 -52 127t-126 49q-75 0 -127.5 -48.5t-61.5 -127.5z" />
    <glyph glyph-name="uni0452" unicode="&#x452;" horiz-adv-x="1181" 
d="M717 881q172 0 271 -99t99 -305q0 -212 -73.5 -395t-194.5 -322h-297q144 167 218.5 327t74.5 341q0 114 -41.5 170.5t-138.5 56.5q-47 0 -80 -15t-52.5 -39t-30 -63.5t-14 -78.5t-3.5 -94v-365h-273v997h-192v197h192v164h273v-164h295v-197h-295v-215q90 99 262 99z
" />
    <glyph glyph-name="uni0453" unicode="&#x453;" horiz-adv-x="819" 
d="M930 1411l-342 -346h-266l247 346h361zM770 924v-217h-354v-707h-273v924h627z" />
    <glyph glyph-name="uni0454" unicode="&#x454;" horiz-adv-x="931" 
d="M604 201q133 0 236 71v-233q-35 -22 -110.5 -39.5t-156.5 -17.5q-77 0 -148 16.5t-136 53t-113 89.5t-76 131.5t-28 173.5q0 223 135.5 359.5t357.5 136.5q160 0 264 -51v-232q-111 66 -235 66q-95 0 -161 -42.5t-87 -121.5h326v-190h-330q19 -84 87 -127t175 -43z" />
    <glyph glyph-name="uni0455" unicode="&#x455;" horiz-adv-x="796" 
d="M373 -18q-80 0 -155 15.5t-118 37.5v215q41 -24 113 -48t141 -24q60 0 90.5 24.5t30.5 65.5q0 33 -20.5 56t-53.5 37.5t-72.5 28.5t-79.5 34.5t-73 48.5t-53.5 77t-20.5 114q0 140 90.5 209t247.5 69q74 0 134.5 -13t87.5 -28v-213q-114 60 -203 60q-51 0 -77 -20.5
t-26 -53.5q0 -28 20.5 -47.5t53 -33t72 -26.5t79.5 -33.5t72.5 -49.5t53 -79t20.5 -116q0 -150 -96.5 -228.5t-257.5 -78.5z" />
    <glyph glyph-name="uni0456" unicode="&#x456;" horiz-adv-x="610" 
d="M332 1096q-66 0 -108 41.5t-42 107.5q0 63 44.5 106.5t105.5 43.5q63 0 105 -43t42 -109q0 -65 -41.5 -106t-105.5 -41zM195 0v711h-119v213h391v-924h-272z" />
    <glyph glyph-name="uni0457" unicode="&#x457;" horiz-adv-x="610" 
d="M121 1096q-67 0 -108.5 41.5t-41.5 107.5q0 64 44 107t106 43t104.5 -43.5t42.5 -108.5t-41.5 -106t-105.5 -41zM498 1096q-67 0 -108.5 41.5t-41.5 107.5q0 64 44 107t106 43t104.5 -43.5t42.5 -108.5t-41.5 -106t-105.5 -41zM195 0v711h-119v213h391v-924h-272z" />
    <glyph glyph-name="uni0458" unicode="&#x458;" horiz-adv-x="636" 
d="M358 1096q-66 0 -107.5 41.5t-41.5 107.5q0 64 44 107t105 43q63 0 105.5 -43t42.5 -109q0 -65 -42 -106t-106 -41zM55 -424q-106 0 -170 25v219q60 -25 133 -25q109 0 156 65.5t47 200.5v650h-119v213h392v-850q0 -140 -30.5 -238.5t-90.5 -154.5t-137.5 -80.5
t-180.5 -24.5z" />
    <glyph glyph-name="uni0459" unicode="&#x459;" horiz-adv-x="1624" 
d="M1141 662q420 0 420 -322q0 -79 -26 -140t-67.5 -98t-100.5 -60.5t-118.5 -32.5t-128.5 -9h-356v707h-256v-125q0 -146 -15.5 -251.5t-52.5 -186.5t-103 -121.5t-163 -40.5q-83 0 -129 22v219q27 -10 61 -10q42 0 71 27t44.5 82.5t22 126t6.5 169.5v306h786v-262h105z
M1100 193q184 0 184 141q0 135 -184 135h-64v-276h64z" />
    <glyph glyph-name="uni045A" unicode="&#x45a;" horiz-adv-x="1607" 
d="M1124 662q420 0 420 -322q0 -79 -26 -140t-67.5 -98t-100.5 -60.5t-118 -32.5t-128 -9h-356v356h-332v-356h-273v924h273v-351h332v351h272v-262h104zM1083 193q185 0 185 141q0 135 -183 135h-65v-276h63z" />
    <glyph glyph-name="uni045B" unicode="&#x45b;" horiz-adv-x="1169" 
d="M705 881q167 0 256.5 -94.5t89.5 -286.5v-500h-273v446q0 46 -5.5 80t-21 65t-46 47.5t-76.5 16.5q-45 0 -77.5 -15.5t-51 -40t-29 -64.5t-13.5 -78t-3 -92v-365h-273v997h-192v197h192v164h273v-164h295v-197h-295v-215q90 99 250 99z" />
    <glyph glyph-name="uni045C" unicode="&#x45c;" horiz-adv-x="1118" 
d="M1028 1411l-342 -346h-266l248 346h360zM1106 0h-344l-346 451v-451h-273v924h273v-432l329 432h340l-370 -447z" />
    <glyph glyph-name="uni045D" unicode="&#x45d;" horiz-adv-x="1124" 
d="M786 1065h-270l-340 346h363zM961 942h20v-942h-264v455l-553 -473h-21v942h265v-465z" />
    <glyph glyph-name="uni045E" unicode="&#x45e;" horiz-adv-x="1056" 
d="M526 1024q-178 0 -259 87.5t-81 234.5v26h213v-6q0 -176 127 -176q129 0 129 176v6h213v-26q0 -145 -83 -233.5t-259 -88.5zM178 -406l209 467l-375 863h299l217 -555l226 555h290l-571 -1330h-295z" />
    <glyph glyph-name="uni045F" unicode="&#x45f;" horiz-adv-x="1138" 
d="M995 924v-924h-301v-240h-252v240h-299v924h273v-707h307v707h272z" />
    <glyph glyph-name="uni0490" unicode="&#x490;" horiz-adv-x="1021" 
d="M981 1608v-512h-547v-1096h-280v1327h567v281h260z" />
    <glyph glyph-name="uni0491" unicode="&#x491;" horiz-adv-x="819" 
d="M770 1163v-456h-354v-707h-273v924h375v239h252z" />
    <glyph glyph-name="Wgrave" unicode="&#x1e80;" horiz-adv-x="2088" 
d="M956 1448l-342 346h363l248 -346h-269zM655 -18l-606 1345h311l314 -752l362 752h21l360 -752l320 752h303l-604 -1345h-21l-368 768l-371 -768h-21z" />
    <glyph glyph-name="wgrave" unicode="&#x1e81;" horiz-adv-x="1468" 
d="M639 1065l-340 346h363l247 -346h-270zM485 -18l-460 942h299l184 -435l219 435h21l219 -435l188 435h291l-455 -942h-20l-234 464l-231 -464h-21z" />
    <glyph glyph-name="Wacute" unicode="&#x1e82;" horiz-adv-x="2088" 
d="M907 1448l248 346h361l-342 -346h-267zM655 -18l-606 1345h311l314 -752l362 752h21l360 -752l320 752h303l-604 -1345h-21l-368 768l-371 -768h-21z" />
    <glyph glyph-name="wacute" unicode="&#x1e83;" horiz-adv-x="1468" 
d="M590 1065l248 346h360l-342 -346h-266zM485 -18l-460 942h299l184 -435l219 435h21l219 -435l188 435h291l-455 -942h-20l-234 464l-231 -464h-21z" />
    <glyph glyph-name="Wdieresis" unicode="&#x1e84;" horiz-adv-x="2088" 
d="M821 1464q-70 0 -114.5 45.5t-44.5 114.5t44.5 114.5t114.5 45.5t115 -45.5t45 -114.5t-45 -114.5t-115 -45.5zM1268 1464q-70 0 -116 45.5t-46 114.5t46 114.5t116 45.5t114.5 -45.5t44.5 -114.5t-44.5 -114.5t-114.5 -45.5zM655 -18l-606 1345h311l314 -752l362 752h21
l360 -752l320 752h303l-604 -1345h-21l-368 768l-371 -768h-21z" />
    <glyph glyph-name="wdieresis" unicode="&#x1e85;" horiz-adv-x="1468" 
d="M516 1096q-67 0 -108 41.5t-41 107.5q0 64 43.5 107t105.5 43t105 -43.5t43 -108.5t-42 -106t-106 -41zM961 1096q-67 0 -108.5 41.5t-41.5 107.5q0 64 44 107t106 43t103.5 -43t41.5 -109q0 -65 -41 -106t-104 -41zM485 -18l-460 942h299l184 -435l219 435h21l219 -435
l188 435h291l-455 -942h-20l-234 464l-231 -464h-21z" />
    <glyph glyph-name="uni1E9E" unicode="&#x1e9e;" horiz-adv-x="1415" 
d="M1042 805q130 -23 211.5 -119.5t81.5 -261.5q0 -118 -36.5 -205t-104 -138.5t-155.5 -76t-199 -24.5q-130 0 -246 34v240q103 -41 229 -41q224 0 224 207q0 97 -57 150t-154 53q-95 0 -160 -45l-19 16l240 506h-463v-1100h-280v1327h1122v-20z" />
    <glyph glyph-name="Ygrave" unicode="&#x1ef2;" horiz-adv-x="1302" 
d="M655 1448l-342 346h363l248 -346h-269zM508 0v526l-473 801h311l311 -557l310 557h301l-477 -801v-526h-283z" />
    <glyph glyph-name="ygrave" unicode="&#x1ef3;" horiz-adv-x="1056" 
d="M502 1065l-340 346h362l248 -346h-270zM178 -406l209 467l-375 863h299l217 -555l226 555h290l-571 -1330h-295z" />
    <glyph glyph-name="uni2002" unicode="&#x2002;" horiz-adv-x="980" 
 />
    <glyph glyph-name="uni2003" unicode="&#x2003;" horiz-adv-x="1630" 
 />
    <glyph glyph-name="uni2009" unicode="&#x2009;" horiz-adv-x="327" 
 />
    <glyph glyph-name="uni200A" unicode="&#x200a;" horiz-adv-x="102" 
 />
    <glyph glyph-name="endash" unicode="&#x2013;" horiz-adv-x="980" 
d="M72 389v217h839v-217h-839z" />
    <glyph glyph-name="emdash" unicode="&#x2014;" horiz-adv-x="1630" 
d="M72 389v217h1489v-217h-1489z" />
    <glyph glyph-name="quoteleft" unicode="&#x2018;" horiz-adv-x="587" 
d="M311 1053q72 -2 115 -44t43 -114q0 -76 -50 -124t-128 -48q-86 0 -138.5 56t-52.5 163q0 103 54.5 208t158.5 177h170q-73 -63 -115.5 -136.5t-56.5 -137.5z" />
    <glyph glyph-name="quoteright" unicode="&#x2019;" horiz-adv-x="587" 
d="M297 1339q86 0 138 -56t52 -163q0 -103 -54.5 -208t-158.5 -177h-170q73 63 115.5 137t56.5 138q-72 2 -114.5 43.5t-42.5 113.5q0 76 50 124t128 48z" />
    <glyph glyph-name="quotesinglbase" unicode="&#x201a;" horiz-adv-x="587" 
d="M297 291q86 0 138 -56t52 -163q0 -103 -54.5 -208t-158.5 -177h-170q73 63 115.5 136.5t56.5 137.5q-72 2 -114.5 43.5t-42.5 114.5q0 76 50 124t128 48z" />
    <glyph glyph-name="quotedblleft" unicode="&#x201c;" horiz-adv-x="1064" 
d="M487 1327q-73 -63 -115.5 -136.5t-56.5 -137.5q72 -2 115 -44t43 -114q0 -76 -50 -124t-128 -48q-86 0 -138.5 56t-52.5 163q0 103 54.5 208t158.5 177h170zM788 1053q72 -2 115 -44t43 -114q0 -76 -50 -124t-128 -48q-86 0 -138 56t-52 163q0 103 54.5 208t158.5 177
h170q-73 -64 -116 -137t-57 -137z" />
    <glyph glyph-name="quotedblright" unicode="&#x201d;" horiz-adv-x="1064" 
d="M299 1339q86 0 138 -56t52 -163q0 -103 -54.5 -208t-158.5 -177h-170q73 63 116 137t57 138q-72 2 -115 43.5t-43 113.5q0 76 50 124t128 48zM774 1339q86 0 138.5 -56t52.5 -163q0 -103 -54.5 -208t-158.5 -177h-170q73 63 115.5 137t56.5 138q-72 2 -115 43.5
t-43 113.5q0 76 50 124t128 48z" />
    <glyph glyph-name="quotedblbase" unicode="&#x201e;" horiz-adv-x="1062" 
d="M297 291q86 0 138 -56t52 -163q0 -103 -54.5 -208t-158.5 -177h-170q73 63 115.5 136.5t56.5 137.5q-72 2 -114.5 43.5t-42.5 114.5q0 76 50 124t128 48zM770 291q86 0 138.5 -56t52.5 -163q0 -103 -54.5 -208t-158.5 -177h-170q73 63 115.5 136.5t56.5 137.5
q-72 2 -115 44t-43 114q0 76 50 124t128 48z" />
    <glyph glyph-name="dagger" unicode="&#x2020;" horiz-adv-x="1198" 
d="M494 -406l-25 1117h-315v213h309l-8 403h288l-8 -403h312v-213h-318l-22 -1117h-213z" />
    <glyph glyph-name="daggerdbl" unicode="&#x2021;" horiz-adv-x="1198" 
d="M494 -406l-13 594h-307v213h301l-6 310h-315v213h309l-8 403h288l-8 -403h312v-213h-318l-6 -310h303v-213h-307l-12 -594h-213z" />
    <glyph glyph-name="bullet" unicode="&#x2022;" horiz-adv-x="907" 
d="M455 238q-103 0 -170.5 66.5t-67.5 170.5q0 100 70.5 167t167.5 67q102 0 167.5 -66.5t65.5 -169.5q0 -104 -65.5 -169.5t-167.5 -65.5z" />
    <glyph glyph-name="ellipsis" unicode="&#x2026;" horiz-adv-x="1544" 
d="M297 -18q-72 0 -118 46t-46 119q0 71 48.5 117.5t115.5 46.5q70 0 116 -46.5t46 -119.5q0 -72 -46.5 -117.5t-115.5 -45.5zM772 -18q-72 0 -117 46t-45 119q0 71 47.5 117.5t114.5 46.5q70 0 116 -46.5t46 -119.5q0 -72 -46.5 -117.5t-115.5 -45.5zM1249 -18
q-72 0 -118 46t-46 119q0 71 48.5 117.5t115.5 46.5q70 0 116 -46.5t46 -119.5q0 -72 -46.5 -117.5t-115.5 -45.5z" />
    <glyph glyph-name="perthousand" unicode="&#x2030;" horiz-adv-x="2783" 
d="M434 684q-151 0 -248.5 89t-97.5 243q0 150 101 241t245 91q142 0 244 -90t102 -240q0 -153 -99.5 -243.5t-246.5 -90.5zM459 0l737 1327h281l-738 -1327h-280zM434 862q64 0 107 42t43 114t-43 111.5t-107 39.5q-65 0 -107 -41.5t-42 -111.5q0 -71 42.5 -112.5
t106.5 -41.5zM1503 -20q-152 0 -250 89t-98 242q0 151 101 241.5t247 90.5q141 0 243.5 -90t102.5 -240q0 -152 -100 -242.5t-246 -90.5zM2349 -20q-151 0 -248.5 89t-97.5 242q0 151 101 241.5t245 90.5q142 0 244 -90t102 -240q0 -152 -100 -242.5t-246 -90.5zM1503 158
q64 0 107 41.5t43 113.5q0 73 -43 112.5t-107 39.5q-65 0 -108 -41t-43 -111q0 -71 43.5 -113t107.5 -42zM2349 158q64 0 107 41.5t43 113.5q0 73 -43 112.5t-107 39.5q-65 0 -107 -41t-42 -111q0 -71 42.5 -113t106.5 -42z" />
    <glyph glyph-name="guilsinglleft" unicode="&#x2039;" horiz-adv-x="802" 
d="M358 152l-286 321l286 322h312l-297 -322l297 -321h-312z" />
    <glyph glyph-name="guilsinglright" unicode="&#x203a;" horiz-adv-x="802" 
d="M133 152l297 323l-297 320h311l287 -322l-287 -321h-311z" />
    <glyph glyph-name="fraction" unicode="&#x2044;" horiz-adv-x="1017" 
d="M0 0l737 1327h281l-737 -1327h-281z" />
    <glyph glyph-name="Euro" unicode="&#x20ac;" horiz-adv-x="1241" 
d="M817 -20q-254 0 -419 106t-208 315h-174v193h152q-4 28 -4 70q0 35 4 63h-152v193h181q47 191 209.5 309.5t422.5 118.5q99 0 198 -17t144 -41v-254q-148 76 -323 76q-138 0 -231.5 -53.5t-129.5 -138.5h392v-193h-424q-4 -24 -4 -65q0 -44 4 -68h424v-193h-396
q20 -52 61.5 -89.5t94.5 -56.5t105.5 -27.5t109.5 -8.5q202 0 330 64v-248q-46 -21 -153.5 -38t-213.5 -17z" />
    <glyph glyph-name="uni20B4" unicode="&#x20b4;" horiz-adv-x="1122" 
d="M1032 741h-194q-49 -47 -187 -137h381v-182h-573q-15 -30 -15 -68q0 -145 209 -145q80 0 166.5 30.5t153.5 77.5v-262q-154 -75 -375 -75q-204 0 -322 86t-118 245q0 58 16 111h-82v182h205q21 19 48 39.5t45 33t52.5 35.5l46.5 31h-397v183l582 -2q10 30 10 59
q0 61 -52 98t-147 37q-69 0 -148 -26t-144 -64v260q51 23 142.5 41.5t205.5 18.5q205 0 316.5 -85t111.5 -237q0 -56 -15 -102h78v-183z" />
    <glyph glyph-name="uni20BD" unicode="&#x20bd;" horiz-adv-x="1325" 
d="M662 442h-99v-114h236v-201h-236v-127h-280v127h-170v201h170v114h-170v201h170v684h403q64 0 118 -4t114.5 -16t108 -31.5t92.5 -53.5t75 -79t48 -111t18 -147q0 -87 -22 -156.5t-56.5 -115t-87.5 -79t-102 -50.5t-114.5 -27t-111.5 -12.5t-104 -2.5zM971 883
q0 58 -21 100.5t-51 64.5t-77.5 35t-86 16t-90.5 3h-82v-445h80q42 0 74.5 2.5t73.5 10t70.5 23t55.5 39.5t40 62.5t14 88.5z" />
    <glyph glyph-name="uni2113" unicode="&#x2113;" horiz-adv-x="536" 
d="M133 0v1358h273v-1358h-273z" />
    <glyph glyph-name="uni2116" unicode="&#x2116;" horiz-adv-x="2295" 
d="M1274 -20l-846 782v-762h-274v1348h20l844 -783l2 762h274v-1347h-20zM1870 649q-158 0 -255 95t-97 249t99 253.5t259 99.5q157 0 252.5 -93.5t95.5 -251.5q0 -159 -99 -255.5t-255 -96.5zM1874 815q64 0 103.5 47.5t39.5 138.5q0 88 -40 134.5t-103 46.5
q-70 0 -110 -50.5t-40 -134.5q0 -89 41.5 -135.5t108.5 -46.5zM1565 401v166h612v-166h-612z" />
    <glyph glyph-name="trademark" unicode="&#x2122;" horiz-adv-x="1845" 
d="M1229 514l-213 363l-64 -351h-202l174 822h20l297 -500l297 500h21l172 -822h-203l-62 353l-217 -365h-20zM256 526v629h-213v172h629v-172h-209v-629h-207z" />
    <glyph glyph-name="uni2126" unicode="&#x2126;" horiz-adv-x="1609" 
d="M1489 692q0 -317 -229 -459h229v-233h-565v238q55 18 103 52.5t87.5 85t62.5 124.5t23 162q0 198 -111.5 314t-281.5 116q-172 0 -284.5 -116t-112.5 -314q0 -170 78.5 -277.5t197.5 -146.5v-238h-565v233h231q-231 145 -231 453q0 135 47 255t133.5 211t218.5 143.5
t291 52.5q206 0 361.5 -88t236 -236t80.5 -332z" />
    <glyph glyph-name="estimated" unicode="&#x212e;" horiz-adv-x="1812" 
d="M909 -20q-159 0 -304 55t-250.5 148t-167.5 222.5t-62 272.5t62 273t167.5 223.5t250.5 148.5t304 55q156 0 300 -55t249 -148.5t167.5 -223.5t62.5 -273v-16h-1264q-16 0 -16 -13v-383q0 -19 24 -43q91 -94 215.5 -147t263.5 -53q147 0 276.5 60.5t223.5 164.5h115
q-113 -124 -274 -196t-343 -72zM424 700h962q17 0 17 11v389q0 18 -27 45q-87 90 -209.5 141t-255.5 51q-139 0 -262 -52t-217 -146q-24 -24 -24 -49v-379q0 -11 16 -11z" />
    <glyph glyph-name="arrowleft" unicode="&#x2190;" horiz-adv-x="1757" 
d="M750 72l-609 604l609 604h348l-475 -475h993v-256h-993l475 -477h-348z" />
    <glyph glyph-name="arrowup" unicode="&#x2191;" horiz-adv-x="1320" 
d="M520 0v907l-379 -383v303l518 521l521 -521v-303l-379 383v-907h-281z" />
    <glyph glyph-name="arrowright" unicode="&#x2192;" horiz-adv-x="1757" 
d="M659 72l476 477h-994v256h994l-476 475h349l608 -604l-608 -604h-349z" />
    <glyph glyph-name="arrowdown" unicode="&#x2193;" horiz-adv-x="1320" 
d="M659 -20l-518 520v303l379 -383v907h281v-907l379 383v-303z" />
    <glyph glyph-name="partialdiff" unicode="&#x2202;" horiz-adv-x="1198" 
d="M586 -18q-235 0 -374.5 132t-139.5 347q0 135 55 243.5t163 173t253 64.5q195 0 291 -119q-20 178 -102.5 259t-244.5 81q-62 0 -125.5 -11t-95.5 -24v230q87 31 238 31q105 0 191 -18t168.5 -67.5t138.5 -128.5t90 -209.5t34 -303.5q0 -323 -135.5 -501.5t-404.5 -178.5
zM592 209q109 0 170 73t61 183q0 111 -64 181.5t-169 70.5q-109 0 -173.5 -73.5t-64.5 -182.5q0 -114 67 -183t173 -69z" />
    <glyph glyph-name="uni2206" unicode="&#x2206;" horiz-adv-x="1308" 
d="M33 0l612 1348h21l610 -1348h-1243zM414 233h473l-236 558z" />
    <glyph glyph-name="product" unicode="&#x220f;" horiz-adv-x="1693" 
d="M330 -406v1502h-230v231h1493v-231h-229v-1502h-281v1502h-473v-1502h-280z" />
    <glyph glyph-name="summation" unicode="&#x2211;" horiz-adv-x="1165" 
d="M74 0v20l501 650l-495 637v20h987v-231h-492l330 -426l-336 -437h518v-233h-1013z" />
    <glyph glyph-name="minus" unicode="&#x2212;" 
d="M172 356v213h891v-213h-891z" />
    <glyph glyph-name="radical" unicode="&#x221a;" horiz-adv-x="1245" 
d="M494 0l-179 430h-215v213h408l121 -307l344 991h278l-487 -1327h-270z" />
    <glyph glyph-name="infinity" unicode="&#x221e;" horiz-adv-x="1392" 
d="M383 346q-137 0 -224 82t-87 236t87.5 235.5t219.5 81.5q87 0 172.5 -43t144.5 -135q59 94 145.5 136t170.5 42q133 0 221 -81.5t88 -235.5t-88 -236t-223 -82q-86 0 -171 41.5t-143 132.5q-59 -90 -142.5 -132t-170.5 -42zM414 553q92 0 166 109q-78 114 -170 114
q-46 0 -77.5 -30t-31.5 -82q0 -53 33 -82t80 -29zM981 551q46 0 78.5 30t32.5 83q0 52 -30.5 81t-78.5 29q-95 0 -170 -112q74 -111 168 -111z" />
    <glyph glyph-name="integral" unicode="&#x222b;" horiz-adv-x="854" 
d="M215 -424q-105 0 -176 27v217q68 -25 137 -25q86 0 122 57.5t36 190.5v897q0 202 98.5 305t308.5 103q85 0 152 -23v-223q-69 22 -123 22q-93 0 -128.5 -51t-35.5 -145v-848q0 -66 -4 -119t-15 -107t-29.5 -94t-48.5 -76t-70.5 -59t-97 -36t-126.5 -13z" />
    <glyph glyph-name="approxequal" unicode="&#x2248;" 
d="M778 510q-64 0 -127.5 24.5t-114 49t-83.5 24.5q-41 0 -59.5 -25.5t-20.5 -58.5h-201q2 133 74.5 211t206.5 78q69 0 127.5 -24.5t106 -49t89.5 -24.5t63 27t23 57h201q-2 -133 -77.5 -211t-207.5 -78zM778 113q-64 0 -127.5 24.5t-114 49t-83.5 24.5q-41 0 -59.5 -25.5
t-20.5 -58.5h-201q2 133 74.5 211t206.5 78q55 0 104 -15.5t79.5 -34t68 -34t71.5 -15.5q42 0 63 27t23 57h201q-2 -133 -77.5 -210.5t-207.5 -77.5z" />
    <glyph glyph-name="notequal" unicode="&#x2260;" 
d="M287 0l84 172h-199v211h295l78 160h-373v213h469l86 168h221l-86 -168h201v-213h-299l-78 -160h377v-211h-473l-82 -172h-221z" />
    <glyph glyph-name="lessequal" unicode="&#x2264;" 
d="M1063 356l-889 461v21l889 460v-256l-442 -208l442 -211v-267zM174 0v213h891v-213h-891z" />
    <glyph glyph-name="greaterequal" unicode="&#x2265;" 
d="M174 356v256l440 209l-440 211v266l889 -460v-21zM174 0v213h891v-213h-891z" />
    <glyph glyph-name="dotmath" unicode="&#x22c5;" horiz-adv-x="706" 
d="M354 311q-72 0 -118 46.5t-46 119.5q0 70 48 116t116 46q70 0 116 -45.5t46 -118.5t-46.5 -118.5t-115.5 -45.5z" />
    <glyph glyph-name="lozenge" unicode="&#x25ca;" horiz-adv-x="1136" 
d="M557 -20l-506 671l506 697h21l507 -697l-507 -671h-21zM567 340l242 311l-242 336l-239 -336z" />
    <glyph glyph-name="uniF8FF" unicode="&#xf8ff;" horiz-adv-x="1118" 
d="M231 1206q-26 0 -43.5 18t-17.5 46q0 25 17.5 43t43.5 18q25 0 44.5 -18.5t19.5 -42.5q0 -27 -19.5 -45.5t-44.5 -18.5zM367 1206q-25 0 -43.5 18.5t-18.5 45.5q0 25 18.5 43t43.5 18q26 0 43.5 -18t17.5 -43q0 -28 -17.5 -46t-43.5 -18zM500 1206q-25 0 -44.5 18.5
t-19.5 45.5q0 24 19.5 42.5t44.5 18.5q26 0 43.5 -18t17.5 -43q0 -28 -17.5 -46t-43.5 -18zM635 1206q-26 0 -44 18t-18 46q0 25 18 43t44 18q25 0 44 -18t19 -43q0 -27 -19 -45.5t-44 -18.5zM770 1206q-28 0 -45.5 18t-17.5 46q0 25 18 43t45 18q24 0 42.5 -18.5
t18.5 -42.5q0 -27 -18.5 -45.5t-42.5 -18.5zM903 1206q-25 0 -44 18.5t-19 45.5q0 25 19 43t44 18q26 0 44 -18t18 -43q0 -28 -18 -46t-44 -18zM231 1073q-26 0 -43.5 18t-17.5 44q0 25 17.5 43t43.5 18q25 0 44.5 -18.5t19.5 -42.5q0 -26 -19.5 -44t-44.5 -18zM231 938
q-26 0 -43.5 18.5t-17.5 44.5q0 25 17.5 42.5t43.5 17.5q25 0 44.5 -18t19.5 -42q0 -26 -19.5 -44.5t-44.5 -18.5zM500 938q-25 0 -44.5 18.5t-19.5 44.5q0 24 19.5 42t44.5 18q26 0 43.5 -17.5t17.5 -42.5q0 -26 -17.5 -44.5t-43.5 -18.5zM635 938q-26 0 -44 18.5t-18 44.5
q0 25 18 42.5t44 17.5q25 0 44 -18t19 -42q0 -26 -19 -44.5t-44 -18.5zM770 938q-27 0 -45 18t-18 45q0 25 18 42.5t45 17.5q24 0 42.5 -18t18.5 -42q0 -26 -18.5 -44.5t-42.5 -18.5zM903 938q-25 0 -44 18.5t-19 44.5q0 24 19 42t44 18q26 0 44 -17.5t18 -42.5
q0 -26 -18 -44.5t-44 -18.5zM231 807q-26 0 -43.5 16.5t-17.5 42.5t17.5 44t43.5 18q25 0 44.5 -18t19.5 -44q0 -25 -19 -42t-45 -17zM500 807q-26 0 -45 17t-19 42q0 26 19.5 44t44.5 18q26 0 43.5 -18t17.5 -44t-17.5 -42.5t-43.5 -16.5zM231 670q-26 0 -43.5 17.5
t-17.5 43.5q0 27 17.5 45.5t43.5 18.5q25 0 44.5 -19t19.5 -45t-19.5 -43.5t-44.5 -17.5zM500 670q-25 0 -44.5 17.5t-19.5 43.5t19.5 45t44.5 19q26 0 43.5 -18.5t17.5 -45.5q0 -26 -17.5 -43.5t-43.5 -17.5zM635 670q-26 0 -44 17.5t-18 43.5t18 45t44 19q25 0 44 -19
t19 -45t-19 -43.5t-44 -17.5zM770 670q-28 0 -45.5 17.5t-17.5 43.5q0 27 18 45.5t45 18.5q24 0 42.5 -19t18.5 -45t-18.5 -43.5t-42.5 -17.5zM903 670q-25 0 -44 17.5t-19 43.5t19 45t44 19q26 0 44 -19t18 -45t-18 -43.5t-44 -17.5zM231 537q-26 0 -43.5 17.5t-17.5 43.5
q0 25 17.5 43t43.5 18q25 0 44.5 -18.5t19.5 -42.5q0 -26 -19.5 -43.5t-44.5 -17.5zM903 537q-25 0 -44 17.5t-19 43.5q0 25 19 43t44 18q26 0 44 -18t18 -43q0 -26 -18 -43.5t-44 -17.5zM231 403q-26 0 -43.5 18t-17.5 44q0 25 17.5 42t43.5 17q25 0 44.5 -17.5t19.5 -41.5
q0 -26 -19.5 -44t-44.5 -18zM500 403q-25 0 -44.5 18t-19.5 44q0 24 19.5 41.5t44.5 17.5q26 0 43.5 -17t17.5 -42q0 -26 -17.5 -44t-43.5 -18zM635 403q-26 0 -44 18t-18 44q0 25 18 42t44 17q25 0 44 -17.5t19 -41.5q0 -26 -19 -44t-44 -18zM770 403q-28 0 -45.5 17.5
t-17.5 44.5q0 25 18 42t45 17q24 0 42.5 -17.5t18.5 -41.5q0 -26 -18.5 -44t-42.5 -18zM903 403q-25 0 -44 18t-19 44q0 24 19 41.5t44 17.5q26 0 44 -17t18 -42q0 -26 -18 -44t-44 -18zM231 266q-26 0 -43.5 18.5t-17.5 45.5q0 26 17.5 43.5t43.5 17.5q25 0 44.5 -17.5
t19.5 -43.5t-19.5 -45t-44.5 -19zM231 133q-26 0 -43.5 18t-17.5 44q0 27 17 44t44 17q26 0 45 -17t19 -44q0 -26 -19.5 -44t-44.5 -18zM500 133q-25 0 -44.5 18t-19.5 44q0 27 19 44t45 17q27 0 44 -17t17 -44q0 -26 -17.5 -44t-43.5 -18zM231 0q-26 0 -43.5 17.5
t-17.5 43.5q0 25 17.5 44.5t43.5 19.5q25 0 44.5 -19.5t19.5 -44.5q0 -26 -19.5 -43.5t-44.5 -17.5zM367 0q-25 0 -43.5 17.5t-18.5 43.5q0 25 18.5 44.5t43.5 19.5q26 0 43.5 -19.5t17.5 -44.5q0 -26 -17.5 -43.5t-43.5 -17.5zM500 0q-25 0 -44.5 17.5t-19.5 43.5
q0 25 19.5 44.5t44.5 19.5q26 0 43.5 -19.5t17.5 -44.5q0 -26 -17.5 -43.5t-43.5 -17.5z" />
    <glyph glyph-name="Cacute.loclPLK" horiz-adv-x="1300" 
d="M657 1448l166 346h320l-232 -346h-254zM797 -20q-165 0 -299 52.5t-221.5 145t-135 216.5t-47.5 268q0 198 85.5 354t244.5 244t367 88q118 0 215.5 -26.5t156.5 -64.5v-276q-163 111 -358 111q-187 0 -304.5 -118.5t-117.5 -307.5q0 -199 121.5 -313.5t312.5 -114.5
q205 0 367 110v-280q-55 -36 -159 -62t-228 -26z" />
    <glyph glyph-name="Iacute_J.loclNLD" horiz-adv-x="1560" 
d="M154 1448l247 346h361l-342 -346h-266zM838 1448l247 346h361l-342 -346h-266zM154 0v1327h280v-1327h-280zM963 -20q-84 0 -157.5 14.5t-111.5 34.5v252q83 -58 213 -58q46 0 81 8.5t59 22t41 37.5t26 47t14 58.5t6 63.5t1 70v568h-304v229h586v-864q0 -483 -454 -483z
" />
    <glyph glyph-name="Nacute.loclPLK" horiz-adv-x="1445" 
d="M592 1448l166 346h319l-231 -346h-254zM1274 -20l-846 782v-762h-274v1348h20l844 -783l2 762h274v-1347h-20z" />
    <glyph glyph-name="Oacute.loclPLK" horiz-adv-x="1560" 
d="M653 1448l166 346h320l-232 -346h-254zM776 -20q-205 0 -361 88t-238.5 243t-82.5 353q0 200 84.5 355t242 242t365.5 87q205 0 360 -86.5t237.5 -240.5t82.5 -353q0 -197 -83.5 -353t-241.5 -245.5t-365 -89.5zM784 238q170 0 282 116t112 310q0 195 -114.5 311.5
t-283.5 116.5q-171 0 -284 -116t-113 -308q0 -196 114 -313t287 -117z" />
    <glyph glyph-name="Sacute.loclPLK" horiz-adv-x="1024" 
d="M430 1448l166 346h319l-231 -346h-254zM479 -20q-193 0 -360 79v275q72 -50 164.5 -82.5t187.5 -32.5q89 0 135.5 35.5t46.5 99.5q0 48 -29 84.5t-75 62t-102 51t-112 59t-102 76.5t-75 114t-29 162q0 179 114.5 282t319.5 103q95 0 182 -20t132 -44v-272q-66 42 -145 70
t-150 28q-81 0 -124.5 -36t-43.5 -99q0 -46 29 -81.5t75.5 -60t103 -49t113 -57t103 -75.5t75.5 -113.5t29 -161.5q0 -191 -120 -294t-343 -103z" />
    <glyph glyph-name="Zacute.loclPLK" horiz-adv-x="1220" 
d="M477 1448l166 346h320l-232 -346h-254zM74 0v20l631 1076h-586v231h1028v-20l-627 -1074h623v-233h-1069z" />
    <glyph glyph-name="cacute.loclPLK" horiz-adv-x="911" 
d="M418 1065l166 346h321l-231 -346h-256zM567 -18q-76 0 -146.5 16.5t-134.5 53t-111 89.5t-75 131.5t-28 173.5q0 223 137.5 359.5t363.5 136.5q146 0 246 -51v-240q-100 66 -213 66q-110 0 -182 -68t-72 -192q0 -120 68 -184t182 -64q123 0 227 72v-242
q-37 -22 -110 -39.5t-152 -17.5z" />
    <glyph glyph-name="iacute_j.loclNLD" horiz-adv-x="1122" 
d="M59 1065l248 346h361l-342 -346h-267zM616 1065l248 346h361l-342 -346h-267zM160 0v711h-119v213h391v-924h-272zM555 -424q-106 0 -170 25v219q60 -25 133 -25q109 0 156 65.5t47 200.5v650h-119v213h391v-850q0 -140 -30.5 -238.5t-90 -154.5t-137 -80.5t-180.5 -24.5
z" />
    <glyph glyph-name="i.loclTRK" horiz-adv-x="565" 
d="M293 1096q-67 0 -108.5 41.5t-41.5 107.5q0 64 44 107t106 43t104.5 -43.5t42.5 -108.5t-41.5 -106t-105.5 -41zM160 0v711h-119v213h391v-924h-272z" />
    <glyph glyph-name="nacute.loclPLK" horiz-adv-x="1118" 
d="M446 1065l166 346h322l-232 -346h-256zM133 0v924h248l6 -103q82 121 266 121q167 0 256.5 -94.5t89.5 -286.5v-561h-272v508q0 47 -5.5 80.5t-21 65t-47 47.5t-78.5 16q-45 0 -76.5 -16t-49.5 -40t-28 -65t-12.5 -78.5t-2.5 -91.5v-426h-273z" />
    <glyph glyph-name="oacute.loclPLK" horiz-adv-x="1167" 
d="M426 1065l166 346h321l-231 -346h-256zM580 -18q-231 0 -369.5 131t-138.5 344q0 214 141 349.5t377 135.5q230 0 368 -126t138 -345q0 -221 -143 -355t-373 -134zM584 211q105 0 167 71.5t62 184.5q0 110 -63 179t-166 69q-108 0 -170 -75t-62 -177q0 -109 64.5 -180.5
t167.5 -71.5z" />
    <glyph glyph-name="sacute.loclPLK" horiz-adv-x="796" 
d="M279 1065l165 346h322l-231 -346h-256zM373 -18q-80 0 -155 15.5t-118 37.5v215q41 -24 113 -48t141 -24q60 0 90.5 24.5t30.5 65.5q0 33 -20.5 56t-53.5 37.5t-72.5 28.5t-79.5 34.5t-73 48.5t-53.5 77t-20.5 114q0 140 90.5 209t247.5 69q74 0 134.5 -13t87.5 -28v-213
q-114 60 -203 60q-51 0 -77 -20.5t-26 -53.5q0 -28 20.5 -47.5t53 -33t72 -26.5t79.5 -33.5t72.5 -49.5t53 -79t20.5 -116q0 -150 -96.5 -228.5t-257.5 -78.5z" />
    <glyph glyph-name="germandbls.calt" horiz-adv-x="1415" 
d="M1042 805q130 -23 211.5 -119.5t81.5 -261.5q0 -118 -36.5 -205t-104 -138.5t-155.5 -76t-199 -24.5q-130 0 -246 34v240q103 -41 229 -41q224 0 224 207q0 97 -57 150t-154 53q-95 0 -160 -45l-19 16l240 506h-463v-1100h-280v1327h1122v-20z" />
    <glyph glyph-name="zacute.loclPLK" horiz-adv-x="954" 
d="M322 1065l165 346h322l-231 -346h-256zM51 0v20l428 691h-393v213h817v-21l-426 -688h434v-215h-860z" />
    <glyph glyph-name="uni0414.loclBGR" horiz-adv-x="1517" 
d="M1294 233h154v-514h-262v283h-854v-283h-260v514h151l527 1115h20zM758 817l-258 -584h510z" />
    <glyph glyph-name="uni041B.loclBGR" horiz-adv-x="1292" 
d="M1257 0h-301l-313 784l-317 -784h-291l602 1348h20z" />
    <glyph glyph-name="uni0424.loclBGR" horiz-adv-x="1708" 
d="M1614 664q0 -181 -81.5 -319t-221.5 -213t-320 -87v-123h-274v123q-286 17 -454.5 183t-168.5 436q0 274 170 437t453 181v123h274v-123q282 -19 452.5 -184.5t170.5 -433.5zM379 668q0 -166 96 -268.5t244 -116.5v761q-155 -15 -247.5 -115t-92.5 -261zM989 283
q150 15 246 116.5t96 259.5q0 165 -98 267t-244 118v-761z" />
    <glyph glyph-name="uni0431.loclSRB" horiz-adv-x="1167" 
d="M694 928q207 -66 304.5 -178.5t97.5 -288.5q0 -217 -143 -348t-373 -131q-231 0 -369.5 128t-138.5 334q0 141 70.5 244t199.5 150q-92 38 -138 95.5t-46 145.5q0 74 27.5 128.5t78 87t117 48t149.5 15.5h277q111 0 182 22v-213q-56 -22 -203 -22h-241q-56 0 -81.5 -17
t-25.5 -55q0 -43 39 -66.5t139 -54.5zM584 211q105 0 167 68.5t62 175.5q0 106 -62.5 172.5t-166.5 66.5q-108 0 -170 -72t-62 -171q0 -103 64.5 -171.5t167.5 -68.5z" />
    <glyph glyph-name="uni0432.loclBGR" horiz-adv-x="1124" 
d="M788 723q120 -21 189.5 -112.5t69.5 -219.5q0 -195 -130.5 -302t-347.5 -107q-240 0 -353.5 116.5t-113.5 372.5v371q0 285 115.5 417t360.5 132q185 0 296 -97.5t111 -271.5q0 -111 -54.5 -191t-142.5 -108zM545 1178q-88 0 -129 -61.5t-41 -192.5v-127h92q121 0 178 49
t57 160q0 86 -42 129t-115 43zM580 195q89 0 136.5 48t47.5 136q0 111 -60 160t-188 49h-141v-135q0 -131 54 -194.5t151 -63.5z" />
    <glyph glyph-name="uni0433.loclBGR" horiz-adv-x="860" 
d="M438 -18q-161 0 -251.5 67t-90.5 207q0 84 41 143.5t99 90t116 54t99 52.5t41 68q0 73 -107 73q-104 0 -238 -63v223q31 16 110 30.5t171 14.5q340 0 340 -268q0 -64 -22 -113t-56.5 -77.5t-77 -49.5t-84.5 -36t-76.5 -31t-56.5 -40.5t-22 -58.5q0 -39 26.5 -61.5
t79.5 -22.5q72 0 142 28t116 58v-221q-44 -27 -129 -47t-170 -20z" />
    <glyph glyph-name="uni0434.loclBGR" horiz-adv-x="1210" 
d="M565 -426q-196 0 -297 43v229q129 -47 264 -47q137 0 205 71t68 218v18q-44 -47 -116.5 -76.5t-164.5 -29.5q-208 0 -330 130t-122 335q0 215 131.5 346t326.5 131q95 0 172 -31t123 -88l4 101h248v-832q0 -149 -36 -252.5t-106 -160.5t-159.5 -81t-210.5 -24zM578 227
q96 0 160.5 65t64.5 179q0 111 -59 178.5t-162 67.5q-101 0 -165.5 -67t-64.5 -181q0 -113 63.5 -177.5t162.5 -64.5z" />
    <glyph glyph-name="uni0436.loclBGR" horiz-adv-x="1628" 
d="M1616 0h-336l-332 481v-481h-268v481l-332 -481h-336l369 496l-350 428h315l334 -416v850h268v-850l334 416h315l-350 -428z" />
    <glyph glyph-name="uni0437.loclBGR" horiz-adv-x="888" 
d="M639 295q90 -35 149.5 -114.5t59.5 -205.5q0 -202 -130 -301.5t-370 -99.5q-87 0 -166 17t-121 42v238q116 -70 279 -70q225 0 225 176q0 96 -58.5 139.5t-172.5 43.5h-103v215h74q114 0 173 40t59 138q0 77 -47.5 120.5t-143.5 43.5q-70 0 -143 -22.5t-121 -51.5v229
q154 70 342 70q64 0 120 -11t107.5 -37t88 -65t58 -99t21.5 -136q0 -103 -50.5 -183.5t-129.5 -115.5z" />
    <glyph glyph-name="uni0438.loclBGR" horiz-adv-x="1130" 
d="M717 924h272v-924h-250l-4 102q-85 -120 -264 -120q-165 0 -253.5 94t-88.5 286v562h272v-508q0 -46 6 -80t21 -65t45.5 -47.5t75.5 -16.5q54 0 89 22t51.5 66t22 89.5t5.5 113.5v426z" />
    <glyph glyph-name="uni0439.loclBGR" horiz-adv-x="1130" 
d="M559 1024q-178 0 -259 87.5t-81 234.5v26h213v-6q0 -176 127 -176q129 0 129 176v6h213v-26q0 -145 -83 -233.5t-259 -88.5zM717 924h272v-924h-250l-4 102q-85 -120 -264 -120q-165 0 -253.5 94t-88.5 286v562h272v-508q0 -46 6 -80t21 -65t45.5 -47.5t75.5 -16.5
q54 0 89 22t51.5 66t22 89.5t5.5 113.5v426z" />
    <glyph glyph-name="uni045D.loclBGR" horiz-adv-x="1130" 
d="M698 1065h-270l-340 346h363zM717 924h272v-924h-250l-4 102q-85 -120 -264 -120q-165 0 -253.5 94t-88.5 286v562h272v-508q0 -46 6 -80t21 -65t45.5 -47.5t75.5 -16.5q54 0 89 22t51.5 66t22 89.5t5.5 113.5v426z" />
    <glyph glyph-name="uni043A.loclBGR" horiz-adv-x="1118" 
d="M143 0v1358h273v-846l329 412h342l-370 -426l389 -498h-342l-348 471v-471h-273z" />
    <glyph glyph-name="uni043B.loclBGR" horiz-adv-x="1044" 
d="M1034 0h-299l-215 469l-221 -469h-289l500 942h20z" />
    <glyph glyph-name="uni043F.loclBGR" horiz-adv-x="1138" 
d="M143 0v924h248l6 -103q82 121 267 121q167 0 256.5 -94.5t89.5 -286.5v-561h-273v508q0 37 -3 65t-12.5 56.5t-25.5 46.5t-44 29.5t-66 11.5q-45 0 -77 -16t-49.5 -40.5t-27.5 -65t-13 -78t-3 -91.5v-426h-273z" />
    <glyph glyph-name="uni0442.loclBGR" horiz-adv-x="1687" 
d="M143 0v924h248l6 -105q37 54 103.5 88.5t146.5 34.5q90 0 161 -35t112 -100q49 71 128 103t154 32q178 0 267.5 -100.5t89.5 -294.5v-547h-273v518q0 34 -2 58.5t-10 52.5t-22.5 46t-40.5 30t-62 12q-42 0 -72 -15.5t-47 -40t-27 -64.5t-13 -80t-3 -95v-422h-272v518
q0 34 -2 58.5t-10 52.5t-22.5 46t-40.5 30t-62 12q-42 0 -72 -15.5t-47 -40t-27 -64.5t-13 -80t-3 -95v-422h-273z" />
    <glyph glyph-name="uni0446.loclBGR" horiz-adv-x="1202" 
d="M1096 201q33 0 57 8v-449h-252v238h-4q-123 0 -154 115q-86 -131 -282 -131q-158 0 -245 94t-87 286v562h272v-508q0 -46 6 -80t21 -65t45.5 -47.5t75.5 -16.5q54 0 89 22t51.5 66t22 89.5t5.5 113.5v426h272v-588q0 -76 22 -105.5t85 -29.5z" />
    <glyph glyph-name="uni0448.loclBGR" horiz-adv-x="1671" 
d="M1255 924h273v-924h-248l-6 104q-36 -53 -101 -87.5t-145 -34.5q-87 0 -156.5 35.5t-111.5 99.5q-49 -71 -126.5 -103t-152.5 -32q-352 0 -352 397v545h272v-518q0 -42 4.5 -72.5t17 -62t41 -48t71.5 -16.5q50 0 82.5 21.5t48 65t21 91t5.5 117.5v422h273v-518
q0 -33 2 -58t10 -53t22 -46t39 -30t60 -12q50 0 82.5 21.5t48 65t21 91t5.5 117.5v422z" />
    <glyph glyph-name="uni0449.loclBGR" horiz-adv-x="1742" 
d="M1634 201q34 0 58 8v-449h-252v238h-4q-125 0 -156 117q-35 -57 -103.5 -95t-158.5 -38q-176 0 -258 135q-48 -71 -126 -103t-153 -32q-352 0 -352 397v545h272v-518q0 -42 4.5 -72.5t17 -62t41 -48t71.5 -16.5q50 0 82.5 21.5t48 65t21 91t5.5 117.5v422h273v-518
q0 -33 2 -58t10 -53t22 -46t39 -30t60 -12q50 0 82.5 21.5t48 65t21 91t5.5 117.5v422h273v-588q0 -75 22 -105t84 -30z" />
    <glyph glyph-name="uni044C.loclBGR" horiz-adv-x="1085" 
d="M649 748q167 0 267 -105.5t100 -271.5q0 -178 -121 -283.5t-324 -105.5q-452 0 -452 481v461h272v-269q84 93 258 93zM573 190q76 0 123 51t47 128q0 76 -47.5 124t-122.5 48q-81 0 -126.5 -49.5t-45.5 -122.5q0 -80 47 -129.5t125 -49.5z" />
    <glyph glyph-name="uni044A.loclBGR" horiz-adv-x="1261" 
d="M823 748q167 0 267 -105.5t100 -271.5q0 -178 -120.5 -283.5t-324.5 -105.5q-450 0 -450 481v248h-254v213h526v-269q84 93 256 93zM748 190q77 0 123.5 50.5t46.5 128.5q0 77 -47 124.5t-123 47.5q-80 0 -126.5 -50t-46.5 -122q0 -79 48 -129t125 -50z" />
    <glyph glyph-name="xi.ss02" horiz-adv-x="874" 
d="M590 201q150 -40 211 -96t61 -154q0 -107 -100 -232h-238q66 95 66 154q0 48 -35 74.5t-139 50.5q-167 39 -250.5 125t-83.5 252q0 122 73 210.5t201 112.5q-78 25 -125 88.5t-47 149.5q0 72 30.5 126.5t84.5 82.5h-223v213h747v-213h-127q-124 0 -183.5 -41t-59.5 -135
q0 -85 56.5 -134t160.5 -49h71v-211h-106q-273 0 -273 -176q0 -80 52 -123t176 -75z" />
    <glyph glyph-name="zero.tf" 
d="M616 -20q-162 0 -283 92t-182 246.5t-61 347.5q0 140 36 263.5t101.5 216.5t166 147.5t222.5 54.5t223 -54.5t167.5 -147.5t102.5 -216.5t36 -263.5q0 -191 -62.5 -345.5t-184 -247.5t-282.5 -93zM616 223q116 0 179 117t63 326q0 208 -62.5 325t-179.5 117
q-114 0 -176.5 -116t-62.5 -326q0 -208 63 -325.5t176 -117.5z" />
    <glyph glyph-name="one.tf" 
d="M559 0v1004l-289 -136v236l545 244h21v-1348h-277z" />
    <glyph glyph-name="two.tf" 
d="M166 0v20l407 535q89 116 129.5 197t40.5 159q0 93 -54.5 145t-147.5 52t-179 -44.5t-135 -88.5v268q146 105 351 105q218 0 335 -114t117 -310q0 -120 -48 -215.5t-187 -276.5l-154 -199h412v-233h-887z" />
    <glyph glyph-name="three.tf" 
d="M758 795q35 -2 73 -13t82.5 -38.5t79 -67.5t57.5 -106.5t23 -149.5q0 -215 -139.5 -327.5t-368.5 -112.5q-109 0 -206.5 23.5t-147.5 55.5v269q160 -107 328 -107q112 0 179.5 48t67.5 157q0 97 -57.5 152t-169.5 55q-115 0 -199 -64l-18 17l295 510h-414v231h830v-20z
" />
    <glyph glyph-name="four.tf" 
d="M672 0v211h-649v20l886 1117h21v-932h182v-205h-182v-211h-258zM438 416h234v295z" />
    <glyph glyph-name="five.tf" 
d="M539 -20q-223 0 -351 79v269q52 -43 137 -75t183 -32q123 0 187.5 53.5t64.5 159.5q0 102 -67 151.5t-173 49.5q-155 0 -264 -113l-20 6l106 799h629v-231h-398l-34 -267q47 23 118 23q171 0 280.5 -105.5t109.5 -304.5q0 -235 -132.5 -348.5t-375.5 -113.5z" />
    <glyph glyph-name="six.tf" 
d="M690 874q80 0 152 -25.5t131.5 -75t95 -134t35.5 -193.5q0 -209 -132 -337.5t-356 -128.5q-227 0 -363 138.5t-136 377.5q0 247 141.5 482.5t345.5 348.5h404q-169 -93 -334 -245t-223 -287q86 79 239 79zM614 219q90 0 149.5 58.5t59.5 156.5t-59.5 153.5t-149.5 55.5
q-89 0 -150 -56t-61 -153q0 -96 60.5 -155.5t150.5 -59.5z" />
    <glyph glyph-name="seven.tf" 
d="M352 0q20 257 121.5 573t245.5 521h-526v233h993v-20q-113 -112 -227.5 -318.5t-202 -475t-107.5 -513.5h-297z" />
    <glyph glyph-name="eight.tf" 
d="M616 -20q-210 0 -335 109t-125 296q0 107 48 190t132 123q-64 27 -106 98.5t-42 166.5q0 175 121 280t307 105q118 0 214.5 -45t155 -133.5t58.5 -204.5q0 -93 -40.5 -164t-106.5 -99q180 -78 180 -307q0 -193 -125 -304t-336 -111zM616 805q62 0 108 42.5t46 113.5
q0 70 -45.5 110.5t-108.5 40.5q-61 0 -107 -42.5t-46 -111.5q0 -70 45 -111.5t108 -41.5zM614 219q76 0 129.5 47t53.5 129q0 81 -53.5 129.5t-127.5 48.5t-127 -48.5t-53 -131.5t50.5 -128.5t127.5 -45.5z" />
    <glyph glyph-name="nine.tf" 
d="M602 1348q236 0 369 -133.5t133 -393.5q0 -238 -120 -451t-359 -370h-379q89 62 160.5 117.5t154 129.5t143 153t89.5 155q-90 -82 -242 -82q-106 0 -190 34t-136 92.5t-79 133.5t-27 160q0 197 130.5 326t352.5 129zM606 705q89 0 148 55t59 149q0 96 -60.5 151.5
t-146.5 55.5t-145.5 -56.5t-59.5 -150.5t58.5 -149t146.5 -55z" />
    <glyph glyph-name="periodcentered.case" horiz-adv-x="598" 
d="M301 514q-72 0 -118 46.5t-46 119.5q0 71 48.5 117.5t115.5 46.5q70 0 116 -46.5t46 -119.5q0 -72 -46.5 -118t-115.5 -46z" />
    <glyph glyph-name="bullet.case" horiz-adv-x="907" 
d="M469 440q-103 0 -170.5 67t-67.5 171q0 99 70.5 166t167.5 67q103 0 168 -66t65 -169q0 -104 -65.5 -170t-167.5 -66z" />
    <glyph glyph-name="exclamdown.case" horiz-adv-x="630" 
d="M315 1346q69 0 115.5 -46t46.5 -118q0 -73 -46 -119.5t-116 -46.5q-67 0 -114 46.5t-47 117.5q0 74 44.5 120t116.5 46zM180 899h271l8 -899h-291z" />
    <glyph glyph-name="questiondown.case" horiz-adv-x="899" 
d="M510 1018q-70 0 -116 46.5t-46 119.5q0 72 47.5 118t116.5 46q70 0 116 -46.5t46 -117.5q0 -72 -47.5 -119t-116.5 -47zM516 -18q-208 0 -323 103t-115 284q0 154 85.5 248t211.5 114v170h270v-313q-134 0 -209.5 -53.5t-75.5 -149.5q0 -82 55 -126t152 -44q80 0 158 35
t117 72v-252q-38 -32 -124.5 -60t-201.5 -28z" />
    <glyph glyph-name="numbersign.tf" 
d="M121 0l80 315h-183l50 195h182l78 307h-187l52 195h184l80 315h241l-80 -315h170l80 315h242l-80 -315h187l-52 -195h-184l-78 -307h187l-52 -195h-186l-78 -315h-242l78 315h-168l-80 -315h-241zM492 510h167l78 307h-168z" />
    <glyph glyph-name="braceleft.case" horiz-adv-x="815" 
d="M541 -195q-181 0 -285 87t-104 235q0 66 22 127.5t48.5 99.5t48.5 87.5t22 95.5q0 66 -44.5 115t-117.5 55v43q72 5 117 43t45 102q0 42 -22 89.5t-48.5 85t-48.5 98t-22 126.5q0 148 104 236t285 88q130 0 223 -39v-207q-76 43 -182 43q-73 0 -115.5 -37t-42.5 -102
q0 -49 22 -98.5t48.5 -85t48.5 -86t22 -101.5q0 -147 -190 -176q29 -4 59.5 -17.5t61 -36.5t50 -62t19.5 -87q0 -53 -22 -106t-48.5 -89.5t-48.5 -86t-22 -97.5q0 -67 42 -102t116 -35q104 0 182 43v-211q-94 -37 -223 -37z" />
    <glyph glyph-name="braceright.case" horiz-adv-x="813" 
d="M289 -195q-129 0 -226 37v211q78 -43 183 -43q75 0 117.5 34.5t42.5 102.5q0 39 -14.5 78t-35.5 72.5t-42 67.5t-35.5 75.5t-14.5 85.5q0 48 19.5 87t50 62t61.5 36.5t60 17.5q-191 29 -191 176q0 41 14.5 81t35.5 73t42 65.5t35.5 72t14.5 79.5q0 64 -43 101.5
t-117 37.5q-104 0 -183 -43v207q96 39 226 39q181 0 285 -88t104 -236q0 -66 -22 -126.5t-48.5 -98.5t-48.5 -85t-22 -89q0 -64 45 -102t116 -43v-43q-73 -6 -117 -54.5t-44 -115.5q0 -45 22 -94.5t48.5 -88t48.5 -100t22 -127.5q0 -148 -104 -235t-285 -87z" />
    <glyph glyph-name="bracketleft.case" horiz-adv-x="706" 
d="M154 -195v1733h512v-225h-240v-1282h240v-226h-512z" />
    <glyph glyph-name="bracketright.case" horiz-adv-x="729" 
d="M63 -195v226h240v1282h-240v225h512v-1733h-512z" />
    <glyph glyph-name="parenleft.case" horiz-adv-x="733" 
d="M473 -195q-79 65 -144 146t-119.5 187t-85 242t-30.5 288q0 153 30.5 288.5t85.5 242.5t120.5 189.5t146.5 149.5h330q-96 -80 -168 -163.5t-133 -189.5t-93 -237.5t-32 -283.5q0 -248 98.5 -458.5t327.5 -400.5h-334z" />
    <glyph glyph-name="parenright.case" horiz-adv-x="729" 
d="M-80 -195q229 190 327.5 400.5t98.5 458.5q0 152 -32 283.5t-93 237.5t-133 189.5t-168 163.5h332q81 -67 146.5 -149.5t120.5 -189.5t85.5 -242.5t30.5 -288.5q0 -152 -30.5 -288t-85 -242t-119.5 -187t-144 -146h-336z" />
    <glyph glyph-name="emdash.case" horiz-adv-x="1630" 
d="M72 567v217h1489v-217h-1489z" />
    <glyph glyph-name="endash.case" horiz-adv-x="980" 
d="M72 567v217h839v-217h-839z" />
    <glyph glyph-name="hyphen.case" horiz-adv-x="571" 
d="M72 569v213h430v-213h-430z" />
    <glyph glyph-name="uni00AD.case" horiz-adv-x="571" 
d="M72 569v213h430v-213h-430z" />
    <glyph glyph-name="guillemotleft.case" horiz-adv-x="1368" 
d="M367 354l-287 322l287 321h311l-297 -321l297 -322h-311zM924 354l-287 322l287 321h311l-297 -321l297 -322h-311z" />
    <glyph glyph-name="guillemotright.case" horiz-adv-x="1318" 
d="M133 354l297 324l-297 319h311l287 -321l-287 -322h-311zM692 354l297 324l-297 319h312l286 -321l-286 -322h-312z" />
    <glyph glyph-name="guilsinglleft.case" horiz-adv-x="765" 
d="M362 354l-286 322l286 321h312l-297 -321l297 -322h-312z" />
    <glyph glyph-name="guilsinglright.case" horiz-adv-x="759" 
d="M133 354l297 324l-297 319h311l287 -321l-287 -322h-311z" />
    <glyph glyph-name="cent.ss01" horiz-adv-x="980" 
d="M524 0v188q-86 10 -160 42t-133.5 86.5t-94 140t-34.5 192.5q0 201 114 333.5t308 158.5v186h213v-186q93 -11 162 -45v-234q-119 82 -260 82q-127 0 -202 -73.5t-75 -208.5q0 -131 73.5 -202t213.5 -71q139 0 258 88v-239q-60 -35 -170 -48v-190h-213z" />
    <glyph glyph-name="dollar.ss01" horiz-adv-x="1093" 
d="M444 -184v192q-191 13 -317 72v250q67 -46 180.5 -78.5t220.5 -32.5q211 0 211 146q0 27 -5 48.5t-19 38t-27 27.5t-40.5 22.5t-48.5 18.5t-60 19q-181 55 -244 85q-141 66 -185 178q-24 62 -24 144q0 161 92 254.5t266 118.5v213h211v-213q158 -15 244 -57v-254
q-61 42 -152 73t-180 31q-102 0 -153.5 -39t-51.5 -110q0 -67 44.5 -99t164.5 -69q55 -16 85 -25.5t84.5 -31t86.5 -41t73 -53t63.5 -70t38.5 -88t16 -111.5q0 -146 -88.5 -245.5t-274.5 -121.5v-192h-211z" />
    <glyph glyph-name="cent.tf.ss01" 
d="M629 0v188q-86 10 -160 42t-133.5 86.5t-94 140t-34.5 192.5q0 201 114 333.5t308 158.5v186h213v-186q93 -11 162 -45v-234q-119 82 -261 82q-127 0 -201.5 -73.5t-74.5 -208.5q0 -131 73.5 -202t213.5 -71q139 0 258 88v-239q-60 -35 -170 -48v-190h-213z" />
    <glyph glyph-name="dollar.tf.ss01" 
d="M547 -184v192q-192 13 -318 72v250q67 -46 181 -78.5t221 -32.5q211 0 211 146q0 33 -9.5 57.5t-23 40t-43 30.5t-54 23.5t-71.5 22.5q-181 55 -244 85q-141 66 -185 178q-24 62 -24 144q0 161 92.5 254.5t266.5 118.5v213h211v-213q157 -15 243 -57v-254q-62 42 -152 73
t-179 31q-102 0 -153.5 -39t-51.5 -110q0 -67 44.5 -99t164.5 -69q55 -16 85 -25.5t84.5 -31t86.5 -41t72.5 -53t63 -70t38.5 -88t16 -111.5q0 -146 -88 -245.5t-274 -121.5v-192h-211z" />
    <glyph glyph-name="cent.tf" 
d="M680 0v184q-93 3 -175.5 32t-150.5 83.5t-107.5 144.5t-39.5 205q0 215 129 350t344 146v182h123v-182q114 -8 201 -49v-234q-107 67 -201 76v-545q103 8 209 84v-239q-74 -42 -209 -52v-186h-123zM680 391v551q-81 -10 -147 -83.5t-66 -196.5q0 -114 56.5 -187.5
t156.5 -83.5z" />
    <glyph glyph-name="dollar.tf" 
d="M588 -184v188q-224 13 -361 76v250q60 -41 161.5 -72t199.5 -37v332q-80 24 -132 44t-108 53t-88 71.5t-53 97t-21 133.5q0 166 106 260.5t296 112.5v207h123v-209q195 -15 288 -61v-254q-135 86 -288 100v-326q40 -12 70.5 -22.5t75.5 -30t78 -39.5t69.5 -51.5
t59.5 -66.5t38.5 -83t15.5 -102q0 -170 -99.5 -270t-307.5 -113v-188h-123zM588 819v287q-129 -20 -129 -143q0 -55 32 -88t97 -56zM711 221q69 10 101 48t32 96t-31.5 93t-101.5 60v-297z" />
    <glyph glyph-name="Euro.tf" 
d="M825 -20q-254 0 -418.5 106t-207.5 315h-174v193h151q-4 28 -4 70q0 35 4 63h-151v193h180q47 191 209.5 309.5t423.5 118.5q99 0 198 -17t144 -41v-254q-148 76 -324 76q-138 0 -231 -53.5t-129 -138.5h391v-193h-424q-4 -24 -4 -65q0 -44 4 -68h424v-193h-395
q20 -52 61 -89.5t94 -56.5t105.5 -27.5t109.5 -8.5q202 0 330 64v-248q-46 -21 -153.5 -38t-213.5 -17z" />
    <glyph glyph-name="florin.tf" 
d="M213 -424q-85 0 -147 25v227q53 -21 104 -21q40 0 68.5 10t46 24.5t30.5 45t19.5 57.5t15.5 76l90 519h-157v227h198l33 188q17 93 46.5 162.5t78 123t122.5 81t173 27.5q92 0 153 -23v-238q-57 25 -114 25q-81 0 -122 -44.5t-56 -141.5l-29 -160h227v-227h-266
l-100 -570q-8 -45 -16.5 -79t-24.5 -77t-36 -74.5t-51.5 -64t-70.5 -52.5t-94 -33t-121 -13z" />
    <glyph glyph-name="uni20B4.tf" 
d="M1090 741h-195q-51 -49 -186 -137h381v-182h-574q-14 -28 -14 -68q0 -145 209 -145q80 0 166 30.5t153 77.5v-262q-154 -75 -375 -75q-204 0 -322 86t-118 245q0 58 16 111h-81v182h204q21 19 47.5 39t46 33.5t52.5 35t47 31.5h-397v183l581 -2q10 30 10 59
q0 61 -51.5 98t-146.5 37q-69 0 -148.5 -26t-144.5 -64v260q51 23 142.5 41.5t205.5 18.5q205 0 316.5 -85t111.5 -237q0 -59 -14 -102h78v-183z" />
    <glyph glyph-name="uni20BD.tf" 
d="M594 442h-98v-114h235v-201h-235v-127h-281v127h-170v201h170v114h-170v201h170v684h403q64 0 118 -4t114.5 -16t108 -31.5t92.5 -53.5t75 -79t48 -111t18 -147q0 -87 -22 -156.5t-56.5 -115t-87.5 -79t-102 -50.5t-114.5 -27t-111.5 -12.5t-104 -2.5zM903 883
q0 58 -21 100.5t-51 64.5t-77 35t-85.5 16t-90.5 3h-82v-445h79q42 0 74.5 2.5t73.5 10t70.5 23t55.5 39.5t40 62.5t14 88.5z" />
    <glyph glyph-name="sterling.tf" 
d="M193 0v20q126 149 192 260.5t66 196.5q0 31 -11 60h-227v227h123q-51 83 -51 188q0 178 120.5 287t323.5 109q97 0 180 -25t131 -59v-260q-31 33 -112 69.5t-164 36.5q-93 0 -145 -49.5t-52 -126.5q0 -82 64 -170h305v-227h-217q10 -27 10 -60q0 -126 -100 -244h442v-233
h-878z" />
    <glyph glyph-name="yen.tf" 
d="M481 0v305h-297v205h305l-69 135h-264v205h139l-258 477h311l277 -588l274 588h301l-258 -477h133v-205h-262l-70 -135h304v-205h-293v-305h-273z" />
    <glyph glyph-name="at.case" horiz-adv-x="2058" 
d="M1044 -215q-207 0 -381.5 61.5t-301 174.5t-197 283t-70.5 378q0 213 75.5 387.5t207 289t307 176.5t377.5 62q147 0 281.5 -33t248 -100t196.5 -161t130 -223.5t47 -280.5q0 -256 -128.5 -399.5t-336.5 -143.5q-98 0 -173.5 35t-104.5 104q-42 -72 -118.5 -105.5
t-156.5 -33.5q-96 0 -175 41.5t-130 132t-51 217.5q0 88 27 167.5t76.5 141t125.5 98t168 36.5q171 0 236 -125l14 100h209l-31 -291q-16 -136 -16 -180q0 -66 27.5 -101.5t95.5 -35.5q91 0 139.5 73.5t48.5 217.5q0 157 -52 281t-143 201t-207.5 116.5t-250.5 39.5
q-209 0 -369.5 -88.5t-249 -250t-88.5 -371.5q0 -315 191 -494.5t512 -179.5q189 0 369.5 57.5t287.5 122.5v-237q-17 -13 -73 -37t-142 -53t-208.5 -49.5t-242.5 -20.5zM987 467q81 0 128.5 65t47.5 162q0 87 -37.5 137t-107.5 50q-82 0 -131 -65t-49 -167
q0 -87 39.5 -134.5t109.5 -47.5z" />
    <glyph glyph-name="uni0308.case" horiz-adv-x="0" 
d="M-743 1464q-70 0 -115 45.5t-45 114.5t45 114.5t115 45.5t114.5 -45.5t44.5 -114.5t-44.5 -114.5t-114.5 -45.5zM-297 1464q-70 0 -116 45.5t-46 114.5t46 114.5t116 45.5t115 -45.5t45 -114.5t-45 -114.5t-115 -45.5z" />
    <glyph glyph-name="uni0307.case" horiz-adv-x="0" 
d="M-532 1464q-73 0 -118.5 45.5t-45.5 116.5q0 68 48 115t116 47q69 0 115 -47t46 -117t-46.5 -115t-114.5 -45z" />
    <glyph glyph-name="gravecomb.case" horiz-adv-x="0" 
d="M-487 1448l-342 346h362l248 -346h-268z" />
    <glyph glyph-name="acutecomb.case" horiz-adv-x="0" 
d="M-815 1448l248 346h360l-342 -346h-266z" />
    <glyph glyph-name="uni030B.case" horiz-adv-x="0" 
d="M-1077 1448l280 346h363l-373 -346h-270zM-582 1448l279 346h362l-372 -346h-269z" />
    <glyph glyph-name="uni0302.case" horiz-adv-x="0" 
d="M-893 1448l373 364l373 -364h-273l-100 111l-103 -111h-270z" />
    <glyph glyph-name="uni030C.case" horiz-adv-x="0" 
d="M-520 1430l-373 364h270l103 -111l100 111h273z" />
    <glyph glyph-name="uni0306.case" horiz-adv-x="0" 
d="M-522 1430q-357 0 -357 331v33h207q0 -152 150 -152q151 0 151 152h205v-33q0 -331 -356 -331z" />
    <glyph glyph-name="uni030A.case" horiz-adv-x="0" 
d="M-530 1413q-92 0 -158 63t-66 148t66 148t158 63t157.5 -63t65.5 -148t-65.5 -148t-157.5 -63zM-530 1544q33 0 56 23.5t23 58.5q0 34 -23.5 57t-55.5 23q-33 0 -56.5 -23.5t-23.5 -56.5q0 -35 23.5 -58.5t56.5 -23.5z" />
    <glyph glyph-name="tildecomb.case" horiz-adv-x="0" 
d="M-381 1477q-52 0 -105.5 21t-96 42t-68.5 21q-36 0 -52 -22.5t-16 -51.5h-168q0 107 58 184.5t165 77.5q54 0 109 -21t98 -42t68 -21q34 0 49.5 23t15.5 51h168q0 -48 -14 -93.5t-40.5 -83.5t-71 -61.5t-99.5 -23.5z" />
    <glyph glyph-name="uni0304.case" horiz-adv-x="0" 
d="M-842 1520v213h633v-213h-633z" />
    <glyph glyph-name="acutecomb.loclPLK" horiz-adv-x="0" 
d="M-772 1065l166 346h321l-231 -346h-256z" />
    <glyph glyph-name="acutecomb.case.loclPLK" horiz-adv-x="0" 
d="M-707 1448l166 346h320l-232 -346h-254z" />
    <glyph glyph-name="acute.case" horiz-adv-x="1050" 
d="M250 1448l248 346h360l-342 -346h-266z" />
    <glyph glyph-name="breve.case" horiz-adv-x="1044" 
d="M530 1430q-356 0 -356 331v33h207q0 -152 149 -152q152 0 152 152h205v-33q0 -331 -357 -331z" />
    </font>
</defs>
</svg>
