<?xml version="1.0" standalone="no"?>
<!DOCTYPE svg PUBLIC "-//W3C//DTD SVG 1.1//EN" "http://www.w3.org/Graphics/SVG/1.1/DTD/svg11.dtd" >
<svg xmlns="http://www.w3.org/2000/svg" xmlns:xlink="http://www.w3.org/1999/xlink" version="1.1">
<metadata>
Created by FontForge 20170731 at Thu Jul 30 05:04:01 2020
 By Aleksey,,,
Nespresso Lucas is a licensed version of FS Lucas, Copyright (c) 2016. All rights reserved. This font may not be altered in any way without prior permission of Fontsmith Ltd.
</metadata>
<defs>
<font id="NespressoLucas-XtraBdItalic" horiz-adv-x="1218" >
  <font-face 
    font-family="Nespresso Lucas XtraBd"
    font-weight="800"
    font-style="italic"
    font-stretch="normal"
    units-per-em="2048"
    panose-1="2 11 6 3 6 3 2 10 2 3"
    ascent="1516"
    descent="-532"
    x-height="926"
    cap-height="1327"
    bbox="-1049 -465 2775 1847"
    underline-thickness="239"
    underline-position="-443"
    slope="-8"
    unicode-range="U+000D-FB02"
  />
<missing-glyph horiz-adv-x="1564" 
d="M264 -424v1751h1032v-1751h-1032zM780 512l422 758h-844zM326 -297l424 750l-424 747v-1497zM1235 -297v1497l-424 -747zM358 -365h844l-422 768z" />
    <glyph glyph-name="fi" unicode="fi" horiz-adv-x="1347" 
d="M1137 1077q-70 0 -111 42t-41 110q0 84 49 133t125 49q67 0 109.5 -41t42.5 -110q0 -87 -50.5 -135t-123.5 -48zM819 0l94 698h-356l-98 -698h-314l99 698h-162l33 228h161l11 78q28 200 122.5 294.5t276.5 94.5q80 0 145 -27l-34 -242q-30 15 -70 15q-56 0 -86.5 -36
t-42.5 -118l-8 -59h670l-127 -926h-314z" />
    <glyph glyph-name="fl" unicode="fl" horiz-adv-x="1320" 
d="M145 0l99 698h-162l33 228h161l11 78q28 200 122.5 294.5t276.5 94.5q80 0 145 -27l-34 -242q-30 15 -70 15q-56 0 -86.5 -36t-42.5 -118l-8 -59h117l-33 -228h-117l-98 -698h-314zM815 0l191 1358h313l-191 -1358h-313z" />
    <glyph glyph-name="f_f.liga" unicode="ff" horiz-adv-x="1445" 
d="M143 0l99 698h-160l33 228h159l7 53q28 200 122.5 294.5t276.5 94.5q61 0 119.5 -10.5t83.5 -22.5l-76 -239q-36 18 -86 18q-56 0 -86.5 -35.5t-42.5 -117.5l-4 -35h356l10 78q26 196 123 292.5t293 96.5q75 0 134 -13.5t83 -25.5l-35 -250q-15 11 -51 22t-76 11
q-44 0 -75 -14t-48 -39.5t-25.5 -51t-12.5 -59.5l-7 -47h187l-33 -228h-186l-99 -698h-313l98 698h-356l-98 -698h-314z" />
    <glyph glyph-name="f_f_i.liga" unicode="ffi" horiz-adv-x="2015" 
d="M1804 1077q-70 0 -110.5 42t-40.5 110q0 84 49 133t125 49q67 0 109 -41t42 -110q0 -87 -50.5 -135t-123.5 -48zM1485 0l96 698h-356l-99 -698h-313l98 698h-356l-98 -698h-314l99 698h-160l33 228h159l7 53q28 200 122.5 294.5t276.5 94.5q94 0 162 -33l-35 -239
q-36 18 -86 18q-56 0 -86.5 -35.5t-42.5 -117.5l-4 -35h356l10 78q27 199 122.5 294t277.5 95q80 0 145 -27l-35 -242q-30 15 -69 15q-56 0 -87.5 -36t-41.5 -118l-9 -59h670l-129 -926h-313z" />
    <glyph glyph-name="f_f_j.liga" unicode="ffj" horiz-adv-x="2015" 
d="M1804 1077q-70 0 -110.5 42t-40.5 110q0 84 49 133t125 49q67 0 109 -41t42 -110q0 -87 -50.5 -135t-123.5 -48zM1313 -424q-139 0 -215 31l35 237q52 -20 129 -20q63 0 106.5 19t69 58.5t38.5 83.5t23 111l82 602h-356l-99 -698h-313l98 698h-356l-98 -698h-314l99 698
h-160l33 228h159l7 53q28 200 122.5 294.5t276.5 94.5q94 0 162 -33l-35 -239q-36 18 -86 18q-56 0 -86.5 -35.5t-42.5 -117.5l-4 -35h356l10 78q27 199 122.5 294t277.5 95q80 0 145 -27l-35 -242q-30 15 -69 15q-56 0 -87.5 -36t-41.5 -118l-9 -59h670l-110 -787
q-10 -75 -20.5 -129.5t-29.5 -117t-43 -105.5t-62 -86t-86 -68.5t-114.5 -41t-148.5 -15.5z" />
    <glyph glyph-name="f_f_l.liga" unicode="ffl" horiz-adv-x="1988" 
d="M143 0l99 698h-160l33 228h159l7 53q28 200 122.5 294.5t276.5 94.5q94 0 162 -33l-35 -239q-36 18 -86 18q-56 0 -86.5 -35.5t-42.5 -117.5l-4 -35h356l10 78q27 199 122.5 294t277.5 95q80 0 145 -27l-35 -242q-30 15 -69 15q-56 0 -87.5 -36t-41.5 -118l-9 -59h166
l-32 -228h-166l-99 -698h-313l98 698h-356l-98 -698h-314zM1483 0l190 1358h314l-191 -1358h-313z" />
    <glyph glyph-name="f_f_t.liga" unicode="fft" horiz-adv-x="2220" 
d="M143 0l99 698h-160l33 228h159l7 53q28 200 122.5 294.5t276.5 94.5q94 0 162 -33l-35 -239q-36 18 -86 18q-56 0 -86.5 -35.5t-42.5 -117.5l-4 -35h356l10 78q28 199 123 294t277 95q80 0 145 -27l-35 -242q-30 15 -69 15q-56 0 -86.5 -36t-42.5 -118l-9 -59h117
l-33 -228h-116l-99 -698h-313l98 698h-356l-98 -698h-314zM1874 -12q-168 0 -257 74t-89 208q0 61 18 187l35 241h-113l5 21q66 62 239.5 248t237.5 262h20l-43 -303h248l-33 -228h-246l-36 -247q-15 -101 -15 -123q0 -88 123 -88q79 0 152 41l-37 -256q-23 -13 -82 -25
t-127 -12z" />
    <glyph glyph-name="f_j.liga" unicode="fj" horiz-adv-x="1345" 
d="M1135 1077q-70 0 -111 42t-41 110q0 84 49 133t125 49q67 0 109.5 -41t42.5 -110q0 -87 -50.5 -135t-123.5 -48zM643 -424q-139 0 -215 31l35 237q52 -20 131 -20q63 0 106 19t68 58.5t38 83.5t23 111l82 602h-356l-98 -698h-314l99 698h-160l33 228h159l11 78
q28 200 122.5 294.5t276.5 94.5q80 0 145 -27l-34 -242q-30 15 -70 15q-56 0 -86.5 -36t-42.5 -118l-8 -59h669l-110 -787q-10 -75 -20.5 -129.5t-29.5 -117t-43 -105.5t-62 -86t-86 -68.5t-114.5 -41t-148.5 -15.5z" />
    <glyph glyph-name="f_t.liga" unicode="ft" horiz-adv-x="1521" 
d="M143 0l99 698h-160l33 228h159l11 78q28 200 122.5 294.5t276.5 94.5q80 0 145 -27l-34 -242q-30 15 -70 15q-56 0 -86.5 -36t-42.5 -118l-8 -59h117l-33 -228h-117l-98 -698h-314zM1176 -12q-168 0 -257.5 74t-89.5 208q0 54 19 187l35 241h-113l4 21q66 62 239.5 248
t237.5 262h21l-43 -303h248l-33 -228h-246l-37 -247q-14 -95 -14 -123q0 -88 123 -88q78 0 151 41l-37 -256q-23 -13 -81.5 -25t-126.5 -12z" />
    <glyph glyph-name="t_t.liga" unicode="tt" horiz-adv-x="1699" 
d="M518 -12q-168 0 -257 74t-89 208q0 61 18 187l33 229h-176l4 21q43 37 263 248.5t280 273.5h20l-43 -303h248l-35 -240h-245l-35 -235q-15 -101 -15 -123q0 -88 123 -88q79 0 152 41l-37 -256q-23 -13 -82 -25t-127 -12zM1354 -12q-168 0 -257 74t-89 208q0 61 18 187
l33 229h-176l4 21q43 37 263 248.5t280 273.5h20l-43 -303h248l-35 -240h-246l-35 -235q-14 -95 -14 -123q0 -88 123 -88q78 0 151 41l-36 -256q-23 -13 -82 -25t-127 -12z" />
    <glyph glyph-name=".notdef" horiz-adv-x="1564" 
d="M264 -424v1751h1032v-1751h-1032zM780 512l422 758h-844zM326 -297l424 750l-424 747v-1497zM1235 -297v1497l-424 -747zM358 -365h844l-422 768z" />
    <glyph glyph-name=".null" horiz-adv-x="0" 
 />
    <glyph glyph-name="nonmarkingreturn" horiz-adv-x="682" 
 />
    <glyph glyph-name="CR" unicode="&#xd;" horiz-adv-x="430" 
 />
    <glyph glyph-name="space" unicode=" " horiz-adv-x="430" 
 />
    <glyph glyph-name="exclam" unicode="!" horiz-adv-x="653" 
d="M168 449l106 878h336l-131 -878h-311zM272 -18q-79 0 -124.5 46t-45.5 122q0 84 58.5 141t136.5 57q75 0 122.5 -47t47.5 -123q0 -88 -57.5 -142t-137.5 -54z" />
    <glyph glyph-name="quotedbl" unicode="&#x22;" horiz-adv-x="1124" 
d="M242 844l22 483h332l-115 -483h-239zM748 844l22 483h332l-115 -483h-239z" />
    <glyph glyph-name="numbersign" unicode="#" horiz-adv-x="1189" 
d="M25 0l118 303h-182l84 209h180l119 303h-186l86 209h186l117 303h266l-117 -303h140l116 303h267l-117 -303h186l-86 -209h-184l-119 -303h186l-84 -209h-186l-119 -303h-266l119 303h-139l-119 -303h-266zM492 512h139l119 303h-140z" />
    <glyph glyph-name="dollar" unicode="$" horiz-adv-x="1118" 
d="M406 -184l24 188q-203 14 -348 80l37 270q56 -39 154 -69t194 -37l39 291q-87 28 -147 57t-112 71.5t-78 101.5t-26 136q0 200 125 303t350 117l27 207h127l-27 -209q188 -18 289 -68l-39 -272q-130 83 -288 98l-37 -290q87 -30 146 -58.5t113 -72t80.5 -105.5t26.5 -143
q0 -197 -125 -297t-354 -111l-25 -188h-126zM549 825l37 256q-62 -11 -96.5 -45.5t-34.5 -89.5q0 -49 23.5 -77t70.5 -44zM594 246q62 9 96.5 44.5t34.5 90.5q0 50 -24 77.5t-74 43.5z" />
    <glyph glyph-name="percent" unicode="%" horiz-adv-x="1998" 
d="M473 680q-143 0 -232 78t-89 211q0 167 115 274t284 107q143 0 232 -79t89 -212q0 -117 -56 -204.5t-145.5 -131t-197.5 -43.5zM403 0l924 1327h322l-924 -1327h-322zM489 877q71 0 116.5 45.5t45.5 115.5q0 53 -33 83t-88 30q-70 0 -113.5 -48t-43.5 -114
q0 -51 30.5 -81.5t85.5 -30.5zM1505 -20q-143 0 -232 77.5t-89 210.5q0 167 115 274t284 107q143 0 232.5 -79t89.5 -212q0 -117 -56 -204.5t-146 -130.5t-198 -43zM1522 176q70 0 115.5 45.5t45.5 116.5q0 53 -32.5 83t-87.5 30q-70 0 -114 -48t-44 -114q0 -51 31.5 -82
t85.5 -31z" />
    <glyph glyph-name="ampersand" unicode="&#x26;" horiz-adv-x="1462" 
d="M1405 602q0 -191 -131 -350l106 -105l-186 -186l-127 127q-189 -106 -434 -106q-263 0 -412 122t-149 312q0 142 80 236t208 139q-37 47 -52 94t-15 110q0 151 116 252t312 101q155 0 248 -58l-35 -254q-71 64 -170 64q-77 0 -118.5 -34.5t-41.5 -94.5q0 -46 30.5 -88
t92.5 -101l365 -354q38 66 38 160q0 81 -43.5 132.5t-148.5 78.5l180 159q127 -25 207 -117t80 -239zM387 444q0 -106 78.5 -166.5t218.5 -60.5q120 0 205 37l-389 383q-113 -63 -113 -193z" />
    <glyph glyph-name="quotesingle" unicode="'" horiz-adv-x="618" 
d="M242 844l22 483h332l-115 -483h-239z" />
    <glyph glyph-name="parenleft" unicode="(" horiz-adv-x="782" 
d="M346 -406q-59 55 -108.5 121.5t-92.5 152t-67.5 193t-24.5 224.5q0 310 135 583.5t383 458.5h385q-577 -432 -577 -1059q0 -191 71 -355t236 -319h-340z" />
    <glyph glyph-name="parenright" unicode=")" horiz-adv-x="782" 
d="M-176 -406q577 432 577 1059q0 191 -71 355t-236 319h340q59 -55 108.5 -121t92.5 -151.5t67.5 -193t24.5 -224.5q0 -311 -135 -584.5t-383 -458.5h-385z" />
    <glyph glyph-name="asterisk" unicode="*" horiz-adv-x="837" 
d="M358 717l54 196l-150 -122l-86 157l182 74l-165 74l104 157l141 -125l6 199h191l-53 -199l151 125l86 -157l-182 -74l166 -74l-105 -157l-143 127l-6 -201h-191z" />
    <glyph glyph-name="plus" unicode="+" 
d="M408 16l45 328h-314l33 240h315l45 325h281l-45 -325h311l-32 -240h-314l-45 -328h-280z" />
    <glyph glyph-name="comma" unicode="," horiz-adv-x="624" 
d="M-18 -309q89 66 147.5 144.5t85.5 148.5q-66 6 -102.5 44.5t-36.5 104.5q0 93 61 154t152 61q88 0 138 -51.5t50 -146.5q0 -118 -64.5 -239t-209.5 -220h-221z" />
    <glyph glyph-name="hyphen" unicode="-" horiz-adv-x="577" 
d="M53 377l35 239h447l-35 -239h-447z" />
    <glyph glyph-name="period" unicode="." horiz-adv-x="624" 
d="M258 -18q-79 0 -124.5 46t-45.5 122q0 84 58.5 141t136.5 57q75 0 122.5 -47t47.5 -123q0 -88 -57.5 -142t-137.5 -54z" />
    <glyph glyph-name="slash" unicode="/" horiz-adv-x="919" 
d="M-123 -406l815 1733h326l-815 -1733h-326z" />
    <glyph glyph-name="zero" unicode="0" horiz-adv-x="1261" 
d="M582 -20q-224 0 -343.5 145t-119.5 391q0 80 12 158q45 321 202 497.5t406 176.5q220 0 340.5 -143t120.5 -396q0 -61 -10 -143q-40 -324 -199.5 -505t-408.5 -181zM606 254q96 0 163 112.5t93 315.5q8 65 8 117q0 278 -151 278q-97 0 -166.5 -113t-95.5 -315
q-8 -65 -8 -117q0 -278 157 -278z" />
    <glyph glyph-name="one" unicode="1" horiz-adv-x="950" 
d="M360 0l136 950l-301 -131l36 271l617 258h20l-190 -1348h-318z" />
    <glyph glyph-name="two" unicode="2" horiz-adv-x="1124" 
d="M18 0l5 20l466 541q117 134 165 217t48 160q0 71 -46.5 105t-125.5 34q-86 0 -179.5 -48t-145.5 -93l43 313q163 99 362 99q202 0 311 -104t109 -277q0 -72 -16.5 -133t-60 -130.5t-91.5 -129.5t-139 -162l-131 -148h366l-36 -264h-904z" />
    <glyph glyph-name="three" unicode="3" horiz-adv-x="1165" 
d="M1128 1327l-4 -20l-346 -514q105 -23 177.5 -106t72.5 -222q0 -123 -41.5 -217t-115.5 -152t-171 -87t-213 -29q-134 0 -233 24.5t-154 58.5l41 291q145 -104 316 -104q119 0 181 57t62 152q0 81 -55 122.5t-143 41.5q-59 0 -108.5 -23.5t-76.5 -52.5l-26 22l336 496
h-381l37 262h845z" />
    <glyph glyph-name="four" unicode="4" horiz-adv-x="1181" 
d="M602 0l29 199h-651l4 20l1081 1129h20l-129 -922h177l-33 -227h-176l-27 -199h-295zM483 426h176l31 213z" />
    <glyph glyph-name="five" unicode="5" horiz-adv-x="1169" 
d="M467 -20q-128 0 -225 27t-142 59l41 288q58 -45 146 -73.5t168 -28.5q118 0 178.5 56.5t60.5 146.5q0 87 -54 126.5t-144 39.5q-161 0 -260 -107l-25 12l219 801h635l-37 -262h-373l-55 -211q12 2 37 2q62 0 117 -13.5t104.5 -44.5t85.5 -76.5t57 -114.5t21 -154
q0 -233 -151 -353t-404 -120z" />
    <glyph glyph-name="six" unicode="6" horiz-adv-x="1228" 
d="M737 877q77 0 145 -22t125.5 -67t91.5 -125t34 -186q0 -228 -148.5 -362.5t-392.5 -134.5q-221 0 -349 118.5t-128 354.5q0 133 48.5 267t131 247t191.5 206t231 154h475q-183 -93 -381 -240t-285 -270q82 60 211 60zM610 248q88 0 142.5 55.5t54.5 149.5q0 81 -42 122
t-116 41q-93 0 -146.5 -57.5t-53.5 -146.5q0 -74 42 -119t119 -45z" />
    <glyph glyph-name="seven" unicode="7" horiz-adv-x="1220" 
d="M250 0q50 233 188.5 545t302.5 518h-487l37 264h1012l-5 -20q-208 -185 -415.5 -558t-290.5 -749h-342z" />
    <glyph glyph-name="eight" unicode="8" horiz-adv-x="1214" 
d="M569 -20q-209 0 -329.5 102.5t-120.5 286.5q0 127 66 220t167 122q-61 26 -94 84.5t-33 134.5q0 187 131.5 302.5t350.5 115.5q86 0 159 -20.5t132 -62.5t92.5 -113.5t33.5 -166.5q0 -104 -52.5 -182t-135.5 -105q141 -67 141 -274q0 -204 -140 -324t-368 -120zM662 823
q64 0 105.5 38.5t41.5 105.5q0 57 -33.5 86.5t-87.5 29.5q-68 0 -107.5 -43.5t-39.5 -105.5q0 -52 33 -81.5t88 -29.5zM586 246q75 0 124.5 44t49.5 126q0 65 -39 104t-109 39q-81 0 -128.5 -48t-47.5 -126q0 -63 41 -101t109 -38z" />
    <glyph glyph-name="nine" unicode="9" horiz-adv-x="1198" 
d="M674 1348q210 0 339.5 -125t129.5 -359q0 -113 -31 -220t-84.5 -197.5t-129.5 -173.5t-162.5 -149.5t-186.5 -123.5h-440q81 49 166 107t177 128.5t168.5 147.5t116.5 143q-71 -57 -198 -57q-100 0 -177 33t-122 89t-67.5 123.5t-22.5 143.5q0 217 147.5 353.5
t376.5 136.5zM625 729q83 0 140.5 53.5t57.5 145.5q0 78 -43 116.5t-112 38.5q-85 0 -142 -57.5t-57 -144.5q0 -72 42.5 -112t113.5 -40z" />
    <glyph glyph-name="colon" unicode=":" horiz-adv-x="624" 
d="M350 631q-79 0 -124.5 46t-45.5 122q0 84 58.5 141t136.5 57q75 0 122.5 -47t47.5 -123q0 -88 -57.5 -142t-137.5 -54zM258 -18q-79 0 -124.5 46t-45.5 122q0 84 58.5 141t136.5 57q75 0 122.5 -47t47.5 -123q0 -88 -57.5 -142t-137.5 -54z" />
    <glyph glyph-name="semicolon" unicode=";" horiz-adv-x="593" 
d="M350 631q-79 0 -124.5 46t-45.5 122q0 84 58.5 141t136.5 57q75 0 122.5 -47t47.5 -123q0 -88 -57.5 -142t-137.5 -54zM-18 -309q89 66 147.5 144.5t85.5 148.5q-66 6 -102.5 44.5t-36.5 104.5q0 93 61 154t152 61q88 0 138 -51.5t50 -146.5q0 -118 -64.5 -239
t-209.5 -220h-221z" />
    <glyph glyph-name="less" unicode="&#x3c;" 
d="M1128 940l-41 -295l-419 -182l368 -182l-41 -295l-839 467l4 20z" />
    <glyph glyph-name="equal" unicode="=" 
d="M156 535l32 239h908l-33 -239h-907zM102 154l33 239h907l-32 -239h-908z" />
    <glyph glyph-name="greater" unicode="&#x3e;" 
d="M92 -14l41 295l420 182l-369 182l41 295l840 -467l-4 -20z" />
    <glyph glyph-name="question" unicode="?" horiz-adv-x="880" 
d="M229 449l43 303q123 0 201 48t78 154q0 64 -41.5 96.5t-112.5 32.5q-150 0 -274 -108l41 289q42 30 123 57t174 27q197 0 306.5 -100t109.5 -267q0 -161 -87.5 -264t-228.5 -117l-20 -151h-312zM332 -18q-79 0 -124.5 46t-45.5 122q0 84 58 141t136 57q75 0 122.5 -47
t47.5 -123q0 -88 -57 -142t-137 -54z" />
    <glyph glyph-name="at" unicode="@" horiz-adv-x="2074" 
d="M1513 856l-67 -272q-3 -11 -15 -59.5t-16 -68t-9 -50.5t-5 -52q0 -41 20.5 -62.5t71.5 -21.5q57 0 102 37t70 97.5t38 129t13 140.5q0 121 -46.5 214.5t-127 150t-182 84.5t-219.5 28q-171 0 -316 -64.5t-243 -176t-152.5 -261.5t-54.5 -319q0 -241 152.5 -375.5
t424.5 -134.5q194 0 392 60t321 128l-39 -278q-18 -12 -78.5 -35.5t-150.5 -51t-213 -47.5t-238 -20q-191 0 -348.5 48t-272 141t-178 237t-63.5 328q0 242 78 441t217.5 334.5t335.5 209.5t430 74q142 0 267.5 -24.5t235.5 -79.5t189.5 -136.5t125.5 -201t46 -267.5
q0 -181 -64.5 -323.5t-191 -226t-297.5 -83.5q-96 0 -168.5 34t-91.5 103q-43 -61 -112.5 -99t-157.5 -38q-164 0 -255 83.5t-91 240.5q0 139 58.5 256t162 185.5t229.5 68.5q166 0 211 -121l37 96h235zM1139 438q14 43 14 92q0 55 -25.5 85t-74.5 30q-84 0 -138.5 -76.5
t-54.5 -171.5q0 -55 27.5 -84.5t75.5 -29.5q63 0 107 41.5t69 113.5z" />
    <glyph glyph-name="A" unicode="A" horiz-adv-x="1308" 
d="M-37 0l807 1348h21l423 -1348h-335l-50 180h-421l-101 -180h-344zM537 422h237l-78 291z" />
    <glyph glyph-name="B" unicode="B" horiz-adv-x="1214" 
d="M944 696q186 -63 186 -268q0 -167 -75 -260q-134 -168 -486 -168h-491l186 1327h352q80 0 146.5 -6.5t139 -28t121.5 -56.5t81.5 -96.5t32.5 -144.5q0 -161 -97 -245q-45 -38 -96 -54zM768 848q41 41 41 113q0 35 -17 58.5t-49.5 34.5t-65 15t-77.5 4h-47l-39 -278h53
q80 0 126 12t75 41zM770 326q31 42 31 96q0 72 -52.5 97.5t-156.5 25.5h-113l-41 -287h121q160 0 211 68z" />
    <glyph glyph-name="C" unicode="C" horiz-adv-x="1294" 
d="M762 -20q-156 0 -281 46t-205 126.5t-122.5 188.5t-42.5 234q0 59 10 117q57 307 260.5 481.5t533.5 174.5q119 0 213.5 -28t143.5 -65l-43 -303q-140 105 -320 105q-176 0 -302 -109t-156 -276q-7 -40 -7 -74q0 -148 85.5 -237t256.5 -89q89 0 173.5 22.5t124 42.5
t87.5 50l-47 -332q-49 -29 -149 -52t-213 -23z" />
    <glyph glyph-name="D" unicode="D" horiz-adv-x="1398" 
d="M78 0l186 1327h271q69 0 118 -1.5t120 -7t123 -15.5t115.5 -30t108.5 -47t90.5 -68.5t73 -93.5t45 -123.5t17.5 -156.5q0 -65 -11 -143q-13 -93 -42 -172.5t-67 -139.5t-89.5 -109t-105.5 -82.5t-119.5 -59t-126.5 -40t-131.5 -23.5t-130 -12t-126.5 -3h-319zM438 260h6
q92 0 166.5 11.5t143.5 40t118.5 74.5t84.5 118t49 168q6 44 6 88q0 76 -23.5 132.5t-62 90t-98 53t-120.5 26.5t-141 7h-16z" />
    <glyph glyph-name="E" unicode="E" horiz-adv-x="1089" 
d="M78 0l186 1327h840l-37 -262h-516l-37 -258h358l-36 -260h-359l-39 -283h541l-37 -264h-864z" />
    <glyph glyph-name="F" unicode="F" horiz-adv-x="1052" 
d="M78 0l186 1327h848l-37 -262h-524l-41 -291h371l-37 -258h-371l-72 -516h-323z" />
    <glyph glyph-name="G" unicode="G" horiz-adv-x="1460" 
d="M748 -20q-303 0 -470 156t-167 427q0 56 10 131q23 157 93 282t174 206t235.5 123.5t281.5 42.5q156 0 260.5 -37.5t159.5 -81.5l-41 -295q-60 50 -162 87.5t-229 37.5q-181 0 -299 -112t-145 -290q-7 -51 -7 -79q0 -154 83.5 -232t222.5 -78q125 0 208.5 66.5
t98.5 181.5h-305l32 244h652l-23 -162q-9 -59 -19 -106.5t-33 -114.5t-53 -118.5t-81 -106t-115 -90.5t-157 -59t-205 -23z" />
    <glyph glyph-name="H" unicode="H" horiz-adv-x="1429" 
d="M78 0l186 1327h324l-72 -520h494l73 520h324l-186 -1327h-324l76 543h-496l-76 -543h-323z" />
    <glyph glyph-name="I" unicode="I" horiz-adv-x="610" 
d="M78 0l186 1327h324l-187 -1327h-323z" />
    <glyph glyph-name="J" unicode="J" horiz-adv-x="964" 
d="M311 -20q-177 0 -278 53l39 272q30 -20 85.5 -35.5t108.5 -15.5q115 0 171.5 61.5t78.5 216.5l76 535h-293l37 260h614l-123 -876q-16 -114 -50.5 -198t-95 -147t-153 -94.5t-217.5 -31.5z" />
    <glyph glyph-name="K" unicode="K" horiz-adv-x="1433" 
d="M78 0l186 1327h324l-88 -629l604 629h418l-648 -665l465 -662h-424l-423 643l-91 -643h-323z" />
    <glyph glyph-name="L" unicode="L" horiz-adv-x="1083" 
d="M78 0l186 1327h324l-150 -1063h561l-36 -264h-885z" />
    <glyph glyph-name="M" unicode="M" horiz-adv-x="1767" 
d="M813 -20l-276 579l-168 -559h-330l453 1348h20l383 -809l608 809h21l73 -1348h-313l-18 559l-432 -579h-21z" />
    <glyph glyph-name="N" unicode="N" horiz-adv-x="1445" 
d="M1214 -20l-722 722l-99 -702h-315l190 1348h21l721 -721l98 700h315l-188 -1347h-21z" />
    <glyph glyph-name="O" unicode="O" horiz-adv-x="1570" 
d="M743 -20q-306 0 -469 161.5t-163 429.5q0 60 8 115q43 301 250 481.5t512 180.5q294 0 464.5 -153.5t170.5 -434.5q0 -54 -9 -115q-27 -194 -129 -344.5t-267 -235.5t-368 -85zM754 272q171 0 285 110.5t139 289.5q4 29 4 73q0 142 -81 227t-231 85q-171 0 -285.5 -110
t-138.5 -283q-4 -31 -4 -74q0 -142 80.5 -230t231.5 -88z" />
    <glyph glyph-name="P" unicode="P" horiz-adv-x="1200" 
d="M78 0l186 1327h352q53 0 93 -1.5t91.5 -6t90 -12.5t82 -23t75 -35t62 -50.5t49 -68t30 -88.5t11.5 -112q0 -56 -6 -99q-12 -85 -44.5 -152t-71 -110t-98.5 -73.5t-108.5 -45.5t-121.5 -23t-115.5 -9.5t-110.5 -1.5h-63l-60 -416h-323zM496 670h36q39 0 63 0.5t60 4.5
t58.5 11t50 20.5t45 33t32.5 49t23 67.5q6 30 6 57q0 44 -14.5 74.5t-36.5 47.5t-61.5 26t-75.5 11.5t-92 2.5h-37z" />
    <glyph glyph-name="Q" unicode="Q" horiz-adv-x="1570" 
d="M1516 760q0 -54 -9 -115q-39 -259 -196 -430l141 -131l-166 -174l-170 158q-168 -88 -373 -88q-306 0 -469 161.5t-163 429.5q0 60 8 115q43 301 250 481.5t512 180.5q294 0 464.5 -153.5t170.5 -434.5zM889 604l190 -176q81 105 99 244q4 29 4 73q0 142 -81 227t-231 85
q-171 0 -285.5 -110t-138.5 -283q-4 -31 -4 -74q0 -142 80.5 -230t231.5 -88q57 0 120 17l-153 141z" />
    <glyph glyph-name="R" unicode="R" horiz-adv-x="1222" 
d="M1192 946q0 -187 -86 -308t-234 -165l246 -473h-364l-201 438h-90l-62 -438h-323l186 1327h363q62 0 112 -2.5t110.5 -12t107 -25.5t92.5 -45t76 -68t48.5 -97.5t18.5 -130.5zM526 694q53 0 90 2.5t80 13t71.5 28.5t52 51.5t34.5 80.5q6 27 6 52q0 31 -8.5 55t-21.5 39.5
t-35.5 26.5t-42.5 17t-50.5 9t-51.5 3.5t-54 0.5h-43l-53 -379h26z" />
    <glyph glyph-name="S" unicode="S" horiz-adv-x="1028" 
d="M438 -20q-241 0 -379 83l41 295q154 -108 322 -108q186 0 186 139q0 35 -23.5 63.5t-61 51t-83 46t-91 55.5t-83 71.5t-61 102t-23.5 139.5q0 209 127 319.5t355 110.5q105 0 194.5 -22t130.5 -46l-41 -291q-57 39 -132.5 64.5t-141.5 25.5q-79 0 -120.5 -36t-41.5 -93
q0 -38 23.5 -68t61.5 -52.5t83.5 -45t91 -53t83.5 -69t61.5 -101t23.5 -141.5q0 -216 -137 -328t-365 -112z" />
    <glyph glyph-name="T" unicode="T" horiz-adv-x="1153" 
d="M350 0l150 1065h-350l36 262h1022l-37 -262h-348l-149 -1065h-324z" />
    <glyph glyph-name="U" unicode="U" horiz-adv-x="1357" 
d="M627 -20q-239 0 -364.5 109.5t-125.5 324.5q0 54 21 198l98 715h324l-109 -774q-10 -75 -10 -117q0 -86 42.5 -131t139.5 -45q125 0 186 73.5t84 231.5l109 762h321l-110 -788q-8 -55 -17.5 -99.5t-30.5 -104.5t-49 -107t-75 -95.5t-105.5 -80t-143 -52t-185.5 -20.5z
" />
    <glyph glyph-name="V" unicode="V" horiz-adv-x="1374" 
d="M610 -18l-460 1345h344l208 -711l402 711h362l-835 -1345h-21z" />
    <glyph glyph-name="W" unicode="W" horiz-adv-x="2156" 
d="M612 -18l-450 1345h344l213 -678l461 678h18l268 -680l408 680h362l-827 -1345h-20l-279 704l-477 -704h-21z" />
    <glyph glyph-name="X" unicode="X" horiz-adv-x="1384" 
d="M-37 0l561 676l-360 651h375l213 -430l327 430h391l-544 -653l364 -674h-372l-222 446l-342 -446h-391z" />
    <glyph glyph-name="Y" unicode="Y" horiz-adv-x="1335" 
d="M436 0l76 526l-362 801h346l213 -518l356 518h362l-591 -801l-76 -526h-324z" />
    <glyph glyph-name="Z" unicode="Z" horiz-adv-x="1222" 
d="M-12 0l4 20l721 1045h-527l37 262h1049l-4 -20l-719 -1043h565l-37 -264h-1089z" />
    <glyph glyph-name="bracketleft" unicode="[" horiz-adv-x="776" 
d="M20 -406l244 1733h567l-36 -254h-252l-172 -1225h254l-37 -254h-568z" />
    <glyph glyph-name="backslash" unicode="\" horiz-adv-x="1095" 
d="M651 -406l-508 1733h322l508 -1733h-322z" />
    <glyph glyph-name="bracketright" unicode="]" horiz-adv-x="778" 
d="M-55 -406l37 254h254l172 1225h-256l36 254h568l-244 -1733h-567z" />
    <glyph glyph-name="asciicircum" unicode="^" 
d="M170 653l553 695h20l351 -695h-318l-100 221l-168 -221h-338z" />
    <glyph glyph-name="underscore" unicode="_" horiz-adv-x="856" 
d="M-121 -395l35 239h856l-35 -239h-856z" />
    <glyph glyph-name="grave" unicode="`" horiz-adv-x="1040" 
d="M637 1065l-309 350h405l207 -350h-303z" />
    <glyph glyph-name="a" unicode="a" horiz-adv-x="1101" 
d="M565 944q204 0 316 -78t112 -233q0 -38 -12 -127l-72 -506h-284l6 88q-95 -106 -285 -106q-144 0 -225.5 70.5t-81.5 195.5q0 81 38 147t101 106t140.5 61.5t160.5 21.5q117 0 199 -35v4q4 28 4 49q0 57 -39 92t-151 35q-131 0 -293 -92l34 235q147 72 332 72zM463 176
q75 0 125 47t63 144v4q-47 30 -121 30q-80 0 -128 -35.5t-48 -97.5q0 -45 30.5 -68.5t78.5 -23.5z" />
    <glyph glyph-name="b" unicode="b" horiz-adv-x="1220" 
d="M649 -18q-199 0 -284 114l-19 -96h-285l191 1358h313l-71 -496q101 82 251 82q193 0 302.5 -118t109.5 -304q0 -44 -6 -90q-31 -210 -171.5 -330t-330.5 -120zM594 242q108 0 174 78.5t66 187.5q0 83 -45 130.5t-125 47.5q-106 0 -173 -80t-67 -184q0 -84 46 -132
t124 -48z" />
    <glyph glyph-name="c" unicode="c" horiz-adv-x="907" 
d="M514 -20q-96 0 -176.5 25t-143.5 74.5t-98 131t-35 188.5q0 30 7 84q34 229 186.5 345t374.5 116q155 0 260 -61l-37 -252q-97 59 -209 59q-95 0 -165.5 -55.5t-88.5 -163.5q-4 -24 -4 -49q0 -84 48.5 -134t141.5 -50q116 0 234 75l-39 -276q-37 -23 -110 -40t-146 -17z
" />
    <glyph glyph-name="d" unicode="d" 
d="M461 -18q-183 0 -290.5 112t-107.5 307q0 37 7 91q35 216 167 334t326 118q186 0 266 -104l72 518h313l-188 -1358h-285l7 94q-104 -112 -287 -112zM557 242q108 0 174 77.5t66 186.5q0 83 -45.5 131.5t-124.5 48.5q-106 0 -173 -80t-67 -188q0 -80 46 -128t124 -48z" />
    <glyph glyph-name="e" unicode="e" horiz-adv-x="1083" 
d="M555 -18q-79 0 -147 11t-133 40t-110.5 74t-73.5 117.5t-28 166.5q0 36 7 94q30 214 164.5 336.5t357.5 122.5q110 0 193 -29t132 -80t73 -115.5t24 -141.5q0 -97 -27 -207h-608v-4q0 -142 207 -142q174 0 340 78l-37 -256q-46 -22 -135 -43.5t-199 -21.5zM406 557h299
q4 12 4 31q0 51 -35.5 82.5t-93.5 31.5q-65 0 -113 -39.5t-61 -105.5z" />
    <glyph glyph-name="f" unicode="f" horiz-adv-x="776" 
d="M143 0l97 686h-160l35 240h159l11 78q26 196 122.5 292.5t292.5 96.5q75 0 134.5 -13.5t83.5 -25.5l-35 -250q-15 11 -51 22t-76 11q-44 0 -75.5 -14t-48.5 -39.5t-25.5 -51t-12.5 -59.5l-6 -47h186l-35 -240h-186l-96 -686h-314z" />
    <glyph glyph-name="g" unicode="g" horiz-adv-x="1224" 
d="M463 -426q-198 0 -305 43l35 250q90 -39 221 -39q148 0 221.5 63t95.5 209l2 13q-38 -48 -109.5 -80.5t-168.5 -32.5q-178 0 -283.5 111t-105.5 303q0 41 6 88q35 213 167 327.5t332 114.5q99 0 172 -34.5t109 -94.5l27 111h284l-116 -828q-21 -148 -66 -249t-118.5 -162
t-169.5 -87t-230 -26zM555 254q104 0 168.5 79t64.5 183q0 89 -47 131.5t-116 42.5q-102 0 -169 -80t-67 -186q0 -78 45 -124t121 -46z" />
    <glyph glyph-name="h" unicode="h" horiz-adv-x="1128" 
d="M61 0l191 1358h313l-67 -496q92 82 235 82q141 0 220 -79.5t79 -225.5q0 -45 -8 -102l-76 -537h-313l76 530q6 42 6 68q0 92 -107 92q-80 0 -117 -56.5t-51 -158.5l-67 -475h-314z" />
    <glyph glyph-name="i" unicode="i" horiz-adv-x="626" 
d="M416 1077q-70 0 -111 42t-41 110q0 84 49 133t125 49q67 0 109.5 -41t42.5 -110q0 -87 -50.5 -135t-123.5 -48zM96 0l99 686h-109l35 240h418l-129 -926h-314z" />
    <glyph glyph-name="j" unicode="j" horiz-adv-x="626" 
d="M416 1077q-70 0 -111 42t-41 110q0 84 49 133t125 49q67 0 109.5 -41t42.5 -110q0 -87 -50.5 -135t-123.5 -48zM-76 -424q-139 0 -215 31l35 237q52 -20 131 -20q63 0 106 19t68.5 58.5t38.5 83.5t23 111l84 590h-109l35 240h418l-111 -787q-10 -75 -20.5 -129.5
t-29.5 -117t-43 -105.5t-62 -86t-86 -68.5t-114.5 -41t-148.5 -15.5z" />
    <glyph glyph-name="k" unicode="k" horiz-adv-x="1140" 
d="M61 0l191 1358h313l-119 -842l355 410h383l-404 -434l287 -492h-377l-250 469l-65 -469h-314z" />
    <glyph glyph-name="l" unicode="l" horiz-adv-x="567" 
d="M61 0l191 1358h313l-190 -1358h-314z" />
    <glyph glyph-name="m" unicode="m" horiz-adv-x="1677" 
d="M61 0l132 926h284l-8 -105q38 55 108 89t154 34q83 0 149 -35t101 -98q112 133 301 133q141 0 220 -79.5t79 -227.5q0 -45 -12 -127l-72 -510h-313l71 504q11 79 11 96q0 90 -97 90q-71 0 -111 -53.5t-57 -171.5l-65 -465h-313l71 504q11 79 11 96q0 90 -97 90
q-71 0 -111 -53.5t-57 -171.5l-65 -465h-314z" />
    <glyph glyph-name="n" unicode="n" horiz-adv-x="1128" 
d="M61 0l132 926h284l-6 -92q100 110 262 110q141 0 220 -79.5t79 -225.5q0 -45 -8 -102l-76 -537h-313l76 530q6 42 6 68q0 92 -107 92q-80 0 -117 -56.5t-51 -158.5l-67 -475h-314z" />
    <glyph glyph-name="o" unicode="o" horiz-adv-x="1183" 
d="M545 -18q-224 0 -353 119t-129 309q0 32 7 79q29 205 185.5 330t385.5 125q220 0 349.5 -116t129.5 -306q0 -40 -6 -84q-29 -212 -186.5 -334t-382.5 -122zM557 242q108 0 174 78.5t66 187.5q0 83 -45 130.5t-125 47.5q-106 0 -173 -81t-67 -189q0 -80 46 -127t124 -47z
" />
    <glyph glyph-name="p" unicode="p" horiz-adv-x="1220" 
d="M4 -406l189 1332h284l-6 -86q104 104 274 104q193 0 302.5 -118t109.5 -304q0 -44 -6 -90q-31 -210 -171.5 -330t-330.5 -120q-178 0 -264 92l-68 -480h-313zM594 242q108 0 174 78.5t66 187.5q0 83 -45 130.5t-125 47.5q-106 0 -173 -80t-67 -184q0 -84 46 -132t124 -48
z" />
    <glyph glyph-name="q" unicode="q" horiz-adv-x="1216" 
d="M651 -424l70 492q-101 -86 -260 -86q-183 0 -290.5 112t-107.5 307q0 37 7 91q35 217 170 334.5t340 117.5q201 0 268 -127l22 109h285l-170 -1213zM557 242q108 0 174 77.5t66 186.5q0 83 -45.5 131.5t-124.5 48.5q-106 0 -173 -80t-67 -188q0 -80 46 -128t124 -48z" />
    <glyph glyph-name="r" unicode="r" horiz-adv-x="710" 
d="M61 0l132 926h284l-6 -90q92 108 240 108q33 0 45 -4l-37 -264q-28 14 -80 14q-93 0 -138.5 -56.5t-58.5 -158.5l-67 -475h-314z" />
    <glyph glyph-name="s" unicode="s" horiz-adv-x="813" 
d="M319 -18q-93 0 -168.5 18t-109.5 39l33 227q35 -23 101 -45t132 -22q119 0 119 82q0 29 -17 50.5t-44 35.5t-59.5 27.5t-65.5 32t-60 44t-44 69t-17 101.5q0 139 94.5 221t269.5 82q82 0 153.5 -16.5t100.5 -32.5l-30 -223q-98 57 -189 57q-52 0 -79 -18.5t-27 -51.5
q0 -24 17 -42t43.5 -30.5t59 -25.5t65.5 -33t59.5 -47t43.5 -73.5t17 -106.5q0 -83 -30.5 -145.5t-86 -99.5t-126 -55.5t-155.5 -18.5z" />
    <glyph glyph-name="t" unicode="t" horiz-adv-x="864" 
d="M518 -12q-168 0 -257 74t-89 208q0 61 18 187l33 229h-176l4 21q43 37 263 248.5t280 273.5h20l-43 -303h248l-35 -240h-245l-35 -235q-15 -101 -15 -123q0 -88 123 -88q79 0 152 41l-37 -256q-23 -13 -82 -25t-127 -12z" />
    <glyph glyph-name="u" unicode="u" horiz-adv-x="1075" 
d="M485 -18q-104 0 -180.5 26t-120 73.5t-64 105t-20.5 128.5q0 39 15 146l65 465h314l-76 -543q-6 -43 -6 -66q0 -84 94 -84q59 0 93 35t44 111l76 547h307l-74 -525q-10 -73 -28 -131t-53 -114t-84.5 -92.5t-126.5 -59t-175 -22.5z" />
    <glyph glyph-name="v" unicode="v" horiz-adv-x="1060" 
d="M455 -18l-389 944h329l140 -416l243 416h348l-651 -944h-20z" />
    <glyph glyph-name="w" unicode="w" horiz-adv-x="1478" 
d="M426 -18l-346 944h330l112 -389l260 389h21l151 -389l228 389h348l-615 -944h-20l-166 424l-283 -424h-20z" />
    <glyph glyph-name="x" unicode="x" horiz-adv-x="1171" 
d="M-41 0l444 463l-301 463h355l153 -273l236 273h362l-432 -463l305 -463h-360l-162 268l-233 -268h-367z" />
    <glyph glyph-name="y" unicode="y" horiz-adv-x="1083" 
d="M41 -406l287 484l-256 848h329l121 -518l277 518h344l-760 -1332h-342z" />
    <glyph glyph-name="z" unicode="z" horiz-adv-x="950" 
d="M-27 0l4 20l474 666h-347l35 240h838l-4 -21l-471 -663h387l-35 -242h-881z" />
    <glyph glyph-name="braceleft" unicode="{" horiz-adv-x="815" 
d="M410 -424q-173 0 -271 72.5t-98 204.5q0 64 21 123t51 103.5t60.5 86t51.5 87t21 89.5q0 66 -30 96.5t-103 36.5l8 47q178 12 178 156q0 45 -14.5 89.5t-31.5 75.5t-31.5 80.5t-14.5 104.5q0 162 120 261.5t314 99.5q123 0 231 -43l-30 -226q-67 41 -170 41
q-72 0 -113 -43t-41 -112q0 -47 23 -96t46 -103.5t23 -114.5q0 -48 -16.5 -83.5t-48 -58t-64.5 -35.5t-78 -23q62 -18 109 -65t47 -122q0 -49 -21 -95t-51 -82.5t-60.5 -71.5t-51.5 -75.5t-21 -80.5q0 -95 113 -95q101 0 195 48l-33 -244q-100 -33 -219 -33z" />
    <glyph glyph-name="bar" unicode="|" horiz-adv-x="593" 
d="M14 -406l244 1733h320l-244 -1733h-320z" />
    <glyph glyph-name="braceright" unicode="}" horiz-adv-x="813" 
d="M178 -424q-141 0 -231 41l33 227q65 -39 165 -39q76 0 117 40t41 116q0 43 -23.5 97.5t-47 114t-23.5 116.5q0 86 58 144t132 75q-60 15 -100.5 52t-40.5 95q0 47 21 92.5t50.5 82t59.5 72.5t51 78t21 85q0 45 -30 70.5t-87 25.5q-93 0 -186 -49l35 242q97 35 221 35
q172 0 267 -76t95 -217q0 -70 -21 -130t-51 -101.5t-60.5 -77.5t-51.5 -76.5t-21 -81.5q0 -48 38 -75t102 -32l-9 -47q-86 -7 -134 -55.5t-48 -124.5q0 -42 23.5 -98t47 -121.5t23.5 -130.5q0 -175 -119 -272t-317 -97z" />
    <glyph glyph-name="asciitilde" unicode="~" 
d="M752 301q-64 0 -124.5 23t-106.5 46t-77 23q-66 0 -84 -86h-225q17 152 102.5 235t223.5 83q57 0 105 -14.5t74.5 -32t60 -32t65.5 -14.5q31 0 52.5 18t28 34.5t9.5 33.5h227q-15 -152 -104.5 -234.5t-226.5 -82.5z" />
    <glyph glyph-name="uni00A0" unicode="&#xa0;" horiz-adv-x="430" 
 />
    <glyph glyph-name="exclamdown" unicode="&#xa1;" horiz-adv-x="651" 
d="M354 573q-75 0 -122.5 47t-47.5 123q0 88 57.5 142.5t137.5 54.5q79 0 124.5 -46t45.5 -122q0 -84 -58.5 -141.5t-136.5 -57.5zM41 -406l131 879h311l-106 -879h-336z" />
    <glyph glyph-name="cent" unicode="&#xa2;" horiz-adv-x="978" 
d="M522 0l27 184q-90 4 -165.5 31t-135.5 77t-93.5 130t-33.5 182q0 38 6 84q33 228 180.5 344t376.5 119l25 176h127l-27 -186q115 -13 184 -47l-35 -244q-94 60 -180 74l-71 -512q90 13 213 92l-39 -271q-72 -36 -205 -47l-27 -186h-127zM580 412l73 514
q-120 -17 -186 -100.5t-66 -204.5q0 -85 47 -141t132 -68z" />
    <glyph glyph-name="sterling" unicode="&#xa3;" horiz-adv-x="989" 
d="M8 0l4 20q131 124 229.5 260t98.5 230v12h-238l37 256h113q-25 70 -25 137q0 83 30.5 159t88.5 138t153.5 99t215.5 37q108 0 195 -25.5t132 -62.5l-38 -281q-32 37 -95 68.5t-137 31.5q-97 0 -159 -56t-62 -146q0 -53 18 -99h318l-37 -256h-205q8 -19 8 -47
q0 -112 -92 -211h377l-37 -264h-893z" />
    <glyph glyph-name="currency" unicode="&#xa4;" 
d="M326 172l-209 201l157 155q-22 58 -22 121q0 71 24 129l-159 160l209 199l157 -156q61 25 125 25q66 0 127 -25l160 156l207 -199l-162 -160q25 -64 25 -129q0 -57 -23 -121l160 -155l-209 -201l-150 150q-69 -29 -135 -29q-68 0 -129 24zM608 506q64 0 105 37t41 104
q0 68 -42 108t-104 40q-63 0 -103 -40t-40 -108q0 -66 40 -103.5t103 -37.5z" />
    <glyph glyph-name="yen" unicode="&#xa5;" horiz-adv-x="1214" 
d="M381 0l39 281h-297l33 229h307l-47 133h-271l33 229h125l-184 455h344l178 -561l334 561h360l-311 -455h113l-33 -229h-258l-88 -133h299l-33 -229h-291l-39 -281h-313z" />
    <glyph glyph-name="brokenbar" unicode="&#xa6;" horiz-adv-x="593" 
d="M164 649l94 678h320l-95 -678h-319zM14 -406l97 678h319l-96 -678h-320z" />
    <glyph glyph-name="section" unicode="&#xa7;" horiz-adv-x="890" 
d="M301 -426q-102 0 -188 18.5t-136 45.5l33 231q133 -68 264 -68q83 0 137 32.5t54 94.5q0 38 -23 69t-59.5 54t-81 45t-89 49.5t-81 61t-59.5 85t-23 116.5q0 121 73.5 204.5t186.5 112.5q-143 95 -143 260q0 168 123.5 265.5t316.5 97.5q148 0 258 -54l-33 -227
q-94 53 -208 53q-79 0 -125.5 -36.5t-46.5 -92.5q0 -37 23 -66.5t60 -51.5t81 -43.5t88.5 -49.5t81.5 -62t60 -87.5t23 -120.5q0 -70 -24 -127.5t-64.5 -95.5t-86 -61.5t-95.5 -35.5q87 -54 119.5 -120t32.5 -146q0 -170 -116 -260t-333 -90zM438 291q71 21 116.5 66
t45.5 114q0 56 -30 93.5t-91 68.5q-74 -23 -118 -67.5t-44 -110.5q0 -57 32.5 -94.5t88.5 -69.5z" />
    <glyph glyph-name="dieresis" unicode="&#xa8;" horiz-adv-x="1038" 
d="M383 1077q-71 0 -111.5 40.5t-40.5 105.5q0 82 54.5 135t132.5 53q66 0 106.5 -41t40.5 -104q0 -86 -51 -137.5t-131 -51.5zM852 1077q-70 0 -111 40.5t-41 105.5q0 82 54.5 135t132.5 53q66 0 106.5 -41t40.5 -104q0 -86 -51 -137.5t-131 -51.5z" />
    <glyph glyph-name="copyright" unicode="&#xa9;" horiz-adv-x="1562" 
d="M807 -20q-139 0 -265 52t-218 142t-146.5 218t-54.5 272t54.5 272t146.5 218t218 142t265 52t265.5 -52t219.5 -142t148 -218t55 -272t-55 -272t-148 -218t-219.5 -142t-265.5 -52zM809 176q208 0 336.5 137.5t128.5 352.5q0 214 -128.5 349.5t-336.5 135.5
q-206 0 -335.5 -136t-129.5 -349q0 -215 129.5 -352.5t335.5 -137.5zM836 326q-71 0 -132.5 20.5t-110.5 59.5t-77.5 104t-28.5 147q0 158 96.5 253.5t258.5 95.5q97 0 174 -35v-185q-20 19 -61 33.5t-83 14.5q-69 0 -115 -43.5t-46 -128.5q0 -160 161 -160q87 0 150 49
v-184q-72 -41 -186 -41z" />
    <glyph glyph-name="ordfeminine" unicode="&#xaa;" horiz-adv-x="772" 
d="M492 1348q294 0 294 -232q0 -15 -4 -55l-55 -397h-178l6 61q-76 -76 -190 -76q-116 0 -179 53t-63 144q0 112 85 174.5t226 62.5q65 0 127 -20l2 14q2 14 2 27q0 38 -30 52.5t-91 14.5q-54 0 -115 -13.5t-91 -31.5l26 189q105 33 228 33zM434 809q92 0 107 104l2 13
q-35 14 -84 14q-44 0 -71.5 -20t-27.5 -54q0 -57 74 -57zM80 391l26 187h629l-26 -187h-629z" />
    <glyph glyph-name="guillemotleft" unicode="&#xab;" horiz-adv-x="1456" 
d="M311 152l-243 321l329 322h371l-362 -326l249 -317h-344zM920 152l-244 321l330 322h370l-362 -326l250 -317h-344z" />
    <glyph glyph-name="logicalnot" unicode="&#xac;" 
d="M741 170l50 350h-627l33 240h907l-82 -590h-281z" />
    <glyph glyph-name="uni00AD" unicode="&#xad;" horiz-adv-x="577" 
d="M53 377l35 239h447l-35 -239h-447z" />
    <glyph glyph-name="registered" unicode="&#xae;" horiz-adv-x="1562" 
d="M807 -20q-139 0 -265 52t-218 142t-146.5 218t-54.5 272t54.5 272t146.5 218t218 142t265 52t265.5 -52t219.5 -142t148 -218t55 -272t-55 -272t-148 -218t-219.5 -142t-265.5 -52zM809 176q208 0 336.5 137.5t128.5 352.5q0 214 -128.5 349.5t-336.5 135.5
q-206 0 -335.5 -136t-129.5 -349q0 -215 129.5 -352.5t335.5 -137.5zM571 334v663h271q39 0 72 -4.5t68.5 -19t59.5 -38t40 -65.5t16 -98q0 -72 -26.5 -124t-76.5 -77l127 -237h-213l-102 211h-45v-211h-191zM762 680h33q57 0 83.5 19.5t26.5 72.5q0 49 -28.5 65.5
t-75.5 16.5h-39v-174z" />
    <glyph glyph-name="macron" unicode="&#xaf;" horiz-adv-x="1048" 
d="M303 1118l33 238h647l-33 -238h-647z" />
    <glyph glyph-name="degree" unicode="&#xb0;" horiz-adv-x="1079" 
d="M629 836q-111 0 -186.5 72t-75.5 184q0 111 76 183.5t186 72.5t186 -72.5t76 -183.5q0 -112 -75.5 -184t-186.5 -72zM629 989q43 0 70.5 27.5t27.5 75.5q0 46 -28 74t-70 28t-70.5 -27t-28.5 -75t28 -75.5t71 -27.5z" />
    <glyph glyph-name="plusminus" unicode="&#xb1;" 
d="M459 328l45 327h-314l33 240h316l45 326h280l-45 -326h311l-32 -240h-314l-45 -327h-280zM98 0l33 240h907l-32 -240h-908z" />
    <glyph glyph-name="uni00B2" unicode="&#xb2;" horiz-adv-x="788" 
d="M115 539l4 20l282 356q58 75 74.5 104.5t16.5 61.5q0 30 -21.5 49t-64.5 19q-91 0 -199 -94l33 231q33 24 94 43t133 19q129 0 194.5 -63t65.5 -167q0 -77 -38 -143.5t-146 -196.5l-39 -47h190l-26 -192h-553z" />
    <glyph glyph-name="uni00B3" unicode="&#xb3;" horiz-adv-x="786" 
d="M776 1327l-4 -20l-192 -297q53 -14 93 -62t40 -127q0 -153 -93 -228t-245 -75q-140 0 -223 47l28 211q76 -59 185 -59q114 0 114 96q0 32 -22 52t-64 20q-60 0 -117 -43l-20 18l178 275h-203l27 192h518z" />
    <glyph glyph-name="acute" unicode="&#xb4;" horiz-adv-x="1054" 
d="M283 1065l301 350h420l-406 -350h-315z" />
    <glyph glyph-name="uni00B5" unicode="&#xb5;" horiz-adv-x="1134" 
d="M760 926h313l-131 -926h-285l9 100q-26 -54 -74.5 -86t-102.5 -32q-77 0 -118 36l-60 -424h-307l189 1332h313l-68 -490q-10 -67 -10 -102q0 -52 24.5 -76.5t79.5 -24.5q36 0 62.5 13.5t42.5 32.5t28 57.5t18.5 70.5t14.5 89z" />
    <glyph glyph-name="paragraph" unicode="&#xb6;" horiz-adv-x="1710" 
d="M535 -424q-123 0 -199 37l31 217q23 -10 73 -10q61 0 83.5 31.5t37.5 117.5l64 447h-15q-76 0 -137.5 6.5t-132.5 29.5t-119 61.5t-80 107.5t-32 163q0 39 8 97q13 88 44.5 158t70.5 116t94.5 79.5t105 51t113 27.5t107 12t98.5 2h1052l-37 -262h-237l-207 -1471h-324
l207 1471h-166l-168 -1194q-9 -70 -27.5 -119t-55 -91.5t-99.5 -63.5t-153 -21z" />
    <glyph glyph-name="periodcentered" unicode="&#xb7;" horiz-adv-x="622" 
d="M301 293q-79 0 -124.5 46t-45.5 122q0 84 58.5 141t136.5 57q75 0 122.5 -47t47.5 -123q0 -88 -57.5 -142t-137.5 -54z" />
    <glyph glyph-name="cedilla" unicode="&#xb8;" horiz-adv-x="1054" 
d="M469 -80q63 -5 101 -40t38 -101q0 -203 -264 -203q-89 0 -145 25l20 139q35 -23 92 -23q37 0 59.5 15t22.5 45q0 22 -13.5 35.5t-39.5 13.5q-39 0 -66 -31l-20 15l102 241l172 -2z" />
    <glyph glyph-name="uni00B9" unicode="&#xb9;" horiz-adv-x="794" 
d="M330 539l73 518l-206 -90l28 200l430 181h21l-115 -809h-231z" />
    <glyph glyph-name="ordmasculine" unicode="&#xba;" horiz-adv-x="847" 
d="M455 649q-148 0 -233 76t-85 215q0 55 13 111q34 138 137.5 216.5t257.5 78.5q148 0 231.5 -75.5t83.5 -215.5q0 -59 -12 -111q-34 -138 -136.5 -216.5t-256.5 -78.5zM471 834q59 0 98 39.5t54 111.5q6 34 6 55q0 61 -27.5 92t-75.5 31q-59 0 -97.5 -40.5t-53.5 -112.5
q-6 -34 -6 -56q0 -61 27 -90.5t75 -29.5zM98 391l27 187h629l-27 -187h-629z" />
    <glyph glyph-name="guillemotright" unicode="&#xbb;" horiz-adv-x="1456" 
d="M84 152l362 321l-249 322h344l243 -322l-329 -321h-371zM692 152l363 321l-250 322h344l244 -322l-330 -321h-371z" />
    <glyph glyph-name="onequarter" unicode="&#xbc;" horiz-adv-x="1990" 
d="M330 539l73 518l-206 -90l28 200l430 181h21l-115 -809h-231zM410 0l923 1327h322l-924 -1327h-321zM1475 0l12 102h-371l4 21l652 686h20l-76 -559h109l-21 -148h-114l-13 -102h-202zM1432 250h79l15 96z" />
    <glyph glyph-name="onehalf" unicode="&#xbd;" horiz-adv-x="1990" 
d="M330 539l73 518l-206 -90l28 200l430 181h21l-115 -809h-231zM446 0l924 1327h322l-924 -1327h-322zM1303 0l4 20l282 357q57 74 73.5 103.5t16.5 62.5q0 30 -21.5 48.5t-64.5 18.5q-90 0 -198 -94l32 232q33 24 94 42.5t134 18.5q129 0 194.5 -62.5t65.5 -166.5
q0 -77 -38 -143.5t-146 -196.5l-39 -47h190l-27 -193h-552z" />
    <glyph glyph-name="threequarters" unicode="&#xbe;" horiz-adv-x="1990" 
d="M713 821q0 -153 -93 -228t-245 -75q-140 0 -223 47l28 211q76 -59 185 -59q114 0 114 96q0 32 -22 52t-64 20q-60 0 -117 -43l-20 18l178 275h-203l27 192h518l-4 -20l-192 -297q53 -14 93 -62t40 -127zM1331 1327h322l-924 -1327h-321zM1716 250h109l-21 -148h-114
l-13 -102h-202l12 102h-371v17l656 690h20zM1511 250l15 96l-94 -96h79z" />
    <glyph glyph-name="questiondown" unicode="&#xbf;" horiz-adv-x="880" 
d="M524 578q-75 0 -122.5 47t-47.5 123q0 88 57.5 142t137.5 54q79 0 124.5 -46t45.5 -122q0 -84 -58.5 -141t-136.5 -57zM420 -426q-197 0 -306.5 100t-109.5 267q0 161 87 264t228 117l21 151h311l-43 -303q-122 0 -200 -48.5t-78 -154.5q0 -64 41 -96.5t112 -32.5
q150 0 275 109l-41 -289q-42 -30 -123 -57t-174 -27z" />
    <glyph glyph-name="Agrave" unicode="&#xc0;" horiz-adv-x="1308" 
d="M696 1444l-309 350h406l206 -350h-303zM-37 0l807 1348h21l423 -1348h-335l-50 180h-421l-101 -180h-344zM537 422h237l-78 291z" />
    <glyph glyph-name="Aacute" unicode="&#xc1;" horiz-adv-x="1308" 
d="M584 1444l301 350h420l-406 -350h-315zM-37 0l807 1348h21l423 -1348h-335l-50 180h-421l-101 -180h-344zM537 422h237l-78 291z" />
    <glyph glyph-name="Acircumflex" unicode="&#xc2;" horiz-adv-x="1308" 
d="M408 1444l434 368l332 -368h-287l-74 94l-98 -94h-307zM-37 0l807 1348h21l423 -1348h-335l-50 180h-421l-101 -180h-344zM537 422h237l-78 291z" />
    <glyph glyph-name="Atilde" unicode="&#xc3;" horiz-adv-x="1308" 
d="M946 1466q-53 0 -104 18.5t-91 37t-67 18.5q-62 0 -74 -63h-184q14 128 79.5 201t176.5 73q56 0 108.5 -18.5t92 -37t63.5 -18.5q35 0 52 20.5t22 43.5h186q-9 -122 -78 -198.5t-182 -76.5zM-37 0l807 1348h21l423 -1348h-335l-50 180h-421l-101 -180h-344zM537 422h237
l-78 291z" />
    <glyph glyph-name="Adieresis" unicode="&#xc4;" horiz-adv-x="1308" 
d="M575 1450q-75 0 -121 46t-46 118q0 79 53 131.5t135 52.5q74 0 119 -46t45 -118q0 -79 -52 -131.5t-133 -52.5zM1044 1450q-75 0 -121 46t-46 118q0 79 53 131.5t135 52.5q74 0 119 -46t45 -118q0 -79 -52 -131.5t-133 -52.5zM-37 0l807 1348h21l423 -1348h-335l-50 180
h-421l-101 -180h-344zM537 422h237l-78 291z" />
    <glyph glyph-name="Aring" unicode="&#xc5;" horiz-adv-x="1308" 
d="M825 1237l389 -1237h-335l-50 180h-421l-101 -180h-344l744 1241q-66 18 -104 66.5t-38 119.5q0 103 71 165.5t173 62.5q92 0 149.5 -51.5t57.5 -139.5q0 -97 -53.5 -154.5t-137.5 -72.5zM795 1516q-31 0 -52.5 -22.5t-21.5 -55.5q0 -29 17 -46.5t48 -17.5q32 0 53 21
t21 55q0 29 -18 47.5t-47 18.5zM537 422h237l-78 291z" />
    <glyph glyph-name="AE" unicode="&#xc6;" horiz-adv-x="1826" 
d="M-37 0l795 1327h639l84 -262h-602l82 -258h462l82 -260h-463l88 -283h588l84 -264h-923l-50 180h-421l-101 -180h-344zM537 422h237l-78 291z" />
    <glyph glyph-name="Ccedilla" unicode="&#xc7;" horiz-adv-x="1294" 
d="M909 1057q-176 0 -302 -109t-156 -276q-7 -40 -7 -74q0 -148 85.5 -237t256.5 -89q89 0 173.5 22.5t124 42.5t87.5 50l-47 -332q-45 -26 -136 -48.5t-197 -26.5l-27 -60q63 -5 101 -40t38 -101q0 -203 -264 -203q-89 0 -145 25l20 139q34 -23 92 -23q37 0 59.5 15
t22.5 45q0 22 -13.5 35.5t-39.5 13.5q-39 0 -66 -31l-20 15l76 180q-164 24 -281.5 107t-175 205.5t-57.5 272.5q0 59 10 117q57 307 260.5 481.5t533.5 174.5q119 0 213.5 -28t143.5 -65l-43 -303q-140 105 -320 105z" />
    <glyph glyph-name="Egrave" unicode="&#xc8;" horiz-adv-x="1089" 
d="M690 1444l-309 350h405l207 -350h-303zM78 0l186 1327h840l-37 -262h-516l-37 -258h358l-36 -260h-359l-39 -283h541l-37 -264h-864z" />
    <glyph glyph-name="Eacute" unicode="&#xc9;" horiz-adv-x="1089" 
d="M455 1444l301 350h420l-406 -350h-315zM78 0l186 1327h840l-37 -262h-516l-37 -258h358l-36 -260h-359l-39 -283h541l-37 -264h-864z" />
    <glyph glyph-name="Ecircumflex" unicode="&#xca;" horiz-adv-x="1089" 
d="M319 1444l435 368l331 -368h-286l-74 94l-98 -94h-308zM78 0l186 1327h840l-37 -262h-516l-37 -258h358l-36 -260h-359l-39 -283h541l-37 -264h-864z" />
    <glyph glyph-name="Edieresis" unicode="&#xcb;" horiz-adv-x="1089" 
d="M487 1450q-75 0 -121.5 46t-46.5 118q0 79 53 131.5t136 52.5q74 0 119 -46t45 -118q0 -79 -52 -131.5t-133 -52.5zM956 1450q-76 0 -122 46t-46 118q0 79 53 131.5t136 52.5q74 0 119 -46t45 -118q0 -79 -52 -131.5t-133 -52.5zM78 0l186 1327h840l-37 -262h-516
l-37 -258h358l-36 -260h-359l-39 -283h541l-37 -264h-864z" />
    <glyph glyph-name="Igrave" unicode="&#xcc;" horiz-adv-x="610" 
d="M301 1444l-309 350h405l207 -350h-303zM78 0l186 1327h324l-187 -1327h-323z" />
    <glyph glyph-name="Iacute" unicode="&#xcd;" horiz-adv-x="610" 
d="M281 1444l301 350h419l-405 -350h-315zM78 0l186 1327h324l-187 -1327h-323z" />
    <glyph glyph-name="Icircumflex" unicode="&#xce;" horiz-adv-x="610" 
d="M57 1444l435 368l331 -368h-286l-74 94l-98 -94h-308zM78 0l186 1327h324l-187 -1327h-323z" />
    <glyph glyph-name="Idieresis" unicode="&#xcf;" horiz-adv-x="610" 
d="M225 1450q-75 0 -121.5 46t-46.5 118q0 79 53 131.5t136 52.5q74 0 119 -46t45 -118q0 -79 -52 -131.5t-133 -52.5zM694 1450q-76 0 -122 46t-46 118q0 79 53 131.5t136 52.5q74 0 119 -46t45 -118q0 -79 -52 -131.5t-133 -52.5zM78 0l186 1327h324l-187 -1327h-323z" />
    <glyph glyph-name="Eth" unicode="&#xd0;" horiz-adv-x="1476" 
d="M612 1327q69 0 118 -1.5t120 -7t123 -15.5t115.5 -30t108.5 -47t90.5 -68.5t73 -93.5t45 -123.5t17.5 -156.5q0 -72 -10 -143q-13 -93 -42 -172.5t-67 -139.5t-89.5 -109t-105.5 -82.5t-119.5 -59t-126.5 -40t-131.5 -23.5t-130 -12t-126.5 -3h-319l77 553h-223l35 248
h223l74 526h270zM1083 672q7 51 7 88q0 76 -23.5 132.5t-62 90t-98 53t-120.5 26.5t-141 7h-16l-37 -268h231l-35 -248h-231l-41 -293h6q116 0 205 19t165.5 64t125 127.5t65.5 201.5z" />
    <glyph glyph-name="Ntilde" unicode="&#xd1;" horiz-adv-x="1445" 
d="M1016 1466q-53 0 -104 18.5t-91 37t-67 18.5q-62 0 -74 -63h-184q14 128 79.5 201t176.5 73q56 0 108.5 -18.5t92 -37t63.5 -18.5q35 0 52 20.5t22 43.5h186q-9 -122 -78 -198.5t-182 -76.5zM1214 -20l-722 722l-99 -702h-315l190 1348h21l721 -721l98 700h315
l-188 -1347h-21z" />
    <glyph glyph-name="Ograve" unicode="&#xd2;" horiz-adv-x="1570" 
d="M913 1444l-309 350h406l207 -350h-304zM743 -20q-306 0 -469 161.5t-163 429.5q0 60 8 115q43 301 250 481.5t512 180.5q294 0 464.5 -153.5t170.5 -434.5q0 -54 -9 -115q-27 -194 -129 -344.5t-267 -235.5t-368 -85zM754 272q171 0 285 110.5t139 289.5q4 29 4 73
q0 142 -81 227t-231 85q-171 0 -285.5 -110t-138.5 -283q-4 -31 -4 -74q0 -142 80.5 -230t231.5 -88z" />
    <glyph glyph-name="Oacute" unicode="&#xd3;" horiz-adv-x="1570" 
d="M678 1444l301 350h420l-406 -350h-315zM743 -20q-306 0 -469 161.5t-163 429.5q0 60 8 115q43 301 250 481.5t512 180.5q294 0 464.5 -153.5t170.5 -434.5q0 -54 -9 -115q-27 -194 -129 -344.5t-267 -235.5t-368 -85zM754 272q171 0 285 110.5t139 289.5q4 29 4 73
q0 142 -81 227t-231 85q-171 0 -285.5 -110t-138.5 -283q-4 -31 -4 -74q0 -142 80.5 -230t231.5 -88z" />
    <glyph glyph-name="Ocircumflex" unicode="&#xd4;" horiz-adv-x="1570" 
d="M543 1444l434 368l332 -368h-287l-74 94l-98 -94h-307zM743 -20q-306 0 -469 161.5t-163 429.5q0 60 8 115q43 301 250 481.5t512 180.5q294 0 464.5 -153.5t170.5 -434.5q0 -54 -9 -115q-27 -194 -129 -344.5t-267 -235.5t-368 -85zM754 272q171 0 285 110.5t139 289.5
q4 29 4 73q0 142 -81 227t-231 85q-171 0 -285.5 -110t-138.5 -283q-4 -31 -4 -74q0 -142 80.5 -230t231.5 -88z" />
    <glyph glyph-name="Otilde" unicode="&#xd5;" horiz-adv-x="1570" 
d="M1081 1466q-53 0 -104 18.5t-91 37t-67 18.5q-62 0 -74 -63h-184q14 128 79.5 201t176.5 73q56 0 108.5 -18.5t92 -37t63.5 -18.5q35 0 52 20.5t22 43.5h186q-9 -122 -78 -198.5t-182 -76.5zM743 -20q-306 0 -469 161.5t-163 429.5q0 60 8 115q43 301 250 481.5
t512 180.5q294 0 464.5 -153.5t170.5 -434.5q0 -54 -9 -115q-27 -194 -129 -344.5t-267 -235.5t-368 -85zM754 272q171 0 285 110.5t139 289.5q4 29 4 73q0 142 -81 227t-231 85q-171 0 -285.5 -110t-138.5 -283q-4 -31 -4 -74q0 -142 80.5 -230t231.5 -88z" />
    <glyph glyph-name="Odieresis" unicode="&#xd6;" horiz-adv-x="1570" 
d="M711 1450q-75 0 -121.5 46t-46.5 118q0 79 53 131.5t135 52.5q74 0 119 -46t45 -118q0 -79 -51.5 -131.5t-132.5 -52.5zM1180 1450q-76 0 -122 46t-46 118q0 79 53 131.5t135 52.5q74 0 119 -46t45 -118q0 -79 -51.5 -131.5t-132.5 -52.5zM743 -20q-306 0 -469 161.5
t-163 429.5q0 60 8 115q43 301 250 481.5t512 180.5q294 0 464.5 -153.5t170.5 -434.5q0 -54 -9 -115q-27 -194 -129 -344.5t-267 -235.5t-368 -85zM754 272q171 0 285 110.5t139 289.5q4 29 4 73q0 142 -81 227t-231 85q-171 0 -285.5 -110t-138.5 -283q-4 -31 -4 -74
q0 -142 80.5 -230t231.5 -88z" />
    <glyph glyph-name="multiply" unicode="&#xd7;" 
d="M262 -20l-188 208l321 281l-235 274l223 199l238 -276l325 286l189 -209l-324 -286l240 -281l-224 -196l-243 280z" />
    <glyph glyph-name="Oslash" unicode="&#xd8;" horiz-adv-x="1570" 
d="M39 -61l203 237q-131 152 -131 395q0 60 8 115q43 301 250 481.5t512 180.5q176 0 309 -56l98 115h281l-201 -236q148 -154 148 -411q0 -54 -9 -115q-27 -194 -129 -344.5t-267 -235.5t-368 -85q-191 0 -331 67l-93 -108h-280zM469 444l510 598q-44 15 -109 15
q-171 0 -285.5 -110t-138.5 -283q-4 -31 -4 -74q0 -82 27 -146zM754 272q171 0 285 110.5t139 289.5q4 29 4 73q0 97 -37 164l-522 -614q44 -23 131 -23z" />
    <glyph glyph-name="Ugrave" unicode="&#xd9;" horiz-adv-x="1357" 
d="M801 1444l-309 350h405l207 -350h-303zM627 -20q-239 0 -364.5 109.5t-125.5 324.5q0 54 21 198l98 715h324l-109 -774q-10 -75 -10 -117q0 -86 42.5 -131t139.5 -45q125 0 186 73.5t84 231.5l109 762h321l-110 -788q-8 -55 -17.5 -99.5t-30.5 -104.5t-49 -107t-75 -95.5
t-105.5 -80t-143 -52t-185.5 -20.5z" />
    <glyph glyph-name="Uacute" unicode="&#xda;" horiz-adv-x="1357" 
d="M565 1444l301 350h420l-405 -350h-316zM627 -20q-239 0 -364.5 109.5t-125.5 324.5q0 54 21 198l98 715h324l-109 -774q-10 -75 -10 -117q0 -86 42.5 -131t139.5 -45q125 0 186 73.5t84 231.5l109 762h321l-110 -788q-8 -55 -17.5 -99.5t-30.5 -104.5t-49 -107t-75 -95.5
t-105.5 -80t-143 -52t-185.5 -20.5z" />
    <glyph glyph-name="Ucircumflex" unicode="&#xdb;" horiz-adv-x="1357" 
d="M430 1444l434 368l332 -368h-287l-73 94l-99 -94h-307zM627 -20q-239 0 -364.5 109.5t-125.5 324.5q0 54 21 198l98 715h324l-109 -774q-10 -75 -10 -117q0 -86 42.5 -131t139.5 -45q125 0 186 73.5t84 231.5l109 762h321l-110 -788q-8 -55 -17.5 -99.5t-30.5 -104.5
t-49 -107t-75 -95.5t-105.5 -80t-143 -52t-185.5 -20.5z" />
    <glyph glyph-name="Udieresis" unicode="&#xdc;" horiz-adv-x="1357" 
d="M598 1450q-76 0 -122 46t-46 118q0 79 53 131.5t135 52.5q74 0 119 -46t45 -118q0 -79 -51.5 -131.5t-132.5 -52.5zM1067 1450q-75 0 -121.5 46t-46.5 118q0 79 53 131.5t135 52.5q74 0 119 -46t45 -118q0 -79 -51.5 -131.5t-132.5 -52.5zM627 -20q-239 0 -364.5 109.5
t-125.5 324.5q0 54 21 198l98 715h324l-109 -774q-10 -75 -10 -117q0 -86 42.5 -131t139.5 -45q125 0 186 73.5t84 231.5l109 762h321l-110 -788q-8 -55 -17.5 -99.5t-30.5 -104.5t-49 -107t-75 -95.5t-105.5 -80t-143 -52t-185.5 -20.5z" />
    <glyph glyph-name="Yacute" unicode="&#xdd;" horiz-adv-x="1335" 
d="M553 1444l301 350h420l-406 -350h-315zM436 0l76 526l-362 801h346l213 -518l356 518h362l-591 -801l-76 -526h-324z" />
    <glyph glyph-name="Thorn" unicode="&#xde;" horiz-adv-x="1198" 
d="M586 1120q66 0 119.5 -3t116 -13t110 -27.5t94 -47.5t76.5 -71t48.5 -101.5t18.5 -135.5q0 -55 -6 -98q-11 -77 -40.5 -139.5t-69 -105t-94 -74t-108 -49.5t-119.5 -28.5t-119.5 -14t-116.5 -3.5h-66l-29 -209h-323l186 1327h324l-29 -207h27zM834 647q6 30 6 58
q0 44 -14.5 74.5t-37 47.5t-61.5 26.5t-75.5 12t-92.5 2.5h-35l-57 -405h31q41 0 64 0.5t60 4t59 10.5t50.5 20.5t46 32.5t33 48.5t23.5 67.5z" />
    <glyph glyph-name="germandbls" unicode="&#xdf;" horiz-adv-x="1302" 
d="M1223 926l-2 -21l-172 -354q75 -22 117 -84t42 -150q0 -168 -104.5 -251.5t-288.5 -83.5q-151 0 -219 28l33 228q62 -23 139 -23q125 0 125 94q0 38 -25 56t-65 18q-55 0 -96 -33l-25 19l152 317h-281l-137 -985h-314l138 985h-160l35 240h159l11 78q26 196 122.5 292.5
t292.5 96.5q75 0 134.5 -13.5t83.5 -25.5l-35 -250q-15 11 -51 22t-76 11q-44 0 -75.5 -14t-48.5 -39.5t-25.5 -51t-12.5 -59.5l-6 -47h635z" />
    <glyph glyph-name="agrave" unicode="&#xe0;" horiz-adv-x="1101" 
d="M881 1065h-303l-310 350h406zM565 944q204 0 316 -78t112 -233q0 -38 -12 -127l-72 -506h-284l6 88q-95 -106 -285 -106q-144 0 -225.5 70.5t-81.5 195.5q0 81 38 147t101 106t140.5 61.5t160.5 21.5q117 0 199 -35v4q4 28 4 49q0 57 -39 92t-151 35q-131 0 -293 -92
l34 235q147 72 332 72zM463 176q75 0 125 47t63 144v4q-47 30 -121 30q-80 0 -128 -35.5t-48 -97.5q0 -45 30.5 -68.5t78.5 -23.5z" />
    <glyph glyph-name="aacute" unicode="&#xe1;" horiz-adv-x="1101" 
d="M1104 1415l-406 -350h-315l301 350h420zM565 944q204 0 316 -78t112 -233q0 -38 -12 -127l-72 -506h-284l6 88q-95 -106 -285 -106q-144 0 -225.5 70.5t-81.5 195.5q0 81 38 147t101 106t140.5 61.5t160.5 21.5q117 0 199 -35v4q4 28 4 49q0 57 -39 92t-151 35
q-131 0 -293 -92l34 235q147 72 332 72zM463 176q75 0 125 47t63 144v4q-47 30 -121 30q-80 0 -128 -35.5t-48 -97.5q0 -45 30.5 -68.5t78.5 -23.5z" />
    <glyph glyph-name="acircumflex" unicode="&#xe2;" horiz-adv-x="1101" 
d="M629 1159l-99 -94h-307l434 369l332 -369h-287zM565 944q204 0 316 -78t112 -233q0 -38 -12 -127l-72 -506h-284l6 88q-95 -106 -285 -106q-144 0 -225.5 70.5t-81.5 195.5q0 81 38 147t101 106t140.5 61.5t160.5 21.5q117 0 199 -35v4q4 28 4 49q0 57 -39 92t-151 35
q-131 0 -293 -92l34 235q147 72 332 72zM463 176q75 0 125 47t63 144v4q-47 30 -121 30q-80 0 -128 -35.5t-48 -97.5q0 -45 30.5 -68.5t78.5 -23.5z" />
    <glyph glyph-name="atilde" unicode="&#xe3;" horiz-adv-x="1101" 
d="M500 1161q-62 0 -74 -63h-184q14 128 79.5 201t176.5 73q56 0 108.5 -18.5t92 -37t63.5 -18.5q35 0 52 20.5t22 43.5h186q-9 -122 -78 -198.5t-182 -76.5q-53 0 -104 18.5t-91 37t-67 18.5zM565 944q204 0 316 -78t112 -233q0 -38 -12 -127l-72 -506h-284l6 88
q-95 -106 -285 -106q-144 0 -225.5 70.5t-81.5 195.5q0 81 38 147t101 106t140.5 61.5t160.5 21.5q117 0 199 -35v4q4 28 4 49q0 57 -39 92t-151 35q-131 0 -293 -92l34 235q147 72 332 72zM463 176q75 0 125 47t63 144v4q-47 30 -121 30q-80 0 -128 -35.5t-48 -97.5
q0 -45 30.5 -68.5t78.5 -23.5z" />
    <glyph glyph-name="adieresis" unicode="&#xe4;" horiz-adv-x="1101" 
d="M373 1077q-71 0 -111.5 40.5t-40.5 105.5q0 82 54.5 135t132.5 53q66 0 106.5 -41t40.5 -104q0 -86 -51 -137.5t-131 -51.5zM842 1077q-70 0 -111 40.5t-41 105.5q0 82 54.5 135t132.5 53q66 0 106.5 -41t40.5 -104q0 -86 -51 -137.5t-131 -51.5zM565 944q204 0 316 -78
t112 -233q0 -38 -12 -127l-72 -506h-284l6 88q-95 -106 -285 -106q-144 0 -225.5 70.5t-81.5 195.5q0 81 38 147t101 106t140.5 61.5t160.5 21.5q117 0 199 -35v4q4 28 4 49q0 57 -39 92t-151 35q-131 0 -293 -92l34 235q147 72 332 72zM463 176q75 0 125 47t63 144v4
q-47 30 -121 30q-80 0 -128 -35.5t-48 -97.5q0 -45 30.5 -68.5t78.5 -23.5z" />
    <glyph glyph-name="aring" unicode="&#xe5;" horiz-adv-x="1101" 
d="M616 1044q-91 0 -147.5 53t-56.5 142q0 103 70.5 165t172.5 62q92 0 149.5 -51t57.5 -139q0 -114 -71 -173t-175 -59zM641 1327q-31 0 -52.5 -22.5t-21.5 -55.5q0 -29 17.5 -46t48.5 -17q32 0 53 21t21 55q0 29 -18.5 47t-47.5 18zM565 944q204 0 316 -78t112 -233
q0 -38 -12 -127l-72 -506h-284l6 88q-95 -106 -285 -106q-144 0 -225.5 70.5t-81.5 195.5q0 81 38 147t101 106t140.5 61.5t160.5 21.5q117 0 199 -35v4q4 28 4 49q0 57 -39 92t-151 35q-131 0 -293 -92l34 235q147 72 332 72zM463 176q75 0 125 47t63 144v4q-47 30 -121 30
q-80 0 -128 -35.5t-48 -97.5q0 -45 30.5 -68.5t78.5 -23.5z" />
    <glyph glyph-name="ae" unicode="&#xe6;" horiz-adv-x="1628" 
d="M1532 371h-608v-4q0 -142 206 -142q174 0 340 78l-36 -256q-46 -22 -135 -43.5t-199 -21.5q-296 0 -375 159q-44 -70 -133 -114.5t-225 -44.5q-158 0 -243 70t-85 196q0 81 38 147t101 106t140.5 61.5t160.5 21.5q117 0 199 -35v4q4 28 4 49q0 57 -39 92t-151 35
q-131 0 -293 -92l34 235q147 72 332 72q199 0 266 -102q53 53 136.5 77.5t169.5 24.5q110 0 193 -29t132 -80t73 -115.5t24 -141.5q0 -97 -27 -207zM1124 702q-65 0 -113 -39.5t-61 -105.5h299q4 12 4 31q0 51 -35.5 82.5t-93.5 31.5zM463 176q75 0 125 47t63 144v4
q-47 30 -121 30q-80 0 -128 -35.5t-48 -97.5q0 -45 30.5 -68.5t78.5 -23.5z" />
    <glyph glyph-name="ccedilla" unicode="&#xe7;" horiz-adv-x="907" 
d="M643 690q-95 0 -165.5 -55.5t-88.5 -163.5q-4 -24 -4 -49q0 -84 48.5 -134t141.5 -50q116 0 234 75l-39 -276q-37 -23 -108 -40t-144 -17l-26 -60q63 -5 101 -40t38 -101q0 -203 -264 -203q-90 0 -146 25l21 139q34 -23 92 -23q37 0 59.5 15t22.5 45q0 22 -14 35.5
t-40 13.5q-38 0 -65 -31l-21 15l80 188q-136 36 -215.5 136.5t-79.5 264.5q0 30 7 84q34 229 186.5 345t374.5 116q155 0 260 -61l-37 -252q-97 59 -209 59z" />
    <glyph glyph-name="egrave" unicode="&#xe8;" horiz-adv-x="1083" 
d="M604 1065l-309 350h405l207 -350h-303zM555 -18q-79 0 -147 11t-133 40t-110.5 74t-73.5 117.5t-28 166.5q0 36 7 94q30 214 164.5 336.5t357.5 122.5q110 0 193 -29t132 -80t73 -115.5t24 -141.5q0 -97 -27 -207h-608v-4q0 -142 207 -142q174 0 340 78l-37 -256
q-46 -22 -135 -43.5t-199 -21.5zM406 557h299q4 12 4 31q0 51 -35.5 82.5t-93.5 31.5q-65 0 -113 -39.5t-61 -105.5z" />
    <glyph glyph-name="eacute" unicode="&#xe9;" horiz-adv-x="1083" 
d="M410 1065l301 350h419l-405 -350h-315zM555 -18q-79 0 -147 11t-133 40t-110.5 74t-73.5 117.5t-28 166.5q0 36 7 94q30 214 164.5 336.5t357.5 122.5q110 0 193 -29t132 -80t73 -115.5t24 -141.5q0 -97 -27 -207h-608v-4q0 -142 207 -142q174 0 340 78l-37 -256
q-46 -22 -135 -43.5t-199 -21.5zM406 557h299q4 12 4 31q0 51 -35.5 82.5t-93.5 31.5q-65 0 -113 -39.5t-61 -105.5z" />
    <glyph glyph-name="ecircumflex" unicode="&#xea;" horiz-adv-x="1083" 
d="M250 1065l434 369l332 -369h-287l-74 94l-98 -94h-307zM555 -18q-79 0 -147 11t-133 40t-110.5 74t-73.5 117.5t-28 166.5q0 36 7 94q30 214 164.5 336.5t357.5 122.5q110 0 193 -29t132 -80t73 -115.5t24 -141.5q0 -97 -27 -207h-608v-4q0 -142 207 -142q174 0 340 78
l-37 -256q-46 -22 -135 -43.5t-199 -21.5zM406 557h299q4 12 4 31q0 51 -35.5 82.5t-93.5 31.5q-65 0 -113 -39.5t-61 -105.5z" />
    <glyph glyph-name="edieresis" unicode="&#xeb;" horiz-adv-x="1083" 
d="M399 1077q-70 0 -110.5 40.5t-40.5 105.5q0 82 54 135t132 53q66 0 107 -41t41 -104q0 -86 -51.5 -137.5t-131.5 -51.5zM868 1077q-70 0 -110.5 40.5t-40.5 105.5q0 82 54 135t132 53q66 0 107 -41t41 -104q0 -86 -51.5 -137.5t-131.5 -51.5zM555 -18q-79 0 -147 11
t-133 40t-110.5 74t-73.5 117.5t-28 166.5q0 36 7 94q30 214 164.5 336.5t357.5 122.5q110 0 193 -29t132 -80t73 -115.5t24 -141.5q0 -97 -27 -207h-608v-4q0 -142 207 -142q174 0 340 78l-37 -256q-46 -22 -135 -43.5t-199 -21.5zM406 557h299q4 12 4 31q0 51 -35.5 82.5
t-93.5 31.5q-65 0 -113 -39.5t-61 -105.5z" />
    <glyph glyph-name="igrave" unicode="&#xec;" horiz-adv-x="626" 
d="M360 1065l-309 350h406l207 -350h-304zM96 0l99 686h-109l35 240h418l-129 -926h-314z" />
    <glyph glyph-name="iacute" unicode="&#xed;" horiz-adv-x="626" 
d="M166 1065l301 350h420l-406 -350h-315zM96 0l99 686h-109l35 240h418l-129 -926h-314z" />
    <glyph glyph-name="icircumflex" unicode="&#xee;" horiz-adv-x="626" 
d="M6 1065l434 369l332 -369h-287l-73 94l-99 -94h-307zM96 0l99 686h-109l35 240h418l-129 -926h-314z" />
    <glyph glyph-name="idieresis" unicode="&#xef;" horiz-adv-x="626" 
d="M156 1077q-70 0 -111 40.5t-41 105.5q0 82 54 135t132 53q66 0 107 -41t41 -104q0 -86 -51 -137.5t-131 -51.5zM625 1077q-71 0 -111.5 40.5t-40.5 105.5q0 82 54 135t132 53q66 0 107 -41t41 -104q0 -86 -51 -137.5t-131 -51.5zM96 0l99 686h-109l35 240h418l-129 -926
h-314z" />
    <glyph glyph-name="eth" unicode="&#xf0;" horiz-adv-x="1175" 
d="M535 -18q-222 0 -348 112.5t-126 300.5q0 33 7 80q28 204 165 333.5t338 129.5q42 0 87.5 -8.5t100 -38.5t81.5 -78q-6 132 -72 238l-129 -72l-74 137l60 35q-91 33 -228 39l29 205q153 -5 265 -39t171 -76l142 78l73 -139l-92 -52q74 -90 112 -212.5t38 -245.5
q0 -69 -13 -162q-39 -284 -189 -424.5t-398 -140.5zM555 242q88 0 153 56t83 165q4 24 4 45q0 83 -45 130.5t-125 47.5q-87 0 -148 -54.5t-82 -139.5q-10 -38 -10 -76q0 -80 46 -127t124 -47z" />
    <glyph glyph-name="ntilde" unicode="&#xf1;" horiz-adv-x="1128" 
d="M850 1087q-53 0 -104 18.5t-91 37t-67 18.5q-62 0 -74 -63h-184q14 128 79.5 201t176.5 73q56 0 108.5 -18.5t92 -37t63.5 -18.5q35 0 52 20.5t22 43.5h186q-9 -122 -78 -198.5t-182 -76.5zM61 0l132 926h284l-6 -92q100 110 262 110q141 0 220 -79.5t79 -225.5
q0 -45 -8 -102l-76 -537h-313l76 530q6 42 6 68q0 92 -107 92q-80 0 -117 -56.5t-51 -158.5l-67 -475h-314z" />
    <glyph glyph-name="ograve" unicode="&#xf2;" horiz-adv-x="1183" 
d="M645 1065l-309 350h405l207 -350h-303zM545 -18q-224 0 -353 119t-129 309q0 32 7 79q29 205 185.5 330t385.5 125q220 0 349.5 -116t129.5 -306q0 -40 -6 -84q-29 -212 -186.5 -334t-382.5 -122zM557 242q108 0 174 78.5t66 187.5q0 83 -45 130.5t-125 47.5
q-106 0 -173 -81t-67 -189q0 -80 46 -127t124 -47z" />
    <glyph glyph-name="oacute" unicode="&#xf3;" horiz-adv-x="1183" 
d="M451 1065l301 350h419l-405 -350h-315zM545 -18q-224 0 -353 119t-129 309q0 32 7 79q29 205 185.5 330t385.5 125q220 0 349.5 -116t129.5 -306q0 -40 -6 -84q-29 -212 -186.5 -334t-382.5 -122zM557 242q108 0 174 78.5t66 187.5q0 83 -45 130.5t-125 47.5
q-106 0 -173 -81t-67 -189q0 -80 46 -127t124 -47z" />
    <glyph glyph-name="ocircumflex" unicode="&#xf4;" horiz-adv-x="1183" 
d="M291 1065l434 369l332 -369h-287l-74 94l-98 -94h-307zM545 -18q-224 0 -353 119t-129 309q0 32 7 79q29 205 185.5 330t385.5 125q220 0 349.5 -116t129.5 -306q0 -40 -6 -84q-29 -212 -186.5 -334t-382.5 -122zM557 242q108 0 174 78.5t66 187.5q0 83 -45 130.5
t-125 47.5q-106 0 -173 -81t-67 -189q0 -80 46 -127t124 -47z" />
    <glyph glyph-name="otilde" unicode="&#xf5;" horiz-adv-x="1183" 
d="M829 1087q-53 0 -104 18.5t-91 37t-67 18.5q-61 0 -73 -63h-185q14 128 79.5 201t176.5 73q56 0 108.5 -18.5t92 -37t63.5 -18.5q35 0 52 20.5t22 43.5h187q-9 -122 -78.5 -198.5t-182.5 -76.5zM545 -18q-224 0 -353 119t-129 309q0 32 7 79q29 205 185.5 330t385.5 125
q220 0 349.5 -116t129.5 -306q0 -40 -6 -84q-29 -212 -186.5 -334t-382.5 -122zM557 242q108 0 174 78.5t66 187.5q0 83 -45 130.5t-125 47.5q-106 0 -173 -81t-67 -189q0 -80 46 -127t124 -47z" />
    <glyph glyph-name="odieresis" unicode="&#xf6;" horiz-adv-x="1183" 
d="M440 1077q-70 0 -110.5 40.5t-40.5 105.5q0 82 54 135t132 53q66 0 107 -41t41 -104q0 -86 -51.5 -137.5t-131.5 -51.5zM909 1077q-70 0 -110.5 40.5t-40.5 105.5q0 82 54 135t132 53q66 0 107 -41t41 -104q0 -86 -51.5 -137.5t-131.5 -51.5zM545 -18q-224 0 -353 119
t-129 309q0 32 7 79q29 205 185.5 330t385.5 125q220 0 349.5 -116t129.5 -306q0 -40 -6 -84q-29 -212 -186.5 -334t-382.5 -122zM557 242q108 0 174 78.5t66 187.5q0 83 -45 130.5t-125 47.5q-106 0 -173 -81t-67 -189q0 -80 46 -127t124 -47z" />
    <glyph glyph-name="divide" unicode="&#xf7;" 
d="M645 686q-70 0 -114 44.5t-44 115.5q0 74 53.5 126t125.5 52q69 0 112 -44.5t43 -115.5q0 -77 -52.5 -127.5t-123.5 -50.5zM129 344l33 240h907l-33 -240h-907zM535 -98q-70 0 -114 44t-44 115q0 74 53.5 126.5t124.5 52.5q69 0 112.5 -44.5t43.5 -115.5
q0 -77 -52.5 -127.5t-123.5 -50.5z" />
    <glyph glyph-name="oslash" unicode="&#xf8;" horiz-adv-x="1183" 
d="M66 -84l135 176q-66 57 -102 139.5t-36 178.5q0 32 7 79q29 205 185.5 330t385.5 125q109 0 197 -31l75 99h203l-135 -174q139 -117 139 -316q0 -40 -6 -84q-29 -212 -186.5 -334t-382.5 -122q-115 0 -201 30l-76 -96h-202zM397 346l262 338q-10 2 -32 2q-106 0 -173 -81
t-67 -189q0 -43 10 -70zM557 242q108 0 174 78.5t66 187.5q0 39 -13 76l-262 -340q10 -2 35 -2z" />
    <glyph glyph-name="ugrave" unicode="&#xf9;" horiz-adv-x="1075" 
d="M588 1065l-309 350h405l207 -350h-303zM485 -18q-104 0 -180.5 26t-120 73.5t-64 105t-20.5 128.5q0 39 15 146l65 465h314l-76 -543q-6 -43 -6 -66q0 -84 94 -84q59 0 93 35t44 111l76 547h307l-74 -525q-10 -73 -28 -131t-53 -114t-84.5 -92.5t-126.5 -59t-175 -22.5z
" />
    <glyph glyph-name="uacute" unicode="&#xfa;" horiz-adv-x="1075" 
d="M393 1065l301 350h420l-405 -350h-316zM485 -18q-104 0 -180.5 26t-120 73.5t-64 105t-20.5 128.5q0 39 15 146l65 465h314l-76 -543q-6 -43 -6 -66q0 -84 94 -84q59 0 93 35t44 111l76 547h307l-74 -525q-10 -73 -28 -131t-53 -114t-84.5 -92.5t-126.5 -59t-175 -22.5z
" />
    <glyph glyph-name="ucircumflex" unicode="&#xfb;" horiz-adv-x="1075" 
d="M233 1065l435 369l331 -369h-286l-74 94l-98 -94h-308zM485 -18q-104 0 -180.5 26t-120 73.5t-64 105t-20.5 128.5q0 39 15 146l65 465h314l-76 -543q-6 -43 -6 -66q0 -84 94 -84q59 0 93 35t44 111l76 547h307l-74 -525q-10 -73 -28 -131t-53 -114t-84.5 -92.5
t-126.5 -59t-175 -22.5z" />
    <glyph glyph-name="udieresis" unicode="&#xfc;" horiz-adv-x="1075" 
d="M383 1077q-71 0 -111.5 40.5t-40.5 105.5q0 82 54.5 135t132.5 53q66 0 106.5 -41t40.5 -104q0 -86 -51 -137.5t-131 -51.5zM852 1077q-70 0 -111 40.5t-41 105.5q0 82 54.5 135t132.5 53q66 0 106.5 -41t40.5 -104q0 -86 -51 -137.5t-131 -51.5zM485 -18
q-104 0 -180.5 26t-120 73.5t-64 105t-20.5 128.5q0 39 15 146l65 465h314l-76 -543q-6 -43 -6 -66q0 -84 94 -84q59 0 93 35t44 111l76 547h307l-74 -525q-10 -73 -28 -131t-53 -114t-84.5 -92.5t-126.5 -59t-175 -22.5z" />
    <glyph glyph-name="yacute" unicode="&#xfd;" horiz-adv-x="1083" 
d="M397 1065l301 350h420l-405 -350h-316zM41 -406l287 484l-256 848h329l121 -518l277 518h344l-760 -1332h-342z" />
    <glyph glyph-name="thorn" unicode="&#xfe;" horiz-adv-x="1220" 
d="M4 -406l248 1764h313l-67 -494q95 76 247 76q193 0 302.5 -116.5t109.5 -301.5q0 -44 -6 -90q-31 -210 -171.5 -330t-330.5 -120q-178 0 -264 92l-68 -480h-313zM594 242q108 0 174 78.5t66 187.5q0 83 -45 130.5t-125 47.5q-106 0 -173 -80t-67 -184q0 -84 46 -132
t124 -48z" />
    <glyph glyph-name="ydieresis" unicode="&#xff;" horiz-adv-x="1083" 
d="M387 1077q-70 0 -110.5 40.5t-40.5 105.5q0 82 54 135t132 53q66 0 106.5 -41t40.5 -104q0 -86 -51 -137.5t-131 -51.5zM856 1077q-70 0 -110.5 40.5t-40.5 105.5q0 82 54 135t132 53q66 0 106.5 -41t40.5 -104q0 -86 -51 -137.5t-131 -51.5zM41 -406l287 484l-256 848
h329l121 -518l277 518h344l-760 -1332h-342z" />
    <glyph glyph-name="Amacron" unicode="&#x100;" horiz-adv-x="1308" 
d="M479 1507l33 240h647l-33 -240h-647zM-37 0l807 1348h21l423 -1348h-335l-50 180h-421l-101 -180h-344zM537 422h237l-78 291z" />
    <glyph glyph-name="amacron" unicode="&#x101;" horiz-adv-x="1101" 
d="M973 1356l-33 -238h-647l33 238h647zM565 944q204 0 316 -78t112 -233q0 -38 -12 -127l-72 -506h-284l6 88q-95 -106 -285 -106q-144 0 -225.5 70.5t-81.5 195.5q0 81 38 147t101 106t140.5 61.5t160.5 21.5q117 0 199 -35v4q4 28 4 49q0 57 -39 92t-151 35
q-131 0 -293 -92l34 235q147 72 332 72zM463 176q75 0 125 47t63 144v4q-47 30 -121 30q-80 0 -128 -35.5t-48 -97.5q0 -45 30.5 -68.5t78.5 -23.5z" />
    <glyph glyph-name="Abreve" unicode="&#x102;" horiz-adv-x="1308" 
d="M803 1425q-175 0 -252.5 75t-77.5 202q0 53 8 92h232q-4 -23 -4 -43q0 -40 23.5 -64t86.5 -24q79 0 112.5 31.5t43.5 99.5h227q-15 -369 -399 -369zM-37 0l807 1348h21l423 -1348h-335l-50 180h-421l-101 -180h-344zM537 422h237l-78 291z" />
    <glyph glyph-name="abreve" unicode="&#x103;" horiz-adv-x="1101" 
d="M616 1047q-329 0 -329 276q0 53 8 92h231q-4 -23 -4 -43q0 -88 111 -88q79 0 112 31.5t43 99.5h228q-15 -368 -400 -368zM565 944q204 0 316 -78t112 -233q0 -38 -12 -127l-72 -506h-284l6 88q-95 -106 -285 -106q-144 0 -225.5 70.5t-81.5 195.5q0 81 38 147t101 106
t140.5 61.5t160.5 21.5q117 0 199 -35v4q4 28 4 49q0 57 -39 92t-151 35q-131 0 -293 -92l34 235q147 72 332 72zM463 176q75 0 125 47t63 144v4q-47 30 -121 30q-80 0 -128 -35.5t-48 -97.5q0 -45 30.5 -68.5t78.5 -23.5z" />
    <glyph glyph-name="Aogonek" unicode="&#x104;" horiz-adv-x="1308" 
d="M973 -424q-107 0 -176.5 45t-69.5 139q0 156 152 244l-50 176h-421l-101 -180h-344l807 1348h21l423 -1348q-116 -9 -191 -68.5t-75 -126.5q0 -57 72 -57q31 0 61 9.5t43 17.5l-24 -181q-49 -18 -127 -18zM537 422h237l-78 291z" />
    <glyph glyph-name="aogonek" unicode="&#x105;" horiz-adv-x="1101" 
d="M565 944q204 0 316 -78t112 -233q0 -38 -12 -127l-72 -506q-102 -19 -170.5 -73t-68.5 -122q0 -57 71 -57q31 0 62 9.5t43 17.5l-25 -181q-49 -18 -127 -18q-107 0 -176 45t-69 139q0 171 176 256l4 72q-95 -106 -283 -106q-144 0 -225.5 70.5t-81.5 195.5q0 81 38 147
t101 106t140.5 61.5t160.5 21.5q117 0 199 -35v4q4 28 4 49q0 57 -39 92t-151 35q-131 0 -293 -92l34 235q147 72 332 72zM463 176q75 0 125 47t63 144v4q-47 30 -121 30q-80 0 -128 -35.5t-48 -97.5q0 -45 30.5 -68.5t78.5 -23.5z" />
    <glyph glyph-name="Cacute" unicode="&#x106;" horiz-adv-x="1294" 
d="M684 1444l301 350h420l-406 -350h-315zM762 -20q-156 0 -281 46t-205 126.5t-122.5 188.5t-42.5 234q0 59 10 117q57 307 260.5 481.5t533.5 174.5q119 0 213.5 -28t143.5 -65l-43 -303q-140 105 -320 105q-176 0 -302 -109t-156 -276q-7 -40 -7 -74q0 -148 85.5 -237
t256.5 -89q89 0 173.5 22.5t124 42.5t87.5 50l-47 -332q-49 -29 -149 -52t-213 -23z" />
    <glyph glyph-name="cacute" unicode="&#x107;" horiz-adv-x="907" 
d="M440 1065l301 350h420l-405 -350h-316zM514 -20q-96 0 -176.5 25t-143.5 74.5t-98 131t-35 188.5q0 30 7 84q34 229 186.5 345t374.5 116q155 0 260 -61l-37 -252q-97 59 -209 59q-95 0 -165.5 -55.5t-88.5 -163.5q-4 -24 -4 -49q0 -84 48.5 -134t141.5 -50q116 0 234 75
l-39 -276q-37 -23 -110 -40t-146 -17z" />
    <glyph glyph-name="Ccircumflex" unicode="&#x108;" horiz-adv-x="1294" 
d="M549 1444l434 368l332 -368h-287l-74 94l-98 -94h-307zM762 -20q-156 0 -281 46t-205 126.5t-122.5 188.5t-42.5 234q0 59 10 117q57 307 260.5 481.5t533.5 174.5q119 0 213.5 -28t143.5 -65l-43 -303q-140 105 -320 105q-176 0 -302 -109t-156 -276q-7 -40 -7 -74
q0 -148 85.5 -237t256.5 -89q89 0 173.5 22.5t124 42.5t87.5 50l-47 -332q-49 -29 -149 -52t-213 -23z" />
    <glyph glyph-name="ccircumflex" unicode="&#x109;" horiz-adv-x="907" 
d="M281 1065l434 369l332 -369h-287l-74 94l-98 -94h-307zM514 -20q-96 0 -176.5 25t-143.5 74.5t-98 131t-35 188.5q0 30 7 84q34 229 186.5 345t374.5 116q155 0 260 -61l-37 -252q-97 59 -209 59q-95 0 -165.5 -55.5t-88.5 -163.5q-4 -24 -4 -49q0 -84 48.5 -134
t141.5 -50q116 0 234 75l-39 -276q-37 -23 -110 -40t-146 -17z" />
    <glyph glyph-name="Cdotaccent" unicode="&#x10a;" horiz-adv-x="1294" 
d="M950 1450q-77 0 -124.5 46.5t-47.5 119.5q0 80 54.5 134t138.5 54q75 0 121.5 -47.5t46.5 -120.5q0 -80 -53 -133t-136 -53zM762 -20q-156 0 -281 46t-205 126.5t-122.5 188.5t-42.5 234q0 59 10 117q57 307 260.5 481.5t533.5 174.5q119 0 213.5 -28t143.5 -65l-43 -303
q-140 105 -320 105q-176 0 -302 -109t-156 -276q-7 -40 -7 -74q0 -148 85.5 -237t256.5 -89q89 0 173.5 22.5t124 42.5t87.5 50l-47 -332q-49 -29 -149 -52t-213 -23z" />
    <glyph glyph-name="cdotaccent" unicode="&#x10b;" horiz-adv-x="907" 
d="M676 1077q-70 0 -111 40.5t-41 105.5q0 82 54.5 135t132.5 53q66 0 106.5 -41t40.5 -104q0 -86 -51 -137.5t-131 -51.5zM514 -20q-96 0 -176.5 25t-143.5 74.5t-98 131t-35 188.5q0 30 7 84q34 229 186.5 345t374.5 116q155 0 260 -61l-37 -252q-97 59 -209 59
q-95 0 -165.5 -55.5t-88.5 -163.5q-4 -24 -4 -49q0 -84 48.5 -134t141.5 -50q116 0 234 75l-39 -276q-37 -23 -110 -40t-146 -17z" />
    <glyph glyph-name="Ccaron" unicode="&#x10c;" horiz-adv-x="1294" 
d="M926 1425l-332 369h287l73 -94l99 94h307zM762 -20q-156 0 -281 46t-205 126.5t-122.5 188.5t-42.5 234q0 59 10 117q57 307 260.5 481.5t533.5 174.5q119 0 213.5 -28t143.5 -65l-43 -303q-140 105 -320 105q-176 0 -302 -109t-156 -276q-7 -40 -7 -74q0 -148 85.5 -237
t256.5 -89q89 0 173.5 22.5t124 42.5t87.5 50l-47 -332q-49 -29 -149 -52t-213 -23z" />
    <glyph glyph-name="ccaron" unicode="&#x10d;" horiz-adv-x="907" 
d="M666 1047l-332 368h287l73 -94l99 94h307zM514 -20q-96 0 -176.5 25t-143.5 74.5t-98 131t-35 188.5q0 30 7 84q34 229 186.5 345t374.5 116q155 0 260 -61l-37 -252q-97 59 -209 59q-95 0 -165.5 -55.5t-88.5 -163.5q-4 -24 -4 -49q0 -84 48.5 -134t141.5 -50
q116 0 234 75l-39 -276q-37 -23 -110 -40t-146 -17z" />
    <glyph glyph-name="Dcaron" unicode="&#x10e;" horiz-adv-x="1398" 
d="M834 1425l-332 369h286l74 -94l99 94h307zM78 0l186 1327h271q69 0 118 -1.5t120 -7t123 -15.5t115.5 -30t108.5 -47t90.5 -68.5t73 -93.5t45 -123.5t17.5 -156.5q0 -65 -11 -143q-13 -93 -42 -172.5t-67 -139.5t-89.5 -109t-105.5 -82.5t-119.5 -59t-126.5 -40
t-131.5 -23.5t-130 -12t-126.5 -3h-319zM438 260h6q92 0 166.5 11.5t143.5 40t118.5 74.5t84.5 118t49 168q6 44 6 88q0 76 -23.5 132.5t-62 90t-98 53t-120.5 26.5t-141 7h-16z" />
    <glyph glyph-name="dcaron" unicode="&#x10f;" horiz-adv-x="1591" 
d="M1309 956q99 77 157 150q-104 12 -104 117q0 69 43 107t108 38q66 0 106 -38.5t40 -106.5q0 -78 -51 -148.5t-138 -118.5h-161zM461 -18q-183 0 -290.5 112t-107.5 307q0 37 7 91q35 216 167 334t326 118q186 0 266 -104l72 518h313l-188 -1358h-285l7 94
q-104 -112 -287 -112zM557 242q108 0 174 77.5t66 186.5q0 83 -45.5 131.5t-124.5 48.5q-106 0 -173 -80t-67 -188q0 -80 46 -128t124 -48z" />
    <glyph glyph-name="Dcroat" unicode="&#x110;" horiz-adv-x="1476" 
d="M612 1327q69 0 118 -1.5t120 -7t123 -15.5t115.5 -30t108.5 -47t90.5 -68.5t73 -93.5t45 -123.5t17.5 -156.5q0 -72 -10 -143q-13 -93 -42 -172.5t-67 -139.5t-89.5 -109t-105.5 -82.5t-119.5 -59t-126.5 -40t-131.5 -23.5t-130 -12t-126.5 -3h-319l77 553h-223l35 248
h223l74 526h270zM1083 672q7 51 7 88q0 76 -23.5 132.5t-62 90t-98 53t-120.5 26.5t-141 7h-16l-37 -268h231l-35 -248h-231l-41 -293h6q116 0 205 19t165.5 64t125 127.5t65.5 201.5z" />
    <glyph glyph-name="dcroat" unicode="&#x111;" horiz-adv-x="1171" 
d="M1358 1233l-35 -217h-156l-141 -1016h-285l7 94q-104 -112 -287 -112t-290.5 112t-107.5 307q0 37 7 91q35 216 167 334t326 118q186 0 266 -104l25 176h-190l34 217h187l16 125h313l-16 -125h160zM557 242q108 0 174 77.5t66 186.5q0 83 -45.5 131.5t-124.5 48.5
q-106 0 -173 -80t-67 -188q0 -80 46 -128t124 -48z" />
    <glyph glyph-name="Emacron" unicode="&#x112;" horiz-adv-x="1089" 
d="M391 1507l33 240h647l-33 -240h-647zM78 0l186 1327h840l-37 -262h-516l-37 -258h358l-36 -260h-359l-39 -283h541l-37 -264h-864z" />
    <glyph glyph-name="emacron" unicode="&#x113;" horiz-adv-x="1083" 
d="M319 1118l33 238h647l-32 -238h-648zM555 -18q-79 0 -147 11t-133 40t-110.5 74t-73.5 117.5t-28 166.5q0 36 7 94q30 214 164.5 336.5t357.5 122.5q110 0 193 -29t132 -80t73 -115.5t24 -141.5q0 -97 -27 -207h-608v-4q0 -142 207 -142q174 0 340 78l-37 -256
q-46 -22 -135 -43.5t-199 -21.5zM406 557h299q4 12 4 31q0 51 -35.5 82.5t-93.5 31.5q-65 0 -113 -39.5t-61 -105.5z" />
    <glyph glyph-name="Ebreve" unicode="&#x114;" horiz-adv-x="1089" 
d="M715 1425q-175 0 -252.5 75t-77.5 202q0 53 8 92h232q-4 -23 -4 -43q0 -40 23.5 -64t86.5 -24q79 0 112.5 31.5t43.5 99.5h227q-15 -369 -399 -369zM78 0l186 1327h840l-37 -262h-516l-37 -258h358l-36 -260h-359l-39 -283h541l-37 -264h-864z" />
    <glyph glyph-name="ebreve" unicode="&#x115;" horiz-adv-x="1083" 
d="M643 1047q-330 0 -330 276q0 49 9 92h231q-4 -23 -4 -43q0 -40 23.5 -64t86.5 -24q79 0 112.5 31.5t43.5 99.5h227q-15 -368 -399 -368zM555 -18q-79 0 -147 11t-133 40t-110.5 74t-73.5 117.5t-28 166.5q0 36 7 94q30 214 164.5 336.5t357.5 122.5q110 0 193 -29
t132 -80t73 -115.5t24 -141.5q0 -97 -27 -207h-608v-4q0 -142 207 -142q174 0 340 78l-37 -256q-46 -22 -135 -43.5t-199 -21.5zM406 557h299q4 12 4 31q0 51 -35.5 82.5t-93.5 31.5q-65 0 -113 -39.5t-61 -105.5z" />
    <glyph glyph-name="Edotaccent" unicode="&#x116;" horiz-adv-x="1089" 
d="M721 1450q-77 0 -124.5 46.5t-47.5 119.5q0 80 54 134t138 54q75 0 121.5 -47.5t46.5 -120.5q0 -80 -52.5 -133t-135.5 -53zM78 0l186 1327h840l-37 -262h-516l-37 -258h358l-36 -260h-359l-39 -283h541l-37 -264h-864z" />
    <glyph glyph-name="edotaccent" unicode="&#x117;" horiz-adv-x="1083" 
d="M645 1077q-70 0 -110.5 40.5t-40.5 105.5q0 82 54 135t132 53q66 0 106.5 -41t40.5 -104q0 -86 -51 -137.5t-131 -51.5zM555 -18q-79 0 -147 11t-133 40t-110.5 74t-73.5 117.5t-28 166.5q0 36 7 94q30 214 164.5 336.5t357.5 122.5q110 0 193 -29t132 -80t73 -115.5
t24 -141.5q0 -97 -27 -207h-608v-4q0 -142 207 -142q174 0 340 78l-37 -256q-46 -22 -135 -43.5t-199 -21.5zM406 557h299q4 12 4 31q0 51 -35.5 82.5t-93.5 31.5q-65 0 -113 -39.5t-61 -105.5z" />
    <glyph glyph-name="Eogonek" unicode="&#x118;" horiz-adv-x="1089" 
d="M735 -424q-107 0 -176.5 45t-69.5 139q0 76 39 138t113 102h-563l186 1327h840l-37 -262h-516l-37 -258h358l-36 -260h-359l-39 -283h541l-37 -264q-101 -18 -166 -74.5t-65 -120.5q0 -57 71 -57q31 0 62 9.5t43 17.5l-25 -181q-49 -18 -127 -18z" />
    <glyph glyph-name="eogonek" unicode="&#x119;" horiz-adv-x="1083" 
d="M621 -424q-107 0 -176.5 45t-69.5 139q0 152 143 228h-14q-87 0 -162 21t-139.5 66t-102 126t-37.5 190q0 36 7 94q30 214 164.5 336.5t357.5 122.5q110 0 193 -29t132 -80t73 -115.5t24 -141.5q0 -97 -27 -207h-608v-4q0 -142 207 -142q174 0 340 78l-37 -256
q-138 -54 -215.5 -111.5t-77.5 -130.5q0 -57 72 -57q31 0 61 9.5t43 17.5l-24 -181q-49 -18 -127 -18zM406 557h299q4 12 4 31q0 51 -35.5 82.5t-93.5 31.5q-65 0 -113 -39.5t-61 -105.5z" />
    <glyph glyph-name="Ecaron" unicode="&#x11a;" horiz-adv-x="1089" 
d="M696 1425l-331 369h286l74 -94l98 94h307zM78 0l186 1327h840l-37 -262h-516l-37 -258h358l-36 -260h-359l-39 -283h541l-37 -264h-864z" />
    <glyph glyph-name="ecaron" unicode="&#x11b;" horiz-adv-x="1083" 
d="M635 1047l-332 368h287l74 -94l98 94h307zM555 -18q-79 0 -147 11t-133 40t-110.5 74t-73.5 117.5t-28 166.5q0 36 7 94q30 214 164.5 336.5t357.5 122.5q110 0 193 -29t132 -80t73 -115.5t24 -141.5q0 -97 -27 -207h-608v-4q0 -142 207 -142q174 0 340 78l-37 -256
q-46 -22 -135 -43.5t-199 -21.5zM406 557h299q4 12 4 31q0 51 -35.5 82.5t-93.5 31.5q-65 0 -113 -39.5t-61 -105.5z" />
    <glyph glyph-name="Gcircumflex" unicode="&#x11c;" horiz-adv-x="1460" 
d="M541 1444l434 368l332 -368h-287l-74 94l-98 -94h-307zM748 -20q-303 0 -470 156t-167 427q0 56 10 131q23 157 93 282t174 206t235.5 123.5t281.5 42.5q156 0 260.5 -37.5t159.5 -81.5l-41 -295q-60 50 -162 87.5t-229 37.5q-181 0 -299 -112t-145 -290q-7 -51 -7 -79
q0 -154 83.5 -232t222.5 -78q125 0 208.5 66.5t98.5 181.5h-305l32 244h652l-23 -162q-9 -59 -19 -106.5t-33 -114.5t-53 -118.5t-81 -106t-115 -90.5t-157 -59t-205 -23z" />
    <glyph glyph-name="gcircumflex" unicode="&#x11d;" horiz-adv-x="1224" 
d="M291 1065l434 369l332 -369h-287l-74 94l-98 -94h-307zM463 -426q-198 0 -305 43l35 250q90 -39 221 -39q148 0 221.5 63t95.5 209l2 13q-38 -48 -109.5 -80.5t-168.5 -32.5q-178 0 -283.5 111t-105.5 303q0 41 6 88q35 213 167 327.5t332 114.5q99 0 172 -34.5
t109 -94.5l27 111h284l-116 -828q-21 -148 -66 -249t-118.5 -162t-169.5 -87t-230 -26zM555 254q104 0 168.5 79t64.5 183q0 89 -47 131.5t-116 42.5q-102 0 -169 -80t-67 -186q0 -78 45 -124t121 -46z" />
    <glyph glyph-name="Gbreve" unicode="&#x11e;" horiz-adv-x="1460" 
d="M936 1425q-175 0 -252.5 75t-77.5 202q0 53 8 92h232q-4 -23 -4 -43q0 -40 23.5 -64t86.5 -24q79 0 112.5 31.5t43.5 99.5h227q-15 -369 -399 -369zM748 -20q-303 0 -470 156t-167 427q0 56 10 131q23 157 93 282t174 206t235.5 123.5t281.5 42.5q156 0 260.5 -37.5
t159.5 -81.5l-41 -295q-60 50 -162 87.5t-229 37.5q-181 0 -299 -112t-145 -290q-7 -51 -7 -79q0 -154 83.5 -232t222.5 -78q125 0 208.5 66.5t98.5 181.5h-305l32 244h652l-23 -162q-9 -59 -19 -106.5t-33 -114.5t-53 -118.5t-81 -106t-115 -90.5t-157 -59t-205 -23z" />
    <glyph glyph-name="gbreve" unicode="&#x11f;" horiz-adv-x="1224" 
d="M684 1047q-330 0 -330 276q0 53 8 92h232q-4 -23 -4 -43q0 -40 23.5 -64t86.5 -24q79 0 112.5 31.5t43.5 99.5h227q-15 -368 -399 -368zM463 -426q-198 0 -305 43l35 250q90 -39 221 -39q148 0 221.5 63t95.5 209l2 13q-38 -48 -109.5 -80.5t-168.5 -32.5
q-178 0 -283.5 111t-105.5 303q0 41 6 88q35 213 167 327.5t332 114.5q99 0 172 -34.5t109 -94.5l27 111h284l-116 -828q-21 -148 -66 -249t-118.5 -162t-169.5 -87t-230 -26zM555 254q104 0 168.5 79t64.5 183q0 89 -47 131.5t-116 42.5q-102 0 -169 -80t-67 -186
q0 -78 45 -124t121 -46z" />
    <glyph glyph-name="Gdotaccent" unicode="&#x120;" horiz-adv-x="1460" 
d="M942 1450q-77 0 -124.5 46.5t-47.5 119.5q0 80 54.5 134t138.5 54q75 0 121 -47.5t46 -120.5q0 -80 -52.5 -133t-135.5 -53zM748 -20q-303 0 -470 156t-167 427q0 56 10 131q23 157 93 282t174 206t235.5 123.5t281.5 42.5q156 0 260.5 -37.5t159.5 -81.5l-41 -295
q-60 50 -162 87.5t-229 37.5q-181 0 -299 -112t-145 -290q-7 -51 -7 -79q0 -154 83.5 -232t222.5 -78q125 0 208.5 66.5t98.5 181.5h-305l32 244h652l-23 -162q-9 -59 -19 -106.5t-33 -114.5t-53 -118.5t-81 -106t-115 -90.5t-157 -59t-205 -23z" />
    <glyph glyph-name="gdotaccent" unicode="&#x121;" horiz-adv-x="1224" 
d="M686 1077q-70 0 -110.5 40.5t-40.5 105.5q0 82 54 135t132 53q66 0 106.5 -41t40.5 -104q0 -86 -51 -137.5t-131 -51.5zM463 -426q-198 0 -305 43l35 250q90 -39 221 -39q148 0 221.5 63t95.5 209l2 13q-38 -48 -109.5 -80.5t-168.5 -32.5q-178 0 -283.5 111t-105.5 303
q0 41 6 88q35 213 167 327.5t332 114.5q99 0 172 -34.5t109 -94.5l27 111h284l-116 -828q-21 -148 -66 -249t-118.5 -162t-169.5 -87t-230 -26zM555 254q104 0 168.5 79t64.5 183q0 89 -47 131.5t-116 42.5q-102 0 -169 -80t-67 -186q0 -78 45 -124t121 -46z" />
    <glyph glyph-name="Gcommaaccent" unicode="&#x122;" horiz-adv-x="1460" 
d="M748 -20q-303 0 -470 156t-167 427q0 56 10 131q23 157 93 282t174 206t235.5 123.5t281.5 42.5q156 0 260.5 -37.5t159.5 -81.5l-41 -295q-60 50 -162 87.5t-229 37.5q-181 0 -299 -112t-145 -290q-7 -51 -7 -79q0 -154 83.5 -232t222.5 -78q125 0 208.5 66.5
t98.5 181.5h-305l32 244h652l-23 -162q-9 -59 -19 -106.5t-33 -114.5t-53 -118.5t-81 -106t-115 -90.5t-157 -59t-205 -23zM528 -465q78 63 113 113q-50 5 -77 35t-27 81q0 69 43 107.5t108 38.5q66 0 106 -39t40 -107q0 -135 -144 -229h-162z" />
    <glyph glyph-name="gcommaaccent" unicode="&#x123;" horiz-adv-x="1224" 
d="M862 1477q-99 -77 -157 -150q104 -12 104 -117q0 -69 -43.5 -107t-108.5 -38q-66 0 -105.5 38.5t-39.5 106.5q0 78 50.5 148.5t137.5 118.5h162zM463 -426q-198 0 -305 43l35 250q90 -39 221 -39q148 0 221.5 63t95.5 209l2 13q-38 -48 -109.5 -80.5t-168.5 -32.5
q-178 0 -283.5 111t-105.5 303q0 41 6 88q35 213 167 327.5t332 114.5q99 0 172 -34.5t109 -94.5l27 111h284l-116 -828q-21 -148 -66 -249t-118.5 -162t-169.5 -87t-230 -26zM555 254q104 0 168.5 79t64.5 183q0 89 -47 131.5t-116 42.5q-102 0 -169 -80t-67 -186
q0 -78 45 -124t121 -46z" />
    <glyph glyph-name="Hcircumflex" unicode="&#x124;" horiz-adv-x="1429" 
d="M467 1444l434 368l332 -368h-287l-74 94l-98 -94h-307zM78 0l186 1327h324l-72 -520h494l73 520h324l-186 -1327h-324l76 543h-496l-76 -543h-323z" />
    <glyph glyph-name="hcircumflex" unicode="&#x125;" horiz-adv-x="1128" 
d="M41 1475l434 368l332 -368h-287l-74 94l-98 -94h-307zM61 0l191 1358h313l-67 -496q92 82 235 82q141 0 220 -79.5t79 -225.5q0 -45 -8 -102l-76 -537h-313l76 530q6 42 6 68q0 92 -107 92q-80 0 -117 -56.5t-51 -158.5l-67 -475h-314z" />
    <glyph glyph-name="Hbar" unicode="&#x126;" horiz-adv-x="1560" 
d="M152 0l133 944h-219l32 240h219l21 143h324l-21 -143h496l20 143h324l-21 -143h203l-33 -240h-203l-133 -944h-323l76 543h-496l-76 -543h-323zM590 807h493l21 137h-494z" />
    <glyph glyph-name="hbar" unicode="&#x127;" horiz-adv-x="1167" 
d="M772 944q141 0 220 -79.5t79 -225.5q0 -45 -8 -102l-76 -537h-313l76 530q6 42 6 68q0 92 -107 92q-80 0 -117 -56.5t-51 -158.5l-67 -475h-314l144 1016h-160l35 217h153l19 125h313l-16 -125h190l-35 -217h-186l-20 -154q92 82 235 82z" />
    <glyph glyph-name="Itilde" unicode="&#x128;" horiz-adv-x="610" 
d="M596 1466q-53 0 -104 18.5t-91 37t-67 18.5q-62 0 -74 -63h-184q14 128 79.5 201t176.5 73q56 0 108.5 -18.5t92 -37t63.5 -18.5q35 0 52 20.5t22 43.5h186q-9 -122 -78 -198.5t-182 -76.5zM78 0l186 1327h324l-187 -1327h-323z" />
    <glyph glyph-name="itilde" unicode="&#x129;" horiz-adv-x="626" 
d="M545 1087q-53 0 -104 18.5t-91 37t-67 18.5q-62 0 -74 -63h-184q14 128 79.5 201t176.5 73q56 0 108.5 -18.5t92 -37t63.5 -18.5q35 0 51.5 20.5t21.5 43.5h187q-9 -122 -78 -198.5t-182 -76.5zM96 0l99 686h-109l35 240h418l-129 -926h-314z" />
    <glyph glyph-name="Imacron" unicode="&#x12a;" horiz-adv-x="610" 
d="M129 1507l33 240h647l-33 -240h-647zM78 0l186 1327h324l-187 -1327h-323z" />
    <glyph glyph-name="imacron" unicode="&#x12b;" horiz-adv-x="626" 
d="M76 1118l33 238h647l-33 -238h-647zM96 0l99 686h-109l35 240h418l-129 -926h-314z" />
    <glyph glyph-name="Ibreve" unicode="&#x12c;" horiz-adv-x="610" 
d="M453 1425q-175 0 -252.5 75t-77.5 202q0 53 8 92h231q-4 -23 -4 -43q0 -88 111 -88q79 0 112.5 31.5t43.5 99.5h227q-15 -369 -399 -369zM78 0l186 1327h324l-187 -1327h-323z" />
    <glyph glyph-name="ibreve" unicode="&#x12d;" horiz-adv-x="626" 
d="M399 1047q-329 0 -329 276q0 53 8 92h231q-4 -23 -4 -43q0 -88 111 -88q79 0 112 31.5t43 99.5h228q-15 -368 -400 -368zM96 0l99 686h-109l35 240h418l-129 -926h-314z" />
    <glyph glyph-name="Iogonek" unicode="&#x12e;" horiz-adv-x="598" 
d="M170 -424q-69 0 -123 17.5t-89.5 60t-35.5 106.5q0 159 144 242l186 1325h323l-186 -1327q-112 -20 -178 -75t-66 -120q0 -57 72 -57q31 0 62 9.5t43 17.5l-25 -181q-49 -18 -127 -18z" />
    <glyph glyph-name="iogonek" unicode="&#x12f;" horiz-adv-x="626" 
d="M438 1411q67 0 109.5 -41t42.5 -110q0 -87 -50.5 -135t-123.5 -48q-70 0 -111 42t-41 110q0 84 49 133t125 49zM86 686l35 240h418l-129 -926q-106 -15 -174 -71t-68 -124q0 -57 72 -57q31 0 61 9.5t43 17.5l-25 -181q-49 -18 -126 -18q-107 0 -176.5 45t-69.5 139
q0 161 149 244l99 682h-109z" />
    <glyph glyph-name="Idotaccent" unicode="&#x130;" horiz-adv-x="610" 
d="M459 1450q-77 0 -124.5 46.5t-47.5 119.5q0 80 54 134t138 54q75 0 121.5 -47.5t46.5 -120.5q0 -80 -52.5 -133t-135.5 -53zM78 0l186 1327h324l-187 -1327h-323z" />
    <glyph glyph-name="dotlessi" unicode="&#x131;" horiz-adv-x="626" 
d="M96 0l99 686h-109l35 240h418l-129 -926h-314z" />
    <glyph glyph-name="IJ" unicode="&#x132;" horiz-adv-x="1585" 
d="M78 0l186 1327h324l-187 -1327h-323zM932 -20q-178 0 -279 53l39 272q30 -20 86 -35.5t109 -15.5q115 0 171.5 61.5t78.5 216.5l75 535h-292l36 260h615l-123 -876q-16 -114 -50.5 -198t-95 -147t-153 -94.5t-217.5 -31.5z" />
    <glyph glyph-name="ij" unicode="&#x133;" horiz-adv-x="1253" 
d="M416 1077q-70 0 -111 42t-41 110q0 84 49 133t125 49q67 0 109.5 -41t42.5 -110q0 -87 -50.5 -135t-123.5 -48zM1042 1077q-70 0 -110.5 42t-40.5 110q0 84 49 133t125 49q67 0 109.5 -41t42.5 -110q0 -87 -51 -135t-124 -48zM96 0l99 686h-109l35 240h418l-129 -926
h-314zM551 -424q-139 0 -215 31l35 237q52 -20 131 -20q63 0 106 19t68 58.5t38 83.5t23 111l84 590h-108l35 240h417l-110 -787q-10 -75 -20.5 -129.5t-29.5 -117t-43 -105.5t-62 -86t-86 -68.5t-114.5 -41t-148.5 -15.5z" />
    <glyph glyph-name="Jcircumflex" unicode="&#x134;" horiz-adv-x="964" 
d="M281 1444l434 368l332 -368h-287l-74 94l-98 -94h-307zM311 -20q-177 0 -278 53l39 272q30 -20 85.5 -35.5t108.5 -15.5q115 0 171.5 61.5t78.5 216.5l76 535h-293l37 260h614l-123 -876q-16 -114 -50.5 -198t-95 -147t-153 -94.5t-217.5 -31.5z" />
    <glyph glyph-name="jcircumflex" unicode="&#x135;" horiz-adv-x="626" 
d="M6 1065l434 369l332 -369h-287l-73 94l-99 -94h-307zM-76 -424q-139 0 -215 31l35 237q52 -20 131 -20q63 0 106 19t68.5 58.5t38.5 83.5t23 111l84 590h-109l35 240h418l-111 -787q-10 -75 -20.5 -129.5t-29.5 -117t-43 -105.5t-62 -86t-86 -68.5t-114.5 -41
t-148.5 -15.5z" />
    <glyph glyph-name="Kcommaaccent" unicode="&#x136;" horiz-adv-x="1433" 
d="M78 0l186 1327h324l-88 -629l604 629h418l-648 -665l465 -662h-424l-423 643l-91 -643h-323zM463 -465q76 61 112 113q-50 5 -77 35t-27 81q0 69 43.5 107.5t108.5 38.5t105 -39t40 -107q0 -136 -143 -229h-162z" />
    <glyph glyph-name="kcommaaccent" unicode="&#x137;" horiz-adv-x="1140" 
d="M61 0l191 1358h313l-119 -842l355 410h383l-404 -434l287 -492h-377l-250 469l-65 -469h-314zM346 -465q78 63 113 113q-50 5 -77.5 35t-27.5 81q0 69 43.5 107.5t108.5 38.5t105 -39t40 -107q0 -136 -143 -229h-162z" />
    <glyph glyph-name="kgreenlandic" unicode="&#x138;" horiz-adv-x="1128" 
d="M61 0l132 926h313l-60 -426l353 426h383l-404 -457l287 -469h-377l-250 449l-63 -449h-314z" />
    <glyph glyph-name="Lacute" unicode="&#x139;" horiz-adv-x="1083" 
d="M285 1444l301 350h420l-406 -350h-315zM78 0l186 1327h324l-150 -1063h561l-36 -264h-885z" />
    <glyph glyph-name="lacute" unicode="&#x13a;" horiz-adv-x="632" 
d="M285 1497l301 350h420l-406 -350h-315zM61 0l191 1358h313l-190 -1358h-314z" />
    <glyph glyph-name="Lcommaaccent" unicode="&#x13b;" horiz-adv-x="1083" 
d="M78 0l186 1327h324l-150 -1063h561l-36 -264h-885zM344 -465q78 63 113 113q-50 5 -77.5 35t-27.5 81q0 69 43.5 107.5t108.5 38.5t105 -39t40 -107q0 -136 -143 -229h-162z" />
    <glyph glyph-name="lcommaaccent" unicode="&#x13c;" horiz-adv-x="567" 
d="M61 0l191 1358h313l-190 -1358h-314zM29 -465q76 61 112 113q-50 5 -77 35t-27 81q0 69 43 107.5t108 38.5q66 0 106 -39t40 -107q0 -135 -144 -229h-161z" />
    <glyph glyph-name="Lcaron" unicode="&#x13d;" horiz-adv-x="1083" 
d="M711 936q101 78 157 149q-104 12 -104 117q0 69 43 107.5t108 38.5q66 0 106 -39t40 -107q0 -78 -51 -148t-138 -118h-161zM78 0l186 1327h324l-150 -1063h561l-36 -264h-885z" />
    <glyph glyph-name="lcaron" unicode="&#x13e;" horiz-adv-x="952" 
d="M670 956q99 77 157 150q-104 12 -104 117q0 69 43 107t108 38q66 0 106 -38.5t40 -106.5q0 -78 -51 -148.5t-138 -118.5h-161zM61 0l191 1358h313l-190 -1358h-314z" />
    <glyph glyph-name="Ldot" unicode="&#x13f;" horiz-adv-x="1083" 
d="M78 0l186 1327h324l-150 -1063h561l-36 -264h-885zM862 498q-79 0 -124.5 46t-45.5 122q0 84 58.5 141t136.5 57q75 0 122.5 -47t47.5 -123q0 -88 -57.5 -142t-137.5 -54z" />
    <glyph glyph-name="ldot" unicode="&#x140;" horiz-adv-x="1062" 
d="M61 0l191 1358h313l-190 -1358h-314zM809 518q-71 0 -111.5 41t-40.5 105q0 82 54.5 135t132.5 53q66 0 106.5 -41t40.5 -104q0 -86 -51 -137.5t-131 -51.5z" />
    <glyph glyph-name="Lslash" unicode="&#x141;" horiz-adv-x="1083" 
d="M78 0l63 438l-204 -110l36 264l203 110l88 625h324l-72 -498l264 146l-37 -270l-262 -144l-43 -297h561l-36 -264h-885z" />
    <glyph glyph-name="lslash" unicode="&#x142;" horiz-adv-x="776" 
d="M164 0l69 489l-163 -90l34 244l162 86l88 629h314l-68 -486l168 93l-35 -252l-168 -86l-88 -627h-313z" />
    <glyph glyph-name="Nacute" unicode="&#x143;" horiz-adv-x="1445" 
d="M612 1444l301 350h420l-405 -350h-316zM1214 -20l-722 722l-99 -702h-315l190 1348h21l721 -721l98 700h315l-188 -1347h-21z" />
    <glyph glyph-name="nacute" unicode="&#x144;" horiz-adv-x="1128" 
d="M471 1065l301 350h420l-406 -350h-315zM61 0l132 926h284l-6 -92q100 110 262 110q141 0 220 -79.5t79 -225.5q0 -45 -8 -102l-76 -537h-313l76 530q6 42 6 68q0 92 -107 92q-80 0 -117 -56.5t-51 -158.5l-67 -475h-314z" />
    <glyph glyph-name="Ncommaaccent" unicode="&#x145;" horiz-adv-x="1445" 
d="M1214 -20l-722 722l-99 -702h-315l190 1348h21l721 -721l98 700h315l-188 -1347h-21zM469 -465q78 63 113 113q-50 5 -77.5 35t-27.5 81q0 69 43.5 107.5t108.5 38.5t105 -39t40 -107q0 -136 -143 -229h-162z" />
    <glyph glyph-name="ncommaaccent" unicode="&#x146;" horiz-adv-x="1128" 
d="M61 0l132 926h284l-6 -92q100 110 262 110q141 0 220 -79.5t79 -225.5q0 -45 -8 -102l-76 -537h-313l76 530q6 42 6 68q0 92 -107 92q-80 0 -117 -56.5t-51 -158.5l-67 -475h-314zM311 -465q78 63 113 113q-50 5 -77.5 35t-27.5 81q0 69 43.5 107.5t108.5 38.5t105 -39
t40 -107q0 -136 -143 -229h-162z" />
    <glyph glyph-name="Ncaron" unicode="&#x147;" horiz-adv-x="1445" 
d="M854 1425l-332 369h287l74 -94l98 94h307zM1214 -20l-722 722l-99 -702h-315l190 1348h21l721 -721l98 700h315l-188 -1347h-21z" />
    <glyph glyph-name="ncaron" unicode="&#x148;" horiz-adv-x="1128" 
d="M696 1047l-331 368h286l74 -94l98 94h307zM61 0l132 926h284l-6 -92q100 110 262 110q141 0 220 -79.5t79 -225.5q0 -45 -8 -102l-76 -537h-313l76 530q6 42 6 68q0 92 -107 92q-80 0 -117 -56.5t-51 -158.5l-67 -475h-314z" />
    <glyph glyph-name="Eng" unicode="&#x14a;" horiz-adv-x="1445" 
d="M745 -424q-134 0 -223 29l33 237q52 -20 139 -20q68 0 115 21t73 63.5t38 86.5t20 109l18 134l-466 466l-99 -702h-315l190 1348h21l721 -721l98 700h315l-172 -1235q-15 -103 -35 -177t-57 -141.5t-90.5 -108.5t-134.5 -65t-189 -24z" />
    <glyph glyph-name="eng" unicode="&#x14b;" horiz-adv-x="1128" 
d="M543 -424q-104 0 -176 23l32 229q37 -12 78 -12q36 0 62.5 13t43 32.5t29 54.5t18.5 65.5t13 79.5l68 469q6 42 6 68q0 92 -107 92q-80 0 -117 -56.5t-51 -158.5l-67 -475h-314l132 926h284l-6 -90q100 110 262 110q141 0 220 -79.5t79 -225.5q0 -45 -8 -102l-78 -539
q-15 -107 -42.5 -183t-74.5 -131.5t-117.5 -82.5t-168.5 -27z" />
    <glyph glyph-name="Omacron" unicode="&#x14c;" horiz-adv-x="1570" 
d="M614 1507l33 240h647l-32 -240h-648zM743 -20q-306 0 -469 161.5t-163 429.5q0 60 8 115q43 301 250 481.5t512 180.5q294 0 464.5 -153.5t170.5 -434.5q0 -54 -9 -115q-27 -194 -129 -344.5t-267 -235.5t-368 -85zM754 272q171 0 285 110.5t139 289.5q4 29 4 73
q0 142 -81 227t-231 85q-171 0 -285.5 -110t-138.5 -283q-4 -31 -4 -74q0 -142 80.5 -230t231.5 -88z" />
    <glyph glyph-name="omacron" unicode="&#x14d;" horiz-adv-x="1183" 
d="M360 1118l33 238h647l-32 -238h-648zM545 -18q-224 0 -353 119t-129 309q0 32 7 79q29 205 185.5 330t385.5 125q220 0 349.5 -116t129.5 -306q0 -40 -6 -84q-29 -212 -186.5 -334t-382.5 -122zM557 242q108 0 174 78.5t66 187.5q0 83 -45 130.5t-125 47.5
q-106 0 -173 -81t-67 -189q0 -80 46 -127t124 -47z" />
    <glyph glyph-name="Obreve" unicode="&#x14e;" horiz-adv-x="1570" 
d="M938 1425q-175 0 -252.5 75t-77.5 202q0 53 8 92h232q-4 -23 -4 -43q0 -40 23.5 -64t86.5 -24q79 0 112.5 31.5t43.5 99.5h227q-15 -369 -399 -369zM743 -20q-306 0 -469 161.5t-163 429.5q0 60 8 115q43 301 250 481.5t512 180.5q294 0 464.5 -153.5t170.5 -434.5
q0 -54 -9 -115q-27 -194 -129 -344.5t-267 -235.5t-368 -85zM754 272q171 0 285 110.5t139 289.5q4 29 4 73q0 142 -81 227t-231 85q-171 0 -285.5 -110t-138.5 -283q-4 -31 -4 -74q0 -142 80.5 -230t231.5 -88z" />
    <glyph glyph-name="obreve" unicode="&#x14f;" horiz-adv-x="1183" 
d="M684 1047q-330 0 -330 276q0 53 8 92h232q-4 -23 -4 -43q0 -40 23.5 -64t86.5 -24q79 0 112.5 31.5t43.5 99.5h227q-15 -368 -399 -368zM545 -18q-224 0 -353 119t-129 309q0 32 7 79q29 205 185.5 330t385.5 125q220 0 349.5 -116t129.5 -306q0 -40 -6 -84
q-29 -212 -186.5 -334t-382.5 -122zM557 242q108 0 174 78.5t66 187.5q0 83 -45 130.5t-125 47.5q-106 0 -173 -81t-67 -189q0 -80 46 -127t124 -47z" />
    <glyph glyph-name="Ohungarumlaut" unicode="&#x150;" horiz-adv-x="1570" 
d="M461 1444l334 350h422l-441 -350h-315zM991 1444l332 350h422l-438 -350h-316zM743 -20q-306 0 -469 161.5t-163 429.5q0 60 8 115q43 301 250 481.5t512 180.5q294 0 464.5 -153.5t170.5 -434.5q0 -54 -9 -115q-27 -194 -129 -344.5t-267 -235.5t-368 -85zM754 272
q171 0 285 110.5t139 289.5q4 29 4 73q0 142 -81 227t-231 85q-171 0 -285.5 -110t-138.5 -283q-4 -31 -4 -74q0 -142 80.5 -230t231.5 -88z" />
    <glyph glyph-name="ohungarumlaut" unicode="&#x151;" horiz-adv-x="1183" 
d="M209 1065l336 350h422l-441 -350h-317zM741 1065l332 350h422l-438 -350h-316zM545 -18q-224 0 -353 119t-129 309q0 32 7 79q29 205 185.5 330t385.5 125q220 0 349.5 -116t129.5 -306q0 -40 -6 -84q-29 -212 -186.5 -334t-382.5 -122zM557 242q108 0 174 78.5t66 187.5
q0 83 -45 130.5t-125 47.5q-106 0 -173 -81t-67 -189q0 -80 46 -127t124 -47z" />
    <glyph glyph-name="OE" unicode="&#x152;" horiz-adv-x="2086" 
d="M725 -20q-292 0 -453 162t-161 429q0 60 8 115q43 301 250 481.5t512 180.5q143 0 243.5 -45t155.5 -111l23 135h798l-37 -262h-516l-35 -258h357l-37 -260h-358l-39 -283h540l-37 -264h-823l21 127q-73 -68 -179.5 -107.5t-232.5 -39.5zM754 272q171 0 285 110.5
t139 289.5q4 29 4 73q0 142 -81 227t-231 85q-171 0 -285.5 -110t-138.5 -283q-4 -31 -4 -74q0 -142 80.5 -230t231.5 -88z" />
    <glyph glyph-name="oe" unicode="&#x153;" horiz-adv-x="1800" 
d="M532 -18q-216 0 -342.5 119t-126.5 309q0 32 7 79q29 205 185.5 330t385.5 125q114 0 202.5 -41t129.5 -94q141 135 336 135q110 0 193 -29t132 -80t73 -115.5t24 -141.5q0 -97 -27 -207h-608v-4q0 -142 207 -142q173 0 339 78l-36 -256q-46 -22 -135 -43.5t-199 -21.5
q-120 0 -219.5 33.5t-149.5 99.5q-136 -133 -371 -133zM1122 557h299q4 12 4 31q0 51 -35.5 82.5t-93.5 31.5q-65 0 -113 -39.5t-61 -105.5zM557 242q108 0 174 78.5t66 187.5q0 83 -45 130.5t-125 47.5q-106 0 -173 -81t-67 -189q0 -80 46 -127t124 -47z" />
    <glyph glyph-name="Racute" unicode="&#x154;" horiz-adv-x="1222" 
d="M1194 1794l-406 -350h-315l301 350h420zM1192 946q0 -187 -86 -308t-234 -165l246 -473h-364l-201 438h-90l-62 -438h-323l186 1327h363q62 0 112 -2.5t110.5 -12t107 -25.5t92.5 -45t76 -68t48.5 -97.5t18.5 -130.5zM526 694q53 0 90 2.5t80 13t71.5 28.5t52 51.5
t34.5 80.5q6 27 6 52q0 31 -8.5 55t-21.5 39.5t-35.5 26.5t-42.5 17t-50.5 9t-51.5 3.5t-54 0.5h-43l-53 -379h26z" />
    <glyph glyph-name="racute" unicode="&#x155;" horiz-adv-x="710" 
d="M334 1065l301 350h420l-406 -350h-315zM61 0l132 926h284l-6 -90q92 108 240 108q33 0 45 -4l-37 -264q-28 14 -80 14q-93 0 -138.5 -56.5t-58.5 -158.5l-67 -475h-314z" />
    <glyph glyph-name="Rcommaaccent" unicode="&#x156;" horiz-adv-x="1222" 
d="M1192 946q0 -187 -86 -308t-234 -165l246 -473h-364l-201 438h-90l-62 -438h-323l186 1327h363q62 0 112 -2.5t110.5 -12t107 -25.5t92.5 -45t76 -68t48.5 -97.5t18.5 -130.5zM526 694q53 0 90 2.5t80 13t71.5 28.5t52 51.5t34.5 80.5q6 27 6 52q0 31 -8.5 55t-21.5 39.5
t-35.5 26.5t-42.5 17t-50.5 9t-51.5 3.5t-54 0.5h-43l-53 -379h26zM530 -90q66 0 106 -39t40 -107q0 -135 -144 -229h-161q76 61 112 113q-50 5 -77 35t-27 81q0 69 43 107.5t108 38.5z" />
    <glyph glyph-name="rcommaaccent" unicode="&#x157;" horiz-adv-x="710" 
d="M61 0l132 926h284l-6 -90q92 108 240 108q33 0 45 -4l-37 -264q-28 14 -80 14q-93 0 -138.5 -56.5t-58.5 -158.5l-67 -475h-314zM23 -465q76 61 112 113q-50 5 -77 35t-27 81q0 69 43 107.5t108 38.5q66 0 106 -39t40 -107q0 -135 -144 -229h-161z" />
    <glyph glyph-name="Rcaron" unicode="&#x158;" horiz-adv-x="1222" 
d="M1149 1794l-434 -369l-332 369h287l73 -94l99 94h307zM1192 946q0 -187 -86 -308t-234 -165l246 -473h-364l-201 438h-90l-62 -438h-323l186 1327h363q62 0 112 -2.5t110.5 -12t107 -25.5t92.5 -45t76 -68t48.5 -97.5t18.5 -130.5zM526 694q53 0 90 2.5t80 13t71.5 28.5
t52 51.5t34.5 80.5q6 27 6 52q0 31 -8.5 55t-21.5 39.5t-35.5 26.5t-42.5 17t-50.5 9t-51.5 3.5t-54 0.5h-43l-53 -379h26z" />
    <glyph glyph-name="rcaron" unicode="&#x159;" horiz-adv-x="710" 
d="M559 1047l-332 368h287l74 -94l98 94h307zM61 0l132 926h284l-6 -90q92 108 240 108q33 0 45 -4l-37 -264q-28 14 -80 14q-93 0 -138.5 -56.5t-58.5 -158.5l-67 -475h-314z" />
    <glyph glyph-name="Sacute" unicode="&#x15a;" horiz-adv-x="1028" 
d="M453 1444l301 350h420l-406 -350h-315zM438 -20q-241 0 -379 83l41 295q154 -108 322 -108q186 0 186 139q0 35 -23.5 63.5t-61 51t-83 46t-91 55.5t-83 71.5t-61 102t-23.5 139.5q0 209 127 319.5t355 110.5q105 0 194.5 -22t130.5 -46l-41 -291q-57 39 -132.5 64.5
t-141.5 25.5q-79 0 -120.5 -36t-41.5 -93q0 -38 23.5 -68t61.5 -52.5t83.5 -45t91 -53t83.5 -69t61.5 -101t23.5 -141.5q0 -216 -137 -328t-365 -112z" />
    <glyph glyph-name="sacute" unicode="&#x15b;" horiz-adv-x="813" 
d="M315 1065l301 350h420l-405 -350h-316zM319 -18q-93 0 -168.5 18t-109.5 39l33 227q35 -23 101 -45t132 -22q119 0 119 82q0 29 -17 50.5t-44 35.5t-59.5 27.5t-65.5 32t-60 44t-44 69t-17 101.5q0 139 94.5 221t269.5 82q82 0 153.5 -16.5t100.5 -32.5l-30 -223
q-98 57 -189 57q-52 0 -79 -18.5t-27 -51.5q0 -24 17 -42t43.5 -30.5t59 -25.5t65.5 -33t59.5 -47t43.5 -73.5t17 -106.5q0 -83 -30.5 -145.5t-86 -99.5t-126 -55.5t-155.5 -18.5z" />
    <glyph glyph-name="Scircumflex" unicode="&#x15c;" horiz-adv-x="1028" 
d="M317 1444l435 368l331 -368h-286l-74 94l-98 -94h-308zM438 -20q-241 0 -379 83l41 295q154 -108 322 -108q186 0 186 139q0 35 -23.5 63.5t-61 51t-83 46t-91 55.5t-83 71.5t-61 102t-23.5 139.5q0 209 127 319.5t355 110.5q105 0 194.5 -22t130.5 -46l-41 -291
q-57 39 -132.5 64.5t-141.5 25.5q-79 0 -120.5 -36t-41.5 -93q0 -38 23.5 -68t61.5 -52.5t83.5 -45t91 -53t83.5 -69t61.5 -101t23.5 -141.5q0 -216 -137 -328t-365 -112z" />
    <glyph glyph-name="scircumflex" unicode="&#x15d;" horiz-adv-x="813" 
d="M156 1065l434 369l332 -369h-287l-74 94l-98 -94h-307zM319 -18q-93 0 -168.5 18t-109.5 39l33 227q35 -23 101 -45t132 -22q119 0 119 82q0 29 -17 50.5t-44 35.5t-59.5 27.5t-65.5 32t-60 44t-44 69t-17 101.5q0 139 94.5 221t269.5 82q82 0 153.5 -16.5t100.5 -32.5
l-30 -223q-98 57 -189 57q-52 0 -79 -18.5t-27 -51.5q0 -24 17 -42t43.5 -30.5t59 -25.5t65.5 -33t59.5 -47t43.5 -73.5t17 -106.5q0 -83 -30.5 -145.5t-86 -99.5t-126 -55.5t-155.5 -18.5z" />
    <glyph glyph-name="Scedilla" unicode="&#x15e;" horiz-adv-x="1028" 
d="M674 1079q-79 0 -120.5 -36t-41.5 -93q0 -38 23.5 -68t61.5 -52.5t83.5 -45t91 -53t83.5 -69t61.5 -101t23.5 -141.5q0 -195 -113 -306t-307 -130l-28 -64q63 -5 101 -40t38 -101q0 -203 -264 -203q-90 0 -146 25l21 139q34 -23 92 -23q37 0 59.5 15t22.5 45
q0 22 -14 35.5t-40 13.5q-38 0 -65 -31l-21 15l74 174q-188 14 -291 79l41 295q154 -108 322 -108q186 0 186 139q0 35 -23.5 63.5t-61 51t-83 46t-91 55.5t-83 71.5t-61 102t-23.5 139.5q0 209 127 319.5t355 110.5q105 0 194.5 -22t130.5 -46l-41 -291q-57 39 -132.5 64.5
t-141.5 25.5z" />
    <glyph glyph-name="scedilla" unicode="&#x15f;" horiz-adv-x="813" 
d="M412 659q0 -24 17 -42t43.5 -30.5t59 -25.5t65.5 -33t59.5 -47t43.5 -73.5t17 -106.5q0 -138 -81 -215.5t-220 -97.5l-31 -68q63 -5 101 -40t38 -101q0 -203 -264 -203q-89 0 -145 25l20 139q35 -23 92 -23q37 0 59.5 15t22.5 45q0 22 -13.5 35.5t-39.5 13.5
q-39 0 -66 -31l-20 15l74 176q-130 11 -203 53l33 227q35 -23 101 -45t132 -22q119 0 119 82q0 29 -17 50.5t-44 35.5t-59.5 27.5t-65.5 32t-60 44t-44 69t-17 101.5q0 139 94.5 221t269.5 82q82 0 153.5 -16.5t100.5 -32.5l-30 -223q-98 57 -189 57q-52 0 -79 -18.5
t-27 -51.5z" />
    <glyph glyph-name="Scaron" unicode="&#x160;" horiz-adv-x="1028" 
d="M694 1425l-332 369h287l74 -94l98 94h307zM438 -20q-241 0 -379 83l41 295q154 -108 322 -108q186 0 186 139q0 35 -23.5 63.5t-61 51t-83 46t-91 55.5t-83 71.5t-61 102t-23.5 139.5q0 209 127 319.5t355 110.5q105 0 194.5 -22t130.5 -46l-41 -291q-57 39 -132.5 64.5
t-141.5 25.5q-79 0 -120.5 -36t-41.5 -93q0 -38 23.5 -68t61.5 -52.5t83.5 -45t91 -53t83.5 -69t61.5 -101t23.5 -141.5q0 -216 -137 -328t-365 -112z" />
    <glyph glyph-name="scaron" unicode="&#x161;" horiz-adv-x="813" 
d="M541 1047l-332 368h287l73 -94l99 94h307zM319 -18q-93 0 -168.5 18t-109.5 39l33 227q35 -23 101 -45t132 -22q119 0 119 82q0 29 -17 50.5t-44 35.5t-59.5 27.5t-65.5 32t-60 44t-44 69t-17 101.5q0 139 94.5 221t269.5 82q82 0 153.5 -16.5t100.5 -32.5l-30 -223
q-98 57 -189 57q-52 0 -79 -18.5t-27 -51.5q0 -24 17 -42t43.5 -30.5t59 -25.5t65.5 -33t59.5 -47t43.5 -73.5t17 -106.5q0 -83 -30.5 -145.5t-86 -99.5t-126 -55.5t-155.5 -18.5z" />
    <glyph glyph-name="uni0162" unicode="&#x162;" horiz-adv-x="1153" 
d="M350 0l150 1065h-350l36 262h1022l-37 -262h-348l-149 -1065h-324zM319 -465q78 63 113 113q-50 5 -77 35t-27 81q0 69 43 107.5t108 38.5q66 0 106 -39t40 -107q0 -135 -144 -229h-162z" />
    <glyph glyph-name="uni0163" unicode="&#x163;" horiz-adv-x="864" 
d="M518 -12q-168 0 -257 74t-89 208q0 61 18 187l33 229h-176l4 21q43 37 263 248.5t280 273.5h20l-43 -303h248l-35 -240h-245l-35 -235q-15 -101 -15 -123q0 -88 123 -88q79 0 152 41l-37 -256q-23 -13 -82 -25t-127 -12zM250 -465q76 61 112 113q-50 5 -77 35t-27 81
q0 69 43.5 107.5t108.5 38.5t105 -39t40 -107q0 -136 -143 -229h-162z" />
    <glyph glyph-name="Tcaron" unicode="&#x164;" horiz-adv-x="1153" 
d="M705 1425l-332 369h286l74 -94l98 94h308zM350 0l150 1065h-350l36 262h1022l-37 -262h-348l-149 -1065h-324z" />
    <glyph glyph-name="tcaron" unicode="&#x165;" horiz-adv-x="970" 
d="M729 1022q103 80 158 149q-51 6 -78 36t-27 81q0 69 43.5 107.5t108.5 38.5t105 -39t40 -107q0 -78 -50.5 -148t-137.5 -118h-162zM518 -12q-168 0 -257 74t-89 208q0 61 18 187l33 229h-176l4 21q43 37 263 248.5t280 273.5h20l-43 -303h248l-35 -240h-245l-35 -235
q-15 -101 -15 -123q0 -88 123 -88q79 0 152 41l-37 -256q-23 -13 -82 -25t-127 -12z" />
    <glyph glyph-name="Tbar" unicode="&#x166;" horiz-adv-x="1153" 
d="M1171 1065h-348l-47 -332h191l-35 -246h-191l-67 -487h-324l68 487h-170l35 246h170l47 332h-350l36 262h1022z" />
    <glyph glyph-name="tbar" unicode="&#x167;" horiz-adv-x="864" 
d="M784 686h-245l-15 -102h215l-30 -228h-217q-3 -15 -3 -28q0 -88 123 -88q79 0 152 41l-37 -256q-23 -13 -82 -25t-127 -12q-168 0 -257 74t-89 208q0 36 6 86h-110l30 228h111l14 102h-176l4 21q43 37 263 248.5t280 273.5h20l-43 -303h248z" />
    <glyph glyph-name="Utilde" unicode="&#x168;" horiz-adv-x="1357" 
d="M969 1466q-53 0 -104 18.5t-91 37t-67 18.5q-62 0 -74 -63h-184q14 128 79.5 201t176.5 73q56 0 108.5 -18.5t92 -37t63.5 -18.5q35 0 51.5 20.5t21.5 43.5h187q-9 -122 -78 -198.5t-182 -76.5zM627 -20q-239 0 -364.5 109.5t-125.5 324.5q0 54 21 198l98 715h324
l-109 -774q-10 -75 -10 -117q0 -86 42.5 -131t139.5 -45q125 0 186 73.5t84 231.5l109 762h321l-110 -788q-8 -55 -17.5 -99.5t-30.5 -104.5t-49 -107t-75 -95.5t-105.5 -80t-143 -52t-185.5 -20.5z" />
    <glyph glyph-name="utilde" unicode="&#x169;" horiz-adv-x="1075" 
d="M772 1087q-53 0 -104 18.5t-91 37t-67 18.5q-62 0 -74 -63h-184q14 128 79.5 201t176.5 73q56 0 108.5 -18.5t92 -37t63.5 -18.5q35 0 52 20.5t22 43.5h186q-9 -122 -78 -198.5t-182 -76.5zM485 -18q-104 0 -180.5 26t-120 73.5t-64 105t-20.5 128.5q0 39 15 146l65 465
h314l-76 -543q-6 -43 -6 -66q0 -84 94 -84q59 0 93 35t44 111l76 547h307l-74 -525q-10 -73 -28 -131t-53 -114t-84.5 -92.5t-126.5 -59t-175 -22.5z" />
    <glyph glyph-name="Umacron" unicode="&#x16a;" horiz-adv-x="1357" 
d="M502 1507l33 240h647l-33 -240h-647zM627 -20q-239 0 -364.5 109.5t-125.5 324.5q0 54 21 198l98 715h324l-109 -774q-10 -75 -10 -117q0 -86 42.5 -131t139.5 -45q125 0 186 73.5t84 231.5l109 762h321l-110 -788q-8 -55 -17.5 -99.5t-30.5 -104.5t-49 -107t-75 -95.5
t-105.5 -80t-143 -52t-185.5 -20.5z" />
    <glyph glyph-name="umacron" unicode="&#x16b;" horiz-adv-x="1075" 
d="M303 1118l33 238h647l-33 -238h-647zM485 -18q-104 0 -180.5 26t-120 73.5t-64 105t-20.5 128.5q0 39 15 146l65 465h314l-76 -543q-6 -43 -6 -66q0 -84 94 -84q59 0 93 35t44 111l76 547h307l-74 -525q-10 -73 -28 -131t-53 -114t-84.5 -92.5t-126.5 -59t-175 -22.5z
" />
    <glyph glyph-name="Ubreve" unicode="&#x16c;" horiz-adv-x="1357" 
d="M825 1425q-329 0 -329 277q0 53 8 92h231q-4 -23 -4 -43q0 -88 111 -88q79 0 112 31.5t43 99.5h228q-15 -369 -400 -369zM627 -20q-239 0 -364.5 109.5t-125.5 324.5q0 54 21 198l98 715h324l-109 -774q-10 -75 -10 -117q0 -86 42.5 -131t139.5 -45q125 0 186 73.5
t84 231.5l109 762h321l-110 -788q-8 -55 -17.5 -99.5t-30.5 -104.5t-49 -107t-75 -95.5t-105.5 -80t-143 -52t-185.5 -20.5z" />
    <glyph glyph-name="ubreve" unicode="&#x16d;" horiz-adv-x="1075" 
d="M627 1047q-330 0 -330 276q0 53 8 92h232q-5 -29 -5 -43q0 -88 111 -88q79 0 112.5 31.5t43.5 99.5h227q-15 -368 -399 -368zM485 -18q-104 0 -180.5 26t-120 73.5t-64 105t-20.5 128.5q0 39 15 146l65 465h314l-76 -543q-6 -43 -6 -66q0 -84 94 -84q59 0 93 35t44 111
l76 547h307l-74 -525q-10 -73 -28 -131t-53 -114t-84.5 -92.5t-126.5 -59t-175 -22.5z" />
    <glyph glyph-name="Uring" unicode="&#x16e;" horiz-adv-x="1357" 
d="M821 1413q-91 0 -148 53t-57 142q0 102 71 164.5t173 62.5q92 0 149.5 -51t57.5 -139q0 -114 -71 -173t-175 -59zM838 1554q32 0 52.5 21t20.5 55q0 29 -18 47.5t-47 18.5q-31 0 -52.5 -22.5t-21.5 -55.5q0 -29 17.5 -46.5t48.5 -17.5zM627 -20q-239 0 -364.5 109.5
t-125.5 324.5q0 54 21 198l98 715h324l-109 -774q-10 -75 -10 -117q0 -86 42.5 -131t139.5 -45q125 0 186 73.5t84 231.5l109 762h321l-110 -788q-8 -55 -17.5 -99.5t-30.5 -104.5t-49 -107t-75 -95.5t-105.5 -80t-143 -52t-185.5 -20.5z" />
    <glyph glyph-name="uring" unicode="&#x16f;" horiz-adv-x="1075" 
d="M627 1044q-91 0 -148 53t-57 142q0 102 71 164.5t173 62.5q92 0 149 -51t57 -139q0 -114 -70.5 -173t-174.5 -59zM643 1186q32 0 53 21t21 55q0 29 -18.5 47t-47.5 18q-31 0 -52 -22t-21 -56q0 -29 17 -46t48 -17zM485 -18q-104 0 -180.5 26t-120 73.5t-64 105
t-20.5 128.5q0 39 15 146l65 465h314l-76 -543q-6 -43 -6 -66q0 -84 94 -84q59 0 93 35t44 111l76 547h307l-74 -525q-10 -73 -28 -131t-53 -114t-84.5 -92.5t-126.5 -59t-175 -22.5z" />
    <glyph glyph-name="Uhungarumlaut" unicode="&#x170;" horiz-adv-x="1357" 
d="M281 1444l333 350h422l-440 -350h-315zM811 1444l332 350h422l-439 -350h-315zM627 -20q-239 0 -364.5 109.5t-125.5 324.5q0 54 21 198l98 715h324l-109 -774q-10 -75 -10 -117q0 -86 42.5 -131t139.5 -45q125 0 186 73.5t84 231.5l109 762h321l-110 -788
q-8 -55 -17.5 -99.5t-30.5 -104.5t-49 -107t-75 -95.5t-105.5 -80t-143 -52t-185.5 -20.5z" />
    <glyph glyph-name="uhungarumlaut" unicode="&#x171;" horiz-adv-x="1075" 
d="M152 1065l335 350h422l-440 -350h-317zM684 1065l332 350h422l-439 -350h-315zM485 -18q-104 0 -180.5 26t-120 73.5t-64 105t-20.5 128.5q0 39 15 146l65 465h314l-76 -543q-6 -43 -6 -66q0 -84 94 -84q59 0 93 35t44 111l76 547h307l-74 -525q-10 -73 -28 -131
t-53 -114t-84.5 -92.5t-126.5 -59t-175 -22.5z" />
    <glyph glyph-name="Uogonek" unicode="&#x172;" horiz-adv-x="1357" 
d="M735 -424q-107 0 -176.5 45t-69.5 139q0 143 127 222q-12 -2 -38 -2q-203 0 -322 113t-119 321q0 54 21 198l98 715h324l-109 -774q-10 -75 -10 -117q0 -86 42.5 -131t139.5 -45q125 0 186 73.5t84 231.5l109 762h321l-110 -788q-11 -76 -25.5 -132.5t-43 -125t-79 -126
t-122.5 -102.5q-150 -93 -201 -140t-51 -108q0 -57 71 -57q31 0 62 9.5t43 17.5l-25 -181q-49 -18 -127 -18z" />
    <glyph glyph-name="uogonek" unicode="&#x173;" horiz-adv-x="1075" 
d="M596 -424q-107 0 -176.5 45t-69.5 139q0 85 37.5 137t110.5 87q-8 -2 -23 -2q-101 0 -175.5 26.5t-117 74t-62.5 105t-20 127.5q0 39 15 146l65 465h314l-76 -543q-6 -43 -6 -66q0 -84 94 -84q59 0 93 35t44 111l76 547h307l-74 -525q-18 -125 -63 -213.5t-133 -158.5
q-109 -87 -147 -129.5t-38 -94.5q0 -57 72 -57q31 0 62 9.5t43 17.5l-25 -181q-49 -18 -127 -18z" />
    <glyph glyph-name="Wcircumflex" unicode="&#x174;" horiz-adv-x="2156" 
d="M831 1444l435 368l331 -368h-286l-74 94l-98 -94h-308zM612 -18l-450 1345h344l213 -678l461 678h18l268 -680l408 680h362l-827 -1345h-20l-279 704l-477 -704h-21z" />
    <glyph glyph-name="wcircumflex" unicode="&#x175;" horiz-adv-x="1478" 
d="M436 1065l434 369l332 -369h-287l-73 94l-99 -94h-307zM426 -18l-346 944h330l112 -389l260 389h21l151 -389l228 389h348l-615 -944h-20l-166 424l-283 -424h-20z" />
    <glyph glyph-name="Ycircumflex" unicode="&#x176;" horiz-adv-x="1335" 
d="M418 1444l434 368l332 -368h-287l-74 94l-98 -94h-307zM436 0l76 526l-362 801h346l213 -518l356 518h362l-591 -801l-76 -526h-324z" />
    <glyph glyph-name="ycircumflex" unicode="&#x177;" horiz-adv-x="1083" 
d="M238 1065l434 369l332 -369h-287l-74 94l-98 -94h-307zM41 -406l287 484l-256 848h329l121 -518l277 518h344l-760 -1332h-342z" />
    <glyph glyph-name="Ydieresis" unicode="&#x178;" horiz-adv-x="1335" 
d="M586 1450q-76 0 -122 46t-46 118q0 79 53 131.5t135 52.5q74 0 119 -46t45 -118q0 -79 -51.5 -131.5t-132.5 -52.5zM1055 1450q-75 0 -121.5 46t-46.5 118q0 79 53 131.5t135 52.5q74 0 119 -46t45 -118q0 -79 -51.5 -131.5t-132.5 -52.5zM436 0l76 526l-362 801h346
l213 -518l356 518h362l-591 -801l-76 -526h-324z" />
    <glyph glyph-name="Zacute" unicode="&#x179;" horiz-adv-x="1222" 
d="M487 1444l301 350h420l-405 -350h-316zM-12 0l4 20l721 1045h-527l37 262h1049l-4 -20l-719 -1043h565l-37 -264h-1089z" />
    <glyph glyph-name="zacute" unicode="&#x17a;" horiz-adv-x="950" 
d="M336 1065l301 350h420l-406 -350h-315zM-27 0l4 20l474 666h-347l35 240h838l-4 -21l-471 -663h387l-35 -242h-881z" />
    <glyph glyph-name="Zdotaccent" unicode="&#x17b;" horiz-adv-x="1222" 
d="M754 1450q-77 0 -124.5 46.5t-47.5 119.5q0 80 54 134t138 54q75 0 121.5 -47.5t46.5 -120.5q0 -80 -52.5 -133t-135.5 -53zM-12 0l4 20l721 1045h-527l37 262h1049l-4 -20l-719 -1043h565l-37 -264h-1089z" />
    <glyph glyph-name="zdotaccent" unicode="&#x17c;" horiz-adv-x="950" 
d="M571 1077q-70 0 -110.5 40.5t-40.5 105.5q0 82 54 135t132 53q66 0 107 -41t41 -104q0 -86 -51.5 -137.5t-131.5 -51.5zM-27 0l4 20l474 666h-347l35 240h838l-4 -21l-471 -663h387l-35 -242h-881z" />
    <glyph glyph-name="Zcaron" unicode="&#x17d;" horiz-adv-x="1222" 
d="M729 1425l-332 369h287l74 -94l98 94h307zM-12 0l4 20l721 1045h-527l37 262h1049l-4 -20l-719 -1043h565l-37 -264h-1089z" />
    <glyph glyph-name="zcaron" unicode="&#x17e;" horiz-adv-x="950" 
d="M561 1047l-332 368h287l74 -94l98 94h307zM-27 0l4 20l474 666h-347l35 240h838l-4 -21l-471 -663h387l-35 -242h-881z" />
    <glyph glyph-name="longs" unicode="&#x17f;" horiz-adv-x="776" 
d="M143 0l97 686h-160l35 240h159l11 78q26 196 122.5 292.5t292.5 96.5q75 0 134.5 -13.5t83.5 -25.5l-35 -250q-15 11 -51 22t-76 11q-44 0 -75.5 -14t-48.5 -39.5t-25.5 -51t-12.5 -59.5l-137 -973h-314z" />
    <glyph glyph-name="florin" unicode="&#x192;" horiz-adv-x="956" 
d="M-20 -424q-62 0 -113 9.5t-68 19.5l23 245q32 -12 90 -12q88 0 130.5 42t82.5 167l151 477h-137l37 256h182l68 209q58 182 165 270.5t296 88.5q65 0 114 -9.5t64 -17.5l-37 -256q-40 18 -94 18q-81 0 -128.5 -46t-80.5 -152l-33 -105h209l-37 -256h-254l-161 -516
q-18 -55 -31 -91t-36 -86t-46.5 -82.5t-59 -68t-76.5 -56.5t-97.5 -34.5t-122.5 -13.5z" />
    <glyph glyph-name="uni01CD" unicode="&#x1cd;" horiz-adv-x="1308" 
d="M784 1425l-331 369h286l74 -94l98 94h308zM-37 0l807 1348h21l423 -1348h-335l-50 180h-421l-101 -180h-344zM537 422h237l-78 291z" />
    <glyph glyph-name="uni01CE" unicode="&#x1ce;" horiz-adv-x="1101" 
d="M1042 1415l-434 -368l-332 368h287l74 -94l98 94h307zM565 944q204 0 316 -78t112 -233q0 -38 -12 -127l-72 -506h-284l6 88q-95 -106 -285 -106q-144 0 -225.5 70.5t-81.5 195.5q0 81 38 147t101 106t140.5 61.5t160.5 21.5q117 0 199 -35v4q4 28 4 49q0 57 -39 92
t-151 35q-131 0 -293 -92l34 235q147 72 332 72zM463 176q75 0 125 47t63 144v4q-47 30 -121 30q-80 0 -128 -35.5t-48 -97.5q0 -45 30.5 -68.5t78.5 -23.5z" />
    <glyph glyph-name="AEacute" unicode="&#x1fc;" horiz-adv-x="1826" 
d="M817 1444l301 350h420l-405 -350h-316zM-37 0l795 1327h639l84 -262h-602l82 -258h462l82 -260h-463l88 -283h588l84 -264h-923l-50 180h-421l-101 -180h-344zM537 422h237l-78 291z" />
    <glyph glyph-name="aeacute" unicode="&#x1fd;" horiz-adv-x="1628" 
d="M1446 1415l-406 -350h-315l301 350h420zM1532 371h-608v-4q0 -142 206 -142q174 0 340 78l-36 -256q-46 -22 -135 -43.5t-199 -21.5q-296 0 -375 159q-44 -70 -133 -114.5t-225 -44.5q-158 0 -243 70t-85 196q0 81 38 147t101 106t140.5 61.5t160.5 21.5q117 0 199 -35v4
q4 28 4 49q0 57 -39 92t-151 35q-131 0 -293 -92l34 235q147 72 332 72q199 0 266 -102q53 53 136.5 77.5t169.5 24.5q110 0 193 -29t132 -80t73 -115.5t24 -141.5q0 -97 -27 -207zM1124 702q-65 0 -113 -39.5t-61 -105.5h299q4 12 4 31q0 51 -35.5 82.5t-93.5 31.5z
M463 176q75 0 125 47t63 144v4q-47 30 -121 30q-80 0 -128 -35.5t-48 -97.5q0 -45 30.5 -68.5t78.5 -23.5z" />
    <glyph glyph-name="Oslashacute" unicode="&#x1fe;" horiz-adv-x="1570" 
d="M766 1444l301 350h420l-406 -350h-315zM39 -61l203 237q-131 152 -131 395q0 60 8 115q43 301 250 481.5t512 180.5q176 0 309 -56l98 115h281l-201 -236q148 -154 148 -411q0 -54 -9 -115q-27 -194 -129 -344.5t-267 -235.5t-368 -85q-191 0 -331 67l-93 -108h-280z
M469 444l510 598q-44 15 -109 15q-171 0 -285.5 -110t-138.5 -283q-4 -31 -4 -74q0 -82 27 -146zM754 272q171 0 285 110.5t139 289.5q4 29 4 73q0 97 -37 164l-522 -614q44 -23 131 -23z" />
    <glyph glyph-name="oslashacute" unicode="&#x1ff;" horiz-adv-x="1183" 
d="M451 1065l301 350h419l-405 -350h-315zM66 -84l135 176q-66 57 -102 139.5t-36 178.5q0 32 7 79q29 205 185.5 330t385.5 125q109 0 197 -31l75 99h203l-135 -174q139 -117 139 -316q0 -40 -6 -84q-29 -212 -186.5 -334t-382.5 -122q-115 0 -201 30l-76 -96h-202z
M397 346l262 338q-10 2 -32 2q-106 0 -173 -81t-67 -189q0 -43 10 -70zM557 242q108 0 174 78.5t66 187.5q0 39 -13 76l-262 -340q10 -2 35 -2z" />
    <glyph glyph-name="Scommaaccent" unicode="&#x218;" horiz-adv-x="1028" 
d="M438 -20q-241 0 -379 83l41 295q154 -108 322 -108q186 0 186 139q0 35 -23.5 63.5t-61 51t-83 46t-91 55.5t-83 71.5t-61 102t-23.5 139.5q0 209 127 319.5t355 110.5q105 0 194.5 -22t130.5 -46l-41 -291q-57 39 -132.5 64.5t-141.5 25.5q-79 0 -120.5 -36t-41.5 -93
q0 -38 23.5 -68t61.5 -52.5t83.5 -45t91 -53t83.5 -69t61.5 -101t23.5 -141.5q0 -216 -137 -328t-365 -112zM244 -465q76 61 112 113q-50 5 -77 35t-27 81q0 69 43 107.5t108 38.5q66 0 106 -39t40 -107q0 -136 -143 -229h-162z" />
    <glyph glyph-name="scommaaccent" unicode="&#x219;" horiz-adv-x="813" 
d="M319 -18q-93 0 -168.5 18t-109.5 39l33 227q35 -23 101 -45t132 -22q119 0 119 82q0 29 -17 50.5t-44 35.5t-59.5 27.5t-65.5 32t-60 44t-44 69t-17 101.5q0 139 94.5 221t269.5 82q82 0 153.5 -16.5t100.5 -32.5l-30 -223q-98 57 -189 57q-52 0 -79 -18.5t-27 -51.5
q0 -24 17 -42t43.5 -30.5t59 -25.5t65.5 -33t59.5 -47t43.5 -73.5t17 -106.5q0 -83 -30.5 -145.5t-86 -99.5t-126 -55.5t-155.5 -18.5zM137 -465q78 63 113 113q-50 5 -77.5 35t-27.5 81q0 69 43.5 107.5t108.5 38.5t105 -39t40 -107q0 -136 -143 -229h-162z" />
    <glyph glyph-name="uni021A" unicode="&#x21a;" horiz-adv-x="1153" 
d="M350 0l150 1065h-350l36 262h1022l-37 -262h-348l-149 -1065h-324zM319 -465q78 63 113 113q-50 5 -77 35t-27 81q0 69 43 107.5t108 38.5q66 0 106 -39t40 -107q0 -135 -144 -229h-162z" />
    <glyph glyph-name="uni021B" unicode="&#x21b;" horiz-adv-x="864" 
d="M518 -12q-168 0 -257 74t-89 208q0 61 18 187l33 229h-176l4 21q43 37 263 248.5t280 273.5h20l-43 -303h248l-35 -240h-245l-35 -235q-15 -101 -15 -123q0 -88 123 -88q79 0 152 41l-37 -256q-23 -13 -82 -25t-127 -12zM250 -465q76 61 112 113q-50 5 -77 35t-27 81
q0 69 43.5 107.5t108.5 38.5t105 -39t40 -107q0 -136 -143 -229h-162z" />
    <glyph glyph-name="uni0237" unicode="&#x237;" horiz-adv-x="626" 
d="M-76 -424q-139 0 -215 31l35 237q52 -20 131 -20q63 0 106 19t68.5 58.5t38.5 83.5t23 111l84 590h-109l35 240h418l-111 -787q-10 -75 -20.5 -129.5t-29.5 -117t-43 -105.5t-62 -86t-86 -68.5t-114.5 -41t-148.5 -15.5z" />
    <glyph glyph-name="circumflex" unicode="&#x2c6;" horiz-adv-x="1042" 
d="M227 1065l435 369l331 -369h-286l-74 94l-98 -94h-308z" />
    <glyph glyph-name="caron" unicode="&#x2c7;" horiz-adv-x="1042" 
d="M608 1047l-332 368h287l74 -94l98 94h307z" />
    <glyph glyph-name="breve" unicode="&#x2d8;" horiz-adv-x="1050" 
d="M627 1047q-330 0 -330 276q0 53 8 92h232q-5 -29 -5 -43q0 -88 111 -88q79 0 112.5 31.5t43.5 99.5h227q-15 -368 -399 -368z" />
    <glyph glyph-name="dotaccent" unicode="&#x2d9;" horiz-adv-x="1064" 
d="M643 1077q-70 0 -110.5 40.5t-40.5 105.5q0 82 54 135t132 53q66 0 106.5 -41t40.5 -104q0 -86 -51 -137.5t-131 -51.5z" />
    <glyph glyph-name="ring" unicode="&#x2da;" horiz-adv-x="1058" 
d="M633 1044q-91 0 -148 53t-57 142q0 102 71 164.5t173 62.5q92 0 149.5 -51t57.5 -139q0 -114 -71 -173t-175 -59zM649 1186q32 0 53 21t21 55q0 29 -18.5 47t-47.5 18q-31 0 -52 -22t-21 -56q0 -29 17 -46t48 -17z" />
    <glyph glyph-name="ogonek" unicode="&#x2db;" horiz-adv-x="1056" 
d="M551 -424q-107 0 -176.5 45t-69.5 139q0 118 84.5 194.5t224.5 104.5l127 -55q-94 -29 -154.5 -82.5t-60.5 -116.5q0 -57 72 -57q31 0 61 9.5t43 17.5l-24 -181q-49 -18 -127 -18z" />
    <glyph glyph-name="tilde" unicode="&#x2dc;" horiz-adv-x="1044" 
d="M770 1087q-53 0 -104 18.5t-91 37t-67 18.5q-62 0 -74 -63h-184q14 128 79.5 201t176.5 73q56 0 108.5 -18.5t92 -37t63.5 -18.5q35 0 52 20.5t22 43.5h186q-9 -122 -78 -198.5t-182 -76.5z" />
    <glyph glyph-name="hungarumlaut" unicode="&#x2dd;" horiz-adv-x="1026" 
d="M-27 1065l336 350h422l-440 -350h-318zM506 1065l332 350h422l-439 -350h-315z" />
    <glyph glyph-name="gravecomb" unicode="&#x300;" horiz-adv-x="0" 
d="M-414 1065l-309 350h406l206 -350h-303z" />
    <glyph glyph-name="acutecomb" unicode="&#x301;" horiz-adv-x="0" 
d="M-782 1065l301 350h420l-406 -350h-315z" />
    <glyph glyph-name="uni0302" unicode="&#x302;" horiz-adv-x="0" 
d="M-821 1065l434 369l332 -369h-287l-74 94l-98 -94h-307z" />
    <glyph glyph-name="tildecomb" unicode="&#x303;" horiz-adv-x="0" 
d="M-283 1087q-53 0 -104 18.5t-91 37t-67 18.5q-61 0 -73 -63h-185q14 128 79.5 201t176.5 73q56 0 108.5 -18.5t92 -37t63.5 -18.5q35 0 52 20.5t22 43.5h186q-9 -122 -78 -198.5t-182 -76.5z" />
    <glyph glyph-name="uni0304" unicode="&#x304;" horiz-adv-x="0" 
d="M-758 1118l33 238h647l-33 -238h-647z" />
    <glyph glyph-name="uni0306" unicode="&#x306;" horiz-adv-x="0" 
d="M-432 1047q-330 0 -330 276q0 53 8 92h232q-4 -23 -4 -43q0 -40 23.5 -64t86.5 -24q79 0 112.5 31.5t43.5 99.5h227q-15 -368 -399 -368z" />
    <glyph glyph-name="uni0307" unicode="&#x307;" horiz-adv-x="0" 
d="M-438 1077q-70 0 -111 40.5t-41 105.5q0 82 54.5 135t132.5 53q66 0 106.5 -41t40.5 -104q0 -86 -51 -137.5t-131 -51.5z" />
    <glyph glyph-name="uni0308" unicode="&#x308;" horiz-adv-x="0" 
d="M-664 1077q-70 0 -110.5 40.5t-40.5 105.5q0 82 54 135t132 53q66 0 107 -41t41 -104q0 -86 -51.5 -137.5t-131.5 -51.5zM-195 1077q-70 0 -110.5 40.5t-40.5 105.5q0 82 54 135t132 53q66 0 107 -41t41 -104q0 -86 -51.5 -137.5t-131.5 -51.5z" />
    <glyph glyph-name="uni030A" unicode="&#x30a;" horiz-adv-x="0" 
d="M-440 1044q-91 0 -148 53t-57 142q0 102 71 164.5t173 62.5q92 0 149 -51t57 -139q0 -114 -70.5 -173t-174.5 -59zM-424 1186q32 0 53 21t21 55q0 29 -18.5 47t-47.5 18q-31 0 -52 -22t-21 -56q0 -29 17 -46t48 -17z" />
    <glyph glyph-name="uni030B" unicode="&#x30b;" horiz-adv-x="0" 
d="M-1049 1065l336 350h422l-440 -350h-318zM-516 1065l332 350h422l-439 -350h-315z" />
    <glyph glyph-name="uni030C" unicode="&#x30c;" horiz-adv-x="0" 
d="M-440 1047l-332 368h287l73 -94l99 94h307z" />
    <glyph glyph-name="uni0315" unicode="&#x315;" horiz-adv-x="0" 
d="M-602 936q103 80 158 149q-51 6 -78 36t-27 81q0 69 43.5 107.5t108.5 38.5t105 -39t40 -107q0 -78 -50.5 -148t-137.5 -118h-162z" />
    <glyph glyph-name="uni0326" unicode="&#x326;" horiz-adv-x="0" 
d="M-766 -465q78 63 113 113q-50 5 -77.5 35t-27.5 81q0 69 43.5 107.5t108.5 38.5t105 -39t40 -107q0 -136 -143 -229h-162z" />
    <glyph glyph-name="uni0327" unicode="&#x327;" horiz-adv-x="0" 
d="M-600 -80q63 -5 101 -40t38 -101q0 -203 -264 -203q-89 0 -145 25l20 139q34 -23 92 -23q37 0 59.5 15t22.5 45q0 22 -13.5 35.5t-39.5 13.5q-39 0 -66 -31l-20 15l102 241l172 -2z" />
    <glyph glyph-name="uni0328" unicode="&#x328;" horiz-adv-x="0" 
d="M-524 -424q-107 0 -176.5 45t-69.5 139q0 118 84.5 194.5t224.5 104.5l127 -55q-94 -29 -154.5 -82.5t-60.5 -116.5q0 -57 72 -57q31 0 61 9.5t43 17.5l-24 -181q-49 -18 -127 -18z" />
    <glyph glyph-name="uni0374" unicode="&#x374;" horiz-adv-x="542" 
d="M41 844l139 483h332l-231 -483h-240z" />
    <glyph glyph-name="uni0375" unicode="&#x375;" horiz-adv-x="542" 
d="M20 -283l140 484h332l-232 -484h-240z" />
    <glyph glyph-name="uni037E" unicode="&#x37e;" horiz-adv-x="593" 
d="M350 631q-79 0 -124.5 46t-45.5 122q0 84 58.5 141t136.5 57q75 0 122.5 -47t47.5 -123q0 -88 -57.5 -142t-137.5 -54zM-18 -309q89 66 147.5 144.5t85.5 148.5q-66 6 -102.5 44.5t-36.5 104.5q0 93 61 154t152 61q88 0 138 -51.5t50 -146.5q0 -118 -64.5 -239
t-209.5 -220h-221z" />
    <glyph glyph-name="tonos" unicode="&#x384;" horiz-adv-x="1054" 
d="M250 1065l201 350h364l-274 -350h-291z" />
    <glyph glyph-name="dieresistonos" unicode="&#x385;" horiz-adv-x="1228" 
d="M352 1065l123 352h266l-192 -352h-197zM176 1065q-62 0 -99.5 37t-37.5 94q0 76 50 125t122 49q63 0 99 -37t36 -96q0 -75 -49 -123.5t-121 -48.5zM844 1065q-62 0 -99.5 37t-37.5 94q0 76 50 125t122 49q63 0 99 -37t36 -96q0 -75 -49 -123.5t-121 -48.5z" />
    <glyph glyph-name="Alphatonos" unicode="&#x386;" horiz-adv-x="1419" 
d="M74 0l807 1348h20l424 -1348h-336l-49 180h-422l-100 -180h-344zM72 977l188 350h318l-263 -350h-243zM647 422h238l-78 291z" />
    <glyph glyph-name="anoteleia" unicode="&#x387;" horiz-adv-x="620" 
d="M301 293q-79 0 -124.5 46t-45.5 122q0 84 58.5 141t136.5 57q75 0 122.5 -47t47.5 -123q0 -88 -57.5 -142t-137.5 -54z" />
    <glyph glyph-name="Epsilontonos" unicode="&#x388;" horiz-adv-x="1601" 
d="M72 977l188 350h318l-263 -350h-243zM590 0l186 1327h840l-37 -262h-516l-37 -258h358l-36 -260h-359l-39 -283h541l-37 -264h-864z" />
    <glyph glyph-name="Etatonos" unicode="&#x389;" horiz-adv-x="1941" 
d="M72 977l188 350h318l-263 -350h-243zM590 0l186 1327h324l-72 -520h494l73 520h324l-186 -1327h-324l76 543h-496l-76 -543h-323z" />
    <glyph glyph-name="Iotatonos" unicode="&#x38a;" horiz-adv-x="1122" 
d="M72 977l188 350h318l-263 -350h-243zM590 0l186 1327h324l-187 -1327h-323z" />
    <glyph glyph-name="Omicrontonos" unicode="&#x38c;" horiz-adv-x="1916" 
d="M1090 -20q-306 0 -469.5 161.5t-163.5 429.5q0 60 8 115q43 301 250 481.5t512 180.5q294 0 464.5 -153.5t170.5 -434.5q0 -54 -9 -115q-42 -296 -249.5 -480.5t-513.5 -184.5zM72 977l188 350h318l-263 -350h-243zM1100 272q171 0 285 110.5t139 289.5q4 29 4 73
q0 142 -80.5 227t-230.5 85q-171 0 -285.5 -110t-138.5 -283q-5 -39 -5 -74q0 -142 80.5 -230t231.5 -88z" />
    <glyph glyph-name="Upsilontonos" unicode="&#x38e;" horiz-adv-x="1947" 
d="M72 977l188 350h318l-263 -350h-243zM1049 0l75 526l-362 801h346l213 -518l356 518h363l-592 -801l-76 -526h-323z" />
    <glyph glyph-name="Omegatonos" unicode="&#x38f;" horiz-adv-x="1925" 
d="M1874 770q0 -62 -14.5 -125.5t-45.5 -132t-88.5 -133.5t-134.5 -115h213l-37 -264h-573l37 268q301 168 301 465q0 145 -87 234.5t-228 89.5q-190 0 -303 -112.5t-113 -299.5q0 -238 190 -377l-37 -268h-573l37 264h235q-85 75 -133.5 176t-48.5 219q0 96 27.5 191
t89 185.5t150 159.5t220.5 111t291 42q140 0 259 -47.5t198.5 -127t123.5 -184.5t44 -219zM260 1327h318l-263 -350h-243z" />
    <glyph glyph-name="iotadieresistonos" unicode="&#x390;" horiz-adv-x="626" 
d="M246 1065l123 352h266l-193 -352h-196zM70 1065q-62 0 -100 37t-38 94q0 76 50 125t122 49q63 0 99.5 -37.5t36.5 -95.5q0 -75 -49 -123.5t-121 -48.5zM737 1065q-62 0 -99.5 37t-37.5 94q0 76 50 125t122 49q63 0 99 -37t36 -96q0 -75 -49 -123.5t-121 -48.5zM96 0
l99 686h-109l35 240h418l-129 -926h-314z" />
    <glyph glyph-name="Alpha" unicode="&#x391;" horiz-adv-x="1308" 
d="M-37 0l807 1348h21l423 -1348h-335l-50 180h-421l-101 -180h-344zM537 422h237l-78 291z" />
    <glyph glyph-name="Beta" unicode="&#x392;" horiz-adv-x="1214" 
d="M944 696q186 -63 186 -268q0 -167 -75 -260q-134 -168 -486 -168h-491l186 1327h352q80 0 146.5 -6.5t139 -28t121.5 -56.5t81.5 -96.5t32.5 -144.5q0 -161 -97 -245q-45 -38 -96 -54zM768 848q41 41 41 113q0 35 -17 58.5t-49.5 34.5t-65 15t-77.5 4h-47l-39 -278h53
q80 0 126 12t75 41zM770 326q31 42 31 96q0 72 -52.5 97.5t-156.5 25.5h-113l-41 -287h121q160 0 211 68z" />
    <glyph glyph-name="Gamma" unicode="&#x393;" horiz-adv-x="1034" 
d="M78 0l186 1327h850l-37 -262h-526l-150 -1065h-323z" />
    <glyph glyph-name="uni0394" unicode="&#x394;" horiz-adv-x="1304" 
d="M788 1348l424 -1348h-1251l807 1348h20zM813 264l-119 447l-243 -447h362z" />
    <glyph glyph-name="Epsilon" unicode="&#x395;" horiz-adv-x="1089" 
d="M78 0l186 1327h840l-37 -262h-516l-37 -258h358l-36 -260h-359l-39 -283h541l-37 -264h-864z" />
    <glyph glyph-name="Zeta" unicode="&#x396;" horiz-adv-x="1222" 
d="M-12 0l4 20l721 1045h-527l37 262h1049l-4 -20l-719 -1043h565l-37 -264h-1089z" />
    <glyph glyph-name="Eta" unicode="&#x397;" horiz-adv-x="1429" 
d="M78 0l186 1327h324l-72 -520h494l73 520h324l-186 -1327h-324l76 543h-496l-76 -543h-323z" />
    <glyph glyph-name="Theta" unicode="&#x398;" horiz-adv-x="1570" 
d="M743 -20q-306 0 -469 161.5t-163 429.5q0 60 8 115q43 301 250 481.5t512 180.5q294 0 464.5 -153.5t170.5 -434.5q0 -54 -9 -115q-27 -194 -129 -344.5t-267 -235.5t-368 -85zM754 272q171 0 285 110.5t139 289.5q4 29 4 73q0 142 -81 227t-231 85q-171 0 -285.5 -110
t-138.5 -283q-4 -31 -4 -74q0 -142 80.5 -230t231.5 -88zM582 543l36 264h426l-36 -264h-426z" />
    <glyph glyph-name="Iota" unicode="&#x399;" horiz-adv-x="610" 
d="M78 0l186 1327h324l-187 -1327h-323z" />
    <glyph glyph-name="Kappa" unicode="&#x39a;" horiz-adv-x="1433" 
d="M78 0l186 1327h324l-88 -629l604 629h418l-648 -665l465 -662h-424l-423 643l-91 -643h-323z" />
    <glyph glyph-name="Lambda" unicode="&#x39b;" horiz-adv-x="1288" 
d="M1194 0h-336l-174 707l-377 -707h-344l797 1348h20z" />
    <glyph glyph-name="Mu" unicode="&#x39c;" horiz-adv-x="1767" 
d="M813 -20l-276 579l-168 -559h-330l453 1348h20l383 -809l608 809h21l73 -1348h-313l-18 559l-432 -579h-21z" />
    <glyph glyph-name="Nu" unicode="&#x39d;" horiz-adv-x="1445" 
d="M1214 -20l-722 722l-99 -702h-315l190 1348h21l721 -721l98 700h315l-188 -1347h-21z" />
    <glyph glyph-name="Xi" unicode="&#x39e;" horiz-adv-x="1169" 
d="M199 1065l37 262h942l-37 -262h-942zM227 547l37 258h737l-36 -258h-738zM37 0l39 264h962l-39 -264h-962z" />
    <glyph glyph-name="Omicron" unicode="&#x39f;" horiz-adv-x="1570" 
d="M743 -20q-306 0 -469 161.5t-163 429.5q0 60 8 115q43 301 250 481.5t512 180.5q294 0 464.5 -153.5t170.5 -434.5q0 -54 -9 -115q-27 -194 -129 -344.5t-267 -235.5t-368 -85zM754 272q171 0 285 110.5t139 289.5q4 29 4 73q0 142 -81 227t-231 85q-171 0 -285.5 -110
t-138.5 -283q-4 -31 -4 -74q0 -142 80.5 -230t231.5 -88z" />
    <glyph glyph-name="Pi" unicode="&#x3a0;" horiz-adv-x="1409" 
d="M264 1327h1122l-186 -1327h-323l149 1065h-475l-150 -1065h-323z" />
    <glyph glyph-name="Rho" unicode="&#x3a1;" horiz-adv-x="1200" 
d="M78 0l186 1327h352q53 0 93 -1.5t91.5 -6t90 -12.5t82 -23t75 -35t62 -50.5t49 -68t30 -88.5t11.5 -112q0 -56 -6 -99q-12 -85 -44.5 -152t-71 -110t-98.5 -73.5t-108.5 -45.5t-121.5 -23t-115.5 -9.5t-110.5 -1.5h-63l-60 -416h-323zM496 670h36q39 0 63 0.5t60 4.5
t58.5 11t50 20.5t45 33t32.5 49t23 67.5q6 30 6 57q0 44 -14.5 74.5t-36.5 47.5t-61.5 26t-75.5 11.5t-92 2.5h-37z" />
    <glyph glyph-name="Sigma" unicode="&#x3a3;" horiz-adv-x="1161" 
d="M1153 1327l-37 -262h-498l232 -395l-340 -406h514l-39 -264h-1038l2 20l555 668l-367 619l4 20h1012z" />
    <glyph glyph-name="Tau" unicode="&#x3a4;" horiz-adv-x="1153" 
d="M350 0l150 1065h-350l36 262h1022l-37 -262h-348l-149 -1065h-324z" />
    <glyph glyph-name="Upsilon" unicode="&#x3a5;" horiz-adv-x="1335" 
d="M436 0l76 526l-362 801h346l213 -518l356 518h362l-591 -801l-76 -526h-324z" />
    <glyph glyph-name="Phi" unicode="&#x3a6;" horiz-adv-x="1781" 
d="M1724 725q0 -190 -92 -334t-256.5 -222t-380.5 -83l-18 -143h-315l18 145q-251 15 -408 154t-157 362q0 187 94.5 330.5t259 222t375.5 84.5l18 143h316l-19 -145q251 -15 408 -154.5t157 -359.5zM440 631q0 -122 76 -193.5t205 -85.5l86 623q-163 -14 -265 -104.5
t-102 -239.5zM1032 352q164 12 265.5 102.5t101.5 241.5q0 122 -76.5 193.5t-204.5 85.5z" />
    <glyph glyph-name="Chi" unicode="&#x3a7;" horiz-adv-x="1384" 
d="M-37 0l561 676l-360 651h375l213 -430l327 430h391l-544 -653l364 -674h-372l-222 446l-342 -446h-391z" />
    <glyph glyph-name="Psi" unicode="&#x3a8;" horiz-adv-x="1804" 
d="M1452 1327h324l-43 -299q-44 -305 -216.5 -460.5t-461.5 -164.5l-58 -403h-323l57 406q-249 12 -380.5 133t-131.5 329q0 89 14 193l39 266h324l-39 -270q-12 -82 -12 -162q0 -109 58.5 -157.5t166.5 -53.5l92 643h324l-92 -643q139 9 214.5 89t102.5 267z" />
    <glyph glyph-name="uni03A9" unicode="&#x3a9;" horiz-adv-x="1576" 
d="M1526 770q0 -62 -14.5 -125.5t-45.5 -132t-88.5 -133.5t-134.5 -115h213l-37 -264h-573l37 268q301 168 301 465q0 145 -87.5 234.5t-228.5 89.5q-190 0 -302.5 -112.5t-112.5 -299.5q0 -238 190 -377l-37 -268h-573l37 264h235q-85 75 -133.5 176t-48.5 219
q0 96 27.5 191t89 185.5t150 159.5t220.5 111t291 42q140 0 259 -47.5t198.5 -127t123.5 -184.5t44 -219z" />
    <glyph glyph-name="Iotadieresis" unicode="&#x3aa;" horiz-adv-x="610" 
d="M225 1450q-75 0 -121.5 46t-46.5 118q0 79 53 131.5t136 52.5q74 0 119 -46t45 -118q0 -79 -52 -131.5t-133 -52.5zM694 1450q-76 0 -122 46t-46 118q0 79 53 131.5t136 52.5q74 0 119 -46t45 -118q0 -79 -52 -131.5t-133 -52.5zM78 0l186 1327h324l-187 -1327h-323z" />
    <glyph glyph-name="Upsilondieresis" unicode="&#x3ab;" horiz-adv-x="1335" 
d="M586 1450q-76 0 -122 46t-46 118q0 79 53 131.5t135 52.5q74 0 119 -46t45 -118q0 -79 -51.5 -131.5t-132.5 -52.5zM1055 1450q-75 0 -121.5 46t-46.5 118q0 79 53 131.5t135 52.5q74 0 119 -46t45 -118q0 -79 -51.5 -131.5t-132.5 -52.5zM436 0l76 526l-362 801h346
l213 -518l356 518h362l-591 -801l-76 -526h-324z" />
    <glyph glyph-name="alphatonos" unicode="&#x3ac;" 
d="M514 1065l201 350h364l-274 -350h-291zM461 -18q-183 0 -290.5 112t-107.5 307q0 37 7 91q35 217 170 334.5t340 117.5q190 0 264 -119l24 101h285l-127 -926h-285l7 94q-104 -112 -287 -112zM555 242q104 0 171 80.5t67 185.5q0 91 -48.5 134.5t-119.5 43.5
q-103 0 -170.5 -82t-67.5 -188q0 -80 45 -127t123 -47z" />
    <glyph glyph-name="epsilontonos" unicode="&#x3ad;" horiz-adv-x="933" 
d="M967 1415l-275 -350h-291l201 350h365zM123 670q0 51 22.5 97t71 87t138 65.5t210.5 24.5q185 0 312 -55l-27 -234q-112 66 -246 66q-162 0 -162 -82q0 -38 41 -59t119 -21h86l-29 -201h-86q-106 0 -154 -21t-48 -63q0 -67 139 -67q169 0 303 69l-27 -241
q-133 -53 -352 -53q-188 0 -290.5 64.5t-102.5 180.5q0 97 63 161t168 87q-65 21 -107 74.5t-42 120.5z" />
    <glyph glyph-name="etatonos" unicode="&#x3ae;" horiz-adv-x="1130" 
d="M453 1065l249 350h365l-324 -350h-290zM63 0l130 926h284l-8 -101q103 119 272 119q144 0 219.5 -71t75.5 -211q0 -32 -10 -117l-133 -951h-313l125 893q8 57 8 93q0 110 -105 110q-38 0 -66 -14t-44.5 -34.5t-29.5 -57.5t-19 -69.5t-13 -84.5l-59 -430h-314z" />
    <glyph glyph-name="iotatonos" unicode="&#x3af;" horiz-adv-x="626" 
d="M227 1065l201 350h365l-275 -350h-291zM96 0l99 686h-109l35 240h418l-129 -926h-314z" />
    <glyph glyph-name="upsilondieresistonos" unicode="&#x3b0;" horiz-adv-x="1075" 
d="M477 1065l123 352h266l-192 -352h-197zM301 1065q-62 0 -99.5 37t-37.5 94q0 76 50 125t122 49q63 0 99 -37t36 -96q0 -75 -49 -123.5t-121 -48.5zM969 1065q-62 0 -100 37t-38 94q0 76 50.5 125t122.5 49q63 0 99 -37t36 -96q0 -75 -49 -123.5t-121 -48.5zM485 -18
q-104 0 -180.5 26t-120 73.5t-64 105t-20.5 128.5q0 39 15 146l65 465h314l-76 -543q-6 -43 -6 -66q0 -84 94 -84q59 0 93 35t44 111l76 547h307l-74 -525q-10 -73 -28 -131t-53 -114t-84.5 -92.5t-126.5 -59t-175 -22.5z" />
    <glyph glyph-name="alpha" unicode="&#x3b1;" 
d="M461 -18q-183 0 -290.5 112t-107.5 307q0 37 7 91q35 217 170 334.5t340 117.5q190 0 264 -119l24 101h285l-127 -926h-285l7 94q-104 -112 -287 -112zM555 242q104 0 171 80.5t67 185.5q0 91 -48.5 134.5t-119.5 43.5q-103 0 -170.5 -82t-67.5 -188q0 -80 45 -127
t123 -47z" />
    <glyph glyph-name="beta" unicode="&#x3b2;" horiz-adv-x="1177" 
d="M1133 989q-13 -112 -75.5 -180.5t-156.5 -97.5q98 -33 153.5 -114t55.5 -179q0 -17 -4 -53q-21 -186 -146.5 -284.5t-302.5 -98.5q-186 0 -270 84l-70 -472h-313l191 1354q33 229 156.5 337t363.5 108q185 0 303.5 -93t118.5 -249q0 -30 -4 -62zM793 379q2 14 2 37
q0 149 -191 149h-49l33 240h39q90 0 132.5 40.5t55.5 125.5q2 14 2 43q0 66 -36.5 102.5t-94.5 36.5q-69 0 -115 -44t-59 -138l-70 -488q-6 -53 -6 -96q0 -82 46.5 -124t127.5 -42q77 0 125 40.5t58 117.5z" />
    <glyph glyph-name="gamma" unicode="&#x3b3;" horiz-adv-x="1081" 
d="M1147 926l-494 -783l-78 -553h-313l78 557l-274 779h344l127 -488l276 488h334z" />
    <glyph glyph-name="delta" unicode="&#x3b4;" horiz-adv-x="1171" 
d="M850 881q137 -70 204 -173t44 -262q-29 -212 -190 -338t-394 -126q-230 0 -351 128.5t-93 335.5q20 138 106 242.5t221 153.5q-121 90 -102 239q20 146 152.5 229t349.5 83q81 0 167.5 -19t145.5 -47l-37 -264q-138 76 -280 76q-166 0 -179 -82q-4 -36 24.5 -60
t119.5 -69zM774 446q14 91 -29.5 149t-130.5 58q-90 0 -149.5 -63t-71.5 -144q-11 -88 32 -146t130 -58q89 0 148.5 58t70.5 146z" />
    <glyph glyph-name="epsilon" unicode="&#x3b5;" horiz-adv-x="933" 
d="M604 721q-162 0 -162 -82q0 -38 41 -59t119 -21h86l-29 -201h-86q-106 0 -154 -21t-48 -63q0 -67 139 -67q169 0 303 69l-27 -241q-133 -53 -352 -53q-188 0 -290.5 64.5t-102.5 180.5q0 97 63 161t168 87q-65 21 -107 74.5t-42 120.5q0 51 22.5 97t71 87t138 65.5
t210.5 24.5q185 0 312 -55l-27 -234q-112 66 -246 66z" />
    <glyph glyph-name="zeta" unicode="&#x3b6;" horiz-adv-x="892" 
d="M199 1358h809l-2 -21l-162 -180q-237 -267 -350 -449t-113 -311q0 -74 47 -111t160 -67q113 -29 165 -79.5t52 -131.5q0 -144 -146 -287h-268q92 96 92 164q0 40 -34.5 65.5t-126.5 49.5q-140 37 -208.5 109t-68.5 204q0 161 104 345.5t361 455.5l4 4h-348z" />
    <glyph glyph-name="eta" unicode="&#x3b7;" horiz-adv-x="1130" 
d="M63 0l130 926h284l-8 -101q103 119 272 119q144 0 219.5 -71t75.5 -211q0 -32 -10 -117l-133 -951h-313l125 893q8 57 8 93q0 110 -105 110q-38 0 -66 -14t-44.5 -34.5t-29.5 -57.5t-19 -69.5t-13 -84.5l-59 -430h-314z" />
    <glyph glyph-name="theta" unicode="&#x3b8;" horiz-adv-x="1249" 
d="M743 1393q121 0 212.5 -38.5t146 -108t81.5 -160t27 -201.5q0 -125 -18 -242q-103 -658 -614 -661q-231 -1 -353.5 139.5t-122.5 372.5q0 95 19 241q41 310 196.5 484t425.5 174zM719 1139q-201 0 -266 -332h438q2 25 2 70q0 262 -174 262zM596 238q192 0 262 329h-438
q-2 -25 -2 -65q0 -264 178 -264z" />
    <glyph glyph-name="iota" unicode="&#x3b9;" horiz-adv-x="626" 
d="M96 0l99 686h-109l35 240h418l-129 -926h-314z" />
    <glyph glyph-name="kappa" unicode="&#x3ba;" horiz-adv-x="1150" 
d="M1194 926l-403 -457l286 -469h-377l-249 449l-64 -449h-313l129 926h313l-59 -428l354 428h383z" />
    <glyph glyph-name="lambda" unicode="&#x3bb;" horiz-adv-x="1128" 
d="M993 227q30 0 51 6l-30 -225q-58 -20 -140 -20q-121 0 -175.5 51.5t-84.5 181.5l-77 318l-289 -539h-324l522 915l-24 101q-15 64 -36 89t-62 25q-26 0 -64 -10l33 226q66 24 160 24q126 0 182 -51.5t86 -181.5l192 -795q15 -64 32.5 -89.5t47.5 -25.5z" />
    <glyph glyph-name="uni03BC" unicode="&#x3bc;" horiz-adv-x="1134" 
d="M760 926h313l-131 -926h-285l9 100q-26 -54 -74.5 -86t-102.5 -32q-77 0 -118 36l-60 -424h-307l189 1332h313l-68 -490q-10 -67 -10 -102q0 -52 24.5 -76.5t79.5 -24.5q36 0 62.5 13.5t42.5 32.5t28 57.5t18.5 70.5t14.5 89z" />
    <glyph glyph-name="nu" unicode="&#x3bd;" horiz-adv-x="1060" 
d="M455 -18l-389 944h329l140 -416l243 416h348l-651 -944h-20z" />
    <glyph glyph-name="xi" unicode="&#x3be;" horiz-adv-x="937" 
d="M743 1139q-190 0 -211 -144q-2 -14 -2 -30q0 -69 46 -105.5t131 -36.5h90l-33 -237h-123q-217 0 -238 -156q-2 -14 -2 -33q0 -64 46.5 -103.5t156.5 -70.5q129 -37 182.5 -85.5t53.5 -129.5q0 -144 -146 -287h-268q92 101 92 162q0 40 -34 66t-128 51q-288 78 -288 334
q0 30 6 74q18 124 101.5 205t201.5 104q-77 31 -122.5 99t-45.5 153q0 25 4 57q12 96 60 168.5t122 114.5t162.5 63t190.5 21q166 0 280 -58l-37 -258q-108 62 -248 62z" />
    <glyph glyph-name="omicron" unicode="&#x3bf;" horiz-adv-x="1183" 
d="M545 -18q-224 0 -353 119t-129 309q0 32 7 79q29 205 185.5 330t385.5 125q220 0 349.5 -116t129.5 -306q0 -40 -6 -84q-29 -212 -186.5 -334t-382.5 -122zM557 242q108 0 174 78.5t66 187.5q0 83 -45 130.5t-125 47.5q-106 0 -173 -81t-67 -189q0 -80 46 -127t124 -47z
" />
    <glyph glyph-name="pi" unicode="&#x3c0;" horiz-adv-x="1271" 
d="M1266 926l-35 -240h-131l-96 -686h-314l98 686h-239l-96 -686h-314l97 686h-134l35 240h1129z" />
    <glyph glyph-name="rho" unicode="&#x3c1;" horiz-adv-x="1189" 
d="M-25 -406l123 877q32 234 174.5 353.5t382.5 119.5q111 0 201.5 -34.5t148 -93.5t88.5 -136t31 -164q0 -52 -6 -96q-15 -107 -61 -191.5t-112.5 -137.5t-146.5 -81t-167 -28t-159.5 24.5t-117.5 67.5l-65 -480h-314zM573 242q100 0 163 68.5t63 178.5q0 88 -49 142.5
t-132 54.5q-90 0 -152.5 -56.5t-74.5 -158.5q-2 -18 -2 -41q0 -87 50.5 -137.5t133.5 -50.5z" />
    <glyph glyph-name="uni03C2" unicode="&#x3c2;" horiz-adv-x="915" 
d="M365 -279q92 97 92 162q0 38 -26.5 60.5t-104.5 50.5q-137 49 -207 142.5t-70 244.5q0 46 8 98q36 225 192.5 345t387.5 120q147 0 248 -53l-37 -256q-90 55 -195 55q-109 0 -185 -54.5t-87 -168.5q-2 -20 -2 -41q0 -81 44.5 -128.5t141.5 -80.5q116 -39 164.5 -87
t48.5 -128q0 -139 -145 -281h-268z" />
    <glyph glyph-name="sigma" unicode="&#x3c3;" horiz-adv-x="1204" 
d="M1214 926l-32 -240h-195q98 -82 98 -231q0 -22 -4 -62q-19 -188 -167.5 -299.5t-376.5 -111.5q-211 0 -342.5 118t-131.5 308q0 23 5 67q26 219 185 335t423 116h538zM559 242q99 0 157 65.5t58 171.5q0 87 -44.5 137t-125.5 50q-88 0 -147 -53t-68 -148q-2 -20 -2 -41
q0 -84 49 -133t123 -49z" />
    <glyph glyph-name="tau" unicode="&#x3c4;" horiz-adv-x="917" 
d="M647 686l-47 -336q-6 -47 -6 -65q0 -58 68 -58q35 0 59 6l-33 -225q-62 -20 -149 -20q-132 0 -199.5 60t-67.5 159q0 37 13 133l49 346h-240l33 240h793l-33 -240h-240z" />
    <glyph glyph-name="upsilon" unicode="&#x3c5;" horiz-adv-x="1075" 
d="M485 -18q-104 0 -180.5 26t-120 73.5t-64 105t-20.5 128.5q0 39 15 146l65 465h314l-76 -543q-6 -43 -6 -66q0 -84 94 -84q59 0 93 35t44 111l76 547h307l-74 -525q-10 -73 -28 -131t-53 -114t-84.5 -92.5t-126.5 -59t-175 -22.5z" />
    <glyph glyph-name="phi" unicode="&#x3c6;" horiz-adv-x="1501" 
d="M1436 506q0 -70 -17 -137.5t-60.5 -136.5t-109.5 -122t-172.5 -88t-240.5 -40l-56 -388h-305l55 390q-208 13 -337.5 136.5t-129.5 297.5q0 72 19.5 142t65.5 138t113 120.5t171 86.5t232 39l59 414h305l-59 -414q214 -10 340.5 -130t126.5 -308zM866 229q72 5 124.5 31
t80.5 65t40.5 79t12.5 83q0 92 -50.5 149t-141.5 64zM375 436q0 -86 51.5 -139.5t138.5 -65.5l66 467q-121 -10 -188.5 -84.5t-67.5 -177.5z" />
    <glyph glyph-name="chi" unicode="&#x3c7;" horiz-adv-x="1171" 
d="M930 -68q29 -67 53 -90.5t57 -23.5q29 0 50 6l-31 -225q-61 -21 -139 -21q-105 0 -167 50t-120 184l-88 204l-264 -422h-363l504 705l-131 303q-27 60 -52 80t-65 20q-36 0 -59 -10l30 226q66 24 164 24q79 0 128 -22t82 -66.5t71 -132.5l72 -166l241 371h363l-492 -633z
" />
    <glyph glyph-name="psi" unicode="&#x3c8;" horiz-adv-x="1544" 
d="M1182 926h313l-65 -467q-33 -238 -166 -356t-404 -121l-55 -392h-311l55 392q-217 4 -327.5 104t-110.5 281q0 53 10 135l59 424h314l-62 -430q-8 -65 -8 -107q0 -69 41 -109.5t119 -46.5l98 693h311l-98 -693q97 6 151.5 70t73.5 193z" />
    <glyph glyph-name="omega" unicode="&#x3c9;" horiz-adv-x="1562" 
d="M1378 926q107 -174 107 -387q0 -59 -8 -111q-29 -205 -148 -325.5t-289 -120.5q-237 0 -284 202q-106 -202 -355 -202q-151 0 -239 99t-88 259q0 38 6 100q14 148 79.5 272.5t157.5 213.5h324q-194 -184 -231 -469q-7 -58 -7 -76q0 -143 105 -143q122 0 164 307l14 102
h246l-14 -102q-13 -102 -13 -148q0 -159 109 -159q119 0 145 225q8 62 8 104q0 205 -112 359h323z" />
    <glyph glyph-name="iotadieresis" unicode="&#x3ca;" horiz-adv-x="602" 
d="M201 1065q-69 0 -108.5 42t-39.5 107q0 80 54.5 132.5t132.5 52.5q65 0 105 -43t40 -109q0 -85 -50.5 -133.5t-133.5 -48.5zM606 1065q-69 0 -108 42t-39 107q0 80 54 132.5t132 52.5q65 0 105.5 -43t40.5 -109q0 -85 -51 -133.5t-134 -48.5zM96 0l99 686h-109l35 240
h418l-129 -926h-314z" />
    <glyph glyph-name="upsilondieresis" unicode="&#x3cb;" horiz-adv-x="1075" 
d="M393 1065q-71 0 -111 40.5t-40 104.5q0 82 54 135.5t132 53.5q66 0 106.5 -41.5t40.5 -104.5q0 -86 -51 -137t-131 -51zM862 1065q-70 0 -110.5 40.5t-40.5 104.5q0 82 54 135.5t132 53.5q66 0 106.5 -41.5t40.5 -104.5q0 -86 -51 -137t-131 -51zM485 -18
q-104 0 -180.5 26t-120 73.5t-64 105t-20.5 128.5q0 39 15 146l65 465h314l-76 -543q-6 -43 -6 -66q0 -84 94 -84q59 0 93 35t44 111l76 547h307l-74 -525q-10 -73 -28 -131t-53 -114t-84.5 -92.5t-126.5 -59t-175 -22.5z" />
    <glyph glyph-name="omicrontonos" unicode="&#x3cc;" horiz-adv-x="1183" 
d="M512 1065l201 350h364l-274 -350h-291zM545 -18q-224 0 -353 119t-129 309q0 32 7 79q29 205 185.5 330t385.5 125q220 0 349.5 -116t129.5 -306q0 -40 -6 -84q-29 -212 -186.5 -334t-382.5 -122zM557 242q108 0 174 78.5t66 187.5q0 83 -45 130.5t-125 47.5
q-106 0 -173 -81t-67 -189q0 -80 46 -127t124 -47z" />
    <glyph glyph-name="upsilontonos" unicode="&#x3cd;" horiz-adv-x="1075" 
d="M465 1065l201 350h364l-274 -350h-291zM485 -18q-104 0 -180.5 26t-120 73.5t-64 105t-20.5 128.5q0 39 15 146l65 465h314l-76 -543q-6 -43 -6 -66q0 -84 94 -84q59 0 93 35t44 111l76 547h307l-74 -525q-10 -73 -28 -131t-53 -114t-84.5 -92.5t-126.5 -59t-175 -22.5z
" />
    <glyph glyph-name="omegatonos" unicode="&#x3ce;" horiz-adv-x="1562" 
d="M1268 1415l-275 -350h-291l201 350h365zM1378 926q107 -174 107 -387q0 -59 -8 -111q-29 -205 -148 -325.5t-289 -120.5q-237 0 -284 202q-106 -202 -355 -202q-151 0 -239 99t-88 259q0 38 6 100q14 148 79.5 272.5t157.5 213.5h324q-194 -184 -231 -469q-7 -58 -7 -76
q0 -143 105 -143q122 0 164 307l14 102h246l-14 -102q-13 -102 -13 -148q0 -159 109 -159q119 0 145 225q8 62 8 104q0 205 -112 359h323z" />
    <glyph glyph-name="beta.ss02" unicode="&#x3d0;" horiz-adv-x="1155" 
d="M842 723q109 -26 167 -112.5t58 -192.5q0 -60 -15 -117t-53.5 -116.5t-97 -103t-154.5 -71.5t-217 -28q-215 0 -324.5 95t-109.5 275q0 70 13 156l57 410q37 260 155 367.5t373 107.5q190 0 299 -97t109 -245q0 -131 -70 -217t-190 -111zM655 1153q-146 0 -172 -195
l-20 -151h76q127 0 179 53.5t52 155.5q0 66 -31.5 101.5t-83.5 35.5zM559 221q91 0 135.5 50.5t44.5 138.5q0 157 -182 157h-129l-12 -92q-8 -52 -8 -104q0 -76 41 -113t110 -37z" />
    <glyph glyph-name="theta.ss02" unicode="&#x3d1;" 
d="M788 1393q106 0 188 -37.5t133 -106t77 -160t26 -202.5q0 -90 -12 -195q-16 -129 -42 -230.5t-72.5 -194t-111.5 -153.5t-161.5 -96.5t-218.5 -35.5q-194 0 -316 88.5t-122 251.5q0 12 6 81q4 36 4 50q0 39 -51 39q-27 0 -60 -11l31 226q74 24 184 24q219 0 219 -170
q0 -11 -6 -86q-6 -55 -6 -108q0 -60 41 -94.5t109 -34.5q124 0 186 117.5t82 346.5q0 9 2 13q-98 -31 -188 -31q-179 0 -280 96t-101 236q0 74 28.5 140.5t83 120t144.5 85t204 31.5zM776 918q70 0 131 20v18q0 90 -35.5 138.5t-105.5 48.5q-56 0 -89.5 -32.5t-33.5 -82.5
q0 -54 34.5 -82t98.5 -28z" />
    <glyph glyph-name="phi.ss02" unicode="&#x3d5;" horiz-adv-x="1550" 
d="M934 936q164 0 286.5 -45t194.5 -141.5t72 -235.5q0 -34 -6 -84q-17 -140 -101.5 -241t-211 -151.5t-285.5 -55.5l-56 -392h-307l55 392q-219 4 -355 128.5t-136 317.5q0 37 4 74q32 244 191 424h323q-173 -199 -192 -422q-2 -25 -2 -41q0 -103 54.5 -163.5t147.5 -66.5
l99 703h225zM1167 459q2 20 2 41q0 86 -49 135.5t-139 50.5l-63 -453q102 6 170.5 65.5t78.5 160.5z" />
    <glyph glyph-name="uni0401" unicode="&#x401;" horiz-adv-x="1089" 
d="M487 1450q-75 0 -121.5 46t-46.5 118q0 79 53 131.5t136 52.5q74 0 119 -46t45 -118q0 -79 -52 -131.5t-133 -52.5zM956 1450q-76 0 -122 46t-46 118q0 79 53 131.5t136 52.5q74 0 119 -46t45 -118q0 -79 -52 -131.5t-133 -52.5zM78 0l186 1327h840l-37 -262h-516
l-37 -258h358l-36 -260h-359l-39 -283h541l-37 -264h-864z" />
    <glyph glyph-name="uni0402" unicode="&#x402;" horiz-adv-x="1669" 
d="M1139 887q195 0 312.5 -115t117.5 -305q0 -74 -15.5 -141t-53 -132t-95 -112t-148.5 -76t-206 -29q-76 0 -127 15l37 262q37 -12 83 -12q91 0 143 54t52 146q0 75 -52.5 123.5t-154.5 48.5q-144 0 -217.5 -72.5t-95.5 -224.5l-45 -317h-324l150 1065h-350l36 262h1104
l-37 -262h-430l-39 -277q141 99 355 99z" />
    <glyph glyph-name="uni0403" unicode="&#x403;" horiz-adv-x="1034" 
d="M580 1444l301 350h419l-405 -350h-315zM78 0l186 1327h850l-37 -262h-526l-150 -1065h-323z" />
    <glyph glyph-name="uni0404" unicode="&#x404;" horiz-adv-x="1329" 
d="M899 1069q-153 0 -264.5 -69.5t-157.5 -200.5h522l-34 -252h-525q6 -144 101.5 -215.5t255.5 -71.5q123 0 229.5 30.5t175.5 71.5l-43 -305q-151 -77 -407 -77q-151 0 -272.5 45t-201 124.5t-121.5 188t-42 237.5q0 75 12 158q45 300 255 457.5t531 157.5q238 0 394 -78
l-43 -295q-154 94 -365 94z" />
    <glyph glyph-name="uni0405" unicode="&#x405;" horiz-adv-x="1028" 
d="M438 -20q-241 0 -379 83l41 295q154 -108 322 -108q186 0 186 139q0 35 -23.5 63.5t-61 51t-83 46t-91 55.5t-83 71.5t-61 102t-23.5 139.5q0 209 127 319.5t355 110.5q105 0 194.5 -22t130.5 -46l-41 -291q-57 39 -132.5 64.5t-141.5 25.5q-79 0 -120.5 -36t-41.5 -93
q0 -38 23.5 -68t61.5 -52.5t83.5 -45t91 -53t83.5 -69t61.5 -101t23.5 -141.5q0 -216 -137 -328t-365 -112z" />
    <glyph glyph-name="uni0406" unicode="&#x406;" horiz-adv-x="610" 
d="M78 0l186 1327h324l-187 -1327h-323z" />
    <glyph glyph-name="uni0407" unicode="&#x407;" horiz-adv-x="610" 
d="M225 1450q-75 0 -121.5 46t-46.5 118q0 79 53 131.5t136 52.5q74 0 119 -46t45 -118q0 -79 -52 -131.5t-133 -52.5zM694 1450q-76 0 -122 46t-46 118q0 79 53 131.5t136 52.5q74 0 119 -46t45 -118q0 -79 -52 -131.5t-133 -52.5zM78 0l186 1327h324l-187 -1327h-323z" />
    <glyph glyph-name="uni0408" unicode="&#x408;" horiz-adv-x="964" 
d="M311 -20q-177 0 -278 53l39 272q30 -20 85.5 -35.5t108.5 -15.5q115 0 171.5 61.5t78.5 216.5l76 535h-293l37 260h614l-123 -876q-16 -114 -50.5 -198t-95 -147t-153 -94.5t-217.5 -31.5z" />
    <glyph glyph-name="uni0409" unicode="&#x409;" horiz-adv-x="2039" 
d="M1501 911q481 0 481 -401q0 -45 -6 -94q-11 -86 -42.5 -154t-68.5 -111t-96.5 -73.5t-105.5 -45t-117.5 -22.5t-109 -9t-102.5 -1h-3h-416l150 1065h-363l-28 -201q-17 -120 -31.5 -205.5t-34 -177t-41 -153t-51 -122.5t-65.5 -99t-82.5 -68.5t-104 -43.5t-127.5 -13
q-90 0 -160 24l41 285q45 -15 88 -15q35 0 63.5 13.5t50.5 35.5t40.5 63t32 84t27.5 111t24 130.5t23 156.5l65 457h993l-59 -416h135zM1642 440q3 24 3 49q0 97 -54 133.5t-153 36.5h-107l-57 -405h76q49 0 79.5 2t72 12t66.5 28.5t46 55t28 88.5z" />
    <glyph glyph-name="uni040A" unicode="&#x40a;" horiz-adv-x="2021" 
d="M1483 911q481 0 481 -401q0 -45 -6 -94q-11 -86 -42.5 -154t-68.5 -111t-96.5 -73.5t-105.5 -45t-117.5 -22.5t-109 -9t-102.5 -1h-3h-416l76 543h-496l-76 -543h-323l186 1327h324l-74 -520h496l73 520h324l-57 -416h133zM1624 440q2 16 2 49q0 97 -54 133.5t-153 36.5
h-104l-58 -405h74q34 0 56.5 1t54.5 4.5t53 11t45 21t39.5 33t27.5 48.5t17 67z" />
    <glyph glyph-name="uni040B" unicode="&#x40b;" horiz-adv-x="1640" 
d="M1155 887q175 0 277 -91t102 -270q0 -91 -18 -217l-46 -309h-323l41 289q14 110 14 149q0 83 -46 125.5t-152 42.5q-127 0 -196.5 -68t-90.5 -223l-43 -315h-324l150 1065h-350l36 262h1104l-37 -262h-430l-41 -279q137 101 373 101z" />
    <glyph glyph-name="uni040C" unicode="&#x40c;" horiz-adv-x="1433" 
d="M580 1444l301 350h419l-405 -350h-315zM78 0l186 1327h324l-88 -629l604 629h418l-648 -665l465 -662h-424l-423 643l-91 -643h-323z" />
    <glyph glyph-name="uni040D" unicode="&#x40d;" horiz-adv-x="1417" 
d="M1116 1444h-303l-309 350h405zM1378 1348h21l-191 -1348h-315l94 670l-891 -690h-20l190 1347h316l-95 -670z" />
    <glyph glyph-name="uni040E" unicode="&#x40e;" horiz-adv-x="1349" 
d="M817 1405q-100 0 -170 25.5t-106 71.5t-47.5 104.5t-1.5 130.5l6 37h241q-12 -83 11 -127.5t96 -44.5q131 0 155 172h242l-6 -37q-22 -150 -125 -241t-295 -91zM1112 1327h338l-829 -1327h-322l256 418l-403 909h356l242 -590z" />
    <glyph glyph-name="uni040F" unicode="&#x40f;" horiz-adv-x="1402" 
d="M1380 1327l-186 -1327h-408l-38 -279h-304l39 279h-405l186 1327h324l-150 -1063h469l150 1063h323z" />
    <glyph glyph-name="uni0410" unicode="&#x410;" horiz-adv-x="1308" 
d="M-37 0l807 1348h21l423 -1348h-335l-50 180h-421l-101 -180h-344zM537 422h237l-78 291z" />
    <glyph glyph-name="uni0411" unicode="&#x411;" horiz-adv-x="1216" 
d="M1139 1065h-588l-33 -227h57q82 0 148 -6t133 -20.5t116 -41.5t88 -67.5t59 -101t20 -138.5q0 -49 -6 -86q-13 -78 -44 -139t-65.5 -100.5t-93 -67t-102.5 -41t-118 -20.5t-115.5 -8t-119.5 -1h-397l186 1327h912zM553 586h-70l-47 -332h47q144 0 182 6q89 14 121 81
q11 22 17 52t6 47q0 88 -57 117t-199 29z" />
    <glyph glyph-name="uni0412" unicode="&#x412;" horiz-adv-x="1214" 
d="M944 696q186 -63 186 -268q0 -167 -75 -260q-134 -168 -486 -168h-491l186 1327h352q80 0 146.5 -6.5t139 -28t121.5 -56.5t81.5 -96.5t32.5 -144.5q0 -161 -97 -245q-45 -38 -96 -54zM768 848q41 41 41 113q0 35 -17 58.5t-49.5 34.5t-65 15t-77.5 4h-47l-39 -278h53
q80 0 126 12t75 41zM770 326q31 42 31 96q0 72 -52.5 97.5t-156.5 25.5h-113l-41 -287h121q160 0 211 68z" />
    <glyph glyph-name="uni0413" unicode="&#x413;" horiz-adv-x="1034" 
d="M78 0l186 1327h850l-37 -262h-526l-150 -1065h-323z" />
    <glyph glyph-name="uni0414" unicode="&#x414;" horiz-adv-x="1558" 
d="M1284 264h174l-76 -543h-303l39 281h-850l-39 -281h-303l76 541h18q129 0 218 133q116 180 174 596l47 336h975zM725 1065l-10 -74q-33 -237 -83 -421t-140 -306h473l112 801h-352z" />
    <glyph glyph-name="uni0415" unicode="&#x415;" horiz-adv-x="1089" 
d="M78 0l186 1327h840l-37 -262h-516l-37 -258h358l-36 -260h-359l-39 -283h541l-37 -264h-864z" />
    <glyph glyph-name="uni0416" unicode="&#x416;" horiz-adv-x="2187" 
d="M2269 1327l-629 -659l453 -668h-412l-399 645l-92 -645h-324l92 643l-577 -643h-418l647 698l-446 629h387l414 -629l90 629h323l-90 -631l582 631h399z" />
    <glyph glyph-name="uni0417" unicode="&#x417;" horiz-adv-x="1089" 
d="M844 690q162 -62 162 -254q0 -117 -41 -205t-118 -142.5t-181 -81.5t-234 -27q-115 0 -218 22t-157 57l41 299q160 -112 357 -112q223 0 223 170q0 68 -50.5 98.5t-172.5 30.5h-111l35 252h94q121 0 189.5 38t68.5 117q0 123 -180 123q-184 0 -367 -110l41 299
q171 84 385 84q205 0 326 -85t121 -251q0 -113 -60 -202t-153 -120z" />
    <glyph glyph-name="uni0418" unicode="&#x418;" horiz-adv-x="1417" 
d="M1378 1348h21l-191 -1348h-315l94 670l-891 -690h-20l190 1347h316l-95 -670z" />
    <glyph glyph-name="uni0419" unicode="&#x419;" horiz-adv-x="1417" 
d="M879 1405q-100 0 -170 25.5t-106.5 71.5t-48 104.5t-1.5 130.5l6 37h242q-12 -83 10.5 -127.5t95.5 -44.5q132 0 156 172h242l-7 -37q-22 -150 -124.5 -241t-294.5 -91zM1378 1348h21l-191 -1348h-315l94 670l-891 -690h-20l190 1347h316l-95 -670z" />
    <glyph glyph-name="uni041A" unicode="&#x41a;" horiz-adv-x="1433" 
d="M78 0l186 1327h324l-88 -629l604 629h418l-648 -665l465 -662h-424l-423 643l-91 -643h-323z" />
    <glyph glyph-name="uni041B" unicode="&#x41b;" horiz-adv-x="1447" 
d="M432 1327h993l-186 -1327h-324l150 1065h-363l-28 -201q-17 -120 -31.5 -205.5t-34 -177t-41 -153t-51 -122.5t-65.5 -99t-82.5 -68.5t-104 -43.5t-127.5 -13q-90 0 -160 24l41 285q45 -15 88 -15q35 0 63.5 13.5t50.5 35.5t40.5 63t32 84t27.5 111t24 130.5t23 156.5z
" />
    <glyph glyph-name="uni041C" unicode="&#x41c;" horiz-adv-x="1767" 
d="M813 -20l-276 579l-168 -559h-330l453 1348h20l383 -809l608 809h21l73 -1348h-313l-18 559l-432 -579h-21z" />
    <glyph glyph-name="uni041D" unicode="&#x41d;" horiz-adv-x="1429" 
d="M78 0l186 1327h324l-72 -520h494l73 520h324l-186 -1327h-324l76 543h-496l-76 -543h-323z" />
    <glyph glyph-name="uni041E" unicode="&#x41e;" horiz-adv-x="1570" 
d="M743 -20q-306 0 -469 161.5t-163 429.5q0 60 8 115q43 301 250 481.5t512 180.5q294 0 464.5 -153.5t170.5 -434.5q0 -54 -9 -115q-27 -194 -129 -344.5t-267 -235.5t-368 -85zM754 272q171 0 285 110.5t139 289.5q4 29 4 73q0 142 -81 227t-231 85q-171 0 -285.5 -110
t-138.5 -283q-4 -31 -4 -74q0 -142 80.5 -230t231.5 -88z" />
    <glyph glyph-name="uni041F" unicode="&#x41f;" horiz-adv-x="1409" 
d="M264 1327h1122l-186 -1327h-323l149 1065h-475l-150 -1065h-323z" />
    <glyph glyph-name="uni0420" unicode="&#x420;" horiz-adv-x="1200" 
d="M78 0l186 1327h352q53 0 93 -1.5t91.5 -6t90 -12.5t82 -23t75 -35t62 -50.5t49 -68t30 -88.5t11.5 -112q0 -56 -6 -99q-12 -85 -44.5 -152t-71 -110t-98.5 -73.5t-108.5 -45.5t-121.5 -23t-115.5 -9.5t-110.5 -1.5h-63l-60 -416h-323zM496 670h36q39 0 63 0.5t60 4.5
t58.5 11t50 20.5t45 33t32.5 49t23 67.5q6 30 6 57q0 44 -14.5 74.5t-36.5 47.5t-61.5 26t-75.5 11.5t-92 2.5h-37z" />
    <glyph glyph-name="uni0421" unicode="&#x421;" horiz-adv-x="1294" 
d="M762 -20q-156 0 -281 46t-205 126.5t-122.5 188.5t-42.5 234q0 59 10 117q57 307 260.5 481.5t533.5 174.5q119 0 213.5 -28t143.5 -65l-43 -303q-140 105 -320 105q-176 0 -302 -109t-156 -276q-7 -40 -7 -74q0 -148 85.5 -237t256.5 -89q89 0 173.5 22.5t124 42.5
t87.5 50l-47 -332q-49 -29 -149 -52t-213 -23z" />
    <glyph glyph-name="uni0422" unicode="&#x422;" horiz-adv-x="1153" 
d="M350 0l150 1065h-350l36 262h1022l-37 -262h-348l-149 -1065h-324z" />
    <glyph glyph-name="uni0423" unicode="&#x423;" horiz-adv-x="1349" 
d="M1112 1327h338l-829 -1327h-322l256 418l-403 909h356l242 -590z" />
    <glyph glyph-name="uni0424" unicode="&#x424;" horiz-adv-x="1781" 
d="M1724 725q0 -190 -92 -334t-256.5 -222t-380.5 -83l-18 -143h-315l18 145q-251 15 -408 154t-157 362q0 187 94.5 330.5t259 222t375.5 84.5l18 143h316l-19 -145q251 -15 408 -154.5t157 -359.5zM440 631q0 -122 76 -193.5t205 -85.5l86 623q-163 -14 -265 -104.5
t-102 -239.5zM1032 352q164 12 265.5 102.5t101.5 241.5q0 122 -76.5 193.5t-204.5 85.5z" />
    <glyph glyph-name="uni0425" unicode="&#x425;" horiz-adv-x="1384" 
d="M-37 0l561 676l-360 651h375l213 -430l327 430h391l-544 -653l364 -674h-372l-222 446l-342 -446h-391z" />
    <glyph glyph-name="uni0426" unicode="&#x426;" horiz-adv-x="1507" 
d="M1233 264h174l-78 -543h-303l39 279h-987l188 1327h324l-152 -1063h471l150 1063h323z" />
    <glyph glyph-name="uni0427" unicode="&#x427;" horiz-adv-x="1376" 
d="M1030 1327h324l-187 -1327h-323l74 532q-106 -96 -340 -96q-211 0 -310.5 93.5t-99.5 285.5q0 69 29 270l34 242h324l-47 -340q-23 -139 20 -204.5t172 -65.5q131 0 195 68t88 214z" />
    <glyph glyph-name="uni0428" unicode="&#x428;" horiz-adv-x="2045" 
d="M1700 1327h323l-188 -1327h-1757l188 1327h324l-152 -1063h393l152 1063h324l-152 -1063h393z" />
    <glyph glyph-name="uni0429" unicode="&#x429;" horiz-adv-x="2148" 
d="M1872 264h176l-78 -543h-303l39 279h-1628l188 1327h324l-152 -1063h393l152 1063h324l-152 -1063h393l152 1063h323z" />
    <glyph glyph-name="uni042A" unicode="&#x42a;" horiz-adv-x="1472" 
d="M934 911q481 0 481 -401q0 -45 -6 -94q-11 -86 -42.5 -154t-68.5 -111t-96.5 -73.5t-105.5 -45t-117.5 -22.5t-109 -9t-102.5 -1h-3h-416l152 1065h-350l36 262h674l-59 -416h133zM1075 440q2 16 2 49q0 97 -54 133.5t-153 36.5h-104l-57 -405h73q34 0 56.5 1t54.5 4.5
t53 11t45 21t39.5 33t27.5 48.5t17 67z" />
    <glyph glyph-name="uni042B" unicode="&#x42b;" horiz-adv-x="1806" 
d="M664 911q481 0 481 -401q0 -45 -6 -94q-11 -86 -42.5 -154t-68.5 -111t-96.5 -73.5t-105.5 -45t-117.5 -22.5t-109 -9t-102.5 -1h-3h-416l188 1327h324l-60 -416h134zM1460 1327h324l-187 -1327h-323zM805 440q2 16 2 49q0 97 -54 133.5t-153 36.5h-104l-58 -405h74
q34 0 56.5 1t54.5 4.5t53 11t45 21t39.5 33t27.5 48.5t17 67z" />
    <glyph glyph-name="uni042C" unicode="&#x42c;" horiz-adv-x="1202" 
d="M664 911q481 0 481 -401q0 -45 -6 -94q-11 -86 -42.5 -154t-68.5 -111t-96.5 -73.5t-105.5 -45t-117.5 -22.5t-109 -9t-102.5 -1h-3h-416l188 1327h324l-60 -416h134zM805 440q2 16 2 49q0 97 -54 133.5t-153 36.5h-104l-58 -405h74q34 0 56.5 1t54.5 4.5t53 11t45 21
t39.5 33t27.5 48.5t17 67z" />
    <glyph glyph-name="uni042D" unicode="&#x42d;" horiz-adv-x="1327" 
d="M655 1348q145 0 263.5 -47t194.5 -127t116.5 -183t40.5 -219q0 -96 -13 -176q-50 -298 -250 -457t-528 -159q-120 0 -232 24t-190 64l43 299q177 -109 385 -109q341 0 433 289h-531l35 252h520q-17 128 -111.5 198t-242.5 70q-206 0 -385 -111l43 306q64 38 171 62
t238 24z" />
    <glyph glyph-name="uni042E" unicode="&#x42e;" horiz-adv-x="2179" 
d="M1493 1348q292 0 461.5 -153.5t169.5 -434.5q0 -60 -8 -115q-21 -145 -85 -268t-161.5 -210.5t-229.5 -137t-284 -49.5q-296 0 -458 153t-171 410h-248l-78 -543h-323l188 1327h324l-74 -520h246q71 250 266 395.5t465 145.5zM1786 672q4 29 4 73q0 142 -79.5 227
t-227.5 85q-169 0 -282.5 -110t-137.5 -283q-4 -31 -4 -74q0 -143 78.5 -230.5t228.5 -87.5q170 0 282.5 110.5t137.5 289.5z" />
    <glyph glyph-name="uni042F" unicode="&#x42f;" horiz-adv-x="1249" 
d="M786 1327h441l-189 -1327h-323l61 438h-76l-335 -438h-381l397 487q-100 44 -164.5 135t-64.5 212q0 40 6 84q11 78 39 141t64 105t87 73t100 48t112.5 27t113 12.5t112.5 2.5zM737 692h76l53 383h-67q-40 0 -60.5 -0.5t-56 -3.5t-55 -9.5t-46 -19t-41.5 -30.5t-28 -45.5
t-18 -63.5q-2 -14 -2 -39q0 -89 69.5 -130.5t175.5 -41.5z" />
    <glyph glyph-name="uni0430" unicode="&#x430;" horiz-adv-x="1112" 
d="M565 944q204 0 316 -78t112 -233q0 -38 -12 -127l-72 -506h-284l6 88q-95 -106 -285 -106q-144 0 -225.5 70.5t-81.5 195.5q0 81 38 147t101 106t140.5 61.5t160.5 21.5q117 0 199 -35v4q4 28 4 49q0 57 -39 92t-151 35q-131 0 -293 -92l34 235q147 72 332 72zM463 176
q75 0 125 47t63 144v4q-47 30 -121 30q-80 0 -128 -35.5t-48 -97.5q0 -45 30.5 -68.5t78.5 -23.5z" />
    <glyph glyph-name="uni0431" unicode="&#x431;" horiz-adv-x="1220" 
d="M760 901q179 0 286 -106t107 -289q0 -48 -6 -94q-27 -204 -184 -317t-388 -113q-244 0 -363.5 122t-119.5 328q0 100 19 236q54 376 249 528q93 72 212 109.5t309 50.5q249 18 299 35l-39 -283q-50 -17 -240 -31q-168 -12 -241 -31t-125 -63q-73 -62 -103 -211
q120 129 328 129zM821 418q4 32 4 55q0 78 -48.5 127t-129.5 49q-94 0 -160 -51t-77 -152q-2 -18 -2 -34q0 -79 51 -127.5t135 -48.5q95 0 155.5 49t71.5 133z" />
    <glyph glyph-name="uni0432" unicode="&#x432;" horiz-adv-x="1052" 
d="M803 500q160 -40 160 -199q0 -57 -23.5 -107.5t-74.5 -95.5t-146 -71.5t-225 -26.5h-422l131 926h350q405 0 405 -219q0 -77 -43.5 -130.5t-111.5 -76.5zM635 657q0 82 -105 82h-41l-26 -188h45q57 0 92 27t35 79zM494 188q147 0 147 101q0 80 -127 80h-76l-26 -181h82z
" />
    <glyph glyph-name="uni0433" unicode="&#x433;" horiz-adv-x="827" 
d="M852 926l-35 -248h-336l-94 -678h-313l129 926h649z" />
    <glyph glyph-name="uni0434" unicode="&#x434;" horiz-adv-x="1261" 
d="M1040 248h150l-68 -486h-293l33 240h-573l-33 -240h-293l68 486h18q91 0 144 78q71 99 102 325l39 275h803zM580 680l-5 -29q-20 -137 -50 -232t-83 -171h287l62 432h-211z" />
    <glyph glyph-name="uni0435" unicode="&#x435;" horiz-adv-x="1083" 
d="M555 -18q-79 0 -147 11t-133 40t-110.5 74t-73.5 117.5t-28 166.5q0 36 7 94q30 214 164.5 336.5t357.5 122.5q110 0 193 -29t132 -80t73 -115.5t24 -141.5q0 -97 -27 -207h-608v-4q0 -142 207 -142q174 0 340 78l-37 -256q-46 -22 -135 -43.5t-199 -21.5zM406 557h299
q4 12 4 31q0 51 -35.5 82.5t-93.5 31.5q-65 0 -113 -39.5t-61 -105.5z" />
    <glyph glyph-name="uni0436" unicode="&#x436;" horiz-adv-x="1699" 
d="M1726 926l-389 -457l289 -469h-391l-236 453l-63 -453h-313l63 453l-358 -453h-385l413 496l-264 430h375l225 -432l60 432h313l-61 -437l346 437h376z" />
    <glyph glyph-name="uni0437" unicode="&#x437;" horiz-adv-x="911" 
d="M657 502q160 -50 160 -221q0 -35 -8 -69t-37 -78t-76.5 -75.5t-134.5 -54t-203 -22.5q-186 0 -319 59l35 231q118 -65 258 -65q170 0 170 82q0 71 -168 71h-84l26 199h60q184 0 184 92q0 70 -114 70q-134 0 -263 -76l35 236q55 26 144 44.5t188 18.5q153 0 244.5 -61
t91.5 -168q0 -80 -54.5 -137.5t-134.5 -75.5z" />
    <glyph glyph-name="uni0438" unicode="&#x438;" horiz-adv-x="1120" 
d="M1030 942h21l-133 -942h-308l56 393l-576 -411h-20l133 944h307l-55 -394z" />
    <glyph glyph-name="uni0439" unicode="&#x439;" horiz-adv-x="1120" 
d="M831 1382h236l-4 -26q-20 -151 -117.5 -241.5t-281.5 -90.5q-96 0 -163 25t-101 71.5t-45 104.5t-1 131l4 26h236v-8q-23 -166 94 -166q63 0 98 47t45 119v8zM455 532l575 410h21l-133 -942h-308l56 393l-576 -411h-20l133 944h307z" />
    <glyph glyph-name="uni043A" unicode="&#x43a;" horiz-adv-x="1150" 
d="M1194 926l-403 -457l286 -469h-377l-249 449l-64 -449h-313l129 926h313l-59 -428l354 428h383z" />
    <glyph glyph-name="uni043B" unicode="&#x43b;" horiz-adv-x="1196" 
d="M301 926h821l-129 -926h-313l94 678h-213l-18 -113q-24 -154 -54 -257t-77.5 -179.5t-116 -111.5t-164.5 -35q-94 0 -154 24l35 242q17 -10 54 -10q82 0 120.5 72t65.5 263z" />
    <glyph glyph-name="uni043C" unicode="&#x43c;" horiz-adv-x="1396" 
d="M1290 0h-307l-43 365l-297 -383h-20l-191 380l-149 -362h-308l422 942h21l268 -541l416 541h20z" />
    <glyph glyph-name="uni043D" unicode="&#x43d;" horiz-adv-x="1173" 
d="M786 926h314l-129 -926h-314l48 340h-271l-47 -340h-313l129 926h313l-47 -338h270z" />
    <glyph glyph-name="uni043E" unicode="&#x43e;" horiz-adv-x="1183" 
d="M545 -18q-224 0 -353 119t-129 309q0 32 7 79q29 205 185.5 330t385.5 125q220 0 349.5 -116t129.5 -306q0 -40 -6 -84q-29 -212 -186.5 -334t-382.5 -122zM557 242q108 0 174 78.5t66 187.5q0 83 -45 130.5t-125 47.5q-106 0 -173 -81t-67 -189q0 -80 46 -127t124 -47z
" />
    <glyph glyph-name="uni043F" unicode="&#x43f;" horiz-adv-x="1163" 
d="M203 926h887l-129 -926h-314l94 678h-260l-94 -678h-313z" />
    <glyph glyph-name="uni0440" unicode="&#x440;" horiz-adv-x="1230" 
d="M14 -406l189 1332h284l-6 -86q104 104 275 104q193 0 302 -118t109 -304q0 -44 -6 -90q-31 -210 -171.5 -330t-330.5 -120q-178 0 -264 92l-67 -480h-314zM604 242q108 0 174 78.5t66 187.5q0 83 -45 130.5t-125 47.5q-106 0 -173 -80t-67 -184q0 -84 46 -132t124 -48z
" />
    <glyph glyph-name="uni0441" unicode="&#x441;" horiz-adv-x="907" 
d="M514 -20q-96 0 -176.5 25t-143.5 74.5t-98 131t-35 188.5q0 30 7 84q34 229 186.5 345t374.5 116q155 0 260 -61l-37 -252q-97 59 -209 59q-95 0 -165.5 -55.5t-88.5 -163.5q-4 -24 -4 -49q0 -84 48.5 -134t141.5 -50q116 0 234 75l-39 -276q-37 -23 -110 -40t-146 -17z
" />
    <glyph glyph-name="uni0442" unicode="&#x442;" horiz-adv-x="948" 
d="M952 926l-34 -248h-259l-94 -678h-313l94 678h-254l35 248h825z" />
    <glyph glyph-name="uni0443" unicode="&#x443;" horiz-adv-x="1083" 
d="M41 -406l287 484l-256 848h329l121 -518l277 518h344l-760 -1332h-342z" />
    <glyph glyph-name="uni0444" unicode="&#x444;" horiz-adv-x="1501" 
d="M1436 506q0 -70 -17 -137.5t-60.5 -136.5t-109.5 -122t-172.5 -88t-240.5 -40l-56 -388h-305l55 390q-208 13 -337.5 136.5t-129.5 297.5q0 72 19.5 142t65.5 138t113 120.5t171 86.5t232 39l59 414h305l-59 -414q214 -10 340.5 -130t126.5 -308zM866 229q72 5 124.5 31
t80.5 65t40.5 79t12.5 83q0 92 -50.5 149t-141.5 64zM375 436q0 -86 51.5 -139.5t138.5 -65.5l66 467q-121 -10 -188.5 -84.5t-67.5 -177.5z" />
    <glyph glyph-name="uni0445" unicode="&#x445;" horiz-adv-x="1171" 
d="M-41 0l444 463l-301 463h355l153 -273l236 273h362l-432 -463l305 -463h-360l-162 268l-233 -268h-367z" />
    <glyph glyph-name="uni0446" unicode="&#x446;" horiz-adv-x="1210" 
d="M983 248h156l-70 -486h-293l33 238h-737l131 926h313l-96 -678h252l94 678h313z" />
    <glyph glyph-name="uni0447" unicode="&#x447;" horiz-adv-x="1105" 
d="M721 926h313l-131 -926h-311l49 348q-89 -65 -244 -65q-146 0 -222.5 69t-76.5 201q0 45 6 98l43 275h314l-33 -201q-8 -50 -8 -88q0 -47 28 -73.5t82 -26.5q42 0 70.5 12t46.5 38.5t27.5 58t17.5 81.5z" />
    <glyph glyph-name="uni0448" unicode="&#x448;" horiz-adv-x="1677" 
d="M1290 926h314l-129 -926h-1401l129 926h313l-94 -678h231l95 678h313l-96 -678h231z" />
    <glyph glyph-name="uni0449" unicode="&#x449;" horiz-adv-x="1734" 
d="M1509 248h154l-70 -486h-293l33 238h-1259l129 926h313l-94 -678h231l95 678h313l-96 -678h233l92 678h314z" />
    <glyph glyph-name="uni044A" unicode="&#x44a;" horiz-adv-x="1202" 
d="M727 680q189 0 299.5 -78.5t110.5 -224.5q0 -80 -31.5 -154.5t-93.5 -126.5q-120 -96 -369 -96h-391l96 678h-256l37 248h567l-34 -246h65zM772 250q41 41 41 104q0 56 -40 86.5t-111 30.5h-29l-39 -262h24q110 0 154 41z" />
    <glyph glyph-name="uni044B" unicode="&#x44b;" horiz-adv-x="1550" 
d="M547 680q189 0 299 -78.5t110 -224.5q0 -80 -31.5 -154.5t-93.5 -126.5q-120 -96 -368 -96h-391l131 926h313l-35 -246h66zM1165 926h314l-131 -926h-314zM592 250q41 41 41 104q0 56 -40.5 86.5t-111.5 30.5h-28l-39 -262h24q110 0 154 41z" />
    <glyph glyph-name="uni044C" unicode="&#x44c;" horiz-adv-x="1021" 
d="M547 680q189 0 299 -78.5t110 -224.5q0 -80 -31.5 -154.5t-93.5 -126.5q-120 -96 -368 -96h-391l131 926h313l-35 -246h66zM592 250q41 41 41 104q0 56 -40.5 86.5t-111.5 30.5h-28l-39 -262h24q110 0 154 41z" />
    <glyph glyph-name="uni044D" unicode="&#x44d;" horiz-adv-x="944" 
d="M432 944q93 0 173 -24.5t143 -73t99 -127t36 -178.5q0 -39 -6 -86q-21 -155 -100 -263t-197 -159t-267 -51q-179 0 -284 57l34 252q57 -35 112 -51.5t136 -16.5q87 0 152.5 35t95.5 102h-323l28 207h316q-15 64 -73.5 101t-146.5 37q-129 0 -239 -76l35 252
q33 23 114.5 43t161.5 20z" />
    <glyph glyph-name="uni044E" unicode="&#x44e;" horiz-adv-x="1683" 
d="M1145 944q218 0 346.5 -115.5t128.5 -306.5q0 -40 -6 -84q-29 -212 -185.5 -334t-379.5 -122q-202 0 -327 99t-147 263h-141l-49 -344h-313l131 926h313l-49 -342h133q54 166 200 263t345 97zM1061 242q106 0 170.5 78.5t64.5 187.5q0 83 -44 130.5t-122 47.5
q-104 0 -169.5 -81t-65.5 -189q0 -80 45 -127t121 -47z" />
    <glyph glyph-name="uni044F" unicode="&#x44f;" horiz-adv-x="1079" 
d="M614 926h394l-131 -926h-314l39 276h-57l-211 -276h-338l264 317q-75 32 -121.5 97.5t-46.5 150.5q0 22 4 58q7 63 31 112.5t63 82t85 54.5t105 33.5t113.5 16t120.5 4.5zM557 481h74l35 240h-74q-157 0 -172 -107q-2 -14 -2 -39q0 -42 36.5 -68t102.5 -26z" />
    <glyph glyph-name="uni0451" unicode="&#x451;" horiz-adv-x="1083" 
d="M399 1077q-70 0 -110.5 40.5t-40.5 105.5q0 82 54 135t132 53q66 0 107 -41t41 -104q0 -86 -51.5 -137.5t-131.5 -51.5zM879 1077q-71 0 -111.5 40.5t-40.5 105.5q0 82 54 135t132 53q66 0 107 -41t41 -104q0 -86 -51 -137.5t-131 -51.5zM555 -18q-79 0 -147 11t-133 40
t-110.5 74t-73.5 117.5t-28 166.5q0 36 7 94q30 214 164.5 336.5t357.5 122.5q110 0 193 -29t132 -80t73 -115.5t24 -141.5q0 -97 -27 -207h-608v-4q0 -142 207 -142q174 0 340 78l-37 -256q-46 -22 -135 -43.5t-199 -21.5zM406 557h299q4 12 4 31q0 51 -35.5 82.5
t-93.5 31.5q-65 0 -113 -39.5t-61 -105.5z" />
    <glyph glyph-name="uni0452" unicode="&#x452;" horiz-adv-x="1179" 
d="M803 883q139 0 222 -92.5t83 -274.5q0 -176 -99.5 -383.5t-267.5 -370.5h-331q374 390 374 701q0 166 -120 166q-51 0 -83.5 -13.5t-54 -47.5t-33 -78.5t-22.5 -120.5l-51 -369h-314l140 987h-183l31 217h180l23 154h313l-22 -154h289l-31 -217h-287l-29 -196
q44 41 114.5 66.5t158.5 25.5z" />
    <glyph glyph-name="uni0453" unicode="&#x453;" horiz-adv-x="827" 
d="M1122 1415l-405 -350h-316l301 350h420zM852 926l-35 -248h-336l-94 -678h-313l129 926h649z" />
    <glyph glyph-name="uni0454" unicode="&#x454;" horiz-adv-x="944" 
d="M633 705q-87 0 -151.5 -35t-94.5 -103h338l-29 -207h-334q15 -65 73.5 -101t148.5 -36q80 0 145.5 24.5t101.5 49.5l-34 -252q-35 -23 -118.5 -43t-166.5 -20q-93 0 -173 24.5t-143 73t-99 127t-36 178.5q0 32 7 86q33 231 184.5 352t378.5 121q170 0 272 -57l-35 -250
q-54 35 -106 51.5t-129 16.5z" />
    <glyph glyph-name="uni0455" unicode="&#x455;" horiz-adv-x="813" 
d="M319 -18q-93 0 -168.5 18t-109.5 39l33 227q35 -23 101 -45t132 -22q119 0 119 82q0 29 -17 50.5t-44 35.5t-59.5 27.5t-65.5 32t-60 44t-44 69t-17 101.5q0 139 94.5 221t269.5 82q82 0 153.5 -16.5t100.5 -32.5l-30 -223q-98 57 -189 57q-52 0 -79 -18.5t-27 -51.5
q0 -24 17 -42t43.5 -30.5t59 -25.5t65.5 -33t59.5 -47t43.5 -73.5t17 -106.5q0 -83 -30.5 -145.5t-86 -99.5t-126 -55.5t-155.5 -18.5z" />
    <glyph glyph-name="uni0456" unicode="&#x456;" horiz-adv-x="626" 
d="M426 1077q-70 0 -111 42t-41 110q0 84 49.5 133t125.5 49q67 0 109 -41t42 -110q0 -87 -50.5 -135t-123.5 -48zM106 0l99 686h-109l35 240h418l-129 -926h-314z" />
    <glyph glyph-name="uni0457" unicode="&#x457;" horiz-adv-x="626" 
d="M186 1077q-70 0 -110.5 40.5t-40.5 105.5q0 82 54 135t132 53q66 0 107 -41t41 -104q0 -86 -51.5 -137.5t-131.5 -51.5zM618 1077q-70 0 -110.5 40.5t-40.5 105.5q0 82 54 135t132 53q66 0 107 -41t41 -104q0 -86 -51.5 -137.5t-131.5 -51.5zM106 0l99 686h-109l35 240
h418l-129 -926h-314z" />
    <glyph glyph-name="uni0458" unicode="&#x458;" horiz-adv-x="655" 
d="M438 1077q-70 0 -110.5 42t-40.5 110q0 84 49 133t125 49q67 0 109 -41t42 -110q0 -87 -50.5 -135t-123.5 -48zM-53 -424q-139 0 -215 31l35 237q52 -20 131 -20q63 0 106 19t68 58.5t38 83.5t23 111l84 590h-108l34 240h418l-110 -787q-10 -75 -20.5 -129.5t-29.5 -117
t-43 -105.5t-62 -86t-86 -68.5t-114.5 -41t-148.5 -15.5z" />
    <glyph glyph-name="uni0459" unicode="&#x459;" horiz-adv-x="1628" 
d="M1153 680q189 0 299.5 -78.5t110.5 -224.5q0 -80 -31.5 -154.5t-93.5 -126.5q-120 -96 -369 -96h-389l94 678h-213l-18 -113q-24 -154 -54 -257t-77.5 -179.5t-116 -111.5t-164.5 -35q-94 0 -154 24l35 242q17 -10 54 -10q82 0 120.5 72t65.5 263l49 353h821l-35 -246h66
zM1198 250q41 41 41 104q0 56 -40.5 86.5t-111.5 30.5h-28l-37 -262h22q110 0 154 41z" />
    <glyph glyph-name="uni045A" unicode="&#x45a;" horiz-adv-x="1605" 
d="M1130 680q189 0 299.5 -78.5t110.5 -224.5q0 -80 -31.5 -154.5t-93.5 -126.5q-120 -96 -368 -96h-392l50 340h-271l-47 -340h-313l129 926h313l-47 -338h270l47 338h314l-35 -246h65zM1176 250q41 41 41 104q0 56 -40.5 86.5t-111.5 30.5h-29l-39 -262h25q110 0 154 41z
" />
    <glyph glyph-name="uni045B" unicode="&#x45b;" horiz-adv-x="1171" 
d="M788 883q135 0 209 -70.5t74 -204.5q0 -58 -12 -135l-68 -473h-313l63 444q7 44 7 78q0 107 -105 107q-32 0 -55.5 -7t-41 -24.5t-28.5 -35.5t-20 -53t-14 -62.5t-13 -77.5l-53 -369h-314l140 987h-181l31 217h180l23 154h313l-22 -154h289l-31 -217h-287l-29 -196
q43 42 110.5 67t147.5 25z" />
    <glyph glyph-name="uni045C" unicode="&#x45c;" horiz-adv-x="1150" 
d="M1229 1415l-406 -350h-315l301 350h420zM811 926h383l-403 -457l286 -469h-377l-249 449l-64 -449h-313l129 926h313l-59 -428z" />
    <glyph glyph-name="uni045D" unicode="&#x45d;" horiz-adv-x="1105" 
d="M895 1065h-303l-309 350h405zM1030 942h21l-133 -942h-308l56 393l-576 -411h-20l133 944h307l-55 -394z" />
    <glyph glyph-name="uni045E" unicode="&#x45e;" horiz-adv-x="1083" 
d="M616 1024q-96 0 -162.5 25t-100.5 71.5t-45 104.5t-1 131l4 26h236v-8q-23 -166 94 -166q63 0 98 47t45 119v8h236l-4 -26q-20 -151 -118 -241.5t-282 -90.5zM41 -406l287 484l-256 848h329l121 -518l277 518h344l-760 -1332h-342z" />
    <glyph glyph-name="uni045F" unicode="&#x45f;" horiz-adv-x="1153" 
d="M1079 926l-129 -926h-293l-34 -238h-293l32 238h-288l129 926h313l-96 -678h252l94 678h313z" />
    <glyph glyph-name="uni0490" unicode="&#x490;" horiz-adv-x="1036" 
d="M1155 1606l-78 -541h-526l-150 -1065h-323l186 1327h549l39 279h303z" />
    <glyph glyph-name="uni0491" unicode="&#x491;" horiz-adv-x="806" 
d="M885 1163l-68 -485h-336l-94 -678h-313l129 926h356l33 237h293z" />
    <glyph glyph-name="Wgrave" unicode="&#x1e80;" horiz-adv-x="2156" 
d="M1079 1444l-309 350h406l206 -350h-303zM612 -18l-450 1345h344l213 -678l461 678h18l268 -680l408 680h362l-827 -1345h-20l-279 704l-477 -704h-21z" />
    <glyph glyph-name="wgrave" unicode="&#x1e81;" horiz-adv-x="1478" 
d="M709 1065l-310 350h406l207 -350h-303zM426 -18l-346 944h330l112 -389l260 389h21l151 -389l228 389h348l-615 -944h-20l-166 424l-283 -424h-20z" />
    <glyph glyph-name="Wacute" unicode="&#x1e82;" horiz-adv-x="2156" 
d="M967 1444l301 350h420l-406 -350h-315zM612 -18l-450 1345h344l213 -678l461 678h18l268 -680l408 680h362l-827 -1345h-20l-279 704l-477 -704h-21z" />
    <glyph glyph-name="wacute" unicode="&#x1e83;" horiz-adv-x="1478" 
d="M596 1065l301 350h420l-406 -350h-315zM426 -18l-346 944h330l112 -389l260 389h21l151 -389l228 389h348l-615 -944h-20l-166 424l-283 -424h-20z" />
    <glyph glyph-name="Wdieresis" unicode="&#x1e84;" horiz-adv-x="2156" 
d="M999 1450q-75 0 -121.5 46t-46.5 118q0 79 53 131.5t136 52.5q74 0 119 -46t45 -118q0 -79 -52 -131.5t-133 -52.5zM1468 1450q-76 0 -122 46t-46 118q0 79 53 131.5t136 52.5q74 0 119 -46t45 -118q0 -79 -52 -131.5t-133 -52.5zM612 -18l-450 1345h344l213 -678
l461 678h18l268 -680l408 680h362l-827 -1345h-20l-279 704l-477 -704h-21z" />
    <glyph glyph-name="wdieresis" unicode="&#x1e85;" horiz-adv-x="1478" 
d="M586 1077q-70 0 -111 40.5t-41 105.5q0 82 54.5 135t132.5 53q66 0 106.5 -41t40.5 -104q0 -86 -51 -137.5t-131 -51.5zM1055 1077q-71 0 -111.5 40.5t-40.5 105.5q0 82 54.5 135t132.5 53q66 0 106.5 -41t40.5 -104q0 -86 -51 -137.5t-131 -51.5zM426 -18l-346 944h330
l112 -389l260 389h21l151 -389l228 389h348l-615 -944h-20l-166 424l-283 -424h-20z" />
    <glyph glyph-name="uni1E9E" unicode="&#x1e9e;" horiz-adv-x="1456" 
d="M1438 1327l-4 -20l-275 -519q99 -34 157 -117t58 -216q0 -237 -138.5 -356t-401.5 -119q-167 0 -273 36l37 265q93 -39 217 -39q105 0 166 54t61 155q0 71 -44.5 113t-123.5 42q-89 0 -145 -49l-24 18l264 496h-418l-150 -1071h-323l186 1327h1174z" />
    <glyph glyph-name="Ygrave" unicode="&#x1ef2;" horiz-adv-x="1335" 
d="M788 1444l-309 350h406l207 -350h-304zM436 0l76 526l-362 801h346l213 -518l356 518h362l-591 -801l-76 -526h-324z" />
    <glyph glyph-name="ygrave" unicode="&#x1ef3;" horiz-adv-x="1083" 
d="M592 1065l-309 350h405l207 -350h-303zM41 -406l287 484l-256 848h329l121 -518l277 518h344l-760 -1332h-342z" />
    <glyph glyph-name="uni2002" unicode="&#x2002;" horiz-adv-x="991" 
 />
    <glyph glyph-name="uni2003" unicode="&#x2003;" horiz-adv-x="1640" 
 />
    <glyph glyph-name="uni2009" unicode="&#x2009;" horiz-adv-x="327" 
 />
    <glyph glyph-name="uni200A" unicode="&#x200a;" horiz-adv-x="102" 
 />
    <glyph glyph-name="endash" unicode="&#x2013;" horiz-adv-x="991" 
d="M53 375l35 243h860l-35 -243h-860z" />
    <glyph glyph-name="emdash" unicode="&#x2014;" horiz-adv-x="1640" 
d="M53 375l35 243h1509l-34 -243h-1510z" />
    <glyph glyph-name="quoteleft" unicode="&#x2018;" horiz-adv-x="624" 
d="M651 1327q-89 -66 -147.5 -144.5t-85.5 -148.5q66 -6 102.5 -44.5t36.5 -104.5q0 -93 -61 -154t-152 -61q-88 0 -138 51.5t-50 146.5q0 118 64.5 239t209.5 220h221z" />
    <glyph glyph-name="quoteright" unicode="&#x2019;" horiz-adv-x="624" 
d="M125 682q89 66 147.5 144.5t85.5 148.5q-66 6 -102.5 44.5t-36.5 104.5q0 93 61 154t152 61q88 0 138.5 -51.5t50.5 -146.5q0 -118 -65 -239t-210 -220h-221z" />
    <glyph glyph-name="quotesinglbase" unicode="&#x201a;" horiz-adv-x="624" 
d="M-20 -330q89 66 147.5 144.5t85.5 148.5q-65 6 -102 44.5t-37 105.5q0 93 61 154t152 61q88 0 138 -52t50 -147q0 -118 -64.5 -239t-209.5 -220h-221z" />
    <glyph glyph-name="quotedblleft" unicode="&#x201c;" horiz-adv-x="1155" 
d="M655 1327q-89 -66 -147.5 -144.5t-85.5 -148.5q66 -6 102.5 -44.5t36.5 -104.5q0 -93 -61 -154t-152 -61q-88 0 -138 51.5t-50 146.5q0 118 64.5 239t209.5 220h221zM1182 1327q-89 -67 -148.5 -145t-85.5 -148q66 -6 102.5 -44.5t36.5 -104.5q0 -93 -61 -154t-152 -61
q-88 0 -138 51.5t-50 146.5q0 118 65 239t210 220h221z" />
    <glyph glyph-name="quotedblright" unicode="&#x201d;" horiz-adv-x="1155" 
d="M129 682q89 66 147.5 144.5t85.5 148.5q-66 6 -102.5 44.5t-36.5 104.5q0 93 61 154t152 61q88 0 138.5 -51.5t50.5 -146.5q0 -118 -65 -239t-210 -220h-221zM655 682q89 67 148.5 145t85.5 148q-66 6 -102.5 44.5t-36.5 104.5q0 93 61 154t152 61q88 0 138 -51.5
t50 -146.5q0 -118 -64.5 -239t-209.5 -220h-222z" />
    <glyph glyph-name="quotedblbase" unicode="&#x201e;" horiz-adv-x="1150" 
d="M-20 -330q89 66 147.5 144.5t85.5 148.5q-65 6 -102 44.5t-37 105.5q0 93 61 154t152 61q88 0 138 -52t50 -147q0 -118 -64.5 -239t-209.5 -220h-221zM506 -330q89 66 147.5 144.5t85.5 148.5q-65 6 -102 44.5t-37 105.5q0 93 61 154t152 61q88 0 138 -52t50 -147
q0 -118 -64.5 -239t-209.5 -220h-221z" />
    <glyph glyph-name="dagger" unicode="&#x2020;" horiz-adv-x="1198" 
d="M356 -406l123 1092h-305l35 240h299l45 401h332l-68 -401h303l-35 -240h-307l-182 -1092h-240z" />
    <glyph glyph-name="daggerdbl" unicode="&#x2021;" horiz-adv-x="1198" 
d="M1085 686h-307l-45 -272h283l-35 -240h-289l-96 -580h-240l66 580h-311l34 240h304l30 272h-305l35 240h299l45 401h332l-68 -401h303z" />
    <glyph glyph-name="bullet" unicode="&#x2022;" horiz-adv-x="907" 
d="M457 229q-108 0 -177 69t-69 177q0 104 72 173t174 69q106 0 173.5 -68.5t67.5 -175.5q0 -108 -68 -176t-173 -68z" />
    <glyph glyph-name="ellipsis" unicode="&#x2026;" horiz-adv-x="1630" 
d="M258 -18q-79 0 -124.5 46t-45.5 122q0 84 58.5 141t136.5 57q75 0 122.5 -47t47.5 -123q0 -88 -57.5 -142t-137.5 -54zM760 -18q-79 0 -124.5 46t-45.5 122q0 84 58 141t136 57q75 0 122.5 -47t47.5 -123q0 -88 -57 -142t-137 -54zM1264 -18q-79 0 -124.5 46t-45.5 122
q0 84 58 141t136 57q75 0 122.5 -47t47.5 -123q0 -88 -57 -142t-137 -54z" />
    <glyph glyph-name="perthousand" unicode="&#x2030;" horiz-adv-x="2869" 
d="M473 680q-143 0 -232 78t-89 211q0 167 115 274t284 107q143 0 232 -79t89 -212q0 -117 -56 -204.5t-145.5 -131t-197.5 -43.5zM403 0l924 1327h322l-924 -1327h-322zM489 877q71 0 116.5 45.5t45.5 115.5q0 53 -33 83t-88 30q-70 0 -113.5 -48t-43.5 -114
q0 -51 30.5 -81.5t85.5 -30.5zM1505 -20q-143 0 -232 77.5t-89 210.5q0 167 115 274t284 107q143 0 232.5 -79t89.5 -212q0 -117 -56 -204.5t-146 -130.5t-198 -43zM2376 -20q-143 0 -232.5 77.5t-89.5 210.5q0 167 115.5 274t284.5 107q143 0 232 -79t89 -212
q0 -117 -56 -204.5t-145.5 -130.5t-197.5 -43zM1522 176q70 0 115.5 45.5t45.5 116.5q0 53 -32.5 83t-87.5 30q-70 0 -114 -48t-44 -114q0 -51 31.5 -82t85.5 -31zM2392 176q70 0 116 46t46 116q0 53 -33 83t-88 30q-70 0 -114 -48t-44 -114q0 -51 31.5 -82t85.5 -31z" />
    <glyph glyph-name="guilsinglleft" unicode="&#x2039;" horiz-adv-x="847" 
d="M311 152l-243 321l329 322h371l-362 -326l249 -317h-344z" />
    <glyph glyph-name="guilsinglright" unicode="&#x203a;" horiz-adv-x="847" 
d="M84 152l362 321l-249 322h344l243 -322l-329 -321h-371z" />
    <glyph glyph-name="fraction" unicode="&#x2044;" horiz-adv-x="1058" 
d="M-66 0l924 1327h322l-924 -1327h-322z" />
    <glyph glyph-name="Euro" unicode="&#x20ac;" horiz-adv-x="1241" 
d="M778 -20q-254 0 -414.5 103t-183.5 304h-176l29 207h143q2 46 19 133h-144l29 207h172q70 193 244.5 303.5t421.5 110.5q132 0 230.5 -18.5t139.5 -41.5l-39 -274q-49 29 -128.5 49t-166.5 20q-263 0 -360 -149h369l-29 -207h-416q-15 -61 -18 -133h415l-28 -207h-383
q43 -139 307 -139q97 0 193 18.5t155 42.5l-39 -276q-41 -19 -141.5 -36t-200.5 -17z" />
    <glyph glyph-name="uni20B4" unicode="&#x20b4;" horiz-adv-x="1087" 
d="M1079 725h-221q-34 -25 -166 -109h373l-29 -196l-577 2q-19 -40 -19 -76q0 -117 185 -117q64 0 152 31.5t161 77.5l-41 -287q-169 -71 -367 -71q-209 0 -317.5 76.5t-108.5 222.5q0 70 27 143h-92l27 196h227q52 42 164 109h-377l29 197l581 -2q10 27 10 53
q0 123 -178 123q-65 0 -145 -26t-146 -64l39 284q148 56 359 56q208 0 308.5 -79t100.5 -218q0 -68 -22 -129h92z" />
    <glyph glyph-name="uni20BD" unicode="&#x20bd;" horiz-adv-x="1312" 
d="M791 1327q524 0 524 -385q0 -20 -4 -86q-42 -446 -645 -446h-93l-12 -86h227l-30 -207h-226l-16 -117h-323l16 117h-174l31 207h172l12 86h-174l30 206h175l100 711h410zM981 864q4 24 4 47q0 42 -13.5 72.5t-34.5 48t-53.5 27.5t-63 13t-70.5 3h-82l-60 -424h80
q131 0 202 44.5t91 168.5z" />
    <glyph glyph-name="uni2113" unicode="&#x2113;" horiz-adv-x="567" 
d="M61 0l191 1358h313l-190 -1358h-314z" />
    <glyph glyph-name="uni2116" unicode="&#x2116;" horiz-adv-x="2293" 
d="M1214 -20l-722 722l-99 -702h-315l190 1348h21l721 -721l98 700h315l-188 -1347h-21zM1901 649q-148 0 -233 76t-85 215q0 59 12 111q34 138 138 216.5t258 78.5q148 0 231.5 -75.5t83.5 -215.5q0 -59 -12 -111q-34 -138 -136.5 -216.5t-256.5 -78.5zM1917 834
q59 0 97.5 39.5t53.5 111.5q7 40 7 55q0 61 -27.5 92t-75.5 31q-59 0 -97.5 -40.5t-53.5 -112.5q-6 -34 -6 -56q0 -61 27 -90.5t75 -29.5zM1544 391l27 187h629l-27 -187h-629z" />
    <glyph glyph-name="trademark" unicode="&#x2122;" horiz-adv-x="1996" 
d="M1378 504l-204 323l-60 -311h-231l180 832h22l306 -482l305 482h20l178 -832h-231l-57 315l-207 -327h-21zM369 516v619h-209v192h651v-192h-205v-619h-237z" />
    <glyph glyph-name="uni2126" unicode="&#x2126;" horiz-adv-x="1576" 
d="M1526 770q0 -62 -14.5 -125.5t-45.5 -132t-88.5 -133.5t-134.5 -115h213l-37 -264h-573l37 268q301 168 301 465q0 145 -87.5 234.5t-228.5 89.5q-190 0 -302.5 -112.5t-112.5 -299.5q0 -238 190 -377l-37 -268h-573l37 264h235q-85 75 -133.5 176t-48.5 219
q0 96 27.5 191t89 185.5t150 159.5t220.5 111t291 42q140 0 259 -47.5t198.5 -127t123.5 -184.5t44 -219z" />
    <glyph glyph-name="estimated" unicode="&#x212e;" horiz-adv-x="1816" 
d="M944 -20q-159 0 -304 55t-250.5 148t-167.5 222.5t-62 272.5t62 273t167.5 223.5t250.5 148.5t304 55q156 0 300 -55t248.5 -148.5t167 -223.5t62.5 -273v-16h-1263q-17 0 -17 -13v-383q0 -18 25 -43q91 -94 215.5 -147t263.5 -53q147 0 276.5 60.5t223.5 164.5h115
q-113 -124 -274 -196t-343 -72zM459 700h962q17 0 17 11v389q0 18 -27 45q-87 90 -209.5 141t-255.5 51q-139 0 -262 -52t-217 -146q-25 -25 -25 -49v-379q0 -11 17 -11z" />
    <glyph glyph-name="arrowleft" unicode="&#x2190;" horiz-adv-x="1767" 
d="M780 61l-620 615l620 614h402l-467 -469h934v-289h-934l467 -471h-402z" />
    <glyph glyph-name="arrowup" unicode="&#x2191;" horiz-adv-x="1341" 
d="M537 0v852l-357 -367v342l518 521l519 -521v-342l-357 367v-852h-323z" />
    <glyph glyph-name="arrowright" unicode="&#x2192;" horiz-adv-x="1767" 
d="M647 61l467 471h-934v289h934l-467 469h402l620 -614l-620 -615h-402z" />
    <glyph glyph-name="arrowdown" unicode="&#x2193;" horiz-adv-x="1341" 
d="M700 -20l-518 520v342l357 -367v852h323v-852l357 367v-342z" />
    <glyph glyph-name="partialdiff" unicode="&#x2202;" horiz-adv-x="1224" 
d="M551 -18q-125 0 -220.5 33t-153 92t-86 133.5t-28.5 162.5q0 35 7 82q30 202 167 331.5t338 129.5q89 0 169 -31t124 -94q2 35 2 64q0 127 -61 188.5t-205 61.5q-136 0 -252 -41l37 266q101 29 250 29q67 0 124.5 -7.5t115 -26t103 -48t86 -76t67 -108t42 -145.5
t15.5 -187q0 -68 -10 -173q-23 -164 -80.5 -288t-141.5 -199t-186.5 -112t-222.5 -37zM565 238q91 0 158.5 58.5t85.5 168.5q4 24 4 43q0 85 -46.5 133.5t-129.5 48.5q-92 0 -154.5 -55t-85.5 -143q-10 -38 -10 -78q0 -81 47 -128.5t131 -47.5z" />
    <glyph glyph-name="uni2206" unicode="&#x2206;" horiz-adv-x="1304" 
d="M788 1348l424 -1348h-1251l807 1348h20zM813 264l-119 447l-243 -447h362z" />
    <glyph glyph-name="product" unicode="&#x220f;" horiz-adv-x="1736" 
d="M207 -406l207 1471h-238l37 262h1552l-36 -262h-238l-207 -1471h-323l206 1471h-430l-207 -1471h-323z" />
    <glyph glyph-name="summation" unicode="&#x2211;" horiz-adv-x="1163" 
d="M-12 0l4 20l579 658l-391 629l4 20h998l-37 -262h-440l245 -395l-354 -406h457l-37 -264h-1028z" />
    <glyph glyph-name="minus" unicode="&#x2212;" 
d="M139 344l33 240h907l-32 -240h-908z" />
    <glyph glyph-name="radical" unicode="&#x221a;" horiz-adv-x="1263" 
d="M412 0l-111 403h-221l33 240h422l69 -264l457 948h336l-674 -1327h-311z" />
    <glyph glyph-name="infinity" unicode="&#x221e;" horiz-adv-x="1392" 
d="M383 346q-124 0 -206.5 75.5t-82.5 213.5q0 151 99 248.5t249 97.5q197 0 289 -170q144 170 334 170q123 0 207 -72.5t84 -216.5q0 -156 -97.5 -251t-248.5 -95q-104 0 -177.5 36t-123.5 124q-78 -93 -153.5 -126.5t-172.5 -33.5zM440 571q76 0 152 99q-52 88 -131 88
q-51 0 -81 -33t-30 -76q0 -38 25 -58t65 -20zM989 571q51 0 81 33t30 76q0 38 -25 58t-65 20q-76 0 -152 -99q52 -88 131 -88z" />
    <glyph glyph-name="integral" unicode="&#x222b;" horiz-adv-x="878" 
d="M135 -424q-137 0 -211 33l33 233q45 -18 125 -18q95 0 137 60t62 196l118 852q30 210 138.5 313t314.5 103q117 0 192 -29l-34 -242q-13 7 -47 15t-68 8q-91 0 -132.5 -54t-53.5 -145l-113 -797q-10 -72 -20.5 -124t-28 -110.5t-40 -99.5t-57 -80t-78 -62.5t-103.5 -37.5
t-134 -14z" />
    <glyph glyph-name="approxequal" unicode="&#x2248;" 
d="M774 516q-64 0 -124 23t-106 46t-77 23q-66 0 -84 -86h-225q17 152 102 235t223 83q57 0 105 -14.5t74.5 -31.5t60 -31.5t65.5 -14.5q31 0 52.5 18t28.5 34.5t10 33.5h227q-15 -152 -105 -235t-227 -83zM713 86q-65 0 -124.5 23t-105.5 46t-77 23q-66 0 -84 -86h-226
q17 152 102.5 235t223.5 83q57 0 105 -14.5t74.5 -32t60 -32t65.5 -14.5q31 0 52.5 18t28 34.5t9.5 33.5h227q-15 -152 -104.5 -234.5t-226.5 -82.5z" />
    <glyph glyph-name="notequal" unicode="&#x2260;" 
d="M197 0l96 154h-180l32 239h293l88 142h-360l33 239h471l98 152h254l-98 -152h182l-33 -239h-293l-88 -142h361l-33 -239h-473l-94 -154h-256z" />
    <glyph glyph-name="lessequal" unicode="&#x2264;" 
d="M1186 1352l-41 -295l-420 -183l369 -182l-41 -295l-840 467l4 21zM92 0l33 240h907l-33 -240h-907z" />
    <glyph glyph-name="greaterequal" unicode="&#x2265;" 
d="M152 397l41 295l419 182l-368 183l41 295l839 -467l-4 -21zM94 0l33 240h907l-33 -240h-907z" />
    <glyph glyph-name="dotmath" unicode="&#x22c5;" horiz-adv-x="757" 
d="M369 293q-79 0 -124.5 46t-45.5 122q0 84 58 141t136 57q75 0 122.5 -47t47.5 -123q0 -88 -57 -142t-137 -54z" />
    <glyph glyph-name="lozenge" unicode="&#x25ca;" horiz-adv-x="1140" 
d="M494 -20l-422 671l610 697h20l420 -697l-608 -671h-20zM555 389l250 277l-166 272l-250 -287z" />
    <glyph glyph-name="uniF8FF" unicode="&#xf8ff;" horiz-adv-x="1228" 
d="M344 1206q-26 0 -43.5 18t-17.5 46q0 25 17.5 43t43.5 18q25 0 44.5 -18.5t19.5 -42.5q0 -27 -19.5 -45.5t-44.5 -18.5zM479 1206q-25 0 -43 18.5t-18 45.5q0 25 18 43t43 18q26 0 44 -18t18 -43q0 -28 -18 -46t-44 -18zM612 1206q-25 0 -44 18.5t-19 45.5q0 25 19 43
t44 18q26 0 44 -18t18 -43q0 -28 -18 -46t-44 -18zM748 1206q-26 0 -44 18t-18 46q0 25 18 43t44 18q25 0 44 -18t19 -43q0 -27 -19 -45.5t-44 -18.5zM883 1206q-28 0 -46 18t-18 46q0 25 18.5 43t45.5 18q24 0 42.5 -18.5t18.5 -42.5q0 -27 -18.5 -45.5t-42.5 -18.5z
M1016 1206q-25 0 -44.5 18.5t-19.5 45.5q0 24 19.5 42.5t44.5 18.5q26 0 43.5 -18t17.5 -43q0 -28 -17.5 -46t-43.5 -18zM344 1073q-26 0 -43.5 18t-17.5 44q0 25 17.5 43t43.5 18q25 0 44.5 -18.5t19.5 -42.5q0 -26 -19.5 -44t-44.5 -18zM344 938q-26 0 -43.5 18.5
t-17.5 44.5q0 25 17.5 42.5t43.5 17.5q25 0 44.5 -18t19.5 -42q0 -26 -19.5 -44.5t-44.5 -18.5zM612 938q-25 0 -44 18.5t-19 44.5q0 24 19 42t44 18q26 0 44 -17.5t18 -42.5q0 -26 -18 -44.5t-44 -18.5zM748 938q-26 0 -44 18.5t-18 44.5q0 25 18 42.5t44 17.5q25 0 44 -18
t19 -42q0 -26 -19 -44.5t-44 -18.5zM883 938q-27 0 -45.5 18t-18.5 45q0 25 18.5 42.5t45.5 17.5q24 0 42.5 -18t18.5 -42q0 -26 -18.5 -44.5t-42.5 -18.5zM1016 938q-25 0 -44.5 18.5t-19.5 44.5q0 24 19.5 42t44.5 18q26 0 43.5 -17.5t17.5 -42.5q0 -26 -17.5 -44.5
t-43.5 -18.5zM344 807q-26 0 -43.5 16.5t-17.5 42.5t17.5 44t43.5 18q25 0 44.5 -18t19.5 -44q0 -25 -19 -42t-45 -17zM612 807q-26 0 -44.5 16.5t-18.5 42.5t19 44t44 18q26 0 44 -18t18 -44t-17.5 -42.5t-44.5 -16.5zM344 670q-26 0 -43.5 17.5t-17.5 43.5q0 27 17.5 45.5
t43.5 18.5q25 0 44.5 -19t19.5 -45t-19.5 -43.5t-44.5 -17.5zM612 670q-25 0 -44 17.5t-19 43.5t19 45t44 19q26 0 44 -19t18 -45t-18 -43.5t-44 -17.5zM748 670q-26 0 -44 17.5t-18 43.5t18 45t44 19q25 0 44 -19t19 -45t-19 -43.5t-44 -17.5zM883 670q-28 0 -46 17.5
t-18 43.5q0 27 18.5 45.5t45.5 18.5q24 0 42.5 -19t18.5 -45t-18.5 -43.5t-42.5 -17.5zM1016 670q-25 0 -44.5 17.5t-19.5 43.5t19.5 45t44.5 19q26 0 43.5 -18.5t17.5 -45.5q0 -26 -17.5 -43.5t-43.5 -17.5zM344 537q-26 0 -43.5 17.5t-17.5 43.5q0 25 17.5 43t43.5 18
q25 0 44.5 -18.5t19.5 -42.5q0 -26 -19.5 -43.5t-44.5 -17.5zM1016 537q-25 0 -44.5 17.5t-19.5 43.5q0 24 19.5 42.5t44.5 18.5q26 0 43.5 -18t17.5 -43q0 -26 -17.5 -43.5t-43.5 -17.5zM344 403q-26 0 -43.5 18t-17.5 44q0 25 17.5 42t43.5 17q25 0 44.5 -17.5t19.5 -41.5
q0 -26 -19.5 -44t-44.5 -18zM612 403q-25 0 -44 18t-19 44q0 24 19 41.5t44 17.5q26 0 44 -17t18 -42q0 -26 -18 -44t-44 -18zM748 403q-26 0 -44 18t-18 44q0 25 18 42t44 17q25 0 44 -17.5t19 -41.5q0 -26 -19 -44t-44 -18zM883 403q-28 0 -46 18t-18 44q0 25 18 42t46 17
q24 0 42.5 -17.5t18.5 -41.5q0 -26 -18.5 -44t-42.5 -18zM1016 403q-25 0 -44.5 18t-19.5 44q0 24 19.5 41.5t44.5 17.5q26 0 43.5 -17t17.5 -42q0 -26 -17.5 -44t-43.5 -18zM344 266q-26 0 -43.5 18.5t-17.5 45.5q0 26 17.5 43.5t43.5 17.5q25 0 44.5 -17.5t19.5 -43.5
t-19.5 -45t-44.5 -19zM344 133q-26 0 -43.5 18t-17.5 44q0 27 17 44t44 17q26 0 45 -17t19 -44q0 -26 -19.5 -44t-44.5 -18zM612 133q-25 0 -44 18t-19 44q0 27 18.5 44t44.5 17q27 0 44.5 -17t17.5 -44q0 -26 -18 -44t-44 -18zM344 0q-26 0 -43.5 17.5t-17.5 43.5
q0 25 17.5 44.5t43.5 19.5q25 0 44.5 -19.5t19.5 -44.5q0 -26 -19.5 -43.5t-44.5 -17.5zM479 0q-25 0 -43 17.5t-18 43.5q0 25 18.5 44.5t42.5 19.5q26 0 44 -19.5t18 -44.5q0 -26 -18 -43.5t-44 -17.5zM612 0q-25 0 -44 17.5t-19 43.5q0 25 19 44.5t44 19.5q26 0 44 -19.5
t18 -44.5q0 -26 -18 -43.5t-44 -17.5z" />
    <glyph glyph-name="Cacute.loclPLK" horiz-adv-x="1294" 
d="M784 1444l220 350h364l-293 -350h-291zM762 -20q-156 0 -281 46t-205 126.5t-122.5 188.5t-42.5 234q0 59 10 117q57 307 260.5 481.5t533.5 174.5q119 0 213.5 -28t143.5 -65l-43 -303q-140 105 -320 105q-176 0 -302 -109t-156 -276q-7 -40 -7 -74q0 -148 85.5 -237
t256.5 -89q89 0 173.5 22.5t124 42.5t87.5 50l-47 -332q-49 -29 -149 -52t-213 -23z" />
    <glyph glyph-name="Iacute_J.loclNLD" horiz-adv-x="1585" 
d="M281 1444l301 350h419l-405 -350h-315zM975 1444l301 350h420l-406 -350h-315zM78 0l186 1327h324l-187 -1327h-323zM932 -20q-178 0 -279 53l39 272q30 -20 86 -35.5t109 -15.5q115 0 171.5 61.5t78.5 216.5l75 535h-292l36 260h615l-123 -876q-16 -114 -50.5 -198
t-95 -147t-153 -94.5t-217.5 -31.5z" />
    <glyph glyph-name="Nacute.loclPLK" horiz-adv-x="1445" 
d="M713 1444l219 350h364l-292 -350h-291zM1214 -20l-722 722l-99 -702h-315l190 1348h21l721 -721l98 700h315l-188 -1347h-21z" />
    <glyph glyph-name="Oacute.loclPLK" horiz-adv-x="1570" 
d="M778 1444l219 350h365l-293 -350h-291zM743 -20q-306 0 -469 161.5t-163 429.5q0 60 8 115q43 301 250 481.5t512 180.5q294 0 464.5 -153.5t170.5 -434.5q0 -54 -9 -115q-27 -194 -129 -344.5t-267 -235.5t-368 -85zM754 272q171 0 285 110.5t139 289.5q4 29 4 73
q0 142 -81 227t-231 85q-171 0 -285.5 -110t-138.5 -283q-4 -31 -4 -74q0 -142 80.5 -230t231.5 -88z" />
    <glyph glyph-name="Sacute.loclPLK" horiz-adv-x="1028" 
d="M553 1444l219 350h365l-293 -350h-291zM438 -20q-241 0 -379 83l41 295q154 -108 322 -108q186 0 186 139q0 35 -23.5 63.5t-61 51t-83 46t-91 55.5t-83 71.5t-61 102t-23.5 139.5q0 209 127 319.5t355 110.5q105 0 194.5 -22t130.5 -46l-41 -291q-57 39 -132.5 64.5
t-141.5 25.5q-79 0 -120.5 -36t-41.5 -93q0 -38 23.5 -68t61.5 -52.5t83.5 -45t91 -53t83.5 -69t61.5 -101t23.5 -141.5q0 -216 -137 -328t-365 -112z" />
    <glyph glyph-name="Zacute.loclPLK" horiz-adv-x="1222" 
d="M588 1444l219 350h364l-292 -350h-291zM-12 0l4 20l721 1045h-527l37 262h1049l-4 -20l-719 -1043h565l-37 -264h-1089z" />
    <glyph glyph-name="cacute.loclPLK" horiz-adv-x="907" 
d="M494 1065l219 350h364l-293 -350h-290zM514 -20q-96 0 -176.5 25t-143.5 74.5t-98 131t-35 188.5q0 30 7 84q34 229 186.5 345t374.5 116q155 0 260 -61l-37 -252q-97 59 -209 59q-95 0 -165.5 -55.5t-88.5 -163.5q-4 -24 -4 -49q0 -84 48.5 -134t141.5 -50q116 0 234 75
l-39 -276q-37 -23 -110 -40t-146 -17z" />
    <glyph glyph-name="iacute_j.loclNLD" horiz-adv-x="1253" 
d="M166 1065l301 350h420l-406 -350h-315zM793 1065l301 350h419l-405 -350h-315zM96 0l99 686h-109l35 240h418l-129 -926h-314zM551 -424q-139 0 -215 31l35 237q52 -20 131 -20q63 0 106 19t68 58.5t38 83.5t23 111l84 590h-108l35 240h417l-110 -787
q-10 -75 -20.5 -129.5t-29.5 -117t-43 -105.5t-62 -86t-86 -68.5t-114.5 -41t-148.5 -15.5z" />
    <glyph glyph-name="i.loclTRK" horiz-adv-x="626" 
d="M401 1077q-70 0 -110.5 40.5t-40.5 105.5q0 82 54 135t132 53q66 0 107 -41t41 -104q0 -86 -51.5 -137.5t-131.5 -51.5zM96 0l99 686h-109l35 240h418l-129 -926h-314z" />
    <glyph glyph-name="nacute.loclPLK" horiz-adv-x="1128" 
d="M524 1065l219 350h365l-293 -350h-291zM61 0l132 926h284l-6 -92q100 110 262 110q141 0 220 -79.5t79 -225.5q0 -45 -8 -102l-76 -537h-313l76 530q6 42 6 68q0 92 -107 92q-80 0 -117 -56.5t-51 -158.5l-67 -475h-314z" />
    <glyph glyph-name="oacute.loclPLK" horiz-adv-x="1183" 
d="M504 1065l219 350h364l-292 -350h-291zM545 -18q-224 0 -353 119t-129 309q0 32 7 79q29 205 185.5 330t385.5 125q220 0 349.5 -116t129.5 -306q0 -40 -6 -84q-29 -212 -186.5 -334t-382.5 -122zM557 242q108 0 174 78.5t66 187.5q0 83 -45 130.5t-125 47.5
q-106 0 -173 -81t-67 -189q0 -80 46 -127t124 -47z" />
    <glyph glyph-name="sacute.loclPLK" horiz-adv-x="813" 
d="M369 1065l219 350h364l-293 -350h-290zM319 -18q-93 0 -168.5 18t-109.5 39l33 227q35 -23 101 -45t132 -22q119 0 119 82q0 29 -17 50.5t-44 35.5t-59.5 27.5t-65.5 32t-60 44t-44 69t-17 101.5q0 139 94.5 221t269.5 82q82 0 153.5 -16.5t100.5 -32.5l-30 -223
q-98 57 -189 57q-52 0 -79 -18.5t-27 -51.5q0 -24 17 -42t43.5 -30.5t59 -25.5t65.5 -33t59.5 -47t43.5 -73.5t17 -106.5q0 -83 -30.5 -145.5t-86 -99.5t-126 -55.5t-155.5 -18.5z" />
    <glyph glyph-name="germandbls.calt" horiz-adv-x="1456" 
d="M1438 1327l-4 -20l-275 -519q99 -34 157 -117t58 -216q0 -237 -138.5 -356t-401.5 -119q-167 0 -273 36l37 265q93 -39 217 -39q105 0 166 54t61 155q0 71 -44.5 113t-123.5 42q-89 0 -145 -49l-24 18l264 496h-418l-150 -1071h-323l186 1327h1174z" />
    <glyph glyph-name="zacute.loclPLK" horiz-adv-x="950" 
d="M389 1065l219 350h365l-293 -350h-291zM-27 0l4 20l474 666h-347l35 240h838l-4 -21l-471 -663h387l-35 -242h-881z" />
    <glyph glyph-name="uni0414.loclBGR" horiz-adv-x="1513" 
d="M1262 264h161l-75 -543h-304l39 281h-784l-39 -281h-303l76 543h166l673 1084h21zM805 745l-281 -481h422z" />
    <glyph glyph-name="uni041B.loclBGR" horiz-adv-x="1288" 
d="M1194 0h-336l-174 707l-377 -707h-344l797 1348h20z" />
    <glyph glyph-name="uni0424.loclBGR" horiz-adv-x="1767" 
d="M1708 717q0 -100 -27.5 -193t-86 -176t-143 -146.5t-205 -104.5t-265.5 -50l-16 -125h-316l19 129q-246 30 -399.5 181t-153.5 374q0 96 27 188t85.5 176t142.5 149t205 108t265 53l18 125h316l-19 -127q247 -25 400 -180.5t153 -380.5zM442 627q0 -123 75 -204t190 -106
l98 695q-95 -11 -166.5 -47t-113.5 -89.5t-62.5 -115.5t-20.5 -133zM1018 315q176 22 269 130t93 251q0 126 -74.5 210.5t-189.5 105.5z" />
    <glyph glyph-name="uni0431.loclSRB" horiz-adv-x="1183" 
d="M778 932q175 -60 259.5 -159.5t84.5 -244.5q0 -48 -8.5 -97.5t-29 -104t-51.5 -103t-79.5 -93.5t-108.5 -77.5t-142.5 -51.5t-178.5 -19q-210 0 -336.5 108t-126.5 297q0 168 88 280.5t246 166.5q-153 78 -153 233q0 41 10.5 78.5t39.5 77.5t75 69t124 47.5t179 18.5h276
q118 0 195 24l-33 -237q-84 -25 -207 -25h-244q-45 0 -66.5 -15t-21.5 -52q0 -30 31.5 -50t112.5 -49zM563 242q104 0 168 69t64 174q0 79 -48.5 130t-128.5 51q-107 0 -169 -72.5t-62 -171.5q0 -80 46.5 -130t129.5 -50z" />
    <glyph glyph-name="uni0432.loclBGR" horiz-adv-x="1155" 
d="M842 723q109 -26 167 -112.5t58 -192.5q0 -60 -15 -117t-53.5 -116.5t-97 -103t-154.5 -71.5t-217 -28q-215 0 -324.5 95t-109.5 275q0 70 13 156l57 410q37 260 155 367.5t373 107.5q190 0 299 -97t109 -245q0 -131 -70 -217t-190 -111zM655 1153q-146 0 -172 -195
l-20 -151h76q127 0 179 53.5t52 155.5q0 66 -31.5 101.5t-83.5 35.5zM559 221q91 0 135.5 50.5t44.5 138.5q0 157 -182 157h-129l-12 -92q-8 -52 -8 -104q0 -76 41 -113t110 -37z" />
    <glyph glyph-name="uni0433.loclBGR" horiz-adv-x="878" 
d="M387 -18q-154 0 -239 60.5t-85 188.5q0 58 19 105.5t49.5 78.5t70 57t81 42.5t81 33.5t70 31.5t49.5 35t19 44.5q0 33 -20.5 47.5t-69.5 14.5q-118 0 -238 -62l35 238q125 47 307 47q148 0 227.5 -59.5t79.5 -175.5q0 -68 -24.5 -121.5t-63.5 -85.5t-86 -57t-94 -42.5
t-86 -35t-63.5 -41t-24.5 -54.5q0 -67 88 -67q127 0 264 82l-35 -244q-53 -25 -139.5 -43t-171.5 -18z" />
    <glyph glyph-name="uni0433.loclSRB" horiz-adv-x="626" 
d="M61 1118l33 238h658l-33 -238h-658zM106 0l99 686h-109l35 240h418l-129 -926h-314z" />
    <glyph glyph-name="uni0434.loclBGR" horiz-adv-x="1224" 
d="M463 -426q-198 0 -305 43l35 250q90 -39 221 -39q148 0 221.5 63t95.5 209l2 13q-38 -48 -109.5 -80.5t-168.5 -32.5q-178 0 -283.5 111t-105.5 303q0 41 6 88q35 213 167 327.5t332 114.5q99 0 172 -34.5t109 -94.5l27 111h284l-116 -828q-21 -148 -66 -249t-118.5 -162
t-169.5 -87t-230 -26zM555 254q104 0 168.5 79t64.5 183q0 89 -47 131.5t-116 42.5q-102 0 -169 -80t-67 -186q0 -78 45 -124t121 -46z" />
    <glyph glyph-name="uni0434.loclSRB" horiz-adv-x="1224" 
d="M463 -426q-198 0 -305 43l35 250q90 -39 221 -39q148 0 221.5 63t95.5 209l2 13q-38 -48 -109.5 -80.5t-168.5 -32.5q-178 0 -283.5 111t-105.5 303q0 41 6 88q35 213 167 327.5t332 114.5q99 0 172 -34.5t109 -94.5l27 111h284l-116 -828q-21 -148 -66 -249t-118.5 -162
t-169.5 -87t-230 -26zM555 254q104 0 168.5 79t64.5 183q0 89 -47 131.5t-116 42.5q-102 0 -169 -80t-67 -186q0 -78 45 -124t121 -46z" />
    <glyph glyph-name="uni0436.loclBGR" horiz-adv-x="1699" 
d="M1726 926l-389 -457l289 -469h-391l-236 453l-63 -453h-313l63 451l-358 -451h-385l413 496l-264 430h375l225 -430l119 862h313l-120 -869l346 437h376z" />
    <glyph glyph-name="uni0437.loclBGR" horiz-adv-x="909" 
d="M625 291q174 -80 174 -297q0 -62 -16 -119.5t-56.5 -113.5t-102 -96.5t-160 -65.5t-222.5 -25q-84 0 -170.5 14.5t-128.5 34.5l37 256q107 -49 264 -49q105 0 167 41.5t62 122.5q0 145 -170 145h-123l35 246h82q231 0 231 170q0 59 -39.5 97t-123.5 38q-138 0 -261 -65
l37 254q142 65 348 65q166 0 269.5 -86t103.5 -242q0 -118 -63.5 -208t-173.5 -117z" />
    <glyph glyph-name="uni0438.loclBGR" horiz-adv-x="1142" 
d="M756 926h313l-129 -926h-285l9 94q-106 -112 -287 -112q-129 0 -201 70t-72 202q0 48 15 162l71 510h314l-68 -484q-10 -75 -10 -106q0 -50 25 -75t79 -25q23 0 42 4t33.5 14.5t25.5 21.5t20 31t15 36.5t12 45.5t9.5 50t8.5 57z" />
    <glyph glyph-name="uni0439.loclBGR" horiz-adv-x="1142" 
d="M643 1024q-96 0 -162.5 25t-100.5 71.5t-45 104.5t-1 131l4 26h235v-8q-23 -166 95 -166q63 0 98 47t45 119v8h236l-5 -26q-20 -151 -117.5 -241.5t-281.5 -90.5zM756 926h313l-129 -926h-285l9 94q-106 -112 -287 -112q-129 0 -201 70t-72 202q0 48 15 162l71 510h314
l-68 -484q-10 -75 -10 -106q0 -50 25 -75t79 -25q23 0 42 4t33.5 14.5t25.5 21.5t20 31t15 36.5t12 45.5t9.5 50t8.5 57z" />
    <glyph glyph-name="uni045D.loclBGR" horiz-adv-x="1142" 
d="M805 1065h-303l-309 350h405zM756 926h313l-129 -926h-285l9 94q-106 -112 -287 -112q-129 0 -201 70t-72 202q0 48 15 162l71 510h314l-68 -484q-10 -75 -10 -106q0 -50 25 -75t79 -25q23 0 42 4t33.5 14.5t25.5 21.5t20 31t15 36.5t12 45.5t9.5 50t8.5 57z" />
    <glyph glyph-name="uni043A.loclBGR" horiz-adv-x="1150" 
d="M72 0l190 1358h313l-118 -842l354 410h383l-403 -434l286 -492h-377l-249 469l-66 -469h-313z" />
    <glyph glyph-name="uni043B.loclBGR" horiz-adv-x="1060" 
d="M995 0h-342l-131 414l-252 -414h-336l650 944h20z" />
    <glyph glyph-name="uni043F.loclBGR" horiz-adv-x="1148" 
d="M72 0l131 926h284l-6 -92q100 110 262 110q141 0 220 -79.5t79 -225.5q0 -45 -8 -102l-76 -537h-313l76 530q6 42 6 68q0 92 -106 92q-80 0 -117 -56.5t-51 -158.5l-68 -475h-313z" />
    <glyph glyph-name="uni043F.loclSRB" horiz-adv-x="1142" 
d="M1012 1356l-33 -238h-647l33 238h647zM756 926h313l-129 -926h-285l9 94q-106 -112 -287 -112q-129 0 -201 70t-72 202q0 48 15 162l71 510h314l-68 -484q-10 -75 -10 -106q0 -50 25 -75t79 -25q23 0 42 4t33.5 14.5t25.5 21.5t20 31t15 36.5t12 45.5t9.5 50t8.5 57z" />
    <glyph glyph-name="uni0442.loclBGR" horiz-adv-x="1697" 
d="M72 0l131 926h284l-8 -105q38 55 108 89t154 34q83 0 149 -35t101 -98q112 133 301 133q141 0 220 -79.5t79 -227.5q0 -45 -12 -127l-72 -510h-313l72 504q10 72 10 96q0 90 -96 90q-71 0 -111 -53.5t-57 -171.5l-66 -465h-313l72 504q10 72 10 96q0 90 -97 90
q-71 0 -110.5 -53.5t-56.5 -171.5l-66 -465h-313z" />
    <glyph glyph-name="uni0442.loclSRB" horiz-adv-x="1683" 
d="M1520 1356l-33 -238h-1118l32 238h1119zM1296 926h314l-129 -926h-285l8 100q-43 -50 -107.5 -84t-144.5 -34q-170 0 -243 129q-61 -72 -141.5 -100.5t-147.5 -28.5q-157 0 -235.5 75t-78.5 215q0 48 13 144l71 510h314l-70 -508q-8 -57 -8 -88q0 -97 100 -97
q35 0 60.5 14.5t40.5 35t27 60.5t17.5 71.5t12.5 87.5l59 424h314l-68 -484q-10 -72 -10 -104q0 -105 100 -105q35 0 60.5 14.5t40.5 35t27 60.5t17.5 71.5t12.5 87.5z" />
    <glyph glyph-name="uni0446.loclBGR" horiz-adv-x="1208" 
d="M1069 225q38 0 66 8l-66 -471h-293l33 238q-50 5 -85.5 35.5t-41.5 85.5q-98 -139 -309 -139q-128 0 -199.5 68.5t-71.5 195.5q0 53 19 194l69 486h314l-66 -469q-12 -94 -12 -127q0 -97 100 -97q80 0 114 54t56 209l60 430h313l-76 -543q-8 -55 -8 -86q0 -38 20 -55
t64 -17z" />
    <glyph glyph-name="uni0448.loclBGR" horiz-adv-x="1683" 
d="M1296 926h314l-129 -926h-285l8 100q-43 -50 -107.5 -84t-144.5 -34q-170 0 -243 129q-61 -72 -141.5 -100.5t-147.5 -28.5q-157 0 -235.5 75t-78.5 215q0 48 13 144l71 510h314l-70 -508q-8 -57 -8 -88q0 -97 100 -97q35 0 60.5 14.5t40.5 35t27 60.5t17.5 71.5
t12.5 87.5l59 424h314l-68 -484q-10 -72 -10 -104q0 -105 100 -105q35 0 60.5 14.5t40.5 35t27 60.5t17.5 71.5t12.5 87.5z" />
    <glyph glyph-name="uni0449.loclBGR" horiz-adv-x="1748" 
d="M1614 225q33 0 61 8l-65 -471h-293l33 240q-51 3 -86.5 33t-38.5 86q-41 -56 -114.5 -97.5t-170.5 -41.5q-72 0 -134.5 33.5t-94.5 97.5q-62 -73 -144 -102t-149 -29q-312 0 -312 294q0 45 15 156l69 494h314l-72 -508q-6 -40 -6 -82q0 -103 96 -103q26 0 46.5 7.5
t34.5 17t26 31.5t19 37t14.5 49.5t10.5 52.5t9 61q1 4 1.5 7t0.5 6l59 424h314l-72 -508q-6 -40 -6 -78q0 -107 96 -107q26 0 46.5 7.5t34.5 17t26 31.5t19 37t14.5 49.5t10.5 52.5t9 61q1 4 1.5 7t0.5 6l59 424h314l-78 -559q-6 -37 -6 -68q0 -42 20.5 -58t67.5 -16z" />
    <glyph glyph-name="uni044C.loclBGR" horiz-adv-x="1099" 
d="M715 748q147 0 231 -97.5t84 -238.5q0 -59 -14 -115.5t-50 -115t-91.5 -101.5t-145 -70.5t-203.5 -27.5q-205 0 -310 96.5t-105 279.5q0 59 14 166l55 402h314l-37 -264q100 86 258 86zM559 221q70 0 113 45t43 117q0 53 -33 90t-88 37q-74 0 -118 -46t-44 -112
q0 -56 34 -93.5t93 -37.5z" />
    <glyph glyph-name="uni044A.loclBGR" horiz-adv-x="1277" 
d="M893 748q147 0 231 -97.5t84 -238.5q0 -59 -14 -115.5t-50 -115t-91 -101.5t-144.5 -70.5t-203.5 -27.5q-205 0 -310.5 96.5t-105.5 279.5q0 59 14 166l23 162h-252l32 240h566l-37 -264q100 86 258 86zM737 221q70 0 113 45t43 117q0 53 -33 90t-88 37q-74 0 -118 -46
t-44 -112q0 -56 34 -93.5t93 -37.5z" />
    <glyph glyph-name="xi.ss02" horiz-adv-x="878" 
d="M795 1118q-112 0 -172.5 -36t-73.5 -119q-2 -12 -2 -31q0 -61 44 -98t132 -37h68l-35 -238h-125q-116 0 -174.5 -34t-67.5 -109q-2 -16 -2 -33q0 -63 42.5 -97t125.5 -59q136 -38 193 -87t57 -126q0 -147 -146 -293h-268q46 51 69 89t23 77q0 38 -36 64t-123 49
q-134 35 -201.5 118t-67.5 204q0 30 6 73q18 126 107 204.5t229 102.5q-72 23 -113.5 76t-41.5 121q0 13 2 29q14 127 157 190h-235l33 240h766l-33 -240h-137z" />
    <glyph glyph-name="zero.tf" 
d="M559 -20q-224 0 -343.5 145t-119.5 391q0 74 13 158q45 321 202 497.5t406 176.5q220 0 340.5 -143t120.5 -396q0 -53 -11 -143q-40 -324 -199.5 -505t-408.5 -181zM584 254q96 0 163 112.5t93 315.5q8 65 8 117q0 278 -152 278q-97 0 -166.5 -113t-95.5 -315
q-8 -65 -8 -117q0 -278 158 -278z" />
    <glyph glyph-name="one.tf" 
d="M465 0l135 950l-301 -131l37 271l616 258h21l-191 -1348h-317z" />
    <glyph glyph-name="two.tf" 
d="M86 0l4 20l467 541q117 134 165 217t48 160q0 71 -46.5 105t-125.5 34q-86 0 -180 -48t-146 -93l43 313q163 99 363 99q202 0 311 -104t109 -277q0 -72 -16.5 -133t-60 -130.5t-91.5 -129.5t-139 -162l-132 -148h367l-37 -264h-903z" />
    <glyph glyph-name="three.tf" 
d="M1180 1327l-4 -20l-347 -514q105 -23 177.5 -106t72.5 -222q0 -123 -41.5 -217t-115.5 -152t-170.5 -87t-212.5 -29q-134 0 -233 24.5t-154 58.5l41 291q145 -104 315 -104q119 0 181.5 57.5t62.5 151.5q0 81 -55.5 122.5t-143.5 41.5q-59 0 -108 -23.5t-76 -52.5l-27 22
l336 496h-381l37 262h846z" />
    <glyph glyph-name="four.tf" 
d="M582 0l28 199h-651l4 20l1081 1129h21l-129 -922h176l-33 -227h-176l-26 -199h-295zM463 426h176l31 213z" />
    <glyph glyph-name="five.tf" 
d="M494 -20q-128 0 -225 27t-142 59l41 288q58 -45 145.5 -73.5t167.5 -28.5q118 0 179 56.5t61 146.5q0 87 -54.5 126.5t-144.5 39.5q-161 0 -260 -107l-24 12l219 801h635l-37 -262h-373l-55 -211q12 2 37 2q62 0 117 -13.5t104.5 -44.5t85.5 -76.5t57 -114.5t21 -154
q0 -233 -151 -353t-404 -120z" />
    <glyph glyph-name="six.tf" 
d="M707 877q61 0 116.5 -13t107 -43t89 -75t60 -114t22.5 -155q0 -228 -148.5 -362.5t-392.5 -134.5q-221 0 -349 118.5t-128 354.5q0 133 48.5 267t131 247t191.5 206t231 154h475q-183 -93 -380.5 -240t-284.5 -270q82 60 211 60zM580 248q87 0 141.5 55.5t54.5 149.5
q0 81 -42 122t-116 41q-93 0 -146.5 -57.5t-53.5 -146.5q0 -74 42 -119t120 -45z" />
    </font>
</defs>
</svg>
