<?xml version="1.0" standalone="no"?>
<!DOCTYPE svg PUBLIC "-//W3C//DTD SVG 1.1//EN" "http://www.w3.org/Graphics/SVG/1.1/DTD/svg11.dtd" >
<svg xmlns="http://www.w3.org/2000/svg" xmlns:xlink="http://www.w3.org/1999/xlink" version="1.1">
<metadata>
Created by FontForge 20170731 at Thu Jul 30 05:03:54 2020
 By Aleksey,,,
Nespresso Lucas is a licensed version of FS Lucas, Copyright (c) 2016. All rights reserved. This font may not be altered in any way without prior permission of Fontsmith Ltd.
</metadata>
<defs>
<font id="NespressoLucas-Med" horiz-adv-x="1220" >
  <font-face 
    font-family="Nespresso Lucas Med"
    font-weight="500"
    font-stretch="normal"
    units-per-em="2048"
    panose-1="2 11 6 3 6 3 2 3 2 3"
    ascent="1516"
    descent="-532"
    x-height="920"
    cap-height="1327"
    bbox="-973 -426 2490 1839"
    underline-thickness="149"
    underline-position="-353"
    unicode-range="U+000D-FB02"
  />
<missing-glyph horiz-adv-x="1378" 
d="M172 -424v1751h1032v-1751h-1032zM688 512l422 758h-844zM233 -297l424 750l-424 747v-1497zM1143 -297v1497l-424 -747zM266 -365h844l-422 768z" />
    <glyph glyph-name="fi" unicode="fi" horiz-adv-x="1179" 
d="M221 0v770h-158v150h158v84q0 186 76 284t244 98q78 0 123 -18v-160q-44 19 -91 19q-82 0 -124.5 -51.5t-42.5 -167.5v-88h628v-920h-184v770h-444v-770h-185zM944 1137q-50 0 -81.5 30.5t-31.5 79.5q0 48 33 79.5t80 31.5q46 0 77.5 -31t31.5 -80q0 -50 -31.5 -80
t-77.5 -30z" />
    <glyph glyph-name="fl" unicode="fl" horiz-adv-x="1179" 
d="M221 0v770h-158v150h158v84q0 186 76 284t244 98q78 0 123 -18v-160q-44 19 -91 19q-82 0 -124.5 -51.5t-42.5 -167.5v-88h239v-150h-239v-770h-185zM850 0v1356h184v-1356h-184z" />
    <glyph glyph-name="f_f.liga" unicode="ff" horiz-adv-x="1357" 
d="M221 0v770h-158v150h158v67q0 190 79.5 285.5t250.5 95.5q83 0 145 -25v-157q-53 22 -118 22q-85 0 -128.5 -51t-43.5 -168v-69h446v84q0 192 84 287t266 95q112 0 182 -32v-162q-83 35 -161 35q-104 0 -145.5 -56.5t-41.5 -177.5v-73h254v-150h-254v-770h-184v770h-446
v-770h-185z" />
    <glyph glyph-name="f_f_i.liga" unicode="ffi" horiz-adv-x="1810" 
d="M221 0v770h-158v150h158v67q0 190 79.5 285.5t250.5 95.5q80 0 137 -22v-160q-46 22 -110 22q-85 0 -128.5 -51t-43.5 -168v-69h444v84q0 382 324 382q81 0 122 -18v-160q-33 19 -90 19q-85 0 -128.5 -51.5t-43.5 -167.5v-88h631v-920h-184v770h-447v-770h-184v770h-444
v-770h-185zM1573 1137q-50 0 -81.5 30.5t-31.5 79.5q0 48 33 79.5t80 31.5t78.5 -31t31.5 -80q0 -50 -31.5 -80t-78.5 -30z" />
    <glyph glyph-name="f_f_j.liga" unicode="ffj" horiz-adv-x="1818" 
d="M1309 -424q-89 0 -166 25v157q63 -26 137 -26q110 0 155.5 67t45.5 199v772h-447v-770h-184v770h-444v-770h-185v770h-158v150h158v67q0 190 79.5 285.5t250.5 95.5q80 0 137 -22v-160q-46 22 -110 22q-85 0 -128.5 -51t-43.5 -168v-69h444v84q0 382 324 382
q81 0 122 -18v-160q-33 19 -90 19q-85 0 -128.5 -51.5t-43.5 -167.5v-88h631v-912q0 -217 -84.5 -324.5t-271.5 -107.5zM1573 1124q-54 0 -87.5 34.5t-33.5 88.5q0 53 35 88t86 35t85 -34.5t34 -88.5q0 -55 -33.5 -89t-85.5 -34z" />
    <glyph glyph-name="f_f_l.liga" unicode="ffl" horiz-adv-x="1810" 
d="M221 0v770h-158v150h158v67q0 190 79.5 285.5t250.5 95.5q80 0 137 -22v-160q-46 22 -110 22q-85 0 -128.5 -51t-43.5 -168v-69h444v84q0 382 324 382q81 0 122 -18v-160q-33 19 -90 19q-85 0 -128.5 -51.5t-43.5 -167.5v-88h240v-150h-240v-770h-184v770h-444v-770h-185
zM1481 0v1358h184v-1358h-184z" />
    <glyph glyph-name="f_f_t.liga" unicode="fft" horiz-adv-x="2058" 
d="M221 0v770h-158v150h158v67q0 190 79.5 285.5t250.5 95.5q80 0 137 -22v-160q-46 22 -110 22q-85 0 -128.5 -51t-43.5 -168v-69h446v84q0 186 76.5 284t247.5 98q77 0 122 -18v-160q-38 19 -90 19q-89 0 -130.5 -51t-41.5 -185v-71h205v-150h-205v-770h-184v770h-446
v-770h-185zM1780 -18q-158 0 -227.5 79.5t-69.5 235.5v473h-115v18q169 187 281 383h18v-251h262v-150h-262v-444q0 -96 31 -142.5t121 -46.5q71 0 151 33v-156q-74 -32 -190 -32z" />
    <glyph glyph-name="f_j.liga" unicode="fj" horiz-adv-x="1179" 
d="M678 -424q-87 0 -164 25v157q63 -26 135 -26q110 0 155.5 67t45.5 199v772h-444v-770h-185v770h-158v150h158v84q0 186 76 284t244 98q78 0 123 -18v-160q-44 19 -91 19q-82 0 -124.5 -51.5t-42.5 -167.5v-88h628v-912q0 -217 -84.5 -324.5t-271.5 -107.5zM944 1137
q-50 0 -81.5 30.5t-31.5 79.5q0 48 33 79.5t80 31.5q46 0 77.5 -31t31.5 -80q0 -50 -31.5 -80t-77.5 -30z" />
    <glyph glyph-name="f_t.liga" unicode="ft" horiz-adv-x="1425" 
d="M221 0v770h-158v150h158v84q0 186 76.5 284t247.5 98q78 0 123 -18v-160q-38 19 -90 19q-85 0 -128.5 -51.5t-43.5 -167.5v-88h204v-150h-204v-770h-185zM1147 -18q-157 0 -227 79.5t-70 235.5v473h-115v18q169 187 281 383h18v-251h262v-150h-262v-444q0 -96 31 -142.5
t121 -46.5q71 0 151 33v-156q-74 -32 -190 -32z" />
    <glyph glyph-name="t_t.liga" unicode="tt" horiz-adv-x="1476" 
d="M496 -18q-158 0 -227.5 79.5t-69.5 235.5v473h-150v21q72 64 168 179.5t145 200.5h21v-251h262v-150h-262v-444q0 -96 31 -142.5t121 -46.5q66 0 151 33v-156q-74 -32 -190 -32zM1198 -18q-157 0 -227 79.5t-70 235.5v473h-149v21q71 62 167 177.5t148 202.5h18v-251h265
v-150h-265v-444q0 -96 31 -142.5t121 -46.5q72 0 152 33v-156q-74 -32 -191 -32z" />
    <glyph glyph-name=".notdef" horiz-adv-x="1378" 
d="M172 -424v1751h1032v-1751h-1032zM688 512l422 758h-844zM233 -297l424 750l-424 747v-1497zM1143 -297v1497l-424 -747zM266 -365h844l-422 768z" />
    <glyph glyph-name=".null" horiz-adv-x="0" 
 />
    <glyph glyph-name="nonmarkingreturn" horiz-adv-x="682" 
 />
    <glyph glyph-name="CR" unicode="&#xd;" horiz-adv-x="430" 
 />
    <glyph glyph-name="space" unicode=" " horiz-adv-x="430" 
 />
    <glyph glyph-name="exclam" unicode="!" horiz-adv-x="585" 
d="M203 383l-8 944h196l-8 -944h-180zM293 -18q-54 0 -87.5 34t-33.5 88q0 52 35.5 86.5t85.5 34.5q53 0 87 -34.5t34 -88.5q0 -53 -34.5 -86.5t-86.5 -33.5z" />
    <glyph glyph-name="quotedbl" unicode="&#x22;" horiz-adv-x="868" 
d="M197 901l-25 426h199l-25 -426h-149zM524 901l-24 426h196l-22 -426h-150z" />
    <glyph glyph-name="numbersign" unicode="#" horiz-adv-x="1167" 
d="M106 0l89 346h-185l37 146h182l90 344h-186l37 145h184l88 346h181l-88 -346h258l88 346h178l-86 -346h186l-39 -145h-184l-88 -344h186l-39 -146h-184l-88 -346h-178l86 346h-258l-86 -346h-181zM410 492h258l88 344h-258z" />
    <glyph glyph-name="dollar" unicode="$" horiz-adv-x="1058" 
d="M483 -184v188q-222 8 -354 76v178q65 -42 160 -69t194 -31v438q-59 19 -100 35t-87.5 39t-77 50.5t-56.5 63.5t-38.5 83.5t-12.5 105.5q0 158 99 248t273 104v207h105v-207q171 -10 284 -68v-182q-137 85 -284 96v-417q43 -15 72.5 -26t73 -31t72.5 -40t62 -50t53 -63.5
t33 -79t13 -97.5q0 -172 -102 -261t-277 -102v-188h-105zM483 784v385q-86 -9 -135 -57t-49 -129q0 -78 46.5 -122t137.5 -77zM588 160q92 10 140 60.5t48 131.5t-47 129.5t-141 83.5v-405z" />
    <glyph glyph-name="percent" unicode="%" horiz-adv-x="1783" 
d="M424 702q-142 0 -234 86.5t-92 235.5t94.5 236.5t231.5 87.5q138 0 233 -86t95 -236t-93 -237t-235 -87zM428 0l737 1327h191l-738 -1327h-190zM424 834q81 0 132.5 51t51.5 141q0 93 -52.5 143t-131.5 50q-78 0 -130 -52.5t-52 -140.5q0 -90 51.5 -141t130.5 -51z
M1360 -20q-143 0 -235.5 86t-92.5 235q0 150 95 237t233 87q136 0 231 -86t95 -236q0 -149 -92.5 -236t-233.5 -87zM1360 111q79 0 130.5 51t51.5 141q0 92 -52 142.5t-130 50.5q-79 0 -131.5 -52.5t-52.5 -142.5q0 -88 52 -139t132 -51z" />
    <glyph glyph-name="ampersand" unicode="&#x26;" horiz-adv-x="1413" 
d="M1362 96l-111 -123l-157 142q-173 -133 -424 -133q-159 0 -286 54.5t-202.5 161t-75.5 248.5q0 127 59.5 222.5t151.5 142.5q-71 85 -71 207q0 142 104.5 236t274.5 94q138 0 225 -56v-168q-34 25 -92.5 45.5t-122.5 20.5q-92 0 -143.5 -47t-51.5 -125q0 -66 41.5 -126
t141.5 -147l450 -395q27 61 27 139q0 109 -59.5 193t-176.5 121l117 108q128 -32 212.5 -145.5t84.5 -273.5q0 -142 -74 -259zM303 467q0 -143 105 -234.5t278 -91.5q170 0 281 82l-547 484q-51 -36 -84 -97t-33 -143z" />
    <glyph glyph-name="quotesingle" unicode="'" horiz-adv-x="542" 
d="M197 901l-25 426h199l-25 -426h-149z" />
    <glyph glyph-name="parenleft" unicode="(" horiz-adv-x="653" 
d="M467 -406q-79 65 -144.5 146t-121.5 187t-87.5 242t-31.5 288t31.5 288t88 243t122.5 189t147 150h231q-95 -80 -167 -163.5t-131.5 -189.5t-91 -237.5t-31.5 -283.5q0 -250 96.5 -459.5t324.5 -399.5h-235z" />
    <glyph glyph-name="parenright" unicode=")" horiz-adv-x="653" 
d="M-49 -406q228 190 326 400t98 459q0 152 -31.5 283.5t-92 237.5t-132.5 189.5t-168 163.5h233q81 -68 147 -150t122 -189t87 -243t31 -288t-31 -288t-86.5 -242t-121 -187t-144.5 -146h-237z" />
    <glyph glyph-name="asterisk" unicode="*" horiz-adv-x="763" 
d="M322 717l12 227l-187 -129l-61 109l207 98l-207 98l61 109l187 -129l-12 227h122l-14 -227l186 129l62 -109l-207 -98l207 -98l-62 -109l-186 129l14 -227h-122z" />
    <glyph glyph-name="plus" unicode="+" 
d="M528 35v352h-342v152h342v348h166v-348h344v-152h-344v-352h-166z" />
    <glyph glyph-name="comma" unicode="," horiz-adv-x="526" 
d="M250 225q65 0 104 -44t39 -128q0 -82 -45 -167t-119 -142h-123q57 53 92.5 119t43.5 119q-55 -1 -89 32t-34 86q0 57 36 91t95 34z" />
    <glyph glyph-name="hyphen" unicode="-" horiz-adv-x="559" 
d="M82 424v149h393v-149h-393z" />
    <glyph glyph-name="period" unicode="." horiz-adv-x="530" 
d="M266 -18q-54 0 -87.5 34t-33.5 88q0 52 35 86.5t86 34.5q52 0 85.5 -34.5t33.5 -88.5q0 -53 -33.5 -86.5t-85.5 -33.5z" />
    <glyph glyph-name="slash" unicode="/" horiz-adv-x="792" 
d="M0 -406l580 1733h190l-580 -1733h-190z" />
    <glyph glyph-name="zero" unicode="0" horiz-adv-x="1230" 
d="M616 -20q-162 0 -278.5 93.5t-172.5 246.5t-56 346q0 141 33 263.5t95 216.5t159.5 148t219.5 54q98 0 181 -35.5t142.5 -98t101.5 -148t62.5 -187t20.5 -213.5q0 -193 -57 -346t-174 -246.5t-277 -93.5zM616 152q147 0 229.5 137t82.5 377t-82 377t-230 137
q-146 0 -229.5 -136.5t-83.5 -377.5q0 -239 83.5 -376.5t229.5 -137.5z" />
    <glyph glyph-name="one" unicode="1" horiz-adv-x="876" 
d="M430 0v1108l-303 -139v166l473 213h18v-1348h-188z" />
    <glyph glyph-name="two" unicode="2" horiz-adv-x="1075" 
d="M96 0v18l434 537q106 131 152.5 217.5t46.5 175.5q0 105 -63 168.5t-183 63.5q-164 0 -321 -127v190q133 105 342 105q205 0 312.5 -106t107.5 -290q0 -115 -51.5 -216.5t-188.5 -268.5l-250 -301h512v-166h-850z" />
    <glyph glyph-name="three" unicode="3" horiz-adv-x="1101" 
d="M616 793q150 0 253.5 -101t103.5 -284q0 -210 -132 -319t-354 -109q-111 0 -205.5 23t-140.5 54v195q133 -100 328 -100q144 0 225.5 63.5t81.5 196.5q0 126 -71.5 192t-202.5 66q-123 0 -205 -62l-16 17l364 538h-489v164h796v-18l-350 -516h14z" />
    <glyph glyph-name="four" unicode="4" horiz-adv-x="1144" 
d="M709 0v242h-668v18l829 1088h19v-957h186v-149h-186v-242h-180zM328 391h381v502z" />
    <glyph glyph-name="five" unicode="5" horiz-adv-x="1101" 
d="M485 -20q-219 0 -344 77v195q50 -41 136 -70.5t188 -29.5q150 0 230.5 69.5t80.5 200.5q0 126 -75 192t-205 66q-90 0 -166 -36t-123 -87l-21 6l105 764h606v-164h-448l-48 -360q67 41 177 41q85 0 156 -25.5t125 -75.5t84 -130t30 -183q0 -224 -127 -337t-361 -113z" />
    <glyph glyph-name="six" unicode="6" horiz-adv-x="1165" 
d="M637 866q85 0 160 -26.5t133.5 -78t92.5 -134.5t34 -189q0 -201 -124.5 -329.5t-342.5 -128.5q-219 0 -345 132.5t-126 372.5q0 246 134 481.5t341 360.5h291q-165 -92 -317 -252t-206 -319q92 110 275 110zM590 147q124 0 199 77t75 202t-76.5 200.5t-197.5 75.5
q-118 0 -196.5 -77t-78.5 -199t76.5 -200.5t198.5 -78.5z" />
    <glyph glyph-name="seven" unicode="7" horiz-adv-x="1138" 
d="M342 0q22 314 137 635t279 526h-625v166h957v-18q-140 -134 -258.5 -351t-194 -467.5t-94.5 -490.5h-201z" />
    <glyph glyph-name="eight" unicode="8" horiz-adv-x="1177" 
d="M590 -20q-202 0 -319 107t-117 282q0 119 54 205.5t142 119.5q-70 29 -117 101.5t-47 183.5q0 168 111 268.5t291 100.5q178 0 290.5 -100t112.5 -269q0 -109 -48 -180.5t-120 -100.5q91 -31 146 -114t55 -215q0 -173 -116.5 -281t-317.5 -108zM588 768q93 0 151 55.5
t58 149.5q0 92 -57.5 149.5t-151.5 57.5q-91 0 -150 -59t-59 -148q0 -94 57 -149.5t152 -55.5zM590 152q107 0 173 63t66 164q0 104 -65.5 165.5t-173.5 61.5q-107 0 -174.5 -62.5t-67.5 -164.5q0 -103 65 -165t177 -62z" />
    <glyph glyph-name="nine" unicode="9" horiz-adv-x="1159" 
d="M571 1348q224 0 347.5 -130t123.5 -378q0 -238 -123.5 -459t-345.5 -381h-274q427 311 524 594q-93 -119 -280 -119q-196 0 -315 117t-119 305q0 196 122.5 323.5t339.5 127.5zM571 641q122 0 196.5 73t74.5 197q0 122 -75 196.5t-194 74.5q-122 0 -196 -74t-74 -201
q0 -124 74.5 -195t193.5 -71z" />
    <glyph glyph-name="colon" unicode=":" horiz-adv-x="530" 
d="M266 616q-54 0 -87.5 34.5t-33.5 88.5q0 52 35 86.5t86 34.5q52 0 85.5 -34.5t33.5 -88.5q0 -53 -33.5 -87t-85.5 -34zM266 -18q-54 0 -87.5 34t-33.5 88q0 52 35 86.5t86 34.5q52 0 85.5 -34.5t33.5 -88.5q0 -53 -33.5 -86.5t-85.5 -33.5z" />
    <glyph glyph-name="semicolon" unicode=";" horiz-adv-x="509" 
d="M264 616q-54 0 -87.5 34.5t-33.5 88.5q0 52 35 86.5t86 34.5q52 0 85.5 -34.5t33.5 -88.5q0 -53 -33.5 -87t-85.5 -34zM254 225q65 0 104 -44t39 -128q0 -83 -45 -168t-121 -141h-120q56 52 90 117.5t45 120.5q-55 0 -89 32.5t-34 85.5q0 57 36 91t95 34z" />
    <glyph glyph-name="less" unicode="&#x3c;" 
d="M1036 8l-852 445v20l852 445v-181l-551 -270l551 -272v-187z" />
    <glyph glyph-name="equal" unicode="=" 
d="M186 567v152h852v-152h-852zM186 207v151h852v-151h-852z" />
    <glyph glyph-name="greater" unicode="&#x3e;" 
d="M184 8v180l551 271l-551 272v187l852 -445v-20z" />
    <glyph glyph-name="question" unicode="?" horiz-adv-x="909" 
d="M297 383v332q148 2 239 64.5t91 187.5q0 104 -70.5 159.5t-183.5 55.5q-96 0 -181.5 -36.5t-119.5 -72.5v191q40 30 124.5 57t194.5 27q195 0 310.5 -99t115.5 -276q0 -85 -28 -154.5t-76 -114t-107 -70.5t-125 -32v-219h-184zM387 -18q-52 0 -85.5 34.5t-33.5 85.5
q0 55 34.5 89t86.5 34t85.5 -34.5t33.5 -88.5t-34 -87t-87 -33z" />
    <glyph glyph-name="at" unicode="@" horiz-adv-x="2043" 
d="M1049 -424q-277 0 -488.5 105.5t-331.5 310.5t-120 483q0 212 74 386.5t202.5 289t300.5 176.5t371 62q144 0 274.5 -33t240.5 -100t191 -161.5t126.5 -224.5t45.5 -282q0 -256 -119 -398.5t-315 -142.5q-101 0 -167.5 40.5t-90.5 107.5q-40 -73 -119 -110.5t-166 -37.5
q-157 0 -255.5 107.5t-98.5 285.5q0 118 43.5 216.5t134.5 161.5t213 63q192 0 269 -150l16 125h150l-39 -350q-17 -145 -17 -178q0 -65 32 -100t110 -35q117 0 181 94t64 264q0 136 -38.5 250t-105 193.5t-157 135t-193 81.5t-214.5 26q-219 0 -392.5 -92t-274.5 -267.5
t-101 -406.5q0 -233 99 -402t271 -254t398 -85q134 0 274.5 34t225 70t141.5 72v-170q-18 -13 -71.5 -36.5t-137.5 -53t-202 -50t-234 -20.5zM983 197q111 0 174.5 84t63.5 211q0 110 -51.5 175.5t-151.5 65.5q-112 0 -177 -83t-65 -212q0 -114 55.5 -177.5t151.5 -63.5z
" />
    <glyph glyph-name="A" unicode="A" horiz-adv-x="1320" 
d="M47 0l604 1348h21l602 -1348h-205l-113 262h-598l-112 -262h-199zM424 422h471l-236 547z" />
    <glyph glyph-name="B" unicode="B" horiz-adv-x="1208" 
d="M860 702q39 -8 73.5 -22t69 -40t58.5 -61t39.5 -88t15.5 -118q0 -94 -35 -164.5t-86.5 -109t-125 -62t-136.5 -30.5t-135 -7h-426v1327h332q62 0 112 -3t107.5 -12t100.5 -24.5t84.5 -42.5t68.5 -64t43 -90t16 -120q0 -112 -50.5 -179t-125.5 -90zM842 961q0 47 -13 82.5
t-39 57.5t-54.5 36t-72 20t-77.5 8t-84 2h-137v-413h139q48 0 82.5 2t77 8.5t71.5 20.5t55 36t39 57.5t13 82.5zM596 164q57 0 102.5 5.5t88 20.5t71 38.5t45.5 62.5t17 90q0 64 -24 108t-70 66.5t-98.5 31.5t-123.5 9h-239v-432h231z" />
    <glyph glyph-name="C" unicode="C" horiz-adv-x="1298" 
d="M782 -20q-210 0 -364 88.5t-231.5 241.5t-77.5 352q0 200 78.5 354.5t231 243t357.5 88.5q123 0 226 -29.5t151 -67.5v-192q-165 112 -367 112q-221 0 -352 -138t-131 -367q0 -158 65 -274.5t177 -175t256 -58.5q207 0 373 110v-194q-48 -36 -156 -65t-236 -29z" />
    <glyph glyph-name="D" unicode="D" horiz-adv-x="1388" 
d="M430 1327q73 0 133.5 -3t132.5 -11.5t130.5 -23t120 -39.5t109.5 -59t91 -83t71.5 -110t45 -141.5t16.5 -176.5q0 -121 -27 -220.5t-72 -169t-111.5 -122t-137.5 -84t-158.5 -51t-166 -26.5t-167.5 -7h-268v1327h258zM424 164q117 0 210 13t179.5 48t144.5 91.5
t92.5 148.5t34.5 215q0 89 -18 160.5t-49 122t-79.5 87t-101 58.5t-122.5 35t-136 17.5t-149 4.5h-65v-1001h59z" />
    <glyph glyph-name="E" unicode="E" horiz-adv-x="1050" 
d="M172 0v1327h784v-164h-591v-405h432v-162h-432v-430h616v-166h-809z" />
    <glyph glyph-name="F" unicode="F" horiz-adv-x="1021" 
d="M172 0v1327h791v-164h-598v-432h442v-162h-442v-569h-193z" />
    <glyph glyph-name="G" unicode="G" horiz-adv-x="1454" 
d="M778 -20q-160 0 -288 51.5t-210.5 144t-126.5 217t-44 271.5q0 211 86 367t238.5 236.5t352.5 80.5q82 0 161 -14t134 -35t86 -36t45 -24v-192q-73 49 -183 86.5t-228 37.5q-105 0 -195.5 -33t-158 -95t-106 -158.5t-38.5 -216.5q0 -226 129 -368t346 -142
q186 0 287.5 100.5t110.5 290.5h-414v164h606v-60q0 -64 -5.5 -122.5t-21.5 -128.5t-42.5 -128t-72 -114t-105.5 -94.5t-148 -62t-195 -23.5z" />
    <glyph glyph-name="H" unicode="H" horiz-adv-x="1429" 
d="M172 0v1327h193v-569h700v569h192v-1327h-192v592h-700v-592h-193z" />
    <glyph glyph-name="I" unicode="I" horiz-adv-x="536" 
d="M172 0v1327h193v-1327h-193z" />
    <glyph glyph-name="J" unicode="J" horiz-adv-x="956" 
d="M377 -20q-78 0 -150 13t-110 32v180q88 -53 225 -53q83 0 136.5 21.5t82 69t39 108t10.5 153.5v661h-331v162h524v-876q0 -241 -101.5 -356t-324.5 -115z" />
    <glyph glyph-name="K" unicode="K" horiz-adv-x="1292" 
d="M172 0v1327h193v-639l624 639h250l-647 -651l663 -676h-260l-630 655v-655h-193z" />
    <glyph glyph-name="L" unicode="L" horiz-adv-x="1075" 
d="M172 0v1327h193v-1161h636v-166h-829z" />
    <glyph glyph-name="M" unicode="M" horiz-adv-x="1732" 
d="M856 -20l-401 849l-152 -829h-192l264 1348h20l471 -994l473 994h21l262 -1348h-188l-154 829l-403 -849h-21z" />
    <glyph glyph-name="N" unicode="N" horiz-adv-x="1447" 
d="M1255 -20l-897 948v-928h-186v1348h21l897 -951v930h186v-1347h-21z" />
    <glyph glyph-name="O" unicode="O" horiz-adv-x="1544" 
d="M768 -20q-153 0 -278.5 52.5t-208 144.5t-127.5 217t-45 270q0 197 78.5 351t231.5 243.5t357 89.5q153 0 278.5 -51.5t208.5 -142t128 -214.5t45 -268q0 -197 -78 -352.5t-231 -247.5t-359 -92zM774 158q209 0 338 142.5t129 367.5q0 223 -130 363t-339 140
q-206 0 -337.5 -140.5t-131.5 -362.5t130.5 -366t340.5 -144z" />
    <glyph glyph-name="P" unicode="P" horiz-adv-x="1191" 
d="M561 1327q97 0 173 -10t149.5 -38t121.5 -74.5t77.5 -124t29.5 -181.5q0 -82 -19.5 -148.5t-50 -111t-78 -77.5t-94.5 -51.5t-107.5 -29t-109 -13.5t-108.5 -3h-180v-465h-193v1327h389zM537 627q63 0 113.5 5.5t102.5 23t86.5 46.5t56.5 78.5t22 116.5q0 57 -14 101
t-41.5 72.5t-61 48t-79.5 29t-88.5 13.5t-96.5 4h-172v-538h172z" />
    <glyph glyph-name="Q" unicode="Q" horiz-adv-x="1544" 
d="M1511 66l-102 -127l-221 178q-170 -137 -420 -137q-153 0 -278.5 52.5t-208 144.5t-127.5 217t-45 270q0 197 78.5 351t231.5 243.5t357 89.5q153 0 278.5 -51.5t208.5 -142t128 -214.5t45 -268q0 -265 -133 -441zM1153 350q88 136 88 318q0 223 -130 363t-339 140
q-206 0 -337.5 -140.5t-131.5 -362.5t130.5 -366t340.5 -144q152 0 268 75l-215 173l103 126z" />
    <glyph glyph-name="R" unicode="R" horiz-adv-x="1222" 
d="M821 516l340 -516h-229l-307 487h-260v-487h-193v1327h406q89 0 162.5 -11.5t141.5 -40.5t114.5 -75t74 -120t27.5 -171q0 -163 -78 -261t-199 -132zM559 647q56 0 101.5 6t92.5 23t78.5 45t51.5 75.5t20 110.5q0 64 -21 111.5t-54 75t-81.5 44t-93.5 22t-100 5.5h-188
v-518h194z" />
    <glyph glyph-name="S" unicode="S" horiz-adv-x="1013" 
d="M481 -20q-200 0 -350 79v195q67 -44 158 -74t188 -30q118 0 181 49t63 147q0 53 -25 95t-65.5 69t-93 53.5t-106.5 48.5t-106.5 55t-93 72t-65.5 100.5t-25 139.5q0 171 109.5 270t300.5 99q90 0 175.5 -20.5t133.5 -45.5v-197q-65 41 -144 68t-153 27
q-104 0 -165.5 -49.5t-61.5 -139.5q0 -51 25 -91.5t66 -66t93 -51t107 -47t107 -55t93 -73t66 -103.5t25 -144q0 -187 -115 -283.5t-322 -96.5z" />
    <glyph glyph-name="T" unicode="T" horiz-adv-x="1130" 
d="M469 0v1163h-387v164h967v-164h-387v-1163h-193z" />
    <glyph glyph-name="U" unicode="U" horiz-adv-x="1343" 
d="M672 -20q-263 0 -389.5 135.5t-126.5 419.5v792h190v-752q0 -214 73.5 -317.5t252.5 -103.5q175 0 250 102.5t75 318.5v752h191v-790q0 -291 -129 -424t-387 -133z" />
    <glyph glyph-name="V" unicode="V" horiz-adv-x="1351" 
d="M666 -18l-619 1345h211l420 -952l420 952h207l-619 -1345h-20z" />
    <glyph glyph-name="W" unicode="W" horiz-adv-x="1968" 
d="M594 -18l-531 1345h211l338 -907l363 907h20l363 -907l342 907h205l-529 -1345h-20l-371 923l-371 -923h-20z" />
    <glyph glyph-name="X" unicode="X" horiz-adv-x="1245" 
d="M47 0l457 678l-441 649h228l332 -512l338 512h221l-443 -649l459 -678h-227l-348 539l-357 -539h-219z" />
    <glyph glyph-name="Y" unicode="Y" horiz-adv-x="1232" 
d="M518 0v526l-471 801h211l360 -633l363 633h205l-475 -801v-526h-193z" />
    <glyph glyph-name="Z" unicode="Z" horiz-adv-x="1212" 
d="M96 0v20l717 1143h-680v164h983v-20l-715 -1141h719v-166h-1024z" />
    <glyph glyph-name="bracketleft" unicode="[" horiz-adv-x="649" 
d="M172 -406v1733h430v-158h-246v-1417h246v-158h-430z" />
    <glyph glyph-name="backslash" unicode="\" horiz-adv-x="792" 
d="M602 -406l-579 1733h190l580 -1733h-191z" />
    <glyph glyph-name="bracketright" unicode="]" horiz-adv-x="649" 
d="M47 -406v158h246v1417h-246v158h430v-1733h-430z" />
    <glyph glyph-name="asciicircum" unicode="^" 
d="M172 672l428 676h21l430 -676h-201l-240 395l-237 -395h-201z" />
    <glyph glyph-name="underscore" unicode="_" horiz-adv-x="802" 
d="M0 -348v149h803v-149h-803z" />
    <glyph glyph-name="grave" unicode="`" horiz-adv-x="1052" 
d="M608 1065l-303 336h246l240 -336h-183z" />
    <glyph glyph-name="a" unicode="a" horiz-adv-x="1015" 
d="M500 938q200 0 292.5 -96.5t92.5 -286.5v-555h-168l-2 109q-87 -127 -291 -127q-157 0 -249.5 80.5t-92.5 213.5q0 145 102 226.5t285 81.5q128 0 231 -49v24q0 227 -233 227q-84 0 -162 -27t-127 -57v164q141 72 322 72zM467 115q112 0 172.5 66.5t60.5 189.5v30
q-84 52 -217 52q-98 0 -153.5 -43.5t-55.5 -124.5q0 -79 52.5 -124.5t140.5 -45.5z" />
    <glyph glyph-name="b" unicode="b" horiz-adv-x="1187" 
d="M651 -18q-116 0 -203 44.5t-131 114.5l-4 -141h-168v1358h185v-572q104 152 321 152q207 0 331 -129.5t124 -343.5q0 -219 -126.5 -351t-328.5 -132zM618 141q134 0 215.5 88.5t81.5 233.5t-82.5 231t-214.5 86q-139 0 -217.5 -92.5t-78.5 -230.5q0 -141 81.5 -228.5
t214.5 -87.5z" />
    <glyph glyph-name="c" unicode="c" horiz-adv-x="909" 
d="M563 -18q-100 0 -186.5 29.5t-152.5 86.5t-104 147.5t-38 205.5q0 221 131.5 354t353.5 133q141 0 242 -49v-174q-105 65 -227 65q-138 0 -223 -85.5t-85 -235.5t82.5 -234t225.5 -84q77 0 138.5 23t96.5 49v-176q-37 -22 -106 -38.5t-148 -16.5z" />
    <glyph glyph-name="d" unicode="d" horiz-adv-x="1189" 
d="M541 -18q-202 0 -330.5 128t-128.5 347q0 212 121 346.5t329 134.5q222 0 328 -145v565h184v-1358h-170l-2 143q-40 -73 -125.5 -117t-205.5 -44zM573 141q136 0 215.5 91t79.5 231t-80 228.5t-215 88.5q-141 0 -220 -93.5t-79 -227.5q0 -139 81 -228.5t218 -89.5z" />
    <glyph glyph-name="e" unicode="e" horiz-adv-x="1050" 
d="M578 -18q-236 0 -366 121.5t-130 347.5q0 220 120 353.5t333 133.5q210 0 322 -124.5t112 -328.5q0 -51 -6 -92h-689q10 -128 96 -191t238 -63q183 0 320 82v-164q-51 -28 -144 -51.5t-206 -23.5zM276 526h504q3 119 -65.5 188.5t-179.5 69.5q-109 0 -180.5 -70.5
t-78.5 -187.5z" />
    <glyph glyph-name="f" unicode="f" horiz-adv-x="727" 
d="M221 0v770h-158v150h158v84q0 192 84 287t266 95q111 0 181 -32v-162q-78 35 -160 35q-103 0 -144.5 -56.5t-41.5 -177.5v-73h253v-150h-253v-770h-185z" />
    <glyph glyph-name="g" unicode="g" horiz-adv-x="1187" 
d="M549 -424q-174 0 -273 39v166q132 -47 269 -47q313 0 313 362v58q-41 -68 -123.5 -111t-197.5 -43q-210 0 -332.5 131t-122.5 336q0 209 125 340t330 131q113 0 199 -43t134 -115l2 140h170v-824q0 -270 -119 -395t-374 -125zM569 164q129 0 209 87t80 222
q0 140 -81 223.5t-212 83.5q-130 0 -210.5 -85.5t-80.5 -223.5q0 -139 80.5 -223t214.5 -84z" />
    <glyph glyph-name="h" unicode="h" horiz-adv-x="1101" 
d="M145 0v1358h185v-545q89 125 288 125q353 0 353 -397v-541h-185v506q0 46 -4 82t-17.5 74t-35.5 62.5t-60.5 40t-90.5 15.5q-134 0 -191 -90.5t-57 -259.5v-430h-185z" />
    <glyph glyph-name="i" unicode="i" horiz-adv-x="503" 
d="M266 1137q-50 0 -81 30.5t-31 79.5t32.5 80t79.5 31q48 0 79.5 -31t31.5 -80q0 -50 -32 -80t-79 -30zM174 0v770h-129v150h313v-920h-184z" />
    <glyph glyph-name="j" unicode="j" horiz-adv-x="503" 
d="M266 1137q-50 0 -81 30.5t-31 79.5t32.5 80t79.5 31q48 0 79.5 -31t31.5 -80q0 -50 -32 -80t-79 -30zM2 -424q-87 0 -164 25v157q60 -26 135 -26q110 0 155.5 67t45.5 199v772h-129v150h313v-912q0 -217 -84.5 -324.5t-271.5 -107.5z" />
    <glyph glyph-name="k" unicode="k" horiz-adv-x="1015" 
d="M145 0v1358h185v-852l403 414h238l-432 -426l454 -494h-241l-422 475v-475h-185z" />
    <glyph glyph-name="l" unicode="l" horiz-adv-x="475" 
d="M145 0v1358h185v-1358h-185z" />
    <glyph glyph-name="m" unicode="m" horiz-adv-x="1648" 
d="M145 0v920h168l4 -123q39 65 112.5 103t166.5 38q100 0 173.5 -41t109.5 -119q43 76 123 118t180 42q165 0 250.5 -96t85.5 -285v-557h-185v545q0 49 -7.5 87t-26 73.5t-57 55t-95.5 19.5q-52 0 -91.5 -18t-64 -48t-40 -75t-21.5 -94.5t-6 -110.5v-434h-185v545
q0 49 -7.5 87t-26 73.5t-57 55t-95.5 19.5q-52 0 -91.5 -18t-64 -48t-40 -75t-21.5 -94.5t-6 -110.5v-434h-185z" />
    <glyph glyph-name="n" unicode="n" horiz-adv-x="1101" 
d="M145 0v920h168l4 -127q81 145 301 145q353 0 353 -397v-541h-185v506q0 47 -4.5 83.5t-18 74t-36 61.5t-62 39.5t-92.5 15.5q-131 0 -187 -91t-56 -259v-430h-185z" />
    <glyph glyph-name="o" unicode="o" horiz-adv-x="1142" 
d="M569 -18q-222 0 -354.5 131t-132.5 344q0 211 133.5 346t357.5 135q221 0 353.5 -125.5t132.5 -343.5q0 -220 -135.5 -353.5t-354.5 -133.5zM571 141q132 0 214.5 89t82.5 235q0 143 -83 229t-214 86q-137 0 -217 -92t-80 -229q0 -142 82.5 -230t214.5 -88z" />
    <glyph glyph-name="p" unicode="p" horiz-adv-x="1187" 
d="M145 -406v1326h168l4 -146q106 164 334 164q208 0 331.5 -130t123.5 -341q0 -221 -125.5 -353t-327.5 -132q-106 0 -191 38.5t-132 102.5v-529h-185zM618 141q134 0 215.5 88.5t81.5 233.5t-82.5 231t-214.5 86q-139 0 -217.5 -92.5t-78.5 -228.5q0 -143 81.5 -230.5
t214.5 -87.5z" />
    <glyph glyph-name="q" unicode="q" horiz-adv-x="1189" 
d="M860 -424v553q-44 -66 -127 -106.5t-194 -40.5q-198 0 -327.5 127.5t-129.5 347.5q0 138 53.5 246.5t158 171.5t243.5 63q117 0 202.5 -43.5t130.5 -116.5l4 142h170v-1260zM573 141q136 0 215.5 91t79.5 231t-80 228.5t-215 88.5q-141 0 -220 -93.5t-79 -227.5
q0 -139 81 -228.5t218 -89.5z" />
    <glyph glyph-name="r" unicode="r" horiz-adv-x="679" 
d="M145 0v920h168l4 -134q39 69 116 110.5t169 41.5q31 0 49 -6v-168q-32 16 -82 16q-66 0 -113 -24.5t-74 -72t-39.5 -109.5t-12.5 -144v-430h-185z" />
    <glyph glyph-name="s" unicode="s" horiz-adv-x="780" 
d="M365 -18q-79 0 -151 16t-108 37v158q127 -68 246 -68q79 0 123.5 33.5t44.5 97.5q0 43 -22.5 73t-58 48t-78.5 33.5t-86.5 35.5t-79 47t-58 74.5t-22.5 112.5q0 128 82 193t223 65q126 0 215 -43v-158q-97 58 -205 58q-71 0 -107 -30t-36 -77q0 -37 22.5 -63t58.5 -42
t80 -31t87.5 -36t79.5 -49.5t58.5 -79.5t22.5 -119q0 -143 -91 -214.5t-240 -71.5z" />
    <glyph glyph-name="t" unicode="t" horiz-adv-x="774" 
d="M496 -18q-158 0 -227.5 79.5t-69.5 235.5v473h-150v21q72 64 168 179.5t145 200.5h21v-251h262v-150h-262v-444q0 -96 31 -142.5t121 -46.5q66 0 151 33v-156q-74 -32 -190 -32z" />
    <glyph glyph-name="u" unicode="u" horiz-adv-x="1046" 
d="M522 -18q-90 0 -159.5 23.5t-112.5 61.5t-70.5 92.5t-38 111.5t-10.5 124v525h184v-523q0 -260 209 -260q211 0 211 260v523h180v-525q0 -65 -10 -120.5t-37.5 -111t-70 -94.5t-113 -63t-162.5 -24z" />
    <glyph glyph-name="v" unicode="v" horiz-adv-x="1009" 
d="M496 -18l-465 938h202l273 -603l276 603h197l-463 -938h-20z" />
    <glyph glyph-name="w" unicode="w" horiz-adv-x="1468" 
d="M461 -18l-416 938h203l229 -566l252 566h21l247 -566l230 566h196l-407 -938h-21l-256 581l-258 -581h-20z" />
    <glyph glyph-name="x" unicode="x" horiz-adv-x="1050" 
d="M37 0l375 459l-365 461h225l254 -340l258 340h222l-367 -461l375 -459h-226l-264 332l-266 -332h-221z" />
    <glyph glyph-name="y" unicode="y" horiz-adv-x="1013" 
d="M207 -406l203 457l-379 869h202l273 -664l278 664h199l-577 -1326h-199z" />
    <glyph glyph-name="z" unicode="z" horiz-adv-x="960" 
d="M76 0v20l518 750h-483v150h774v-21l-518 -747h526v-152h-817z" />
    <glyph glyph-name="braceleft" unicode="{" horiz-adv-x="786" 
d="M537 -424q-180 0 -276.5 88t-96.5 238q0 54 14.5 104.5t35 88t40.5 73t34.5 74t14.5 75.5q0 71 -43 114.5t-117 49.5v35q72 5 116 43t44 105q0 36 -14.5 71.5t-34.5 68t-40.5 68.5t-35 85t-14.5 104q0 150 96.5 239t276.5 89q124 0 202 -37v-150q-75 43 -182 43
q-100 0 -154.5 -52.5t-54.5 -145.5q0 -51 21.5 -102.5t47 -88t47 -86.5t21.5 -98q0 -81 -46 -121.5t-105 -50.5q54 -10 102.5 -58.5t48.5 -132.5q0 -50 -21.5 -103t-47 -92t-47 -93t-21.5 -105q0 -94 55.5 -144.5t153.5 -50.5q104 0 182 43v-151q-84 -37 -202 -37z" />
    <glyph glyph-name="bar" unicode="|" horiz-adv-x="512" 
d="M162 -406v1733h188v-1733h-188z" />
    <glyph glyph-name="braceright" unicode="}" horiz-adv-x="786" 
d="M252 -424q-118 0 -205 37v151q78 -43 182 -43q98 0 153.5 50.5t55.5 144.5q0 51 -21.5 105.5t-47 94t-47 92.5t-21.5 101q0 84 48.5 132.5t103.5 58.5q-59 10 -105.5 50.5t-46.5 121.5q0 47 21.5 97t47 86.5t47 88.5t21.5 103q0 93 -54.5 145.5t-154.5 52.5
q-107 0 -182 -43v150q81 37 205 37q179 0 275 -89t96 -239q0 -55 -14 -104.5t-34.5 -85.5t-41 -69t-34.5 -68t-14 -70q0 -67 43 -105t115 -43v-35q-73 -6 -115.5 -49.5t-42.5 -114.5q0 -44 21.5 -93.5t47.5 -89.5t47.5 -103t21.5 -129q0 -150 -96 -238t-275 -88z" />
    <glyph glyph-name="asciitilde" unicode="~" 
d="M793 334q-69 0 -137 28t-126.5 56t-103.5 28q-49 0 -73.5 -28t-26.5 -70h-140q2 111 64.5 177.5t177.5 66.5q54 0 107 -17.5t88 -39t81 -39t89 -17.5q51 0 77 29t29 70h139q-2 -111 -65 -177.5t-180 -66.5z" />
    <glyph glyph-name="uni00A0" unicode="&#xa0;" horiz-adv-x="430" 
 />
    <glyph glyph-name="exclamdown" unicode="&#xa1;" horiz-adv-x="585" 
d="M293 694q-51 0 -86 34t-35 87q0 54 33.5 88.5t87.5 34.5q52 0 86.5 -34t34.5 -87q0 -55 -34 -89t-87 -34zM195 -406l8 945h180l8 -945h-196z" />
    <glyph glyph-name="cent" unicode="&#xa2;" horiz-adv-x="974" 
d="M559 0v184q-93 5 -172 37t-140 89t-95.5 145t-34.5 198q0 211 120 343.5t322 142.5v188h105v-186q124 -5 215 -49v-174q-107 64 -215 69v-647q70 4 130 28t93 48v-174q-30 -20 -91 -36.5t-132 -19.5v-186h-105zM559 342v647q-106 -12 -179 -102.5t-73 -224.5
q0 -130 66 -219t186 -101z" />
    <glyph glyph-name="sterling" unicode="&#xa3;" horiz-adv-x="1032" 
d="M100 0v18q133 147 194.5 260t61.5 207q0 49 -16 86h-219v160h137q-68 99 -68 223q0 176 116 285t315 109q91 0 168.5 -24t125.5 -58v-189q-36 36 -111 69.5t-165 33.5q-121 0 -187.5 -65.5t-66.5 -174.5q0 -101 84 -209h332v-160h-271q17 -43 17 -86q0 -163 -135 -319
h534v-166h-846z" />
    <glyph glyph-name="currency" unicode="&#xa4;" 
d="M305 219l-123 123l131 133q-49 77 -49 174q0 94 51 176l-133 131l123 125l133 -133q81 49 174 49q96 0 172 -51l136 135l120 -125l-133 -133q51 -79 51 -174q0 -93 -49 -174l131 -133l-122 -123l-134 131q-81 -49 -172 -49q-93 0 -172 47zM612 436q92 0 152.5 57.5
t60.5 153.5t-61.5 155.5t-151.5 59.5q-92 0 -152.5 -59.5t-60.5 -155.5q0 -94 60.5 -152.5t152.5 -58.5z" />
    <glyph glyph-name="yen" unicode="&#xa5;" horiz-adv-x="1085" 
d="M446 0v365h-294v145h303l-74 139h-258v146h174l-279 532h213l314 -651l315 651h205l-279 -532h172v-146h-258l-73 -139h303v-145h-297v-365h-187z" />
    <glyph glyph-name="brokenbar" unicode="&#xa6;" horiz-adv-x="512" 
d="M162 649v678h188v-678h-188zM162 -406v678h188v-678h-188z" />
    <glyph glyph-name="section" unicode="&#xa7;" horiz-adv-x="894" 
d="M420 -426q-164 0 -287 51v160q146 -66 277 -66q113 0 166 46t53 137q0 48 -30 86t-77.5 64.5t-105.5 52t-115.5 55.5t-105 67.5t-77.5 96.5t-30 133q0 106 55.5 177t135.5 103q-158 89 -158 262q0 91 30.5 159.5t84.5 109t121.5 60.5t146.5 20q119 0 229 -41v-158
q-108 55 -221 55q-101 0 -161 -50t-60 -138q0 -53 30 -94.5t78.5 -69.5t106.5 -53.5t116.5 -55t107 -65.5t78.5 -93t30 -130q0 -109 -58.5 -181.5t-138.5 -105.5q162 -80 162 -252q0 -71 -20 -130t-62.5 -108t-119.5 -76.5t-181 -27.5zM502 233q70 21 119 69.5t49 129.5
q0 35 -13 65t-31.5 51t-57.5 45t-70 39.5t-90 41.5q-54 -13 -103 -64.5t-49 -132.5q0 -36 11.5 -66t29 -52t51.5 -45t67 -39.5t87 -41.5z" />
    <glyph glyph-name="dieresis" unicode="&#xa8;" horiz-adv-x="1038" 
d="M336 1137q-50 0 -81.5 30.5t-31.5 79.5q0 48 33 79.5t80 31.5q48 0 79 -31t31 -80q0 -50 -31.5 -80t-78.5 -30zM735 1137q-49 0 -79.5 30.5t-30.5 79.5t31.5 80t78.5 31q48 0 79.5 -31t31.5 -80q0 -50 -32 -80t-79 -30z" />
    <glyph glyph-name="copyright" unicode="&#xa9;" horiz-adv-x="1576" 
d="M786 -20q-139 0 -264 52t-215.5 142t-144 217.5t-53.5 272.5q0 197 91 354.5t245 243.5t341 86q139 0 264.5 -50.5t217.5 -139.5t146 -217.5t54 -276.5q0 -144 -54 -272t-146 -218t-217.5 -142t-264.5 -52zM788 109q232 0 381.5 156.5t149.5 400.5q0 248 -148 400.5
t-383 152.5q-232 0 -381 -153t-149 -400q0 -244 149 -400.5t381 -156.5zM811 326q-68 0 -128.5 20.5t-109 59.5t-76.5 104t-28 147q0 157 95 253t253 96q97 0 174 -35v-127q-91 47 -164 47q-97 0 -158 -61t-61 -166q0 -101 58.5 -160.5t158.5 -59.5q90 0 172 50v-127
q-72 -41 -186 -41z" />
    <glyph glyph-name="ordfeminine" unicode="&#xaa;" horiz-adv-x="761" 
d="M330 649q-109 0 -178.5 58t-69.5 161q0 107 76 164.5t198 57.5q94 0 170 -35v16q0 79 -36 119.5t-128 40.5q-103 0 -212 -49v116q104 50 237 50q151 0 214 -69t63 -208v-407h-113l-4 75q-72 -90 -217 -90zM375 991q-68 0 -107 -30t-39 -89q0 -57 35 -86.5t101 -29.5
q161 0 161 176v22q-72 37 -151 37zM92 547h578v-123h-578v123z" />
    <glyph glyph-name="guillemotleft" unicode="&#xab;" horiz-adv-x="1173" 
d="M369 152l-287 321l287 322h215l-295 -322l295 -321h-215zM813 152l-287 321l287 322h215l-295 -322l295 -321h-215z" />
    <glyph glyph-name="logicalnot" unicode="&#xac;" 
d="M870 205v364h-684v150h852v-514h-168z" />
    <glyph glyph-name="uni00AD" unicode="&#xad;" horiz-adv-x="559" 
d="M82 424v149h393v-149h-393z" />
    <glyph glyph-name="registered" unicode="&#xae;" horiz-adv-x="1576" 
d="M786 -20q-139 0 -264 52t-215.5 142t-144 217.5t-53.5 272.5q0 197 91 354.5t245 243.5t341 86q139 0 264.5 -50.5t217.5 -139.5t146 -217.5t54 -276.5q0 -144 -54 -272t-146 -218t-217.5 -142t-264.5 -52zM788 109q232 0 381.5 156.5t149.5 400.5q0 248 -148 400.5
t-383 152.5q-232 0 -381 -153t-149 -400q0 -244 149 -400.5t381 -156.5zM559 334v663h229q45 0 79.5 -4t69.5 -17t57 -35t36 -59.5t14 -88.5q0 -161 -133 -193l160 -266h-147l-144 254h-92v-254h-129zM688 684h64q94 0 128.5 19t34.5 90q0 65 -35.5 85.5t-121.5 20.5h-70
v-215z" />
    <glyph glyph-name="macron" unicode="&#xaf;" horiz-adv-x="1040" 
d="M238 1161v152h600v-152h-600z" />
    <glyph glyph-name="degree" unicode="&#xb0;" horiz-adv-x="1095" 
d="M549 836q-110 0 -184 71.5t-74 184.5q0 111 74 183.5t184 72.5t184 -72.5t74 -183.5q0 -113 -74 -184.5t-184 -71.5zM549 942q62 0 103.5 40.5t41.5 109.5q0 67 -41.5 108t-103.5 41t-104 -40.5t-42 -108.5q0 -69 41.5 -109.5t104.5 -40.5z" />
    <glyph glyph-name="plusminus" unicode="&#xb1;" 
d="M528 242v352h-342v149h342v351h166v-351h344v-149h-344v-352h-166zM186 0v152h852v-152h-852z" />
    <glyph glyph-name="uni00B2" unicode="&#xb2;" horiz-adv-x="770" 
d="M113 539v12l245 323q59 76 85 124t26 94q0 60 -35 94.5t-98 34.5q-92 0 -193 -80v141q84 66 209 66q127 0 194.5 -66.5t67.5 -179.5q0 -72 -29.5 -132t-109.5 -163l-115 -143h271v-125h-518z" />
    <glyph glyph-name="uni00B3" unicode="&#xb3;" horiz-adv-x="770" 
d="M350 518q-68 0 -125.5 13t-85.5 32v146q87 -60 197 -60q162 0 162 133q0 64 -38.5 98.5t-113.5 34.5q-68 0 -115 -30l-10 10l201 307h-277v125h492v-14l-203 -309q35 2 69.5 -9t67.5 -35t53.5 -70.5t20.5 -109.5q0 -129 -81 -195.5t-214 -66.5z" />
    <glyph glyph-name="acute" unicode="&#xb4;" horiz-adv-x="1052" 
d="M305 1065l240 336h246l-304 -336h-182z" />
    <glyph glyph-name="uni00B5" unicode="&#xb5;" horiz-adv-x="1097" 
d="M770 920h184v-920h-170l-4 131q-40 -67 -110 -99t-150 -32q-129 0 -194 68v-474h-181v1326h185v-496q0 -58 8.5 -102.5t29.5 -85.5t63 -62.5t104 -21.5q86 0 139.5 45t74.5 119.5t21 183.5v420z" />
    <glyph glyph-name="paragraph" unicode="&#xb6;" horiz-adv-x="1447" 
d="M616 -424q-85 0 -137 23v145q35 -14 78 -14q51 0 69.5 26t18.5 84v625h-20q-65 0 -116 3.5t-110 14t-103 29t-87 50.5t-70.5 76t-44 108.5t-16.5 144.5q0 68 12 124.5t31 98.5t50 75t62.5 55t75 38t81 24.5t87.5 13.5t86.5 6t85.5 1h737v-164h-206v-1569h-191v1569h-151
v-1356q0 -112 -51.5 -171.5t-170.5 -59.5z" />
    <glyph glyph-name="periodcentered" unicode="&#xb7;" horiz-adv-x="530" 
d="M266 352q-54 0 -87.5 34.5t-33.5 88.5q0 52 35 86.5t86 34.5q52 0 85.5 -34.5t33.5 -88.5q0 -53 -33.5 -87t-85.5 -34z" />
    <glyph glyph-name="cedilla" unicode="&#xb8;" horiz-adv-x="1060" 
d="M500 -424q-87 0 -135 25v104q56 -29 118 -29q103 0 103 80q0 41 -23 60.5t-61 19.5q-47 0 -86 -35l-21 13l66 225h114l-38 -127q12 6 30 6q69 -2 111.5 -41t42.5 -123q0 -93 -62 -135.5t-159 -42.5z" />
    <glyph glyph-name="uni00B9" unicode="&#xb9;" horiz-adv-x="770" 
d="M348 539v626l-201 -92v125l332 150h13v-809h-144z" />
    <glyph glyph-name="ordmasculine" unicode="&#xba;" horiz-adv-x="845" 
d="M420 649q-157 0 -247.5 94t-90.5 250q0 155 93 254t251 99q155 0 245.5 -92.5t90.5 -252.5q0 -161 -94 -256.5t-248 -95.5zM424 772q88 0 140 61t52 168t-52 165.5t-140 58.5q-93 0 -144 -62.5t-51 -165.5q0 -106 52.5 -165.5t142.5 -59.5zM133 424v123h578v-123h-578z
" />
    <glyph glyph-name="guillemotright" unicode="&#xbb;" horiz-adv-x="1173" 
d="M145 152l295 321l-295 322h213l287 -322l-287 -321h-213zM590 152l295 321l-295 322h213l287 -322l-287 -321h-213z" />
    <glyph glyph-name="onequarter" unicode="&#xbc;" horiz-adv-x="1822" 
d="M492 539h-144v626l-201 -92v125l332 150h13v-809zM1174 1327h190l-737 -1327h-191zM1675 242v-109h-112v-133h-138v133h-383v14l508 662h13v-567h112zM1425 473l-174 -231h174v231z" />
    <glyph glyph-name="onehalf" unicode="&#xbd;" horiz-adv-x="1822" 
d="M348 539v626l-201 -92v125l332 150h13v-809h-144zM434 0l737 1327h191l-737 -1327h-191zM1186 0v12l246 324q59 75 84.5 122.5t25.5 94.5q0 60 -35 94.5t-98 34.5q-91 0 -192 -80v141q84 66 208 66q127 0 195 -66.5t68 -179.5q0 -72 -29.5 -131.5t-110.5 -163.5
l-114 -143h270v-125h-518z" />
    <glyph glyph-name="threequarters" unicode="&#xbe;" horiz-adv-x="1822" 
d="M645 780q0 -129 -81 -195.5t-214 -66.5q-68 0 -125.5 13t-85.5 32v146q87 -60 197 -60q162 0 162 133q0 64 -38.5 98.5t-113.5 34.5q-68 0 -115 -30l-10 10l201 307h-277v125h492v-14l-203 -309q35 2 69.5 -9t67.5 -35t53.5 -70.5t20.5 -109.5zM1174 1327h190l-737 -1327
h-191zM1675 242v-109h-112v-133h-138v133h-383v14l508 662h13v-567h112zM1425 473l-174 -231h174v231z" />
    <glyph glyph-name="questiondown" unicode="&#xbf;" horiz-adv-x="909" 
d="M520 694q-53 0 -87 34t-34 89q0 53 34.5 87t86.5 34q53 0 87 -34.5t34 -86.5q0 -54 -35 -88.5t-86 -34.5zM518 -426q-195 0 -311.5 99t-116.5 278q0 84 28.5 153t76.5 113t107.5 70t125.5 32v220h182v-332q-146 -2 -236.5 -64.5t-90.5 -185.5q0 -105 70.5 -161t183.5 -56
q95 0 180.5 36.5t120.5 71.5v-188q-41 -30 -125.5 -58t-194.5 -28z" />
    <glyph glyph-name="Agrave" unicode="&#xc0;" horiz-adv-x="1320" 
d="M618 1458l-301 336h244l240 -336h-183zM47 0l604 1348h21l602 -1348h-205l-113 262h-598l-112 -262h-199zM424 422h471l-236 547z" />
    <glyph glyph-name="Aacute" unicode="&#xc1;" horiz-adv-x="1320" 
d="M549 1458l239 336h246l-303 -336h-182zM47 0l604 1348h21l602 -1348h-205l-113 262h-598l-112 -262h-199zM424 422h471l-236 547z" />
    <glyph glyph-name="Acircumflex" unicode="&#xc2;" horiz-adv-x="1320" 
d="M311 1458l348 354l351 -354h-201l-150 162l-149 -162h-199zM47 0l604 1348h21l602 -1348h-205l-113 262h-598l-112 -262h-199zM424 422h471l-236 547z" />
    <glyph glyph-name="Atilde" unicode="&#xc3;" horiz-adv-x="1320" 
d="M809 1503q-45 0 -89 16.5t-73.5 37t-64.5 37t-64 16.5q-48 0 -68 -32.5t-20 -64.5h-121q0 97 53 164.5t148 67.5q58 0 114 -27.5t102 -54.5t79 -27q44 0 64 31.5t20 67.5h121q0 -94 -53 -163t-148 -69zM47 0l604 1348h21l602 -1348h-205l-113 262h-598l-112 -262h-199z
M424 422h471l-236 547z" />
    <glyph glyph-name="Adieresis" unicode="&#xc4;" horiz-adv-x="1320" 
d="M459 1499q-54 0 -88.5 35.5t-34.5 89.5t34.5 89.5t88.5 35.5t88.5 -35.5t34.5 -89.5t-34.5 -89.5t-88.5 -35.5zM860 1499q-54 0 -88.5 35.5t-34.5 89.5t34.5 89.5t88.5 35.5t88.5 -35.5t34.5 -89.5t-34.5 -89.5t-88.5 -35.5zM47 0l604 1348h21l602 -1348h-205l-113 262
h-598l-112 -262h-199zM424 422h471l-236 547z" />
    <glyph glyph-name="Aring" unicode="&#xc5;" horiz-adv-x="1320" 
d="M47 0l549 1243q-67 19 -109.5 74.5t-42.5 126.5q0 88 63 149.5t155 61.5t154.5 -61.5t62.5 -149.5q0 -71 -42.5 -126.5t-109.5 -74.5l547 -1243h-205l-113 262h-596l-114 -262h-199zM662 1333q45 0 76.5 31t31.5 80q0 46 -32 78t-76 32q-45 0 -76 -30.5t-31 -79.5t31 -80
t76 -31zM424 422h471l-236 553z" />
    <glyph glyph-name="AE" unicode="&#xc6;" horiz-adv-x="1832" 
d="M47 0l596 1327h610l74 -164h-573l182 -405h446l74 -162h-448l192 -430h576l75 -166h-782l-113 262h-598l-112 -262h-199zM426 422h469l-236 547z" />
    <glyph glyph-name="Ccedilla" unicode="&#xc7;" horiz-adv-x="1298" 
d="M782 -20h-4l-20 -68q12 6 30 6q69 -2 111.5 -41t42.5 -123q0 -93 -62 -135.5t-159 -42.5q-87 0 -135 25v104q56 -29 119 -29q102 0 102 80q0 41 -23 60.5t-61 19.5q-47 0 -86 -35l-21 13l52 174q-264 35 -411.5 218t-147.5 456q0 200 78.5 354.5t231 243t357.5 88.5
q123 0 226 -29.5t151 -67.5v-192q-165 112 -367 112q-221 0 -352 -138t-131 -367q0 -158 65 -274.5t177 -175t256 -58.5q207 0 373 110v-194q-48 -36 -156 -65t-236 -29z" />
    <glyph glyph-name="Egrave" unicode="&#xc8;" horiz-adv-x="1050" 
d="M600 1458l-301 336h244l239 -336h-182zM172 0v1327h784v-164h-591v-405h432v-162h-432v-430h616v-166h-809z" />
    <glyph glyph-name="Eacute" unicode="&#xc9;" horiz-adv-x="1050" 
d="M426 1458l240 336h245l-303 -336h-182zM172 0v1327h784v-164h-591v-405h432v-162h-432v-430h616v-166h-809z" />
    <glyph glyph-name="Ecircumflex" unicode="&#xca;" horiz-adv-x="1050" 
d="M219 1458l348 354l351 -354h-201l-150 162l-149 -162h-199zM172 0v1327h784v-164h-591v-405h432v-162h-432v-430h616v-166h-809z" />
    <glyph glyph-name="Edieresis" unicode="&#xcb;" horiz-adv-x="1050" 
d="M367 1499q-54 0 -88.5 35.5t-34.5 89.5t34.5 89.5t88.5 35.5t88 -35.5t34 -89.5t-34 -89.5t-88 -35.5zM768 1499q-54 0 -88.5 35.5t-34.5 89.5t34.5 89.5t88.5 35.5t88.5 -35.5t34.5 -89.5t-34.5 -89.5t-88.5 -35.5zM172 0v1327h784v-164h-591v-405h432v-162h-432v-430
h616v-166h-809z" />
    <glyph glyph-name="Igrave" unicode="&#xcc;" horiz-adv-x="536" 
d="M182 1458l-301 336h244l240 -336h-183zM172 0v1327h193v-1327h-193z" />
    <glyph glyph-name="Iacute" unicode="&#xcd;" horiz-adv-x="536" 
d="M174 1458l240 336h245l-303 -336h-182zM172 0v1327h193v-1327h-193z" />
    <glyph glyph-name="Icircumflex" unicode="&#xce;" horiz-adv-x="536" 
d="M-80 1458l348 354l350 -354h-200l-150 162l-149 -162h-199zM172 0v1327h193v-1327h-193z" />
    <glyph glyph-name="Idieresis" unicode="&#xcf;" horiz-adv-x="536" 
d="M68 1499q-54 0 -88.5 35.5t-34.5 89.5t34.5 89.5t88.5 35.5t88 -35.5t34 -89.5t-34 -89.5t-88 -35.5zM469 1499q-54 0 -88.5 35.5t-34.5 89.5t34.5 89.5t88.5 35.5t88.5 -35.5t34.5 -89.5t-34.5 -89.5t-88.5 -35.5zM172 0v1327h193v-1327h-193z" />
    <glyph glyph-name="Eth" unicode="&#xd0;" horiz-adv-x="1445" 
d="M487 1327q73 0 133.5 -3t132.5 -11.5t130.5 -23t120 -39.5t109.5 -59t91 -83t71.5 -110t45 -141.5t16.5 -176.5q0 -121 -27 -220.5t-72 -169t-111 -122t-137.5 -84t-158.5 -51t-165.5 -26.5t-167.5 -7h-269v600h-211v154h211v573h258zM481 164q117 0 210 13t180 48
t145 91.5t92.5 148.5t34.5 215q0 89 -18 160.5t-49 122t-79.5 87t-101 58.5t-123 35t-136.5 17.5t-149 4.5h-65v-411h291v-154h-291v-436h59z" />
    <glyph glyph-name="Ntilde" unicode="&#xd1;" horiz-adv-x="1447" 
d="M872 1503q-45 0 -89 16.5t-73 37t-64 37t-64 16.5q-48 0 -68 -32.5t-20 -64.5h-121q0 97 52.5 164.5t147.5 67.5q58 0 114 -27.5t102 -54.5t79 -27q44 0 64 31.5t20 67.5h121q0 -94 -53 -163t-148 -69zM1255 -20l-897 948v-928h-186v1348h21l897 -951v930h186v-1347h-21z
" />
    <glyph glyph-name="Ograve" unicode="&#xd2;" horiz-adv-x="1544" 
d="M807 1458l-301 336h244l239 -336h-182zM768 -20q-153 0 -278.5 52.5t-208 144.5t-127.5 217t-45 270q0 197 78.5 351t231.5 243.5t357 89.5q153 0 278.5 -51.5t208.5 -142t128 -214.5t45 -268q0 -197 -78 -352.5t-231 -247.5t-359 -92zM774 158q209 0 338 142.5
t129 367.5q0 223 -130 363t-339 140q-206 0 -337.5 -140.5t-131.5 -362.5t130.5 -366t340.5 -144z" />
    <glyph glyph-name="Oacute" unicode="&#xd3;" horiz-adv-x="1544" 
d="M633 1458l239 336h246l-303 -336h-182zM768 -20q-153 0 -278.5 52.5t-208 144.5t-127.5 217t-45 270q0 197 78.5 351t231.5 243.5t357 89.5q153 0 278.5 -51.5t208.5 -142t128 -214.5t45 -268q0 -197 -78 -352.5t-231 -247.5t-359 -92zM774 158q209 0 338 142.5
t129 367.5q0 223 -130 363t-339 140q-206 0 -337.5 -140.5t-131.5 -362.5t130.5 -366t340.5 -144z" />
    <glyph glyph-name="Ocircumflex" unicode="&#xd4;" horiz-adv-x="1544" 
d="M426 1458l348 354l350 -354h-200l-150 162l-149 -162h-199zM768 -20q-153 0 -278.5 52.5t-208 144.5t-127.5 217t-45 270q0 197 78.5 351t231.5 243.5t357 89.5q153 0 278.5 -51.5t208.5 -142t128 -214.5t45 -268q0 -197 -78 -352.5t-231 -247.5t-359 -92zM774 158
q209 0 338 142.5t129 367.5q0 223 -130 363t-339 140q-206 0 -337.5 -140.5t-131.5 -362.5t130.5 -366t340.5 -144z" />
    <glyph glyph-name="Otilde" unicode="&#xd5;" horiz-adv-x="1544" 
d="M924 1503q-45 0 -89 16.5t-73.5 37t-64.5 37t-64 16.5q-48 0 -68 -32.5t-20 -64.5h-121q0 97 53 164.5t148 67.5q58 0 114 -27.5t102 -54.5t79 -27q44 0 64 31.5t20 67.5h120q0 -94 -52.5 -163t-147.5 -69zM768 -20q-153 0 -278.5 52.5t-208 144.5t-127.5 217t-45 270
q0 197 78.5 351t231.5 243.5t357 89.5q153 0 278.5 -51.5t208.5 -142t128 -214.5t45 -268q0 -197 -78 -352.5t-231 -247.5t-359 -92zM774 158q209 0 338 142.5t129 367.5q0 223 -130 363t-339 140q-206 0 -337.5 -140.5t-131.5 -362.5t130.5 -366t340.5 -144z" />
    <glyph glyph-name="Odieresis" unicode="&#xd6;" horiz-adv-x="1544" 
d="M573 1499q-54 0 -88 35.5t-34 89.5t34 89.5t88 35.5t88.5 -35.5t34.5 -89.5t-34.5 -89.5t-88.5 -35.5zM975 1499q-54 0 -88.5 35.5t-34.5 89.5t34.5 89.5t88.5 35.5t88.5 -35.5t34.5 -89.5t-34.5 -89.5t-88.5 -35.5zM768 -20q-153 0 -278.5 52.5t-208 144.5t-127.5 217
t-45 270q0 197 78.5 351t231.5 243.5t357 89.5q153 0 278.5 -51.5t208.5 -142t128 -214.5t45 -268q0 -197 -78 -352.5t-231 -247.5t-359 -92zM774 158q209 0 338 142.5t129 367.5q0 223 -130 363t-339 140q-206 0 -337.5 -140.5t-131.5 -362.5t130.5 -366t340.5 -144z" />
    <glyph glyph-name="multiply" unicode="&#xd7;" 
d="M305 31l-125 125l307 307l-307 307l125 123l307 -307l308 307l122 -123l-307 -307l307 -307l-122 -125l-308 307z" />
    <glyph glyph-name="Oslash" unicode="&#xd8;" horiz-adv-x="1544" 
d="M109 -61l174 237q-174 186 -174 488q0 197 78.5 351t231.5 243.5t357 89.5q176 0 320 -72l96 131h194l-161 -217q102 -90 156.5 -224.5t54.5 -293.5q0 -197 -78 -352.5t-231 -247.5t-359 -92q-205 0 -362 98l-103 -139h-194zM403 340l580 782q-84 49 -211 49
q-206 0 -337.5 -140.5t-131.5 -362.5q0 -191 100 -328zM774 158q209 0 338 142.5t129 367.5q0 112 -35 205.5t-96 156.5l-590 -797q97 -75 254 -75z" />
    <glyph glyph-name="Ugrave" unicode="&#xd9;" horiz-adv-x="1343" 
d="M702 1458l-301 336h244l240 -336h-183zM672 -20q-263 0 -389.5 135.5t-126.5 419.5v792h190v-752q0 -214 73.5 -317.5t252.5 -103.5q175 0 250 102.5t75 318.5v752h191v-790q0 -291 -129 -424t-387 -133z" />
    <glyph glyph-name="Uacute" unicode="&#xda;" horiz-adv-x="1343" 
d="M528 1458l240 336h246l-303 -336h-183zM672 -20q-263 0 -389.5 135.5t-126.5 419.5v792h190v-752q0 -214 73.5 -317.5t252.5 -103.5q175 0 250 102.5t75 318.5v752h191v-790q0 -291 -129 -424t-387 -133z" />
    <glyph glyph-name="Ucircumflex" unicode="&#xdb;" horiz-adv-x="1343" 
d="M322 1458l348 354l350 -354h-201l-149 162l-150 -162h-198zM672 -20q-263 0 -389.5 135.5t-126.5 419.5v792h190v-752q0 -214 73.5 -317.5t252.5 -103.5q175 0 250 102.5t75 318.5v752h191v-790q0 -291 -129 -424t-387 -133z" />
    <glyph glyph-name="Udieresis" unicode="&#xdc;" horiz-adv-x="1343" 
d="M469 1499q-54 0 -88.5 35.5t-34.5 89.5t34.5 89.5t88.5 35.5t88.5 -35.5t34.5 -89.5t-34.5 -89.5t-88.5 -35.5zM870 1499q-54 0 -88 35.5t-34 89.5t34 89.5t88 35.5t88.5 -35.5t34.5 -89.5t-34.5 -89.5t-88.5 -35.5zM672 -20q-263 0 -389.5 135.5t-126.5 419.5v792h190
v-752q0 -214 73.5 -317.5t252.5 -103.5q175 0 250 102.5t75 318.5v752h191v-790q0 -291 -129 -424t-387 -133z" />
    <glyph glyph-name="Yacute" unicode="&#xdd;" horiz-adv-x="1232" 
d="M471 1458l240 336h245l-303 -336h-182zM518 0v526l-471 801h211l360 -633l363 633h205l-475 -801v-526h-193z" />
    <glyph glyph-name="Thorn" unicode="&#xde;" horiz-adv-x="1189" 
d="M561 1096q97 0 173 -10t149.5 -38t121.5 -75t77.5 -124.5t29.5 -182.5q0 -82 -19.5 -148t-50 -110.5t-78 -77.5t-94.5 -51t-107.5 -29t-109.5 -14t-108 -3h-180v-233h-193v1327h193v-231h196zM537 393q62 0 113 6t102.5 23.5t86.5 47t57 79t22 115.5q0 57 -14 101.5
t-42 73.5t-61 48.5t-79 29t-88.5 13.5t-96.5 4h-172v-541h172z" />
    <glyph glyph-name="germandbls" unicode="&#xdf;" horiz-adv-x="1200" 
d="M846 563q121 3 195.5 -66t74.5 -198q0 -155 -96 -236t-275 -81q-60 0 -117.5 11t-84.5 23v154q100 -41 192 -41q193 0 193 160q0 85 -53 122.5t-132 37.5q-83 0 -135 -33l-14 16l207 338h-395v-1069h-185v1069h-158v150h158v84q0 192 84 287t266 95q111 0 181 -32v-162
q-77 35 -160 35q-104 0 -145 -57t-41 -179v-71h636v-21z" />
    <glyph glyph-name="agrave" unicode="&#xe0;" horiz-adv-x="1015" 
d="M680 1065h-182l-303 336h245zM500 938q200 0 292.5 -96.5t92.5 -286.5v-555h-168l-2 109q-87 -127 -291 -127q-157 0 -249.5 80.5t-92.5 213.5q0 145 102 226.5t285 81.5q128 0 231 -49v24q0 227 -233 227q-84 0 -162 -27t-127 -57v164q141 72 322 72zM467 115
q112 0 172.5 66.5t60.5 189.5v30q-84 52 -217 52q-98 0 -153.5 -43.5t-55.5 -124.5q0 -79 52.5 -124.5t140.5 -45.5z" />
    <glyph glyph-name="aacute" unicode="&#xe1;" horiz-adv-x="1015" 
d="M819 1401l-303 -336h-182l239 336h246zM500 938q200 0 292.5 -96.5t92.5 -286.5v-555h-168l-2 109q-87 -127 -291 -127q-157 0 -249.5 80.5t-92.5 213.5q0 145 102 226.5t285 81.5q128 0 231 -49v24q0 227 -233 227q-84 0 -162 -27t-127 -57v164q141 72 322 72zM467 115
q112 0 172.5 66.5t60.5 189.5v30q-84 52 -217 52q-98 0 -153.5 -43.5t-55.5 -124.5q0 -79 52.5 -124.5t140.5 -45.5z" />
    <glyph glyph-name="acircumflex" unicode="&#xe2;" horiz-adv-x="1015" 
d="M498 1225l-150 -160h-198l348 354l350 -354h-201zM500 938q200 0 292.5 -96.5t92.5 -286.5v-555h-168l-2 109q-87 -127 -291 -127q-157 0 -249.5 80.5t-92.5 213.5q0 145 102 226.5t285 81.5q128 0 231 -49v24q0 227 -233 227q-84 0 -162 -27t-127 -57v164q141 72 322 72
zM467 115q112 0 172.5 66.5t60.5 189.5v30q-84 52 -217 52q-98 0 -153.5 -43.5t-55.5 -124.5q0 -79 52.5 -124.5t140.5 -45.5z" />
    <glyph glyph-name="atilde" unicode="&#xe3;" horiz-adv-x="1015" 
d="M356 1217q-48 0 -68 -32.5t-20 -64.5h-121q0 95 53 162.5t148 67.5q58 0 114 -27t102 -53.5t79 -26.5q44 0 64 30t20 66h121q0 -92 -53 -160.5t-148 -68.5q-57 0 -111 27t-99.5 53.5t-80.5 26.5zM500 938q200 0 292.5 -96.5t92.5 -286.5v-555h-168l-2 109
q-87 -127 -291 -127q-157 0 -249.5 80.5t-92.5 213.5q0 145 102 226.5t285 81.5q128 0 231 -49v24q0 227 -233 227q-84 0 -162 -27t-127 -57v164q141 72 322 72zM467 115q112 0 172.5 66.5t60.5 189.5v30q-84 52 -217 52q-98 0 -153.5 -43.5t-55.5 -124.5q0 -79 52.5 -124.5
t140.5 -45.5z" />
    <glyph glyph-name="adieresis" unicode="&#xe4;" horiz-adv-x="1015" 
d="M299 1137q-50 0 -81.5 30.5t-31.5 79.5q0 48 33 79.5t80 31.5q48 0 79.5 -31t31.5 -80q0 -50 -32 -80t-79 -30zM698 1137q-50 0 -80 30.5t-30 79.5t31.5 80t78.5 31q48 0 79.5 -31t31.5 -80q0 -50 -32 -80t-79 -30zM500 938q200 0 292.5 -96.5t92.5 -286.5v-555h-168
l-2 109q-87 -127 -291 -127q-157 0 -249.5 80.5t-92.5 213.5q0 145 102 226.5t285 81.5q128 0 231 -49v24q0 227 -233 227q-84 0 -162 -27t-127 -57v164q141 72 322 72zM467 115q112 0 172.5 66.5t60.5 189.5v30q-84 52 -217 52q-98 0 -153.5 -43.5t-55.5 -124.5
q0 -79 52.5 -124.5t140.5 -45.5z" />
    <glyph glyph-name="aring" unicode="&#xe5;" horiz-adv-x="1015" 
d="M500 1044q-92 0 -154.5 61t-62.5 150q0 88 62.5 149.5t154.5 61.5t154.5 -61.5t62.5 -149.5q0 -89 -62.5 -150t-154.5 -61zM500 1366q-45 0 -76 -31t-31 -80t31 -79.5t76 -30.5q46 0 76 30.5t30 79.5q0 46 -30.5 78.5t-75.5 32.5zM500 938q200 0 292.5 -96.5t92.5 -286.5
v-555h-168l-2 109q-87 -127 -291 -127q-157 0 -249.5 80.5t-92.5 213.5q0 145 102 226.5t285 81.5q128 0 231 -49v24q0 227 -233 227q-84 0 -162 -27t-127 -57v164q141 72 322 72zM467 115q112 0 172.5 66.5t60.5 189.5v30q-84 52 -217 52q-98 0 -153.5 -43.5t-55.5 -124.5
q0 -79 52.5 -124.5t140.5 -45.5z" />
    <glyph glyph-name="ae" unicode="&#xe6;" horiz-adv-x="1656" 
d="M1575 485q0 -51 -6 -92h-688q23 -254 333 -254q185 0 322 82v-164q-51 -28 -144 -51.5t-206 -23.5q-141 0 -247.5 44.5t-154.5 131.5q-36 -73 -118.5 -124.5t-223.5 -51.5q-170 0 -265 80t-95 214q0 145 103 226.5t288 81.5q127 0 227 -49v24q0 227 -229 227
q-87 0 -165 -26.5t-128 -57.5v164q141 72 324 72q120 0 194 -44.5t109 -113.5q51 73 138.5 115.5t199.5 42.5q209 0 320.5 -124.5t111.5 -328.5zM1386 526q3 119 -65 188.5t-178 69.5q-109 0 -181 -70.5t-79 -187.5h503zM467 115q112 0 172.5 66.5t60.5 189.5v30
q-84 52 -217 52q-98 0 -153.5 -43.5t-55.5 -124.5q0 -79 52.5 -124.5t140.5 -45.5z" />
    <glyph glyph-name="ccedilla" unicode="&#xe7;" horiz-adv-x="909" 
d="M563 -18h-2l-20 -70q12 6 30 6q69 -2 111.5 -41t42.5 -123q0 -93 -62 -135.5t-159 -42.5q-87 0 -135 25v104q56 -29 118 -29q103 0 103 80q0 41 -23 60.5t-61 19.5q-47 0 -86 -35l-21 13l52 178q-167 31 -268 148t-101 311q0 221 131.5 354t353.5 133q141 0 242 -49v-174
q-105 65 -227 65q-138 0 -223 -85.5t-85 -235.5t82.5 -234t225.5 -84q77 0 138.5 23t96.5 49v-176q-37 -22 -106 -38.5t-148 -16.5z" />
    <glyph glyph-name="egrave" unicode="&#xe8;" horiz-adv-x="1050" 
d="M532 1065l-303 336h246l240 -336h-183zM578 -18q-236 0 -366 121.5t-130 347.5q0 220 120 353.5t333 133.5q210 0 322 -124.5t112 -328.5q0 -51 -6 -92h-689q10 -128 96 -191t238 -63q183 0 320 82v-164q-51 -28 -144 -51.5t-206 -23.5zM276 526h504q3 119 -65.5 188.5
t-179.5 69.5q-109 0 -180.5 -70.5t-78.5 -187.5z" />
    <glyph glyph-name="eacute" unicode="&#xe9;" horiz-adv-x="1050" 
d="M369 1065l239 336h246l-303 -336h-182zM578 -18q-236 0 -366 121.5t-130 347.5q0 220 120 353.5t333 133.5q210 0 322 -124.5t112 -328.5q0 -51 -6 -92h-689q10 -128 96 -191t238 -63q183 0 320 82v-164q-51 -28 -144 -51.5t-206 -23.5zM276 526h504q3 119 -65.5 188.5
t-179.5 69.5q-109 0 -180.5 -70.5t-78.5 -187.5z" />
    <glyph glyph-name="ecircumflex" unicode="&#xea;" horiz-adv-x="1050" 
d="M184 1065l348 354l351 -354h-201l-150 160l-149 -160h-199zM578 -18q-236 0 -366 121.5t-130 347.5q0 220 120 353.5t333 133.5q210 0 322 -124.5t112 -328.5q0 -51 -6 -92h-689q10 -128 96 -191t238 -63q183 0 320 82v-164q-51 -28 -144 -51.5t-206 -23.5zM276 526h504
q3 119 -65.5 188.5t-179.5 69.5q-109 0 -180.5 -70.5t-78.5 -187.5z" />
    <glyph glyph-name="edieresis" unicode="&#xeb;" horiz-adv-x="1050" 
d="M334 1137q-50 0 -81.5 30.5t-31.5 79.5q0 48 33 79.5t80 31.5q48 0 79 -31t31 -80q0 -50 -31.5 -80t-78.5 -30zM733 1137q-49 0 -79.5 30.5t-30.5 79.5t31.5 80t78.5 31q48 0 79.5 -31t31.5 -80q0 -50 -32 -80t-79 -30zM578 -18q-236 0 -366 121.5t-130 347.5
q0 220 120 353.5t333 133.5q210 0 322 -124.5t112 -328.5q0 -51 -6 -92h-689q10 -128 96 -191t238 -63q183 0 320 82v-164q-51 -28 -144 -51.5t-206 -23.5zM276 526h504q3 119 -65.5 188.5t-179.5 69.5q-109 0 -180.5 -70.5t-78.5 -187.5z" />
    <glyph glyph-name="igrave" unicode="&#xec;" horiz-adv-x="503" 
d="M248 1065l-303 336h245l240 -336h-182zM174 0v770h-129v150h313v-920h-184z" />
    <glyph glyph-name="iacute" unicode="&#xed;" horiz-adv-x="503" 
d="M39 1065l240 336h245l-303 -336h-182zM174 0v770h-129v150h313v-920h-184z" />
    <glyph glyph-name="icircumflex" unicode="&#xee;" horiz-adv-x="503" 
d="M-86 1065l348 354l350 -354h-200l-150 160l-149 -160h-199zM174 0v770h-129v150h313v-920h-184z" />
    <glyph glyph-name="idieresis" unicode="&#xef;" horiz-adv-x="503" 
d="M63 1137q-50 0 -81 30.5t-31 79.5t32.5 80t79.5 31q48 0 79.5 -31t31.5 -80q0 -50 -32 -80t-79 -30zM463 1137q-50 0 -80.5 30.5t-30.5 79.5t32 80t79 31q48 0 79 -31t31 -80q0 -50 -31.5 -80t-78.5 -30zM174 0v770h-129v150h313v-920h-184z" />
    <glyph glyph-name="eth" unicode="&#xf0;" horiz-adv-x="1142" 
d="M569 -18q-222 0 -354.5 131t-132.5 344q0 211 126 346t339 135q103 0 183 -38t120 -105q-26 85 -86 169.5t-133 141.5l-154 -92l-65 102l106 64q-87 44 -227 61v145q101 -11 198 -46t168 -78l166 96l66 -103l-125 -71q297 -247 297 -664q0 -253 -133 -395.5t-359 -142.5z
M571 141q132 0 214.5 89t82.5 235q0 141 -81.5 227t-215.5 86q-137 0 -217 -91t-80 -228q0 -142 83 -230t214 -88z" />
    <glyph glyph-name="ntilde" unicode="&#xf1;" horiz-adv-x="1101" 
d="M737 1110q-57 0 -111 27t-99.5 53.5t-80.5 26.5q-48 0 -68 -32.5t-20 -64.5h-120q0 96 52.5 163t147.5 67q58 0 114 -27t102 -53.5t79 -26.5q44 0 64 30t20 66h121q0 -92 -53 -160.5t-148 -68.5zM145 0v920h168l4 -127q81 145 301 145q353 0 353 -397v-541h-185v506
q0 47 -4.5 83.5t-18 74t-36 61.5t-62 39.5t-92.5 15.5q-131 0 -187 -91t-56 -259v-430h-185z" />
    <glyph glyph-name="ograve" unicode="&#xf2;" horiz-adv-x="1142" 
d="M569 1065l-303 336h246l240 -336h-183zM569 -18q-222 0 -354.5 131t-132.5 344q0 211 133.5 346t357.5 135q221 0 353.5 -125.5t132.5 -343.5q0 -220 -135.5 -353.5t-354.5 -133.5zM571 141q132 0 214.5 89t82.5 235q0 143 -83 229t-214 86q-137 0 -217 -92t-80 -229
q0 -142 82.5 -230t214.5 -88z" />
    <glyph glyph-name="oacute" unicode="&#xf3;" horiz-adv-x="1142" 
d="M406 1065l239 336h246l-303 -336h-182zM569 -18q-222 0 -354.5 131t-132.5 344q0 211 133.5 346t357.5 135q221 0 353.5 -125.5t132.5 -343.5q0 -220 -135.5 -353.5t-354.5 -133.5zM571 141q132 0 214.5 89t82.5 235q0 143 -83 229t-214 86q-137 0 -217 -92t-80 -229
q0 -142 82.5 -230t214.5 -88z" />
    <glyph glyph-name="ocircumflex" unicode="&#xf4;" horiz-adv-x="1142" 
d="M221 1065l348 354l351 -354h-201l-150 160l-149 -160h-199zM569 -18q-222 0 -354.5 131t-132.5 344q0 211 133.5 346t357.5 135q221 0 353.5 -125.5t132.5 -343.5q0 -220 -135.5 -353.5t-354.5 -133.5zM571 141q132 0 214.5 89t82.5 235q0 143 -83 229t-214 86
q-137 0 -217 -92t-80 -229q0 -142 82.5 -230t214.5 -88z" />
    <glyph glyph-name="otilde" unicode="&#xf5;" horiz-adv-x="1142" 
d="M719 1110q-57 0 -111 27t-99.5 53.5t-80.5 26.5q-48 0 -68 -32.5t-20 -64.5h-121q0 95 53 162.5t148 67.5q58 0 114 -27t102 -53.5t79 -26.5q44 0 64 30t20 66h121q0 -92 -53 -160.5t-148 -68.5zM569 -18q-222 0 -354.5 131t-132.5 344q0 211 133.5 346t357.5 135
q221 0 353.5 -125.5t132.5 -343.5q0 -220 -135.5 -353.5t-354.5 -133.5zM571 141q132 0 214.5 89t82.5 235q0 143 -83 229t-214 86q-137 0 -217 -92t-80 -229q0 -142 82.5 -230t214.5 -88z" />
    <glyph glyph-name="odieresis" unicode="&#xf6;" horiz-adv-x="1142" 
d="M371 1137q-50 0 -81.5 30.5t-31.5 79.5q0 48 33 79.5t80 31.5q48 0 79 -31t31 -80q0 -50 -31.5 -80t-78.5 -30zM770 1137q-50 0 -80.5 30.5t-30.5 79.5t32 80t79 31q48 0 79.5 -31t31.5 -80q0 -50 -32 -80t-79 -30zM569 -18q-222 0 -354.5 131t-132.5 344
q0 211 133.5 346t357.5 135q221 0 353.5 -125.5t132.5 -343.5q0 -220 -135.5 -353.5t-354.5 -133.5zM571 141q132 0 214.5 89t82.5 235q0 143 -83 229t-214 86q-137 0 -217 -92t-80 -229q0 -142 82.5 -230t214.5 -88z" />
    <glyph glyph-name="divide" unicode="&#xf7;" 
d="M614 688q-51 0 -82.5 33t-31.5 84t32 84t82 33t82.5 -33.5t32.5 -85.5q0 -51 -32.5 -83t-82.5 -32zM184 387v152h852v-152h-852zM614 6q-51 0 -82.5 33t-31.5 84t32 84t82 33t82.5 -33.5t32.5 -85.5q0 -51 -32.5 -83t-82.5 -32z" />
    <glyph glyph-name="oslash" unicode="&#xf8;" horiz-adv-x="1142" 
d="M129 -61l109 153q-74 64 -115 158t-41 207q0 211 133.5 346t357.5 135q124 0 224 -43l61 86h156l-107 -150q152 -130 152 -362q0 -220 -135.5 -353.5t-354.5 -133.5q-129 0 -225 47l-63 -90h-152zM342 248l356 504q-51 28 -127 28q-137 0 -217 -92t-80 -229
q0 -130 68 -211zM571 141q132 0 214.5 89t82.5 235q0 128 -67 211l-359 -506q50 -29 129 -29z" />
    <glyph glyph-name="ugrave" unicode="&#xf9;" horiz-adv-x="1046" 
d="M520 1065l-303 336h246l239 -336h-182zM522 -18q-90 0 -159.5 23.5t-112.5 61.5t-70.5 92.5t-38 111.5t-10.5 124v525h184v-523q0 -260 209 -260q211 0 211 260v523h180v-525q0 -65 -10 -120.5t-37.5 -111t-70 -94.5t-113 -63t-162.5 -24z" />
    <glyph glyph-name="uacute" unicode="&#xfa;" horiz-adv-x="1046" 
d="M356 1065l240 336h246l-303 -336h-183zM522 -18q-90 0 -159.5 23.5t-112.5 61.5t-70.5 92.5t-38 111.5t-10.5 124v525h184v-523q0 -260 209 -260q211 0 211 260v523h180v-525q0 -65 -10 -120.5t-37.5 -111t-70 -94.5t-113 -63t-162.5 -24z" />
    <glyph glyph-name="ucircumflex" unicode="&#xfb;" horiz-adv-x="1046" 
d="M172 1065l348 354l350 -354h-200l-150 160l-149 -160h-199zM522 -18q-90 0 -159.5 23.5t-112.5 61.5t-70.5 92.5t-38 111.5t-10.5 124v525h184v-523q0 -260 209 -260q211 0 211 260v523h180v-525q0 -65 -10 -120.5t-37.5 -111t-70 -94.5t-113 -63t-162.5 -24z" />
    <glyph glyph-name="udieresis" unicode="&#xfc;" horiz-adv-x="1046" 
d="M322 1137q-50 0 -81.5 30.5t-31.5 79.5q0 48 33 79.5t80 31.5q48 0 79 -31t31 -80q0 -50 -31.5 -80t-78.5 -30zM721 1137q-50 0 -80.5 30.5t-30.5 79.5t32 80t79 31q48 0 79 -31t31 -80q0 -50 -31.5 -80t-78.5 -30zM522 -18q-90 0 -159.5 23.5t-112.5 61.5t-70.5 92.5
t-38 111.5t-10.5 124v525h184v-523q0 -260 209 -260q211 0 211 260v523h180v-525q0 -65 -10 -120.5t-37.5 -111t-70 -94.5t-113 -63t-162.5 -24z" />
    <glyph glyph-name="yacute" unicode="&#xfd;" horiz-adv-x="1013" 
d="M340 1065l240 336h245l-303 -336h-182zM207 -406l203 457l-379 869h202l273 -664l278 664h199l-577 -1326h-199z" />
    <glyph glyph-name="thorn" unicode="&#xfe;" horiz-adv-x="1187" 
d="M145 -406v1764h185l-4 -574q106 154 325 154q208 0 331.5 -130t123.5 -341q0 -221 -125.5 -353t-327.5 -132q-106 0 -191 38.5t-132 102.5v-529h-185zM618 141q134 0 215.5 88.5t81.5 233.5t-82.5 231t-214.5 86q-139 0 -217.5 -92.5t-78.5 -228.5q0 -143 81.5 -230.5
t214.5 -87.5z" />
    <glyph glyph-name="ydieresis" unicode="&#xff;" horiz-adv-x="1013" 
d="M305 1137q-50 0 -81 30.5t-31 79.5t32.5 80t79.5 31q48 0 79.5 -31t31.5 -80q0 -50 -32 -80t-79 -30zM705 1137q-50 0 -80.5 30.5t-30.5 79.5t32 80t79 31q48 0 79 -31t31 -80q0 -50 -31.5 -80t-78.5 -30zM207 -406l203 457l-379 869h202l273 -664l278 664h199
l-577 -1326h-199z" />
    <glyph glyph-name="Amacron" unicode="&#x100;" horiz-adv-x="1320" 
d="M360 1550v150h601v-150h-601zM47 0l604 1348h21l602 -1348h-205l-113 262h-598l-112 -262h-199zM424 422h471l-236 547z" />
    <glyph glyph-name="amacron" unicode="&#x101;" horiz-adv-x="1015" 
d="M799 1313v-152h-600v152h600zM500 938q200 0 292.5 -96.5t92.5 -286.5v-555h-168l-2 109q-87 -127 -291 -127q-157 0 -249.5 80.5t-92.5 213.5q0 145 102 226.5t285 81.5q128 0 231 -49v24q0 227 -233 227q-84 0 -162 -27t-127 -57v164q141 72 322 72zM467 115
q112 0 172.5 66.5t60.5 189.5v30q-84 52 -217 52q-98 0 -153.5 -43.5t-55.5 -124.5q0 -79 52.5 -124.5t140.5 -45.5z" />
    <glyph glyph-name="Abreve" unicode="&#x102;" horiz-adv-x="1320" 
d="M659 1440q-344 0 -344 332v22h148q0 -101 46.5 -151t149.5 -50q105 0 152 50t47 151h148v-22q0 -154 -82 -243t-265 -89zM47 0l604 1348h21l602 -1348h-205l-113 262h-598l-112 -262h-199zM424 422h471l-236 547z" />
    <glyph glyph-name="abreve" unicode="&#x103;" horiz-adv-x="1015" 
d="M498 1047q-342 0 -342 331v23h143q0 -102 48 -154.5t151 -52.5q104 0 151 52t47 155h146v-23q0 -152 -81 -241.5t-263 -89.5zM500 938q200 0 292.5 -96.5t92.5 -286.5v-555h-168l-2 109q-87 -127 -291 -127q-157 0 -249.5 80.5t-92.5 213.5q0 145 102 226.5t285 81.5
q128 0 231 -49v24q0 227 -233 227q-84 0 -162 -27t-127 -57v164q141 72 322 72zM467 115q112 0 172.5 66.5t60.5 189.5v30q-84 52 -217 52q-98 0 -153.5 -43.5t-55.5 -124.5q0 -79 52.5 -124.5t140.5 -45.5z" />
    <glyph glyph-name="Aogonek" unicode="&#x104;" horiz-adv-x="1320" 
d="M1124 -424q-95 0 -156 47t-61 144q0 78 43 140.5t117 98.5l-111 256h-596l-114 -262h-199l604 1348h21l602 -1348q-104 -22 -169 -78t-65 -127q0 -106 109 -106q66 0 102 26v-114q-52 -25 -127 -25zM424 422h471l-236 547z" />
    <glyph glyph-name="aogonek" unicode="&#x105;" horiz-adv-x="1015" 
d="M885 0q-108 -31 -164.5 -83t-56.5 -122q0 -106 108 -106q60 0 102 26v-114q-52 -25 -129 -25q-95 0 -156 47t-61 144q0 86 52 152.5t137 94.5l-2 95q-87 -127 -291 -127q-157 0 -249.5 80.5t-92.5 213.5q0 145 102 226.5t285 81.5q128 0 231 -49v24q0 227 -233 227
q-84 0 -162 -27t-127 -57v164q141 72 322 72q200 0 292.5 -96.5t92.5 -286.5v-555zM467 115q112 0 172.5 66.5t60.5 189.5v30q-84 52 -217 52q-98 0 -153.5 -43.5t-55.5 -124.5q0 -79 52.5 -124.5t140.5 -45.5z" />
    <glyph glyph-name="Cacute" unicode="&#x106;" horiz-adv-x="1298" 
d="M633 1458l239 336h246l-303 -336h-182zM782 -20q-210 0 -364 88.5t-231.5 241.5t-77.5 352q0 200 78.5 354.5t231 243t357.5 88.5q123 0 226 -29.5t151 -67.5v-192q-165 112 -367 112q-221 0 -352 -138t-131 -367q0 -158 65 -274.5t177 -175t256 -58.5q207 0 373 110
v-194q-48 -36 -156 -65t-236 -29z" />
    <glyph glyph-name="cacute" unicode="&#x107;" horiz-adv-x="909" 
d="M401 1065l240 336h246l-303 -336h-183zM563 -18q-100 0 -186.5 29.5t-152.5 86.5t-104 147.5t-38 205.5q0 221 131.5 354t353.5 133q141 0 242 -49v-174q-105 65 -227 65q-138 0 -223 -85.5t-85 -235.5t82.5 -234t225.5 -84q77 0 138.5 23t96.5 49v-176
q-37 -22 -106 -38.5t-148 -16.5z" />
    <glyph glyph-name="Ccircumflex" unicode="&#x108;" horiz-adv-x="1298" 
d="M426 1458l348 354l350 -354h-200l-150 162l-149 -162h-199zM782 -20q-210 0 -364 88.5t-231.5 241.5t-77.5 352q0 200 78.5 354.5t231 243t357.5 88.5q123 0 226 -29.5t151 -67.5v-192q-165 112 -367 112q-221 0 -352 -138t-131 -367q0 -158 65 -274.5t177 -175
t256 -58.5q207 0 373 110v-194q-48 -36 -156 -65t-236 -29z" />
    <glyph glyph-name="ccircumflex" unicode="&#x109;" horiz-adv-x="909" 
d="M217 1065l348 354l350 -354h-200l-150 160l-149 -160h-199zM563 -18q-100 0 -186.5 29.5t-152.5 86.5t-104 147.5t-38 205.5q0 221 131.5 354t353.5 133q141 0 242 -49v-174q-105 65 -227 65q-138 0 -223 -85.5t-85 -235.5t82.5 -234t225.5 -84q77 0 138.5 23t96.5 49
v-176q-37 -22 -106 -38.5t-148 -16.5z" />
    <glyph glyph-name="Cdotaccent" unicode="&#x10a;" horiz-adv-x="1298" 
d="M776 1501q-55 0 -89 34.5t-34 90.5q0 53 35.5 88t87.5 35q53 0 87 -35t34 -90t-34.5 -89t-86.5 -34zM782 -20q-210 0 -364 88.5t-231.5 241.5t-77.5 352q0 200 78.5 354.5t231 243t357.5 88.5q123 0 226 -29.5t151 -67.5v-192q-165 112 -367 112q-221 0 -352 -138
t-131 -367q0 -158 65 -274.5t177 -175t256 -58.5q207 0 373 110v-194q-48 -36 -156 -65t-236 -29z" />
    <glyph glyph-name="cdotaccent" unicode="&#x10b;" horiz-adv-x="909" 
d="M567 1137q-50 0 -81 30.5t-31 79.5t32.5 80t79.5 31t79 -31t32 -80t-32.5 -79.5t-78.5 -30.5zM563 -18q-100 0 -186.5 29.5t-152.5 86.5t-104 147.5t-38 205.5q0 221 131.5 354t353.5 133q141 0 242 -49v-174q-105 65 -227 65q-138 0 -223 -85.5t-85 -235.5t82.5 -234
t225.5 -84q77 0 138.5 23t96.5 49v-176q-37 -22 -106 -38.5t-148 -16.5z" />
    <glyph glyph-name="Ccaron" unicode="&#x10c;" horiz-adv-x="1298" 
d="M774 1440l-348 354h199l149 -160l150 160h200zM782 -20q-210 0 -364 88.5t-231.5 241.5t-77.5 352q0 200 78.5 354.5t231 243t357.5 88.5q123 0 226 -29.5t151 -67.5v-192q-165 112 -367 112q-221 0 -352 -138t-131 -367q0 -158 65 -274.5t177 -175t256 -58.5
q207 0 373 110v-194q-48 -36 -156 -65t-236 -29z" />
    <glyph glyph-name="ccaron" unicode="&#x10d;" horiz-adv-x="909" 
d="M565 1047l-348 354h199l149 -162l150 162h200zM563 -18q-100 0 -186.5 29.5t-152.5 86.5t-104 147.5t-38 205.5q0 221 131.5 354t353.5 133q141 0 242 -49v-174q-105 65 -227 65q-138 0 -223 -85.5t-85 -235.5t82.5 -234t225.5 -84q77 0 138.5 23t96.5 49v-176
q-37 -22 -106 -38.5t-148 -16.5z" />
    <glyph glyph-name="Dcaron" unicode="&#x10e;" horiz-adv-x="1388" 
d="M1038 1794l-350 -354l-348 354h199l149 -160l150 160h200zM430 1327q73 0 133.5 -3t132.5 -11.5t130.5 -23t120 -39.5t109.5 -59t91 -83t71.5 -110t45 -141.5t16.5 -176.5q0 -121 -27 -220.5t-72 -169t-111.5 -122t-137.5 -84t-158.5 -51t-166 -26.5t-167.5 -7h-268v1327
h258zM424 164q117 0 210 13t179.5 48t144.5 91.5t92.5 148.5t34.5 215q0 89 -18 160.5t-49 122t-79.5 87t-101 58.5t-122.5 35t-136 17.5t-149 4.5h-65v-1001h59z" />
    <glyph glyph-name="dcaron" unicode="&#x10f;" horiz-adv-x="1429" 
d="M1296 1368q50 0 84.5 -33.5t34.5 -95.5q0 -56 -35 -111.5t-90 -91.5h-102q88 81 104 142q-42 -2 -70 24t-28 68q0 45 29 71.5t73 26.5zM860 793v565h184v-1358h-170l-2 143q-40 -73 -125.5 -117t-205.5 -44q-202 0 -330.5 128t-128.5 347q0 212 121 346.5t329 134.5
q222 0 328 -145zM573 141q136 0 215.5 91t79.5 231t-80 228.5t-215 88.5q-141 0 -220 -93.5t-79 -227.5q0 -139 81 -228.5t218 -89.5z" />
    <glyph glyph-name="Dcroat" unicode="&#x110;" horiz-adv-x="1445" 
d="M487 1327q73 0 133.5 -3t132.5 -11.5t130.5 -23t120 -39.5t109.5 -59t91 -83t71.5 -110t45 -141.5t16.5 -176.5q0 -121 -27 -220.5t-72 -169t-111 -122t-137.5 -84t-158.5 -51t-165.5 -26.5t-167.5 -7h-269v600h-211v154h211v573h258zM481 164q117 0 210 13t180 48
t145 91.5t92.5 148.5t34.5 215q0 89 -18 160.5t-49 122t-79.5 87t-101 58.5t-123 35t-136.5 17.5t-149 4.5h-65v-411h291v-154h-291v-436h59z" />
    <glyph glyph-name="dcroat" unicode="&#x111;" horiz-adv-x="1148" 
d="M1202 1196v-143h-158v-1053h-170l-2 143q-40 -73 -125.5 -117t-205.5 -44q-202 0 -330.5 128t-128.5 347q0 212 121 346.5t329 134.5q222 0 328 -145v260h-254v143h254v162h184v-162h158zM573 141q136 0 215.5 91t79.5 231t-80 228.5t-215 88.5q-141 0 -220 -93.5
t-79 -227.5q0 -139 81 -228.5t218 -89.5z" />
    <glyph glyph-name="Emacron" unicode="&#x112;" horiz-adv-x="1050" 
d="M268 1550v150h600v-150h-600zM172 0v1327h784v-164h-591v-405h432v-162h-432v-430h616v-166h-809z" />
    <glyph glyph-name="emacron" unicode="&#x113;" horiz-adv-x="1050" 
d="M233 1161v152h601v-152h-601zM578 -18q-236 0 -366 121.5t-130 347.5q0 220 120 353.5t333 133.5q210 0 322 -124.5t112 -328.5q0 -51 -6 -92h-689q10 -128 96 -191t238 -63q183 0 320 82v-164q-51 -28 -144 -51.5t-206 -23.5zM276 526h504q3 119 -65.5 188.5
t-179.5 69.5q-109 0 -180.5 -70.5t-78.5 -187.5z" />
    <glyph glyph-name="Ebreve" unicode="&#x114;" horiz-adv-x="1050" 
d="M567 1440q-344 0 -344 332v22h148q0 -101 46.5 -151t149.5 -50q105 0 152 50t47 151h147v-22q0 -154 -81.5 -243t-264.5 -89zM172 0v1327h784v-164h-591v-405h432v-162h-432v-430h616v-166h-809z" />
    <glyph glyph-name="ebreve" unicode="&#x115;" horiz-adv-x="1050" 
d="M532 1047q-342 0 -342 331v23h144q0 -103 47.5 -155t150.5 -52q104 0 151.5 52t47.5 155h146v-23q0 -152 -81.5 -241.5t-263.5 -89.5zM578 -18q-236 0 -366 121.5t-130 347.5q0 220 120 353.5t333 133.5q210 0 322 -124.5t112 -328.5q0 -51 -6 -92h-689q10 -128 96 -191
t238 -63q183 0 320 82v-164q-51 -28 -144 -51.5t-206 -23.5zM276 526h504q3 119 -65.5 188.5t-179.5 69.5q-109 0 -180.5 -70.5t-78.5 -187.5z" />
    <glyph glyph-name="Edotaccent" unicode="&#x116;" horiz-adv-x="1050" 
d="M569 1501q-55 0 -89 34.5t-34 90.5q0 53 35.5 88t87.5 35q53 0 87 -35t34 -90t-34.5 -89t-86.5 -34zM172 0v1327h784v-164h-591v-405h432v-162h-432v-430h616v-166h-809z" />
    <glyph glyph-name="edotaccent" unicode="&#x117;" horiz-adv-x="1050" 
d="M535 1137q-50 0 -81.5 30.5t-31.5 79.5q0 48 33 79.5t80 31.5t78.5 -31t31.5 -80t-32 -79.5t-78 -30.5zM578 -18q-236 0 -366 121.5t-130 347.5q0 220 120 353.5t333 133.5q210 0 322 -124.5t112 -328.5q0 -51 -6 -92h-689q10 -128 96 -191t238 -63q183 0 320 82v-164
q-51 -28 -144 -51.5t-206 -23.5zM276 526h504q3 119 -65.5 188.5t-179.5 69.5q-109 0 -180.5 -70.5t-78.5 -187.5z" />
    <glyph glyph-name="Eogonek" unicode="&#x118;" horiz-adv-x="1050" 
d="M842 -424q-95 0 -156 47t-61 144q0 77 42.5 140t118.5 93h-614v1327h784v-164h-591v-405h432v-162h-432v-430h616v-166q-106 -26 -164.5 -80t-58.5 -125q0 -106 108 -106q67 0 103 26v-114q-52 -25 -127 -25z" />
    <glyph glyph-name="eogonek" unicode="&#x119;" horiz-adv-x="1050" 
d="M717 -424q-95 0 -156 47t-61 144q0 69 35 128t96 91q-24 -4 -53 -4q-236 0 -366 121.5t-130 347.5q0 220 120 353.5t333 133.5q210 0 322 -124.5t112 -328.5q0 -51 -6 -92h-689q10 -128 96 -191t238 -63q183 0 320 82v-164q-157 -69 -225 -126t-68 -136q0 -106 108 -106
q61 0 103 26v-114q-52 -25 -129 -25zM276 526h504q3 119 -65.5 188.5t-179.5 69.5q-109 0 -180.5 -70.5t-78.5 -187.5z" />
    <glyph glyph-name="Ecaron" unicode="&#x11a;" horiz-adv-x="1050" 
d="M567 1440l-348 354h199l149 -160l150 160h201zM172 0v1327h784v-164h-591v-405h432v-162h-432v-430h616v-166h-809z" />
    <glyph glyph-name="ecaron" unicode="&#x11b;" horiz-adv-x="1050" 
d="M532 1047l-348 354h199l149 -162l150 162h201zM578 -18q-236 0 -366 121.5t-130 347.5q0 220 120 353.5t333 133.5q210 0 322 -124.5t112 -328.5q0 -51 -6 -92h-689q10 -128 96 -191t238 -63q183 0 320 82v-164q-51 -28 -144 -51.5t-206 -23.5zM276 526h504
q3 119 -65.5 188.5t-179.5 69.5q-109 0 -180.5 -70.5t-78.5 -187.5z" />
    <glyph glyph-name="Gcircumflex" unicode="&#x11c;" horiz-adv-x="1454" 
d="M436 1458l348 354l351 -354h-201l-150 162l-149 -162h-199zM778 -20q-160 0 -288 51.5t-210.5 144t-126.5 217t-44 271.5q0 211 86 367t238.5 236.5t352.5 80.5q82 0 161 -14t134 -35t86 -36t45 -24v-192q-73 49 -183 86.5t-228 37.5q-105 0 -195.5 -33t-158 -95
t-106 -158.5t-38.5 -216.5q0 -226 129 -368t346 -142q186 0 287.5 100.5t110.5 290.5h-414v164h606v-60q0 -64 -5.5 -122.5t-21.5 -128.5t-42.5 -128t-72 -114t-105.5 -94.5t-148 -62t-195 -23.5z" />
    <glyph glyph-name="gcircumflex" unicode="&#x11d;" horiz-adv-x="1187" 
d="M227 1065l348 354l351 -354h-201l-150 160l-149 -160h-199zM549 -424q-174 0 -273 39v166q132 -47 269 -47q313 0 313 362v58q-41 -68 -123.5 -111t-197.5 -43q-210 0 -332.5 131t-122.5 336q0 209 125 340t330 131q113 0 199 -43t134 -115l2 140h170v-824
q0 -270 -119 -395t-374 -125zM569 164q129 0 209 87t80 222q0 140 -81 223.5t-212 83.5q-130 0 -210.5 -85.5t-80.5 -223.5q0 -139 80.5 -223t214.5 -84z" />
    <glyph glyph-name="Gbreve" unicode="&#x11e;" horiz-adv-x="1454" 
d="M784 1440q-344 0 -344 332v22h148q0 -101 46.5 -151t149.5 -50q105 0 152 50t47 151h147v-22q0 -154 -81.5 -243t-264.5 -89zM778 -20q-160 0 -288 51.5t-210.5 144t-126.5 217t-44 271.5q0 211 86 367t238.5 236.5t352.5 80.5q82 0 161 -14t134 -35t86 -36t45 -24v-192
q-73 49 -183 86.5t-228 37.5q-105 0 -195.5 -33t-158 -95t-106 -158.5t-38.5 -216.5q0 -226 129 -368t346 -142q186 0 287.5 100.5t110.5 290.5h-414v164h606v-60q0 -64 -5.5 -122.5t-21.5 -128.5t-42.5 -128t-72 -114t-105.5 -94.5t-148 -62t-195 -23.5z" />
    <glyph glyph-name="gbreve" unicode="&#x11f;" horiz-adv-x="1187" 
d="M575 1047q-342 0 -342 331v23h144q0 -103 47.5 -155t150.5 -52q104 0 151.5 52t47.5 155h146v-23q0 -152 -81.5 -241.5t-263.5 -89.5zM549 -424q-174 0 -273 39v166q132 -47 269 -47q313 0 313 362v58q-41 -68 -123.5 -111t-197.5 -43q-210 0 -332.5 131t-122.5 336
q0 209 125 340t330 131q113 0 199 -43t134 -115l2 140h170v-824q0 -270 -119 -395t-374 -125zM569 164q129 0 209 87t80 222q0 140 -81 223.5t-212 83.5q-130 0 -210.5 -85.5t-80.5 -223.5q0 -139 80.5 -223t214.5 -84z" />
    <glyph glyph-name="Gdotaccent" unicode="&#x120;" horiz-adv-x="1454" 
d="M786 1501q-55 0 -88.5 34.5t-33.5 90.5q0 53 35 88t87 35q53 0 87 -35t34 -90t-34.5 -89t-86.5 -34zM778 -20q-160 0 -288 51.5t-210.5 144t-126.5 217t-44 271.5q0 211 86 367t238.5 236.5t352.5 80.5q82 0 161 -14t134 -35t86 -36t45 -24v-192q-73 49 -183 86.5
t-228 37.5q-105 0 -195.5 -33t-158 -95t-106 -158.5t-38.5 -216.5q0 -226 129 -368t346 -142q186 0 287.5 100.5t110.5 290.5h-414v164h606v-60q0 -64 -5.5 -122.5t-21.5 -128.5t-42.5 -128t-72 -114t-105.5 -94.5t-148 -62t-195 -23.5z" />
    <glyph glyph-name="gdotaccent" unicode="&#x121;" horiz-adv-x="1187" 
d="M578 1137q-50 0 -81.5 30.5t-31.5 79.5q0 48 33 79.5t80 31.5t78.5 -31t31.5 -80t-32 -79.5t-78 -30.5zM549 -424q-174 0 -273 39v166q132 -47 269 -47q313 0 313 362v58q-41 -68 -123.5 -111t-197.5 -43q-210 0 -332.5 131t-122.5 336q0 209 125 340t330 131
q113 0 199 -43t134 -115l2 140h170v-824q0 -270 -119 -395t-374 -125zM569 164q129 0 209 87t80 222q0 140 -81 223.5t-212 83.5q-130 0 -210.5 -85.5t-80.5 -223.5q0 -139 80.5 -223t214.5 -84z" />
    <glyph glyph-name="Gcommaaccent" unicode="&#x122;" horiz-adv-x="1454" 
d="M762 713h606v-60q0 -64 -5.5 -122.5t-21.5 -128.5t-42.5 -128t-72 -114t-105.5 -94.5t-148 -62t-195 -23.5q-160 0 -288 51.5t-210.5 144t-126.5 217t-44 271.5q0 211 86 367t238.5 236.5t352.5 80.5q82 0 161 -14t134 -35t86 -36t45 -24v-192q-73 49 -183 86.5
t-228 37.5q-105 0 -195.5 -33t-158 -95t-106 -158.5t-38.5 -216.5q0 -226 129 -368t346 -142q186 0 287.5 100.5t110.5 290.5h-414v164zM770 -111q49 0 84 -34t35 -95q0 -99 -101 -184h-110q68 59 90 123q-43 -3 -72.5 22.5t-29.5 67.5q0 46 29.5 73t74.5 27z" />
    <glyph glyph-name="gcommaaccent" unicode="&#x123;" horiz-adv-x="1187" 
d="M555 1065q-50 0 -84.5 33.5t-34.5 95.5q0 56 35 111.5t90 91.5h103q-89 -83 -105 -142q42 2 70 -24t28 -68q0 -45 -29 -71.5t-73 -26.5zM872 920h170v-824q0 -270 -119 -395t-374 -125q-174 0 -273 39v166q132 -47 269 -47q313 0 313 362v58q-41 -68 -123.5 -111
t-197.5 -43q-210 0 -332.5 131t-122.5 336q0 209 125 340t330 131q113 0 199 -43t134 -115zM569 164q129 0 209 87t80 222q0 140 -81 223.5t-212 83.5q-130 0 -210.5 -85.5t-80.5 -223.5q0 -139 80.5 -223t214.5 -84z" />
    <glyph glyph-name="Hcircumflex" unicode="&#x124;" horiz-adv-x="1429" 
d="M362 1458l349 354l350 -354h-201l-149 162l-150 -162h-199zM172 0v1327h193v-569h700v569h192v-1327h-192v592h-700v-592h-193z" />
    <glyph glyph-name="hcircumflex" unicode="&#x125;" horiz-adv-x="1101" 
d="M-113 1458l349 354l350 -354h-201l-149 162l-150 -162h-199zM145 0v1358h185v-545q89 125 288 125q353 0 353 -397v-541h-185v506q0 46 -4 82t-17.5 74t-35.5 62.5t-60.5 40t-90.5 15.5q-134 0 -191 -90.5t-57 -259.5v-430h-185z" />
    <glyph glyph-name="Hbar" unicode="&#x126;" horiz-adv-x="1497" 
d="M1479 1118v-149h-164v-969h-193v592h-700v-592h-193v969h-211v149h211v209h193v-209h700v209h193v-209h164zM1122 758v211h-700v-211h700z" />
    <glyph glyph-name="hbar" unicode="&#x127;" horiz-adv-x="1101" 
d="M618 938q353 0 353 -397v-541h-185v506q0 46 -4 82t-17.5 74t-35.5 62.5t-60.5 40t-90.5 15.5q-134 0 -191 -90.5t-57 -259.5v-430h-185v1053h-155v143h155v162h185v-162h256v-143h-256v-240q89 125 288 125z" />
    <glyph glyph-name="Itilde" unicode="&#x128;" horiz-adv-x="536" 
d="M418 1503q-45 0 -89 16.5t-73.5 37t-64.5 37t-64 16.5q-48 0 -68 -32.5t-20 -64.5h-121q0 97 53 164.5t148 67.5q58 0 114 -27.5t102 -54.5t79 -27q44 0 64 31.5t20 67.5h120q0 -94 -52.5 -163t-147.5 -69zM172 0v1327h193v-1327h-193z" />
    <glyph glyph-name="itilde" unicode="&#x129;" horiz-adv-x="503" 
d="M412 1110q-57 0 -111 27t-99.5 53.5t-80.5 26.5q-48 0 -68 -32.5t-20 -64.5h-121q0 95 53 162.5t148 67.5q58 0 114 -27t102 -53.5t79 -26.5q44 0 64 30t20 66h120q0 -93 -52.5 -161t-147.5 -68zM174 0v770h-129v150h313v-920h-184z" />
    <glyph glyph-name="Imacron" unicode="&#x12a;" horiz-adv-x="536" 
d="M-31 1550v150h600v-150h-600zM172 0v1327h193v-1327h-193z" />
    <glyph glyph-name="imacron" unicode="&#x12b;" horiz-adv-x="503" 
d="M-37 1161v152h600v-152h-600zM174 0v770h-129v150h313v-920h-184z" />
    <glyph glyph-name="Ibreve" unicode="&#x12c;" horiz-adv-x="536" 
d="M268 1440q-344 0 -344 332v22h148q0 -101 46.5 -151t149.5 -50q105 0 152 50t47 151h147v-22q0 -154 -81.5 -243t-264.5 -89zM172 0v1327h193v-1327h-193z" />
    <glyph glyph-name="ibreve" unicode="&#x12d;" horiz-adv-x="503" 
d="M262 1047q-342 0 -342 331v23h143q0 -102 48 -154.5t151 -52.5q104 0 151.5 52t47.5 155h145v-23q0 -152 -81 -241.5t-263 -89.5zM174 0v770h-129v150h313v-920h-184z" />
    <glyph glyph-name="Iogonek" unicode="&#x12e;" horiz-adv-x="536" 
d="M242 -424q-97 0 -157 47t-60 152q0 70 40.5 132.5t106.5 96.5v1323h193v-1327q-96 -28 -150.5 -82t-54.5 -123q0 -106 108 -106q61 0 103 26v-114q-52 -25 -129 -25z" />
    <glyph glyph-name="iogonek" unicode="&#x12f;" horiz-adv-x="503" 
d="M266 1137q-50 0 -81 30.5t-31 79.5t32.5 80t79.5 31q48 0 79.5 -31t31.5 -80q0 -50 -32 -80t-79 -30zM45 770v150h313v-920q-102 -28 -159.5 -81t-57.5 -124q0 -106 107 -106q62 0 104 26v-114q-52 -25 -129 -25q-95 0 -156 47t-61 144q0 81 45 144t123 101v758h-129z
" />
    <glyph glyph-name="Idotaccent" unicode="&#x130;" horiz-adv-x="536" 
d="M270 1501q-55 0 -89 34.5t-34 90.5q0 53 35.5 88t87.5 35q53 0 87 -35t34 -90t-34.5 -89t-86.5 -34zM172 0v1327h193v-1327h-193z" />
    <glyph glyph-name="dotlessi" unicode="&#x131;" horiz-adv-x="503" 
d="M174 0v770h-129v150h313v-920h-184z" />
    <glyph glyph-name="IJ" unicode="&#x132;" horiz-adv-x="1488" 
d="M172 0v1327h193v-1327h-193zM909 -20q-78 0 -150 13t-110 32v180q88 -53 225 -53q83 0 136.5 21.5t82.5 69t39.5 108t10.5 153.5v661h-332v162h524v-876q0 -241 -101.5 -356t-324.5 -115z" />
    <glyph glyph-name="ij" unicode="&#x133;" horiz-adv-x="1007" 
d="M266 1137q-50 0 -81 30.5t-31 79.5t32.5 80t79.5 31q48 0 79.5 -31t31.5 -80q0 -50 -32 -80t-79 -30zM770 1137q-50 0 -81.5 30.5t-31.5 79.5q0 48 33 79.5t80 31.5q48 0 79.5 -31t31.5 -80q0 -50 -32 -80t-79 -30zM174 0v770h-129v150h313v-920h-184zM506 -424
q-87 0 -164 25v157q60 -26 135 -26q110 0 155.5 67t45.5 199v772h-129v150h313v-912q0 -217 -84.5 -324.5t-271.5 -107.5z" />
    <glyph glyph-name="Jcircumflex" unicode="&#x134;" horiz-adv-x="956" 
d="M174 1458l348 354l350 -354h-200l-150 162l-149 -162h-199zM377 -20q-78 0 -150 13t-110 32v180q88 -53 225 -53q83 0 136.5 21.5t82 69t39 108t10.5 153.5v661h-331v162h524v-876q0 -241 -101.5 -356t-324.5 -115z" />
    <glyph glyph-name="jcircumflex" unicode="&#x135;" horiz-adv-x="503" 
d="M-94 1065l348 354l350 -354h-201l-149 160l-150 -160h-198zM2 -424q-87 0 -164 25v157q60 -26 135 -26q110 0 155.5 67t45.5 199v772h-129v150h313v-912q0 -217 -84.5 -324.5t-271.5 -107.5z" />
    <glyph glyph-name="Kcommaaccent" unicode="&#x136;" horiz-adv-x="1292" 
d="M592 676l663 -676h-260l-630 655v-655h-193v1327h193v-639l624 639h250zM649 -111q49 0 84 -34t35 -95q0 -100 -100 -184h-111q68 59 90 123q-43 -3 -72.5 22.5t-29.5 67.5q0 46 29.5 73t74.5 27z" />
    <glyph glyph-name="kcommaaccent" unicode="&#x137;" horiz-adv-x="1015" 
d="M539 494l454 -494h-241l-422 475v-475h-185v1358h185v-852l403 414h238zM520 -111q49 0 84 -34t35 -95q0 -100 -100 -184h-111q68 59 90 123q-43 -3 -72.5 22.5t-29.5 67.5q0 46 29.5 73t74.5 27z" />
    <glyph glyph-name="kgreenlandic" unicode="&#x138;" horiz-adv-x="1009" 
d="M145 0v920h185v-433l403 433h238l-432 -445l452 -475h-239l-422 453v-453h-185z" />
    <glyph glyph-name="Lacute" unicode="&#x139;" horiz-adv-x="1075" 
d="M178 1458l240 336h246l-304 -336h-182zM172 0v1327h193v-1161h636v-166h-829z" />
    <glyph glyph-name="lacute" unicode="&#x13a;" horiz-adv-x="475" 
d="M147 1503l240 336h246l-303 -336h-183zM145 0v1358h185v-1358h-185z" />
    <glyph glyph-name="Lcommaaccent" unicode="&#x13b;" horiz-adv-x="1075" 
d="M365 166h636v-166h-829v1327h193v-1161zM586 -111q49 0 84 -34t35 -95q0 -99 -101 -184h-110q68 59 90 123q-43 -3 -73 22.5t-30 67.5q0 46 29.5 73t75.5 27z" />
    <glyph glyph-name="lcommaaccent" unicode="&#x13c;" horiz-adv-x="475" 
d="M330 1358v-1358h-185v1358h185zM229 -111q49 0 84 -34t35 -95q0 -100 -100 -184h-111q68 59 90 123q-43 -3 -72.5 22.5t-29.5 67.5q0 46 29.5 73t74.5 27z" />
    <glyph glyph-name="Lcaron" unicode="&#x13d;" horiz-adv-x="1075" 
d="M604 1016q89 83 105 141q-42 -2 -70.5 24t-28.5 68q0 45 29.5 72t73.5 27q49 0 83.5 -33.5t34.5 -95.5q0 -56 -34.5 -111.5t-89.5 -91.5h-103zM365 166h636v-166h-829v1327h193v-1161z" />
    <glyph glyph-name="lcaron" unicode="&#x13e;" horiz-adv-x="700" 
d="M582 1368q49 0 83.5 -33.5t34.5 -95.5q0 -56 -35 -111.5t-90 -91.5h-102q89 83 105 142q-42 -2 -70.5 24t-28.5 68q0 45 29.5 71.5t73.5 26.5zM145 0v1358h185v-1358h-185z" />
    <glyph glyph-name="Ldot" unicode="&#x13f;" horiz-adv-x="1075" 
d="M172 0v1327h193v-1161h636v-166h-829zM809 553q-54 0 -87.5 34.5t-33.5 88.5q0 52 35 86.5t86 34.5q52 0 85.5 -34.5t33.5 -88.5t-34 -87.5t-85 -33.5z" />
    <glyph glyph-name="ldot" unicode="&#x140;" horiz-adv-x="770" 
d="M145 0v1358h185v-1358h-185zM608 559q-55 0 -89 34.5t-34 90.5q0 53 35.5 88t87.5 35q53 0 87 -35t34 -90q0 -54 -34.5 -88.5t-86.5 -34.5z" />
    <glyph glyph-name="Lslash" unicode="&#x141;" horiz-adv-x="1075" 
d="M172 0v508l-184 -102v165l184 103v653h193v-571l319 176v-168l-319 -176v-422h636v-166h-829z" />
    <glyph glyph-name="lslash" unicode="&#x142;" horiz-adv-x="610" 
d="M213 0v563l-168 -96v154l168 92v645h184v-559l166 96v-156l-166 -94v-645h-184z" />
    <glyph glyph-name="Nacute" unicode="&#x143;" horiz-adv-x="1447" 
d="M582 1458l239 336h246l-303 -336h-182zM1255 -20l-897 948v-928h-186v1348h21l897 -951v930h186v-1347h-21z" />
    <glyph glyph-name="nacute" unicode="&#x144;" horiz-adv-x="1101" 
d="M424 1065l240 336h245l-303 -336h-182zM145 0v920h168l4 -127q81 145 301 145q353 0 353 -397v-541h-185v506q0 47 -4.5 83.5t-18 74t-36 61.5t-62 39.5t-92.5 15.5q-131 0 -187 -91t-56 -259v-430h-185z" />
    <glyph glyph-name="Ncommaaccent" unicode="&#x145;" horiz-adv-x="1447" 
d="M1090 1327h186v-1347h-21l-897 948v-928h-186v1348h21l897 -951v930zM717 -111q49 0 84 -34t35 -95q0 -99 -101 -184h-110q68 59 90 123q-43 -3 -73 22.5t-30 67.5q0 46 29.5 73t75.5 27z" />
    <glyph glyph-name="ncommaaccent" unicode="&#x146;" horiz-adv-x="1101" 
d="M618 938q353 0 353 -397v-541h-185v506q0 47 -4.5 83.5t-18 74t-36 61.5t-62 39.5t-92.5 15.5q-131 0 -187 -91t-56 -259v-430h-185v920h168l4 -127q81 145 301 145zM547 -111q49 0 84 -34t35 -95q0 -99 -101 -184h-110q68 59 90 123q-43 -3 -73 22.5t-30 67.5
q0 46 29.5 73t75.5 27z" />
    <glyph glyph-name="Ncaron" unicode="&#x147;" horiz-adv-x="1447" 
d="M723 1440l-348 354h198l150 -160l149 160h201zM1255 -20l-897 948v-928h-186v1348h21l897 -951v930h186v-1347h-21z" />
    <glyph glyph-name="ncaron" unicode="&#x148;" horiz-adv-x="1101" 
d="M588 1047l-348 354h198l150 -162l149 162h201zM145 0v920h168l4 -127q81 145 301 145q353 0 353 -397v-541h-185v506q0 47 -4.5 83.5t-18 74t-36 61.5t-62 39.5t-92.5 15.5q-131 0 -187 -91t-56 -259v-430h-185z" />
    <glyph glyph-name="Eng" unicode="&#x14a;" horiz-adv-x="1447" 
d="M864 -424q-129 0 -221 33v158q85 -35 186 -35q66 0 113 15.5t75.5 42.5t45 71.5t22 93.5t5.5 117v75l-732 781v-928h-186v1348h21l897 -951v930h186v-1266q0 -248 -93.5 -366.5t-318.5 -118.5z" />
    <glyph glyph-name="eng" unicode="&#x14b;" horiz-adv-x="1101" 
d="M645 -424q-48 0 -84 8v150q24 -6 55 -6q95 0 132.5 61.5t37.5 190.5v526q0 47 -4.5 83.5t-18 74t-36 61.5t-62 39.5t-92.5 15.5q-131 0 -187 -91t-56 -259v-430h-185v920h168l4 -127q84 145 301 145q353 0 353 -397v-535q0 -78 -6 -135t-26 -116t-55 -95.5t-95 -60
t-144 -23.5z" />
    <glyph glyph-name="Omacron" unicode="&#x14c;" horiz-adv-x="1544" 
d="M475 1550v150h600v-150h-600zM768 -20q-153 0 -278.5 52.5t-208 144.5t-127.5 217t-45 270q0 197 78.5 351t231.5 243.5t357 89.5q153 0 278.5 -51.5t208.5 -142t128 -214.5t45 -268q0 -197 -78 -352.5t-231 -247.5t-359 -92zM774 158q209 0 338 142.5t129 367.5
q0 223 -130 363t-339 140q-206 0 -337.5 -140.5t-131.5 -362.5t130.5 -366t340.5 -144z" />
    <glyph glyph-name="omacron" unicode="&#x14d;" horiz-adv-x="1142" 
d="M270 1161v152h600v-152h-600zM569 -18q-222 0 -354.5 131t-132.5 344q0 211 133.5 346t357.5 135q221 0 353.5 -125.5t132.5 -343.5q0 -220 -135.5 -353.5t-354.5 -133.5zM571 141q132 0 214.5 89t82.5 235q0 143 -83 229t-214 86q-137 0 -217 -92t-80 -229
q0 -142 82.5 -230t214.5 -88z" />
    <glyph glyph-name="Obreve" unicode="&#x14e;" horiz-adv-x="1544" 
d="M774 1440q-344 0 -344 332v22h148q0 -101 46.5 -151t149.5 -50q105 0 152 50t47 151h147v-22q0 -154 -81.5 -243t-264.5 -89zM768 -20q-153 0 -278.5 52.5t-208 144.5t-127.5 217t-45 270q0 197 78.5 351t231.5 243.5t357 89.5q153 0 278.5 -51.5t208.5 -142t128 -214.5
t45 -268q0 -197 -78 -352.5t-231 -247.5t-359 -92zM774 158q209 0 338 142.5t129 367.5q0 223 -130 363t-339 140q-206 0 -337.5 -140.5t-131.5 -362.5t130.5 -366t340.5 -144z" />
    <glyph glyph-name="obreve" unicode="&#x14f;" horiz-adv-x="1142" 
d="M569 1047q-342 0 -342 331v23h144q0 -103 47.5 -155t150.5 -52q104 0 151.5 52t47.5 155h145v-23q0 -152 -81 -241.5t-263 -89.5zM569 -18q-222 0 -354.5 131t-132.5 344q0 211 133.5 346t357.5 135q221 0 353.5 -125.5t132.5 -343.5q0 -220 -135.5 -353.5t-354.5 -133.5
zM571 141q132 0 214.5 89t82.5 235q0 143 -83 229t-214 86q-137 0 -217 -92t-80 -229q0 -142 82.5 -230t214.5 -88z" />
    <glyph glyph-name="Ohungarumlaut" unicode="&#x150;" horiz-adv-x="1544" 
d="M375 1458l270 336h246l-334 -336h-182zM791 1458l272 336h244l-332 -336h-184zM768 -20q-153 0 -278.5 52.5t-208 144.5t-127.5 217t-45 270q0 197 78.5 351t231.5 243.5t357 89.5q153 0 278.5 -51.5t208.5 -142t128 -214.5t45 -268q0 -197 -78 -352.5t-231 -247.5
t-359 -92zM774 158q209 0 338 142.5t129 367.5q0 223 -130 363t-339 140q-206 0 -337.5 -140.5t-131.5 -362.5t130.5 -366t340.5 -144z" />
    <glyph glyph-name="ohungarumlaut" unicode="&#x151;" horiz-adv-x="1142" 
d="M225 1065l271 336h245l-333 -336h-183zM641 1065l272 336h244l-332 -336h-184zM569 -18q-222 0 -354.5 131t-132.5 344q0 211 133.5 346t357.5 135q221 0 353.5 -125.5t132.5 -343.5q0 -220 -135.5 -353.5t-354.5 -133.5zM571 141q132 0 214.5 89t82.5 235q0 143 -83 229
t-214 86q-137 0 -217 -92t-80 -229q0 -142 82.5 -230t214.5 -88z" />
    <glyph glyph-name="OE" unicode="&#x152;" horiz-adv-x="2113" 
d="M768 -20q-204 0 -355 91t-227.5 245t-76.5 350t79 350t230.5 243t353.5 89q162 0 287 -65.5t198 -178.5v223h764v-164h-594v-405h435v-162h-435v-430h619v-166h-789v227q-65 -110 -196 -178.5t-293 -68.5zM774 160q209 0 336 142t127 366q0 223 -129 363t-336 140
q-206 0 -337.5 -140.5t-131.5 -362.5q0 -221 130.5 -364.5t340.5 -143.5z" />
    <glyph glyph-name="oe" unicode="&#x153;" horiz-adv-x="1835" 
d="M569 -18q-222 0 -354.5 131t-132.5 344q0 211 133.5 346t357.5 135q133 0 233.5 -48.5t147.5 -137.5q56 89 151 137.5t216 48.5q209 0 320.5 -124.5t111.5 -328.5q0 -51 -6 -92h-688q24 -256 334 -256q181 0 321 84v-164q-51 -28 -143 -51.5t-205 -23.5q-144 0 -251 48.5
t-159 139.5q-61 -92 -160.5 -140t-226.5 -48zM1061 526h504q3 119 -65.5 188.5t-178.5 69.5q-109 0 -181 -70.5t-79 -187.5zM571 141q132 0 214.5 89t82.5 235q0 143 -83 229t-214 86q-137 0 -217 -92t-80 -229q0 -142 82.5 -230t214.5 -88z" />
    <glyph glyph-name="Racute" unicode="&#x154;" horiz-adv-x="1222" 
d="M940 1794l-303 -336h-182l239 336h246zM821 516l340 -516h-229l-307 487h-260v-487h-193v1327h406q89 0 162.5 -11.5t141.5 -40.5t114.5 -75t74 -120t27.5 -171q0 -163 -78 -261t-199 -132zM559 647q56 0 101.5 6t92.5 23t78.5 45t51.5 75.5t20 110.5q0 64 -21 111.5
t-54 75t-81.5 44t-93.5 22t-100 5.5h-188v-518h194z" />
    <glyph glyph-name="racute" unicode="&#x155;" horiz-adv-x="679" 
d="M283 1065l239 336h246l-303 -336h-182zM145 0v920h168l4 -134q39 69 116 110.5t169 41.5q31 0 49 -6v-168q-32 16 -82 16q-66 0 -113 -24.5t-74 -72t-39.5 -109.5t-12.5 -144v-430h-185z" />
    <glyph glyph-name="Rcommaaccent" unicode="&#x156;" horiz-adv-x="1222" 
d="M821 516l340 -516h-229l-307 487h-260v-487h-193v1327h406q89 0 162.5 -11.5t141.5 -40.5t114.5 -75t74 -120t27.5 -171q0 -163 -78 -261t-199 -132zM559 647q56 0 101.5 6t92.5 23t78.5 45t51.5 75.5t20 110.5q0 64 -21 111.5t-54 75t-81.5 44t-93.5 22t-100 5.5h-188
v-518h194zM631 -111q49 0 84 -34t35 -95q0 -99 -101 -184h-110q68 59 90 123q-43 -3 -73 22.5t-30 67.5q0 46 29.5 73t75.5 27z" />
    <glyph glyph-name="rcommaaccent" unicode="&#x157;" horiz-adv-x="679" 
d="M602 938q31 0 49 -6v-168q-32 16 -82 16q-66 0 -113 -24.5t-74 -72t-39.5 -109.5t-12.5 -144v-430h-185v920h168l4 -134q39 69 116 110.5t169 41.5zM227 -111q49 0 84 -34t35 -95q0 -100 -100 -184h-111q68 59 90 123q-43 -3 -72.5 22.5t-29.5 67.5q0 46 29.5 73t74.5 27
z" />
    <glyph glyph-name="Rcaron" unicode="&#x158;" horiz-adv-x="1222" 
d="M946 1794l-350 -354l-348 354h198l150 -160l149 160h201zM821 516l340 -516h-229l-307 487h-260v-487h-193v1327h406q89 0 162.5 -11.5t141.5 -40.5t114.5 -75t74 -120t27.5 -171q0 -163 -78 -261t-199 -132zM559 647q56 0 101.5 6t92.5 23t78.5 45t51.5 75.5t20 110.5
q0 64 -21 111.5t-54 75t-81.5 44t-93.5 22t-100 5.5h-188v-518h194z" />
    <glyph glyph-name="rcaron" unicode="&#x159;" horiz-adv-x="679" 
d="M446 1047l-348 354h199l149 -162l150 162h201zM145 0v920h168l4 -134q39 69 116 110.5t169 41.5q31 0 49 -6v-168q-32 16 -82 16q-66 0 -113 -24.5t-74 -72t-39.5 -109.5t-12.5 -144v-430h-185z" />
    <glyph glyph-name="Sacute" unicode="&#x15a;" horiz-adv-x="1013" 
d="M408 1458l239 336h246l-303 -336h-182zM481 -20q-200 0 -350 79v195q67 -44 158 -74t188 -30q118 0 181 49t63 147q0 53 -25 95t-65.5 69t-93 53.5t-106.5 48.5t-106.5 55t-93 72t-65.5 100.5t-25 139.5q0 171 109.5 270t300.5 99q90 0 175.5 -20.5t133.5 -45.5v-197
q-65 41 -144 68t-153 27q-104 0 -165.5 -49.5t-61.5 -139.5q0 -51 25 -91.5t66 -66t93 -51t107 -47t107 -55t93 -73t66 -103.5t25 -144q0 -187 -115 -283.5t-322 -96.5z" />
    <glyph glyph-name="sacute" unicode="&#x15b;" horiz-adv-x="780" 
d="M246 1065l239 336h246l-303 -336h-182zM365 -18q-79 0 -151 16t-108 37v158q127 -68 246 -68q79 0 123.5 33.5t44.5 97.5q0 43 -22.5 73t-58 48t-78.5 33.5t-86.5 35.5t-79 47t-58 74.5t-22.5 112.5q0 128 82 193t223 65q126 0 215 -43v-158q-97 58 -205 58
q-71 0 -107 -30t-36 -77q0 -37 22.5 -63t58.5 -42t80 -31t87.5 -36t79.5 -49.5t58.5 -79.5t22.5 -119q0 -143 -91 -214.5t-240 -71.5z" />
    <glyph glyph-name="Scircumflex" unicode="&#x15c;" horiz-adv-x="1013" 
d="M201 1458l348 354l350 -354h-201l-149 162l-150 -162h-198zM481 -20q-200 0 -350 79v195q67 -44 158 -74t188 -30q118 0 181 49t63 147q0 53 -25 95t-65.5 69t-93 53.5t-106.5 48.5t-106.5 55t-93 72t-65.5 100.5t-25 139.5q0 171 109.5 270t300.5 99q90 0 175.5 -20.5
t133.5 -45.5v-197q-65 41 -144 68t-153 27q-104 0 -165.5 -49.5t-61.5 -139.5q0 -51 25 -91.5t66 -66t93 -51t107 -47t107 -55t93 -73t66 -103.5t25 -144q0 -187 -115 -283.5t-322 -96.5z" />
    <glyph glyph-name="scircumflex" unicode="&#x15d;" horiz-adv-x="780" 
d="M61 1065l349 354l350 -354h-201l-149 160l-150 -160h-199zM365 -18q-79 0 -151 16t-108 37v158q127 -68 246 -68q79 0 123.5 33.5t44.5 97.5q0 43 -22.5 73t-58 48t-78.5 33.5t-86.5 35.5t-79 47t-58 74.5t-22.5 112.5q0 128 82 193t223 65q126 0 215 -43v-158
q-97 58 -205 58q-71 0 -107 -30t-36 -77q0 -37 22.5 -63t58.5 -42t80 -31t87.5 -36t79.5 -49.5t58.5 -79.5t22.5 -119q0 -143 -91 -214.5t-240 -71.5z" />
    <glyph glyph-name="Scedilla" unicode="&#x15e;" horiz-adv-x="1013" 
d="M918 360q0 -184 -111 -280.5t-311 -99.5l-21 -68q12 6 31 6q69 -2 111 -41t42 -123q0 -93 -62 -135.5t-159 -42.5q-87 0 -135 25v104q56 -29 119 -29q102 0 102 80q0 41 -23 60.5t-61 19.5q-47 0 -86 -35l-20 13l49 172q-149 17 -252 73v195q67 -44 158 -74t188 -30
q118 0 181 49t63 147q0 53 -25 95t-65.5 69t-93 53.5t-106.5 48.5t-106.5 55t-93 72t-65.5 100.5t-25 139.5q0 171 109.5 270t300.5 99q90 0 175.5 -20.5t133.5 -45.5v-197q-65 41 -144 68t-153 27q-104 0 -165.5 -49.5t-61.5 -139.5q0 -51 25 -91.5t66 -66t93 -51t107 -47
t107 -55t93 -73t66 -103.5t25 -144z" />
    <glyph glyph-name="scedilla" unicode="&#x15f;" horiz-adv-x="780" 
d="M696 268q0 -137 -85.5 -209t-225.5 -77l-20 -70q12 6 30 6q69 -2 111.5 -41t42.5 -123q0 -93 -62 -135.5t-159 -42.5q-87 0 -135 25v104q56 -29 118 -29q103 0 103 80q0 41 -23 60.5t-61 19.5q-47 0 -86 -35l-21 13l51 174q-113 15 -168 47v158q127 -68 246 -68
q79 0 123.5 33.5t44.5 97.5q0 43 -22.5 73t-58 48t-78.5 33.5t-86.5 35.5t-79 47t-58 74.5t-22.5 112.5q0 128 82 193t223 65q126 0 215 -43v-158q-97 58 -205 58q-71 0 -107 -30t-36 -77q0 -37 22.5 -63t58.5 -42t80 -31t87.5 -36t79.5 -49.5t58.5 -79.5t22.5 -119z" />
    <glyph glyph-name="Scaron" unicode="&#x160;" horiz-adv-x="1013" 
d="M549 1440l-348 354h198l150 -160l149 160h201zM481 -20q-200 0 -350 79v195q67 -44 158 -74t188 -30q118 0 181 49t63 147q0 53 -25 95t-65.5 69t-93 53.5t-106.5 48.5t-106.5 55t-93 72t-65.5 100.5t-25 139.5q0 171 109.5 270t300.5 99q90 0 175.5 -20.5t133.5 -45.5
v-197q-65 41 -144 68t-153 27q-104 0 -165.5 -49.5t-61.5 -139.5q0 -51 25 -91.5t66 -66t93 -51t107 -47t107 -55t93 -73t66 -103.5t25 -144q0 -187 -115 -283.5t-322 -96.5z" />
    <glyph glyph-name="scaron" unicode="&#x161;" horiz-adv-x="780" 
d="M410 1047l-349 354h199l150 -162l149 162h201zM365 -18q-79 0 -151 16t-108 37v158q127 -68 246 -68q79 0 123.5 33.5t44.5 97.5q0 43 -22.5 73t-58 48t-78.5 33.5t-86.5 35.5t-79 47t-58 74.5t-22.5 112.5q0 128 82 193t223 65q126 0 215 -43v-158q-97 58 -205 58
q-71 0 -107 -30t-36 -77q0 -37 22.5 -63t58.5 -42t80 -31t87.5 -36t79.5 -49.5t58.5 -79.5t22.5 -119q0 -143 -91 -214.5t-240 -71.5z" />
    <glyph glyph-name="uni0162" unicode="&#x162;" horiz-adv-x="1130" 
d="M82 1327h967v-164h-387v-1163h-193v1163h-387v164zM557 -111q49 0 84 -34t35 -95q0 -99 -101 -184h-110q68 59 90 123q-43 -3 -72.5 22.5t-29.5 67.5q0 46 29.5 73t74.5 27z" />
    <glyph glyph-name="uni0163" unicode="&#x163;" horiz-adv-x="774" 
d="M535 137q66 0 151 33v-156q-74 -32 -190 -32q-158 0 -227.5 79.5t-69.5 235.5v473h-150v21q72 64 168 179.5t145 200.5h21v-251h262v-150h-262v-444q0 -96 31 -142.5t121 -46.5zM440 -111q49 0 84 -34t35 -95q0 -100 -100 -184h-111q68 59 90 123q-43 -3 -72.5 22.5
t-29.5 67.5q0 46 29.5 73t74.5 27z" />
    <glyph glyph-name="Tcaron" unicode="&#x164;" horiz-adv-x="1130" 
d="M563 1440l-348 354h199l149 -160l150 160h200zM469 0v1163h-387v164h967v-164h-387v-1163h-193z" />
    <glyph glyph-name="tcaron" unicode="&#x165;" horiz-adv-x="808" 
d="M694 1389q50 0 84.5 -33.5t34.5 -95.5q0 -56 -35 -111.5t-90 -91.5h-102q88 82 104 141q-42 -2 -70 24t-28 68q0 45 29 72t73 27zM383 326q0 -96 31 -142.5t121 -46.5q66 0 151 33v-156q-74 -32 -190 -32q-158 0 -227.5 79.5t-69.5 235.5v473h-150v21q72 64 168 179.5
t145 200.5h21v-251h262v-150h-262v-444z" />
    <glyph glyph-name="Tbar" unicode="&#x166;" horiz-adv-x="1130" 
d="M1049 1163h-387v-477h217v-151h-217v-535h-193v535h-219v151h219v477h-387v164h967v-164z" />
    <glyph glyph-name="tbar" unicode="&#x167;" horiz-adv-x="774" 
d="M535 137q66 0 151 33v-156q-74 -32 -190 -32q-158 0 -227.5 79.5t-69.5 235.5v117h-113v141h113v215h-150v21q72 64 168 179.5t145 200.5h21v-251h262v-150h-262v-215h221v-141h-221v-88q0 -96 31 -142.5t121 -46.5z" />
    <glyph glyph-name="Utilde" unicode="&#x168;" horiz-adv-x="1343" 
d="M819 1503q-45 0 -89 16.5t-73.5 37t-64.5 37t-64 16.5q-48 0 -68 -32.5t-20 -64.5h-121q0 97 53 164.5t148 67.5q58 0 114 -27.5t102 -54.5t79 -27q44 0 64 31.5t20 67.5h121q0 -94 -53 -163t-148 -69zM672 -20q-263 0 -389.5 135.5t-126.5 419.5v792h190v-752
q0 -214 73.5 -317.5t252.5 -103.5q175 0 250 102.5t75 318.5v752h191v-790q0 -291 -129 -424t-387 -133z" />
    <glyph glyph-name="utilde" unicode="&#x169;" horiz-adv-x="1046" 
d="M670 1110q-57 0 -111 27t-99.5 53.5t-80.5 26.5q-48 0 -68 -32.5t-20 -64.5h-121q0 95 53 162.5t148 67.5q58 0 114 -27t102 -53.5t79 -26.5q44 0 64 30t20 66h120q0 -93 -52.5 -161t-147.5 -68zM522 -18q-90 0 -159.5 23.5t-112.5 61.5t-70.5 92.5t-38 111.5t-10.5 124
v525h184v-523q0 -260 209 -260q211 0 211 260v523h180v-525q0 -65 -10 -120.5t-37.5 -111t-70 -94.5t-113 -63t-162.5 -24z" />
    <glyph glyph-name="Umacron" unicode="&#x16a;" horiz-adv-x="1343" 
d="M371 1550v150h600v-150h-600zM672 -20q-263 0 -389.5 135.5t-126.5 419.5v792h190v-752q0 -214 73.5 -317.5t252.5 -103.5q175 0 250 102.5t75 318.5v752h191v-790q0 -291 -129 -424t-387 -133z" />
    <glyph glyph-name="umacron" unicode="&#x16b;" horiz-adv-x="1046" 
d="M221 1161v152h600v-152h-600zM522 -18q-90 0 -159.5 23.5t-112.5 61.5t-70.5 92.5t-38 111.5t-10.5 124v525h184v-523q0 -260 209 -260q211 0 211 260v523h180v-525q0 -65 -10 -120.5t-37.5 -111t-70 -94.5t-113 -63t-162.5 -24z" />
    <glyph glyph-name="Ubreve" unicode="&#x16c;" horiz-adv-x="1343" 
d="M670 1440q-344 0 -344 332v22h147q0 -101 47 -151t150 -50q105 0 151.5 50t46.5 151h148v-22q0 -154 -81.5 -243t-264.5 -89zM672 -20q-263 0 -389.5 135.5t-126.5 419.5v792h190v-752q0 -214 73.5 -317.5t252.5 -103.5q175 0 250 102.5t75 318.5v752h191v-790
q0 -291 -129 -424t-387 -133z" />
    <glyph glyph-name="ubreve" unicode="&#x16d;" horiz-adv-x="1046" 
d="M520 1047q-342 0 -342 331v23h144q0 -103 47.5 -155t150.5 -52q104 0 151.5 52t47.5 155h145v-23q0 -152 -81 -241.5t-263 -89.5zM522 -18q-90 0 -159.5 23.5t-112.5 61.5t-70.5 92.5t-38 111.5t-10.5 124v525h184v-523q0 -260 209 -260q211 0 211 260v523h180v-525
q0 -65 -10 -120.5t-37.5 -111t-70 -94.5t-113 -63t-162.5 -24z" />
    <glyph glyph-name="Uring" unicode="&#x16e;" horiz-adv-x="1343" 
d="M672 1413q-92 0 -154.5 61t-62.5 150q0 88 62.5 149.5t154.5 61.5t154.5 -61.5t62.5 -149.5q0 -89 -62.5 -150t-154.5 -61zM672 1513q46 0 76 31t30 80q0 46 -30.5 78.5t-75.5 32.5t-76 -31t-31 -80t31 -80t76 -31zM672 -20q-263 0 -389.5 135.5t-126.5 419.5v792h190
v-752q0 -214 73.5 -317.5t252.5 -103.5q175 0 250 102.5t75 318.5v752h191v-790q0 -291 -129 -424t-387 -133z" />
    <glyph glyph-name="uring" unicode="&#x16f;" horiz-adv-x="1046" 
d="M522 1044q-92 0 -154.5 61t-62.5 150q0 88 62.5 149.5t154.5 61.5t154.5 -61.5t62.5 -149.5q0 -89 -62.5 -150t-154.5 -61zM522 1145q46 0 76.5 30.5t30.5 79.5q0 46 -31 78.5t-76 32.5t-75.5 -31t-30.5 -80t30.5 -79.5t75.5 -30.5zM522 -18q-90 0 -159.5 23.5
t-112.5 61.5t-70.5 92.5t-38 111.5t-10.5 124v525h184v-523q0 -260 209 -260q211 0 211 260v523h180v-525q0 -65 -10 -120.5t-37.5 -111t-70 -94.5t-113 -63t-162.5 -24z" />
    <glyph glyph-name="Uhungarumlaut" unicode="&#x170;" horiz-adv-x="1343" 
d="M270 1458l271 336h245l-333 -336h-183zM686 1458l272 336h244l-332 -336h-184zM672 -20q-263 0 -389.5 135.5t-126.5 419.5v792h190v-752q0 -214 73.5 -317.5t252.5 -103.5q175 0 250 102.5t75 318.5v752h191v-790q0 -291 -129 -424t-387 -133z" />
    <glyph glyph-name="uhungarumlaut" unicode="&#x171;" horiz-adv-x="1046" 
d="M176 1065l270 336h246l-334 -336h-182zM592 1065l272 336h244l-332 -336h-184zM522 -18q-90 0 -159.5 23.5t-112.5 61.5t-70.5 92.5t-38 111.5t-10.5 124v525h184v-523q0 -260 209 -260q211 0 211 260v523h180v-525q0 -65 -10 -120.5t-37.5 -111t-70 -94.5t-113 -63
t-162.5 -24z" />
    <glyph glyph-name="Uogonek" unicode="&#x172;" horiz-adv-x="1343" 
d="M815 -424q-95 0 -156 47t-61 144q0 70 35 128t94 89q-24 -4 -55 -4q-263 0 -389.5 135.5t-126.5 419.5v792h190v-752q0 -214 73.5 -317.5t252.5 -103.5q175 0 250 102.5t75 318.5v752h191v-795q0 -125 -25 -220.5t-65.5 -151.5t-89.5 -97t-97.5 -67.5t-89 -52
t-65.5 -62.5t-25 -88q0 -104 109 -104q66 0 102 26v-114q-52 -25 -127 -25z" />
    <glyph glyph-name="uogonek" unicode="&#x173;" horiz-adv-x="1046" 
d="M655 -424q-96 0 -156.5 47t-60.5 144q0 72 36.5 131t92.5 88q-10 -4 -45 -4q-90 0 -159.5 23.5t-112.5 61.5t-70.5 92.5t-38 111.5t-10.5 124v525h184v-523q0 -260 209 -260q211 0 211 260v523h180v-533q0 -84 -19 -151t-49.5 -110.5t-67 -78.5t-73 -62t-67 -53.5
t-49.5 -61.5t-19 -77q0 -50 28 -77t81 -27q66 0 102 26v-114q-52 -25 -127 -25z" />
    <glyph glyph-name="Wcircumflex" unicode="&#x174;" horiz-adv-x="1968" 
d="M635 1458l348 354l350 -354h-200l-150 162l-149 -162h-199zM594 -18l-531 1345h211l338 -907l363 907h20l363 -907l342 907h205l-529 -1345h-20l-371 923l-371 -923h-20z" />
    <glyph glyph-name="wcircumflex" unicode="&#x175;" horiz-adv-x="1468" 
d="M389 1065l348 354l350 -354h-200l-150 160l-149 -160h-199zM461 -18l-416 938h203l229 -566l252 566h21l247 -566l230 566h196l-407 -938h-21l-256 581l-258 -581h-20z" />
    <glyph glyph-name="Ycircumflex" unicode="&#x176;" horiz-adv-x="1232" 
d="M264 1458l348 354l351 -354h-201l-150 162l-149 -162h-199zM518 0v526l-471 801h211l360 -633l363 633h205l-475 -801v-526h-193z" />
    <glyph glyph-name="ycircumflex" unicode="&#x177;" horiz-adv-x="1013" 
d="M156 1065l348 354l350 -354h-201l-149 160l-150 -160h-198zM207 -406l203 457l-379 869h202l273 -664l278 664h199l-577 -1326h-199z" />
    <glyph glyph-name="Ydieresis" unicode="&#x178;" horiz-adv-x="1232" 
d="M412 1499q-54 0 -88.5 35.5t-34.5 89.5t34.5 89.5t88.5 35.5t88.5 -35.5t34.5 -89.5t-34.5 -89.5t-88.5 -35.5zM813 1499q-54 0 -88.5 35.5t-34.5 89.5t34.5 89.5t88.5 35.5t88.5 -35.5t34.5 -89.5t-34.5 -89.5t-88.5 -35.5zM518 0v526l-471 801h211l360 -633l363 633
h205l-475 -801v-526h-193z" />
    <glyph glyph-name="Zacute" unicode="&#x179;" horiz-adv-x="1212" 
d="M463 1458l239 336h246l-303 -336h-182zM96 0v20l717 1143h-680v164h983v-20l-715 -1141h719v-166h-1024z" />
    <glyph glyph-name="zacute" unicode="&#x17a;" horiz-adv-x="960" 
d="M315 1065l240 336h246l-303 -336h-183zM76 0v20l518 750h-483v150h774v-21l-518 -747h526v-152h-817z" />
    <glyph glyph-name="Zdotaccent" unicode="&#x17b;" horiz-adv-x="1212" 
d="M606 1501q-55 0 -89 34.5t-34 90.5q0 53 35.5 88t87.5 35q53 0 87 -35t34 -90t-34.5 -89t-86.5 -34zM96 0v20l717 1143h-680v164h983v-20l-715 -1141h719v-166h-1024z" />
    <glyph glyph-name="zdotaccent" unicode="&#x17c;" horiz-adv-x="960" 
d="M481 1137q-50 0 -81 30.5t-31 79.5t32.5 80t79.5 31t79 -31t32 -80t-32.5 -79.5t-78.5 -30.5zM76 0v20l518 750h-483v150h774v-21l-518 -747h526v-152h-817z" />
    <glyph glyph-name="Zcaron" unicode="&#x17d;" horiz-adv-x="1212" 
d="M604 1440l-348 354h199l149 -160l150 160h200zM96 0v20l717 1143h-680v164h983v-20l-715 -1141h719v-166h-1024z" />
    <glyph glyph-name="zcaron" unicode="&#x17e;" horiz-adv-x="960" 
d="M479 1047l-348 354h199l149 -162l150 162h200zM76 0v20l518 750h-483v150h774v-21l-518 -747h526v-152h-817z" />
    <glyph glyph-name="longs" unicode="&#x17f;" horiz-adv-x="727" 
d="M221 0v770h-158v150h158v84q0 192 84 287t266 95q111 0 181 -32v-162q-77 35 -160 35q-104 0 -145 -57t-41 -179v-991h-185z" />
    <glyph glyph-name="florin" unicode="&#x192;" horiz-adv-x="948" 
d="M61 -424q-80 0 -137 23v159q65 -20 115 -20q95 0 132 56t62 204l101 573h-193v160h221l39 223q18 98 44.5 167.5t70 122.5t108 78.5t152.5 25.5q82 0 139 -23v-166q-59 23 -114 23q-92 0 -138.5 -59.5t-70.5 -196.5l-35 -195h264v-160h-293l-104 -602q-13 -73 -27 -123.5
t-41.5 -105.5t-64 -88t-95 -54.5t-135.5 -21.5z" />
    <glyph glyph-name="uni01CD" unicode="&#x1cd;" horiz-adv-x="1320" 
d="M659 1440l-348 354h199l149 -160l150 160h201zM47 0l604 1348h21l602 -1348h-205l-113 262h-598l-112 -262h-199zM424 422h471l-236 547z" />
    <glyph glyph-name="uni01CE" unicode="&#x1ce;" horiz-adv-x="1015" 
d="M848 1401l-350 -354l-348 354h198l150 -162l149 162h201zM500 938q200 0 292.5 -96.5t92.5 -286.5v-555h-168l-2 109q-87 -127 -291 -127q-157 0 -249.5 80.5t-92.5 213.5q0 145 102 226.5t285 81.5q128 0 231 -49v24q0 227 -233 227q-84 0 -162 -27t-127 -57v164
q141 72 322 72zM467 115q112 0 172.5 66.5t60.5 189.5v30q-84 52 -217 52q-98 0 -153.5 -43.5t-55.5 -124.5q0 -79 52.5 -124.5t140.5 -45.5z" />
    <glyph glyph-name="AEacute" unicode="&#x1fc;" horiz-adv-x="1832" 
d="M682 1458l240 336h245l-303 -336h-182zM47 0l596 1327h610l74 -164h-573l182 -405h446l74 -162h-448l192 -430h576l75 -166h-782l-113 262h-598l-112 -262h-199zM426 422h469l-236 547z" />
    <glyph glyph-name="aeacute" unicode="&#x1fd;" horiz-adv-x="1656" 
d="M1202 1401l-303 -336h-182l239 336h246zM1575 485q0 -51 -6 -92h-688q23 -254 333 -254q185 0 322 82v-164q-51 -28 -144 -51.5t-206 -23.5q-141 0 -247.5 44.5t-154.5 131.5q-36 -73 -118.5 -124.5t-223.5 -51.5q-170 0 -265 80t-95 214q0 145 103 226.5t288 81.5
q127 0 227 -49v24q0 227 -229 227q-87 0 -165 -26.5t-128 -57.5v164q141 72 324 72q120 0 194 -44.5t109 -113.5q51 73 138.5 115.5t199.5 42.5q209 0 320.5 -124.5t111.5 -328.5zM1386 526q3 119 -65 188.5t-178 69.5q-109 0 -181 -70.5t-79 -187.5h503zM467 115
q112 0 172.5 66.5t60.5 189.5v30q-84 52 -217 52q-98 0 -153.5 -43.5t-55.5 -124.5q0 -79 52.5 -124.5t140.5 -45.5z" />
    <glyph glyph-name="Oslashacute" unicode="&#x1fe;" horiz-adv-x="1544" 
d="M637 1458l240 336h245l-303 -336h-182zM109 -61l174 237q-174 186 -174 488q0 197 78.5 351t231.5 243.5t357 89.5q176 0 320 -72l96 131h194l-161 -217q102 -90 156.5 -224.5t54.5 -293.5q0 -197 -78 -352.5t-231 -247.5t-359 -92q-205 0 -362 98l-103 -139h-194z
M403 340l580 782q-84 49 -211 49q-206 0 -337.5 -140.5t-131.5 -362.5q0 -191 100 -328zM774 158q209 0 338 142.5t129 367.5q0 112 -35 205.5t-96 156.5l-590 -797q97 -75 254 -75z" />
    <glyph glyph-name="oslashacute" unicode="&#x1ff;" horiz-adv-x="1142" 
d="M395 1065l240 336h246l-303 -336h-183zM129 -61l109 153q-74 64 -115 158t-41 207q0 211 133.5 346t357.5 135q124 0 224 -43l61 86h156l-107 -150q152 -130 152 -362q0 -220 -135.5 -353.5t-354.5 -133.5q-129 0 -225 47l-63 -90h-152zM342 248l356 504q-51 28 -127 28
q-137 0 -217 -92t-80 -229q0 -130 68 -211zM571 141q132 0 214.5 89t82.5 235q0 128 -67 211l-359 -506q50 -29 129 -29z" />
    <glyph glyph-name="Scommaaccent" unicode="&#x218;" horiz-adv-x="1013" 
d="M336 991q0 -51 25 -91.5t66 -66t93 -51t107 -47t107 -55t93 -73t66 -103.5t25 -144q0 -187 -115 -283.5t-322 -96.5q-200 0 -350 79v195q67 -44 158 -74t188 -30q118 0 181 49t63 147q0 53 -25 95t-65.5 69t-93 53.5t-106.5 48.5t-106.5 55t-93 72t-65.5 100.5t-25 139.5
q0 171 109.5 270t300.5 99q90 0 175.5 -20.5t133.5 -45.5v-197q-65 41 -144 68t-153 27q-104 0 -165.5 -49.5t-61.5 -139.5zM471 -111q49 0 84 -34t35 -95q0 -99 -101 -184h-110q68 59 90 123q-43 -3 -72.5 22.5t-29.5 67.5q0 46 29.5 73t74.5 27z" />
    <glyph glyph-name="scommaaccent" unicode="&#x219;" horiz-adv-x="780" 
d="M287 688q0 -37 22.5 -63t58.5 -42t80 -31t87.5 -36t79.5 -49.5t58.5 -79.5t22.5 -119q0 -143 -91 -214.5t-240 -71.5q-79 0 -151 16t-108 37v158q127 -68 246 -68q79 0 123.5 33.5t44.5 97.5q0 43 -22.5 73t-58 48t-78.5 33.5t-86.5 35.5t-79 47t-58 74.5t-22.5 112.5
q0 128 82 193t223 65q126 0 215 -43v-158q-97 58 -205 58q-71 0 -107 -30t-36 -77zM360 -111q49 0 84 -34t35 -95q0 -100 -100 -184h-111q68 59 90 123q-43 -3 -72.5 22.5t-29.5 67.5q0 46 29.5 73t74.5 27z" />
    <glyph glyph-name="uni021A" unicode="&#x21a;" horiz-adv-x="1130" 
d="M82 1327h967v-164h-387v-1163h-193v1163h-387v164zM557 -111q49 0 84 -34t35 -95q0 -99 -101 -184h-110q68 59 90 123q-43 -3 -72.5 22.5t-29.5 67.5q0 46 29.5 73t74.5 27z" />
    <glyph glyph-name="uni021B" unicode="&#x21b;" horiz-adv-x="774" 
d="M535 137q66 0 151 33v-156q-74 -32 -190 -32q-158 0 -227.5 79.5t-69.5 235.5v473h-150v21q72 64 168 179.5t145 200.5h21v-251h262v-150h-262v-444q0 -96 31 -142.5t121 -46.5zM440 -111q49 0 84 -34t35 -95q0 -100 -100 -184h-111q68 59 90 123q-43 -3 -72.5 22.5
t-29.5 67.5q0 46 29.5 73t74.5 27z" />
    <glyph glyph-name="uni0237" unicode="&#x237;" horiz-adv-x="503" 
d="M2 -424q-87 0 -164 25v157q60 -26 135 -26q110 0 155.5 67t45.5 199v772h-129v150h313v-912q0 -217 -84.5 -324.5t-271.5 -107.5z" />
    <glyph glyph-name="circumflex" unicode="&#x2c6;" horiz-adv-x="1032" 
d="M182 1065l348 354l351 -354h-201l-150 160l-149 -160h-199z" />
    <glyph glyph-name="caron" unicode="&#x2c7;" horiz-adv-x="1032" 
d="M530 1047l-348 354h199l149 -162l150 162h201z" />
    <glyph glyph-name="breve" unicode="&#x2d8;" horiz-adv-x="1034" 
d="M530 1047q-342 0 -342 331v23h144q0 -103 47.5 -155t150.5 -52q104 0 151.5 52t47.5 155h145v-23q0 -152 -81 -241.5t-263 -89.5z" />
    <glyph glyph-name="dotaccent" unicode="&#x2d9;" horiz-adv-x="1071" 
d="M571 1137q-50 0 -81 30.5t-31 79.5t32.5 80t79.5 31t79 -31t32 -80t-32.5 -79.5t-78.5 -30.5z" />
    <glyph glyph-name="ring" unicode="&#x2da;" horiz-adv-x="1054" 
d="M553 1044q-92 0 -154.5 61t-62.5 150q0 88 62.5 149.5t154.5 61.5t154.5 -61.5t62.5 -149.5q0 -89 -62.5 -150t-154.5 -61zM553 1145q46 0 76 30.5t30 79.5q0 46 -30.5 78.5t-75.5 32.5t-76 -31t-31 -80t31 -79.5t76 -30.5z" />
    <glyph glyph-name="ogonek" unicode="&#x2db;" horiz-adv-x="1060" 
d="M674 -424q-96 0 -156.5 47t-60.5 144q0 101 70 174t182 100l104 -35q-223 -69 -223 -211q0 -106 108 -106q67 0 103 26v-114q-52 -25 -127 -25z" />
    <glyph glyph-name="tilde" unicode="&#x2dc;" horiz-adv-x="1032" 
d="M680 1110q-57 0 -111 27t-99.5 53.5t-80.5 26.5q-48 0 -68 -32.5t-20 -64.5h-121q0 95 53 162.5t148 67.5q58 0 114 -27t102 -53.5t79 -26.5q44 0 64 30t20 66h121q0 -92 -53 -160.5t-148 -68.5z" />
    <glyph glyph-name="hungarumlaut" unicode="&#x2dd;" horiz-adv-x="1013" 
d="M45 1065l270 336h246l-334 -336h-182zM461 1065l272 336h244l-332 -336h-184z" />
    <glyph glyph-name="gravecomb" unicode="&#x300;" horiz-adv-x="0" 
d="M-467 1065l-303 336h246l239 -336h-182z" />
    <glyph glyph-name="acutecomb" unicode="&#x301;" horiz-adv-x="0" 
d="M-770 1065l240 336h245l-303 -336h-182z" />
    <glyph glyph-name="uni0302" unicode="&#x302;" horiz-adv-x="0" 
d="M-866 1065l348 354l350 -354h-201l-149 160l-150 -160h-198z" />
    <glyph glyph-name="tildecomb" unicode="&#x303;" horiz-adv-x="0" 
d="M-367 1110q-45 0 -89 16.5t-73 37t-64 37t-64 16.5q-48 0 -68 -32.5t-20 -64.5h-121q0 96 52.5 163t147.5 67q58 0 114 -27t102 -53.5t79 -26.5q44 0 64 30t20 66h121q0 -92 -53 -160.5t-148 -68.5z" />
    <glyph glyph-name="uni0304" unicode="&#x304;" horiz-adv-x="0" 
d="M-821 1161v152h600v-152h-600z" />
    <glyph glyph-name="uni0306" unicode="&#x306;" horiz-adv-x="0" 
d="M-516 1047q-342 0 -342 331v23h143q0 -102 48 -154.5t151 -52.5q104 0 151.5 52t47.5 155h145v-23q0 -152 -81 -241.5t-263 -89.5z" />
    <glyph glyph-name="uni0307" unicode="&#x307;" horiz-adv-x="0" 
d="M-535 1137q-50 0 -81 30.5t-31 79.5t32.5 80t79.5 31t79 -31t32 -80t-32.5 -79.5t-78.5 -30.5z" />
    <glyph glyph-name="uni0308" unicode="&#x308;" horiz-adv-x="0" 
d="M-717 1137q-50 0 -81 30.5t-31 79.5t32.5 80t79.5 31q48 0 79.5 -31t31.5 -80q0 -50 -32 -80t-79 -30zM-317 1137q-50 0 -80.5 30.5t-30.5 79.5t32 80t79 31q48 0 79 -31t31 -80q0 -50 -31.5 -80t-78.5 -30z" />
    <glyph glyph-name="uni030A" unicode="&#x30a;" horiz-adv-x="0" 
d="M-528 1044q-92 0 -154.5 61t-62.5 150q0 88 62.5 149.5t154.5 61.5t154.5 -61.5t62.5 -149.5q0 -89 -62.5 -150t-154.5 -61zM-528 1145q46 0 76 30.5t30 79.5q0 46 -30.5 78.5t-75.5 32.5t-76 -31t-31 -80t31 -79.5t76 -30.5z" />
    <glyph glyph-name="uni030B" unicode="&#x30b;" horiz-adv-x="0" 
d="M-973 1065l271 336h245l-334 -336h-182zM-557 1065l272 336h244l-332 -336h-184z" />
    <glyph glyph-name="uni030C" unicode="&#x30c;" horiz-adv-x="0" 
d="M-518 1047l-348 354h198l150 -162l149 162h201z" />
    <glyph glyph-name="uni0315" unicode="&#x315;" horiz-adv-x="0" 
d="M-528 1348q49 0 83.5 -33.5t34.5 -95.5q0 -56 -35 -111.5t-90 -91.5h-102q89 83 105 141q-42 -2 -70.5 24t-28.5 68q0 45 29.5 72t73.5 27z" />
    <glyph glyph-name="uni0326" unicode="&#x326;" horiz-adv-x="0" 
d="M-522 -111q49 0 84 -34t35 -95q0 -99 -101 -184h-110q68 59 90 123q-43 -3 -73 22.5t-30 67.5q0 46 29.5 73t75.5 27z" />
    <glyph glyph-name="uni0327" unicode="&#x327;" horiz-adv-x="0" 
d="M-590 -424q-87 0 -135 25v104q56 -29 119 -29q102 0 102 80q0 41 -23 60.5t-61 19.5q-47 0 -86 -35l-20 13l65 225h115l-39 -127q12 6 31 6q69 -2 111 -41t42 -123q0 -93 -62 -135.5t-159 -42.5z" />
    <glyph glyph-name="uni0328" unicode="&#x328;" horiz-adv-x="0" 
d="M-422 -424q-96 0 -156.5 47t-60.5 144q0 101 70 174t182 100l104 -35q-223 -69 -223 -211q0 -106 109 -106q66 0 102 26v-114q-52 -25 -127 -25z" />
    <glyph glyph-name="uni0374" unicode="&#x374;" horiz-adv-x="409" 
d="M39 844l145 483h199l-205 -483h-139z" />
    <glyph glyph-name="uni0375" unicode="&#x375;" horiz-adv-x="409" 
d="M16 -283l146 484h198l-204 -484h-140z" />
    <glyph glyph-name="uni037E" unicode="&#x37e;" horiz-adv-x="509" 
d="M264 616q-54 0 -87.5 34.5t-33.5 88.5q0 52 35 86.5t86 34.5q52 0 85.5 -34.5t33.5 -88.5q0 -53 -33.5 -87t-85.5 -34zM254 225q65 0 104 -44t39 -128q0 -83 -45 -168t-121 -141h-120q56 52 90 117.5t45 120.5q-55 0 -89 32.5t-34 85.5q0 57 36 91t95 34z" />
    <glyph glyph-name="tonos" unicode="&#x384;" horiz-adv-x="1060" 
d="M311 1069l146 332h221l-191 -332h-176z" />
    <glyph glyph-name="dieresistonos" unicode="&#x385;" horiz-adv-x="1228" 
d="M422 1069l72 332h204l-131 -332h-145zM240 1069q-50 0 -81.5 31.5t-31.5 81.5q0 48 33 79t80 31t78.5 -31t31.5 -81q0 -49 -31.5 -80t-78.5 -31zM819 1069q-49 0 -80.5 31.5t-31.5 81.5q0 48 32.5 79t79.5 31t78 -31t31 -81q0 -48 -32 -79.5t-77 -31.5z" />
    <glyph glyph-name="Alphatonos" unicode="&#x386;" horiz-adv-x="1275" 
d="M2 0l604 1348h21l602 -1348h-205l-113 262h-598l-112 -262h-199zM29 991l141 336h205l-189 -336h-157zM379 422h471l-236 547z" />
    <glyph glyph-name="anoteleia" unicode="&#x387;" horiz-adv-x="530" 
d="M266 352q-54 0 -87.5 34.5t-33.5 88.5q0 52 35 86.5t86 34.5q52 0 85.5 -34.5t33.5 -88.5q0 -53 -33.5 -87t-85.5 -34z" />
    <glyph glyph-name="Epsilontonos" unicode="&#x388;" horiz-adv-x="1351" 
d="M0 991l141 336h205l-188 -336h-158zM473 0v1327h784v-164h-591v-405h432v-162h-432v-430h616v-166h-809z" />
    <glyph glyph-name="Etatonos" unicode="&#x389;" horiz-adv-x="1730" 
d="M0 991l141 336h205l-188 -336h-158zM473 0v1327h193v-569h700v569h193v-1327h-193v592h-700v-592h-193z" />
    <glyph glyph-name="Iotatonos" unicode="&#x38a;" horiz-adv-x="837" 
d="M0 991l141 336h205l-188 -336h-158zM473 0v1327h193v-1327h-193z" />
    <glyph glyph-name="Omicrontonos" unicode="&#x38c;" horiz-adv-x="1714" 
d="M938 -20q-153 0 -278.5 52.5t-208 144.5t-127.5 217t-45 270q0 197 78.5 351t231.5 243.5t357 89.5q153 0 278.5 -51.5t208.5 -142t128 -214.5t45 -268q0 -197 -78 -352.5t-231 -247.5t-359 -92zM0 991l141 336h205l-188 -336h-158zM944 158q209 0 338 142.5t129 367.5
q0 223 -130 363t-339 140q-206 0 -337.5 -140.5t-131.5 -362.5t130.5 -366t340.5 -144z" />
    <glyph glyph-name="Upsilontonos" unicode="&#x38e;" horiz-adv-x="1617" 
d="M0 991l141 336h205l-188 -336h-158zM903 0v526l-471 801h211l361 -633l362 633h205l-475 -801v-526h-193z" />
    <glyph glyph-name="Omegatonos" unicode="&#x38f;" horiz-adv-x="1789" 
d="M1642 670q0 -171 -70 -302t-198 -202h268v-166h-548v166q157 43 255.5 173t98.5 329q0 222 -130.5 362.5t-336.5 140.5t-338.5 -140.5t-132.5 -362.5q0 -198 99 -328t257 -174v-166h-551v166h267q-126 73 -196.5 202t-70.5 296q0 197 79 351t231.5 243.5t357.5 89.5
q154 0 279 -51.5t208 -142.5t127.5 -215t44.5 -269zM141 1327h205l-188 -336h-158z" />
    <glyph glyph-name="iotadieresistonos" unicode="&#x390;" horiz-adv-x="503" 
d="M154 1069l71 332h205l-131 -332h-145zM-29 1069q-49 0 -80.5 31.5t-31.5 81.5q0 48 32.5 79t79.5 31t79 -31t32 -81q0 -49 -32 -80t-79 -31zM551 1069q-49 0 -81 31.5t-32 81.5q0 48 33 79t80 31t77.5 -31t30.5 -81q0 -49 -31.5 -80t-76.5 -31zM174 0v770h-129v150h313
v-920h-184z" />
    <glyph glyph-name="Alpha" unicode="&#x391;" horiz-adv-x="1320" 
d="M47 0l604 1348h21l602 -1348h-205l-113 262h-598l-112 -262h-199zM424 422h471l-236 547z" />
    <glyph glyph-name="Beta" unicode="&#x392;" horiz-adv-x="1208" 
d="M860 702q39 -8 73.5 -22t69 -40t58.5 -61t39.5 -88t15.5 -118q0 -94 -35 -164.5t-86.5 -109t-125 -62t-136.5 -30.5t-135 -7h-426v1327h332q62 0 112 -3t107.5 -12t100.5 -24.5t84.5 -42.5t68.5 -64t43 -90t16 -120q0 -112 -50.5 -179t-125.5 -90zM842 961q0 47 -13 82.5
t-39 57.5t-54.5 36t-72 20t-77.5 8t-84 2h-137v-413h139q48 0 82.5 2t77 8.5t71.5 20.5t55 36t39 57.5t13 82.5zM596 164q57 0 102.5 5.5t88 20.5t71 38.5t45.5 62.5t17 90q0 64 -24 108t-70 66.5t-98.5 31.5t-123.5 9h-239v-432h231z" />
    <glyph glyph-name="Gamma" unicode="&#x393;" horiz-adv-x="1001" 
d="M963 1327v-164h-598v-1163h-193v1327h791z" />
    <glyph glyph-name="uni0394" unicode="&#x394;" horiz-adv-x="1318" 
d="M670 1348l604 -1348h-1229l604 1348h21zM995 166l-338 790l-340 -790h678z" />
    <glyph glyph-name="Epsilon" unicode="&#x395;" horiz-adv-x="1050" 
d="M172 0v1327h784v-164h-591v-405h432v-162h-432v-430h616v-166h-809z" />
    <glyph glyph-name="Zeta" unicode="&#x396;" horiz-adv-x="1212" 
d="M96 0v20l717 1143h-680v164h983v-20l-715 -1141h719v-166h-1024z" />
    <glyph glyph-name="Eta" unicode="&#x397;" horiz-adv-x="1429" 
d="M172 0v1327h193v-569h700v569h192v-1327h-192v592h-700v-592h-193z" />
    <glyph glyph-name="Theta" unicode="&#x398;" horiz-adv-x="1544" 
d="M768 -20q-153 0 -278.5 52.5t-208 144.5t-127.5 217t-45 270q0 197 78.5 351t231.5 243.5t357 89.5q153 0 278.5 -51.5t208.5 -142t128 -214.5t45 -268q0 -197 -78 -352.5t-231 -247.5t-359 -92zM774 158q209 0 338 142.5t129 367.5q0 223 -130 363t-339 140
q-206 0 -337.5 -140.5t-131.5 -362.5t130.5 -366t340.5 -144zM471 592v166h602v-166h-602z" />
    <glyph glyph-name="Iota" unicode="&#x399;" horiz-adv-x="536" 
d="M172 0v1327h193v-1327h-193z" />
    <glyph glyph-name="Kappa" unicode="&#x39a;" horiz-adv-x="1292" 
d="M172 0v1327h193v-639l624 639h250l-647 -651l663 -676h-260l-630 655v-655h-193z" />
    <glyph glyph-name="Lambda" unicode="&#x39b;" horiz-adv-x="1300" 
d="M1253 0h-204l-400 963l-403 -963h-199l594 1348h21z" />
    <glyph glyph-name="Mu" unicode="&#x39c;" horiz-adv-x="1732" 
d="M856 -20l-401 849l-152 -829h-192l264 1348h20l471 -994l473 994h21l262 -1348h-188l-154 829l-403 -849h-21z" />
    <glyph glyph-name="Nu" unicode="&#x39d;" horiz-adv-x="1447" 
d="M1255 -20l-897 948v-928h-186v1348h21l897 -951v930h186v-1347h-21z" />
    <glyph glyph-name="Xi" unicode="&#x39e;" horiz-adv-x="1116" 
d="M100 1163v164h916v-164h-916zM223 596v162h674v-162h-674zM90 0v166h936v-166h-936z" />
    <glyph glyph-name="Omicron" unicode="&#x39f;" horiz-adv-x="1544" 
d="M768 -20q-153 0 -278.5 52.5t-208 144.5t-127.5 217t-45 270q0 197 78.5 351t231.5 243.5t357 89.5q153 0 278.5 -51.5t208.5 -142t128 -214.5t45 -268q0 -197 -78 -352.5t-231 -247.5t-359 -92zM774 158q209 0 338 142.5t129 367.5q0 223 -130 363t-339 140
q-206 0 -337.5 -140.5t-131.5 -362.5t130.5 -366t340.5 -144z" />
    <glyph glyph-name="Pi" unicode="&#x3a0;" horiz-adv-x="1406" 
d="M172 1327h1063v-1327h-193v1163h-677v-1163h-193v1327z" />
    <glyph glyph-name="Rho" unicode="&#x3a1;" horiz-adv-x="1191" 
d="M561 1327q97 0 173 -10t149.5 -38t121.5 -74.5t77.5 -124t29.5 -181.5q0 -82 -19.5 -148.5t-50 -111t-78 -77.5t-94.5 -51.5t-107.5 -29t-109 -13.5t-108.5 -3h-180v-465h-193v1327h389zM537 627q63 0 113.5 5.5t102.5 23t86.5 46.5t56.5 78.5t22 116.5q0 57 -14 101
t-41.5 72.5t-61 48t-79.5 29t-88.5 13.5t-96.5 4h-172v-538h172z" />
    <glyph glyph-name="Sigma" unicode="&#x3a3;" horiz-adv-x="1157" 
d="M428 166h647v-166h-983v20l479 652l-473 635v20h957v-164h-623l369 -493z" />
    <glyph glyph-name="Tau" unicode="&#x3a4;" horiz-adv-x="1130" 
d="M469 0v1163h-387v164h967v-164h-387v-1163h-193z" />
    <glyph glyph-name="Upsilon" unicode="&#x3a5;" horiz-adv-x="1232" 
d="M518 0v526l-471 801h211l360 -633l363 633h205l-475 -801v-526h-193z" />
    <glyph glyph-name="Phi" unicode="&#x3a6;" horiz-adv-x="1644" 
d="M1536 664q0 -273 -170.5 -437t-450.5 -182v-123h-186v123q-280 15 -450 181t-170 438q0 273 170 436.5t450 181.5v123h186v-123q281 -15 451 -180.5t170 -437.5zM303 668q0 -197 119 -319.5t309 -133.5v897q-187 -11 -307.5 -129.5t-120.5 -314.5zM913 215
q188 11 308 129t120 315q0 196 -118.5 318.5t-309.5 134.5v-897z" />
    <glyph glyph-name="Chi" unicode="&#x3a7;" horiz-adv-x="1245" 
d="M47 0l457 678l-441 649h228l332 -512l338 512h221l-443 -649l459 -678h-227l-348 539l-357 -539h-219z" />
    <glyph glyph-name="Psi" unicode="&#x3a8;" horiz-adv-x="1679" 
d="M1333 1327h193v-270q0 -583 -590 -604v-453h-193v453q-589 18 -589 604v270h190v-266q0 -219 98 -325.5t301 -112.5v704h193v-704q199 5 298 108.5t99 321.5v274z" />
    <glyph glyph-name="uni03A9" unicode="&#x3a9;" horiz-adv-x="1619" 
d="M1473 670q0 -171 -70.5 -302t-198.5 -202h269v-166h-549v166q157 43 255.5 173t98.5 329q0 222 -130.5 362.5t-336.5 140.5t-338.5 -140.5t-132.5 -362.5q0 -198 99 -328t257 -174v-166h-551v166h267q-126 73 -196.5 202t-70.5 296q0 197 79 351t231.5 243.5t357.5 89.5
q154 0 279 -51.5t208 -142.5t128 -215t45 -269z" />
    <glyph glyph-name="Iotadieresis" unicode="&#x3aa;" horiz-adv-x="536" 
d="M68 1499q-54 0 -88.5 35.5t-34.5 89.5t34.5 89.5t88.5 35.5t88 -35.5t34 -89.5t-34 -89.5t-88 -35.5zM469 1499q-54 0 -88.5 35.5t-34.5 89.5t34.5 89.5t88.5 35.5t88.5 -35.5t34.5 -89.5t-34.5 -89.5t-88.5 -35.5zM172 0v1327h193v-1327h-193z" />
    <glyph glyph-name="Upsilondieresis" unicode="&#x3ab;" horiz-adv-x="1232" 
d="M414 1499q-54 0 -88.5 35.5t-34.5 89.5t34.5 89.5t88.5 35.5t88.5 -35.5t34.5 -89.5t-34.5 -89.5t-88.5 -35.5zM815 1499q-54 0 -88.5 35.5t-34.5 89.5t34.5 89.5t88.5 35.5t88.5 -35.5t34.5 -89.5t-34.5 -89.5t-88.5 -35.5zM518 0v526l-471 801h211l360 -633l363 633
h205l-475 -801v-526h-193z" />
    <glyph glyph-name="alphatonos" unicode="&#x3ac;" horiz-adv-x="1185" 
d="M854 1401l-190 -332h-177l146 332h221zM872 920h170v-920h-172l-4 139q-41 -68 -127.5 -112.5t-203.5 -44.5q-93 0 -174 30.5t-143.5 88t-99 149t-36.5 205.5q0 220 127.5 351.5t329.5 131.5q115 0 198.5 -43t130.5 -111zM563 141q56 0 105.5 16.5t93.5 51.5t70 100.5
t26 153.5q0 157 -82 237t-205 80q-129 0 -213 -82.5t-84 -238.5q0 -152 80 -235t209 -83z" />
    <glyph glyph-name="epsilontonos" unicode="&#x3ad;" horiz-adv-x="913" 
d="M745 1401l-190 -332h-176l145 332h221zM524 129q85 0 162 25t125 63v-168q-44 -27 -134.5 -47t-203.5 -20q-75 0 -136.5 12.5t-114 40.5t-82 80t-29.5 125q0 79 49.5 144.5t134.5 86.5q-74 22 -119 76t-45 137q0 68 32 119t86 79.5t115.5 42t129.5 13.5q96 0 177.5 -22
t121.5 -46v-163q-49 34 -127 60t-154 26q-90 0 -140 -31.5t-50 -93.5q0 -68 57.5 -98.5t146.5 -30.5h111v-142h-111q-111 0 -168 -32t-57 -103q0 -133 223 -133z" />
    <glyph glyph-name="etatonos" unicode="&#x3ae;" horiz-adv-x="1101" 
d="M811 1401l-190 -332h-177l146 332h221zM618 938q353 0 353 -397v-947h-185v912q0 47 -4.5 83.5t-18 74t-36 61.5t-62 39.5t-92.5 15.5q-131 0 -187 -91t-56 -259v-430h-185v920h168l4 -121q85 139 301 139z" />
    <glyph glyph-name="iotatonos" unicode="&#x3af;" horiz-adv-x="503" 
d="M158 1069l145 332h221l-190 -332h-176zM174 0v770h-129v150h313v-920h-184z" />
    <glyph glyph-name="upsilondieresistonos" unicode="&#x3b0;" horiz-adv-x="1046" 
d="M412 1069l71 332h205l-131 -332h-145zM229 1069q-49 0 -80.5 31.5t-31.5 81.5q0 48 32.5 79t79.5 31t79 -31t32 -81q0 -49 -32 -80t-79 -31zM809 1069q-49 0 -81 31.5t-32 81.5q0 48 33 79t80 31t78 -31t31 -81q0 -48 -32 -79.5t-77 -31.5zM522 -18q-90 0 -159.5 23.5
t-112.5 61.5t-70.5 92.5t-38 111.5t-10.5 124v525h184v-523q0 -260 209 -260q211 0 211 260v523h180v-525q0 -65 -10 -120.5t-37.5 -111t-70 -94.5t-113 -63t-162.5 -24z" />
    <glyph glyph-name="alpha" unicode="&#x3b1;" horiz-adv-x="1185" 
d="M872 920h170v-920h-172l-4 139q-41 -68 -127.5 -112.5t-203.5 -44.5q-93 0 -174 30.5t-143.5 88t-99 149t-36.5 205.5q0 220 127.5 351.5t329.5 131.5q115 0 198.5 -43t130.5 -111zM563 141q56 0 105.5 16.5t93.5 51.5t70 100.5t26 153.5q0 157 -82 237t-205 80
q-129 0 -213 -82.5t-84 -238.5q0 -152 80 -235t209 -83z" />
    <glyph glyph-name="beta" unicode="&#x3b2;" horiz-adv-x="1110" 
d="M774 715q36 -8 70 -22.5t70 -42t62 -63.5t43 -90.5t17 -119.5q0 -84 -24 -152.5t-63.5 -113t-94 -74t-113.5 -42.5t-123 -13q-195 0 -288 116v-501h-185v1290q0 238 107 368.5t319 130.5q181 0 290.5 -92.5t109.5 -275.5q0 -109 -55.5 -190t-141.5 -113zM612 131
q110 0 174 61.5t64 180.5q0 78 -24.5 129.5t-72.5 77.5t-101 35.5t-128 9.5h-49v145h49q262 0 262 234q0 118 -60 175.5t-161 57.5q-115 0 -175 -78.5t-60 -224.5v-438q0 -191 70.5 -278t211.5 -87z" />
    <glyph glyph-name="gamma" unicode="&#x3b3;" horiz-adv-x="1009" 
d="M979 920l-381 -803v-523h-184v527l-383 799h202l275 -631l274 631h197z" />
    <glyph glyph-name="delta" unicode="&#x3b4;" horiz-adv-x="1150" 
d="M731 899q168 -76 245 -186.5t77 -272.5q0 -205 -133 -331.5t-347 -126.5q-218 0 -347.5 126.5t-129.5 331.5q0 165 98.5 280t264.5 140l-29 12q-186 84 -186 240q0 132 109.5 203t287.5 71q171 0 305 -71v-168q-142 82 -303 82q-89 0 -149 -27t-60 -84q0 -52 38.5 -86
t143.5 -82zM575 141q128 0 207.5 83t79.5 216t-80.5 213t-206.5 80q-132 0 -209 -84t-77 -209q0 -135 79 -217t207 -82z" />
    <glyph glyph-name="epsilon" unicode="&#x3b5;" horiz-adv-x="913" 
d="M524 129q85 0 162 25t125 63v-168q-44 -27 -134.5 -47t-203.5 -20q-75 0 -136.5 12.5t-114 40.5t-82 80t-29.5 125q0 79 49.5 144.5t134.5 86.5q-74 22 -119 76t-45 137q0 68 32 119t86 79.5t115.5 42t129.5 13.5q96 0 177.5 -22t121.5 -46v-163q-49 34 -127 60t-154 26
q-90 0 -140 -31.5t-50 -93.5q0 -68 57.5 -98.5t146.5 -30.5h111v-142h-111q-111 0 -168 -32t-57 -103q0 -133 223 -133z" />
    <glyph glyph-name="zeta" unicode="&#x3b6;" horiz-adv-x="849" 
d="M821 1337l-200 -262q-173 -228 -252.5 -384t-79.5 -285q0 -121 54 -173t189 -88q158 -43 218.5 -88.5t60.5 -132.5q0 -92 -84 -209h-170q64 91 64 160q0 47 -38.5 73.5t-138.5 49.5q-82 18 -140.5 43.5t-108 68t-74.5 108.5t-25 155q0 164 84 326t260 382l105 127h-447
v150h723v-21z" />
    <glyph glyph-name="eta" unicode="&#x3b7;" horiz-adv-x="1101" 
d="M618 938q353 0 353 -397v-947h-185v912q0 47 -4.5 83.5t-18 74t-36 61.5t-62 39.5t-92.5 15.5q-131 0 -187 -91t-56 -259v-430h-185v920h168l4 -121q85 139 301 139z" />
    <glyph glyph-name="theta" unicode="&#x3b8;" horiz-adv-x="1208" 
d="M604 1386q112 0 198.5 -37t142 -100t91 -153.5t50 -190.5t14.5 -219t-18 -223.5t-56.5 -193.5t-96 -152t-140.5 -99t-185 -36q-498 0 -498 704q0 146 29 270t87.5 221.5t156 153t225.5 55.5zM604 1229q-150 0 -225.5 -123.5t-83.5 -347.5h616q-17 471 -307 471zM604 141
q291 0 307 467h-616q8 -220 84 -343.5t225 -123.5z" />
    <glyph glyph-name="iota" unicode="&#x3b9;" horiz-adv-x="503" 
d="M174 0v770h-129v150h313v-920h-184z" />
    <glyph glyph-name="kappa" unicode="&#x3ba;" horiz-adv-x="1024" 
d="M1001 0h-239l-422 455v-455h-184v920h184v-433l403 433h238l-430 -445z" />
    <glyph glyph-name="lambda" unicode="&#x3bb;" horiz-adv-x="1056" 
d="M1008 139q33 0 49 8v-141q-40 -16 -115 -16q-86 0 -133 46t-82 138l-201 518l-280 -692h-195l391 911l-77 201q-23 58 -49 82.5t-64 24.5q-33 0 -51 -9v142q46 16 116 16q85 0 133 -46.5t82 -137.5l363 -938q22 -58 48 -82.5t65 -24.5z" />
    <glyph glyph-name="uni03BC" unicode="&#x3bc;" horiz-adv-x="1097" 
d="M770 920h184v-920h-170l-4 131q-40 -67 -110 -99t-150 -32q-129 0 -194 68v-474h-181v1326h185v-496q0 -58 8.5 -102.5t29.5 -85.5t63 -62.5t104 -21.5q86 0 139.5 45t74.5 119.5t21 183.5v420z" />
    <glyph glyph-name="nu" unicode="&#x3bd;" horiz-adv-x="1009" 
d="M496 -18l-465 938h202l273 -603l276 603h197l-463 -938h-20z" />
    <glyph glyph-name="xi" unicode="&#x3be;" horiz-adv-x="864" 
d="M573 1229q-111 0 -174.5 -51t-64.5 -154q-3 -118 67 -180t201 -62h88v-149h-104q-146 0 -224.5 -59t-78.5 -171q0 -113 62.5 -166t213.5 -94q154 -41 213 -86t59 -133q0 -94 -83 -209h-170q63 89 63 160q0 45 -37 71t-143 50q-87 19 -149.5 45.5t-114.5 70t-78.5 110.5
t-26.5 157q0 120 69.5 215.5t188.5 122.5q-92 28 -150.5 111t-58.5 186q0 179 115.5 275.5t298.5 96.5q164 0 276 -49v-174q-125 66 -258 66z" />
    <glyph glyph-name="omicron" unicode="&#x3bf;" horiz-adv-x="1142" 
d="M569 -18q-222 0 -354.5 131t-132.5 344q0 211 133.5 346t357.5 135q221 0 353.5 -125.5t132.5 -343.5q0 -220 -135.5 -353.5t-354.5 -133.5zM571 141q132 0 214.5 89t82.5 235q0 143 -83 229t-214 86q-137 0 -217 -92t-80 -229q0 -142 82.5 -230t214.5 -88z" />
    <glyph glyph-name="pi" unicode="&#x3c0;" horiz-adv-x="1216" 
d="M1133 920v-150h-134v-770h-184v770h-414v-770h-184v770h-133v150h1049z" />
    <glyph glyph-name="rho" unicode="&#x3c1;" horiz-adv-x="1157" 
d="M115 -406v789q0 269 129.5 412t351.5 143q224 0 351.5 -129t127.5 -342q0 -221 -125.5 -353t-326.5 -132q-106 0 -191.5 38.5t-132.5 102.5v-529h-184zM588 141q134 0 215.5 88.5t81.5 233.5t-82.5 231t-214.5 86q-139 0 -218 -92t-79 -229q0 -141 82 -229.5t215 -88.5z
" />
    <glyph glyph-name="uni03C2" unicode="&#x3c2;" horiz-adv-x="909" 
d="M563 -285q64 91 64 158q0 42 -31.5 67.5t-114.5 45.5q-98 25 -168.5 61t-124 93t-80 138.5t-26.5 190.5q0 213 131.5 341t353.5 128q141 0 242 -49v-174q-105 65 -227 65q-138 0 -223 -80.5t-85 -222.5q0 -77 17 -131.5t54.5 -93t87 -63.5t124.5 -48q144 -42 202 -87
t58 -130q0 -92 -84 -209h-170z" />
    <glyph glyph-name="sigma" unicode="&#x3c3;" horiz-adv-x="1148" 
d="M1104 920v-150h-205q65 -50 101 -137t36 -199q0 -201 -132 -326.5t-343 -125.5q-218 0 -348.5 129t-130.5 340q0 208 139.5 338.5t392.5 130.5h490zM561 141q128 0 207.5 86.5t79.5 225.5q0 140 -78.5 223.5t-204.5 83.5q-134 0 -212.5 -89.5t-78.5 -221.5
q0 -137 80 -222.5t207 -85.5z" />
    <glyph glyph-name="tau" unicode="&#x3c4;" horiz-adv-x="841" 
d="M780 770h-268v-522q0 -58 18 -84.5t68 -26.5q33 0 57 8v-141q-40 -16 -104 -16q-58 0 -100 14.5t-65.5 37t-37 58.5t-17 69t-3.5 79v524h-267v150h719v-150z" />
    <glyph glyph-name="upsilon" unicode="&#x3c5;" horiz-adv-x="1046" 
d="M522 -18q-90 0 -159.5 23.5t-112.5 61.5t-70.5 92.5t-38 111.5t-10.5 124v525h184v-523q0 -260 209 -260q211 0 211 260v523h180v-525q0 -65 -10 -120.5t-37.5 -111t-70 -94.5t-113 -63t-162.5 -24z" />
    <glyph glyph-name="phi" unicode="&#x3c6;" horiz-adv-x="1345" 
d="M1264 469q0 -211 -139 -343.5t-363 -143.5v-388h-178v388q-227 10 -364.5 141t-137.5 334q0 202 138 336.5t364 144.5v420h178v-420q227 -9 364.5 -134.5t137.5 -334.5zM268 459q0 -138 91.5 -228.5t226.5 -95.5v651q-140 -6 -229 -100t-89 -227zM760 135q136 6 226.5 98
t90.5 232q0 138 -91 226.5t-226 94.5v-651z" />
    <glyph glyph-name="chi" unicode="&#x3c7;" horiz-adv-x="1073" 
d="M872 -168q31 -59 51.5 -80.5t53.5 -21.5q25 0 45 8v-141q-38 -17 -96 -17q-44 0 -78 12.5t-60.5 41t-43 55t-39.5 71.5l-168 330l-258 -496h-222l389 672l-210 416q-30 61 -54.5 82.5t-60.5 21.5q-29 0 -49 -10v142q54 16 104 16q36 0 64.5 -8.5t48.5 -21t40.5 -38.5
t34.5 -49.5t35 -64.5l162 -316l256 484h219l-387 -654z" />
    <glyph glyph-name="psi" unicode="&#x3c8;" horiz-adv-x="1378" 
d="M1063 920h184v-437q0 -86 -13 -157t-45.5 -136.5t-84.5 -110t-135 -71t-191 -26.5v-394h-178v394q-108 0 -191 26.5t-135 71t-84.5 110t-45.5 136.5t-13 157v437h184v-435q0 -175 68.5 -261.5t216.5 -86.5v783h178v-783q149 1 217 87.5t68 260.5v435z" />
    <glyph glyph-name="omega" unicode="&#x3c9;" horiz-adv-x="1445" 
d="M1210 920q69 -94 116.5 -229.5t47.5 -287.5q0 -192 -96.5 -306.5t-255.5 -114.5q-229 0 -299 219q-33 -105 -107.5 -162t-207.5 -57q-152 0 -244 114.5t-92 306.5q0 152 47.5 287.5t116.5 229.5h184q-69 -89 -113.5 -217t-44.5 -257q0 -138 47.5 -221.5t141.5 -83.5
q85 0 137.5 94.5t52.5 260.5v147h164v-147q0 -166 53 -260.5t139 -94.5q93 0 140 84t47 221q0 129 -44.5 257t-113.5 217h184z" />
    <glyph glyph-name="iotadieresis" unicode="&#x3ca;" horiz-adv-x="552" 
d="M115 1069q-49 0 -80 31.5t-31 81.5q0 48 32.5 79t78.5 31q48 0 79 -31t31 -81q0 -49 -31.5 -80t-78.5 -31zM436 1069q-49 0 -80.5 31.5t-31.5 81.5q0 48 32.5 79t79.5 31t78 -31t31 -81q0 -48 -32 -79.5t-77 -31.5zM213 0v770h-129v150h313v-920h-184z" />
    <glyph glyph-name="upsilondieresis" unicode="&#x3cb;" horiz-adv-x="1046" 
d="M324 1071q-50 0 -81.5 31t-31.5 80q0 48 33 79t80 31q48 0 79 -30.5t31 -79.5q0 -50 -31.5 -80.5t-78.5 -30.5zM723 1071q-49 0 -80 30.5t-31 80.5q0 49 32 79.5t79 30.5q48 0 79.5 -30.5t31.5 -79.5q0 -50 -32 -80.5t-79 -30.5zM522 -18q-90 0 -159.5 23.5t-112.5 61.5
t-70.5 92.5t-38 111.5t-10.5 124v525h184v-523q0 -260 209 -260q211 0 211 260v523h180v-525q0 -65 -10 -120.5t-37.5 -111t-70 -94.5t-113 -63t-162.5 -24z" />
    <glyph glyph-name="omicrontonos" unicode="&#x3cc;" horiz-adv-x="1142" 
d="M465 1069l145 332h221l-190 -332h-176zM569 -18q-222 0 -354.5 131t-132.5 344q0 211 133.5 346t357.5 135q221 0 353.5 -125.5t132.5 -343.5q0 -220 -135.5 -353.5t-354.5 -133.5zM571 141q132 0 214.5 89t82.5 235q0 143 -83 229t-214 86q-137 0 -217 -92t-80 -229
q0 -142 82.5 -230t214.5 -88z" />
    <glyph glyph-name="upsilontonos" unicode="&#x3cd;" horiz-adv-x="1046" 
d="M416 1069l145 332h221l-190 -332h-176zM522 -18q-90 0 -159.5 23.5t-112.5 61.5t-70.5 92.5t-38 111.5t-10.5 124v525h184v-523q0 -260 209 -260q211 0 211 260v523h180v-525q0 -65 -10 -120.5t-37.5 -111t-70 -94.5t-113 -63t-162.5 -24z" />
    <glyph glyph-name="omegatonos" unicode="&#x3ce;" horiz-adv-x="1445" 
d="M983 1401l-190 -332h-177l146 332h221zM1210 920q69 -94 116.5 -229.5t47.5 -287.5q0 -192 -96.5 -306.5t-255.5 -114.5q-229 0 -299 219q-33 -105 -107.5 -162t-207.5 -57q-152 0 -244 114.5t-92 306.5q0 152 47.5 287.5t116.5 229.5h184q-69 -89 -113.5 -217
t-44.5 -257q0 -138 47.5 -221.5t141.5 -83.5q85 0 137.5 94.5t52.5 260.5v147h164v-147q0 -166 53 -260.5t139 -94.5q93 0 140 84t47 221q0 129 -44.5 257t-113.5 217h184z" />
    <glyph glyph-name="beta.ss02" unicode="&#x3d0;" horiz-adv-x="1081" 
d="M733 717q120 -22 192 -114t72 -224q0 -184 -122.5 -290.5t-319.5 -106.5q-222 0 -332 112t-110 361v403q0 269 103.5 398.5t326.5 129.5q185 0 286 -95t101 -273q0 -109 -55 -191t-142 -110zM535 1237q-123 0 -180.5 -84.5t-57.5 -255.5v-125h158q145 0 213.5 62
t68.5 188q0 104 -52.5 159.5t-149.5 55.5zM561 131q116 0 181 65t65 173q0 137 -73.5 197.5t-237.5 60.5h-199v-174q0 -161 68.5 -241.5t195.5 -80.5z" />
    <glyph glyph-name="theta.ss02" unicode="&#x3d1;" 
d="M662 1386q103 0 184.5 -35t136.5 -96.5t90.5 -149.5t51.5 -190t16 -223t-16.5 -225t-53.5 -194.5t-94 -154t-142 -100t-192 -36.5q-215 0 -329.5 121t-114.5 329v33q0 58 -15 81t-63 23q-27 0 -55 -8v141q47 19 131 19q101 0 143.5 -57.5t42.5 -176.5v-24
q0 -155 70 -238.5t202 -83.5q158 0 226.5 139t68.5 408v39q-111 -70 -274 -70q-189 0 -304.5 99.5t-115.5 267.5q0 158 108.5 260t297.5 102zM432 1034q0 -105 75.5 -161t199.5 -56q150 6 239 62q-15 174 -92.5 262t-202.5 88q-98 0 -158.5 -52.5t-60.5 -142.5z" />
    <glyph glyph-name="phi.ss02" unicode="&#x3d5;" horiz-adv-x="1339" 
d="M1255 469q0 -215 -138.5 -348t-362.5 -139v-388h-179v388q-238 6 -370.5 146t-132.5 364q0 127 43.5 238.5t107.5 189.5h187q-67 -78 -109.5 -192.5t-42.5 -229.5q0 -158 82.5 -256t234.5 -105v793h123q273 0 415 -120.5t142 -340.5zM754 137q142 6 228.5 95t86.5 233
q0 136 -85 219.5t-230 91.5v-639z" />
    <glyph glyph-name="uni0401" unicode="&#x401;" horiz-adv-x="1050" 
d="M367 1499q-54 0 -88.5 35.5t-34.5 89.5t34.5 89.5t88.5 35.5t88 -35.5t34 -89.5t-34 -89.5t-88 -35.5zM768 1499q-54 0 -88.5 35.5t-34.5 89.5t34.5 89.5t88.5 35.5t88.5 -35.5t34.5 -89.5t-34.5 -89.5t-88.5 -35.5zM172 0v1327h784v-164h-591v-405h432v-162h-432v-430
h616v-166h-809z" />
    <glyph glyph-name="uni0402" unicode="&#x402;" horiz-adv-x="1626" 
d="M1055 874q219 0 340 -112t121 -336q0 -216 -104.5 -332.5t-321.5 -116.5q-62 0 -125 15v168q47 -15 96 -15q264 0 264 273q0 284 -309 284q-189 0 -271.5 -94t-82.5 -291v-317h-193v1163h-387v164h1048v-164h-468v-432q126 143 393 143z" />
    <glyph glyph-name="uni0403" unicode="&#x403;" horiz-adv-x="1001" 
d="M954 1794l-303 -336h-182l240 336h245zM963 1327v-164h-598v-1163h-193v1327h791z" />
    <glyph glyph-name="uni0404" unicode="&#x404;" horiz-adv-x="1298" 
d="M801 158q207 0 373 110v-194q-48 -36 -156 -65t-236 -29q-210 0 -364 88.5t-231.5 241.5t-77.5 352q0 200 78.5 354.5t231 243t357.5 88.5q123 0 226 -29.5t151 -67.5v-192q-165 112 -367 112q-203 0 -332 -114.5t-151 -304.5h596v-158h-598q19 -199 157 -317.5
t343 -118.5z" />
    <glyph glyph-name="uni0405" unicode="&#x405;" horiz-adv-x="1013" 
d="M481 -20q-200 0 -350 79v195q67 -44 158 -74t188 -30q118 0 181 49t63 147q0 53 -25 95t-65.5 69t-93 53.5t-106.5 48.5t-106.5 55t-93 72t-65.5 100.5t-25 139.5q0 171 109.5 270t300.5 99q90 0 175.5 -20.5t133.5 -45.5v-197q-65 41 -144 68t-153 27
q-104 0 -165.5 -49.5t-61.5 -139.5q0 -51 25 -91.5t66 -66t93 -51t107 -47t107 -55t93 -73t66 -103.5t25 -144q0 -187 -115 -283.5t-322 -96.5z" />
    <glyph glyph-name="uni0406" unicode="&#x406;" horiz-adv-x="536" 
d="M172 0v1327h193v-1327h-193z" />
    <glyph glyph-name="uni0407" unicode="&#x407;" horiz-adv-x="536" 
d="M68 1499q-54 0 -88.5 35.5t-34.5 89.5t34.5 89.5t88.5 35.5t88 -35.5t34 -89.5t-34 -89.5t-88 -35.5zM469 1499q-54 0 -88.5 35.5t-34.5 89.5t34.5 89.5t88.5 35.5t88.5 -35.5t34.5 -89.5t-34.5 -89.5t-88.5 -35.5zM172 0v1327h193v-1327h-193z" />
    <glyph glyph-name="uni0408" unicode="&#x408;" horiz-adv-x="956" 
d="M377 -20q-78 0 -150 13t-110 32v180q88 -53 225 -53q83 0 136.5 21.5t82 69t39 108t10.5 153.5v661h-331v162h524v-876q0 -241 -101.5 -356t-324.5 -115z" />
    <glyph glyph-name="uni0409" unicode="&#x409;" horiz-adv-x="2062" 
d="M1434 862q96 0 171.5 -10t148.5 -38t121 -75t77.5 -124.5t29.5 -182.5q0 -82 -19.5 -148t-50 -110.5t-78 -77t-94.5 -51t-107.5 -29t-109.5 -13.5t-108 -3h-371v1163h-522v-280q0 -116 -2.5 -200.5t-11 -184t-23.5 -168.5t-42 -137.5t-65 -110t-93 -67t-125 -25.5
t-115 20v176q27 -12 78 -12q62 0 105.5 52.5t67 155.5t34 233t10.5 305v407h895v-465h199zM1409 160q63 0 113 6t101.5 23.5t86 46.5t56.5 78.5t22 115.5q0 68 -21.5 118.5t-55.5 79t-86 45.5t-101.5 22t-114.5 5h-174v-540h174z" />
    <glyph glyph-name="uni040A" unicode="&#x40a;" horiz-adv-x="2084" 
d="M1454 862q97 0 173 -10t149.5 -38t121.5 -75t77.5 -124.5t29.5 -182.5q0 -82 -19.5 -148t-50 -110.5t-78 -77t-94.5 -51t-108 -29t-110 -13.5t-109 -3h-371v592h-700v-592h-193v1327h193v-569h700v569h192v-465h197zM1430 160q80 0 141 10.5t118.5 38t89 83.5t31.5 138
q0 68 -21.5 118.5t-55.5 79t-86 45.5t-102 22t-115 5h-173v-540h173z" />
    <glyph glyph-name="uni040B" unicode="&#x40b;" horiz-adv-x="1634" 
d="M1053 874q222 0 336 -118.5t114 -347.5v-408h-190v319q0 87 -14 152t-48 119t-98 82t-158 28q-179 0 -256 -91.5t-77 -286.5v-322h-193v1163h-387v164h1048v-164h-468v-430q122 141 391 141z" />
    <glyph glyph-name="uni040C" unicode="&#x40c;" horiz-adv-x="1292" 
d="M545 1458l239 336h246l-303 -336h-182zM172 0v1327h193v-639l624 639h250l-647 -651l663 -676h-260l-630 655v-655h-193z" />
    <glyph glyph-name="uni040D" unicode="&#x40d;" horiz-adv-x="1427" 
d="M901 1458h-182l-301 336h244zM1235 1348h20v-1348h-190v940l-872 -960h-21v1347h190v-940z" />
    <glyph glyph-name="uni040E" unicode="&#x40e;" horiz-adv-x="1230" 
d="M645 1419q-175 0 -259.5 90.5t-84.5 241.5v23h164q0 -105 46.5 -161.5t133.5 -56.5q88 0 134 56t46 162h166v-23q0 -150 -87.5 -241t-258.5 -91zM1012 1327h182l-627 -1327h-184l192 406l-534 921h211l416 -727z" />
    <glyph glyph-name="uni040F" unicode="&#x40f;" horiz-adv-x="1400" 
d="M1227 1327v-1327h-439v-285h-176v285h-440v1327h193v-1161h671v1161h191z" />
    <glyph glyph-name="uni0410" unicode="&#x410;" horiz-adv-x="1320" 
d="M47 0l604 1348h21l602 -1348h-205l-113 262h-598l-112 -262h-199zM424 422h471l-236 547z" />
    <glyph glyph-name="uni0411" unicode="&#x411;" horiz-adv-x="1189" 
d="M569 795q73 0 132.5 -5.5t125 -19.5t114 -42t89 -70t61.5 -107t21 -148q0 -75 -18.5 -135.5t-49 -102t-76.5 -72t-92.5 -48t-106 -28t-109.5 -14t-109 -3.5h-379v1327h846v-164h-653v-368h204zM545 160q63 0 113.5 5.5t100.5 21.5t83.5 42t54.5 70t21 102t-20.5 100.5
t-53 67.5t-83 39.5t-100.5 19.5t-116 5h-180v-473h180z" />
    <glyph glyph-name="uni0412" unicode="&#x412;" horiz-adv-x="1208" 
d="M860 702q39 -8 73.5 -22t69 -40t58.5 -61t39.5 -88t15.5 -118q0 -94 -35 -164.5t-86.5 -109t-125 -62t-136.5 -30.5t-135 -7h-426v1327h332q62 0 112 -3t107.5 -12t100.5 -24.5t84.5 -42.5t68.5 -64t43 -90t16 -120q0 -112 -50.5 -179t-125.5 -90zM842 961q0 47 -13 82.5
t-39 57.5t-54.5 36t-72 20t-77.5 8t-84 2h-137v-413h139q48 0 82.5 2t77 8.5t71.5 20.5t55 36t39 57.5t13 82.5zM596 164q57 0 102.5 5.5t88 20.5t71 38.5t45.5 62.5t17 90q0 64 -24 108t-70 66.5t-98.5 31.5t-123.5 9h-239v-432h231z" />
    <glyph glyph-name="uni0413" unicode="&#x413;" horiz-adv-x="1001" 
d="M963 1327v-164h-598v-1163h-193v1327h791z" />
    <glyph glyph-name="uni0414" unicode="&#x414;" horiz-adv-x="1503" 
d="M1247 166h168v-451h-174v287h-1020v-287h-176v449h16q68 0 116.5 39.5t88.5 118.5q99 199 99 700v305h882v-1161zM545 1163v-121q0 -294 -33 -510t-129 -366h674v997h-512z" />
    <glyph glyph-name="uni0415" unicode="&#x415;" horiz-adv-x="1050" 
d="M172 0v1327h784v-164h-591v-405h432v-162h-432v-430h616v-166h-809z" />
    <glyph glyph-name="uni0416" unicode="&#x416;" horiz-adv-x="1970" 
d="M1933 0h-250l-604 657v-657h-188v657l-604 -657h-250l637 678l-621 649h234l604 -643v643h188v-643l607 643h231l-621 -649z" />
    <glyph glyph-name="uni0417" unicode="&#x417;" horiz-adv-x="1079" 
d="M766 705q42 -9 79 -31.5t70 -60.5t52.5 -98t19.5 -136q0 -399 -495 -399q-124 0 -221.5 23.5t-143.5 55.5v193q145 -100 358 -100q51 0 92.5 5t83 20t69 39.5t44.5 65t17 95.5q0 118 -61.5 167.5t-190.5 49.5h-191v160h105q71 0 121.5 9t93.5 31.5t64.5 66t21.5 108.5
q0 115 -71.5 161t-221.5 46q-191 0 -334 -101v193q47 32 144 56t216 24q461 0 461 -367q0 -110 -51.5 -181.5t-130.5 -94.5z" />
    <glyph glyph-name="uni0418" unicode="&#x418;" horiz-adv-x="1427" 
d="M1235 1348h20v-1348h-190v940l-872 -960h-21v1347h190v-940z" />
    <glyph glyph-name="uni0419" unicode="&#x419;" horiz-adv-x="1427" 
d="M760 1419q-175 0 -259.5 90.5t-84.5 241.5v23h164q0 -105 46.5 -161.5t133.5 -56.5q88 0 134 56t46 162h166v-23q0 -150 -87.5 -241t-258.5 -91zM1235 1348h20v-1348h-190v940l-872 -960h-21v1347h190v-940z" />
    <glyph glyph-name="uni041A" unicode="&#x41a;" horiz-adv-x="1292" 
d="M172 0v1327h193v-639l624 639h250l-647 -651l663 -676h-260l-630 655v-655h-193z" />
    <glyph glyph-name="uni041B" unicode="&#x41b;" horiz-adv-x="1406" 
d="M340 1327h895v-1327h-191v1163h-522v-280q0 -116 -2.5 -200.5t-11 -184t-23.5 -168.5t-42 -137.5t-65 -110t-93 -67t-125 -25.5t-115 20v176q27 -12 78 -12q62 0 105.5 52.5t67 155.5t34 233t10.5 305v407z" />
    <glyph glyph-name="uni041C" unicode="&#x41c;" horiz-adv-x="1732" 
d="M856 -20l-401 849l-152 -829h-192l264 1348h20l471 -994l473 994h21l262 -1348h-188l-154 829l-403 -849h-21z" />
    <glyph glyph-name="uni041D" unicode="&#x41d;" horiz-adv-x="1429" 
d="M172 0v1327h193v-569h700v569h192v-1327h-192v592h-700v-592h-193z" />
    <glyph glyph-name="uni041E" unicode="&#x41e;" horiz-adv-x="1544" 
d="M768 -20q-153 0 -278.5 52.5t-208 144.5t-127.5 217t-45 270q0 197 78.5 351t231.5 243.5t357 89.5q153 0 278.5 -51.5t208.5 -142t128 -214.5t45 -268q0 -197 -78 -352.5t-231 -247.5t-359 -92zM774 158q209 0 338 142.5t129 367.5q0 223 -130 363t-339 140
q-206 0 -337.5 -140.5t-131.5 -362.5t130.5 -366t340.5 -144z" />
    <glyph glyph-name="uni041F" unicode="&#x41f;" horiz-adv-x="1406" 
d="M172 1327h1063v-1327h-193v1163h-677v-1163h-193v1327z" />
    <glyph glyph-name="uni0420" unicode="&#x420;" horiz-adv-x="1191" 
d="M561 1327q97 0 173 -10t149.5 -38t121.5 -74.5t77.5 -124t29.5 -181.5q0 -82 -19.5 -148.5t-50 -111t-78 -77.5t-94.5 -51.5t-107.5 -29t-109 -13.5t-108.5 -3h-180v-465h-193v1327h389zM537 627q63 0 113.5 5.5t102.5 23t86.5 46.5t56.5 78.5t22 116.5q0 57 -14 101
t-41.5 72.5t-61 48t-79.5 29t-88.5 13.5t-96.5 4h-172v-538h172z" />
    <glyph glyph-name="uni0421" unicode="&#x421;" horiz-adv-x="1298" 
d="M782 -20q-210 0 -364 88.5t-231.5 241.5t-77.5 352q0 200 78.5 354.5t231 243t357.5 88.5q123 0 226 -29.5t151 -67.5v-192q-165 112 -367 112q-221 0 -352 -138t-131 -367q0 -158 65 -274.5t177 -175t256 -58.5q207 0 373 110v-194q-48 -36 -156 -65t-236 -29z" />
    <glyph glyph-name="uni0422" unicode="&#x422;" horiz-adv-x="1130" 
d="M469 0v1163h-387v164h967v-164h-387v-1163h-193z" />
    <glyph glyph-name="uni0423" unicode="&#x423;" horiz-adv-x="1230" 
d="M1012 1327h182l-627 -1327h-184l192 406l-534 921h211l416 -727z" />
    <glyph glyph-name="uni0424" unicode="&#x424;" horiz-adv-x="1665" 
d="M1556 664q0 -255 -169.5 -408t-460.5 -168v-145h-187v145q-291 14 -460.5 168t-169.5 408q0 255 169.5 407.5t460.5 167.5v145h187v-145q291 -14 460.5 -168t169.5 -407zM303 668q0 -180 118.5 -290.5t319.5 -121.5v815q-197 -11 -317.5 -118.5t-120.5 -284.5zM924 256
q198 11 318 118.5t120 284.5q0 179 -118 289t-320 121v-813z" />
    <glyph glyph-name="uni0425" unicode="&#x425;" horiz-adv-x="1245" 
d="M47 0l457 678l-441 649h228l332 -512l338 512h221l-443 -649l459 -678h-227l-348 539l-357 -539h-219z" />
    <glyph glyph-name="uni0426" unicode="&#x426;" horiz-adv-x="1482" 
d="M1227 166h168v-451h-174v285h-1049v1327h193v-1161h669v1161h193v-1161z" />
    <glyph glyph-name="uni0427" unicode="&#x427;" horiz-adv-x="1343" 
d="M981 1327h190v-1327h-190v590q-125 -137 -363 -137q-245 0 -363 117.5t-118 359.5v397h193v-346q0 -173 74 -263.5t249 -90.5t251.5 89.5t76.5 264.5v346z" />
    <glyph glyph-name="uni0428" unicode="&#x428;" horiz-adv-x="2017" 
d="M1655 1327h190v-1327h-1673v1327h193v-1161h548v1161h191v-1161h551v1161z" />
    <glyph glyph-name="uni0429" unicode="&#x429;" horiz-adv-x="2101" 
d="M1845 166h170v-451h-176v285h-1667v1327h193v-1161h548v1161h191v-1161h551v1161h190v-1161z" />
    <glyph glyph-name="uni042A" unicode="&#x42a;" horiz-adv-x="1488" 
d="M858 862q97 0 173 -10t149.5 -38t121.5 -75t77.5 -124.5t29.5 -182.5q0 -82 -19.5 -148t-50 -110.5t-78 -77t-94.5 -51t-107.5 -29t-109.5 -13.5t-108 -3h-373v1163h-387v164h580v-465h196zM834 160q80 0 141 10.5t118.5 38t89 83.5t31.5 138q0 68 -21.5 118.5t-55.5 79
t-86 45.5t-102 22t-115 5h-172v-540h172z" />
    <glyph glyph-name="uni042B" unicode="&#x42b;" horiz-adv-x="1708" 
d="M561 862q97 0 173 -10t149.5 -38t121.5 -75t77.5 -124.5t29.5 -182.5q0 -82 -19.5 -148t-50 -110.5t-78 -77t-94.5 -51t-107.5 -29t-109.5 -13.5t-108 -3h-373v1327h193v-465h196zM1343 1327h193v-1327h-193v1327zM537 160q63 0 113.5 6t102 23.5t86.5 46.5t57 78.5
t22 115.5q0 57 -14 101.5t-42 73.5t-61 48.5t-79 29t-88.5 13.5t-96.5 4h-172v-540h172z" />
    <glyph glyph-name="uni042C" unicode="&#x42c;" horiz-adv-x="1191" 
d="M561 862q97 0 173 -10t149.5 -38t121.5 -75t77.5 -124.5t29.5 -182.5q0 -82 -19.5 -148t-50 -110.5t-78 -77t-94.5 -51t-107.5 -29t-109.5 -13.5t-108 -3h-373v1327h193v-465h196zM537 160q63 0 113.5 6t102 23.5t86.5 46.5t57 78.5t22 115.5q0 57 -14 101.5t-42 73.5
t-61 48.5t-79 29t-88.5 13.5t-96.5 4h-172v-540h172z" />
    <glyph glyph-name="uni042D" unicode="&#x42d;" horiz-adv-x="1298" 
d="M518 1348q158 0 286 -51t212 -142t129 -216t45 -273q0 -200 -78.5 -354.5t-231 -243t-358.5 -88.5q-130 0 -237.5 29t-157.5 67v192q174 -110 385 -110q206 0 338 122t147 314h-596v158h594q-23 192 -160 305.5t-337 113.5q-102 0 -193.5 -31.5t-157.5 -80.5v194
q44 36 146 65.5t225 29.5z" />
    <glyph glyph-name="uni042E" unicode="&#x42e;" horiz-adv-x="2091" 
d="M1327 1348q203 0 353 -89t226 -241t76 -346q0 -197 -77 -352.5t-229 -247.5t-357 -92q-143 0 -261.5 46t-200.5 128t-131 194t-60 244h-301v-592h-193v1327h193v-569h303q14 129 65 237t134 186.5t201 122.5t259 44zM1325 158q207 0 334 142.5t127 367.5q0 223 -128 363
t-335 140q-204 0 -334.5 -140.5t-130.5 -362.5q0 -223 128.5 -366.5t338.5 -143.5z" />
    <glyph glyph-name="uni042F" unicode="&#x42f;" horiz-adv-x="1222" 
d="M655 1327h396v-1327h-193v487h-248l-319 -487h-230l349 510q-130 33 -203.5 126t-73.5 255q0 102 27.5 179t73.5 125t114.5 78.5t142.5 42t164 11.5zM692 647h166v518h-170q-69 0 -118.5 -5.5t-97.5 -21.5t-78 -44t-48 -75t-18 -112q0 -146 90 -203t274 -57z" />
    <glyph glyph-name="uni0430" unicode="&#x430;" horiz-adv-x="1015" 
d="M500 938q200 0 292.5 -96.5t92.5 -286.5v-555h-168l-2 109q-87 -127 -291 -127q-157 0 -249.5 80.5t-92.5 213.5q0 145 102 226.5t285 81.5q128 0 231 -49v24q0 227 -233 227q-84 0 -162 -27t-127 -57v164q141 72 322 72zM467 115q112 0 172.5 66.5t60.5 189.5v30
q-84 52 -217 52q-98 0 -153.5 -43.5t-55.5 -124.5q0 -79 52.5 -124.5t140.5 -45.5z" />
    <glyph glyph-name="uni0431" unicode="&#x431;" horiz-adv-x="1191" 
d="M659 907q197 0 319 -126t122 -332q0 -213 -133.5 -340t-360.5 -127q-239 0 -359 145t-120 461v35q0 210 38 350t124 219q82 76 182 110.5t268 49.5q227 20 277 37v-162q-72 -18 -271 -37q-142 -14 -205 -35t-126 -78q-105 -94 -105 -323v-21q52 84 144 129t206 45z
M608 139q135 0 217 86t82 224q0 137 -82.5 220t-214.5 83q-142 0 -221.5 -85t-79.5 -214q0 -137 83 -225.5t216 -88.5z" />
    <glyph glyph-name="uni0432" unicode="&#x432;" horiz-adv-x="985" 
d="M684 494q84 -17 142.5 -75t58.5 -157q0 -69 -31 -120.5t-86.5 -82t-125 -45t-153.5 -14.5h-333v920h284q387 0 387 -242q0 -72 -40 -118.5t-103 -65.5zM442 788h-102v-253h106q195 0 195 129q0 66 -51 95t-148 29zM485 133q213 0 213 135q0 67 -54.5 101t-156.5 34h-147
v-270h145z" />
    <glyph glyph-name="uni0433" unicode="&#x433;" horiz-adv-x="802" 
d="M741 920v-150h-401v-770h-184v920h585z" />
    <glyph glyph-name="uni0434" unicode="&#x434;" horiz-adv-x="1179" 
d="M975 150h143v-394h-168v246h-725v-246h-168v394h25q43 0 74 22.5t59 73.5q70 130 70 450v224h690v-770zM449 772v-61q0 -403 -107 -561h453v622h-346z" />
    <glyph glyph-name="uni0435" unicode="&#x435;" horiz-adv-x="1050" 
d="M578 -18q-236 0 -366 121.5t-130 347.5q0 220 120 353.5t333 133.5q210 0 322 -124.5t112 -328.5q0 -51 -6 -92h-689q10 -128 96 -191t238 -63q183 0 320 82v-164q-51 -28 -144 -51.5t-206 -23.5zM276 526h504q3 119 -65.5 188.5t-179.5 69.5q-109 0 -180.5 -70.5
t-78.5 -187.5z" />
    <glyph glyph-name="uni0436" unicode="&#x436;" horiz-adv-x="1501" 
d="M1479 0h-240l-397 461v-461h-183v461l-397 -461h-239l426 473l-406 447h221l395 -441v441h183v-441l395 441h221l-407 -447z" />
    <glyph glyph-name="uni0437" unicode="&#x437;" horiz-adv-x="897" 
d="M610 496q78 -16 132.5 -73.5t54.5 -162.5q0 -77 -32 -133t-89 -86.5t-124.5 -44.5t-148.5 -14q-97 0 -174 20t-116 47v166q48 -37 125.5 -61.5t160.5 -24.5q224 0 224 135q0 133 -222 133h-112v140h82q209 0 209 129q0 127 -170 127q-74 0 -151 -26t-126 -60v155
q43 26 129 51t189 25q58 0 108.5 -11.5t96 -37.5t72 -75t26.5 -116q0 -79 -40 -130.5t-104 -71.5z" />
    <glyph glyph-name="uni0438" unicode="&#x438;" horiz-adv-x="1120" 
d="M944 938h21v-938h-179v575l-610 -593h-20v938h180v-590z" />
    <glyph glyph-name="uni0439" unicode="&#x439;" horiz-adv-x="1120" 
d="M573 1024q-162 0 -238.5 83.5t-76.5 221.5v25h156v-6q0 -96 40.5 -149.5t118.5 -53.5q80 0 120 53.5t40 149.5v6h156v-25q0 -137 -78.5 -221t-237.5 -84zM944 938h21v-938h-179v575l-610 -593h-20v938h180v-590z" />
    <glyph glyph-name="uni043A" unicode="&#x43a;" horiz-adv-x="1024" 
d="M1001 0h-239l-422 455v-455h-184v920h184v-433l403 433h238l-430 -445z" />
    <glyph glyph-name="uni043B" unicode="&#x43b;" horiz-adv-x="1146" 
d="M276 920h715v-920h-184v770h-356v-164q0 -117 -7.5 -207t-27.5 -170.5t-52.5 -132.5t-85 -82t-122.5 -30q-61 0 -103 20v160q27 -12 70 -12q45 0 75.5 34t47 101.5t23.5 151t7 198.5v283z" />
    <glyph glyph-name="uni043C" unicode="&#x43c;" horiz-adv-x="1394" 
d="M1313 0h-185l-133 522l-286 -540h-21l-287 540l-133 -522h-184l250 936h20l344 -643l346 643h21z" />
    <glyph glyph-name="uni043D" unicode="&#x43d;" horiz-adv-x="1144" 
d="M805 920h184v-920h-184v391h-465v-391h-184v920h184v-379h465v379z" />
    <glyph glyph-name="uni043E" unicode="&#x43e;" horiz-adv-x="1142" 
d="M569 -18q-222 0 -354.5 131t-132.5 344q0 211 133.5 346t357.5 135q221 0 353.5 -125.5t132.5 -343.5q0 -220 -135.5 -353.5t-354.5 -133.5zM571 141q132 0 214.5 89t82.5 235q0 143 -83 229t-214 86q-137 0 -217 -92t-80 -229q0 -142 82.5 -230t214.5 -88z" />
    <glyph glyph-name="uni043F" unicode="&#x43f;" horiz-adv-x="1122" 
d="M156 920h811v-920h-185v770h-442v-770h-184v920z" />
    <glyph glyph-name="uni0440" unicode="&#x440;" horiz-adv-x="1198" 
d="M156 -406v1326h168l4 -146q106 164 334 164q207 0 330.5 -130t123.5 -341q0 -221 -125.5 -353t-326.5 -132q-106 0 -191.5 38.5t-132.5 102.5v-529h-184zM629 141q134 0 215.5 88.5t81.5 233.5t-82.5 231t-214.5 86q-139 0 -218 -92.5t-79 -228.5q0 -143 82 -230.5
t215 -87.5z" />
    <glyph glyph-name="uni0441" unicode="&#x441;" horiz-adv-x="909" 
d="M563 -18q-100 0 -186.5 29.5t-152.5 86.5t-104 147.5t-38 205.5q0 221 131.5 354t353.5 133q141 0 242 -49v-174q-105 65 -227 65q-138 0 -223 -85.5t-85 -235.5t82.5 -234t225.5 -84q77 0 138.5 23t96.5 49v-176q-37 -22 -106 -38.5t-148 -16.5z" />
    <glyph glyph-name="uni0442" unicode="&#x442;" horiz-adv-x="854" 
d="M793 920v-150h-275v-770h-184v770h-273v150h732z" />
    <glyph glyph-name="uni0443" unicode="&#x443;" horiz-adv-x="1013" 
d="M207 -406l203 457l-379 869h202l273 -664l278 664h199l-577 -1326h-199z" />
    <glyph glyph-name="uni0444" unicode="&#x444;" horiz-adv-x="1345" 
d="M1264 469q0 -211 -139 -343.5t-363 -143.5v-388h-178v388q-227 10 -364.5 141t-137.5 334q0 202 138 336.5t364 144.5v420h178v-420q227 -9 364.5 -134.5t137.5 -334.5zM268 459q0 -138 91.5 -228.5t226.5 -95.5v651q-140 -6 -229 -100t-89 -227zM760 135q136 6 226.5 98
t90.5 232q0 138 -91 226.5t-226 94.5v-651z" />
    <glyph glyph-name="uni0445" unicode="&#x445;" horiz-adv-x="1050" 
d="M37 0l375 459l-365 461h225l254 -340l258 340h222l-367 -461l375 -459h-226l-264 332l-266 -332h-221z" />
    <glyph glyph-name="uni0446" unicode="&#x446;" horiz-adv-x="1163" 
d="M958 150h144v-394h-168v244h-778v920h184v-770h434v770h184v-770z" />
    <glyph glyph-name="uni0447" unicode="&#x447;" horiz-adv-x="1081" 
d="M741 920h185v-920h-185v387q-79 -106 -278 -106q-357 0 -357 395v244h185v-213q0 -138 47.5 -202.5t167.5 -64.5q121 0 178 63.5t57 203.5v213z" />
    <glyph glyph-name="uni0448" unicode="&#x448;" horiz-adv-x="1572" 
d="M1233 920h184v-920h-1261v920h184v-770h354v770h185v-770h354v770z" />
    <glyph glyph-name="uni0449" unicode="&#x449;" horiz-adv-x="1622" 
d="M1417 150h144v-394h-168v244h-1237v920h184v-770h354v770h185v-770h354v770h184v-770z" />
    <glyph glyph-name="uni044A" unicode="&#x44a;" horiz-adv-x="1142" 
d="M653 623q70 0 126 -7t112 -27.5t93.5 -53.5t61 -89t23.5 -131q0 -81 -27.5 -140.5t-68.5 -92t-102.5 -52t-115.5 -25t-122 -5.5h-299v770h-273v150h457v-297h135zM635 143q53 0 93.5 7t77 24.5t56 52.5t19.5 86t-19 85t-56 51t-78 23.5t-97 6.5h-113v-336h117z" />
    <glyph glyph-name="uni044B" unicode="&#x44b;" horiz-adv-x="1394" 
d="M473 623q70 0 126.5 -7t113 -27.5t94 -53.5t61 -89t23.5 -131q0 -81 -27.5 -140.5t-68.5 -92t-102.5 -52t-115.5 -25t-122 -5.5h-299v920h184v-297h133zM1055 920h184v-920h-184v920zM455 143q42 0 75.5 4t66.5 15.5t55.5 30t36 49t13.5 71.5q0 51 -19.5 85t-56.5 51
t-78 23.5t-97 6.5h-111v-336h115z" />
    <glyph glyph-name="uni044C" unicode="&#x44c;" horiz-adv-x="964" 
d="M473 623q70 0 126.5 -7t113 -27.5t94 -53.5t61 -89t23.5 -131q0 -81 -27.5 -140.5t-68.5 -92t-102.5 -52t-115.5 -25t-122 -5.5h-299v920h184v-297h133zM455 143q42 0 75.5 4t66.5 15.5t55.5 30t36 49t13.5 71.5q0 51 -19.5 85t-56.5 51t-78 23.5t-97 6.5h-111v-336h115z
" />
    <glyph glyph-name="uni044D" unicode="&#x44d;" horiz-adv-x="919" 
d="M358 938q100 0 186 -29.5t152 -86.5t104 -147.5t38 -205.5q0 -221 -131.5 -354t-354.5 -133q-144 0 -250 49v176q112 -66 236 -66q126 0 209 66.5t100 185.5h-377v144h377q-19 115 -100 179t-209 64q-75 0 -135 -22.5t-92 -48.5v172q35 23 101.5 40t145.5 17z" />
    <glyph glyph-name="uni044E" unicode="&#x44e;" horiz-adv-x="1570" 
d="M1006 938q219 0 350 -125.5t131 -343.5q0 -220 -134 -353.5t-352 -133.5q-202 0 -330.5 111.5t-148.5 297.5h-182v-391h-184v920h184v-379h184q27 179 155 288t327 109zM1004 141q131 0 211.5 89t80.5 235q0 143 -81.5 229t-210.5 86q-135 0 -214 -92t-79 -229
q0 -142 81 -230t212 -88z" />
    <glyph glyph-name="uni044F" unicode="&#x44f;" horiz-adv-x="999" 
d="M481 920h363v-920h-185v322h-137l-215 -322h-219l244 338q-101 20 -155 90t-54 184q0 67 19 120t52 87.5t79 57.5t97.5 33t110.5 10zM512 465h147v311h-149q-103 0 -153 -34.5t-50 -120.5q0 -81 50.5 -118.5t154.5 -37.5z" />
    <glyph glyph-name="uni0451" unicode="&#x451;" horiz-adv-x="1050" 
d="M322 1137q-50 0 -80.5 30.5t-30.5 79.5t32 80t79 31q48 0 79 -31t31 -80q0 -50 -31.5 -80t-78.5 -30zM748 1137q-50 0 -80.5 30.5t-30.5 79.5q0 48 33 79.5t78 31.5q48 0 79 -31t31 -80q0 -50 -31.5 -80t-78.5 -30zM578 -18q-236 0 -366 121.5t-130 347.5
q0 220 120 353.5t333 133.5q210 0 322 -124.5t112 -328.5q0 -51 -6 -92h-689q10 -128 96 -191t238 -63q183 0 320 82v-164q-51 -28 -144 -51.5t-206 -23.5zM276 526h504q3 119 -65.5 188.5t-179.5 69.5q-109 0 -180.5 -70.5t-78.5 -187.5z" />
    <glyph glyph-name="uni0452" unicode="&#x452;" horiz-adv-x="1175" 
d="M676 877q381 0 381 -400q0 -412 -291 -721h-213q319 326 319 682q0 139 -52.5 210t-184.5 71q-134 0 -190 -90t-56 -260v-369h-184v1024h-215v143h215v191h184v-191h311v-143h-311v-272q86 125 287 125z" />
    <glyph glyph-name="uni0453" unicode="&#x453;" horiz-adv-x="802" 
d="M827 1401l-303 -336h-182l240 336h245zM741 920v-150h-401v-770h-184v920h585z" />
    <glyph glyph-name="uni0454" unicode="&#x454;" horiz-adv-x="919" 
d="M582 141q77 0 138.5 23t96.5 49v-176q-37 -22 -106 -38.5t-148 -16.5q-100 0 -186.5 29.5t-152.5 86.5t-104 147.5t-38 205.5q0 221 131.5 354t353.5 133q141 0 242 -49v-174q-105 65 -227 65q-125 0 -207 -63.5t-101 -179.5h375v-144h-377q15 -120 96.5 -186t213.5 -66z
" />
    <glyph glyph-name="uni0455" unicode="&#x455;" horiz-adv-x="780" 
d="M365 -18q-79 0 -151 16t-108 37v158q127 -68 246 -68q79 0 123.5 33.5t44.5 97.5q0 43 -22.5 73t-58 48t-78.5 33.5t-86.5 35.5t-79 47t-58 74.5t-22.5 112.5q0 128 82 193t223 65q126 0 215 -43v-158q-97 58 -205 58q-71 0 -107 -30t-36 -77q0 -37 22.5 -63t58.5 -42
t80 -31t87.5 -36t79.5 -49.5t58.5 -79.5t22.5 -119q0 -143 -91 -214.5t-240 -71.5z" />
    <glyph glyph-name="uni0456" unicode="&#x456;" horiz-adv-x="552" 
d="M305 1137q-50 0 -81 30.5t-31 79.5t32.5 80t79.5 31q48 0 79.5 -31t31.5 -80q0 -50 -32 -80t-79 -30zM213 0v770h-129v150h313v-920h-184z" />
    <glyph glyph-name="uni0457" unicode="&#x457;" horiz-adv-x="552" 
d="M115 1137q-50 0 -80.5 30.5t-30.5 79.5q0 48 33 79.5t78 31.5q48 0 79 -31t31 -80q0 -50 -31.5 -80t-78.5 -30zM436 1137q-50 0 -81 30.5t-31 79.5t32.5 80t79.5 31q46 0 77.5 -31t31.5 -80q0 -50 -31.5 -80t-77.5 -30zM213 0v770h-129v150h313v-920h-184z" />
    <glyph glyph-name="uni0458" unicode="&#x458;" horiz-adv-x="575" 
d="M332 1137q-50 0 -81.5 30.5t-31.5 79.5q0 48 33 79.5t80 31.5q48 0 79 -31t31 -80q0 -50 -31.5 -80t-78.5 -30zM68 -424q-87 0 -164 25v157q60 -26 135 -26q110 0 155.5 67t45.5 199v772h-129v150h313v-912q0 -217 -84.5 -324.5t-271.5 -107.5z" />
    <glyph glyph-name="uni0459" unicode="&#x459;" horiz-adv-x="1615" 
d="M1124 623q70 0 126 -7t112.5 -27.5t94.5 -53.5t61.5 -89t23.5 -131q0 -81 -27.5 -140.5t-68.5 -92t-102.5 -52t-115.5 -25t-122 -5.5h-299v770h-356v-164q0 -117 -7.5 -207t-27.5 -170.5t-52.5 -132.5t-85 -82t-122.5 -30q-61 0 -103 20v160q27 -12 70 -12q45 0 75.5 34
t47 101.5t23.5 151t7 198.5v283h715v-297h133zM1106 143q53 0 94 7t77.5 24.5t56.5 52.5t20 86t-19.5 85t-57 51t-78.5 23.5t-97 6.5h-111v-336h115z" />
    <glyph glyph-name="uni045A" unicode="&#x45a;" horiz-adv-x="1613" 
d="M1122 623q70 0 126.5 -7t113 -27.5t94 -53.5t61 -89t23.5 -131q0 -81 -27.5 -140.5t-68.5 -92t-102.5 -52t-115.5 -25t-122 -5.5h-299v391h-465v-391h-184v920h184v-379h465v379h184v-297h133zM1104 143q53 0 94 7t77.5 24.5t56.5 52.5t20 86t-19.5 85t-57 51t-78.5 23.5
t-97 6.5h-111v-336h115z" />
    <glyph glyph-name="uni045B" unicode="&#x45b;" horiz-adv-x="1159" 
d="M676 877q354 0 354 -398v-479h-184v444q0 58 -8 102.5t-29.5 86t-65 64t-108.5 22.5q-134 0 -190 -90t-56 -260v-369h-184v1024h-215v143h215v191h184v-191h311v-143h-311v-272q86 125 287 125z" />
    <glyph glyph-name="uni045C" unicode="&#x45c;" horiz-adv-x="1024" 
d="M899 1401l-303 -336h-182l239 336h246zM1001 0h-239l-422 455v-455h-184v920h184v-433l403 433h238l-430 -445z" />
    <glyph glyph-name="uni045D" unicode="&#x45d;" horiz-adv-x="1120" 
d="M715 1065h-183l-303 336h246zM944 938h21v-938h-179v575l-610 -593h-20v938h180v-590z" />
    <glyph glyph-name="uni045E" unicode="&#x45e;" horiz-adv-x="1013" 
d="M504 1024q-162 0 -239 83.5t-77 221.5v25h156v-6q0 -96 41 -149.5t119 -53.5q80 0 120 53.5t40 149.5v6h155v-25q0 -137 -78 -221t-237 -84zM207 -406l203 457l-379 869h202l273 -664l278 664h199l-577 -1326h-199z" />
    <glyph glyph-name="uni045F" unicode="&#x45f;" horiz-adv-x="1112" 
d="M956 920v-920h-315v-244h-170v244h-315v920h184v-770h432v770h184z" />
    <glyph glyph-name="uni0490" unicode="&#x490;" horiz-adv-x="1001" 
d="M963 1612v-449h-598v-1163h-193v1327h614v285h177z" />
    <glyph glyph-name="uni0491" unicode="&#x491;" horiz-adv-x="802" 
d="M741 1163v-393h-401v-770h-184v920h415v243h170z" />
    <glyph glyph-name="Wgrave" unicode="&#x1e80;" horiz-adv-x="1968" 
d="M944 1458l-301 336h244l239 -336h-182zM594 -18l-531 1345h211l338 -907l363 907h20l363 -907l342 907h205l-529 -1345h-20l-371 923l-371 -923h-20z" />
    <glyph glyph-name="wgrave" unicode="&#x1e81;" horiz-adv-x="1468" 
d="M666 1065l-304 336h246l240 -336h-182zM461 -18l-416 938h203l229 -566l252 566h21l247 -566l230 566h196l-407 -938h-21l-256 581l-258 -581h-20z" />
    <glyph glyph-name="Wacute" unicode="&#x1e82;" horiz-adv-x="1968" 
d="M913 1458l240 336h246l-303 -336h-183zM594 -18l-531 1345h211l338 -907l363 907h20l363 -907l342 907h205l-529 -1345h-20l-371 923l-371 -923h-20z" />
    <glyph glyph-name="wacute" unicode="&#x1e83;" horiz-adv-x="1468" 
d="M631 1065l239 336h246l-303 -336h-182zM461 -18l-416 938h203l229 -566l252 566h21l247 -566l230 566h196l-407 -938h-21l-256 581l-258 -581h-20z" />
    <glyph glyph-name="Wdieresis" unicode="&#x1e84;" horiz-adv-x="1968" 
d="M782 1499q-54 0 -88.5 35.5t-34.5 89.5t34.5 89.5t88.5 35.5t88.5 -35.5t34.5 -89.5t-34.5 -89.5t-88.5 -35.5zM1184 1499q-54 0 -88.5 35.5t-34.5 89.5t34.5 89.5t88.5 35.5t88.5 -35.5t34.5 -89.5t-34.5 -89.5t-88.5 -35.5zM594 -18l-531 1345h211l338 -907l363 907h20
l363 -907l342 907h205l-529 -1345h-20l-371 923l-371 -923h-20z" />
    <glyph glyph-name="wdieresis" unicode="&#x1e85;" horiz-adv-x="1468" 
d="M539 1137q-50 0 -81.5 30.5t-31.5 79.5q0 48 33 79.5t80 31.5q48 0 79 -31t31 -80q0 -50 -31.5 -80t-78.5 -30zM938 1137q-50 0 -80.5 30.5t-30.5 79.5t32 80t79 31q48 0 79.5 -31t31.5 -80q0 -50 -32 -80t-79 -30zM461 -18l-416 938h203l229 -566l252 566h21l247 -566
l230 566h196l-407 -938h-21l-256 581l-258 -581h-20z" />
    <glyph glyph-name="uni1E9E" unicode="&#x1e9e;" horiz-adv-x="1343" 
d="M891 811q71 -2 134.5 -28t114 -73.5t80 -124.5t29.5 -173q0 -216 -124.5 -324t-344.5 -108q-125 0 -241 34v172q103 -41 231 -41q285 0 285 263q0 115 -69.5 186.5t-199.5 71.5q-110 0 -180 -45l-14 16l326 530h-553v-1167h-193v1327h1018v-20z" />
    <glyph glyph-name="Ygrave" unicode="&#x1ef2;" horiz-adv-x="1232" 
d="M645 1458l-301 336h244l239 -336h-182zM518 0v526l-471 801h211l360 -633l363 633h205l-475 -801v-526h-193z" />
    <glyph glyph-name="ygrave" unicode="&#x1ef3;" horiz-adv-x="1013" 
d="M504 1065l-303 336h245l240 -336h-182zM207 -406l203 457l-379 869h202l273 -664l278 664h199l-577 -1326h-199z" />
    <glyph glyph-name="uni2002" unicode="&#x2002;" horiz-adv-x="968" 
 />
    <glyph glyph-name="uni2003" unicode="&#x2003;" horiz-adv-x="1617" 
 />
    <glyph glyph-name="uni2009" unicode="&#x2009;" horiz-adv-x="323" 
 />
    <glyph glyph-name="uni200A" unicode="&#x200a;" horiz-adv-x="102" 
 />
    <glyph glyph-name="endash" unicode="&#x2013;" horiz-adv-x="968" 
d="M82 422v153h805v-153h-805z" />
    <glyph glyph-name="emdash" unicode="&#x2014;" horiz-adv-x="1617" 
d="M82 422v153h1452v-153h-1452z" />
    <glyph glyph-name="quoteleft" unicode="&#x2018;" horiz-adv-x="526" 
d="M412 1327q-57 -53 -92.5 -118.5t-43.5 -118.5q55 1 89 -32.5t34 -86.5q0 -57 -36 -91t-95 -34q-65 0 -104 44t-39 128q0 82 45 167t119 142h123z" />
    <glyph glyph-name="quoteright" unicode="&#x2019;" horiz-adv-x="526" 
d="M258 1339q65 0 104 -44t39 -128q0 -83 -44.5 -168t-118.5 -141h-123q57 53 92 118.5t43 119.5q-55 -1 -89 32t-34 86q0 57 36 91t95 34z" />
    <glyph glyph-name="quotesinglbase" unicode="&#x201a;" horiz-adv-x="526" 
d="M258 201q65 0 104 -44t39 -128q0 -83 -44.5 -168.5t-118.5 -141.5h-123q57 53 92 118.5t43 119.5q-55 -1 -89 32.5t-34 86.5q0 57 36 91t95 34z" />
    <glyph glyph-name="quotedblleft" unicode="&#x201c;" horiz-adv-x="888" 
d="M125 1018q0 82 45 167t119 142h123q-57 -53 -92.5 -118.5t-43.5 -118.5q55 1 89 -32.5t34 -86.5q0 -57 -36 -91t-95 -34q-65 0 -104 44t-39 128zM774 1327q-57 -53 -92 -118.5t-43 -118.5q55 1 89 -32.5t34 -86.5q0 -57 -36 -91t-95 -34q-65 0 -104.5 44t-39.5 128
q0 82 45 167t119 142h123z" />
    <glyph glyph-name="quotedblright" unicode="&#x201d;" horiz-adv-x="888" 
d="M258 1339q65 0 104 -44t39 -128q0 -83 -44.5 -168t-118.5 -141h-123q57 53 92 118.5t43 119.5q-55 -1 -89 32t-34 86q0 57 36 91t95 34zM621 1339q65 0 104 -44t39 -128q0 -82 -45 -167t-119 -142h-123q57 53 92 118.5t43 119.5q-55 -1 -89 32t-34 86q0 57 36.5 91
t95.5 34z" />
    <glyph glyph-name="quotedblbase" unicode="&#x201e;" horiz-adv-x="888" 
d="M258 201q65 0 104 -44t39 -128q0 -83 -44.5 -168.5t-118.5 -141.5h-123q57 53 92 118.5t43 119.5q-55 -1 -89 32.5t-34 86.5q0 57 36 91t95 34zM621 201q65 0 104 -44t39 -128q0 -82 -45 -167.5t-119 -142.5h-123q57 53 92 118.5t43 119.5q-55 -1 -89 32.5t-34 86.5
q0 57 36.5 91t95.5 34z" />
    <glyph glyph-name="dagger" unicode="&#x2020;" horiz-adv-x="1200" 
d="M526 -410l-16 1180h-338v150h336l-6 407h198l-6 -407h334v-150h-338l-16 -1180h-148z" />
    <glyph glyph-name="daggerdbl" unicode="&#x2021;" horiz-adv-x="1200" 
d="M526 -410l-8 631h-325v150h323l-6 399h-338v150h336l-6 407h198l-6 -407h334v-150h-338l-6 -399h324v-150h-324l-10 -631h-148z" />
    <glyph glyph-name="bullet" unicode="&#x2022;" horiz-adv-x="917" 
d="M461 256q-97 0 -158 61t-61 158q0 92 64 153.5t155 61.5q94 0 154.5 -61t60.5 -156q0 -96 -61 -156.5t-154 -60.5z" />
    <glyph glyph-name="ellipsis" unicode="&#x2026;" horiz-adv-x="1404" 
d="M266 -18q-54 0 -87.5 34t-33.5 88q0 52 35 86.5t86 34.5q52 0 85.5 -34.5t33.5 -88.5q0 -53 -33.5 -86.5t-85.5 -33.5zM705 -18q-55 0 -88 34t-33 88q0 52 35 86.5t86 34.5t84.5 -34.5t33.5 -88.5t-33.5 -87t-84.5 -33zM1141 -18q-54 0 -87.5 34t-33.5 88q0 52 35 86.5
t86 34.5q52 0 85.5 -34.5t33.5 -88.5q0 -53 -33.5 -86.5t-85.5 -33.5z" />
    <glyph glyph-name="perthousand" unicode="&#x2030;" horiz-adv-x="2588" 
d="M424 702q-142 0 -234 86.5t-92 235.5t94.5 236.5t231.5 87.5q138 0 233 -86t95 -236t-93 -237t-235 -87zM428 0l737 1327h191l-738 -1327h-190zM424 834q81 0 132.5 51t51.5 141q0 93 -52.5 143t-131.5 50q-78 0 -130 -52.5t-52 -140.5q0 -90 51.5 -141t130.5 -51z
M1360 -20q-143 0 -235.5 86t-92.5 235q0 150 95 237t233 87q136 0 231 -86t95 -236q0 -149 -92.5 -236t-233.5 -87zM2165 -20q-143 0 -235.5 86t-92.5 235q0 150 95 237t233 87q136 0 230.5 -86t94.5 -236t-92 -236.5t-233 -86.5zM1360 111q79 0 130.5 51t51.5 141
q0 92 -52 142.5t-130 50.5q-79 0 -131.5 -52.5t-52.5 -142.5q0 -88 52 -139t132 -51zM2165 111q79 0 130.5 51t51.5 141q0 92 -52 142.5t-130 50.5q-79 0 -132 -52.5t-53 -142.5q0 -88 52 -139t133 -51z" />
    <glyph glyph-name="guilsinglleft" unicode="&#x2039;" horiz-adv-x="729" 
d="M369 152l-287 321l287 322h215l-295 -322l295 -321h-215z" />
    <glyph glyph-name="guilsinglright" unicode="&#x203a;" horiz-adv-x="729" 
d="M145 152l295 321l-295 322h213l287 -322l-287 -321h-213z" />
    <glyph glyph-name="fraction" unicode="&#x2044;" horiz-adv-x="927" 
d="M0 0l737 1327h191l-738 -1327h-190z" />
    <glyph glyph-name="Euro" unicode="&#x20ac;" horiz-adv-x="1224" 
d="M815 -20q-258 0 -417 119.5t-199 344.5h-181v146h164q-4 36 -4 72q0 37 4 69h-164v146h183q42 214 198 342.5t418 128.5q106 0 197.5 -20t142.5 -48v-184q-55 34 -144.5 59t-185.5 25q-176 0 -283.5 -81.5t-142.5 -221.5h439v-146h-461q-4 -24 -4 -65q0 -48 4 -76h461
v-146h-443q25 -100 90.5 -167t152 -96t191.5 -29q201 0 340 73v-182q-47 -25 -148 -44t-208 -19z" />
    <glyph glyph-name="uni20B4" unicode="&#x20b4;" horiz-adv-x="1107" 
d="M995 750h-194q-61 -52 -230 -156h424v-137h-589q-39 -55 -39 -117q0 -94 63 -142t180 -48q97 0 188 30t158 74v-195q-154 -79 -381 -79q-182 0 -293.5 83t-111.5 244q0 76 31 150h-88v137h194q19 17 40 33.5t50 35.5t42.5 28t51.5 32t44 27h-422v139h598q41 57 41 117
q0 81 -61 127.5t-167 46.5q-155 0 -311 -95v197q50 26 141.5 46t196.5 20q192 0 293.5 -83.5t101.5 -226.5q0 -78 -33 -149h82v-139z" />
    <glyph glyph-name="uni20BD" unicode="&#x20bd;" horiz-adv-x="1302" 
d="M655 461h-180v-129h260v-160h-260v-172h-190v172h-170v160h170v129h-170v160h170v706h389q96 0 171.5 -10t149 -38t121.5 -75t77.5 -125.5t29.5 -183.5q0 -82 -19.5 -148.5t-50.5 -111t-78 -77.5t-94 -51.5t-108 -29t-109.5 -13.5t-108.5 -3zM1028 895q0 68 -21.5 118.5
t-55.5 79t-86 45.5t-101.5 22t-114.5 5h-174v-544h174q63 0 113 6t101.5 23.5t86 47t56.5 79.5t22 118z" />
    <glyph glyph-name="uni2113" unicode="&#x2113;" horiz-adv-x="475" 
d="M145 0v1358h185v-1358h-185z" />
    <glyph glyph-name="uni2116" unicode="&#x2116;" horiz-adv-x="2293" 
d="M1255 -20l-897 948v-928h-186v1348h21l897 -951v930h186v-1347h-21zM1868 649q-157 0 -247.5 94t-90.5 250q0 155 93 254t251 99q155 0 245.5 -92.5t90.5 -252.5q0 -161 -94 -256.5t-248 -95.5zM1872 772q88 0 140 61t52 168t-52 165.5t-140 58.5q-93 0 -144 -62.5
t-51 -165.5q0 -106 52.5 -165.5t142.5 -59.5zM1581 424v123h578v-123h-578z" />
    <glyph glyph-name="trademark" unicode="&#x2122;" horiz-adv-x="1761" 
d="M1169 539l-227 458l-78 -446h-141l160 797h20l277 -553l280 553h21l157 -797h-143l-74 446l-231 -458h-21zM270 551v651h-221v125h586v-125h-219v-651h-146z" />
    <glyph glyph-name="uni2126" unicode="&#x2126;" horiz-adv-x="1619" 
d="M1473 670q0 -171 -70.5 -302t-198.5 -202h269v-166h-549v166q157 43 255.5 173t98.5 329q0 222 -130.5 362.5t-336.5 140.5t-338.5 -140.5t-132.5 -362.5q0 -198 99 -328t257 -174v-166h-551v166h267q-126 73 -196.5 202t-70.5 296q0 197 79 351t231.5 243.5t357.5 89.5
q154 0 279 -51.5t208 -142.5t128 -215t45 -269z" />
    <glyph glyph-name="estimated" unicode="&#x212e;" horiz-adv-x="1816" 
d="M911 -20q-159 0 -304 55t-250.5 148t-167.5 222.5t-62 272.5t62 273t167.5 223.5t250.5 148.5t304 55q156 0 300 -55t249 -148.5t167.5 -223.5t62.5 -273v-16h-1264q-16 0 -16 -13v-383q0 -19 24 -43q91 -94 215.5 -147t263.5 -53q147 0 276.5 60.5t223.5 164.5h115
q-113 -124 -274 -196t-343 -72zM426 700h963q16 0 16 11v389q0 18 -27 45q-87 90 -209.5 141t-255.5 51q-139 0 -262 -52t-217 -146q-24 -24 -24 -49v-379q0 -11 16 -11z" />
    <glyph glyph-name="arrowleft" unicode="&#x2190;" horiz-adv-x="1767" 
d="M741 98l-579 578l579 577h236l-490 -487h1119v-178h-1119l490 -490h-236z" />
    <glyph glyph-name="arrowup" unicode="&#x2191;" horiz-adv-x="1363" 
d="M588 0v1034l-426 -422v215l520 521l520 -521v-215l-426 422v-1034h-188z" />
    <glyph glyph-name="arrowright" unicode="&#x2192;" horiz-adv-x="1767" 
d="M791 98l489 490h-1118v178h1118l-489 487h235l580 -577l-580 -578h-235z" />
    <glyph glyph-name="arrowdown" unicode="&#x2193;" horiz-adv-x="1363" 
d="M682 -20l-520 520v215l426 -422v1034h188v-1034l426 422v-215z" />
    <glyph glyph-name="partialdiff" unicode="&#x2202;" horiz-adv-x="1169" 
d="M569 -18q-222 0 -354.5 131.5t-132.5 345.5q0 209 125 344t344 135q117 0 201.5 -45.5t130.5 -120.5q-19 244 -121.5 351.5t-278.5 107.5q-66 0 -127 -12.5t-92 -26.5v162q85 35 230 35q70 0 131 -9.5t122.5 -34t111 -62.5t93 -97.5t72.5 -137.5t46 -185t17 -236
q0 -302 -131.5 -473.5t-386.5 -171.5zM571 141q131 0 214 88.5t83 237.5q0 141 -83.5 227t-213.5 86q-137 0 -217 -92t-80 -231q0 -141 82.5 -228.5t214.5 -87.5z" />
    <glyph glyph-name="uni2206" unicode="&#x2206;" horiz-adv-x="1318" 
d="M45 0l604 1348h21l604 -1348h-1229zM317 166h678l-338 788z" />
    <glyph glyph-name="product" unicode="&#x220f;" horiz-adv-x="1597" 
d="M326 -406v1569h-211v164h1368v-164h-211v-1569h-193v1569h-561v-1569h-192z" />
    <glyph glyph-name="summation" unicode="&#x2211;" horiz-adv-x="1146" 
d="M96 0v20l502 650l-496 637v20h957v-164h-613l385 -493l-389 -504h637v-166h-983z" />
    <glyph glyph-name="minus" unicode="&#x2212;" 
d="M186 387v152h852v-152h-852z" />
    <glyph glyph-name="radical" unicode="&#x221a;" horiz-adv-x="1204" 
d="M526 0l-198 494h-207v149h338l157 -407l392 1091h190l-489 -1327h-183z" />
    <glyph glyph-name="infinity" unicode="&#x221e;" horiz-adv-x="1406" 
d="M391 346q-137 0 -223 82t-86 238q0 153 86.5 234t222.5 81q95 0 176.5 -52.5t134.5 -152.5q55 100 137 152.5t177 52.5q136 0 221.5 -81t85.5 -234q0 -157 -85 -238.5t-222 -81.5q-95 0 -176.5 54.5t-137.5 154.5q-54 -100 -135 -154.5t-176 -54.5zM408 498
q67 0 117 42.5t96 125.5q-45 83 -95.5 124t-119.5 41q-73 0 -115.5 -45t-42.5 -122q0 -76 43 -121t117 -45zM999 498q73 0 115.5 44.5t42.5 121.5t-41.5 122t-114.5 45q-69 0 -119.5 -41t-95.5 -124q46 -83 96 -125.5t117 -42.5z" />
    <glyph glyph-name="integral" unicode="&#x222b;" horiz-adv-x="774" 
d="M190 -424q-93 0 -163 25v155q62 -24 133 -24q89 0 125.5 54.5t36.5 188.5v1006q0 184 79 275.5t254 91.5q77 0 142 -21v-162q-59 23 -123 23q-93 0 -130.5 -53.5t-37.5 -165.5v-967q0 -82 -6.5 -141t-26 -116t-53.5 -92t-92 -56t-138 -21z" />
    <glyph glyph-name="approxequal" unicode="&#x2248;" 
d="M793 514q-55 0 -110 17.5t-92.5 39t-83 39t-81.5 17.5q-49 0 -73.5 -28.5t-26.5 -70.5h-140q2 111 64.5 177.5t177.5 66.5q54 0 107 -17.5t88 -39t81 -39t89 -17.5q51 0 77 29t29 70h139q-2 -111 -65 -177.5t-180 -66.5zM793 154q-69 0 -137 28t-126.5 56t-103.5 28
q-49 0 -73.5 -28t-26.5 -70h-140q2 111 64.5 177.5t177.5 66.5q54 0 107 -17.5t88 -39t81 -39t89 -17.5q51 0 77 28.5t29 69.5h139q-2 -111 -65 -177t-180 -66z" />
    <glyph glyph-name="notequal" unicode="&#x2260;" 
d="M311 14l99 193h-224v151h287l107 209h-394v152h461l98 188h156l-98 -188h235v-152h-303l-106 -209h409v-151h-473l-98 -193h-156z" />
    <glyph glyph-name="lessequal" unicode="&#x2264;" 
d="M1038 264l-852 445v20l852 445v-181l-551 -270l551 -272v-187zM186 0v152h852v-152h-852z" />
    <glyph glyph-name="greaterequal" unicode="&#x2265;" 
d="M186 264v180l551 271l-551 272v187l852 -445v-20zM186 0v152h852v-152h-852z" />
    <glyph glyph-name="dotmath" unicode="&#x22c5;" horiz-adv-x="600" 
d="M301 352q-54 0 -87.5 34.5t-33.5 88.5q0 52 35 86.5t86 34.5t85 -34.5t34 -88.5q0 -53 -34 -87t-85 -34z" />
    <glyph glyph-name="lozenge" unicode="&#x25ca;" horiz-adv-x="1126" 
d="M553 -20l-487 671l487 697h20l488 -697l-488 -671h-20zM563 229l309 422l-309 447l-309 -447z" />
    <glyph glyph-name="uniF8FF" unicode="&#xf8ff;" horiz-adv-x="1124" 
d="M233 1206q-26 0 -43.5 18t-17.5 46q0 25 17.5 43t43.5 18q25 0 44.5 -18.5t19.5 -42.5q0 -27 -19.5 -45.5t-44.5 -18.5zM369 1206q-25 0 -43.5 18.5t-18.5 45.5q0 25 18.5 43t43.5 18q26 0 43.5 -18t17.5 -43q0 -28 -17.5 -46t-43.5 -18zM502 1206q-25 0 -44.5 18.5
t-19.5 45.5q0 24 19.5 42.5t44.5 18.5q26 0 43.5 -18t17.5 -43q0 -28 -17.5 -46t-43.5 -18zM637 1206q-26 0 -44 18t-18 46q0 25 18 43t44 18q25 0 44 -18t19 -43q0 -27 -19 -45.5t-44 -18.5zM772 1206q-28 0 -45.5 18t-17.5 46q0 25 18 43t45 18q24 0 43 -18.5t19 -42.5
q0 -27 -19 -45.5t-43 -18.5zM905 1206q-25 0 -44 18.5t-19 45.5q0 25 19 43t44 18q26 0 44 -18t18 -43q0 -28 -18 -46t-44 -18zM233 1073q-26 0 -43.5 18t-17.5 44q0 25 17.5 43t43.5 18q25 0 44.5 -18.5t19.5 -42.5q0 -26 -19.5 -44t-44.5 -18zM233 938q-26 0 -43.5 18.5
t-17.5 44.5q0 25 17.5 42.5t43.5 17.5q25 0 44.5 -18t19.5 -42q0 -26 -19.5 -44.5t-44.5 -18.5zM502 938q-25 0 -44.5 18.5t-19.5 44.5q0 24 19.5 42t44.5 18q26 0 43.5 -17.5t17.5 -42.5q0 -26 -17.5 -44.5t-43.5 -18.5zM637 938q-26 0 -44 18.5t-18 44.5q0 25 18 42.5
t44 17.5q25 0 44 -18t19 -42q0 -26 -19 -44.5t-44 -18.5zM772 938q-27 0 -45 18t-18 45q0 25 18 42.5t45 17.5q24 0 43 -18t19 -42q0 -26 -19 -44.5t-43 -18.5zM905 938q-25 0 -44 18.5t-19 44.5q0 24 19 42t44 18q26 0 44 -17.5t18 -42.5q0 -26 -18 -44.5t-44 -18.5z
M233 807q-26 0 -43.5 16.5t-17.5 42.5t17.5 44t43.5 18q25 0 44.5 -18t19.5 -44q0 -25 -19 -42t-45 -17zM502 807q-26 0 -45 17t-19 42q0 26 19.5 44t44.5 18q26 0 43.5 -18t17.5 -44t-17.5 -42.5t-43.5 -16.5zM233 670q-26 0 -43.5 17.5t-17.5 43.5q0 27 17.5 45.5
t43.5 18.5q25 0 44.5 -19t19.5 -45t-19.5 -43.5t-44.5 -17.5zM502 670q-25 0 -44.5 17.5t-19.5 43.5t19.5 45t44.5 19q26 0 43.5 -18.5t17.5 -45.5q0 -26 -17.5 -43.5t-43.5 -17.5zM637 670q-26 0 -44 17.5t-18 43.5t18 45t44 19q25 0 44 -19t19 -45t-19 -43.5t-44 -17.5z
M772 670q-28 0 -45.5 17.5t-17.5 43.5q0 27 18 45.5t45 18.5q24 0 43 -19t19 -45q0 -25 -19 -43t-43 -18zM905 670q-25 0 -44 17.5t-19 43.5t19 45t44 19q26 0 44 -19t18 -45t-18 -43.5t-44 -17.5zM233 537q-26 0 -43.5 17.5t-17.5 43.5q0 25 17.5 43t43.5 18
q25 0 44.5 -18.5t19.5 -42.5q0 -26 -19.5 -43.5t-44.5 -17.5zM905 537q-25 0 -44 17.5t-19 43.5q0 25 19 43t44 18q26 0 44 -18t18 -43q0 -26 -18 -43.5t-44 -17.5zM233 403q-26 0 -43.5 18t-17.5 44q0 25 17.5 42t43.5 17q25 0 44.5 -17.5t19.5 -41.5q0 -26 -19.5 -44
t-44.5 -18zM502 403q-25 0 -44.5 18t-19.5 44q0 24 19.5 41.5t44.5 17.5q26 0 43.5 -17t17.5 -42q0 -26 -17.5 -44t-43.5 -18zM637 403q-26 0 -44 18t-18 44q0 25 18 42t44 17q25 0 44 -17.5t19 -41.5q0 -26 -19 -44t-44 -18zM772 403q-28 0 -45.5 17.5t-17.5 44.5
q0 25 18 42t45 17q24 0 43 -17.5t19 -41.5q0 -26 -19 -44t-43 -18zM905 403q-25 0 -44 18t-19 44q0 24 19 41.5t44 17.5q26 0 44 -17t18 -42q0 -26 -18 -44t-44 -18zM233 266q-26 0 -43.5 18.5t-17.5 45.5q0 26 17.5 43.5t43.5 17.5q25 0 44.5 -17.5t19.5 -43.5t-19.5 -45
t-44.5 -19zM233 133q-26 0 -43.5 18t-17.5 44q0 27 17 44t44 17q26 0 45 -17t19 -44q0 -26 -19.5 -44t-44.5 -18zM502 133q-25 0 -44.5 18t-19.5 44q0 27 19 44t45 17q27 0 44 -17t17 -44q0 -26 -17.5 -44t-43.5 -18zM233 0q-26 0 -43.5 17.5t-17.5 43.5q0 25 17.5 44.5
t43.5 19.5q25 0 44.5 -19.5t19.5 -44.5q0 -26 -19.5 -43.5t-44.5 -17.5zM369 0q-25 0 -43.5 17.5t-18.5 43.5q0 25 18.5 44.5t43.5 19.5q26 0 43.5 -19.5t17.5 -44.5q0 -26 -17.5 -43.5t-43.5 -17.5zM502 0q-25 0 -44.5 17.5t-19.5 43.5q0 25 19.5 44.5t44.5 19.5
q26 0 43.5 -19.5t17.5 -44.5q0 -26 -17.5 -43.5t-43.5 -17.5z" />
    <glyph glyph-name="Cacute.loclPLK" horiz-adv-x="1298" 
d="M684 1458l158 336h221l-207 -336h-172zM782 -20q-210 0 -364 88.5t-231.5 241.5t-77.5 352q0 200 78.5 354.5t231 243t357.5 88.5q123 0 226 -29.5t151 -67.5v-192q-165 112 -367 112q-221 0 -352 -138t-131 -367q0 -158 65 -274.5t177 -175t256 -58.5q207 0 373 110
v-194q-48 -36 -156 -65t-236 -29z" />
    <glyph glyph-name="Iacute_J.loclNLD" horiz-adv-x="1488" 
d="M174 1458l240 336h245l-303 -336h-182zM815 1458l240 336h245l-303 -336h-182zM172 0v1327h193v-1327h-193zM909 -20q-78 0 -150 13t-110 32v180q88 -53 225 -53q83 0 136.5 21.5t82.5 69t39.5 108t10.5 153.5v661h-332v162h524v-876q0 -241 -101.5 -356t-324.5 -115z
" />
    <glyph glyph-name="Nacute.loclPLK" horiz-adv-x="1447" 
d="M633 1458l158 336h221l-207 -336h-172zM1255 -20l-897 948v-928h-186v1348h21l897 -951v930h186v-1347h-21z" />
    <glyph glyph-name="Oacute.loclPLK" horiz-adv-x="1544" 
d="M684 1458l158 336h221l-207 -336h-172zM768 -20q-153 0 -278.5 52.5t-208 144.5t-127.5 217t-45 270q0 197 78.5 351t231.5 243.5t357 89.5q153 0 278.5 -51.5t208.5 -142t128 -214.5t45 -268q0 -197 -78 -352.5t-231 -247.5t-359 -92zM774 158q209 0 338 142.5
t129 367.5q0 223 -130 363t-339 140q-206 0 -337.5 -140.5t-131.5 -362.5t130.5 -366t340.5 -144z" />
    <glyph glyph-name="Sacute.loclPLK" horiz-adv-x="1013" 
d="M459 1458l157 336h222l-207 -336h-172zM481 -20q-200 0 -350 79v195q67 -44 158 -74t188 -30q118 0 181 49t63 147q0 53 -25 95t-65.5 69t-93 53.5t-106.5 48.5t-106.5 55t-93 72t-65.5 100.5t-25 139.5q0 171 109.5 270t300.5 99q90 0 175.5 -20.5t133.5 -45.5v-197
q-65 41 -144 68t-153 27q-104 0 -165.5 -49.5t-61.5 -139.5q0 -51 25 -91.5t66 -66t93 -51t107 -47t107 -55t93 -73t66 -103.5t25 -144q0 -187 -115 -283.5t-322 -96.5z" />
    <glyph glyph-name="Zacute.loclPLK" horiz-adv-x="1212" 
d="M514 1458l158 336h221l-207 -336h-172zM96 0v20l717 1143h-680v164h983v-20l-715 -1141h719v-166h-1024z" />
    <glyph glyph-name="cacute.loclPLK" horiz-adv-x="909" 
d="M442 1065l160 336h221l-207 -336h-174zM563 -18q-100 0 -186.5 29.5t-152.5 86.5t-104 147.5t-38 205.5q0 221 131.5 354t353.5 133q141 0 242 -49v-174q-105 65 -227 65q-138 0 -223 -85.5t-85 -235.5t82.5 -234t225.5 -84q77 0 138.5 23t96.5 49v-176
q-37 -22 -106 -38.5t-148 -16.5z" />
    <glyph glyph-name="iacute_j.loclNLD" horiz-adv-x="1007" 
d="M98 1065l240 336h246l-303 -336h-183zM594 1065l240 336h245l-303 -336h-182zM174 0v770h-129v150h313v-920h-184zM506 -424q-87 0 -164 25v157q60 -26 135 -26q110 0 155.5 67t45.5 199v772h-129v150h313v-912q0 -217 -84.5 -324.5t-271.5 -107.5z" />
    <glyph glyph-name="i.loclTRK" horiz-adv-x="503" 
d="M264 1137q-50 0 -81 30.5t-31 79.5t32.5 80t79.5 31t79 -31t32 -80t-32.5 -79.5t-78.5 -30.5zM174 0v770h-129v150h313v-920h-184z" />
    <glyph glyph-name="nacute.loclPLK" horiz-adv-x="1101" 
d="M465 1065l160 336h221l-207 -336h-174zM145 0v920h168l4 -127q81 145 301 145q353 0 353 -397v-541h-185v506q0 47 -4.5 83.5t-18 74t-36 61.5t-62 39.5t-92.5 15.5q-131 0 -187 -91t-56 -259v-430h-185z" />
    <glyph glyph-name="oacute.loclPLK" horiz-adv-x="1142" 
d="M446 1065l160 336h221l-206 -336h-175zM569 -18q-222 0 -354.5 131t-132.5 344q0 211 133.5 346t357.5 135q221 0 353.5 -125.5t132.5 -343.5q0 -220 -135.5 -353.5t-354.5 -133.5zM571 141q132 0 214.5 89t82.5 235q0 143 -83 229t-214 86q-137 0 -217 -92t-80 -229
q0 -142 82.5 -230t214.5 -88z" />
    <glyph glyph-name="sacute.loclPLK" horiz-adv-x="780" 
d="M287 1065l159 336h222l-207 -336h-174zM365 -18q-79 0 -151 16t-108 37v158q127 -68 246 -68q79 0 123.5 33.5t44.5 97.5q0 43 -22.5 73t-58 48t-78.5 33.5t-86.5 35.5t-79 47t-58 74.5t-22.5 112.5q0 128 82 193t223 65q126 0 215 -43v-158q-97 58 -205 58
q-71 0 -107 -30t-36 -77q0 -37 22.5 -63t58.5 -42t80 -31t87.5 -36t79.5 -49.5t58.5 -79.5t22.5 -119q0 -143 -91 -214.5t-240 -71.5z" />
    <glyph glyph-name="germandbls.calt" horiz-adv-x="1343" 
d="M891 811q71 -2 134.5 -28t114 -73.5t80 -124.5t29.5 -173q0 -216 -124.5 -324t-344.5 -108q-125 0 -241 34v172q103 -41 231 -41q285 0 285 263q0 115 -69.5 186.5t-199.5 71.5q-110 0 -180 -45l-14 16l326 530h-553v-1167h-193v1327h1018v-20z" />
    <glyph glyph-name="zacute.loclPLK" horiz-adv-x="960" 
d="M356 1065l160 336h221l-207 -336h-174zM76 0v20l518 750h-483v150h774v-21l-518 -747h526v-152h-817z" />
    <glyph glyph-name="uni0414.loclBGR" horiz-adv-x="1505" 
d="M1288 166h139v-451h-174v287h-1001v-287h-174v451h139l526 1182h21zM752 983l-344 -817h684z" />
    <glyph glyph-name="uni041B.loclBGR" horiz-adv-x="1300" 
d="M1253 0h-204l-400 963l-403 -963h-199l594 1348h21z" />
    <glyph glyph-name="uni0424.loclBGR" horiz-adv-x="1644" 
d="M1536 664q0 -273 -170.5 -437t-450.5 -182v-123h-186v123q-280 15 -450 181t-170 438q0 273 170 436.5t450 181.5v123h186v-123q281 -15 451 -180.5t170 -437.5zM303 668q0 -197 119 -319.5t309 -133.5v897q-187 -11 -307.5 -129.5t-120.5 -314.5zM913 215
q188 11 308 129t120 315q0 196 -118.5 318.5t-309.5 134.5v-897z" />
    <glyph glyph-name="uni0431.loclSRB" horiz-adv-x="1142" 
d="M684 915q375 -118 375 -456q0 -216 -135.5 -346.5t-354.5 -130.5q-222 0 -354.5 128.5t-132.5 335.5q0 152 78.5 262t218.5 154q-105 37 -157 93.5t-52 148.5q0 126 93.5 190t246.5 64h281q98 0 165 20v-153q-49 -21 -192 -21h-248q-162 0 -162 -100q0 -26 11 -46.5
t26 -34.5t47 -28t58 -22.5t75 -22.5zM571 141q132 0 214.5 86.5t82.5 227.5q0 138 -83 221.5t-214 83.5q-137 0 -217 -89.5t-80 -221.5q0 -138 82.5 -223t214.5 -85z" />
    <glyph glyph-name="uni0432.loclBGR" horiz-adv-x="1081" 
d="M733 717q120 -22 192 -114t72 -224q0 -184 -122.5 -290.5t-319.5 -106.5q-222 0 -332 112t-110 361v403q0 269 103.5 398.5t326.5 129.5q185 0 286 -95t101 -273q0 -109 -55 -191t-142 -110zM535 1237q-123 0 -180.5 -84.5t-57.5 -255.5v-125h158q145 0 213.5 62
t68.5 188q0 104 -52.5 159.5t-149.5 55.5zM561 131q116 0 181 65t65 173q0 137 -73.5 197.5t-237.5 60.5h-199v-174q0 -161 68.5 -241.5t195.5 -80.5z" />
    <glyph glyph-name="uni0433.loclBGR" horiz-adv-x="831" 
d="M438 -18q-150 0 -241 67t-91 199q0 64 24 112.5t62 77t84 50.5t92.5 39.5t84.5 36.5t62 48t24 68q0 106 -150 106q-122 0 -233 -65v166q31 17 106 34t156 17q151 0 232 -64t81 -194q0 -65 -24 -112.5t-62 -75t-84 -47.5t-92 -36.5t-84 -35.5t-62 -50.5t-24 -76.5
q0 -55 41 -85t111 -30q124 0 254 84v-164q-37 -27 -111.5 -48t-155.5 -21z" />
    <glyph glyph-name="uni0434.loclBGR" horiz-adv-x="1187" 
d="M549 -424q-174 0 -273 39v166q132 -47 269 -47q313 0 313 362v58q-41 -68 -123.5 -111t-197.5 -43q-210 0 -332.5 131t-122.5 336q0 209 125 340t330 131q113 0 199 -43t134 -115l2 140h170v-824q0 -270 -119 -395t-374 -125zM569 164q129 0 209 87t80 222
q0 140 -81 223.5t-212 83.5q-130 0 -210.5 -85.5t-80.5 -223.5q0 -139 80.5 -223t214.5 -84z" />
    <glyph glyph-name="uni0436.loclBGR" horiz-adv-x="1501" 
d="M1479 0h-240l-397 481v-481h-183v481l-397 -481h-239l426 494l-408 426h223l395 -420v858h183v-858l395 420h223l-407 -426z" />
    <glyph glyph-name="uni0437.loclBGR" horiz-adv-x="876" 
d="M594 297q95 -30 158 -112t63 -224q0 -103 -35 -179t-99 -120t-144 -65t-179 -21q-102 0 -180 21t-117 49v178q51 -38 129 -63t164 -25q271 0 271 229q0 128 -71.5 183t-213.5 55h-96v149h67q131 0 203 50t72 176q0 104 -58 153t-157 49q-83 0 -162 -25.5t-127 -60.5v168
q46 27 133.5 51.5t194.5 24.5q70 0 131 -15.5t116.5 -51t88 -102.5t32.5 -159q0 -112 -51.5 -193t-132.5 -120z" />
    <glyph glyph-name="uni0438.loclBGR" horiz-adv-x="1114" 
d="M774 920h184v-920h-167l-5 121q-83 -139 -297 -139q-348 0 -348 397v541h185v-508q0 -47 4 -83t17 -73.5t35 -61.5t60 -39.5t90 -15.5q131 0 186.5 90.5t55.5 257.5v433z" />
    <glyph glyph-name="uni0439.loclBGR" horiz-adv-x="1114" 
d="M549 1024q-162 0 -239 83.5t-77 221.5v25h156v-6q0 -96 41 -149.5t119 -53.5q80 0 120 53.5t40 149.5v6h155v-25q0 -137 -78 -221t-237 -84zM774 920h184v-920h-167l-5 121q-83 -139 -297 -139q-348 0 -348 397v541h185v-508q0 -47 4 -83t17 -73.5t35 -61.5t60 -39.5
t90 -15.5q131 0 186.5 90.5t55.5 257.5v433z" />
    <glyph glyph-name="uni045D.loclBGR" horiz-adv-x="1114" 
d="M645 1065h-182l-303 336h246zM774 920h184v-920h-167l-5 121q-83 -139 -297 -139q-348 0 -348 397v541h185v-508q0 -47 4 -83t17 -73.5t35 -61.5t60 -39.5t90 -15.5q131 0 186.5 90.5t55.5 257.5v433z" />
    <glyph glyph-name="uni043A.loclBGR" horiz-adv-x="1026" 
d="M156 0v1358h184v-852l403 414h238l-432 -426l455 -494h-242l-422 475v-475h-184z" />
    <glyph glyph-name="uni043B.loclBGR" horiz-adv-x="1009" 
d="M979 0h-203l-274 598l-275 -598h-196l461 938h20z" />
    <glyph glyph-name="uni043F.loclBGR" horiz-adv-x="1122" 
d="M156 0v920h168l4 -127q81 145 301 145q352 0 352 -397v-541h-184v506q0 47 -4.5 83.5t-18 74t-36 61.5t-62 39.5t-92.5 15.5q-131 0 -187.5 -91t-56.5 -259v-430h-184z" />
    <glyph glyph-name="uni0442.loclBGR" horiz-adv-x="1669" 
d="M156 0v920h168l4 -123q39 65 112 103t166 38q100 0 173.5 -41t109.5 -119q43 76 123 118t180 42q165 0 250.5 -96t85.5 -285v-557h-185v545q0 49 -7.5 87t-26 73.5t-57 55t-95.5 19.5q-52 0 -91.5 -18t-64 -48t-40 -75t-21.5 -94.5t-6 -110.5v-434h-184v545q0 49 -7.5 87
t-26.5 73.5t-57.5 55t-95.5 19.5q-52 0 -91.5 -18t-64 -48t-40 -75t-21.5 -94.5t-6 -110.5v-434h-184z" />
    <glyph glyph-name="uni0446.loclBGR" horiz-adv-x="1183" 
d="M1067 139q39 0 55 8v-391h-168v238h-8q-133 0 -164 121q-82 -133 -293 -133q-348 0 -348 397v541h185v-508q0 -47 4.5 -83t17.5 -73.5t35.5 -61.5t61 -39.5t90.5 -15.5q129 0 184 90.5t55 257.5v433h184v-654q0 -68 24 -97.5t85 -29.5z" />
    <glyph glyph-name="uni0448.loclBGR" horiz-adv-x="1652" 
d="M1313 920h184v-920h-170l-4 119q-39 -63 -111 -100t-161 -37q-97 0 -170 39.5t-111 115.5q-44 -75 -121.5 -115t-175.5 -40q-332 0 -332 378v560h185v-545q0 -50 7 -88t25.5 -73.5t56.5 -55t93 -19.5q62 0 106 26t68 75t34.5 108.5t10.5 136.5v435h184v-545
q0 -50 7.5 -88t26 -73.5t56.5 -55t93 -19.5q62 0 106 26t68 75t34.5 108.5t10.5 136.5v435z" />
    <glyph glyph-name="uni0449.loclBGR" horiz-adv-x="1722" 
d="M1606 139q35 0 55 8v-391h-168v238h-8q-133 0 -164 123q-40 -63 -111.5 -99t-158.5 -36q-97 0 -170 39.5t-111 115.5q-44 -75 -121.5 -115t-175.5 -40q-332 0 -332 378v560h185v-545q0 -50 7 -88t25.5 -73.5t56.5 -55t93 -19.5q62 0 106 26t68 75t34.5 108.5t10.5 136.5
v435h184v-545q0 -50 7.5 -88t26 -73.5t56.5 -55t93 -19.5q62 0 106 26t68 75t34.5 108.5t10.5 136.5v435h184v-654q0 -68 24 -97.5t85 -29.5z" />
    <glyph glyph-name="uni044C.loclBGR" horiz-adv-x="1054" 
d="M598 743q170 0 270.5 -102.5t100.5 -273.5q0 -177 -114 -281t-310 -104q-414 0 -414 440v498h184v-291q94 114 283 114zM547 125q107 0 171 67t64 175t-64.5 171.5t-168.5 63.5q-111 0 -173.5 -67.5t-62.5 -167.5q0 -110 64 -176t170 -66z" />
    <glyph glyph-name="uni044A.loclBGR" horiz-adv-x="1236" 
d="M780 743q170 0 270.5 -102.5t100.5 -273.5q0 -177 -114 -281t-310 -104q-414 0 -414 440v348h-272v150h457v-293q93 116 282 116zM729 125q107 0 171.5 67t64.5 175q0 107 -65 171t-169 64q-110 0 -172.5 -67.5t-62.5 -167.5q0 -110 64 -176t169 -66z" />
    <glyph glyph-name="xi.ss02" horiz-adv-x="864" 
d="M567 143q153 -41 212 -86.5t59 -132.5q0 -95 -82 -209h-170q63 89 63 160q0 45 -37 71t-143 50q-87 19 -149.5 45t-114.5 69t-78.5 109t-26.5 156q0 123 74 213t205 114q-79 27 -130.5 97t-51.5 162q0 85 38 150.5t105 96.5h-248v150h711v-150h-129q-291 0 -291 -219
q0 -104 70 -163.5t194 -59.5h84v-150h-106q-160 0 -247 -56t-87 -167q0 -104 64 -157.5t212 -92.5z" />
    <glyph glyph-name="zero.tf" 
d="M612 -20q-122 0 -219.5 53.5t-160 147.5t-95.5 217.5t-33 267.5q0 112 20.5 213.5t62.5 187t101.5 148t142.5 98t181 35.5t181 -35.5t142.5 -98t101.5 -148t62.5 -187t20.5 -213.5q0 -193 -57 -346t-174 -246.5t-277 -93.5zM612 152q147 0 229.5 137t82.5 377t-82 377
t-230 137q-146 0 -229.5 -136.5t-83.5 -377.5q0 -239 83.5 -376.5t229.5 -137.5z" />
    <glyph glyph-name="one.tf" 
d="M600 0v1108l-303 -139v166l473 213h18v-1348h-188z" />
    <glyph glyph-name="two.tf" 
d="M170 0v18l434 537q106 131 152.5 217.5t46.5 175.5q0 105 -63 168.5t-183 63.5q-164 0 -321 -127v190q133 105 342 105q205 0 312 -106t107 -290q0 -115 -51.5 -217t-187.5 -268l-250 -301h512v-166h-850z" />
    <glyph glyph-name="three.tf" 
d="M682 793q150 0 253 -101t103 -284q0 -210 -131.5 -319t-353.5 -109q-111 0 -205.5 23t-140.5 54v195q133 -100 328 -100q144 0 225.5 63.5t81.5 196.5q0 126 -72 192t-203 66q-123 0 -205 -62l-16 17l365 538h-490v164h797v-18l-350 -516h14z" />
    <glyph glyph-name="four.tf" 
d="M719 0v242h-668v18l830 1088h18v-957h186v-149h-186v-242h-180zM338 391h381v502z" />
    <glyph glyph-name="five.tf" 
d="M543 -20q-219 0 -344 77v195q50 -41 135.5 -70.5t187.5 -29.5q150 0 231 69.5t81 200.5q0 126 -75.5 192t-205.5 66q-90 0 -166 -36t-123 -87l-20 6l104 764h606v-164h-448l-47 -360q67 41 176 41q85 0 156 -25.5t125 -75.5t84 -130t30 -183q0 -225 -127 -337.5
t-360 -112.5z" />
    <glyph glyph-name="six.tf" 
d="M657 866q85 0 160 -26.5t133.5 -78t92.5 -134.5t34 -189q0 -201 -124.5 -329.5t-342.5 -128.5q-219 0 -345 132.5t-126 372.5q0 246 134 481.5t341 360.5h291q-164 -92 -316 -252t-206 -319q92 110 274 110zM610 147q124 0 199.5 77t75.5 202t-77 200.5t-198 75.5
q-118 0 -196 -77t-78 -199t76 -200.5t198 -78.5z" />
    <glyph glyph-name="seven.tf" 
d="M379 0q22 314 137 635t279 526h-625v166h956v-18q-211 -203 -363.5 -572.5t-182.5 -736.5h-201z" />
    <glyph glyph-name="eight.tf" 
d="M612 -20q-202 0 -319 107t-117 282q0 119 54.5 205.5t142.5 119.5q-70 29 -117 101.5t-47 183.5q0 168 110.5 268.5t290.5 100.5q178 0 291 -100t113 -269q0 -109 -48 -180.5t-120 -100.5q91 -31 146 -114t55 -215q0 -172 -116.5 -280.5t-318.5 -108.5zM610 768
q93 0 151 55.5t58 149.5q0 92 -57.5 149.5t-151.5 57.5q-91 0 -150 -59t-59 -148q0 -94 57 -149.5t152 -55.5zM612 152q107 0 173.5 63t66.5 164q0 104 -66 165.5t-174 61.5q-107 0 -174 -62.5t-67 -164.5q0 -104 64.5 -165.5t176.5 -61.5z" />
    <glyph glyph-name="nine.tf" 
d="M604 1348q224 0 347.5 -130t123.5 -378q0 -238 -123.5 -459t-345.5 -381h-274q427 311 524 594q-39 -50 -109 -84.5t-172 -34.5q-196 0 -315 117t-119 305q0 196 123 323.5t340 127.5zM604 641q122 0 196 73t74 197q0 122 -74.5 196.5t-193.5 74.5q-122 0 -196 -74
t-74 -201q0 -124 74.5 -195t193.5 -71z" />
    <glyph glyph-name="periodcentered.case" horiz-adv-x="542" 
d="M276 555q-54 0 -87 34.5t-33 88.5q0 52 34.5 86.5t85.5 34.5q52 0 85.5 -34.5t33.5 -88.5t-33.5 -87.5t-85.5 -33.5z" />
    <glyph glyph-name="bullet.case" horiz-adv-x="919" 
d="M481 459q-97 0 -158 61t-61 158q0 92 64 153.5t155 61.5q94 0 154.5 -61t60.5 -156q0 -96 -61 -156.5t-154 -60.5z" />
    <glyph glyph-name="exclamdown.case" horiz-adv-x="585" 
d="M293 1346q52 0 86.5 -34t34.5 -87q0 -54 -34 -88.5t-87 -34.5q-50 0 -85.5 34.5t-35.5 86.5q0 54 33.5 88.5t87.5 34.5zM203 944h180l8 -944h-196z" />
    <glyph glyph-name="questiondown.case" horiz-adv-x="909" 
d="M520 1104q-53 0 -87 34.5t-34 88.5q0 53 34.5 87t86.5 34q53 0 87 -34.5t34 -86.5q0 -54 -35 -88.5t-86 -34.5zM518 -18q-195 0 -311.5 98.5t-116.5 275.5q0 85 28.5 154.5t76.5 114t107.5 70.5t125.5 32v219h182v-332q-147 -2 -237 -64.5t-90 -187.5q0 -104 70.5 -159.5
t183.5 -55.5q96 0 181.5 36.5t119.5 72.5v-190q-40 -30 -125 -57t-195 -27z" />
    <glyph glyph-name="numbersign.tf" 
d="M135 0l88 346h-184l37 146h182l90 344h-186l37 145h184l88 346h180l-88 -346h258l88 346h178l-86 -346h187l-39 -145h-184l-88 -344h186l-39 -146h-184l-88 -346h-179l86 346h-258l-86 -346h-180zM438 492h258l88 344h-258z" />
    <glyph glyph-name="braceleft.case" horiz-adv-x="786" 
d="M549 -195q-180 0 -276.5 88t-96.5 238q0 54 14.5 104.5t35 88.5t40.5 73t34.5 74t14.5 76q0 71 -42.5 114.5t-116.5 49.5v34q72 5 115.5 43t43.5 105q0 36 -14.5 71.5t-34.5 68t-40.5 68.5t-35 85t-14.5 104q0 150 96.5 239t276.5 89q125 0 203 -37v-149q-75 43 -183 43
q-100 0 -154.5 -53t-54.5 -146q0 -51 21.5 -102.5t47.5 -88t47.5 -86.5t21.5 -98q0 -81 -46.5 -121.5t-105.5 -50.5q55 -10 103.5 -58t48.5 -132q0 -50 -21.5 -103t-47.5 -92.5t-47.5 -93.5t-21.5 -105q0 -94 55.5 -144t153.5 -50q105 0 183 43v-152q-84 -37 -203 -37z" />
    <glyph glyph-name="braceright.case" horiz-adv-x="786" 
d="M256 -195q-118 0 -205 37v152q78 -43 182 -43q98 0 153.5 50t55.5 144q0 51 -21.5 106t-47 94.5t-47 92.5t-21.5 101q0 84 48.5 132t103.5 58q-59 10 -105.5 50.5t-46.5 121.5q0 47 21.5 97t47 86.5t47 88.5t21.5 103q0 93 -54.5 146t-154.5 53q-107 0 -182 -43v149
q81 37 205 37q179 0 275 -89t96 -239q0 -55 -14 -104.5t-34.5 -85.5t-41 -69t-34.5 -68t-14 -70q0 -67 43 -105t115 -43v-34q-73 -6 -115.5 -49.5t-42.5 -114.5q0 -44 21.5 -94t47.5 -90t47.5 -103t21.5 -129q0 -150 -96 -238t-275 -88z" />
    <glyph glyph-name="bracketleft.case" horiz-adv-x="622" 
d="M172 -195v1733h430v-158h-246v-1417h246v-158h-430z" />
    <glyph glyph-name="bracketright.case" horiz-adv-x="653" 
d="M51 -195v158h246v1417h-246v158h430v-1733h-430z" />
    <glyph glyph-name="parenleft.case" horiz-adv-x="665" 
d="M492 -195q-79 65 -145 146t-122 187t-87.5 242t-31.5 288t31.5 288t88 243t123 189t147.5 150h231q-95 -80 -167 -163.5t-132 -189.5t-91.5 -237.5t-31.5 -283.5q0 -250 97 -459.5t325 -399.5h-235z" />
    <glyph glyph-name="parenright.case" horiz-adv-x="657" 
d="M-72 -195q228 190 326 400t98 459q0 152 -31.5 283.5t-92 237.5t-132.5 189.5t-168 163.5h234q81 -68 147 -150t122 -189t87 -243t31 -288t-31 -288t-86.5 -242t-121 -187t-144.5 -146h-238z" />
    <glyph glyph-name="emdash.case" horiz-adv-x="1617" 
d="M82 600v154h1452v-154h-1452z" />
    <glyph glyph-name="endash.case" horiz-adv-x="968" 
d="M82 600v154h805v-154h-805z" />
    <glyph glyph-name="hyphen.case" horiz-adv-x="559" 
d="M82 602v150h393v-150h-393z" />
    <glyph glyph-name="uni00AD.case" horiz-adv-x="559" 
d="M82 602v150h393v-150h-393z" />
    <glyph glyph-name="guillemotleft.case" horiz-adv-x="1181" 
d="M375 354l-287 322l287 321h215l-295 -321l295 -322h-215zM821 354l-286 322l286 321h215l-295 -321l295 -322h-215z" />
    <glyph glyph-name="guillemotright.case" horiz-adv-x="1150" 
d="M145 354l295 322l-295 321h213l287 -321l-287 -322h-213zM592 354l295 322l-295 321h213l287 -321l-287 -322h-213z" />
    <glyph glyph-name="guilsinglleft.case" horiz-adv-x="710" 
d="M375 354l-287 322l287 321h215l-295 -321l295 -322h-215z" />
    <glyph glyph-name="guilsinglright.case" horiz-adv-x="704" 
d="M145 354l295 322l-295 321h213l287 -321l-287 -322h-213z" />
    <glyph glyph-name="cent.ss01" horiz-adv-x="974" 
d="M541 0v188q-189 16 -306.5 135.5t-117.5 329.5q0 205 113.5 335.5t310.5 150.5v188h149v-188q106 -7 189 -47v-174q-115 73 -258 73q-148 0 -231 -90t-83 -239q0 -145 80 -234t242 -90q87 0 154 25t104 53v-174q-65 -45 -197 -54v-188h-149z" />
    <glyph glyph-name="dollar.ss01" horiz-adv-x="1058" 
d="M461 -184v188q-210 12 -332 76v178q67 -44 179.5 -73t211.5 -29q256 0 256 196q0 42 -13.5 75.5t-32 55t-55 41t-65.5 31t-80 27.5q-61 19 -100.5 32.5t-88.5 34.5t-79 41t-62 48.5t-49.5 61t-28.5 76t-11 95.5q0 155 90.5 242.5t259.5 109.5v209h151v-209
q150 -10 260 -66v-182q-157 99 -331 99q-115 0 -178.5 -50t-63.5 -143q0 -37 11.5 -66.5t29.5 -49.5t53 -38.5t68.5 -30.5t89.5 -30q158 -52 228 -91q187 -109 188 -315q0 -156 -94.5 -247t-260.5 -109v-188h-151z" />
    <glyph glyph-name="cent.tf.ss01" 
d="M645 0v188q-189 16 -306.5 135.5t-117.5 329.5q0 205 113.5 335.5t310.5 150.5v188h150v-188q105 -7 188 -47v-174q-115 73 -258 73q-148 0 -230.5 -90t-82.5 -239q0 -145 79.5 -234t241.5 -90q87 0 154 25t104 53v-174q-65 -45 -196 -54v-188h-150z" />
    <glyph glyph-name="dollar.tf.ss01" 
d="M549 -184v188q-210 12 -332 76v178q67 -44 179.5 -73t211.5 -29q256 0 256 196q0 42 -13.5 75.5t-32 55t-55 41t-65.5 31t-80 27.5q-61 19 -100.5 32.5t-88.5 34.5t-79 41t-62 48.5t-49.5 61t-28.5 76t-11 95.5q0 155 90.5 242.5t259.5 109.5v209h151v-209
q152 -10 261 -66v-182q-68 43 -156 71t-176 28q-115 0 -178.5 -50t-63.5 -143q0 -37 11.5 -66.5t29.5 -49.5t53 -38.5t68.5 -30.5t89.5 -30q158 -52 228 -91q187 -109 188 -315q0 -156 -94.5 -247t-260.5 -109v-188h-151z" />
    <glyph glyph-name="cent.tf" 
d="M664 0v184q-93 5 -172.5 37t-140.5 89t-95.5 145t-34.5 198q0 211 120.5 343.5t322.5 142.5v188h104v-186q124 -5 215 -49v-174q-107 64 -215 69v-647q70 4 130 28t93 48v-174q-30 -20 -91 -36.5t-132 -19.5v-186h-104zM664 342v647q-106 -12 -179 -102.5t-73 -224.5
q0 -130 66 -219t186 -101z" />
    <glyph glyph-name="dollar.tf" 
d="M571 -184v188q-222 8 -354 76v178q65 -42 160 -69t194 -31v438q-59 19 -100 35t-87.5 39t-77 50.5t-56.5 63.5t-38.5 83.5t-12.5 105.5q0 158 99 248t273 104v207h105v-207q172 -11 285 -68v-182q-137 85 -285 96v-417q43 -15 72.5 -26t73 -31t72.5 -40t62 -50t53 -63.5
t33 -79t13 -97.5q0 -172 -102 -261t-277 -102v-188h-105zM571 784v385q-86 -9 -135 -57t-49 -129q0 -78 46.5 -122t137.5 -77zM676 160q92 10 140 60.5t48 131.5t-47 129.5t-141 83.5v-405z" />
    <glyph glyph-name="Euro.tf" 
d="M825 -20q-258 0 -417 119.5t-199 344.5h-180v146h164q-5 45 -5 72q0 29 5 69h-164v146h182q42 214 198 342.5t418 128.5q106 0 197.5 -20t142.5 -48v-184q-55 34 -144 59t-185 25q-176 0 -283.5 -81.5t-142.5 -221.5h438v-146h-461q-4 -24 -4 -65q0 -48 4 -76h461v-146
h-442q25 -100 90.5 -167t152 -96t191.5 -29q201 0 340 73v-182q-47 -25 -148.5 -44t-208.5 -19z" />
    <glyph glyph-name="florin.tf" 
d="M223 -424q-79 0 -137 23v159q65 -20 115 -20q95 0 132 56t62 204l101 573h-193v160h221l39 223q18 98 44.5 167.5t70 122.5t108 78.5t152.5 25.5q82 0 139 -23v-166q-59 23 -114 23q-92 0 -138.5 -59.5t-70.5 -196.5l-35 -195h264v-160h-293l-104 -602
q-13 -73 -27 -123.5t-41.5 -105.5t-64 -88t-95 -54.5t-135.5 -21.5z" />
    <glyph glyph-name="uni20B4.tf" 
d="M1057 750h-195q-64 -54 -229 -156h424v-137h-590q-39 -55 -39 -117q0 -94 63.5 -142t180.5 -48q97 0 188 30t158 74v-195q-154 -79 -381 -79q-182 0 -294 83t-112 244q0 76 31 150h-88v137h195q16 15 36 30.5t35 26t40.5 27t37 24t41.5 25.5t37 23h-422v139h598
q41 57 41 117q0 82 -60.5 128t-166.5 46q-156 0 -312 -95v197q50 26 141.5 46t196.5 20q192 0 294 -83.5t102 -226.5q0 -78 -33 -149h82v-139z" />
    <glyph glyph-name="uni20BD.tf" 
d="M590 461h-180v-129h260v-160h-260v-172h-191v172h-170v160h170v129h-170v160h170v706h389q96 0 171.5 -10t149 -38t121.5 -75t77.5 -125.5t29.5 -183.5q0 -82 -19.5 -148.5t-50 -111t-78 -77.5t-94.5 -51.5t-107.5 -29t-109 -13.5t-108.5 -3zM963 895q0 68 -21.5 118.5
t-55.5 79t-86 45.5t-101.5 22t-114.5 5h-174v-544h174q63 0 113 6t101.5 23.5t86 47t56.5 79.5t22 118z" />
    <glyph glyph-name="sterling.tf" 
d="M205 0v18q133 147 194.5 260t61.5 207q0 47 -17 86h-219v160h137q-67 98 -67 223q0 176 115.5 285t314.5 109q91 0 169 -24t126 -58v-189q-35 35 -111 69t-166 34q-121 0 -187.5 -65.5t-66.5 -174.5q0 -101 84 -209h332v-160h-270q16 -40 16 -86q0 -163 -135 -319h535
v-166h-846z" />
    <glyph glyph-name="yen.tf" 
d="M516 0v365h-295v145h303l-73 139h-258v146h174l-279 532h213l313 -651l316 651h205l-279 -532h172v-146h-258l-74 -139h303v-145h-297v-365h-186z" />
    <glyph glyph-name="at.case" horiz-adv-x="2043" 
d="M1049 -215q-277 0 -488.5 105.5t-331.5 310.5t-120 483q0 212 74 386.5t202.5 288.5t300.5 176t371 62q180 0 338.5 -53t279 -152t190.5 -252.5t70 -342.5q0 -256 -119 -398.5t-315 -142.5q-101 0 -167.5 40t-90.5 107q-40 -73 -119 -110t-166 -37q-157 0 -255.5 107.5
t-98.5 285.5q0 118 43.5 216.5t134.5 161.5t213 63q192 0 269 -150l16 125h150l-39 -350q-17 -145 -17 -178q0 -65 32 -100.5t110 -35.5q117 0 181 94t64 265q0 136 -38.5 250t-105 193.5t-157 135t-193 81.5t-214.5 26q-219 0 -392.5 -92t-274.5 -267.5t-101 -406.5
q0 -233 99 -402t271 -254t398 -85q134 0 274.5 34t225 70t141.5 72v-170q-18 -13 -71.5 -36.5t-137.5 -53t-202 -50t-234 -20.5zM983 406q111 0 174.5 83.5t63.5 210.5q0 110 -52 176t-151 66q-112 0 -177 -83t-65 -212q0 -114 55.5 -177.5t151.5 -63.5z" />
    <glyph glyph-name="uni0308.case" horiz-adv-x="0" 
d="M-719 1499q-54 0 -88.5 35.5t-34.5 89.5t34.5 89.5t88.5 35.5t88.5 -35.5t34.5 -89.5t-34.5 -89.5t-88.5 -35.5zM-317 1499q-54 0 -88.5 35.5t-34.5 89.5t34.5 89.5t88.5 35.5t88 -35.5t34 -89.5t-34 -89.5t-88 -35.5z" />
    <glyph glyph-name="uni0307.case" horiz-adv-x="0" 
d="M-535 1501q-55 0 -88.5 34.5t-33.5 90.5q0 53 35 88t87 35q53 0 87 -35t34 -90t-34.5 -89t-86.5 -34z" />
    <glyph glyph-name="gravecomb.case" horiz-adv-x="0" 
d="M-465 1458l-301 336h244l239 -336h-182z" />
    <glyph glyph-name="acutecomb.case" horiz-adv-x="0" 
d="M-750 1458l240 336h246l-303 -336h-183z" />
    <glyph glyph-name="uni030B.case" horiz-adv-x="0" 
d="M-973 1458l271 336h245l-334 -336h-182zM-557 1458l272 336h244l-332 -336h-184z" />
    <glyph glyph-name="uni0302.case" horiz-adv-x="0" 
d="M-866 1458l348 354l350 -354h-201l-149 162l-150 -162h-198z" />
    <glyph glyph-name="uni030C.case" horiz-adv-x="0" 
d="M-518 1440l-348 354h198l150 -160l149 160h201z" />
    <glyph glyph-name="uni0306.case" horiz-adv-x="0" 
d="M-516 1440q-344 0 -344 332v22h147q0 -101 47 -151t150 -50q105 0 152 50t47 151h147v-22q0 -154 -81.5 -243t-264.5 -89z" />
    <glyph glyph-name="uni030A.case" horiz-adv-x="0" 
d="M-528 1413q-92 0 -154.5 61t-62.5 150q0 88 62.5 149.5t154.5 61.5t154.5 -61.5t62.5 -149.5q0 -89 -62.5 -150t-154.5 -61zM-528 1513q46 0 76 31t30 80q0 46 -30.5 78.5t-75.5 32.5t-76 -31t-31 -80t31 -80t76 -31z" />
    <glyph glyph-name="tildecomb.case" horiz-adv-x="0" 
d="M-367 1503q-45 0 -89 16.5t-73 37t-64 37t-64 16.5q-48 0 -68 -32.5t-20 -64.5h-121q0 97 52.5 164.5t147.5 67.5q58 0 114 -27.5t102 -54.5t79 -27q44 0 64 31.5t20 67.5h121q0 -94 -53 -163t-148 -69z" />
    <glyph glyph-name="uni0304.case" horiz-adv-x="0" 
d="M-821 1550v150h600v-150h-600z" />
    <glyph glyph-name="acutecomb.loclPLK" horiz-adv-x="0" 
d="M-754 1065l160 336h221l-207 -336h-174z" />
    <glyph glyph-name="acutecomb.case.loclPLK" horiz-adv-x="0" 
d="M-637 1458l158 336h221l-207 -336h-172z" />
    <glyph glyph-name="acute.case" horiz-adv-x="1052" 
d="M328 1458l239 336h246l-303 -336h-182z" />
    <glyph glyph-name="breve.case" horiz-adv-x="1034" 
d="M530 1440q-344 0 -344 332v22h148q0 -101 46.5 -151t149.5 -50q105 0 152 50t47 151h148v-22q0 -154 -82 -243t-265 -89z" />
    <glyph glyph-name="caron.case" horiz-adv-x="1032" 
d="M530 1440l-348 354h199l149 -160l150 160h201z" />
    <glyph glyph-name="circumflex.case" horiz-adv-x="1032" 
d="M182 1458l348 354l351 -354h-201l-150 162l-149 -162h-199z" />
    </font>
</defs>
</svg>
