<?xml version="1.0" standalone="no"?>
<!DOCTYPE svg PUBLIC "-//W3C//DTD SVG 1.1//EN" "http://www.w3.org/Graphics/SVG/1.1/DTD/svg11.dtd" >
<svg xmlns="http://www.w3.org/2000/svg" xmlns:xlink="http://www.w3.org/1999/xlink" version="1.1">
<metadata>
Created by FontForge 20170731 at Thu Jul 30 05:04:03 2020
 By Aleksey,,,
Nespresso Lucas is a licensed version of FS Lucas, Copyright (c) 2016. All rights reserved. This font may not be altered in any way without prior permission of Fontsmith Ltd.
</metadata>
<defs>
<font id="NespressoLucas-Regular" horiz-adv-x="1216" >
  <font-face 
    font-family="Nespresso Lucas"
    font-weight="400"
    font-stretch="normal"
    units-per-em="2048"
    panose-1="2 11 6 3 6 3 2 3 2 3"
    ascent="1516"
    descent="-532"
    x-height="918"
    cap-height="1327"
    bbox="-926 -426 2363 1835"
    underline-thickness="116"
    underline-position="-321"
    unicode-range="U+000D-FB02"
  />
<missing-glyph horiz-adv-x="1396" 
d="M182 -424v1751h1032v-1751h-1032zM698 512l422 758h-844zM244 -297l424 750l-424 747v-1497zM1153 -297v1497l-424 -747zM276 -365h844l-422 768z" />
    <glyph glyph-name="fi" unicode="fi" horiz-adv-x="1142" 
d="M225 0v801h-155v117h155v90q0 184 74.5 280t237.5 96q69 0 112 -16v-125q-40 17 -90 17q-95 0 -142.5 -59t-47.5 -195v-88h624v-918h-143v801h-481v-801h-144zM922 1155q-41 0 -68 26.5t-27 67.5t27.5 66.5t67.5 25.5q39 0 65.5 -26t26.5 -68q0 -41 -26.5 -66.5
t-65.5 -25.5z" />
    <glyph glyph-name="fl" unicode="fl" horiz-adv-x="1142" 
d="M225 0v801h-155v117h155v90q0 184 74.5 280t237.5 96q69 0 112 -16v-125q-40 17 -90 17q-95 0 -142.5 -59t-47.5 -195v-88h262v-117h-262v-801h-144zM850 0v1354h143v-1354h-143z" />
    <glyph glyph-name="f_f.liga" unicode="ff" horiz-adv-x="1335" 
d="M225 0v801h-155v117h155v73q0 189 76.5 283t243.5 94q86 0 141 -22v-125q-57 22 -121 22q-100 0 -148 -58.5t-48 -195.5v-71h481v90q0 189 79.5 282.5t254.5 93.5q111 0 180 -32v-127q-81 35 -166 35q-111 0 -158 -63t-47 -200v-79h273v-117h-273v-801h-143v801h-481
v-801h-144z" />
    <glyph glyph-name="f_f_i.liga" unicode="ffi" horiz-adv-x="1767" 
d="M225 0v801h-155v117h155v73q0 189 76.5 283t243.5 94q79 0 127 -20v-123q-45 18 -107 18q-100 0 -148 -58.5t-48 -195.5v-71h481v90q0 185 74.5 280.5t240.5 95.5q67 0 117 -16v-125q-51 17 -92 17q-101 0 -149 -59t-48 -195v-88h623v-918h-143v801h-480v-801h-143v801
h-481v-801h-144zM1544 1155q-41 0 -67.5 26.5t-26.5 67.5q0 40 27.5 66t66.5 26q40 0 67 -26t27 -68q0 -40 -27.5 -66t-66.5 -26z" />
    <glyph glyph-name="f_f_j.liga" unicode="ffj" horiz-adv-x="1773" 
d="M1296 -424q-85 0 -159 27v125q69 -31 139 -31q60 0 100.5 20t60.5 59t28 83t8 106v836h-480v-801h-143v801h-481v-801h-144v801h-155v117h155v73q0 189 76.5 283t243.5 94q79 0 127 -20v-123q-45 18 -107 18q-100 0 -148 -58.5t-48 -195.5v-71h481v90q0 185 74.5 280.5
t240.5 95.5q67 0 117 -16v-125q-51 17 -92 17q-101 0 -149 -59t-48 -195v-88h623v-945q0 -92 -15.5 -161t-50.5 -124t-99 -83.5t-155 -28.5zM1544 1147q-44 0 -72 29t-28 73t29 72.5t71 28.5q43 0 72 -29t29 -74q0 -43 -29.5 -71.5t-71.5 -28.5z" />
    <glyph glyph-name="f_f_l.liga" unicode="ffl" horiz-adv-x="1767" 
d="M225 0v801h-155v117h155v73q0 189 76.5 283t243.5 94q79 0 127 -20v-123q-45 18 -107 18q-100 0 -148 -58.5t-48 -195.5v-71h481v90q0 185 74.5 280.5t240.5 95.5q67 0 117 -16v-125q-51 17 -92 17q-101 0 -149 -59t-48 -195v-88h260v-117h-260v-801h-143v801h-481v-801
h-144zM1473 0v1358h143v-1358h-143z" />
    <glyph glyph-name="f_f_t.liga" unicode="fft" horiz-adv-x="2015" 
d="M225 0v801h-155v117h155v73q0 189 76.5 283t243.5 94q79 0 127 -20v-123q-45 18 -107 18q-100 0 -148 -58.5t-48 -195.5v-71h481v90q0 185 75 280.5t240 95.5q67 0 117 -16v-125q-51 17 -92 17q-102 0 -149.5 -59t-47.5 -206v-77h232v-117h-232v-801h-143v801h-481v-801
h-144zM1745 -18q-148 0 -209 75.5t-61 218.5v525h-111v16q147 144 238 334h16v-233h268v-117h-268v-500q0 -102 31.5 -149.5t124.5 -47.5q72 0 149 31v-123q-66 -30 -178 -30z" />
    <glyph glyph-name="f_j.liga" unicode="fj" horiz-adv-x="1142" 
d="M674 -424q-83 0 -162 27v125q69 -31 139 -31q60 0 100.5 20t61.5 58.5t29 83.5t8 106v836h-481v-801h-144v801h-155v117h155v90q0 184 74.5 280t237.5 96q69 0 112 -16v-125q-40 17 -90 17q-95 0 -142.5 -59t-47.5 -195v-88h624v-945q0 -92 -15 -161t-50 -124t-99 -83.5
t-155 -28.5zM922 1155q-41 0 -68 26.5t-27 67.5t27.5 66.5t67.5 25.5q39 0 65.5 -26t26.5 -68q0 -41 -26.5 -66.5t-65.5 -25.5z" />
    <glyph glyph-name="f_t.liga" unicode="ft" horiz-adv-x="1388" 
d="M225 0v801h-155v117h155v90q0 185 75 280.5t241 95.5q66 0 116 -16v-125q-51 17 -92 17q-100 0 -148 -59t-48 -195v-88h231v-117h-231v-801h-144zM1120 -18q-148 0 -209 75.5t-61 218.5v525h-113v16q150 144 238 334h18v-233h267v-117h-267v-500q0 -102 31 -149.5
t123 -47.5q71 0 149 31v-123q-66 -30 -176 -30z" />
    <glyph glyph-name="t_t.liga" unicode="tt" horiz-adv-x="1417" 
d="M475 -18q-150 0 -211 75.5t-61 218.5v525h-142v18q72 55 149.5 152t117.5 180h18v-233h268v-117h-268v-500q0 -102 31.5 -149.5t124.5 -47.5q72 0 149 31v-123q-66 -30 -176 -30zM1147 -18q-148 0 -209 75.5t-61 218.5v525h-144v18q73 55 150.5 151.5t117.5 180.5h19
v-233h268v-117h-268v-500q0 -102 31.5 -149.5t124.5 -47.5q72 0 149 31v-123q-66 -30 -178 -30z" />
    <glyph glyph-name=".notdef" horiz-adv-x="1396" 
d="M182 -424v1751h1032v-1751h-1032zM698 512l422 758h-844zM244 -297l424 750l-424 747v-1497zM1153 -297v1497l-424 -747zM276 -365h844l-422 768z" />
    <glyph glyph-name=".null" horiz-adv-x="0" 
 />
    <glyph glyph-name="nonmarkingreturn" horiz-adv-x="682" 
 />
    <glyph glyph-name="CR" unicode="&#xd;" horiz-adv-x="430" 
 />
    <glyph glyph-name="space" unicode=" " horiz-adv-x="430" 
 />
    <glyph glyph-name="exclam" unicode="!" horiz-adv-x="561" 
d="M211 360l-6 967h153l-6 -967h-141zM281 -18q-44 0 -71.5 28.5t-27.5 73.5q0 42 29 71t70 29q43 0 70.5 -29t27.5 -73t-27.5 -72t-70.5 -28z" />
    <glyph glyph-name="quotedbl" unicode="&#x22;" horiz-adv-x="788" 
d="M201 922l-19 405h154l-19 -405h-116zM471 922l-18 405h153l-18 -405h-117z" />
    <glyph glyph-name="numbersign" unicode="#" horiz-adv-x="1163" 
d="M113 0l92 362h-187l31 115h182l99 373h-187l29 115h184l93 362h139l-90 -362h319l92 362h140l-91 -362h187l-31 -115h-184l-96 -373h186l-31 -115h-184l-92 -362h-140l93 362h-322l-92 -362h-139zM373 477h319l99 373h-322z" />
    <glyph glyph-name="dollar" unicode="$" horiz-adv-x="1042" 
d="M483 -184v186q-225 6 -352 78v141q142 -90 352 -96v491q-69 23 -113.5 41.5t-96 50t-81 67t-49.5 89.5t-20 121q0 153 95.5 239.5t264.5 100.5v207h90v-207q169 -8 287 -70v-145q-136 85 -287 94v-465q44 -15 74 -27t72 -32t70.5 -40t59.5 -49.5t49.5 -62.5t31 -77
t12.5 -95q0 -91 -30 -159t-83 -108t-116 -60.5t-140 -26.5v-186h-90zM483 764v440q-97 -9 -155 -63.5t-58 -147.5q0 -89 54 -140t159 -89zM573 127q105 11 162.5 67.5t57.5 151.5q0 94 -56.5 149t-163.5 95v-463z" />
    <glyph glyph-name="percent" unicode="%" horiz-adv-x="1681" 
d="M406 719q-136 0 -224 84.5t-88 228.5q0 145 90 230.5t222 85.5q134 0 223.5 -83t89.5 -231q0 -146 -88 -230.5t-225 -84.5zM399 0l738 1327h147l-737 -1327h-148zM406 823q88 0 144 56.5t56 154.5q0 101 -57 156t-143 55q-83 0 -141 -57.5t-58 -155.5q0 -97 56.5 -153
t142.5 -56zM1276 -20q-137 0 -225 84.5t-88 228.5q0 146 90.5 230.5t222.5 84.5q134 0 223.5 -82t89.5 -231q0 -146 -88 -230.5t-225 -84.5zM1276 84q87 0 143 56t56 155q0 101 -56.5 156t-142.5 55q-85 0 -142 -56.5t-57 -154.5t56.5 -154.5t142.5 -56.5z" />
    <glyph glyph-name="ampersand" unicode="&#x26;" horiz-adv-x="1421" 
d="M1360 74l-86 -99l-170 154q-163 -147 -426 -147q-154 0 -278 54t-197.5 159t-73.5 245q0 130 62.5 228t152.5 145q-78 93 -78 215q0 142 101.5 231t265.5 89q133 0 231 -58v-135q-36 27 -95 47.5t-128 20.5q-100 0 -160.5 -51t-60.5 -144q0 -71 39 -131.5t129 -138.5
l499 -441q33 65 33 160q0 120 -63.5 208.5t-179.5 123.5l90 88q126 -34 209.5 -146t83.5 -272q0 -144 -72 -254zM283 457q0 -158 113 -253t294 -95q201 0 316 106l-580 514q-60 -37 -101.5 -107t-41.5 -165z" />
    <glyph glyph-name="quotesingle" unicode="'" horiz-adv-x="518" 
d="M201 922l-19 405h154l-19 -405h-116z" />
    <glyph glyph-name="parenleft" unicode="(" horiz-adv-x="618" 
d="M477 -406q-80 66 -145.5 146.5t-122.5 186.5t-89 242t-32 288t32 288t89 243t124 189t148 150h185q-96 -80 -168 -163.5t-132.5 -189.5t-92 -237.5t-31.5 -283.5q0 -249 98 -459t326 -400h-189z" />
    <glyph glyph-name="parenright" unicode=")" horiz-adv-x="618" 
d="M-47 -406q228 190 325 399.5t97 459.5q0 152 -31.5 283.5t-91.5 237.5t-132 189.5t-167 163.5h184q81 -68 148 -150t124 -189t89 -243t32 -288t-32 -288t-89 -242t-122.5 -186.5t-145.5 -146.5h-188z" />
    <glyph glyph-name="asterisk" unicode="*" horiz-adv-x="741" 
d="M319 717l13 241l-201 -133l-51 88l215 109l-215 108l51 89l201 -134l-13 242h103l-12 -242l200 134l49 -89l-215 -108l215 -109l-49 -88l-200 133l12 -241h-103z" />
    <glyph glyph-name="plus" unicode="+" 
d="M543 41v362h-353v119h353v359h131v-359h352v-119h-352v-362h-131z" />
    <glyph glyph-name="comma" unicode="," horiz-adv-x="497" 
d="M227 184q54 0 86.5 -38.5t32.5 -110.5t-39 -149t-100 -124h-98q50 50 80.5 113t33.5 109q-47 -3 -75.5 24t-28.5 72q0 47 30 75.5t78 28.5z" />
    <glyph glyph-name="hyphen" unicode="-" horiz-adv-x="550" 
d="M88 440v117h375v-117h-375z" />
    <glyph glyph-name="period" unicode="." horiz-adv-x="501" 
d="M252 -18q-44 0 -72 29t-28 73q0 42 29 71t71 29q43 0 70.5 -29t27.5 -73t-27.5 -72t-70.5 -28z" />
    <glyph glyph-name="slash" unicode="/" horiz-adv-x="753" 
d="M0 -406l584 1733h147l-584 -1733h-147z" />
    <glyph glyph-name="zero" unicode="0" 
d="M608 -20q-122 0 -218.5 54t-157 148t-92 217.5t-31.5 266.5q0 112 19.5 213t60 187t99 148.5t140.5 98t180 35.5t180 -35.5t140.5 -98t99.5 -148.5t60.5 -187t19.5 -213q0 -193 -55 -346t-170 -246.5t-275 -93.5zM608 115q167 0 256.5 149t89.5 402t-89 402t-257 149
q-166 0 -256 -149t-90 -402q0 -252 91 -401.5t255 -149.5z" />
    <glyph glyph-name="one" unicode="1" horiz-adv-x="849" 
d="M430 0v1159l-309 -141v133l438 197h16v-1348h-145z" />
    <glyph glyph-name="two" unicode="2" horiz-adv-x="1058" 
d="M100 0v16l447 539q114 137 162.5 227t48.5 185q0 112 -67 181t-202 69q-162 0 -323 -123v149q138 105 340 105q198 0 300.5 -101.5t102.5 -279.5q0 -114 -51 -216t-190 -266l-303 -356h567v-129h-832z" />
    <glyph glyph-name="three" unicode="3" horiz-adv-x="1079" 
d="M592 793q161 0 261.5 -106t100.5 -286q0 -206 -129 -313.5t-348 -107.5q-110 0 -204.5 23.5t-137.5 55.5v154q55 -43 141 -70.5t189 -27.5q160 0 248 72t88 216q0 142 -79.5 215.5t-215.5 73.5q-128 0 -211 -63l-16 16l411 555h-538v127h782v-16l-385 -523q18 5 43 5z
" />
    <glyph glyph-name="four" unicode="4" horiz-adv-x="1132" 
d="M733 0v258h-690v16l815 1074h14v-973h187v-117h-187v-258h-139zM268 375h465v616z" />
    <glyph glyph-name="five" unicode="5" horiz-adv-x="1079" 
d="M477 -20q-126 0 -212 24t-130 55v154q49 -41 136 -69.5t192 -28.5q162 0 250 79t88 228q0 138 -80 214.5t-221 76.5q-95 0 -172.5 -37t-124.5 -92l-19 6l103 737h592v-127h-469l-58 -414q89 56 205 56q178 0 287.5 -105t109.5 -309q0 -221 -124 -334.5t-353 -113.5z" />
    <glyph glyph-name="six" unicode="6" horiz-adv-x="1157" 
d="M616 860q118 0 212 -46.5t152 -145t58 -236.5q0 -199 -120.5 -325.5t-335.5 -126.5q-214 0 -337.5 129t-123.5 370q0 246 134.5 483.5t342.5 364.5h227q-167 -94 -313 -258t-199 -342q43 62 121 97.5t182 35.5zM582 111q139 0 222 86.5t83 224.5q0 139 -84 224t-221 85
q-135 0 -221.5 -87.5t-86.5 -221.5q0 -137 84.5 -224t223.5 -87z" />
    <glyph glyph-name="seven" unicode="7" horiz-adv-x="1112" 
d="M356 0q24 345 146 666.5t297 531.5h-678v129h938v-16q-152 -147 -271.5 -369t-188 -463t-87.5 -479h-156z" />
    <glyph glyph-name="eight" unicode="8" horiz-adv-x="1169" 
d="M586 -20q-199 0 -312.5 105.5t-113.5 274.5q0 125 60.5 214t152.5 120q-74 27 -126 101t-52 192q0 164 106.5 262.5t284.5 98.5q174 0 281.5 -98t107.5 -263q0 -119 -53 -191.5t-129 -99.5q95 -28 156 -114.5t61 -221.5q0 -168 -112 -274t-312 -106zM586 750
q110 0 173.5 61t63.5 172q0 104 -64 169t-173 65q-107 0 -173.5 -66.5t-66.5 -167.5q0 -112 63.5 -172.5t176.5 -60.5zM586 113q124 0 197 72t73 186q0 117 -72 185.5t-198 68.5q-124 0 -198.5 -69t-74.5 -185t73 -187t200 -71z" />
    <glyph glyph-name="nine" unicode="9" horiz-adv-x="1148" 
d="M569 1348q219 0 339 -128.5t120 -369.5q0 -240 -126.5 -463.5t-348.5 -386.5h-215q183 133 320.5 291.5t189.5 312.5q-41 -53 -116 -91t-185 -38q-192 0 -313 115t-121 309q0 196 120 322.5t336 126.5zM569 606q138 0 219.5 82t81.5 221t-82 223.5t-217 84.5
q-140 0 -222.5 -83t-82.5 -227q0 -141 84.5 -221t218.5 -80z" />
    <glyph glyph-name="colon" unicode=":" horiz-adv-x="501" 
d="M252 610q-44 0 -72 29t-28 74q0 42 29 71t71 29q43 0 70.5 -29t27.5 -73t-27.5 -72.5t-70.5 -28.5zM252 -18q-44 0 -72 29t-28 73q0 42 29 71t71 29q43 0 70.5 -29t27.5 -73t-27.5 -72t-70.5 -28z" />
    <glyph glyph-name="semicolon" unicode=";" horiz-adv-x="487" 
d="M250 610q-44 0 -72 29t-28 74q0 42 29 71t71 29q43 0 70.5 -29t27.5 -73t-27.5 -72.5t-70.5 -28.5zM233 184q55 0 88 -38.5t33 -110.5t-39.5 -149t-101.5 -124h-96q50 50 80.5 113t33.5 109q-45 -4 -75.5 23.5t-30.5 72.5q0 47 30.5 75.5t77.5 28.5z" />
    <glyph glyph-name="less" unicode="&#x3c;" 
d="M1024 16l-834 437v20l834 436v-141l-602 -303l602 -303v-146z" />
    <glyph glyph-name="equal" unicode="=" 
d="M190 584v118h836v-118h-836zM190 223v119h836v-119h-836z" />
    <glyph glyph-name="greater" unicode="&#x3e;" 
d="M190 16v142l605 303l-605 303v145l834 -436v-20z" />
    <glyph glyph-name="question" unicode="?" horiz-adv-x="909" 
d="M317 360v340q154 3 251.5 69.5t97.5 203.5q0 122 -79 184t-204 62q-94 0 -179.5 -34.5t-125.5 -72.5v150q41 31 125 58.5t192 27.5q190 0 305 -96.5t115 -274.5q0 -87 -29.5 -156.5t-80.5 -113t-112.5 -68t-131.5 -29.5v-250h-144zM387 -18q-43 0 -70.5 28.5t-27.5 71.5
q0 44 29 73t71 29q43 0 70.5 -29t27.5 -73t-28 -72t-72 -28z" />
    <glyph glyph-name="at" unicode="@" horiz-adv-x="2041" 
d="M1049 -424q-276 0 -486 105.5t-329 311t-119 484.5q0 213 73 386.5t200 287.5t298 176t369 62q178 0 335 -53t277 -152t190 -253t70 -343q0 -256 -117 -398.5t-311 -142.5q-103 0 -164.5 43t-77.5 109q-41 -74 -121.5 -113t-172.5 -39q-160 0 -256.5 107t-96.5 286
q0 118 43 216.5t133.5 161.5t212.5 63q108 0 179.5 -46.5t105.5 -125.5l19 147h118l-43 -381q-16 -136 -16 -174q0 -139 149 -139q129 0 204 106t75 289q0 142 -41 261t-111.5 201.5t-165 140t-200.5 84t-219 26.5q-169 0 -315.5 -55.5t-254 -156.5t-169.5 -252.5
t-62 -334.5q0 -184 60.5 -331t168 -243t253.5 -147t319 -51q103 0 208.5 19t188.5 48.5t140.5 55.5t95.5 49v-135q-20 -14 -71.5 -37t-134.5 -52.5t-199.5 -50t-231.5 -20.5zM981 166q127 0 197.5 91.5t70.5 234.5q0 122 -57.5 198t-173.5 76q-127 0 -201 -93t-74 -235
q0 -129 64 -200.5t174 -71.5z" />
    <glyph glyph-name="A" unicode="A" horiz-adv-x="1325" 
d="M53 0l600 1348h21l600 -1348h-162l-125 291h-651l-127 -291h-156zM387 418h549l-272 637z" />
    <glyph glyph-name="B" unicode="B" horiz-adv-x="1206" 
d="M838 698q54 -9 99.5 -31t84.5 -60t61.5 -99t22.5 -139q0 -369 -490 -369h-434v1327h324q62 0 112 -3t105 -12.5t97 -25t82 -42t65.5 -62.5t41 -88t15.5 -117q0 -81 -29 -142t-68.5 -91.5t-88.5 -45.5zM872 971q0 62 -22.5 106t-55 67.5t-85 37t-97.5 17t-108 3.5h-172
v-465h182q50 0 86 2.5t81 9.5t76 23t59 41t42 65t14 93zM614 129q340 0 340 246q0 129 -86.5 184t-242.5 55h-293v-485h282z" />
    <glyph glyph-name="C" unicode="C" horiz-adv-x="1298" 
d="M774 -20q-155 0 -280.5 50.5t-208 141t-126.5 215.5t-44 275t44 275.5t126 217t206.5 142.5t278.5 51q123 0 225 -30t152 -67v-153q-162 112 -369 112q-237 0 -374.5 -147.5t-137.5 -396.5q0 -257 144.5 -402t377.5 -145q112 0 211.5 31t167.5 79v-155
q-49 -34 -156.5 -64t-236.5 -30z" />
    <glyph glyph-name="D" unicode="D" horiz-adv-x="1386" 
d="M446 1327q72 0 132 -3t130.5 -11.5t127 -23t116.5 -39.5t105.5 -59t87 -83t68.5 -110t43 -141.5t16 -176.5q0 -121 -25.5 -220.5t-68.5 -169t-106.5 -122t-132 -84t-153 -51t-162 -26.5t-165.5 -7h-277v1327h264zM442 129q119 0 212.5 13t183 49.5t149 96.5t95.5 159.5
t36 232.5q0 96 -19 173t-51 131t-82 93.5t-104 62.5t-126 37t-139 18.5t-151 4.5h-114v-1071h110z" />
    <glyph glyph-name="E" unicode="E" horiz-adv-x="1036" 
d="M182 0v1327h766v-127h-616v-461h456v-125h-456v-485h641v-129h-791z" />
    <glyph glyph-name="F" unicode="F" horiz-adv-x="1009" 
d="M182 0v1327h770v-127h-620v-485h465v-127h-465v-588h-150z" />
    <glyph glyph-name="G" unicode="G" horiz-adv-x="1456" 
d="M776 -20q-159 0 -285.5 51.5t-208 143.5t-124.5 216t-43 271q0 213 86 369.5t236.5 236.5t346.5 80q106 0 209.5 -25t150.5 -46.5t68 -35.5v-154q-78 49 -187.5 86t-229.5 37q-234 0 -381.5 -144.5t-147.5 -401.5q0 -157 59 -279.5t176 -194t275 -71.5q213 0 320.5 119
t115.5 329h-444v129h594v-57q0 -67 -6.5 -129t-24.5 -129.5t-45.5 -124t-73.5 -109t-105.5 -88.5t-144 -57.5t-186.5 -21.5z" />
    <glyph glyph-name="H" unicode="H" horiz-adv-x="1429" 
d="M182 0v1327h150v-588h766v588h149v-1327h-149v610h-766v-610h-150z" />
    <glyph glyph-name="I" unicode="I" horiz-adv-x="514" 
d="M182 0v1327h150v-1327h-150z" />
    <glyph glyph-name="J" unicode="J" horiz-adv-x="952" 
d="M377 -20q-164 0 -256 45v141q89 -51 233 -51q167 0 227 84.5t60 289.5v713h-346v125h496v-883q0 -238 -95 -351t-319 -113z" />
    <glyph glyph-name="K" unicode="K" horiz-adv-x="1249" 
d="M182 0v1327h150v-641l659 641h199l-680 -651l696 -676h-205l-669 657v-657h-150z" />
    <glyph glyph-name="L" unicode="L" horiz-adv-x="1071" 
d="M182 0v1327h150v-1198h661v-129h-811z" />
    <glyph glyph-name="M" unicode="M" horiz-adv-x="1718" 
d="M850 -20l-416 960l-172 -940h-151l262 1348h20l467 -1069l467 1069h21l260 -1348h-148l-174 938l-416 -958h-20z" />
    <glyph glyph-name="N" unicode="N" horiz-adv-x="1449" 
d="M1247 -20l-919 1036v-1016h-146v1348h21l919 -1039v1018h146v-1347h-21z" />
    <glyph glyph-name="O" unicode="O" horiz-adv-x="1536" 
d="M766 -20q-153 0 -277.5 53t-205.5 146t-124.5 217t-43.5 268q0 195 76 348.5t226.5 244.5t354.5 91q154 0 278 -52t204.5 -144t123.5 -214.5t43 -265.5q0 -146 -43.5 -271.5t-125 -219.5t-206.5 -147.5t-280 -53.5zM770 119q227 0 363.5 154t136.5 397q0 237 -138 388.5
t-364 151.5q-222 0 -362 -152t-140 -390q0 -156 61 -280t176.5 -196.5t266.5 -72.5z" />
    <glyph glyph-name="P" unicode="P" horiz-adv-x="1187" 
d="M573 1327q92 0 165 -10t144 -37.5t118 -73t75.5 -121.5t28.5 -178q0 -77 -17.5 -139.5t-46 -106t-71.5 -76t-88.5 -52t-102 -31t-107 -15.5t-108.5 -4h-231v-483h-150v1327h391zM555 610q68 0 123.5 7.5t108 28t87.5 53t56.5 85.5t21.5 123q0 88 -30.5 147.5t-88 90
t-123.5 43t-155 12.5h-223v-590h223z" />
    <glyph glyph-name="Q" unicode="Q" horiz-adv-x="1536" 
d="M1499 51l-80 -98l-221 178q-171 -151 -432 -151q-153 0 -277.5 53t-205.5 146t-124.5 217t-43.5 268q0 195 76 348.5t226.5 244.5t354.5 91q154 0 278 -52t204.5 -144t123.5 -214.5t43 -265.5q0 -271 -137 -451zM266 668q0 -156 61 -280t176.5 -196.5t266.5 -72.5
q183 0 313 102l-231 185l80 98l235 -189q103 142 103 355q0 237 -138 388.5t-364 151.5q-222 0 -362 -152t-140 -390z" />
    <glyph glyph-name="R" unicode="R" horiz-adv-x="1214" 
d="M805 526l342 -526h-180l-318 506h-317v-506h-150v1327h416q109 0 195.5 -21.5t154.5 -68t105 -127t37 -190.5q0 -88 -24 -158.5t-65.5 -117t-90 -75t-105.5 -43.5zM584 631q352 0 352 287q0 64 -20 114t-53 81t-80.5 51t-98.5 28t-111 8h-241v-569h252z" />
    <glyph glyph-name="S" unicode="S" horiz-adv-x="1007" 
d="M481 -20q-196 0 -346 79v156q66 -43 155.5 -72.5t186.5 -29.5q130 0 203.5 56t73.5 173q0 67 -33.5 116.5t-87 81.5t-118.5 59.5t-129.5 59t-118 71.5t-87 106t-33.5 153q0 166 106.5 262.5t293.5 96.5q92 0 175.5 -22t129.5 -48v-154q-146 93 -297 93q-116 0 -186 -57.5
t-70 -162.5q0 -50 20.5 -90t56 -67t81 -50t95.5 -44t100 -43.5t95.5 -54t81 -70t56 -96.5t20.5 -130q0 -187 -112 -279.5t-312 -92.5z" />
    <glyph glyph-name="T" unicode="T" horiz-adv-x="1112" 
d="M481 0v1200h-399v127h948v-127h-399v-1200h-150z" />
    <glyph glyph-name="U" unicode="U" horiz-adv-x="1337" 
d="M670 -20q-262 0 -385 136.5t-123 415.5v795h149v-762q0 -231 83.5 -339.5t273.5 -108.5q186 0 273 107.5t87 340.5v762h148v-792q0 -288 -126 -421.5t-380 -133.5z" />
    <glyph glyph-name="V" unicode="V" horiz-adv-x="1345" 
d="M664 -18l-611 1345h164l457 -1042l456 1042h162l-608 -1345h-20z" />
    <glyph glyph-name="W" unicode="W" horiz-adv-x="1904" 
d="M565 -18l-495 1345h163l347 -999l362 999h21l362 -999l350 999h160l-494 -1345h-20l-369 1009l-366 -1009h-21z" />
    <glyph glyph-name="X" unicode="X" horiz-adv-x="1204" 
d="M51 0l459 678l-438 649h178l352 -541l359 541h174l-441 -647l459 -680h-178l-373 571l-377 -571h-174z" />
    <glyph glyph-name="Y" unicode="Y" horiz-adv-x="1200" 
d="M522 0v526l-469 801h164l383 -670l387 670h160l-475 -801v-526h-150z" />
    <glyph glyph-name="Z" unicode="Z" horiz-adv-x="1208" 
d="M104 0v20l762 1180h-727v127h963v-20l-760 -1178h768v-129h-1006z" />
    <glyph glyph-name="bracketleft" unicode="[" horiz-adv-x="634" 
d="M182 -406v1733h412v-123h-268v-1485h268v-125h-412z" />
    <glyph glyph-name="backslash" unicode="\" horiz-adv-x="753" 
d="M606 -406l-583 1733h147l584 -1733h-148z" />
    <glyph glyph-name="bracketright" unicode="]" horiz-adv-x="634" 
d="M41 -406v125h268v1485h-268v123h412v-1733h-412z" />
    <glyph glyph-name="asciicircum" unicode="^" 
d="M176 680l422 668h20l422 -668h-157l-275 453l-274 -453h-158z" />
    <glyph glyph-name="underscore" unicode="_" horiz-adv-x="786" 
d="M0 -332v117h786v-117h-786z" />
    <glyph glyph-name="grave" unicode="`" horiz-adv-x="1052" 
d="M625 1065l-285 330h190l236 -330h-141z" />
    <glyph glyph-name="a" unicode="a" horiz-adv-x="1003" 
d="M492 936q374 0 374 -371v-565h-129l-2 129q-84 -147 -307 -147q-158 0 -249 82t-91 215q0 142 99.5 222.5t279.5 80.5q149 0 256 -60v35q0 126 -59.5 192t-196.5 66q-157 0 -291 -82v129q136 74 316 74zM459 88q132 0 198 77.5t66 209.5v37q-39 29 -106.5 47t-141.5 18
q-114 0 -176.5 -50t-62.5 -142q0 -91 61 -144t162 -53z" />
    <glyph glyph-name="b" unicode="b" horiz-adv-x="1181" 
d="M637 -18q-126 0 -217.5 52t-134.5 130l-2 -164h-131v1358h143v-598q48 82 134.5 129t207.5 47q207 0 332 -128t125 -343q0 -220 -126.5 -351.5t-330.5 -131.5zM614 106q150 0 240 97.5t90 259.5q0 161 -91.5 254.5t-236.5 93.5q-155 0 -241 -100.5t-86 -255.5
q0 -158 88.5 -253.5t236.5 -95.5z" />
    <glyph glyph-name="c" unicode="c" horiz-adv-x="909" 
d="M559 -18q-209 0 -340 123.5t-131 345.5q0 221 127.5 353t347.5 132q124 0 242 -49v-139q-102 63 -232 63q-154 0 -244.5 -94t-90.5 -258q0 -165 88 -259t247 -94q78 0 141 21.5t99 48.5v-137q-32 -22 -101 -39.5t-153 -17.5z" />
    <glyph glyph-name="d" unicode="d" horiz-adv-x="1181" 
d="M545 -18q-204 0 -330.5 128t-126.5 345q0 137 51.5 244.5t155.5 172t246 64.5q124 0 211 -47t135 -125v594h143v-1358h-131l-2 168q-40 -81 -130.5 -133.5t-221.5 -52.5zM567 106q155 0 240.5 101t85.5 256q0 153 -86 250.5t-240 97.5q-107 0 -183.5 -51t-111 -129.5
t-34.5 -173.5q0 -153 87.5 -252t241.5 -99z" />
    <glyph glyph-name="e" unicode="e" horiz-adv-x="1044" 
d="M575 -18q-235 0 -361 122t-126 347q0 219 117.5 352t326.5 133q199 0 311.5 -119t112.5 -323q0 -58 -6 -88h-712q7 -151 98.5 -226.5t259.5 -75.5q178 0 319 80v-129q-46 -26 -138 -49.5t-202 -23.5zM238 510h571q6 142 -71 223.5t-206 81.5q-126 0 -206 -83.5
t-88 -221.5z" />
    <glyph glyph-name="f" unicode="f" horiz-adv-x="710" 
d="M225 0v801h-155v117h155v90q0 189 79.5 282.5t254.5 93.5q109 0 178 -32v-127q-72 35 -164 35q-111 0 -157.5 -62.5t-46.5 -200.5v-79h272v-117h-272v-801h-144z" />
    <glyph glyph-name="g" unicode="g" horiz-adv-x="1177" 
d="M551 -424q-171 0 -268 39v131q121 -45 264 -45q179 0 257.5 104t78.5 291v80q-40 -77 -126.5 -126.5t-213.5 -49.5q-210 0 -332.5 131t-122.5 336q0 206 121.5 337.5t331.5 131.5q124 0 215 -50t137 -130l2 162h131v-820q0 -259 -110 -390.5t-365 -131.5zM565 127
q148 0 233 96t87 246q0 160 -90 251t-236 91q-147 0 -234 -93.5t-87 -246.5q0 -156 89 -250t238 -94z" />
    <glyph glyph-name="h" unicode="h" horiz-adv-x="1093" 
d="M152 0v1358h143v-570q86 148 309 148q181 0 266.5 -99.5t85.5 -299.5v-537h-143v504q0 56 -5.5 99t-21 83.5t-42 67t-69.5 42t-102 15.5q-142 0 -210 -91.5t-68 -277.5v-442h-143z" />
    <glyph glyph-name="i" unicode="i" horiz-adv-x="473" 
d="M250 1155q-41 0 -67.5 26.5t-26.5 67.5q0 40 27.5 66t66.5 26q40 0 66 -26t26 -68q0 -41 -26.5 -66.5t-65.5 -25.5zM178 0v801h-129v117h273v-918h-144z" />
    <glyph glyph-name="j" unicode="j" horiz-adv-x="473" 
d="M250 1155q-41 0 -67.5 26.5t-26.5 67.5q0 40 27.5 66t66.5 26q40 0 66 -26t26 -68q0 -41 -26.5 -66.5t-65.5 -25.5zM2 -424q-83 0 -162 27v125q73 -31 142 -31q60 0 100 20t60.5 59t28 83t7.5 106v836h-129v117h273v-945q0 -92 -15.5 -161t-50.5 -124t-99 -83.5
t-155 -28.5z" />
    <glyph glyph-name="k" unicode="k" horiz-adv-x="972" 
d="M152 0v1358h143v-856l438 416h191l-465 -426l485 -492h-190l-459 477v-477h-143z" />
    <glyph glyph-name="l" unicode="l" horiz-adv-x="446" 
d="M152 0v1358h143v-1358h-143z" />
    <glyph glyph-name="m" unicode="m" horiz-adv-x="1640" 
d="M152 0v918h131l2 -138q38 72 113 114t180 42q225 0 286 -178q39 84 119.5 131t194.5 47q325 0 325 -365v-571h-143v557q0 57 -9.5 100t-32 79.5t-64.5 55.5t-103 19q-72 0 -123 -27t-78 -78t-39 -113t-12 -144v-449h-143v557q0 118 -46.5 186t-162.5 68q-72 0 -123 -27
t-78 -78t-39 -113t-12 -144v-449h-143z" />
    <glyph glyph-name="n" unicode="n" horiz-adv-x="1093" 
d="M152 0v918h131l2 -148q38 78 119 122t200 44q181 0 266.5 -99.5t85.5 -299.5v-537h-143v504q0 72 -9.5 123t-35 95.5t-74.5 66.5t-123 22q-276 0 -276 -369v-442h-143z" />
    <glyph glyph-name="o" unicode="o" horiz-adv-x="1130" 
d="M563 -18q-216 0 -345.5 131t-129.5 344q0 210 129.5 344.5t349.5 134.5q215 0 345 -125.5t130 -343.5q0 -219 -132 -352t-347 -133zM563 106q146 0 238 97.5t92 259.5q0 160 -92 254t-236 94q-150 0 -238.5 -99.5t-88.5 -254.5q0 -160 90.5 -255.5t234.5 -95.5z" />
    <glyph glyph-name="p" unicode="p" horiz-adv-x="1181" 
d="M152 -406v1324h131l4 -166q108 184 352 184q207 0 331 -128.5t124 -342.5q0 -221 -126 -352t-329 -131q-117 0 -206.5 45.5t-137.5 119.5v-553h-143zM614 106q150 0 240 97.5t90 259.5q0 161 -90.5 254.5t-237.5 93.5q-154 0 -240.5 -101t-86.5 -255q0 -158 88.5 -253.5
t236.5 -95.5z" />
    <glyph glyph-name="q" unicode="q" horiz-adv-x="1181" 
d="M887 -424v580q-43 -75 -131 -124.5t-211 -49.5q-201 0 -329 128t-128 345q0 210 121 345.5t334 135.5q133 0 221 -52.5t131 -129.5l4 164h131v-1276zM567 106q155 0 240.5 101t85.5 256q0 153 -86 250.5t-240 97.5q-107 0 -183.5 -51t-111 -129.5t-34.5 -173.5
q0 -153 87.5 -252t241.5 -99z" />
    <glyph glyph-name="r" unicode="r" horiz-adv-x="671" 
d="M152 0v918h131l2 -154q35 76 114.5 124t182.5 48q37 0 55 -6v-131q-28 12 -80 12q-262 0 -262 -369v-442h-143z" />
    <glyph glyph-name="s" unicode="s" horiz-adv-x="772" 
d="M360 -18q-78 0 -146.5 16.5t-102.5 36.5v127q110 -66 241 -66q90 0 141.5 38.5t51.5 113.5q0 48 -23.5 82.5t-60.5 54.5t-82 36t-90 35.5t-82 46t-60.5 73.5t-23.5 112q0 123 77.5 185.5t213.5 62.5q68 0 125 -14.5t84 -30.5v-125q-92 55 -203 55q-83 0 -122.5 -34.5
t-39.5 -90.5q0 -43 23.5 -73t61 -48t82.5 -34t90 -36.5t82.5 -49t61 -78.5t23.5 -119q0 -138 -88.5 -207t-233.5 -69z" />
    <glyph glyph-name="t" unicode="t" horiz-adv-x="743" 
d="M475 -18q-150 0 -211 75.5t-61 218.5v525h-142v18q72 55 149.5 152t117.5 180h18v-233h268v-117h-268v-500q0 -102 31.5 -149.5t124.5 -47.5q72 0 149 31v-123q-66 -30 -176 -30z" />
    <glyph glyph-name="u" unicode="u" horiz-adv-x="1038" 
d="M520 -18q-89 0 -157.5 23.5t-110.5 61.5t-68.5 92.5t-36.5 111t-10 122.5v525h144v-521q0 -293 241 -293q240 0 240 293v521h139v-525q0 -64 -9.5 -119.5t-36 -110.5t-68 -94t-110 -63t-157.5 -24z" />
    <glyph glyph-name="v" unicode="v" horiz-adv-x="993" 
d="M489 -18l-448 936h158l301 -676l301 676h153l-444 -936h-21z" />
    <glyph glyph-name="w" unicode="w" horiz-adv-x="1480" 
d="M453 -18l-398 936h158l254 -646l270 646h21l262 -646l252 646h153l-389 -936h-20l-268 657l-275 -657h-20z" />
    <glyph glyph-name="x" unicode="x" horiz-adv-x="1013" 
d="M43 0l377 457l-369 461h178l279 -367l283 367h172l-367 -461l375 -457h-176l-289 358l-291 -358h-172z" />
    <glyph glyph-name="y" unicode="y" horiz-adv-x="995" 
d="M221 -406l201 451l-381 873h158l299 -713l303 713h155l-579 -1324h-156z" />
    <glyph glyph-name="z" unicode="z" horiz-adv-x="960" 
d="M84 0v20l565 781h-530v117h758v-21l-566 -778h574v-119h-801z" />
    <glyph glyph-name="braceleft" unicode="{" horiz-adv-x="770" 
d="M535 -424q-178 0 -270.5 88t-92.5 238q0 67 21 130.5t46.5 104.5t46.5 92t21 95q0 72 -41.5 112.5t-113.5 46.5v31q72 5 113.5 42.5t41.5 105.5q0 44 -21 90.5t-46.5 83t-46.5 96.5t-21 127q0 151 92.5 240.5t270.5 89.5q116 0 194 -35v-121q-71 41 -178 41
q-116 0 -177 -59.5t-61 -167.5q0 -51 21.5 -104t47.5 -89.5t47.5 -86.5t21.5 -97q0 -78 -41.5 -119t-92.5 -51q49 -12 91.5 -58.5t42.5 -126.5q0 -48 -21.5 -101.5t-47.5 -94t-47.5 -96.5t-21.5 -109q0 -106 63.5 -164.5t174.5 -58.5q100 0 178 43v-121q-82 -37 -194 -37z
" />
    <glyph glyph-name="bar" unicode="|" horiz-adv-x="483" 
d="M168 -406v1733h147v-1733h-147z" />
    <glyph glyph-name="braceright" unicode="}" horiz-adv-x="770" 
d="M236 -424q-113 0 -195 37v121q78 -43 178 -43q111 0 174.5 58.5t63.5 164.5q0 53 -21.5 109t-47.5 97t-47.5 94t-21.5 101q0 80 42.5 126.5t91.5 58.5q-51 10 -92.5 51t-41.5 119q0 46 21.5 96t47.5 87t47.5 90t21.5 104q0 108 -61 167.5t-177 59.5q-107 0 -178 -41v121
q78 35 195 35q178 0 270 -89.5t92 -240.5q0 -55 -14 -104t-34 -85t-39.5 -68.5t-33.5 -68t-14 -71.5q0 -68 41.5 -105.5t113.5 -42.5v-31q-72 -6 -113.5 -46.5t-41.5 -112.5q0 -44 21 -94.5t46.5 -91.5t46.5 -105t21 -131q0 -150 -92 -238t-270 -88z" />
    <glyph glyph-name="asciitilde" unicode="~" 
d="M799 346q-56 0 -113.5 18.5t-96 41t-86.5 41t-89 18.5q-53 0 -81 -29t-30 -76h-113q3 100 61 160t165 60q54 0 108.5 -18.5t92 -41t87.5 -41t97 -18.5q55 0 83 29.5t31 74.5h111q-2 -99 -59 -159t-168 -60z" />
    <glyph glyph-name="uni00A0" unicode="&#xa0;" horiz-adv-x="430" 
 />
    <glyph glyph-name="exclamdown" unicode="&#xa1;" horiz-adv-x="561" 
d="M281 733q-41 0 -70 29t-29 72q0 45 27.5 73.5t71.5 28.5q43 0 70.5 -28.5t27.5 -71.5q0 -44 -27.5 -73.5t-70.5 -29.5zM203 -406l8 967h141l4 -967h-153z" />
    <glyph glyph-name="cent" unicode="&#xa2;" horiz-adv-x="970" 
d="M553 0v184q-192 11 -311 134t-119 337q0 211 116 342.5t314 141.5v188h90v-188q135 -5 227 -49v-138q-106 61 -227 66v-711q74 4 138.5 26.5t97.5 45.5v-137q-30 -18 -95.5 -35.5t-140.5 -20.5v-186h-90zM553 309v711q-124 -12 -202.5 -109.5t-78.5 -248.5
q0 -147 74 -245t207 -108z" />
    <glyph glyph-name="sterling" unicode="&#xa3;" horiz-adv-x="1046" 
d="M109 0v16q138 149 197 261.5t59 214.5q0 54 -23 98h-213v125h147q-77 110 -77 239q0 177 111.5 285.5t310.5 108.5q90 0 166.5 -23t123.5 -57v-150q-42 36 -113 66t-161 30q-138 0 -211.5 -72t-73.5 -200q0 -109 92 -227h353v-125h-303q20 -48 20 -98q0 -188 -158 -363
h586v-129h-833z" />
    <glyph glyph-name="currency" unicode="&#xa4;" 
d="M295 236l-96 96l127 127q-62 84 -62 190q0 102 60 191l-125 125l96 96l127 -127q85 59 186 59q106 0 187 -59l127 127l96 -96l-127 -127q61 -83 61 -189q0 -107 -61 -190l127 -127l-96 -96l-127 126q-85 -57 -187 -57q-104 0 -184 55zM608 412q100 0 169 66t69 169
t-69.5 171.5t-168.5 68.5q-100 0 -168.5 -69t-68.5 -171t68 -168.5t169 -66.5z" />
    <glyph glyph-name="yen" unicode="&#xa5;" horiz-adv-x="1044" 
d="M446 0v393h-292v117h299l-74 141h-254v117h188l-286 559h163l334 -684l336 684h160l-291 -559h193v-117h-260l-74 -141h305v-117h-299v-393h-148z" />
    <glyph glyph-name="brokenbar" unicode="&#xa6;" horiz-adv-x="483" 
d="M168 649v678h147v-678h-147zM168 -406v678h147v-678h-147z" />
    <glyph glyph-name="section" unicode="&#xa7;" horiz-adv-x="897" 
d="M420 -426q-154 0 -277 51v129q129 -63 271 -63q243 0 243 207q0 51 -31 91.5t-80 68.5t-108.5 54.5t-119.5 57.5t-109 68.5t-80 96t-31 132.5q0 109 56 178.5t133 97.5q-156 90 -156 263q0 89 29.5 156.5t81.5 107t117.5 59t144.5 19.5q120 0 225 -43v-123
q-112 53 -217 53q-112 0 -179 -56t-67 -161q0 -52 24 -93.5t64 -68.5t90.5 -53t103 -46.5t103 -50t90.5 -62.5t64 -84.5t24 -115.5q0 -114 -61 -186t-141 -98q28 -13 53 -31.5t53 -48.5t45 -74.5t17 -97.5q0 -69 -18.5 -125.5t-60 -105t-117 -76t-179.5 -27.5zM514 213
q78 22 130 74.5t52 138.5q0 26 -7.5 50t-17 41.5t-31.5 36.5t-36.5 30.5t-48 29t-50 25.5t-58.5 27t-58 26q-58 -15 -108 -69t-50 -140q0 -92 60.5 -145t222.5 -125z" />
    <glyph glyph-name="dieresis" unicode="&#xa8;" horiz-adv-x="1036" 
d="M346 1155q-40 0 -67 26.5t-27 67.5q0 40 27.5 66t66.5 26q40 0 67 -26t27 -68q0 -41 -27 -66.5t-67 -25.5zM731 1155q-41 0 -67.5 26.5t-26.5 67.5q0 40 27.5 66t66.5 26q40 0 67 -26t27 -68q0 -40 -27.5 -66t-66.5 -26z" />
    <glyph glyph-name="copyright" unicode="&#xa9;" horiz-adv-x="1576" 
d="M786 -20q-139 0 -263 52t-213.5 142t-142 217.5t-52.5 272.5q0 152 52 281t142.5 217t213.5 137t263 49q187 0 340.5 -83.5t244.5 -241t91 -359.5q0 -145 -53 -272.5t-144 -217.5t-215.5 -142t-263.5 -52zM788 86q155 0 281 73.5t198 206.5t72 300q0 262 -155 418.5
t-396 156.5q-116 0 -217 -40t-174.5 -113.5t-116 -182t-42.5 -239.5q0 -253 157 -416.5t393 -163.5zM811 326q-92 0 -167 34.5t-124 111t-49 185.5q0 157 94 253t248 96q99 0 176 -35v-105q-87 45 -166 45q-108 0 -173.5 -66.5t-65.5 -180.5q0 -116 66.5 -178t170.5 -62
q97 0 174 47v-104q-72 -41 -184 -41z" />
    <glyph glyph-name="ordfeminine" unicode="&#xaa;" horiz-adv-x="763" 
d="M336 649q-113 0 -180.5 58.5t-67.5 160.5q0 105 74 163.5t198 58.5q113 0 187 -43v26q0 88 -39 133t-139 45q-117 0 -213 -49v96q89 50 231 50q147 0 208.5 -68.5t61.5 -206.5v-409h-90l-4 92q-71 -107 -227 -107zM373 1008q-79 0 -123.5 -35.5t-44.5 -100.5
q0 -67 40.5 -101t116.5 -34q52 0 89 16t57.5 45t29.5 63.5t9 76.5v27q-80 43 -174 43zM98 537h564v-101h-564v101z" />
    <glyph glyph-name="guillemotleft" unicode="&#xab;" horiz-adv-x="1087" 
d="M375 152l-287 321l287 322h168l-295 -322l295 -321h-168zM768 152l-287 321l287 322h168l-295 -322l295 -321h-168z" />
    <glyph glyph-name="logicalnot" unicode="&#xac;" 
d="M895 217v369h-705v119h836v-488h-131z" />
    <glyph glyph-name="uni00AD" unicode="&#xad;" horiz-adv-x="550" 
d="M88 440v117h375v-117h-375z" />
    <glyph glyph-name="registered" unicode="&#xae;" horiz-adv-x="1576" 
d="M786 -20q-139 0 -263 52t-213.5 142t-142 217.5t-52.5 272.5q0 152 52 281t142.5 217t213.5 137t263 49q187 0 340.5 -83.5t244.5 -241t91 -359.5q0 -145 -53 -272.5t-144 -217.5t-215.5 -142t-263.5 -52zM788 86q155 0 281 73.5t198 206.5t72 300q0 262 -155 418.5
t-396 156.5q-116 0 -217 -40t-174.5 -113.5t-116 -182t-42.5 -239.5q0 -253 157 -416.5t393 -163.5zM567 334v663h215q45 0 79.5 -4t69.5 -17t57 -35t36 -59.5t14 -88.5q0 -159 -135 -193l160 -266h-123l-145 256h-123v-256h-105zM672 672h80q104 0 142 22t38 99
q0 70 -38.5 95t-135.5 25h-86v-241z" />
    <glyph glyph-name="macron" unicode="&#xaf;" horiz-adv-x="1034" 
d="M242 1178v118h587v-118h-587z" />
    <glyph glyph-name="degree" unicode="&#xb0;" horiz-adv-x="1099" 
d="M551 836q-110 0 -183 71.5t-73 184.5q0 112 73 184t183 72t183 -72t73 -184q0 -113 -73 -184.5t-183 -71.5zM551 924q69 0 115.5 46t46.5 122t-46.5 122t-115.5 46t-115.5 -45.5t-46.5 -122.5t46 -122.5t116 -45.5z" />
    <glyph glyph-name="plusminus" unicode="&#xb1;" 
d="M543 209v362h-353v119h353v359h131v-359h352v-119h-352v-362h-131zM190 0v119h836v-119h-836z" />
    <glyph glyph-name="uni00B2" unicode="&#xb2;" horiz-adv-x="759" 
d="M113 539v12l258 321q64 78 91 129.5t27 104.5q0 65 -37.5 102t-109.5 37q-96 0 -199 -78v115q93 66 209 66q123 0 188.5 -63.5t65.5 -172.5q0 -71 -30 -131t-113 -162l-152 -180h310v-100h-508z" />
    <glyph glyph-name="uni00B3" unicode="&#xb3;" horiz-adv-x="759" 
d="M346 518q-68 0 -125 14t-84 33v117q80 -59 199 -59q182 0 182 153q0 76 -43.5 116t-122.5 40q-70 0 -121 -35l-10 10l234 320h-312v100h484v-12l-226 -314q37 5 76 -4.5t76 -33.5t60.5 -72.5t23.5 -114.5q0 -126 -79.5 -192t-211.5 -66z" />
    <glyph glyph-name="acute" unicode="&#xb4;" horiz-adv-x="1052" 
d="M340 1065l235 330h191l-285 -330h-141z" />
    <glyph glyph-name="uni00B5" unicode="&#xb5;" horiz-adv-x="1091" 
d="M797 918h143v-918h-131l-4 152q-39 -73 -115 -112.5t-170 -39.5q-75 0 -135 24t-92 68v-498h-141v1324h143v-490q0 -70 10.5 -123t36 -96.5t72 -66.5t114.5 -23q137 0 203 92t66 276v431z" />
    <glyph glyph-name="paragraph" unicode="&#xb6;" horiz-adv-x="1357" 
d="M602 -424q-73 0 -121 21v116q28 -14 76 -14q54 0 73 26t19 89v669h-22q-67 0 -119 3t-111 13.5t-102 28.5t-85 49.5t-68 75t-42 106.5t-16 142q0 67 11.5 122t29.5 96t48 73.5t60.5 54t74 37t80 24t87 13t87.5 5.5t89 1h637v-127h-192v-1606h-150v1606h-147v-1417
q0 -103 -47 -155t-150 -52z" />
    <glyph glyph-name="periodcentered" unicode="&#xb7;" horiz-adv-x="501" 
d="M252 373q-44 0 -72 29t-28 73q0 42 29 71t71 29q43 0 70.5 -29t27.5 -73q0 -43 -27.5 -71.5t-70.5 -28.5z" />
    <glyph glyph-name="cedilla" unicode="&#xb8;" horiz-adv-x="1058" 
d="M510 -424q-81 0 -137 25v90q65 -31 125 -31q112 0 112 92q0 46 -24.5 69t-67.5 23q-55 0 -96 -41l-21 13l66 221h96l-41 -131q17 10 43 10q69 -2 112.5 -41t43.5 -123q0 -91 -58.5 -133.5t-152.5 -42.5z" />
    <glyph glyph-name="uni00B9" unicode="&#xb9;" horiz-adv-x="759" 
d="M354 539v665l-202 -94v98l307 140h10v-809h-115z" />
    <glyph glyph-name="ordmasculine" unicode="&#xba;" horiz-adv-x="841" 
d="M420 649q-156 0 -244 94t-88 250t90 254.5t248 98.5q154 0 241 -92t87 -253t-90 -256.5t-244 -95.5zM424 750q99 0 156 66.5t57 184.5t-57 182t-156 64q-105 0 -161 -68t-56 -182q0 -118 57.5 -182.5t159.5 -64.5zM139 436v101h563v-101h-563z" />
    <glyph glyph-name="guillemotright" unicode="&#xbb;" horiz-adv-x="1087" 
d="M152 152l292 321l-292 322h167l287 -322l-287 -321h-167zM545 152l293 321l-293 322h168l286 -322l-286 -321h-168z" />
    <glyph glyph-name="onequarter" unicode="&#xbc;" horiz-adv-x="1757" 
d="M469 539h-115v665l-202 -94v98l307 140h10v-809zM1161 1327h148l-738 -1327h-147zM1606 233v-88h-111v-145h-109v145h-401v11l498 653h12v-576h111zM1386 541l-233 -308h233v308z" />
    <glyph glyph-name="onehalf" unicode="&#xbd;" horiz-adv-x="1757" 
d="M354 539v665l-202 -94v98l307 140h10v-809h-115zM422 0l737 1327h148l-738 -1327h-147zM1133 0v12l258 322q64 78 91 129t27 104q0 65 -37.5 102.5t-109.5 37.5q-96 0 -199 -78v114q93 66 209 66q123 0 188.5 -63.5t65.5 -172.5q0 -71 -30 -130.5t-113 -161.5l-152 -181
h309v-100h-507z" />
    <glyph glyph-name="threequarters" unicode="&#xbe;" horiz-adv-x="1757" 
d="M637 776q0 -126 -79.5 -192t-211.5 -66q-68 0 -125 14t-84 33v117q80 -59 199 -59q182 0 182 153q0 76 -43.5 116t-122.5 40q-70 0 -121 -35l-10 10l234 320h-312v100h484v-12l-226 -314q37 5 76 -4.5t76 -33.5t60.5 -72.5t23.5 -114.5zM1161 1327h148l-738 -1327h-147z
M1606 233v-88h-111v-145h-109v145h-401v11l498 653h12v-576h111zM1386 541l-233 -308h233v308z" />
    <glyph glyph-name="questiondown" unicode="&#xbf;" horiz-adv-x="909" 
d="M520 733q-41 0 -69.5 29.5t-28.5 73.5q0 43 28.5 71.5t71.5 28.5t71 -29t28 -71q0 -45 -29 -74t-72 -29zM516 -426q-191 0 -305.5 97t-114.5 274q0 70 19.5 129.5t53.5 101t79.5 71.5t96.5 46t106 20v250h141v-342q-74 -2 -134 -17t-109 -46t-76 -84.5t-27 -124.5
q0 -121 78.5 -182.5t201.5 -61.5q96 0 182.5 34.5t122.5 72.5v-152q-41 -31 -124.5 -58.5t-190.5 -27.5z" />
    <glyph glyph-name="Agrave" unicode="&#xc0;" horiz-adv-x="1325" 
d="M639 1464l-285 330h191l235 -330h-141zM53 0l600 1348h21l600 -1348h-162l-125 291h-651l-127 -291h-156zM387 418h549l-272 637z" />
    <glyph glyph-name="Aacute" unicode="&#xc1;" horiz-adv-x="1325" 
d="M565 1464l238 330h190l-284 -330h-144zM53 0l600 1348h21l600 -1348h-162l-125 291h-651l-127 -291h-156zM387 418h549l-272 637z" />
    <glyph glyph-name="Acircumflex" unicode="&#xc2;" horiz-adv-x="1325" 
d="M324 1464l338 348l339 -348h-159l-180 195l-179 -195h-159zM53 0l600 1348h21l600 -1348h-162l-125 291h-651l-127 -291h-156zM387 418h549l-272 637z" />
    <glyph glyph-name="Atilde" unicode="&#xc3;" horiz-adv-x="1325" 
d="M817 1516q-46 0 -91 18.5t-75 40.5t-66.5 40.5t-68.5 18.5q-30 0 -51 -12.5t-30.5 -32t-13 -35t-3.5 -28.5h-99q0 92 50 154.5t141 62.5q48 0 94 -19t76.5 -41.5t67 -41.5t65.5 -19q28 0 48 11.5t29.5 30.5t13 35.5t3.5 33.5h99q0 -90 -49.5 -153.5t-139.5 -63.5zM53 0
l600 1348h21l600 -1348h-162l-125 291h-651l-127 -291h-156zM387 418h549l-272 637z" />
    <glyph glyph-name="Adieresis" unicode="&#xc4;" horiz-adv-x="1325" 
d="M469 1518q-46 0 -76.5 30t-30.5 76t30.5 76.5t76.5 30.5q45 0 74.5 -30.5t29.5 -76.5t-29 -76t-75 -30zM854 1518q-46 0 -75 30t-29 76t29.5 76.5t74.5 30.5q46 0 76.5 -30.5t30.5 -76.5t-30.5 -76t-76.5 -30zM53 0l600 1348h21l600 -1348h-162l-125 291h-651l-127 -291
h-156zM387 418h549l-272 637z" />
    <glyph glyph-name="Aring" unicode="&#xc5;" horiz-adv-x="1325" 
d="M53 0l549 1241q-68 19 -110.5 74t-42.5 129q0 91 61.5 151t153.5 60t153.5 -60t61.5 -151q0 -74 -42.5 -129t-109.5 -74l547 -1241h-162l-125 291h-649l-129 -291h-156zM664 1317q54 0 89 35t35 92q0 55 -35.5 91t-88.5 36q-52 0 -87.5 -35t-35.5 -92t35.5 -92t87.5 -35z
M387 418h549l-272 641z" />
    <glyph glyph-name="AE" unicode="&#xc6;" horiz-adv-x="1832" 
d="M53 0l592 1327h604l58 -127h-568l205 -461h442l58 -125h-443l213 -485h574l59 -129h-735l-125 291h-651l-127 -291h-156zM389 418h547l-272 637z" />
    <glyph glyph-name="Ccedilla" unicode="&#xc7;" horiz-adv-x="1298" 
d="M774 -20h-12l-23 -74q17 10 43 10q69 -2 112.5 -41t43.5 -123q0 -91 -58.5 -133.5t-152.5 -42.5q-81 0 -137 25v90q65 -31 125 -31q112 0 112 92q0 46 -24.5 69t-67.5 23q-55 0 -96 -41l-21 13l52 170q-263 32 -409 215t-146 461q0 150 44 275.5t126 217t206.5 142.5
t278.5 51q123 0 225 -30t152 -67v-153q-162 112 -369 112q-237 0 -374.5 -147.5t-137.5 -396.5q0 -257 144.5 -402t377.5 -145q112 0 211.5 31t167.5 79v-155q-49 -34 -156.5 -64t-236.5 -30z" />
    <glyph glyph-name="Egrave" unicode="&#xc8;" horiz-adv-x="1036" 
d="M608 1464l-284 330h190l236 -330h-142zM182 0v1327h766v-127h-616v-461h456v-125h-456v-485h641v-129h-791z" />
    <glyph glyph-name="Eacute" unicode="&#xc9;" horiz-adv-x="1036" 
d="M449 1464l237 330h191l-285 -330h-143zM182 0v1327h766v-127h-616v-461h456v-125h-456v-485h641v-129h-791z" />
    <glyph glyph-name="Ecircumflex" unicode="&#xca;" horiz-adv-x="1036" 
d="M229 1464l338 348l340 -348h-159l-181 195l-178 -195h-160zM182 0v1327h766v-127h-616v-461h456v-125h-456v-485h641v-129h-791z" />
    <glyph glyph-name="Edieresis" unicode="&#xcb;" horiz-adv-x="1036" 
d="M375 1518q-46 0 -76.5 30t-30.5 76t30.5 76.5t76.5 30.5q45 0 74.5 -30.5t29.5 -76.5t-29 -76t-75 -30zM760 1518q-46 0 -75.5 30t-29.5 76t29.5 76.5t75.5 30.5t76 -30.5t30 -76.5t-30 -76t-76 -30zM182 0v1327h766v-127h-616v-461h456v-125h-456v-485h641v-129h-791z
" />
    <glyph glyph-name="Igrave" unicode="&#xcc;" horiz-adv-x="514" 
d="M195 1464l-285 330h190l236 -330h-141zM182 0v1327h150v-1327h-150z" />
    <glyph glyph-name="Iacute" unicode="&#xcd;" horiz-adv-x="514" 
d="M182 1464l238 330h190l-284 -330h-144zM182 0v1327h150v-1327h-150z" />
    <glyph glyph-name="Icircumflex" unicode="&#xce;" horiz-adv-x="514" 
d="M-82 1464l338 348l340 -348h-160l-180 195l-178 -195h-160zM182 0v1327h150v-1327h-150z" />
    <glyph glyph-name="Idieresis" unicode="&#xcf;" horiz-adv-x="514" 
d="M63 1518q-46 0 -76 30t-30 76t30 76.5t76 30.5t75.5 -30.5t29.5 -76.5t-29.5 -76t-75.5 -30zM449 1518q-46 0 -75.5 30t-29.5 76t29.5 76.5t75.5 30.5t76 -30.5t30 -76.5t-30 -76t-76 -30zM182 0v1327h150v-1327h-150z" />
    <glyph glyph-name="Eth" unicode="&#xd0;" horiz-adv-x="1437" 
d="M500 1327q95 0 170.5 -5t164 -21t156 -44t133 -77t107.5 -115.5t68 -164.5t26 -220q0 -121 -25.5 -220.5t-68.5 -169t-106.5 -122t-132 -84t-153 -51t-162 -26.5t-165.5 -7h-276v616h-209v121h209v590h264zM496 129q83 0 153 6.5t141 23t126.5 43.5t104 69.5t81 99
t51 135t18.5 174.5t-19 173t-50.5 131t-81.5 93.5t-104 62.5t-126 37t-139 18.5t-151 4.5h-115v-463h307v-121h-307v-487h111z" />
    <glyph glyph-name="Ntilde" unicode="&#xd1;" horiz-adv-x="1449" 
d="M879 1516q-46 0 -91 18.5t-75 40.5t-66.5 40.5t-68.5 18.5q-30 0 -51.5 -12.5t-31 -32t-13 -35t-3.5 -28.5h-98q0 92 49.5 154.5t140.5 62.5q48 0 94 -19t76.5 -41.5t67 -41.5t65.5 -19q28 0 48 11.5t29.5 30.5t13.5 35.5t4 33.5h98q0 -90 -49 -153.5t-139 -63.5z
M1247 -20l-919 1036v-1016h-146v1348h21l919 -1039v1018h146v-1347h-21z" />
    <glyph glyph-name="Ograve" unicode="&#xd2;" horiz-adv-x="1536" 
d="M811 1464l-285 330h191l235 -330h-141zM766 -20q-153 0 -277.5 53t-205.5 146t-124.5 217t-43.5 268q0 195 76 348.5t226.5 244.5t354.5 91q154 0 278 -52t204.5 -144t123.5 -214.5t43 -265.5q0 -146 -43.5 -271.5t-125 -219.5t-206.5 -147.5t-280 -53.5zM770 119
q227 0 363.5 154t136.5 397q0 237 -138 388.5t-364 151.5q-222 0 -362 -152t-140 -390q0 -156 61 -280t176.5 -196.5t266.5 -72.5z" />
    <glyph glyph-name="Oacute" unicode="&#xd3;" horiz-adv-x="1536" 
d="M651 1464l238 330h190l-284 -330h-144zM766 -20q-153 0 -277.5 53t-205.5 146t-124.5 217t-43.5 268q0 195 76 348.5t226.5 244.5t354.5 91q154 0 278 -52t204.5 -144t123.5 -214.5t43 -265.5q0 -146 -43.5 -271.5t-125 -219.5t-206.5 -147.5t-280 -53.5zM770 119
q227 0 363.5 154t136.5 397q0 237 -138 388.5t-364 151.5q-222 0 -362 -152t-140 -390q0 -156 61 -280t176.5 -196.5t266.5 -72.5z" />
    <glyph glyph-name="Ocircumflex" unicode="&#xd4;" horiz-adv-x="1536" 
d="M432 1464l338 348l340 -348h-160l-180 195l-178 -195h-160zM766 -20q-153 0 -277.5 53t-205.5 146t-124.5 217t-43.5 268q0 195 76 348.5t226.5 244.5t354.5 91q154 0 278 -52t204.5 -144t123.5 -214.5t43 -265.5q0 -146 -43.5 -271.5t-125 -219.5t-206.5 -147.5
t-280 -53.5zM770 119q227 0 363.5 154t136.5 397q0 237 -138 388.5t-364 151.5q-222 0 -362 -152t-140 -390q0 -156 61 -280t176.5 -196.5t266.5 -72.5z" />
    <glyph glyph-name="Otilde" unicode="&#xd5;" horiz-adv-x="1536" 
d="M926 1516q-46 0 -91 18.5t-75 40.5t-66.5 40.5t-68.5 18.5q-30 0 -51.5 -12.5t-31 -32t-13 -35t-3.5 -28.5h-98q0 92 49.5 154.5t140.5 62.5q48 0 94.5 -19t77 -41.5t67 -41.5t65.5 -19q28 0 48 11.5t29.5 30.5t13 35.5t3.5 33.5h98q0 -90 -49 -153.5t-139 -63.5z
M766 -20q-153 0 -277.5 53t-205.5 146t-124.5 217t-43.5 268q0 195 76 348.5t226.5 244.5t354.5 91q154 0 278 -52t204.5 -144t123.5 -214.5t43 -265.5q0 -146 -43.5 -271.5t-125 -219.5t-206.5 -147.5t-280 -53.5zM770 119q227 0 363.5 154t136.5 397q0 237 -138 388.5
t-364 151.5q-222 0 -362 -152t-140 -390q0 -156 61 -280t176.5 -196.5t266.5 -72.5z" />
    <glyph glyph-name="Odieresis" unicode="&#xd6;" horiz-adv-x="1536" 
d="M578 1518q-46 0 -76.5 30t-30.5 76t30.5 76.5t76.5 30.5q45 0 74.5 -30.5t29.5 -76.5t-29 -76t-75 -30zM963 1518q-46 0 -75.5 30t-29.5 76t29.5 76.5t75.5 30.5t76 -30.5t30 -76.5t-30 -76t-76 -30zM766 -20q-153 0 -277.5 53t-205.5 146t-124.5 217t-43.5 268
q0 195 76 348.5t226.5 244.5t354.5 91q154 0 278 -52t204.5 -144t123.5 -214.5t43 -265.5q0 -146 -43.5 -271.5t-125 -219.5t-206.5 -147.5t-280 -53.5zM770 119q227 0 363.5 154t136.5 397q0 237 -138 388.5t-364 151.5q-222 0 -362 -152t-140 -390q0 -156 61 -280
t176.5 -196.5t266.5 -72.5z" />
    <glyph glyph-name="multiply" unicode="&#xd7;" 
d="M293 49l-96 96l315 318l-315 315l96 96l317 -315l316 315l96 -96l-317 -315l317 -318l-98 -96l-314 318z" />
    <glyph glyph-name="Oslash" unicode="&#xd8;" horiz-adv-x="1536" 
d="M115 -61l174 233q-174 189 -174 492q0 195 76 348.5t226.5 244.5t354.5 91q192 0 334 -82l106 141h154l-158 -211q104 -92 158.5 -227.5t54.5 -296.5q0 -146 -43.5 -271.5t-125 -219.5t-206.5 -147.5t-280 -53.5q-225 0 -381 112l-115 -153h-155zM383 301l635 844
q-105 65 -250 65q-222 0 -362 -152t-140 -390q0 -218 117 -367zM770 119q227 0 363.5 154t136.5 397q0 124 -40 228t-112 173l-643 -856q117 -96 295 -96z" />
    <glyph glyph-name="Ugrave" unicode="&#xd9;" horiz-adv-x="1337" 
d="M709 1464l-285 330h190l236 -330h-141zM670 -20q-262 0 -385 136.5t-123 415.5v795h149v-762q0 -231 83.5 -339.5t273.5 -108.5q186 0 273 107.5t87 340.5v762h148v-792q0 -288 -126 -421.5t-380 -133.5z" />
    <glyph glyph-name="Uacute" unicode="&#xda;" horiz-adv-x="1337" 
d="M549 1464l237 330h191l-285 -330h-143zM670 -20q-262 0 -385 136.5t-123 415.5v795h149v-762q0 -231 83.5 -339.5t273.5 -108.5q186 0 273 107.5t87 340.5v762h148v-792q0 -288 -126 -421.5t-380 -133.5z" />
    <glyph glyph-name="Ucircumflex" unicode="&#xdb;" horiz-adv-x="1337" 
d="M330 1464l338 348l340 -348h-160l-180 195l-179 -195h-159zM670 -20q-262 0 -385 136.5t-123 415.5v795h149v-762q0 -231 83.5 -339.5t273.5 -108.5q186 0 273 107.5t87 340.5v762h148v-792q0 -288 -126 -421.5t-380 -133.5z" />
    <glyph glyph-name="Udieresis" unicode="&#xdc;" horiz-adv-x="1337" 
d="M475 1518q-46 0 -76 30t-30 76t30 76.5t76 30.5t75.5 -30.5t29.5 -76.5t-29.5 -76t-75.5 -30zM860 1518q-46 0 -75 30t-29 76t29.5 76.5t74.5 30.5q46 0 76.5 -30.5t30.5 -76.5t-30.5 -76t-76.5 -30zM670 -20q-262 0 -385 136.5t-123 415.5v795h149v-762
q0 -231 83.5 -339.5t273.5 -108.5q186 0 273 107.5t87 340.5v762h148v-792q0 -288 -126 -421.5t-380 -133.5z" />
    <glyph glyph-name="Yacute" unicode="&#xdd;" horiz-adv-x="1200" 
d="M477 1464l238 330h190l-284 -330h-144zM522 0v526l-469 801h164l383 -670l387 670h160l-475 -801v-526h-150z" />
    <glyph glyph-name="Thorn" unicode="&#xde;" horiz-adv-x="1185" 
d="M573 1085q92 0 165 -9.5t144 -37.5t118 -73.5t75.5 -121t28.5 -177.5q0 -77 -17.5 -139.5t-46 -106t-71.5 -76t-88.5 -52t-102 -31t-107 -15.5t-108.5 -4h-231v-242h-150v1327h150v-242h241zM555 369q68 0 123.5 7.5t108 28t87.5 53t56.5 85.5t21.5 123q0 71 -21 123.5
t-55.5 84t-87.5 51t-108 26.5t-125 7h-223v-589h223z" />
    <glyph glyph-name="germandbls" unicode="&#xdf;" horiz-adv-x="1169" 
d="M780 565q127 11 213 -60t86 -208q0 -149 -87 -232t-269 -83q-65 0 -125 13t-88 28v122q100 -47 205 -47q114 0 166.5 48t52.5 143q0 67 -31 110.5t-75.5 59.5t-100.5 16q-91 0 -152 -37l-14 17l250 346h-442v-1100h-144v1100h-155v117h155v90q0 189 79.5 282.5
t254.5 93.5q109 0 178 -32v-127q-79 35 -162 35q-113 0 -159.5 -62t-46.5 -203v-77h639v-21z" />
    <glyph glyph-name="agrave" unicode="&#xe0;" horiz-adv-x="1003" 
d="M645 1065h-141l-285 330h191zM492 936q374 0 374 -371v-565h-129l-2 129q-84 -147 -307 -147q-158 0 -249 82t-91 215q0 142 99.5 222.5t279.5 80.5q149 0 256 -60v35q0 126 -59.5 192t-196.5 66q-157 0 -291 -82v129q136 74 316 74zM459 88q132 0 198 77.5t66 209.5v37
q-39 29 -106.5 47t-141.5 18q-114 0 -176.5 -50t-62.5 -142q0 -91 61 -144t162 -53z" />
    <glyph glyph-name="aacute" unicode="&#xe1;" horiz-adv-x="1003" 
d="M780 1395l-284 -330h-142l236 330h190zM492 936q374 0 374 -371v-565h-129l-2 129q-84 -147 -307 -147q-158 0 -249 82t-91 215q0 142 99.5 222.5t279.5 80.5q149 0 256 -60v35q0 126 -59.5 192t-196.5 66q-157 0 -291 -82v129q136 74 316 74zM459 88q132 0 198 77.5
t66 209.5v37q-39 29 -106.5 47t-141.5 18q-114 0 -176.5 -50t-62.5 -142q0 -91 61 -144t162 -53z" />
    <glyph glyph-name="acircumflex" unicode="&#xe2;" horiz-adv-x="1003" 
d="M492 1260l-179 -195h-159l338 348l339 -348h-159zM492 936q374 0 374 -371v-565h-129l-2 129q-84 -147 -307 -147q-158 0 -249 82t-91 215q0 142 99.5 222.5t279.5 80.5q149 0 256 -60v35q0 126 -59.5 192t-196.5 66q-157 0 -291 -82v129q136 74 316 74zM459 88
q132 0 198 77.5t66 209.5v37q-39 29 -106.5 47t-141.5 18q-114 0 -176.5 -50t-62.5 -142q0 -91 61 -144t162 -53z" />
    <glyph glyph-name="atilde" unicode="&#xe3;" horiz-adv-x="1003" 
d="M346 1237q-39 0 -63 -23.5t-29.5 -45.5t-5.5 -42h-98q0 92 49.5 154.5t140.5 62.5q48 0 94 -18.5t76.5 -41.5t67 -41.5t65.5 -18.5q37 0 59.5 21t28.5 43t6 46h99q0 -89 -49.5 -153t-139.5 -64q-46 0 -91 19t-75 41.5t-66.5 41.5t-68.5 19zM492 936q374 0 374 -371v-565
h-129l-2 129q-84 -147 -307 -147q-158 0 -249 82t-91 215q0 142 99.5 222.5t279.5 80.5q149 0 256 -60v35q0 126 -59.5 192t-196.5 66q-157 0 -291 -82v129q136 74 316 74zM459 88q132 0 198 77.5t66 209.5v37q-39 29 -106.5 47t-141.5 18q-114 0 -176.5 -50t-62.5 -142
q0 -91 61 -144t162 -53z" />
    <glyph glyph-name="adieresis" unicode="&#xe4;" horiz-adv-x="1003" 
d="M299 1155q-40 0 -67 26.5t-27 67.5q0 40 27.5 66t66.5 26q40 0 67 -26t27 -68q0 -41 -27 -66.5t-67 -25.5zM684 1155q-41 0 -67.5 26.5t-26.5 67.5q0 40 27.5 66t66.5 26q40 0 67 -26t27 -68q0 -40 -27.5 -66t-66.5 -26zM492 936q374 0 374 -371v-565h-129l-2 129
q-84 -147 -307 -147q-158 0 -249 82t-91 215q0 142 99.5 222.5t279.5 80.5q149 0 256 -60v35q0 126 -59.5 192t-196.5 66q-157 0 -291 -82v129q136 74 316 74zM459 88q132 0 198 77.5t66 209.5v37q-39 29 -106.5 47t-141.5 18q-114 0 -176.5 -50t-62.5 -142q0 -91 61 -144
t162 -53z" />
    <glyph glyph-name="aring" unicode="&#xe5;" horiz-adv-x="1003" 
d="M494 1044q-92 0 -153.5 60t-61.5 151t61.5 151t153.5 60q93 0 154 -60t61 -151t-61 -151t-154 -60zM494 1382q-54 0 -88.5 -35t-34.5 -92t34.5 -92t88.5 -35q53 0 87.5 34.5t34.5 92.5q0 55 -34.5 91t-87.5 36zM492 936q374 0 374 -371v-565h-129l-2 129
q-84 -147 -307 -147q-158 0 -249 82t-91 215q0 142 99.5 222.5t279.5 80.5q149 0 256 -60v35q0 126 -59.5 192t-196.5 66q-157 0 -291 -82v129q136 74 316 74zM459 88q132 0 198 77.5t66 209.5v37q-39 29 -106.5 47t-141.5 18q-114 0 -176.5 -50t-62.5 -142q0 -91 61 -144
t162 -53z" />
    <glyph glyph-name="ae" unicode="&#xe6;" horiz-adv-x="1671" 
d="M1583 494q0 -48 -4 -88h-715q9 -151 101 -226.5t258 -75.5q184 0 319 80v-129q-46 -26 -138 -49.5t-202 -23.5q-151 0 -258 50t-151 146q-15 -35 -39.5 -66.5t-65 -62.5t-104 -49t-142.5 -18q-169 0 -261.5 81.5t-92.5 215.5q0 142 99.5 222.5t281.5 80.5q147 0 254 -60
v35q0 127 -58.5 192.5t-195.5 65.5q-159 0 -293 -82v129q136 74 318 74q133 0 209.5 -50t105.5 -132q48 85 139.5 133.5t212.5 48.5q198 0 310 -119t112 -323zM1436 510q7 141 -70 223t-205 82q-127 0 -207 -83.5t-88 -221.5h570zM459 88q132 0 198 77.5t66 209.5v37
q-39 29 -106.5 47t-141.5 18q-114 0 -176.5 -50t-62.5 -142q0 -91 61 -144t162 -53z" />
    <glyph glyph-name="ccedilla" unicode="&#xe7;" horiz-adv-x="909" 
d="M559 -18h-10l-25 -76q17 10 43 10q69 -2 112.5 -41t43.5 -123q0 -91 -58.5 -133.5t-152.5 -42.5q-81 0 -137 25v90q65 -31 125 -31q112 0 112 92q0 46 -24.5 69t-67.5 23q-55 0 -96 -41l-21 13l52 174q-167 30 -267 149.5t-100 311.5q0 221 127.5 353t347.5 132
q124 0 242 -49v-139q-102 63 -232 63q-154 0 -244.5 -94t-90.5 -258q0 -165 88 -259t247 -94q78 0 141 21.5t99 48.5v-137q-32 -22 -101 -39.5t-153 -17.5z" />
    <glyph glyph-name="egrave" unicode="&#xe8;" horiz-adv-x="1044" 
d="M543 1065l-285 330h191l235 -330h-141zM575 -18q-235 0 -361 122t-126 347q0 219 117.5 352t326.5 133q199 0 311.5 -119t112.5 -323q0 -58 -6 -88h-712q7 -151 98.5 -226.5t259.5 -75.5q178 0 319 80v-129q-46 -26 -138 -49.5t-202 -23.5zM238 510h571q6 142 -71 223.5
t-206 81.5q-126 0 -206 -83.5t-88 -221.5z" />
    <glyph glyph-name="eacute" unicode="&#xe9;" horiz-adv-x="1044" 
d="M393 1065l236 330h190l-284 -330h-142zM575 -18q-235 0 -361 122t-126 347q0 219 117.5 352t326.5 133q199 0 311.5 -119t112.5 -323q0 -58 -6 -88h-712q7 -151 98.5 -226.5t259.5 -75.5q178 0 319 80v-129q-46 -26 -138 -49.5t-202 -23.5zM238 510h571q6 142 -71 223.5
t-206 81.5q-126 0 -206 -83.5t-88 -221.5z" />
    <glyph glyph-name="ecircumflex" unicode="&#xea;" horiz-adv-x="1044" 
d="M193 1065l337 348l340 -348h-159l-181 195l-178 -195h-159zM575 -18q-235 0 -361 122t-126 347q0 219 117.5 352t326.5 133q199 0 311.5 -119t112.5 -323q0 -58 -6 -88h-712q7 -151 98.5 -226.5t259.5 -75.5q178 0 319 80v-129q-46 -26 -138 -49.5t-202 -23.5zM238 510
h571q6 142 -71 223.5t-206 81.5q-126 0 -206 -83.5t-88 -221.5z" />
    <glyph glyph-name="edieresis" unicode="&#xeb;" horiz-adv-x="1044" 
d="M338 1155q-40 0 -67 26.5t-27 67.5q0 40 27.5 66t66.5 26q40 0 67 -26t27 -68q0 -41 -27 -66.5t-67 -25.5zM723 1155q-41 0 -67.5 26.5t-26.5 67.5q0 40 27.5 66t66.5 26q40 0 67 -26t27 -68q0 -40 -27.5 -66t-66.5 -26zM575 -18q-235 0 -361 122t-126 347
q0 219 117.5 352t326.5 133q199 0 311.5 -119t112.5 -323q0 -58 -6 -88h-712q7 -151 98.5 -226.5t259.5 -75.5q178 0 319 80v-129q-46 -26 -138 -49.5t-202 -23.5zM238 510h571q6 142 -71 223.5t-206 81.5q-126 0 -206 -83.5t-88 -221.5z" />
    <glyph glyph-name="igrave" unicode="&#xec;" horiz-adv-x="473" 
d="M246 1065l-285 330h191l235 -330h-141zM178 0v801h-129v117h273v-918h-144z" />
    <glyph glyph-name="iacute" unicode="&#xed;" horiz-adv-x="473" 
d="M43 1065l236 330h190l-285 -330h-141zM178 0v801h-129v117h273v-918h-144z" />
    <glyph glyph-name="icircumflex" unicode="&#xee;" horiz-adv-x="473" 
d="M-92 1065l338 348l340 -348h-160l-180 195l-178 -195h-160zM178 0v801h-129v117h273v-918h-144z" />
    <glyph glyph-name="idieresis" unicode="&#xef;" horiz-adv-x="473" 
d="M53 1155q-40 0 -67 26.5t-27 67.5q0 40 27.5 66t66.5 26q40 0 67 -26t27 -68q0 -41 -27 -66.5t-67 -25.5zM438 1155q-41 0 -67.5 26.5t-26.5 67.5q0 40 27.5 66t66.5 26q40 0 67 -26t27 -68q0 -40 -27.5 -66t-66.5 -26zM178 0v801h-129v117h273v-918h-144z" />
    <glyph glyph-name="eth" unicode="&#xf0;" horiz-adv-x="1132" 
d="M563 -18q-216 0 -345.5 131t-129.5 344q0 210 124.5 344.5t336.5 134.5q120 0 204 -47t121 -117q-29 102 -99.5 197.5t-160.5 160.5l-163 -98l-54 84l127 74q-97 54 -237 78v116q91 -13 184.5 -50t161.5 -81l176 103l53 -82l-141 -82q323 -255 323 -678
q0 -253 -130.5 -392.5t-350.5 -139.5zM565 106q145 0 236.5 97.5t91.5 259.5q0 158 -89 253t-239 95t-238.5 -99.5t-88.5 -254.5q0 -159 91.5 -255t235.5 -96z" />
    <glyph glyph-name="ntilde" unicode="&#xf1;" horiz-adv-x="1093" 
d="M735 1116q-46 0 -91 19t-75 41.5t-66.5 41.5t-68.5 19q-39 0 -63 -23.5t-29.5 -45.5t-5.5 -42h-98q0 92 49.5 154.5t140.5 62.5q48 0 94 -18.5t76.5 -41.5t67 -41.5t65.5 -18.5q37 0 59.5 21t28.5 43t6 46h99q0 -89 -49.5 -153t-139.5 -64zM152 0v918h131l2 -148
q38 78 119 122t200 44q181 0 266.5 -99.5t85.5 -299.5v-537h-143v504q0 72 -9.5 123t-35 95.5t-74.5 66.5t-123 22q-276 0 -276 -369v-442h-143z" />
    <glyph glyph-name="ograve" unicode="&#xf2;" horiz-adv-x="1130" 
d="M575 1065l-284 330h190l236 -330h-142zM563 -18q-216 0 -345.5 131t-129.5 344q0 210 129.5 344.5t349.5 134.5q215 0 345 -125.5t130 -343.5q0 -219 -132 -352t-347 -133zM563 106q146 0 238 97.5t92 259.5q0 160 -92 254t-236 94q-150 0 -238.5 -99.5t-88.5 -254.5
q0 -160 90.5 -255.5t234.5 -95.5z" />
    <glyph glyph-name="oacute" unicode="&#xf3;" horiz-adv-x="1130" 
d="M426 1065l236 330h190l-285 -330h-141zM563 -18q-216 0 -345.5 131t-129.5 344q0 210 129.5 344.5t349.5 134.5q215 0 345 -125.5t130 -343.5q0 -219 -132 -352t-347 -133zM563 106q146 0 238 97.5t92 259.5q0 160 -92 254t-236 94q-150 0 -238.5 -99.5t-88.5 -254.5
q0 -160 90.5 -255.5t234.5 -95.5z" />
    <glyph glyph-name="ocircumflex" unicode="&#xf4;" horiz-adv-x="1130" 
d="M225 1065l338 348l340 -348h-160l-180 195l-178 -195h-160zM563 -18q-216 0 -345.5 131t-129.5 344q0 210 129.5 344.5t349.5 134.5q215 0 345 -125.5t130 -343.5q0 -219 -132 -352t-347 -133zM563 106q146 0 238 97.5t92 259.5q0 160 -92 254t-236 94
q-150 0 -238.5 -99.5t-88.5 -254.5q0 -160 90.5 -255.5t234.5 -95.5z" />
    <glyph glyph-name="otilde" unicode="&#xf5;" horiz-adv-x="1130" 
d="M719 1116q-46 0 -91 19t-75 41.5t-66.5 41.5t-68.5 19q-30 0 -51.5 -13t-31 -33t-13 -36t-3.5 -29h-98q0 92 50 154.5t141 62.5q48 0 94 -18.5t76.5 -41.5t67 -41.5t65.5 -18.5q37 0 59.5 21t28.5 43t6 46h98q0 -89 -49 -153t-139 -64zM563 -18q-216 0 -345.5 131
t-129.5 344q0 210 129.5 344.5t349.5 134.5q215 0 345 -125.5t130 -343.5q0 -219 -132 -352t-347 -133zM563 106q146 0 238 97.5t92 259.5q0 160 -92 254t-236 94q-150 0 -238.5 -99.5t-88.5 -254.5q0 -160 90.5 -255.5t234.5 -95.5z" />
    <glyph glyph-name="odieresis" unicode="&#xf6;" horiz-adv-x="1130" 
d="M371 1155q-40 0 -67.5 26.5t-27.5 67.5q0 40 28 66t67 26q40 0 67 -26t27 -68q0 -41 -27 -66.5t-67 -25.5zM756 1155q-41 0 -67.5 26.5t-26.5 67.5q0 40 27.5 66t66.5 26q40 0 67 -26t27 -68q0 -40 -27.5 -66t-66.5 -26zM563 -18q-216 0 -345.5 131t-129.5 344
q0 210 129.5 344.5t349.5 134.5q215 0 345 -125.5t130 -343.5q0 -219 -132 -352t-347 -133zM563 106q146 0 238 97.5t92 259.5q0 160 -92 254t-236 94q-150 0 -238.5 -99.5t-88.5 -254.5q0 -160 90.5 -255.5t234.5 -95.5z" />
    <glyph glyph-name="divide" unicode="&#xf7;" 
d="M612 709q-42 0 -68 27t-26 69q0 41 27 68.5t67 27.5t67.5 -28t27.5 -70q0 -41 -27 -67.5t-68 -26.5zM188 403v119h836v-119h-836zM612 27q-42 0 -68 27t-26 69q0 41 27 68.5t67 27.5t67.5 -28t27.5 -70q0 -41 -27 -67.5t-68 -26.5z" />
    <glyph glyph-name="oslash" unicode="&#xf8;" horiz-adv-x="1130" 
d="M127 -61l111 153q-72 63 -111 157t-39 208q0 210 129.5 344.5t349.5 134.5q129 0 238 -53l72 96h127l-109 -152q147 -128 147 -360q0 -219 -132 -352t-347 -133q-138 0 -239 55l-72 -98h-125zM322 213l405 557q-65 41 -162 41q-150 0 -238.5 -99.5t-88.5 -254.5
q0 -154 84 -244zM563 106q146 0 238 97.5t92 259.5q0 150 -84 244l-408 -557q65 -44 162 -44z" />
    <glyph glyph-name="ugrave" unicode="&#xf9;" horiz-adv-x="1038" 
d="M530 1065l-284 330h190l236 -330h-142zM520 -18q-89 0 -157.5 23.5t-110.5 61.5t-68.5 92.5t-36.5 111t-10 122.5v525h144v-521q0 -293 241 -293q240 0 240 293v521h139v-525q0 -64 -9.5 -119.5t-36 -110.5t-68 -94t-110 -63t-157.5 -24z" />
    <glyph glyph-name="uacute" unicode="&#xfa;" horiz-adv-x="1038" 
d="M381 1065l235 330h191l-285 -330h-141zM520 -18q-89 0 -157.5 23.5t-110.5 61.5t-68.5 92.5t-36.5 111t-10 122.5v525h144v-521q0 -293 241 -293q240 0 240 293v521h139v-525q0 -64 -9.5 -119.5t-36 -110.5t-68 -94t-110 -63t-157.5 -24z" />
    <glyph glyph-name="ucircumflex" unicode="&#xfb;" horiz-adv-x="1038" 
d="M180 1065l338 348l340 -348h-160l-180 195l-178 -195h-160zM520 -18q-89 0 -157.5 23.5t-110.5 61.5t-68.5 92.5t-36.5 111t-10 122.5v525h144v-521q0 -293 241 -293q240 0 240 293v521h139v-525q0 -64 -9.5 -119.5t-36 -110.5t-68 -94t-110 -63t-157.5 -24z" />
    <glyph glyph-name="udieresis" unicode="&#xfc;" horiz-adv-x="1038" 
d="M326 1155q-40 0 -67.5 26.5t-27.5 67.5q0 40 28 66t67 26q40 0 67 -26t27 -68q0 -41 -27 -66.5t-67 -25.5zM711 1155q-41 0 -68 26.5t-27 67.5q0 40 28 66t67 26q40 0 67 -26t27 -68q0 -40 -27.5 -66t-66.5 -26zM520 -18q-89 0 -157.5 23.5t-110.5 61.5t-68.5 92.5
t-36.5 111t-10 122.5v525h144v-521q0 -293 241 -293q240 0 240 293v521h139v-525q0 -64 -9.5 -119.5t-36 -110.5t-68 -94t-110 -63t-157.5 -24z" />
    <glyph glyph-name="yacute" unicode="&#xfd;" horiz-adv-x="995" 
d="M358 1065l236 330h190l-284 -330h-142zM221 -406l201 451l-381 873h158l299 -713l303 713h155l-579 -1324h-156z" />
    <glyph glyph-name="thorn" unicode="&#xfe;" horiz-adv-x="1181" 
d="M152 -406v1764h143l-2 -600q106 178 346 178q207 0 331 -128.5t124 -342.5q0 -221 -126 -352t-329 -131q-117 0 -206.5 45.5t-137.5 119.5v-553h-143zM614 106q150 0 240 97.5t90 259.5q0 161 -90.5 254.5t-237.5 93.5q-154 0 -240.5 -101t-86.5 -255q0 -158 88.5 -253.5
t236.5 -95.5z" />
    <glyph glyph-name="ydieresis" unicode="&#xff;" horiz-adv-x="995" 
d="M303 1155q-40 0 -67 26.5t-27 67.5q0 40 27.5 66t66.5 26q40 0 67 -26t27 -68q0 -41 -27 -66.5t-67 -25.5zM688 1155q-41 0 -67.5 26.5t-26.5 67.5q0 40 27.5 66t66.5 26q40 0 67 -26t27 -68q0 -40 -27.5 -66t-66.5 -26zM221 -406l201 451l-381 873h158l299 -713l303 713
h155l-579 -1324h-156z" />
    <glyph glyph-name="Amacron" unicode="&#x100;" horiz-adv-x="1325" 
d="M369 1567v116h587v-116h-587zM53 0l600 1348h21l600 -1348h-162l-125 291h-651l-127 -291h-156zM387 418h549l-272 637z" />
    <glyph glyph-name="amacron" unicode="&#x101;" horiz-adv-x="1003" 
d="M786 1296v-118h-587v118h587zM492 936q374 0 374 -371v-565h-129l-2 129q-84 -147 -307 -147q-158 0 -249 82t-91 215q0 142 99.5 222.5t279.5 80.5q149 0 256 -60v35q0 126 -59.5 192t-196.5 66q-157 0 -291 -82v129q136 74 316 74zM459 88q132 0 198 77.5t66 209.5v37
q-39 29 -106.5 47t-141.5 18q-114 0 -176.5 -50t-62.5 -142q0 -91 61 -144t162 -53z" />
    <glyph glyph-name="Abreve" unicode="&#x102;" horiz-adv-x="1325" 
d="M662 1446q-183 0 -260.5 88t-77.5 244v16h116q0 -117 52.5 -171t169.5 -54t169 54t52 171h116v-16q0 -332 -337 -332zM53 0l600 1348h21l600 -1348h-162l-125 291h-651l-127 -291h-156zM387 418h549l-272 637z" />
    <glyph glyph-name="abreve" unicode="&#x103;" horiz-adv-x="1003" 
d="M492 1047q-95 0 -162 24.5t-104 71t-53.5 104t-16.5 131.5v17h112q0 -118 54 -175t170 -57q117 0 170 56.5t53 175.5h112v-17q0 -331 -335 -331zM492 936q374 0 374 -371v-565h-129l-2 129q-84 -147 -307 -147q-158 0 -249 82t-91 215q0 142 99.5 222.5t279.5 80.5
q149 0 256 -60v35q0 126 -59.5 192t-196.5 66q-157 0 -291 -82v129q136 74 316 74zM459 88q132 0 198 77.5t66 209.5v37q-39 29 -106.5 47t-141.5 18q-114 0 -176.5 -50t-62.5 -142q0 -91 61 -144t162 -53z" />
    <glyph glyph-name="Aogonek" unicode="&#x104;" horiz-adv-x="1325" 
d="M1124 -424q-90 0 -145 44.5t-55 137.5q0 85 49 151.5t135 100.5l-121 281h-649l-129 -291h-156l600 1348h21l598 -1348q-112 -26 -177 -86t-65 -135q0 -55 30 -83t83 -28q67 0 108 29v-96q-50 -25 -127 -25zM387 418h549l-272 637z" />
    <glyph glyph-name="aogonek" unicode="&#x105;" horiz-adv-x="1003" 
d="M866 0q-114 -34 -172.5 -90t-58.5 -131q0 -55 29.5 -83t83.5 -28q62 0 108 29v-96q-50 -25 -127 -25q-90 0 -145.5 44.5t-55.5 137.5q0 92 56.5 161t152.5 97l-2 113q-84 -147 -307 -147q-158 0 -249 82t-91 215q0 142 99.5 222.5t279.5 80.5q149 0 256 -60v35
q0 126 -59.5 192t-196.5 66q-157 0 -291 -82v129q136 74 316 74q374 0 374 -371v-565zM459 88q132 0 198 77.5t66 209.5v37q-39 29 -106.5 47t-141.5 18q-114 0 -176.5 -50t-62.5 -142q0 -91 61 -144t162 -53z" />
    <glyph glyph-name="Cacute" unicode="&#x106;" horiz-adv-x="1298" 
d="M647 1464l238 330h190l-284 -330h-144zM774 -20q-155 0 -280.5 50.5t-208 141t-126.5 215.5t-44 275t44 275.5t126 217t206.5 142.5t278.5 51q123 0 225 -30t152 -67v-153q-162 112 -369 112q-237 0 -374.5 -147.5t-137.5 -396.5q0 -257 144.5 -402t377.5 -145
q112 0 211.5 31t167.5 79v-155q-49 -34 -156.5 -64t-236.5 -30z" />
    <glyph glyph-name="cacute" unicode="&#x107;" horiz-adv-x="909" 
d="M424 1065l235 330h191l-285 -330h-141zM559 -18q-209 0 -340 123.5t-131 345.5q0 221 127.5 353t347.5 132q124 0 242 -49v-139q-102 63 -232 63q-154 0 -244.5 -94t-90.5 -258q0 -165 88 -259t247 -94q78 0 141 21.5t99 48.5v-137q-32 -22 -101 -39.5t-153 -17.5z" />
    <glyph glyph-name="Ccircumflex" unicode="&#x108;" horiz-adv-x="1298" 
d="M428 1464l338 348l340 -348h-160l-180 195l-178 -195h-160zM774 -20q-155 0 -280.5 50.5t-208 141t-126.5 215.5t-44 275t44 275.5t126 217t206.5 142.5t278.5 51q123 0 225 -30t152 -67v-153q-162 112 -369 112q-237 0 -374.5 -147.5t-137.5 -396.5q0 -257 144.5 -402
t377.5 -145q112 0 211.5 31t167.5 79v-155q-49 -34 -156.5 -64t-236.5 -30z" />
    <glyph glyph-name="ccircumflex" unicode="&#x109;" horiz-adv-x="909" 
d="M223 1065l338 348l340 -348h-160l-180 195l-178 -195h-160zM559 -18q-209 0 -340 123.5t-131 345.5q0 221 127.5 353t347.5 132q124 0 242 -49v-139q-102 63 -232 63q-154 0 -244.5 -94t-90.5 -258q0 -165 88 -259t247 -94q78 0 141 21.5t99 48.5v-137
q-32 -22 -101 -39.5t-153 -17.5z" />
    <glyph glyph-name="Cdotaccent" unicode="&#x10a;" horiz-adv-x="1298" 
d="M768 1520q-46 0 -75 29.5t-29 76.5q0 44 30 73.5t74 29.5q43 0 72.5 -30t29.5 -75t-29.5 -74.5t-72.5 -29.5zM774 -20q-155 0 -280.5 50.5t-208 141t-126.5 215.5t-44 275t44 275.5t126 217t206.5 142.5t278.5 51q123 0 225 -30t152 -67v-153q-162 112 -369 112
q-237 0 -374.5 -147.5t-137.5 -396.5q0 -257 144.5 -402t377.5 -145q112 0 211.5 31t167.5 79v-155q-49 -34 -156.5 -64t-236.5 -30z" />
    <glyph glyph-name="cdotaccent" unicode="&#x10b;" horiz-adv-x="909" 
d="M563 1155q-41 0 -67.5 26.5t-26.5 67.5t27 66.5t67 25.5q39 0 65.5 -26t26.5 -68q0 -41 -26.5 -66.5t-65.5 -25.5zM559 -18q-209 0 -340 123.5t-131 345.5q0 221 127.5 353t347.5 132q124 0 242 -49v-139q-102 63 -232 63q-154 0 -244.5 -94t-90.5 -258q0 -165 88 -259
t247 -94q78 0 141 21.5t99 48.5v-137q-32 -22 -101 -39.5t-153 -17.5z" />
    <glyph glyph-name="Ccaron" unicode="&#x10c;" horiz-adv-x="1298" 
d="M766 1446l-338 348h160l178 -195l180 195h160zM774 -20q-155 0 -280.5 50.5t-208 141t-126.5 215.5t-44 275t44 275.5t126 217t206.5 142.5t278.5 51q123 0 225 -30t152 -67v-153q-162 112 -369 112q-237 0 -374.5 -147.5t-137.5 -396.5q0 -257 144.5 -402t377.5 -145
q112 0 211.5 31t167.5 79v-155q-49 -34 -156.5 -64t-236.5 -30z" />
    <glyph glyph-name="ccaron" unicode="&#x10d;" horiz-adv-x="909" 
d="M561 1047l-338 348h160l178 -195l180 195h160zM559 -18q-209 0 -340 123.5t-131 345.5q0 221 127.5 353t347.5 132q124 0 242 -49v-139q-102 63 -232 63q-154 0 -244.5 -94t-90.5 -258q0 -165 88 -259t247 -94q78 0 141 21.5t99 48.5v-137q-32 -22 -101 -39.5t-153 -17.5
z" />
    <glyph glyph-name="Dcaron" unicode="&#x10e;" horiz-adv-x="1386" 
d="M1024 1794l-340 -348l-338 348h160l178 -195l180 195h160zM446 1327q72 0 132 -3t130.5 -11.5t127 -23t116.5 -39.5t105.5 -59t87 -83t68.5 -110t43 -141.5t16 -176.5q0 -121 -25.5 -220.5t-68.5 -169t-106.5 -122t-132 -84t-153 -51t-162 -26.5t-165.5 -7h-277v1327h264
zM442 129q119 0 212.5 13t183 49.5t149 96.5t95.5 159.5t36 232.5q0 96 -19 173t-51 131t-82 93.5t-104 62.5t-126 37t-139 18.5t-151 4.5h-114v-1071h110z" />
    <glyph glyph-name="dcaron" unicode="&#x10f;" horiz-adv-x="1382" 
d="M1268 1368q44 0 74 -29.5t30 -87.5q0 -53 -30.5 -102.5t-77.5 -83.5h-90q89 82 98 139q-40 -5 -67 17.5t-27 60.5q0 39 25.5 62.5t64.5 23.5zM887 764v594h143v-1358h-131l-2 168q-40 -81 -130.5 -133.5t-221.5 -52.5q-204 0 -330.5 128t-126.5 345q0 137 51.5 244.5
t155.5 172t246 64.5q124 0 211 -47t135 -125zM567 106q155 0 240.5 101t85.5 256q0 153 -86 250.5t-240 97.5q-107 0 -183.5 -51t-111 -129.5t-34.5 -173.5q0 -153 87.5 -252t241.5 -99z" />
    <glyph glyph-name="Dcroat" unicode="&#x110;" horiz-adv-x="1437" 
d="M500 1327q95 0 170.5 -5t164 -21t156 -44t133 -77t107.5 -115.5t68 -164.5t26 -220q0 -121 -25.5 -220.5t-68.5 -169t-106.5 -122t-132 -84t-153 -51t-162 -26.5t-165.5 -7h-276v616h-209v121h209v590h264zM496 129q83 0 153 6.5t141 23t126.5 43.5t104 69.5t81 99
t51 135t18.5 174.5t-19 173t-50.5 131t-81.5 93.5t-104 62.5t-126 37t-139 18.5t-151 4.5h-115v-463h307v-121h-307v-487h111z" />
    <glyph glyph-name="dcroat" unicode="&#x111;" horiz-adv-x="1144" 
d="M1186 1180v-113h-156v-1067h-131l-2 168q-40 -81 -130.5 -133.5t-221.5 -52.5q-204 0 -330.5 128t-126.5 345q0 137 51.5 244.5t155.5 172t246 64.5q124 0 211 -47t135 -125v303h-273v113h273v178h143v-178h156zM567 106q155 0 240.5 101t85.5 256q0 153 -86 250.5
t-240 97.5q-107 0 -183.5 -51t-111 -129.5t-34.5 -173.5q0 -153 87.5 -252t241.5 -99z" />
    <glyph glyph-name="Emacron" unicode="&#x112;" horiz-adv-x="1036" 
d="M274 1567v116h588v-116h-588zM182 0v1327h766v-127h-616v-461h456v-125h-456v-485h641v-129h-791z" />
    <glyph glyph-name="emacron" unicode="&#x113;" horiz-adv-x="1044" 
d="M238 1178v118h587v-118h-587zM575 -18q-235 0 -361 122t-126 347q0 219 117.5 352t326.5 133q199 0 311.5 -119t112.5 -323q0 -58 -6 -88h-712q7 -151 98.5 -226.5t259.5 -75.5q178 0 319 80v-129q-46 -26 -138 -49.5t-202 -23.5zM238 510h571q6 142 -71 223.5t-206 81.5
q-126 0 -206 -83.5t-88 -221.5z" />
    <glyph glyph-name="Ebreve" unicode="&#x114;" horiz-adv-x="1036" 
d="M567 1446q-183 0 -260.5 88t-77.5 244v16h117q0 -117 52 -171t169 -54t169 54t52 171h117v-16q0 -332 -338 -332zM182 0v1327h766v-127h-616v-461h456v-125h-456v-485h641v-129h-791z" />
    <glyph glyph-name="ebreve" unicode="&#x115;" horiz-adv-x="1044" 
d="M530 1047q-95 0 -161.5 24.5t-103.5 71t-53.5 104t-16.5 131.5v17h112q0 -118 53.5 -175t169.5 -57q117 0 170.5 57t53.5 175h112v-17q0 -331 -336 -331zM575 -18q-235 0 -361 122t-126 347q0 219 117.5 352t326.5 133q199 0 311.5 -119t112.5 -323q0 -58 -6 -88h-712
q7 -151 98.5 -226.5t259.5 -75.5q178 0 319 80v-129q-46 -26 -138 -49.5t-202 -23.5zM238 510h571q6 142 -71 223.5t-206 81.5q-126 0 -206 -83.5t-88 -221.5z" />
    <glyph glyph-name="Edotaccent" unicode="&#x116;" horiz-adv-x="1036" 
d="M569 1520q-46 0 -75 29.5t-29 76.5q0 44 30 73.5t74 29.5q43 0 73 -30t30 -75t-30 -74.5t-73 -29.5zM182 0v1327h766v-127h-616v-461h456v-125h-456v-485h641v-129h-791z" />
    <glyph glyph-name="edotaccent" unicode="&#x117;" horiz-adv-x="1044" 
d="M532 1155q-41 0 -67.5 26.5t-26.5 67.5t27 66.5t67 25.5q39 0 66 -26t27 -68q0 -40 -27 -66t-66 -26zM575 -18q-235 0 -361 122t-126 347q0 219 117.5 352t326.5 133q199 0 311.5 -119t112.5 -323q0 -58 -6 -88h-712q7 -151 98.5 -226.5t259.5 -75.5q178 0 319 80v-129
q-46 -26 -138 -49.5t-202 -23.5zM238 510h571q6 142 -71 223.5t-206 81.5q-126 0 -206 -83.5t-88 -221.5z" />
    <glyph glyph-name="Eogonek" unicode="&#x118;" horiz-adv-x="1036" 
d="M834 -424q-90 0 -146.5 44.5t-56.5 137.5q0 82 46 146t128 96h-623v1327h766v-127h-616v-461h456v-125h-456v-485h641v-129q-113 -29 -173.5 -87.5t-60.5 -133.5q0 -111 113 -111q63 0 109 29v-96q-50 -25 -127 -25z" />
    <glyph glyph-name="eogonek" unicode="&#x119;" horiz-adv-x="1044" 
d="M713 -424q-91 0 -147 44.5t-56 137.5q0 73 38 135t105 95q-27 -6 -78 -6q-235 0 -361 122t-126 347q0 219 117.5 352t326.5 133q199 0 311.5 -119t112.5 -323q0 -58 -6 -88h-712q7 -151 98.5 -226.5t259.5 -75.5q178 0 319 80v-129q-157 -72 -228 -131.5t-71 -144.5
q0 -55 30 -83t83 -28q65 0 111 29v-96q-56 -25 -127 -25zM238 510h571q6 142 -71 223.5t-206 81.5q-126 0 -206 -83.5t-88 -221.5z" />
    <glyph glyph-name="Ecaron" unicode="&#x11a;" horiz-adv-x="1036" 
d="M567 1446l-338 348h160l178 -195l181 195h159zM182 0v1327h766v-127h-616v-461h456v-125h-456v-485h641v-129h-791z" />
    <glyph glyph-name="ecaron" unicode="&#x11b;" horiz-adv-x="1044" 
d="M530 1047l-337 348h159l178 -195l181 195h159zM575 -18q-235 0 -361 122t-126 347q0 219 117.5 352t326.5 133q199 0 311.5 -119t112.5 -323q0 -58 -6 -88h-712q7 -151 98.5 -226.5t259.5 -75.5q178 0 319 80v-129q-46 -26 -138 -49.5t-202 -23.5zM238 510h571
q6 142 -71 223.5t-206 81.5q-126 0 -206 -83.5t-88 -221.5z" />
    <glyph glyph-name="Gcircumflex" unicode="&#x11c;" horiz-adv-x="1456" 
d="M444 1464l338 348l340 -348h-159l-181 195l-178 -195h-160zM776 -20q-159 0 -285.5 51.5t-208 143.5t-124.5 216t-43 271q0 213 86 369.5t236.5 236.5t346.5 80q106 0 209.5 -25t150.5 -46.5t68 -35.5v-154q-78 49 -187.5 86t-229.5 37q-234 0 -381.5 -144.5
t-147.5 -401.5q0 -157 59 -279.5t176 -194t275 -71.5q213 0 320.5 119t115.5 329h-444v129h594v-57q0 -67 -6.5 -129t-24.5 -129.5t-45.5 -124t-73.5 -109t-105.5 -88.5t-144 -57.5t-186.5 -21.5z" />
    <glyph glyph-name="gcircumflex" unicode="&#x11d;" horiz-adv-x="1177" 
d="M233 1065l338 348l340 -348h-159l-181 195l-178 -195h-160zM551 -424q-171 0 -268 39v131q121 -45 264 -45q179 0 257.5 104t78.5 291v80q-40 -77 -126.5 -126.5t-213.5 -49.5q-210 0 -332.5 131t-122.5 336q0 206 121.5 337.5t331.5 131.5q124 0 215 -50t137 -130l2 162
h131v-820q0 -259 -110 -390.5t-365 -131.5zM565 127q148 0 233 96t87 246q0 160 -90 251t-236 91q-147 0 -234 -93.5t-87 -246.5q0 -156 89 -250t238 -94z" />
    <glyph glyph-name="Gbreve" unicode="&#x11e;" horiz-adv-x="1456" 
d="M782 1446q-183 0 -260.5 88t-77.5 244v16h117q0 -117 52 -171t169 -54t169.5 54t52.5 171h116v-16q0 -332 -338 -332zM776 -20q-159 0 -285.5 51.5t-208 143.5t-124.5 216t-43 271q0 213 86 369.5t236.5 236.5t346.5 80q106 0 209.5 -25t150.5 -46.5t68 -35.5v-154
q-78 49 -187.5 86t-229.5 37q-234 0 -381.5 -144.5t-147.5 -401.5q0 -157 59 -279.5t176 -194t275 -71.5q213 0 320.5 119t115.5 329h-444v129h594v-57q0 -67 -6.5 -129t-24.5 -129.5t-45.5 -124t-73.5 -109t-105.5 -88.5t-144 -57.5t-186.5 -21.5z" />
    <glyph glyph-name="gbreve" unicode="&#x11f;" horiz-adv-x="1177" 
d="M571 1047q-95 0 -161.5 24.5t-103.5 71t-53.5 104t-16.5 131.5v17h112q0 -118 53.5 -175t169.5 -57q117 0 170.5 57t53.5 175h112v-17q0 -331 -336 -331zM551 -424q-171 0 -268 39v131q121 -45 264 -45q179 0 257.5 104t78.5 291v80q-40 -77 -126.5 -126.5t-213.5 -49.5
q-210 0 -332.5 131t-122.5 336q0 206 121.5 337.5t331.5 131.5q124 0 215 -50t137 -130l2 162h131v-820q0 -259 -110 -390.5t-365 -131.5zM565 127q148 0 233 96t87 246q0 160 -90 251t-236 91q-147 0 -234 -93.5t-87 -246.5q0 -156 89 -250t238 -94z" />
    <glyph glyph-name="Gdotaccent" unicode="&#x120;" horiz-adv-x="1456" 
d="M784 1520q-46 0 -75 29.5t-29 76.5q0 44 30 73.5t74 29.5q43 0 73 -30t30 -75t-30 -74.5t-73 -29.5zM776 -20q-159 0 -285.5 51.5t-208 143.5t-124.5 216t-43 271q0 213 86 369.5t236.5 236.5t346.5 80q106 0 209.5 -25t150.5 -46.5t68 -35.5v-154q-78 49 -187.5 86
t-229.5 37q-234 0 -381.5 -144.5t-147.5 -401.5q0 -157 59 -279.5t176 -194t275 -71.5q213 0 320.5 119t115.5 329h-444v129h594v-57q0 -67 -6.5 -129t-24.5 -129.5t-45.5 -124t-73.5 -109t-105.5 -88.5t-144 -57.5t-186.5 -21.5z" />
    <glyph glyph-name="gdotaccent" unicode="&#x121;" horiz-adv-x="1177" 
d="M573 1155q-41 0 -67.5 26.5t-26.5 67.5t27 66.5t67 25.5q39 0 66 -26t27 -68q0 -40 -27 -66t-66 -26zM551 -424q-171 0 -268 39v131q121 -45 264 -45q179 0 257.5 104t78.5 291v80q-40 -77 -126.5 -126.5t-213.5 -49.5q-210 0 -332.5 131t-122.5 336q0 206 121.5 337.5
t331.5 131.5q124 0 215 -50t137 -130l2 162h131v-820q0 -259 -110 -390.5t-365 -131.5zM565 127q148 0 233 96t87 246q0 160 -90 251t-236 91q-147 0 -234 -93.5t-87 -246.5q0 -156 89 -250t238 -94z" />
    <glyph glyph-name="Gcommaaccent" unicode="&#x122;" horiz-adv-x="1456" 
d="M768 696h594v-57q0 -67 -6.5 -129t-24.5 -129.5t-45.5 -124t-73.5 -109t-105.5 -88.5t-144 -57.5t-186.5 -21.5q-159 0 -285.5 51.5t-208 143.5t-124.5 216t-43 271q0 213 86 369.5t236.5 236.5t346.5 80q106 0 209.5 -25t150.5 -46.5t68 -35.5v-154q-78 49 -187.5 86
t-229.5 37q-234 0 -381.5 -144.5t-147.5 -401.5q0 -157 59 -279.5t176 -194t275 -71.5q213 0 320.5 119t115.5 329h-444v129zM770 -133q43 0 73.5 -30t30.5 -85q0 -98 -94 -176h-94q75 69 88 127q-40 -6 -67 15.5t-27 62.5q0 39 25.5 62.5t64.5 23.5z" />
    <glyph glyph-name="gcommaaccent" unicode="&#x123;" horiz-adv-x="1177" 
d="M553 1065q-44 0 -74 29.5t-30 87.5q0 53 30.5 102.5t77.5 83.5h90q-89 -82 -98 -139q40 5 67 -17.5t27 -60.5q0 -39 -25.5 -62.5t-64.5 -23.5zM895 918h131v-820q0 -259 -110 -390.5t-365 -131.5q-171 0 -268 39v131q121 -45 264 -45q179 0 257.5 104t78.5 291v80
q-40 -77 -126.5 -126.5t-213.5 -49.5q-210 0 -332.5 131t-122.5 336q0 206 121.5 337.5t331.5 131.5q124 0 215 -50t137 -130zM565 127q148 0 233 96t87 246q0 160 -90 251t-236 91q-147 0 -234 -93.5t-87 -246.5q0 -156 89 -250t238 -94z" />
    <glyph glyph-name="Hcircumflex" unicode="&#x124;" horiz-adv-x="1429" 
d="M373 1464l338 348l340 -348h-160l-180 195l-179 -195h-159zM182 0v1327h150v-588h766v588h149v-1327h-149v610h-766v-610h-150z" />
    <glyph glyph-name="hcircumflex" unicode="&#x125;" horiz-adv-x="1093" 
d="M-117 1454l338 348l340 -348h-160l-180 195l-178 -195h-160zM152 0v1358h143v-570q86 148 309 148q181 0 266.5 -99.5t85.5 -299.5v-537h-143v504q0 56 -5.5 99t-21 83.5t-42 67t-69.5 42t-102 15.5q-142 0 -210 -91.5t-68 -277.5v-442h-143z" />
    <glyph glyph-name="Hbar" unicode="&#x126;" horiz-adv-x="1478" 
d="M1454 1096v-119h-154v-977h-149v610h-766v-610h-149v977h-209v119h209v231h149v-231h766v231h149v-231h154zM1151 739v238h-766v-238h766z" />
    <glyph glyph-name="hbar" unicode="&#x127;" horiz-adv-x="1093" 
d="M604 936q181 0 266.5 -99.5t85.5 -299.5v-537h-143v504q0 56 -5.5 99t-21 83.5t-42 67t-69.5 42t-102 15.5q-142 0 -210 -91.5t-68 -277.5v-442h-143v1067h-154v113h154v178h143v-178h274v-113h-274v-279q86 148 309 148z" />
    <glyph glyph-name="Itilde" unicode="&#x128;" horiz-adv-x="514" 
d="M412 1516q-46 0 -91 18.5t-75 40.5t-66.5 40.5t-68.5 18.5q-30 0 -51.5 -12.5t-31 -32t-13 -35t-3.5 -28.5h-98q0 92 49.5 154.5t140.5 62.5q48 0 94.5 -19t77 -41.5t67 -41.5t65.5 -19q28 0 48 11.5t29.5 30.5t13 35.5t3.5 33.5h98q0 -90 -49 -153.5t-139 -63.5zM182 0
v1327h150v-1327h-150z" />
    <glyph glyph-name="itilde" unicode="&#x129;" horiz-adv-x="473" 
d="M401 1116q-46 0 -91 19t-75 41.5t-66.5 41.5t-68.5 19q-39 0 -63 -23.5t-29.5 -45.5t-5.5 -42h-98q0 92 49.5 154.5t140.5 62.5q48 0 94 -18.5t76.5 -41.5t67 -41.5t65.5 -18.5q28 0 48 11.5t29.5 30t13.5 35.5t4 33h98q0 -89 -49.5 -153t-139.5 -64zM178 0v801h-129v117
h273v-918h-144z" />
    <glyph glyph-name="Imacron" unicode="&#x12a;" horiz-adv-x="514" 
d="M-37 1567v116h588v-116h-588zM182 0v1327h150v-1327h-150z" />
    <glyph glyph-name="imacron" unicode="&#x12b;" horiz-adv-x="473" 
d="M-47 1178v118h588v-118h-588zM178 0v801h-129v117h273v-918h-144z" />
    <glyph glyph-name="Ibreve" unicode="&#x12c;" horiz-adv-x="514" 
d="M256 1446q-183 0 -260.5 88t-77.5 244v16h117q0 -117 52 -171t169 -54t169 54t52 171h117v-16q0 -332 -338 -332zM182 0v1327h150v-1327h-150z" />
    <glyph glyph-name="ibreve" unicode="&#x12d;" horiz-adv-x="473" 
d="M246 1047q-95 0 -162 24.5t-104 71t-53.5 104t-16.5 131.5v17h113q0 -118 53.5 -175t169.5 -57q117 0 170 56.5t53 175.5h113v-17q0 -331 -336 -331zM178 0v801h-129v117h273v-918h-144z" />
    <glyph glyph-name="Iogonek" unicode="&#x12e;" horiz-adv-x="514" 
d="M225 -424q-91 0 -146.5 45t-55.5 143q0 75 43 141t116 103v1319h150v-1327q-96 -32 -148.5 -91t-52.5 -130q0 -111 113 -111q62 0 108 29v-96q-56 -25 -127 -25z" />
    <glyph glyph-name="iogonek" unicode="&#x12f;" horiz-adv-x="473" 
d="M250 1155q-41 0 -67.5 26.5t-26.5 67.5q0 40 27.5 66t66.5 26q40 0 66 -26t26 -68q0 -41 -26.5 -66.5t-65.5 -25.5zM49 801v117h273v-918q-107 -33 -166.5 -90t-59.5 -131q0 -111 113 -111q62 0 108 29v-96q-50 -25 -127 -25q-90 0 -146 44.5t-56 137.5q0 86 51 153
t139 105v785h-129z" />
    <glyph glyph-name="Idotaccent" unicode="&#x130;" horiz-adv-x="514" 
d="M258 1520q-46 0 -75 29.5t-29 76.5q0 44 30 73.5t74 29.5q43 0 72.5 -30t29.5 -75t-29.5 -74.5t-72.5 -29.5zM182 0v1327h150v-1327h-150z" />
    <glyph glyph-name="dotlessi" unicode="&#x131;" horiz-adv-x="473" 
d="M178 0v801h-129v117h273v-918h-144z" />
    <glyph glyph-name="IJ" unicode="&#x132;" horiz-adv-x="1458" 
d="M182 0v1327h150v-1327h-150zM883 -20q-164 0 -256 45v141q89 -51 233 -51q167 0 227 84.5t60 289.5v713h-346v125h495v-883q0 -238 -94.5 -351t-318.5 -113z" />
    <glyph glyph-name="ij" unicode="&#x133;" horiz-adv-x="946" 
d="M250 1155q-41 0 -67.5 26.5t-26.5 67.5q0 40 27.5 66t66.5 26q40 0 66 -26t26 -68q0 -41 -26.5 -66.5t-65.5 -25.5zM723 1155q-41 0 -67.5 26.5t-26.5 67.5q0 40 27.5 66t66.5 26q40 0 66 -26t26 -68q0 -41 -26.5 -66.5t-65.5 -25.5zM178 0v801h-129v117h273v-918h-144z
M475 -424q-83 0 -162 27v125q73 -31 142 -31q60 0 100 20t60.5 59t28 83t7.5 106v836h-129v117h273v-945q0 -92 -15.5 -161t-50.5 -124t-99 -83.5t-155 -28.5z" />
    <glyph glyph-name="Jcircumflex" unicode="&#x134;" horiz-adv-x="952" 
d="M186 1464l338 348l340 -348h-159l-181 195l-178 -195h-160zM377 -20q-164 0 -256 45v141q89 -51 233 -51q167 0 227 84.5t60 289.5v713h-346v125h496v-883q0 -238 -95 -351t-319 -113z" />
    <glyph glyph-name="jcircumflex" unicode="&#x135;" horiz-adv-x="473" 
d="M-98 1065l338 348l340 -348h-160l-180 195l-179 -195h-159zM2 -424q-83 0 -162 27v125q73 -31 142 -31q60 0 100 20t60.5 59t28 83t7.5 106v836h-129v117h273v-945q0 -92 -15.5 -161t-50.5 -124t-99 -83.5t-155 -28.5z" />
    <glyph glyph-name="Kcommaaccent" unicode="&#x136;" horiz-adv-x="1249" 
d="M510 676l696 -676h-205l-669 657v-657h-150v1327h150v-641l659 641h199zM631 -133q43 0 73.5 -30t30.5 -85q0 -98 -94 -176h-94q75 69 88 127q-40 -6 -67 15.5t-27 62.5q0 39 25.5 62.5t64.5 23.5z" />
    <glyph glyph-name="kcommaaccent" unicode="&#x137;" horiz-adv-x="972" 
d="M459 492l485 -492h-190l-459 477v-477h-143v1358h143v-856l438 416h191zM500 -133q43 0 73.5 -30t30.5 -85q0 -98 -94 -176h-94q75 69 88 127q-40 -6 -67 15.5t-27 62.5q0 39 25.5 62.5t64.5 23.5z" />
    <glyph glyph-name="kgreenlandic" unicode="&#x138;" horiz-adv-x="968" 
d="M152 0v918h143v-435l438 435h189l-465 -445l487 -473h-192l-457 455v-455h-143z" />
    <glyph glyph-name="Lacute" unicode="&#x139;" horiz-adv-x="1071" 
d="M182 1464l238 330h190l-284 -330h-144zM182 0v1327h150v-1198h661v-129h-811z" />
    <glyph glyph-name="lacute" unicode="&#x13a;" horiz-adv-x="446" 
d="M154 1505l235 330h191l-285 -330h-141zM152 0v1358h143v-1358h-143z" />
    <glyph glyph-name="Lcommaaccent" unicode="&#x13b;" horiz-adv-x="1071" 
d="M332 129h661v-129h-811v1327h150v-1198zM586 -133q43 0 73.5 -30t30.5 -85q0 -98 -94 -176h-94q75 69 88 127q-40 -6 -67 15.5t-27 62.5q0 39 25.5 62.5t64.5 23.5z" />
    <glyph glyph-name="lcommaaccent" unicode="&#x13c;" horiz-adv-x="446" 
d="M295 1358v-1358h-143v1358h143zM217 -133q43 0 74 -30t31 -85q0 -97 -95 -176h-94q75 69 88 127q-40 -6 -67 15.5t-27 62.5q0 39 25.5 62.5t64.5 23.5z" />
    <glyph glyph-name="Lcaron" unicode="&#x13d;" horiz-adv-x="1071" 
d="M598 1044q89 82 98 140q-40 -5 -67 17.5t-27 60.5q0 39 25.5 62.5t64.5 23.5q44 0 74.5 -29.5t30.5 -87.5q0 -53 -31 -103t-78 -84h-90zM332 129h661v-129h-811v1327h150v-1198z" />
    <glyph glyph-name="lcaron" unicode="&#x13e;" horiz-adv-x="634" 
d="M530 1368q44 0 74.5 -29.5t30.5 -87.5q0 -53 -31 -102t-78 -84h-90q90 83 99 139q-40 -5 -67.5 17.5t-27.5 60.5q0 39 25.5 62.5t64.5 23.5zM152 0v1358h143v-1358h-143z" />
    <glyph glyph-name="Ldot" unicode="&#x13f;" horiz-adv-x="1071" 
d="M182 0v1327h150v-1198h661v-129h-811zM793 573q-44 0 -72.5 29.5t-28.5 73.5q0 42 29.5 71t71.5 29q43 0 70.5 -29t27.5 -73t-27.5 -72.5t-70.5 -28.5z" />
    <glyph glyph-name="ldot" unicode="&#x140;" horiz-adv-x="696" 
d="M152 0v1358h143v-1358h-143zM561 578q-46 0 -75 29t-29 75q0 45 29.5 74.5t74.5 29.5q43 0 73 -29.5t30 -74.5q0 -46 -29.5 -75t-73.5 -29z" />
    <glyph glyph-name="Lslash" unicode="&#x141;" horiz-adv-x="1071" 
d="M182 0v535l-184 -103v131l184 103v661h150v-598l344 186v-131l-344 -188v-467h661v-129h-811z" />
    <glyph glyph-name="lslash" unicode="&#x142;" horiz-adv-x="550" 
d="M203 0v588l-166 -94v120l166 95v649h143v-584l168 94v-123l-168 -94v-651h-143z" />
    <glyph glyph-name="Nacute" unicode="&#x143;" horiz-adv-x="1449" 
d="M604 1464l238 330h190l-284 -330h-144zM1247 -20l-919 1036v-1016h-146v1348h21l919 -1039v1018h146v-1347h-21z" />
    <glyph glyph-name="nacute" unicode="&#x144;" horiz-adv-x="1093" 
d="M442 1065l236 330h190l-284 -330h-142zM152 0v918h131l2 -148q38 78 119 122t200 44q181 0 266.5 -99.5t85.5 -299.5v-537h-143v504q0 72 -9.5 123t-35 95.5t-74.5 66.5t-123 22q-276 0 -276 -369v-442h-143z" />
    <glyph glyph-name="Ncommaaccent" unicode="&#x145;" horiz-adv-x="1449" 
d="M1122 1327h146v-1347h-21l-919 1036v-1016h-146v1348h21l919 -1039v1018zM719 -133q43 0 73.5 -30t30.5 -85q0 -98 -94 -176h-94q75 69 88 127q-40 -6 -67 15.5t-27 62.5q0 39 25.5 62.5t64.5 23.5z" />
    <glyph glyph-name="ncommaaccent" unicode="&#x146;" horiz-adv-x="1093" 
d="M604 936q181 0 266.5 -99.5t85.5 -299.5v-537h-143v504q0 72 -9.5 123t-35 95.5t-74.5 66.5t-123 22q-276 0 -276 -369v-442h-143v918h131l2 -148q38 78 119 122t200 44zM547 -133q43 0 73.5 -30t30.5 -85q0 -98 -94 -176h-94q75 69 88 127q-40 -6 -67 15.5t-27 62.5
q0 39 25.5 62.5t64.5 23.5z" />
    <glyph glyph-name="Ncaron" unicode="&#x147;" horiz-adv-x="1449" 
d="M723 1446l-338 348h160l178 -195l180 195h160zM1247 -20l-919 1036v-1016h-146v1348h21l919 -1039v1018h146v-1347h-21z" />
    <glyph glyph-name="ncaron" unicode="&#x148;" horiz-adv-x="1093" 
d="M580 1047l-338 348h159l179 -195l180 195h160zM152 0v918h131l2 -148q38 78 119 122t200 44q181 0 266.5 -99.5t85.5 -299.5v-537h-143v504q0 72 -9.5 123t-35 95.5t-74.5 66.5t-123 22q-276 0 -276 -369v-442h-143z" />
    <glyph glyph-name="Eng" unicode="&#x14a;" horiz-adv-x="1449" 
d="M870 -424q-129 0 -227 37v127q84 -41 205 -41q83 0 137.5 22.5t84 70.5t41 109t11.5 150v60l-794 905v-1016h-146v1348h17l923 -1039v1018h146v-1284q0 -239 -90.5 -353t-307.5 -114z" />
    <glyph glyph-name="eng" unicode="&#x14b;" horiz-adv-x="1093" 
d="M659 -424q-39 0 -73 6v119q24 -6 51 -6q45 0 77.5 13.5t51 35t29.5 56.5t14.5 70t3.5 83v551q0 72 -9.5 123t-35 95.5t-74.5 66.5t-123 22q-276 0 -276 -369v-442h-143v918h131l2 -148q39 79 120 122.5t199 43.5q181 0 266.5 -99.5t85.5 -299.5v-566q0 -49 -2 -85.5
t-9.5 -80t-20 -75t-34.5 -62t-53 -49.5t-76 -31t-102 -12z" />
    <glyph glyph-name="Omacron" unicode="&#x14c;" horiz-adv-x="1536" 
d="M477 1567v116h588v-116h-588zM766 -20q-153 0 -277.5 53t-205.5 146t-124.5 217t-43.5 268q0 195 76 348.5t226.5 244.5t354.5 91q154 0 278 -52t204.5 -144t123.5 -214.5t43 -265.5q0 -146 -43.5 -271.5t-125 -219.5t-206.5 -147.5t-280 -53.5zM770 119q227 0 363.5 154
t136.5 397q0 237 -138 388.5t-364 151.5q-222 0 -362 -152t-140 -390q0 -156 61 -280t176.5 -196.5t266.5 -72.5z" />
    <glyph glyph-name="omacron" unicode="&#x14d;" horiz-adv-x="1130" 
d="M270 1178v118h588v-118h-588zM563 -18q-216 0 -345.5 131t-129.5 344q0 210 129.5 344.5t349.5 134.5q215 0 345 -125.5t130 -343.5q0 -219 -132 -352t-347 -133zM563 106q146 0 238 97.5t92 259.5q0 160 -92 254t-236 94q-150 0 -238.5 -99.5t-88.5 -254.5
q0 -160 90.5 -255.5t234.5 -95.5z" />
    <glyph glyph-name="Obreve" unicode="&#x14e;" horiz-adv-x="1536" 
d="M770 1446q-183 0 -260.5 88t-77.5 244v16h117q0 -117 52 -171t169 -54t169 54t52 171h117v-16q0 -332 -338 -332zM766 -20q-153 0 -277.5 53t-205.5 146t-124.5 217t-43.5 268q0 195 76 348.5t226.5 244.5t354.5 91q154 0 278 -52t204.5 -144t123.5 -214.5t43 -265.5
q0 -146 -43.5 -271.5t-125 -219.5t-206.5 -147.5t-280 -53.5zM770 119q227 0 363.5 154t136.5 397q0 237 -138 388.5t-364 151.5q-222 0 -362 -152t-140 -390q0 -156 61 -280t176.5 -196.5t266.5 -72.5z" />
    <glyph glyph-name="obreve" unicode="&#x14f;" horiz-adv-x="1130" 
d="M563 1047q-95 0 -162 24.5t-104 71t-53.5 104t-16.5 131.5v17h113q0 -118 53.5 -175t169.5 -57q117 0 170 56.5t53 175.5h113v-17q0 -331 -336 -331zM563 -18q-216 0 -345.5 131t-129.5 344q0 210 129.5 344.5t349.5 134.5q215 0 345 -125.5t130 -343.5q0 -219 -132 -352
t-347 -133zM563 106q146 0 238 97.5t92 259.5q0 160 -92 254t-236 94q-150 0 -238.5 -99.5t-88.5 -254.5q0 -160 90.5 -255.5t234.5 -95.5z" />
    <glyph glyph-name="Ohungarumlaut" unicode="&#x150;" horiz-adv-x="1536" 
d="M416 1464l266 330h190l-313 -330h-143zM797 1464l266 330h190l-313 -330h-143zM766 -20q-153 0 -277.5 53t-205.5 146t-124.5 217t-43.5 268q0 195 76 348.5t226.5 244.5t354.5 91q154 0 278 -52t204.5 -144t123.5 -214.5t43 -265.5q0 -146 -43.5 -271.5t-125 -219.5
t-206.5 -147.5t-280 -53.5zM770 119q227 0 363.5 154t136.5 397q0 237 -138 388.5t-364 151.5q-222 0 -362 -152t-140 -390q0 -156 61 -280t176.5 -196.5t266.5 -72.5z" />
    <glyph glyph-name="ohungarumlaut" unicode="&#x151;" horiz-adv-x="1130" 
d="M260 1065l266 330h191l-314 -330h-143zM641 1065l266 330h191l-314 -330h-143zM563 -18q-216 0 -345.5 131t-129.5 344q0 210 129.5 344.5t349.5 134.5q215 0 345 -125.5t130 -343.5q0 -219 -132 -352t-347 -133zM563 106q146 0 238 97.5t92 259.5q0 160 -92 254t-236 94
q-150 0 -238.5 -99.5t-88.5 -254.5q0 -160 90.5 -255.5t234.5 -95.5z" />
    <glyph glyph-name="OE" unicode="&#x152;" horiz-adv-x="2121" 
d="M766 -20q-153 0 -277.5 53t-205.5 146.5t-124.5 218t-43.5 268.5t44.5 269t127 216.5t206.5 144t275 52.5q180 0 311 -76.5t203 -210.5v266h752v-127h-619v-461h459v-125h-459v-485h643v-129h-776v272q-62 -131 -199.5 -211.5t-316.5 -80.5zM770 121q150 0 263.5 71
t173 195t59.5 283q0 156 -60.5 278.5t-174.5 192t-263 69.5q-222 0 -362 -152t-140 -390q0 -155 61 -278.5t176.5 -196t266.5 -72.5z" />
    <glyph glyph-name="oe" unicode="&#x153;" horiz-adv-x="1849" 
d="M563 -18q-216 0 -345.5 131t-129.5 344q0 210 129.5 344.5t349.5 134.5q140 0 245.5 -58.5t148.5 -160.5q53 104 150.5 161.5t227.5 57.5q198 0 310 -119t112 -323q0 -48 -4 -88h-715q9 -151 101 -226.5t258 -75.5q184 0 319 80v-129q-46 -26 -137 -49.5t-201 -23.5
q-155 0 -264.5 57.5t-156.5 163.5q-56 -106 -159.5 -163.5t-238.5 -57.5zM1044 510h570q7 141 -70 223t-205 82q-127 0 -207 -83.5t-88 -221.5zM563 106q146 0 238 97.5t92 259.5q0 160 -92 254t-236 94q-150 0 -238.5 -99.5t-88.5 -254.5q0 -160 90.5 -255.5t234.5 -95.5z
" />
    <glyph glyph-name="Racute" unicode="&#x154;" horiz-adv-x="1214" 
d="M907 1794l-284 -330h-144l238 330h190zM805 526l342 -526h-180l-318 506h-317v-506h-150v1327h416q109 0 195.5 -21.5t154.5 -68t105 -127t37 -190.5q0 -88 -24 -158.5t-65.5 -117t-90 -75t-105.5 -43.5zM584 631q352 0 352 287q0 64 -20 114t-53 81t-80.5 51t-98.5 28
t-111 8h-241v-569h252z" />
    <glyph glyph-name="racute" unicode="&#x155;" horiz-adv-x="671" 
d="M301 1065l236 330h190l-285 -330h-141zM152 0v918h131l2 -154q35 76 114.5 124t182.5 48q37 0 55 -6v-131q-28 12 -80 12q-262 0 -262 -369v-442h-143z" />
    <glyph glyph-name="Rcommaaccent" unicode="&#x156;" horiz-adv-x="1214" 
d="M805 526l342 -526h-180l-318 506h-317v-506h-150v1327h416q109 0 195.5 -21.5t154.5 -68t105 -127t37 -190.5q0 -88 -24 -158.5t-65.5 -117t-90 -75t-105.5 -43.5zM584 631q352 0 352 287q0 64 -20 114t-53 81t-80.5 51t-98.5 28t-111 8h-241v-569h252zM635 -133
q43 0 73.5 -30t30.5 -85q0 -98 -94 -176h-94q75 69 88 127q-40 -6 -67 15.5t-27 62.5q0 39 25.5 62.5t64.5 23.5z" />
    <glyph glyph-name="rcommaaccent" unicode="&#x157;" horiz-adv-x="671" 
d="M582 936q37 0 55 -6v-131q-28 12 -80 12q-262 0 -262 -369v-442h-143v918h131l2 -154q35 76 114.5 124t182.5 48zM215 -133q43 0 73.5 -30t30.5 -85q0 -98 -94 -176h-94q75 69 88 127q-40 -6 -67 15.5t-27 62.5q0 39 25.5 62.5t64.5 23.5z" />
    <glyph glyph-name="Rcaron" unicode="&#x158;" horiz-adv-x="1214" 
d="M938 1794l-340 -348l-338 348h160l178 -195l180 195h160zM805 526l342 -526h-180l-318 506h-317v-506h-150v1327h416q109 0 195.5 -21.5t154.5 -68t105 -127t37 -190.5q0 -88 -24 -158.5t-65.5 -117t-90 -75t-105.5 -43.5zM584 631q352 0 352 287q0 64 -20 114t-53 81
t-80.5 51t-98.5 28t-111 8h-241v-569h252z" />
    <glyph glyph-name="rcaron" unicode="&#x159;" horiz-adv-x="671" 
d="M438 1047l-338 348h160l178 -195l180 195h160zM152 0v918h131l2 -154q35 76 114.5 124t182.5 48q37 0 55 -6v-131q-28 12 -80 12q-262 0 -262 -369v-442h-143z" />
    <glyph glyph-name="Sacute" unicode="&#x15a;" horiz-adv-x="1007" 
d="M426 1464l238 330h190l-285 -330h-143zM481 -20q-196 0 -346 79v156q66 -43 155.5 -72.5t186.5 -29.5q130 0 203.5 56t73.5 173q0 67 -33.5 116.5t-87 81.5t-118.5 59.5t-129.5 59t-118 71.5t-87 106t-33.5 153q0 166 106.5 262.5t293.5 96.5q92 0 175.5 -22t129.5 -48
v-154q-146 93 -297 93q-116 0 -186 -57.5t-70 -162.5q0 -50 20.5 -90t56 -67t81 -50t95.5 -44t100 -43.5t95.5 -54t81 -70t56 -96.5t20.5 -130q0 -187 -112 -279.5t-312 -92.5z" />
    <glyph glyph-name="sacute" unicode="&#x15b;" horiz-adv-x="772" 
d="M268 1065l236 330h190l-284 -330h-142zM360 -18q-78 0 -146.5 16.5t-102.5 36.5v127q110 -66 241 -66q90 0 141.5 38.5t51.5 113.5q0 48 -23.5 82.5t-60.5 54.5t-82 36t-90 35.5t-82 46t-60.5 73.5t-23.5 112q0 123 77.5 185.5t213.5 62.5q68 0 125 -14.5t84 -30.5v-125
q-92 55 -203 55q-83 0 -122.5 -34.5t-39.5 -90.5q0 -43 23.5 -73t61 -48t82.5 -34t90 -36.5t82.5 -49t61 -78.5t23.5 -119q0 -138 -88.5 -207t-233.5 -69z" />
    <glyph glyph-name="Scircumflex" unicode="&#x15c;" horiz-adv-x="1007" 
d="M207 1464l338 348l340 -348h-160l-180 195l-178 -195h-160zM481 -20q-196 0 -346 79v156q66 -43 155.5 -72.5t186.5 -29.5q130 0 203.5 56t73.5 173q0 67 -33.5 116.5t-87 81.5t-118.5 59.5t-129.5 59t-118 71.5t-87 106t-33.5 153q0 166 106.5 262.5t293.5 96.5
q92 0 175.5 -22t129.5 -48v-154q-146 93 -297 93q-116 0 -186 -57.5t-70 -162.5q0 -50 20.5 -90t56 -67t81 -50t95.5 -44t100 -43.5t95.5 -54t81 -70t56 -96.5t20.5 -130q0 -187 -112 -279.5t-312 -92.5z" />
    <glyph glyph-name="scircumflex" unicode="&#x15d;" horiz-adv-x="772" 
d="M68 1065l338 348l339 -348h-159l-180 195l-179 -195h-159zM360 -18q-78 0 -146.5 16.5t-102.5 36.5v127q110 -66 241 -66q90 0 141.5 38.5t51.5 113.5q0 48 -23.5 82.5t-60.5 54.5t-82 36t-90 35.5t-82 46t-60.5 73.5t-23.5 112q0 123 77.5 185.5t213.5 62.5
q68 0 125 -14.5t84 -30.5v-125q-92 55 -203 55q-83 0 -122.5 -34.5t-39.5 -90.5q0 -43 23.5 -73t61 -48t82.5 -34t90 -36.5t82.5 -49t61 -78.5t23.5 -119q0 -138 -88.5 -207t-233.5 -69z" />
    <glyph glyph-name="Scedilla" unicode="&#x15e;" horiz-adv-x="1007" 
d="M905 352q0 -185 -111 -277.5t-309 -94.5l-22 -74q17 10 43 10q69 -2 112.5 -41t43.5 -123q0 -91 -58.5 -133.5t-152.5 -42.5q-82 0 -138 25v90q65 -31 125 -31q113 0 113 92q0 46 -24.5 69t-67.5 23q-56 0 -97 -41l-20 13l49 168q-143 16 -256 75v156q66 -43 155.5 -72.5
t186.5 -29.5q130 0 203.5 56t73.5 173q0 67 -33.5 116.5t-87 81.5t-118.5 59.5t-129.5 59t-118 71.5t-87 106t-33.5 153q0 166 106.5 262.5t293.5 96.5q92 0 175.5 -22t129.5 -48v-154q-146 93 -297 93q-116 0 -186 -57.5t-70 -162.5q0 -50 20.5 -90t56 -67t81 -50t95.5 -44
t100 -43.5t95.5 -54t81 -70t56 -96.5t20.5 -130z" />
    <glyph glyph-name="scedilla" unicode="&#x15f;" horiz-adv-x="772" 
d="M682 258q0 -133 -83 -202t-220 -74l-25 -76q17 10 43 10q69 -2 112.5 -41t43.5 -123q0 -91 -58.5 -133.5t-152.5 -42.5q-81 0 -137 25v90q65 -31 125 -31q112 0 112 92q0 46 -24.5 69t-67.5 23q-55 0 -96 -41l-21 13l52 170q-104 13 -174 49v127q110 -66 241 -66
q90 0 141.5 38.5t51.5 113.5q0 48 -23.5 82.5t-60.5 54.5t-82 36t-90 35.5t-82 46t-60.5 73.5t-23.5 112q0 123 77.5 185.5t213.5 62.5q68 0 125 -14.5t84 -30.5v-125q-92 55 -203 55q-83 0 -122.5 -34.5t-39.5 -90.5q0 -43 23.5 -73t61 -48t82.5 -34t90 -36.5t82.5 -49
t61 -78.5t23.5 -119z" />
    <glyph glyph-name="Scaron" unicode="&#x160;" horiz-adv-x="1007" 
d="M545 1446l-338 348h160l178 -195l180 195h160zM481 -20q-196 0 -346 79v156q66 -43 155.5 -72.5t186.5 -29.5q130 0 203.5 56t73.5 173q0 67 -33.5 116.5t-87 81.5t-118.5 59.5t-129.5 59t-118 71.5t-87 106t-33.5 153q0 166 106.5 262.5t293.5 96.5q92 0 175.5 -22
t129.5 -48v-154q-146 93 -297 93q-116 0 -186 -57.5t-70 -162.5q0 -50 20.5 -90t56 -67t81 -50t95.5 -44t100 -43.5t95.5 -54t81 -70t56 -96.5t20.5 -130q0 -187 -112 -279.5t-312 -92.5z" />
    <glyph glyph-name="scaron" unicode="&#x161;" horiz-adv-x="772" 
d="M406 1047l-338 348h159l179 -195l180 195h159zM360 -18q-78 0 -146.5 16.5t-102.5 36.5v127q110 -66 241 -66q90 0 141.5 38.5t51.5 113.5q0 48 -23.5 82.5t-60.5 54.5t-82 36t-90 35.5t-82 46t-60.5 73.5t-23.5 112q0 123 77.5 185.5t213.5 62.5q68 0 125 -14.5
t84 -30.5v-125q-92 55 -203 55q-83 0 -122.5 -34.5t-39.5 -90.5q0 -43 23.5 -73t61 -48t82.5 -34t90 -36.5t82.5 -49t61 -78.5t23.5 -119q0 -138 -88.5 -207t-233.5 -69z" />
    <glyph glyph-name="uni0162" unicode="&#x162;" horiz-adv-x="1112" 
d="M82 1327h948v-127h-399v-1200h-150v1200h-399v127zM551 -133q43 0 73.5 -30t30.5 -85q0 -98 -94 -176h-94q75 69 88 127q-40 -6 -67 15.5t-27 62.5q0 39 25.5 62.5t64.5 23.5z" />
    <glyph glyph-name="uni0163" unicode="&#x163;" horiz-adv-x="743" 
d="M502 104q72 0 149 31v-123q-66 -30 -176 -30q-150 0 -211 75.5t-61 218.5v525h-142v18q72 55 149.5 152t117.5 180h18v-233h268v-117h-268v-500q0 -102 31.5 -149.5t124.5 -47.5zM426 -133q43 0 73.5 -30t30.5 -85q0 -98 -94 -176h-94q75 69 88 127q-40 -6 -67 15.5
t-27 62.5q0 39 25.5 62.5t64.5 23.5z" />
    <glyph glyph-name="Tcaron" unicode="&#x164;" horiz-adv-x="1112" 
d="M555 1446l-338 348h160l178 -195l180 195h160zM481 0v1200h-399v127h948v-127h-399v-1200h-150z" />
    <glyph glyph-name="tcaron" unicode="&#x165;" horiz-adv-x="755" 
d="M653 1389q44 0 74.5 -29.5t30.5 -87.5q0 -53 -31 -103t-78 -84h-90q89 82 98 140q-40 -5 -67 17.5t-27 60.5q0 39 25.5 62.5t64.5 23.5zM346 301q0 -102 31.5 -149.5t124.5 -47.5q72 0 149 31v-123q-66 -30 -176 -30q-150 0 -211 75.5t-61 218.5v525h-142v18
q72 55 149.5 152t117.5 180h18v-233h268v-117h-268v-500z" />
    <glyph glyph-name="Tbar" unicode="&#x166;" horiz-adv-x="1112" 
d="M1030 1200h-399v-530h231v-119h-231v-551h-150v551h-231v119h231v530h-399v127h948v-127z" />
    <glyph glyph-name="tbar" unicode="&#x167;" horiz-adv-x="743" 
d="M502 104q72 0 149 31v-123q-66 -30 -176 -30q-150 0 -211 75.5t-61 218.5v158h-111v111h111v256h-142v18q72 55 149.5 152t117.5 180h18v-233h268v-117h-268v-256h227v-111h-227v-133q0 -102 31.5 -149.5t124.5 -47.5z" />
    <glyph glyph-name="Utilde" unicode="&#x168;" horiz-adv-x="1337" 
d="M823 1516q-46 0 -91 18.5t-75 40.5t-66.5 40.5t-68.5 18.5q-30 0 -51 -12.5t-30.5 -32t-13 -35t-3.5 -28.5h-98q0 92 49.5 154.5t140.5 62.5q48 0 94 -19t76.5 -41.5t67 -41.5t65.5 -19q28 0 48 11.5t29.5 30.5t13 35.5t3.5 33.5h99q0 -90 -49.5 -153.5t-139.5 -63.5z
M670 -20q-262 0 -385 136.5t-123 415.5v795h149v-762q0 -231 83.5 -339.5t273.5 -108.5q186 0 273 107.5t87 340.5v762h148v-792q0 -288 -126 -421.5t-380 -133.5z" />
    <glyph glyph-name="utilde" unicode="&#x169;" horiz-adv-x="1038" 
d="M674 1116q-46 0 -91 19t-75 41.5t-66.5 41.5t-68.5 19q-30 0 -51.5 -13t-31 -33t-13 -36t-3.5 -29h-98q0 92 50 154.5t141 62.5q48 0 94 -18.5t76.5 -41.5t67 -41.5t65.5 -18.5q37 0 59.5 21t28.5 43t6 46h98q0 -89 -49 -153t-139 -64zM520 -18q-89 0 -157.5 23.5
t-110.5 61.5t-68.5 92.5t-36.5 111t-10 122.5v525h144v-521q0 -293 241 -293q240 0 240 293v521h139v-525q0 -64 -9.5 -119.5t-36 -110.5t-68 -94t-110 -63t-157.5 -24z" />
    <glyph glyph-name="Umacron" unicode="&#x16a;" horiz-adv-x="1337" 
d="M375 1567v116h588v-116h-588zM670 -20q-262 0 -385 136.5t-123 415.5v795h149v-762q0 -231 83.5 -339.5t273.5 -108.5q186 0 273 107.5t87 340.5v762h148v-792q0 -288 -126 -421.5t-380 -133.5z" />
    <glyph glyph-name="umacron" unicode="&#x16b;" horiz-adv-x="1038" 
d="M225 1178v118h588v-118h-588zM520 -18q-89 0 -157.5 23.5t-110.5 61.5t-68.5 92.5t-36.5 111t-10 122.5v525h144v-521q0 -293 241 -293q240 0 240 293v521h139v-525q0 -64 -9.5 -119.5t-36 -110.5t-68 -94t-110 -63t-157.5 -24z" />
    <glyph glyph-name="Ubreve" unicode="&#x16c;" horiz-adv-x="1337" 
d="M668 1446q-183 0 -260.5 88t-77.5 244v16h116q0 -117 52.5 -171t169.5 -54t169 54t52 171h117v-16q0 -332 -338 -332zM670 -20q-262 0 -385 136.5t-123 415.5v795h149v-762q0 -231 83.5 -339.5t273.5 -108.5q186 0 273 107.5t87 340.5v762h148v-792q0 -288 -126 -421.5
t-380 -133.5z" />
    <glyph glyph-name="ubreve" unicode="&#x16d;" horiz-adv-x="1038" 
d="M518 1047q-95 0 -162 24.5t-104 71t-53.5 104t-16.5 131.5v17h113q0 -118 53.5 -175t169.5 -57q117 0 170 56.5t53 175.5h113v-17q0 -331 -336 -331zM520 -18q-89 0 -157.5 23.5t-110.5 61.5t-68.5 92.5t-36.5 111t-10 122.5v525h144v-521q0 -293 241 -293q240 0 240 293
v521h139v-525q0 -64 -9.5 -119.5t-36 -110.5t-68 -94t-110 -63t-157.5 -24z" />
    <glyph glyph-name="Uring" unicode="&#x16e;" horiz-adv-x="1337" 
d="M670 1413q-92 0 -153.5 60t-61.5 151t61.5 151t153.5 60q93 0 154 -60t61 -151t-61 -151t-154 -60zM670 1497q54 0 88.5 34.5t34.5 92.5q0 55 -35 91t-88 36q-54 0 -88.5 -34.5t-34.5 -92.5t34.5 -92.5t88.5 -34.5zM670 -20q-262 0 -385 136.5t-123 415.5v795h149v-762
q0 -231 83.5 -339.5t273.5 -108.5q186 0 273 107.5t87 340.5v762h148v-792q0 -288 -126 -421.5t-380 -133.5z" />
    <glyph glyph-name="uring" unicode="&#x16f;" horiz-adv-x="1038" 
d="M520 1044q-92 0 -153.5 60t-61.5 151t61.5 151t153.5 60q93 0 154 -60t61 -151t-61 -151t-154 -60zM520 1128q54 0 88.5 35t34.5 92q0 55 -35 91t-88 36q-54 0 -88.5 -35t-34.5 -92t34.5 -92t88.5 -35zM520 -18q-89 0 -157.5 23.5t-110.5 61.5t-68.5 92.5t-36.5 111
t-10 122.5v525h144v-521q0 -293 241 -293q240 0 240 293v521h139v-525q0 -64 -9.5 -119.5t-36 -110.5t-68 -94t-110 -63t-157.5 -24z" />
    <glyph glyph-name="Uhungarumlaut" unicode="&#x170;" horiz-adv-x="1337" 
d="M313 1464l267 330h190l-313 -330h-144zM694 1464l267 330h190l-313 -330h-144zM670 -20q-262 0 -385 136.5t-123 415.5v795h149v-762q0 -231 83.5 -339.5t273.5 -108.5q186 0 273 107.5t87 340.5v762h148v-792q0 -288 -126 -421.5t-380 -133.5z" />
    <glyph glyph-name="uhungarumlaut" unicode="&#x171;" horiz-adv-x="1038" 
d="M215 1065l266 330h191l-314 -330h-143zM596 1065l266 330h191l-314 -330h-143zM520 -18q-89 0 -157.5 23.5t-110.5 61.5t-68.5 92.5t-36.5 111t-10 122.5v525h144v-521q0 -293 241 -293q240 0 240 293v521h139v-525q0 -64 -9.5 -119.5t-36 -110.5t-68 -94t-110 -63
t-157.5 -24z" />
    <glyph glyph-name="Uogonek" unicode="&#x172;" horiz-adv-x="1337" 
d="M803 -424q-90 0 -146.5 44.5t-56.5 137.5q0 74 39 134.5t106 93.5q-21 -6 -75 -6q-262 0 -385 136.5t-123 415.5v795h149v-762q0 -231 83.5 -339.5t273.5 -108.5q186 0 273 107.5t87 340.5v762h148v-803q0 -98 -16 -177.5t-43 -132.5t-62 -95t-74 -69.5t-77.5 -51
t-73.5 -44.5t-62 -44.5t-43 -56.5t-16 -76q0 -109 112 -109q63 0 109 29v-96q-50 -25 -127 -25z" />
    <glyph glyph-name="uogonek" unicode="&#x173;" horiz-adv-x="1038" 
d="M639 -424q-90 0 -146.5 44.5t-56.5 137.5q0 75 40.5 137.5t103.5 92.5q-24 -6 -60 -6q-89 0 -157.5 23.5t-110.5 61.5t-68.5 92.5t-36.5 111t-10 122.5v525h144v-521q0 -293 241 -293q240 0 240 293v521h139v-533q0 -87 -19.5 -155.5t-51 -111.5t-69.5 -77.5t-76 -61.5
t-69.5 -54t-51 -64.5t-19.5 -83.5q0 -109 112 -109q63 0 109 29v-96q-56 -25 -127 -25z" />
    <glyph glyph-name="Wcircumflex" unicode="&#x174;" horiz-adv-x="1904" 
d="M612 1464l338 348l340 -348h-160l-180 195l-178 -195h-160zM565 -18l-495 1345h163l347 -999l362 999h21l362 -999l350 999h160l-494 -1345h-20l-369 1009l-366 -1009h-21z" />
    <glyph glyph-name="wcircumflex" unicode="&#x175;" horiz-adv-x="1480" 
d="M408 1065l337 348l340 -348h-159l-181 195l-178 -195h-159zM453 -18l-398 936h158l254 -646l270 646h21l262 -646l252 646h153l-389 -936h-20l-268 657l-275 -657h-20z" />
    <glyph glyph-name="Ycircumflex" unicode="&#x176;" horiz-adv-x="1200" 
d="M258 1464l338 348l340 -348h-160l-180 195l-178 -195h-160zM522 0v526l-469 801h164l383 -670l387 670h160l-475 -801v-526h-150z" />
    <glyph glyph-name="ycircumflex" unicode="&#x177;" horiz-adv-x="995" 
d="M158 1065l338 348l340 -348h-160l-180 195l-179 -195h-159zM221 -406l201 451l-381 873h158l299 -713l303 713h155l-579 -1324h-156z" />
    <glyph glyph-name="Ydieresis" unicode="&#x178;" horiz-adv-x="1200" 
d="M403 1518q-46 0 -76 30t-30 76t30 76.5t76 30.5t75.5 -30.5t29.5 -76.5t-29.5 -76t-75.5 -30zM788 1518q-46 0 -75 30t-29 76t29.5 76.5t74.5 30.5q46 0 76.5 -30.5t30.5 -76.5t-30.5 -76t-76.5 -30zM522 0v526l-469 801h164l383 -670l387 670h160l-475 -801v-526h-150z
" />
    <glyph glyph-name="Zacute" unicode="&#x179;" horiz-adv-x="1208" 
d="M483 1464l238 330h190l-284 -330h-144zM104 0v20l762 1180h-727v127h963v-20l-760 -1178h768v-129h-1006z" />
    <glyph glyph-name="zacute" unicode="&#x17a;" horiz-adv-x="960" 
d="M342 1065l236 330h190l-285 -330h-141zM84 0v20l565 781h-530v117h758v-21l-566 -778h574v-119h-801z" />
    <glyph glyph-name="Zdotaccent" unicode="&#x17b;" horiz-adv-x="1208" 
d="M604 1520q-46 0 -75 29.5t-29 76.5q0 44 30 73.5t74 29.5q43 0 73 -30t30 -75t-30 -74.5t-73 -29.5zM104 0v20l762 1180h-727v127h963v-20l-760 -1178h768v-129h-1006z" />
    <glyph glyph-name="zdotaccent" unicode="&#x17c;" horiz-adv-x="960" 
d="M481 1155q-41 0 -67.5 26.5t-26.5 67.5t27 66.5t67 25.5q39 0 65.5 -26t26.5 -68q0 -41 -26.5 -66.5t-65.5 -25.5zM84 0v20l565 781h-530v117h758v-21l-566 -778h574v-119h-801z" />
    <glyph glyph-name="Zcaron" unicode="&#x17d;" horiz-adv-x="1208" 
d="M602 1446l-338 348h160l178 -195l180 195h160zM104 0v20l762 1180h-727v127h963v-20l-760 -1178h768v-129h-1006z" />
    <glyph glyph-name="zcaron" unicode="&#x17e;" horiz-adv-x="960" 
d="M479 1047l-338 348h160l178 -195l180 195h160zM84 0v20l565 781h-530v117h758v-21l-566 -778h574v-119h-801z" />
    <glyph glyph-name="longs" unicode="&#x17f;" horiz-adv-x="710" 
d="M225 0v801h-155v117h155v90q0 189 79.5 282.5t254.5 93.5q109 0 178 -32v-127q-79 35 -162 35q-113 0 -159.5 -62t-46.5 -203v-995h-144z" />
    <glyph glyph-name="florin" unicode="&#x192;" horiz-adv-x="946" 
d="M63 -424q-83 0 -135 21v127q65 -21 121 -21q96 0 135 61.5t70 233.5l102 590h-211v125h234l43 241q18 100 43 170t65.5 122t100 77t141.5 25q89 0 135 -23v-129q-51 21 -114 21q-98 0 -147 -65t-77 -226l-37 -213h281v-125h-305l-107 -619q-14 -78 -27.5 -130t-39 -106.5
t-59 -85.5t-87.5 -51t-125 -20z" />
    <glyph glyph-name="uni01CD" unicode="&#x1cd;" horiz-adv-x="1325" 
d="M662 1446l-338 348h159l179 -195l180 195h159zM53 0l600 1348h21l600 -1348h-162l-125 291h-651l-127 -291h-156zM387 418h549l-272 637z" />
    <glyph glyph-name="uni01CE" unicode="&#x1ce;" horiz-adv-x="1003" 
d="M831 1395l-339 -348l-338 348h159l179 -195l180 195h159zM492 936q374 0 374 -371v-565h-129l-2 129q-84 -147 -307 -147q-158 0 -249 82t-91 215q0 142 99.5 222.5t279.5 80.5q149 0 256 -60v35q0 126 -59.5 192t-196.5 66q-157 0 -291 -82v129q136 74 316 74zM459 88
q132 0 198 77.5t66 209.5v37q-39 29 -106.5 47t-141.5 18q-114 0 -176.5 -50t-62.5 -142q0 -91 61 -144t162 -53z" />
    <glyph glyph-name="AEacute" unicode="&#x1fc;" horiz-adv-x="1832" 
d="M686 1464l238 330h190l-285 -330h-143zM53 0l592 1327h604l58 -127h-568l205 -461h442l58 -125h-443l213 -485h574l59 -129h-735l-125 291h-651l-127 -291h-156zM389 418h547l-272 637z" />
    <glyph glyph-name="aeacute" unicode="&#x1fd;" horiz-adv-x="1671" 
d="M1171 1395l-284 -330h-142l236 330h190zM1583 494q0 -48 -4 -88h-715q9 -151 101 -226.5t258 -75.5q184 0 319 80v-129q-46 -26 -138 -49.5t-202 -23.5q-151 0 -258 50t-151 146q-15 -35 -39.5 -66.5t-65 -62.5t-104 -49t-142.5 -18q-169 0 -261.5 81.5t-92.5 215.5
q0 142 99.5 222.5t281.5 80.5q147 0 254 -60v35q0 127 -58.5 192.5t-195.5 65.5q-159 0 -293 -82v129q136 74 318 74q133 0 209.5 -50t105.5 -132q48 85 139.5 133.5t212.5 48.5q198 0 310 -119t112 -323zM1436 510q7 141 -70 223t-205 82q-127 0 -207 -83.5t-88 -221.5h570
zM459 88q132 0 198 77.5t66 209.5v37q-39 29 -106.5 47t-141.5 18q-114 0 -176.5 -50t-62.5 -142q0 -91 61 -144t162 -53z" />
    <glyph glyph-name="Oslashacute" unicode="&#x1fe;" horiz-adv-x="1536" 
d="M649 1464l238 330h190l-284 -330h-144zM115 -61l174 233q-174 189 -174 492q0 195 76 348.5t226.5 244.5t354.5 91q192 0 334 -82l106 141h154l-158 -211q104 -92 158.5 -227.5t54.5 -296.5q0 -146 -43.5 -271.5t-125 -219.5t-206.5 -147.5t-280 -53.5q-225 0 -381 112
l-115 -153h-155zM383 301l635 844q-105 65 -250 65q-222 0 -362 -152t-140 -390q0 -218 117 -367zM770 119q227 0 363.5 154t136.5 397q0 124 -40 228t-112 173l-643 -856q117 -96 295 -96z" />
    <glyph glyph-name="oslashacute" unicode="&#x1ff;" horiz-adv-x="1130" 
d="M418 1065l235 330h191l-285 -330h-141zM127 -61l111 153q-72 63 -111 157t-39 208q0 210 129.5 344.5t349.5 134.5q129 0 238 -53l72 96h127l-109 -152q147 -128 147 -360q0 -219 -132 -352t-347 -133q-138 0 -239 55l-72 -98h-125zM322 213l405 557q-65 41 -162 41
q-150 0 -238.5 -99.5t-88.5 -254.5q0 -154 84 -244zM563 106q146 0 238 97.5t92 259.5q0 150 -84 244l-408 -557q65 -44 162 -44z" />
    <glyph glyph-name="Scommaaccent" unicode="&#x218;" horiz-adv-x="1007" 
d="M299 997q0 -50 20.5 -90t56 -67t81 -50t95.5 -44t100 -43.5t95.5 -54t81 -70t56 -96.5t20.5 -130q0 -187 -112 -279.5t-312 -92.5q-196 0 -346 79v156q66 -43 155.5 -72.5t186.5 -29.5q130 0 203.5 56t73.5 173q0 67 -33.5 116.5t-87 81.5t-118.5 59.5t-129.5 59
t-118 71.5t-87 106t-33.5 153q0 166 106.5 262.5t293.5 96.5q92 0 175.5 -22t129.5 -48v-154q-146 93 -297 93q-116 0 -186 -57.5t-70 -162.5zM473 -133q43 0 74 -30t31 -85q0 -97 -95 -176h-94q75 69 88 127q-40 -6 -67 15.5t-27 62.5q0 39 25.5 62.5t64.5 23.5z" />
    <glyph glyph-name="scommaaccent" unicode="&#x219;" horiz-adv-x="772" 
d="M258 696q0 -43 23.5 -73t61 -48t82.5 -34t90 -36.5t82.5 -49t61 -78.5t23.5 -119q0 -138 -88.5 -207t-233.5 -69q-78 0 -146.5 16.5t-102.5 36.5v127q110 -66 241 -66q90 0 141.5 38.5t51.5 113.5q0 48 -23.5 82.5t-60.5 54.5t-82 36t-90 35.5t-82 46t-60.5 73.5
t-23.5 112q0 123 77.5 185.5t213.5 62.5q68 0 125 -14.5t84 -30.5v-125q-92 55 -203 55q-83 0 -122.5 -34.5t-39.5 -90.5zM365 -133q43 0 73.5 -30t30.5 -85q0 -98 -94 -176h-94q75 69 88 127q-40 -6 -67.5 15.5t-27.5 62.5q0 39 26 62.5t65 23.5z" />
    <glyph glyph-name="uni021A" unicode="&#x21a;" horiz-adv-x="1112" 
d="M82 1327h948v-127h-399v-1200h-150v1200h-399v127zM551 -133q43 0 73.5 -30t30.5 -85q0 -98 -94 -176h-94q75 69 88 127q-40 -6 -67 15.5t-27 62.5q0 39 25.5 62.5t64.5 23.5z" />
    <glyph glyph-name="uni021B" unicode="&#x21b;" horiz-adv-x="743" 
d="M502 104q72 0 149 31v-123q-66 -30 -176 -30q-150 0 -211 75.5t-61 218.5v525h-142v18q72 55 149.5 152t117.5 180h18v-233h268v-117h-268v-500q0 -102 31.5 -149.5t124.5 -47.5zM426 -133q43 0 73.5 -30t30.5 -85q0 -98 -94 -176h-94q75 69 88 127q-40 -6 -67 15.5
t-27 62.5q0 39 25.5 62.5t64.5 23.5z" />
    <glyph glyph-name="uni0237" unicode="&#x237;" horiz-adv-x="473" 
d="M2 -424q-83 0 -162 27v125q73 -31 142 -31q60 0 100 20t60.5 59t28 83t7.5 106v836h-129v117h273v-945q0 -92 -15.5 -161t-50.5 -124t-99 -83.5t-155 -28.5z" />
    <glyph glyph-name="circumflex" unicode="&#x2c6;" horiz-adv-x="1028" 
d="M193 1065l337 348l340 -348h-159l-181 195l-178 -195h-159z" />
    <glyph glyph-name="caron" unicode="&#x2c7;" horiz-adv-x="1028" 
d="M530 1047l-337 348h159l178 -195l181 195h159z" />
    <glyph glyph-name="breve" unicode="&#x2d8;" horiz-adv-x="1028" 
d="M530 1047q-95 0 -161.5 24.5t-103.5 71t-53.5 104t-16.5 131.5v17h112q0 -118 53.5 -175t169.5 -57q117 0 170.5 57t53.5 175h112v-17q0 -331 -336 -331z" />
    <glyph glyph-name="dotaccent" unicode="&#x2d9;" horiz-adv-x="1071" 
d="M575 1155q-41 0 -67.5 26.5t-26.5 67.5t27 66.5t67 25.5q39 0 66 -26t27 -68q0 -40 -27 -66t-66 -26z" />
    <glyph glyph-name="ring" unicode="&#x2da;" horiz-adv-x="1048" 
d="M551 1044q-92 0 -153.5 60t-61.5 151t61.5 151t153.5 60q93 0 154 -60t61 -151t-61 -151t-154 -60zM551 1128q53 0 88 35t35 92q0 55 -35 91t-88 36t-88 -35t-35 -92t35 -92t88 -35z" />
    <glyph glyph-name="ogonek" unicode="&#x2db;" horiz-adv-x="1058" 
d="M672 -424q-90 0 -146.5 44.5t-56.5 137.5q0 101 70.5 176t183.5 103l90 -31q-113 -34 -174 -92.5t-61 -134.5q0 -111 112 -111q63 0 109 29v-96q-56 -25 -127 -25z" />
    <glyph glyph-name="tilde" unicode="&#x2dc;" horiz-adv-x="1026" 
d="M682 1116q-46 0 -91 19t-75 41.5t-66.5 41.5t-68.5 19q-39 0 -63 -23.5t-29.5 -45.5t-5.5 -42h-99q0 92 50 154.5t141 62.5q48 0 94 -18.5t76.5 -41.5t67 -41.5t65.5 -18.5q37 0 59.5 21t28.5 43t6 46h98q0 -89 -49 -153t-139 -64z" />
    <glyph glyph-name="hungarumlaut" unicode="&#x2dd;" horiz-adv-x="1015" 
d="M96 1065l266 330h191l-313 -330h-144zM477 1065l266 330h191l-313 -330h-144z" />
    <glyph glyph-name="gravecomb" unicode="&#x300;" horiz-adv-x="0" 
d="M-455 1065l-284 330h190l236 -330h-142z" />
    <glyph glyph-name="acutecomb" unicode="&#x301;" horiz-adv-x="0" 
d="M-739 1065l235 330h191l-285 -330h-141z" />
    <glyph glyph-name="uni0302" unicode="&#x302;" horiz-adv-x="0" 
d="M-854 1065l338 348l340 -348h-160l-180 195l-178 -195h-160z" />
    <glyph glyph-name="tildecomb" unicode="&#x303;" horiz-adv-x="0" 
d="M-360 1116q-46 0 -91.5 19t-75 41.5t-66.5 41.5t-69 19q-39 0 -63 -23.5t-29.5 -45.5t-5.5 -42h-98q0 92 49.5 154.5t140.5 62.5q48 0 94 -18.5t76.5 -41.5t67 -41.5t65.5 -18.5q28 0 48 11.5t29.5 30t13.5 35.5t4 33h98q0 -89 -49 -153t-139 -64z" />
    <glyph glyph-name="uni0304" unicode="&#x304;" horiz-adv-x="0" 
d="M-813 1178v118h588v-118h-588z" />
    <glyph glyph-name="uni0306" unicode="&#x306;" horiz-adv-x="0" 
d="M-514 1047q-95 0 -162 24.5t-104 71t-53.5 104t-16.5 131.5v17h113q0 -118 53.5 -175t169.5 -57q117 0 170 56.5t53 175.5h113v-17q0 -331 -336 -331z" />
    <glyph glyph-name="uni0307" unicode="&#x307;" horiz-adv-x="0" 
d="M-535 1155q-41 0 -67.5 26.5t-26.5 67.5t27 66.5t67 25.5q39 0 66 -26t27 -68q0 -40 -27 -66t-66 -26z" />
    <glyph glyph-name="uni0308" unicode="&#x308;" horiz-adv-x="0" 
d="M-711 1155q-40 0 -67 26.5t-27 67.5q0 40 27.5 66t66.5 26q41 0 68 -26t27 -68q0 -41 -27.5 -66.5t-67.5 -25.5zM-326 1155q-41 0 -67.5 26.5t-26.5 67.5q0 40 27.5 66t66.5 26q41 0 68 -26t27 -68q0 -40 -28 -66t-67 -26z" />
    <glyph glyph-name="uni030A" unicode="&#x30a;" horiz-adv-x="0" 
d="M-526 1044q-92 0 -153.5 60t-61.5 151t61.5 151t153.5 60q93 0 154 -60t61 -151t-61 -151t-154 -60zM-526 1128q54 0 88.5 35t34.5 92q0 55 -35 91t-88 36q-54 0 -88.5 -35t-34.5 -92t34.5 -92t88.5 -35z" />
    <glyph glyph-name="uni030B" unicode="&#x30b;" horiz-adv-x="0" 
d="M-926 1065l267 330h190l-313 -330h-144zM-545 1065l266 330h191l-313 -330h-144z" />
    <glyph glyph-name="uni030C" unicode="&#x30c;" horiz-adv-x="0" 
d="M-516 1047l-338 348h160l178 -195l180 195h160z" />
    <glyph glyph-name="uni0315" unicode="&#x315;" horiz-adv-x="0" 
d="M-532 1348q44 0 74 -29.5t30 -87.5q0 -53 -31 -103t-78 -84h-90q90 83 99 140q-40 -5 -67.5 17.5t-27.5 60.5q0 39 26 62.5t65 23.5z" />
    <glyph glyph-name="uni0326" unicode="&#x326;" horiz-adv-x="0" 
d="M-522 -133q43 0 73.5 -30t30.5 -85q0 -98 -94 -176h-94q75 69 88 127q-40 -6 -67 15.5t-27 62.5q0 39 25.5 62.5t64.5 23.5z" />
    <glyph glyph-name="uni0327" unicode="&#x327;" horiz-adv-x="0" 
d="M-578 -424q-81 0 -137 25v90q65 -31 125 -31q113 0 113 92q0 46 -24.5 69t-67.5 23q-56 0 -97 -41l-20 13l65 221h97l-41 -131q17 10 43 10q69 -2 112 -41t43 -123q0 -91 -58.5 -133.5t-152.5 -42.5z" />
    <glyph glyph-name="uni0328" unicode="&#x328;" horiz-adv-x="0" 
d="M-426 -424q-90 0 -146.5 44.5t-56.5 137.5q0 101 70.5 176t183.5 103l90 -31q-113 -34 -174 -92.5t-61 -134.5q0 -111 112 -111q63 0 109 29v-96q-56 -25 -127 -25z" />
    <glyph glyph-name="uni0374" unicode="&#x374;" horiz-adv-x="368" 
d="M37 844l156 483h155l-205 -483h-106z" />
    <glyph glyph-name="uni0375" unicode="&#x375;" horiz-adv-x="368" 
d="M12 -285l156 484h156l-205 -484h-107z" />
    <glyph glyph-name="uni037E" unicode="&#x37e;" horiz-adv-x="487" 
d="M250 610q-44 0 -72 29t-28 74q0 42 29 71t71 29q43 0 70.5 -29t27.5 -73t-27.5 -72.5t-70.5 -28.5zM233 184q55 0 88 -38.5t33 -110.5t-39.5 -149t-101.5 -124h-96q50 50 80.5 113t33.5 109q-45 -4 -75.5 23.5t-30.5 72.5q0 47 30.5 75.5t77.5 28.5z" />
    <glyph glyph-name="tonos" unicode="&#x384;" horiz-adv-x="1060" 
d="M328 1075l137 320h172l-172 -320h-137z" />
    <glyph glyph-name="dieresistonos" unicode="&#x385;" horiz-adv-x="1228" 
d="M428 1075l78 320h158l-119 -320h-117zM250 1075q-41 0 -67.5 26.5t-26.5 67.5q0 40 27.5 66.5t66.5 26.5q40 0 67 -26.5t27 -68.5q0 -40 -27.5 -66t-66.5 -26zM784 1075q-40 0 -67 26.5t-27 67.5q0 40 27.5 66.5t66.5 26.5q40 0 67.5 -26.5t27.5 -68.5q0 -41 -27.5 -66.5
t-67.5 -25.5z" />
    <glyph glyph-name="Alphatonos" unicode="&#x386;" horiz-adv-x="1273" 
d="M2 0l600 1348h21l600 -1348h-162l-125 291h-651l-127 -291h-156zM61 997l142 330h162l-181 -330h-123zM336 418h549l-273 637z" />
    <glyph glyph-name="anoteleia" unicode="&#x387;" horiz-adv-x="501" 
d="M252 373q-44 0 -72 29t-28 73q0 42 29 71t71 29q43 0 70.5 -29t27.5 -73q0 -43 -27.5 -71.5t-70.5 -28.5z" />
    <glyph glyph-name="Epsilontonos" unicode="&#x388;" horiz-adv-x="1290" 
d="M0 997l141 330h162l-180 -330h-123zM436 0v1327h766v-127h-616v-461h456v-125h-456v-485h641v-129h-791z" />
    <glyph glyph-name="Etatonos" unicode="&#x389;" horiz-adv-x="1683" 
d="M0 997l141 330h162l-180 -330h-123zM436 0v1327h150v-588h766v588h149v-1327h-149v610h-766v-610h-150z" />
    <glyph glyph-name="Iotatonos" unicode="&#x38a;" horiz-adv-x="768" 
d="M0 997l141 330h162l-180 -330h-123zM436 0v1327h150v-1327h-150z" />
    <glyph glyph-name="Omicrontonos" unicode="&#x38c;" horiz-adv-x="1673" 
d="M903 -20q-153 0 -277.5 53t-205.5 146t-124.5 217t-43.5 268q0 195 76 348.5t226.5 244.5t354.5 91q154 0 278 -52t205 -144t124 -214.5t43 -265.5q0 -146 -44 -271.5t-125.5 -219.5t-206.5 -147.5t-280 -53.5zM0 997l141 330h162l-180 -330h-123zM907 119
q227 0 363.5 154t136.5 397q0 237 -138 388.5t-364 151.5q-222 0 -362 -152t-140 -390q0 -156 61 -280t176.5 -196.5t266.5 -72.5z" />
    <glyph glyph-name="Upsilontonos" unicode="&#x38e;" horiz-adv-x="1542" 
d="M0 997l141 330h162l-180 -330h-123zM864 0v526l-469 801h164l383 -670l387 670h160l-475 -801v-526h-150z" />
    <glyph glyph-name="Omegatonos" unicode="&#x38f;" horiz-adv-x="1742" 
d="M1593 670q0 -187 -82 -328t-225 -213h307v-129h-542v127q175 52 283 193t108 350q0 237 -139.5 388.5t-362.5 151.5q-222 0 -362 -151.5t-140 -388.5q0 -209 108 -350t283 -193v-127h-544v129h305q-142 74 -223.5 213t-81.5 324q0 194 76.5 347.5t227 244t353.5 90.5
q152 0 276.5 -52.5t205.5 -144t125 -215t44 -266.5zM141 1327h162l-180 -330h-123z" />
    <glyph glyph-name="iotadieresistonos" unicode="&#x390;" horiz-adv-x="473" 
d="M156 1075l77 320h158l-119 -320h-116zM-23 1075q-41 0 -67.5 26.5t-26.5 67.5q0 40 27.5 66.5t66.5 26.5q40 0 67.5 -26.5t27.5 -68.5q0 -40 -28 -66t-67 -26zM512 1075q-40 0 -67 26.5t-27 67.5q0 40 27.5 66.5t66.5 26.5q40 0 67 -26.5t27 -68.5q0 -41 -27 -66.5
t-67 -25.5zM178 0v801h-129v117h273v-918h-144z" />
    <glyph glyph-name="Alpha" unicode="&#x391;" horiz-adv-x="1325" 
d="M53 0l600 1348h21l600 -1348h-162l-125 291h-651l-127 -291h-156zM387 418h549l-272 637z" />
    <glyph glyph-name="Beta" unicode="&#x392;" horiz-adv-x="1206" 
d="M838 698q54 -9 99.5 -31t84.5 -60t61.5 -99t22.5 -139q0 -369 -490 -369h-434v1327h324q62 0 112 -3t105 -12.5t97 -25t82 -42t65.5 -62.5t41 -88t15.5 -117q0 -81 -29 -142t-68.5 -91.5t-88.5 -45.5zM872 971q0 62 -22.5 106t-55 67.5t-85 37t-97.5 17t-108 3.5h-172
v-465h182q50 0 86 2.5t81 9.5t76 23t59 41t42 65t14 93zM614 129q340 0 340 246q0 129 -86.5 184t-242.5 55h-293v-485h282z" />
    <glyph glyph-name="Gamma" unicode="&#x393;" horiz-adv-x="989" 
d="M952 1327v-127h-620v-1200h-150v1327h770z" />
    <glyph glyph-name="uni0394" unicode="&#x394;" horiz-adv-x="1323" 
d="M674 1348l598 -1348h-1221l602 1348h21zM1055 129l-396 918l-395 -918h791z" />
    <glyph glyph-name="Epsilon" unicode="&#x395;" horiz-adv-x="1036" 
d="M182 0v1327h766v-127h-616v-461h456v-125h-456v-485h641v-129h-791z" />
    <glyph glyph-name="Zeta" unicode="&#x396;" horiz-adv-x="1208" 
d="M104 0v20l762 1180h-727v127h963v-20l-760 -1178h768v-129h-1006z" />
    <glyph glyph-name="Eta" unicode="&#x397;" horiz-adv-x="1429" 
d="M182 0v1327h150v-588h766v588h149v-1327h-149v610h-766v-610h-150z" />
    <glyph glyph-name="Theta" unicode="&#x398;" horiz-adv-x="1536" 
d="M766 -20q-153 0 -277.5 53t-205.5 146t-124.5 217t-43.5 268q0 195 76 348.5t226.5 244.5t354.5 91q154 0 278 -52t204.5 -144t123.5 -214.5t43 -265.5q0 -146 -43.5 -271.5t-125 -219.5t-206.5 -147.5t-280 -53.5zM770 119q227 0 363.5 154t136.5 397q0 237 -138 388.5
t-364 151.5q-222 0 -362 -152t-140 -390q0 -156 61 -280t176.5 -196.5t266.5 -72.5zM440 610v129h656v-129h-656z" />
    <glyph glyph-name="Iota" unicode="&#x399;" horiz-adv-x="514" 
d="M182 0v1327h150v-1327h-150z" />
    <glyph glyph-name="Kappa" unicode="&#x39a;" horiz-adv-x="1249" 
d="M182 0v1327h150v-641l659 641h199l-680 -651l696 -676h-205l-669 657v-657h-150z" />
    <glyph glyph-name="Lambda" unicode="&#x39b;" horiz-adv-x="1304" 
d="M1253 0h-161l-439 1049l-444 -1049h-156l590 1348h21z" />
    <glyph glyph-name="Mu" unicode="&#x39c;" horiz-adv-x="1718" 
d="M850 -20l-416 960l-172 -940h-151l262 1348h20l467 -1069l467 1069h21l260 -1348h-148l-174 938l-416 -958h-20z" />
    <glyph glyph-name="Nu" unicode="&#x39d;" horiz-adv-x="1449" 
d="M1247 -20l-919 1036v-1016h-146v1348h21l919 -1039v1018h146v-1347h-21z" />
    <glyph glyph-name="Xi" unicode="&#x39e;" horiz-adv-x="1099" 
d="M94 1200v127h912v-127h-912zM217 614v127h676v-127h-676zM84 0v129h932v-129h-932z" />
    <glyph glyph-name="Omicron" unicode="&#x39f;" horiz-adv-x="1536" 
d="M766 -20q-153 0 -277.5 53t-205.5 146t-124.5 217t-43.5 268q0 195 76 348.5t226.5 244.5t354.5 91q154 0 278 -52t204.5 -144t123.5 -214.5t43 -265.5q0 -146 -43.5 -271.5t-125 -219.5t-206.5 -147.5t-280 -53.5zM770 119q227 0 363.5 154t136.5 397q0 237 -138 388.5
t-364 151.5q-222 0 -362 -152t-140 -390q0 -156 61 -280t176.5 -196.5t266.5 -72.5z" />
    <glyph glyph-name="Pi" unicode="&#x3a0;" horiz-adv-x="1404" 
d="M182 1327h1041v-1327h-150v1200h-741v-1200h-150v1327z" />
    <glyph glyph-name="Rho" unicode="&#x3a1;" horiz-adv-x="1187" 
d="M573 1327q92 0 165 -10t144 -37.5t118 -73t75.5 -121.5t28.5 -178q0 -77 -17.5 -139.5t-46 -106t-71.5 -76t-88.5 -52t-102 -31t-107 -15.5t-108.5 -4h-231v-483h-150v1327h391zM555 610q68 0 123.5 7.5t108 28t87.5 53t56.5 85.5t21.5 123q0 88 -30.5 147.5t-88 90
t-123.5 43t-155 12.5h-223v-590h223z" />
    <glyph glyph-name="Sigma" unicode="&#x3a3;" horiz-adv-x="1153" 
d="M365 129h706v-129h-969v20l494 652l-487 635v20h942v-127h-684l409 -530z" />
    <glyph glyph-name="Tau" unicode="&#x3a4;" horiz-adv-x="1112" 
d="M481 0v1200h-399v127h948v-127h-399v-1200h-150z" />
    <glyph glyph-name="Upsilon" unicode="&#x3a5;" horiz-adv-x="1200" 
d="M522 0v526l-469 801h164l383 -670l387 670h160l-475 -801v-526h-150z" />
    <glyph glyph-name="Phi" unicode="&#x3a6;" horiz-adv-x="1632" 
d="M1518 664q0 -274 -172.5 -439.5t-456.5 -179.5v-123h-146v123q-285 12 -456.5 178.5t-171.5 440.5t172 439t456 179v123h146v-123q286 -12 457.5 -178t171.5 -440zM266 668q0 -218 131 -349.5t348 -140.5v971q-210 -9 -344.5 -137t-134.5 -344zM887 178q210 9 344.5 137
t134.5 344q0 219 -131 350t-348 140v-971z" />
    <glyph glyph-name="Chi" unicode="&#x3a7;" horiz-adv-x="1204" 
d="M51 0l459 678l-438 649h178l352 -541l359 541h174l-441 -647l459 -680h-178l-373 571l-377 -571h-174z" />
    <glyph glyph-name="Psi" unicode="&#x3a8;" horiz-adv-x="1658" 
d="M1346 1327h149v-268q0 -287 -144 -435.5t-448 -154.5v-469h-149v469q-590 11 -590 590v268h149v-264q0 -230 106.5 -343.5t334.5 -117.5v725h149v-725q227 3 335 112.5t108 340.5v272z" />
    <glyph glyph-name="uni03A9" unicode="&#x3a9;" horiz-adv-x="1605" 
d="M1456 670q0 -187 -82 -328t-225 -213h307v-129h-543v127q175 52 283.5 193t108.5 350q0 237 -139.5 388.5t-362.5 151.5q-222 0 -362 -151.5t-140 -388.5q0 -209 108 -350t283 -193v-127h-545v129h306q-142 74 -224 213t-82 324q0 145 45 269.5t127.5 216t207.5 144
t278 52.5q152 0 276.5 -52.5t205.5 -144t125 -215t44 -266.5z" />
    <glyph glyph-name="Iotadieresis" unicode="&#x3aa;" horiz-adv-x="514" 
d="M63 1518q-46 0 -76 30t-30 76t30 76.5t76 30.5t75.5 -30.5t29.5 -76.5t-29.5 -76t-75.5 -30zM449 1518q-46 0 -75.5 30t-29.5 76t29.5 76.5t75.5 30.5t76 -30.5t30 -76.5t-30 -76t-76 -30zM182 0v1327h150v-1327h-150z" />
    <glyph glyph-name="Upsilondieresis" unicode="&#x3ab;" horiz-adv-x="1200" 
d="M406 1518q-46 0 -76.5 30t-30.5 76t30.5 76.5t76.5 30.5q45 0 74.5 -30.5t29.5 -76.5t-29 -76t-75 -30zM791 1518q-46 0 -75.5 30t-29.5 76t29.5 76.5t75.5 30.5t76 -30.5t30 -76.5t-30 -76t-76 -30zM522 0v526l-469 801h164l383 -670l387 670h160l-475 -801v-526h-150z
" />
    <glyph glyph-name="alphatonos" unicode="&#x3ac;" horiz-adv-x="1179" 
d="M809 1395l-172 -320h-137l137 320h172zM897 918h131v-918h-133l-2 166q-43 -80 -134 -132t-220 -52q-93 0 -174 30.5t-143.5 88t-98 149t-35.5 205.5q0 220 126.5 350.5t328.5 130.5q125 0 215 -49t135 -125zM559 106q48 0 93 11t88 37.5t74.5 66t51 102t19.5 140.5
q0 173 -90.5 260.5t-229.5 87.5q-141 0 -234 -91t-93 -261q0 -168 89 -260.5t232 -92.5z" />
    <glyph glyph-name="epsilontonos" unicode="&#x3ad;" horiz-adv-x="901" 
d="M692 1395l-172 -320h-137l137 320h172zM510 96q88 0 164.5 25t120.5 61v-133q-42 -26 -128 -46.5t-194 -20.5q-76 0 -137.5 13.5t-112 42t-78.5 79.5t-28 121q0 82 51 147t141 86q-79 24 -125.5 79t-46.5 136q0 53 20 95.5t53 70.5t78.5 47t95 27.5t103.5 9.5
q91 0 170.5 -23t120.5 -47v-129q-47 33 -123.5 58.5t-158.5 25.5q-95 0 -152 -36t-57 -107q0 -78 65.5 -116t173.5 -38h97v-110h-97q-134 0 -197 -40t-63 -120q0 -44 20.5 -76t56 -49.5t77 -25t90.5 -7.5z" />
    <glyph glyph-name="etatonos" unicode="&#x3ae;" horiz-adv-x="1093" 
d="M768 1395l-172 -320h-137l137 320h172zM604 936q181 0 266.5 -99.5t85.5 -299.5v-943h-143v910q0 72 -9.5 123t-35 95.5t-74.5 66.5t-123 22q-276 0 -276 -369v-442h-143v918h131l2 -142q40 77 122 118.5t197 41.5z" />
    <glyph glyph-name="iotatonos" unicode="&#x3af;" horiz-adv-x="473" 
d="M158 1075l137 320h172l-172 -320h-137zM178 0v801h-129v117h273v-918h-144z" />
    <glyph glyph-name="upsilondieresistonos" unicode="&#x3b0;" horiz-adv-x="1038" 
d="M428 1075l78 320h158l-119 -320h-117zM250 1075q-41 0 -67.5 26.5t-26.5 67.5q0 40 27.5 66.5t66.5 26.5q40 0 67 -26.5t27 -68.5q0 -40 -27.5 -66t-66.5 -26zM784 1075q-40 0 -67 26.5t-27 67.5q0 40 27.5 66.5t66.5 26.5q40 0 67.5 -26.5t27.5 -68.5q0 -41 -27.5 -66.5
t-67.5 -25.5zM520 -18q-89 0 -157.5 23.5t-110.5 61.5t-68.5 92.5t-36.5 111t-10 122.5v525h144v-521q0 -293 241 -293q240 0 240 293v521h139v-525q0 -64 -9.5 -119.5t-36 -110.5t-68 -94t-110 -63t-157.5 -24z" />
    <glyph glyph-name="alpha" unicode="&#x3b1;" horiz-adv-x="1179" 
d="M897 918h131v-918h-133l-2 166q-43 -80 -134 -132t-220 -52q-93 0 -174 30.5t-143.5 88t-98 149t-35.5 205.5q0 220 126.5 350.5t328.5 130.5q125 0 215 -49t135 -125zM559 106q48 0 93 11t88 37.5t74.5 66t51 102t19.5 140.5q0 173 -90.5 260.5t-229.5 87.5
q-141 0 -234 -91t-93 -261q0 -168 89 -260.5t232 -92.5z" />
    <glyph glyph-name="beta" unicode="&#x3b2;" horiz-adv-x="1091" 
d="M739 715q50 -8 95 -29.5t88 -59.5t68.5 -103.5t25.5 -149.5q0 -101 -33 -178t-91 -122.5t-130.5 -68t-157.5 -22.5q-217 0 -309 141v-526h-143v1292q0 236 103.5 365.5t311.5 129.5q170 0 275.5 -90.5t105.5 -267.5q0 -113 -59 -197t-150 -114zM604 100q123 0 194.5 68
t71.5 201q0 80 -25.5 134.5t-75 84t-110 41.5t-143.5 12h-57v115h57q140 0 213.5 68t73.5 192t-66.5 187t-175.5 63q-125 0 -195.5 -87t-70.5 -253v-443q0 -197 78 -290t231 -93z" />
    <glyph glyph-name="gamma" unicode="&#x3b3;" horiz-adv-x="993" 
d="M954 918l-385 -830v-494h-143v498l-385 826h158l301 -695l301 695h153z" />
    <glyph glyph-name="delta" unicode="&#x3b4;" horiz-adv-x="1138" 
d="M717 891q165 -75 242 -183.5t77 -267.5q0 -205 -129.5 -331.5t-339.5 -126.5q-212 0 -338.5 126t-126.5 332q0 174 106 291.5t284 132.5l-43 21q-94 42 -145.5 98.5t-51.5 140.5q0 124 104 192t271 68q183 0 309 -69v-135q-130 80 -307 80q-61 0 -111 -12.5t-84.5 -42.5
t-34.5 -75q0 -59 43 -96t148 -84zM567 106q141 0 230.5 91t89.5 243q0 148 -89 234t-229 86q-146 0 -231.5 -90.5t-85.5 -229.5q0 -153 87.5 -243.5t227.5 -90.5z" />
    <glyph glyph-name="epsilon" unicode="&#x3b5;" horiz-adv-x="901" 
d="M510 96q88 0 164.5 25t120.5 61v-133q-42 -26 -128 -46.5t-194 -20.5q-76 0 -137.5 13.5t-112 42t-78.5 79.5t-28 121q0 82 51 147t141 86q-79 24 -125.5 79t-46.5 136q0 53 20 95.5t53 70.5t78.5 47t95 27.5t103.5 9.5q91 0 170.5 -23t120.5 -47v-129
q-47 33 -123.5 58.5t-158.5 25.5q-95 0 -152 -36t-57 -107q0 -78 65.5 -116t173.5 -38h97v-110h-97q-134 0 -197 -40t-63 -120q0 -44 20.5 -76t56 -49.5t77 -25t90.5 -7.5z" />
    <glyph glyph-name="zeta" unicode="&#x3b6;" horiz-adv-x="849" 
d="M809 1337l-213 -274q-172 -222 -253 -379.5t-81 -290.5q0 -68 15.5 -114.5t51.5 -77t79 -48.5t112 -36q158 -39 218.5 -81.5t60.5 -129.5q0 -84 -78 -195h-135q63 88 63 160q0 53 -42 79.5t-146 47.5q-172 35 -260 118t-88 253q0 158 86 323.5t264 386.5l131 162h-479
v117h694v-21z" />
    <glyph glyph-name="eta" unicode="&#x3b7;" horiz-adv-x="1093" 
d="M604 936q181 0 266.5 -99.5t85.5 -299.5v-943h-143v910q0 72 -9.5 123t-35 95.5t-74.5 66.5t-123 22q-276 0 -276 -369v-442h-143v918h131l2 -142q40 77 122 118.5t197 41.5z" />
    <glyph glyph-name="theta" unicode="&#x3b8;" horiz-adv-x="1193" 
d="M598 1384q108 0 192 -37t138 -100t89 -153.5t49.5 -190.5t14.5 -219q0 -150 -27.5 -274.5t-84 -221.5t-151.5 -151.5t-220 -54.5q-108 0 -192.5 36.5t-139 99t-89.5 153t-49.5 191.5t-14.5 222q0 147 27.5 270t84 221t152 153.5t221.5 55.5zM598 1260q-167 0 -249.5 -139
t-88.5 -382h674q-14 521 -336 521zM598 106q167 0 248.5 137t87.5 380h-674q4 -157 39 -269.5t111 -180t188 -67.5z" />
    <glyph glyph-name="iota" unicode="&#x3b9;" horiz-adv-x="473" 
d="M178 0v801h-129v117h273v-918h-144z" />
    <glyph glyph-name="kappa" unicode="&#x3ba;" horiz-adv-x="983" 
d="M954 0h-192l-457 457v-457h-143v918h143v-437l438 437h189l-461 -445z" />
    <glyph glyph-name="lambda" unicode="&#x3bb;" horiz-adv-x="1048" 
d="M997 106q30 0 52 11v-111q-36 -16 -99 -16q-77 0 -120 42t-76 128l-230 579l-309 -739h-154l396 911l-92 234q-23 59 -48 82.5t-63 23.5q-33 0 -53 -10v111q36 16 100 16q78 0 121 -42.5t76 -127.5l389 -985q23 -59 47.5 -83t62.5 -24z" />
    <glyph glyph-name="uni03BC" unicode="&#x3bc;" horiz-adv-x="1091" 
d="M797 918h143v-918h-131l-4 152q-39 -73 -115 -112.5t-170 -39.5q-75 0 -135 24t-92 68v-498h-141v1324h143v-490q0 -70 10.5 -123t36 -96.5t72 -66.5t114.5 -23q137 0 203 92t66 276v431z" />
    <glyph glyph-name="nu" unicode="&#x3bd;" horiz-adv-x="993" 
d="M489 -18l-448 936h158l301 -676l301 676h153l-444 -936h-21z" />
    <glyph glyph-name="xi" unicode="&#x3be;" horiz-adv-x="854" 
d="M565 1262q-121 0 -193 -56t-73 -170q-2 -126 74 -195t217 -69h92v-117h-102q-163 0 -245.5 -68t-82.5 -190q0 -127 70 -185.5t231 -96.5q152 -38 209 -80.5t57 -128.5q0 -84 -78 -195h-135q64 89 64 160q0 49 -38 75.5t-147 49.5q-93 19 -159 46t-119 71.5t-79 111
t-26 156.5q0 119 71 215.5t192 124.5q-102 31 -158.5 116t-56.5 187q0 175 112.5 267.5t288.5 92.5q141 0 268 -49v-139q-116 66 -254 66z" />
    <glyph glyph-name="omicron" unicode="&#x3bf;" horiz-adv-x="1130" 
d="M563 -18q-216 0 -345.5 131t-129.5 344q0 210 129.5 344.5t349.5 134.5q215 0 345 -125.5t130 -343.5q0 -219 -132 -352t-347 -133zM563 106q146 0 238 97.5t92 259.5q0 160 -92 254t-236 94q-150 0 -238.5 -99.5t-88.5 -254.5q0 -160 90.5 -255.5t234.5 -95.5z" />
    <glyph glyph-name="pi" unicode="&#x3c0;" horiz-adv-x="1208" 
d="M1122 918v-117h-139v-801h-143v801h-471v-801h-144v801h-139v117h1036z" />
    <glyph glyph-name="rho" unicode="&#x3c1;" horiz-adv-x="1150" 
d="M121 -406v803q0 260 125.5 399.5t345.5 139.5q218 0 344.5 -128t126.5 -343q0 -221 -126 -352t-329 -131q-117 0 -206.5 45.5t-137.5 119.5v-553h-143zM584 106q149 0 239 97t90 260q0 161 -90 254.5t-237 93.5q-154 0 -241 -100t-87 -252q0 -159 89.5 -256t236.5 -97z
" />
    <glyph glyph-name="uni03C2" unicode="&#x3c2;" horiz-adv-x="909" 
d="M596 -289q63 88 63 160q0 45 -34 71.5t-127 47.5q-102 23 -175.5 58.5t-127.5 92t-80.5 138t-26.5 190.5q0 214 127.5 340.5t347.5 126.5q124 0 242 -49v-139q-102 63 -232 63q-155 0 -245 -89.5t-90 -246.5q0 -85 19.5 -146t61.5 -102t96.5 -67t135.5 -47
q145 -39 201.5 -81t56.5 -126t-78 -195h-135z" />
    <glyph glyph-name="sigma" unicode="&#x3c3;" horiz-adv-x="1142" 
d="M1092 918v-117h-236q79 -50 122.5 -144.5t43.5 -218.5q0 -204 -130 -330t-337 -126q-213 0 -340 129t-127 338t134 339t376 130h494zM555 106q141 0 230 94t89 251t-87.5 249.5t-227.5 92.5q-147 0 -234 -98t-87 -249q0 -155 88.5 -247.5t228.5 -92.5z" />
    <glyph glyph-name="tau" unicode="&#x3c4;" horiz-adv-x="839" 
d="M778 801h-286v-582q0 -61 18.5 -88t67.5 -27q37 0 59 11v-111q-32 -16 -94 -16q-60 0 -100 16.5t-60 49t-27.5 70t-7.5 89.5v588h-287v117h717v-117z" />
    <glyph glyph-name="upsilon" unicode="&#x3c5;" horiz-adv-x="1038" 
d="M520 -18q-89 0 -157.5 23.5t-110.5 61.5t-68.5 92.5t-36.5 111t-10 122.5v525h144v-521q0 -293 241 -293q240 0 240 293v521h139v-525q0 -64 -9.5 -119.5t-36 -110.5t-68 -94t-110 -63t-157.5 -24z" />
    <glyph glyph-name="phi" unicode="&#x3c6;" horiz-adv-x="1325" 
d="M1237 467q0 -211 -141 -344t-365 -141v-388h-137v388q-227 6 -366.5 137.5t-139.5 337.5q0 133 61.5 239.5t177 170.5t267.5 69v422h137v-422q227 -6 366.5 -131.5t139.5 -337.5zM233 457q0 -155 103.5 -253.5t257.5 -101.5v713q-158 -3 -259.5 -105.5t-101.5 -252.5z
M729 102q155 5 259 104t104 257q0 155 -104.5 251t-258.5 101v-713z" />
    <glyph glyph-name="chi" unicode="&#x3c7;" horiz-adv-x="1044" 
d="M956 -303q25 0 45 12v-112q-40 -17 -81 -17t-71.5 11.5t-55 38t-39.5 50.5t-37 68l-193 377l-288 -531h-173l392 666l-230 451q-31 61 -54.5 82.5t-59.5 21.5q-30 0 -50 -10v110q42 17 91 17q33 0 59 -8t43.5 -19.5t36.5 -36.5t30.5 -45.5t32.5 -60.5l191 -369l284 525
h170l-387 -656l238 -463q31 -60 52 -81t54 -21z" />
    <glyph glyph-name="psi" unicode="&#x3c8;" horiz-adv-x="1349" 
d="M1069 918h143v-439q0 -87 -13.5 -158t-46.5 -135.5t-85 -108.5t-134.5 -69.5t-189.5 -25.5v-394h-137v394h-2q-132 0 -226 38t-145 108t-73.5 155.5t-22.5 195.5v439h144v-435q0 -189 75.5 -284t249.5 -95v814h137v-814q174 0 250 95t76 284v435z" />
    <glyph glyph-name="omega" unicode="&#x3c9;" horiz-adv-x="1445" 
d="M1200 918q69 -91 116.5 -229.5t47.5 -291.5q0 -190 -90.5 -302.5t-245.5 -112.5q-237 0 -305 237q-65 -237 -315 -237q-150 0 -238 112.5t-88 302.5q0 153 47.5 291.5t116.5 229.5h145q-70 -88 -115 -218.5t-45 -271.5t51 -231.5t158 -90.5q98 0 158.5 102t60.5 281v154
h127v-154q0 -179 62 -281t160 -102q72 0 119.5 46t67 115.5t19.5 160.5q0 141 -44.5 271.5t-114.5 218.5h145z" />
    <glyph glyph-name="iotadieresis" unicode="&#x3ca;" horiz-adv-x="520" 
d="M109 1075q-41 0 -68 26.5t-27 67.5t27.5 67t67.5 26q39 0 65.5 -26.5t26.5 -68.5q0 -41 -26.5 -66.5t-65.5 -25.5zM403 1075q-40 0 -67 26.5t-27 67.5q0 40 27.5 66.5t66.5 26.5q40 0 67.5 -26.5t27.5 -68.5q0 -40 -28 -66t-67 -26zM217 0v801h-129v117h272v-918h-143z
" />
    <glyph glyph-name="upsilondieresis" unicode="&#x3cb;" horiz-adv-x="1038" 
d="M326 1075q-40 0 -67.5 26.5t-27.5 67.5q0 40 28 66.5t67 26.5q40 0 67 -26.5t27 -68.5q0 -41 -27 -66.5t-67 -25.5zM711 1075q-41 0 -68 26.5t-27 67.5q0 40 28 66.5t67 26.5q40 0 67 -26.5t27 -68.5q0 -40 -27.5 -66t-66.5 -26zM520 -18q-89 0 -157.5 23.5t-110.5 61.5
t-68.5 92.5t-36.5 111t-10 122.5v525h144v-521q0 -293 241 -293q240 0 240 293v521h139v-525q0 -64 -9.5 -119.5t-36 -110.5t-68 -94t-110 -63t-157.5 -24z" />
    <glyph glyph-name="omicrontonos" unicode="&#x3cc;" horiz-adv-x="1130" 
d="M477 1075l137 320h172l-172 -320h-137zM563 -18q-216 0 -345.5 131t-129.5 344q0 210 129.5 344.5t349.5 134.5q215 0 345 -125.5t130 -343.5q0 -219 -132 -352t-347 -133zM563 106q146 0 238 97.5t92 259.5q0 160 -92 254t-236 94q-150 0 -238.5 -99.5t-88.5 -254.5
q0 -160 90.5 -255.5t234.5 -95.5z" />
    <glyph glyph-name="upsilontonos" unicode="&#x3cd;" horiz-adv-x="1038" 
d="M430 1075l137 320h172l-172 -320h-137zM520 -18q-89 0 -157.5 23.5t-110.5 61.5t-68.5 92.5t-36.5 111t-10 122.5v525h144v-521q0 -293 241 -293q240 0 240 293v521h139v-525q0 -64 -9.5 -119.5t-36 -110.5t-68 -94t-110 -63t-157.5 -24z" />
    <glyph glyph-name="omegatonos" unicode="&#x3ce;" horiz-adv-x="1445" 
d="M942 1395l-172 -320h-137l137 320h172zM1200 918q69 -91 116.5 -229.5t47.5 -291.5q0 -190 -90.5 -302.5t-245.5 -112.5q-237 0 -305 237q-65 -237 -315 -237q-150 0 -238 112.5t-88 302.5q0 153 47.5 291.5t116.5 229.5h145q-70 -88 -115 -218.5t-45 -271.5t51 -231.5
t158 -90.5q98 0 158.5 102t60.5 281v154h127v-154q0 -179 62 -281t160 -102q72 0 119.5 46t67 115.5t19.5 160.5q0 141 -44.5 271.5t-114.5 218.5h145z" />
    <glyph glyph-name="beta.ss02" unicode="&#x3d0;" horiz-adv-x="1069" 
d="M711 713q127 -23 198.5 -114.5t71.5 -225.5q0 -188 -120 -289.5t-308 -101.5q-214 0 -322 110.5t-108 351.5v437q0 251 101 377t317 126q178 0 275 -94t97 -268q0 -113 -55.5 -195.5t-146.5 -113.5zM532 1266q-266 0 -266 -353v-157h197q152 0 226.5 70t74.5 200
q0 116 -60.5 178t-171.5 62zM559 100q129 0 200.5 69t71.5 193q0 149 -80.5 214t-256.5 65h-228v-190q0 -178 76 -264.5t217 -86.5z" />
    <glyph glyph-name="theta.ss02" unicode="&#x3d1;" horiz-adv-x="1218" 
d="M655 1384q102 0 182.5 -34t134 -94.5t88.5 -148t50.5 -189.5t15.5 -224q0 -123 -16 -227t-52.5 -195t-92 -154.5t-138 -99.5t-186.5 -36q-213 0 -321.5 123t-108.5 337v39q0 61 -16.5 86t-65.5 25q-34 0 -57 -10v112q40 17 110 17q91 0 131.5 -51.5t40.5 -157.5v-33
q0 -174 74 -268.5t221 -94.5q90 0 154 41t101.5 120t55 183.5t17.5 241.5v47q-126 -80 -299 -80q-191 0 -305.5 98.5t-114.5 270.5q0 154 105.5 255t291.5 101zM397 1034q0 -121 83.5 -185.5t219.5 -62.5q158 3 275 74q-15 192 -98.5 296t-227.5 104q-111 0 -181.5 -60
t-70.5 -166z" />
    <glyph glyph-name="phi.ss02" unicode="&#x3d5;" horiz-adv-x="1314" 
d="M1227 467q0 -214 -139.5 -346.5t-366.5 -138.5v-390h-139v390q-124 2 -220.5 41t-157 107t-91.5 157.5t-31 197.5q0 127 45.5 242.5t110.5 190.5h145q-69 -79 -113.5 -192t-44.5 -234q0 -173 90 -278.5t267 -109.5v824h96q261 0 405 -121.5t144 -339.5zM721 104
q159 6 258.5 103t99.5 256q0 153 -98 244.5t-260 99.5v-703z" />
    <glyph glyph-name="uni0401" unicode="&#x401;" horiz-adv-x="1036" 
d="M375 1518q-46 0 -76.5 30t-30.5 76t30.5 76.5t76.5 30.5q45 0 74.5 -30.5t29.5 -76.5t-29 -76t-75 -30zM760 1518q-46 0 -75.5 30t-29.5 76t29.5 76.5t75.5 30.5t76 -30.5t30 -76.5t-30 -76t-76 -30zM182 0v1327h766v-127h-616v-461h456v-125h-456v-485h641v-129h-791z
" />
    <glyph glyph-name="uni0402" unicode="&#x402;" horiz-adv-x="1617" 
d="M1040 864q227 0 344 -111.5t117 -330.5q0 -100 -23.5 -179.5t-72 -140t-129 -93t-189.5 -32.5q-69 0 -126 17v133q43 -18 108 -18q78 0 135 24.5t88.5 68t45.5 96t14 116.5q0 315 -340 315q-193 0 -287 -95.5t-94 -295.5v-338h-150v1200h-399v127h1030v-127h-481v-502
q118 166 409 166z" />
    <glyph glyph-name="uni0403" unicode="&#x403;" horiz-adv-x="989" 
d="M915 1794l-284 -330h-144l238 330h190zM952 1327v-127h-620v-1200h-150v1327h770z" />
    <glyph glyph-name="uni0404" unicode="&#x404;" horiz-adv-x="1298" 
d="M788 119q112 0 211.5 31t167.5 79v-155q-49 -34 -156.5 -64t-236.5 -30q-155 0 -280.5 50.5t-208 141t-126.5 215.5t-44 275t44 275.5t126 217t206.5 142.5t278.5 51q123 0 225 -30t152 -67v-153q-162 112 -369 112q-222 0 -359.5 -130t-152.5 -345h623v-125h-623
q12 -227 155.5 -359t366.5 -132z" />
    <glyph glyph-name="uni0405" unicode="&#x405;" horiz-adv-x="1007" 
d="M481 -20q-196 0 -346 79v156q66 -43 155.5 -72.5t186.5 -29.5q130 0 203.5 56t73.5 173q0 67 -33.5 116.5t-87 81.5t-118.5 59.5t-129.5 59t-118 71.5t-87 106t-33.5 153q0 166 106.5 262.5t293.5 96.5q92 0 175.5 -22t129.5 -48v-154q-146 93 -297 93q-116 0 -186 -57.5
t-70 -162.5q0 -50 20.5 -90t56 -67t81 -50t95.5 -44t100 -43.5t95.5 -54t81 -70t56 -96.5t20.5 -130q0 -187 -112 -279.5t-312 -92.5z" />
    <glyph glyph-name="uni0406" unicode="&#x406;" horiz-adv-x="514" 
d="M182 0v1327h150v-1327h-150z" />
    <glyph glyph-name="uni0407" unicode="&#x407;" horiz-adv-x="514" 
d="M63 1518q-46 0 -76 30t-30 76t30 76.5t76 30.5t75.5 -30.5t29.5 -76.5t-29.5 -76t-75.5 -30zM449 1518q-46 0 -75.5 30t-29.5 76t29.5 76.5t75.5 30.5t76 -30.5t30 -76.5t-30 -76t-76 -30zM182 0v1327h150v-1327h-150z" />
    <glyph glyph-name="uni0408" unicode="&#x408;" horiz-adv-x="952" 
d="M377 -20q-164 0 -256 45v141q89 -51 233 -51q167 0 227 84.5t60 289.5v713h-346v125h496v-883q0 -238 -95 -351t-319 -113z" />
    <glyph glyph-name="uni0409" unicode="&#x409;" horiz-adv-x="2078" 
d="M1464 844q92 0 165.5 -10t144 -38t117.5 -73.5t75.5 -121.5t28.5 -177q0 -77 -17.5 -139.5t-46 -106t-71.5 -76t-88.5 -52t-102 -31t-107 -15.5t-108.5 -4h-381v1200h-575v-297q0 -120 -3 -211.5t-11.5 -191t-24 -171t-41.5 -139t-61.5 -109t-86.5 -66.5t-116 -25
t-103 20v137q28 -14 78 -14q65 0 110 56.5t69.5 167t35 248t10.5 323.5v399h869v-483h241zM1446 127q68 0 123.5 7.5t108 28t87.5 53t56.5 85.5t21.5 123q0 88 -30.5 147.5t-88 90t-123.5 43t-155 12.5h-223v-590h223z" />
    <glyph glyph-name="uni040A" unicode="&#x40a;" horiz-adv-x="2105" 
d="M1491 844q91 0 164.5 -10t144 -38t117.5 -73.5t75.5 -121.5t28.5 -177q0 -106 -33.5 -185t-85 -124t-127 -71.5t-144 -35t-152.5 -8.5h-381v610h-766v-610h-150v1327h150v-588h766v588h149v-483h244zM1470 127q68 0 123.5 7.5t108 28t88 53t57 85.5t21.5 123
q0 71 -21 123.5t-56 84.5t-87.5 51.5t-108 26.5t-125.5 7h-223v-590h223z" />
    <glyph glyph-name="uni040B" unicode="&#x40b;" horiz-adv-x="1624" 
d="M1036 864q451 0 451 -456v-408h-150v338q0 73 -9.5 130.5t-33.5 107t-63 82t-99 51t-139 18.5q-183 0 -272.5 -92.5t-89.5 -288.5v-346h-150v1200h-399v127h1030v-127h-481v-498q118 162 405 162z" />
    <glyph glyph-name="uni040C" unicode="&#x40c;" horiz-adv-x="1249" 
d="M545 1464l237 330h191l-285 -330h-143zM182 0v1327h150v-641l659 641h199l-680 -651l696 -676h-205l-669 657v-657h-150z" />
    <glyph glyph-name="uni040D" unicode="&#x40d;" horiz-adv-x="1427" 
d="M866 1464h-141l-285 330h191zM1225 1348h20v-1348h-147v1022l-895 -1042h-21v1347h148v-1024z" />
    <glyph glyph-name="uni040E" unicode="&#x40e;" horiz-adv-x="1196" 
d="M629 1425q-172 0 -255 90.5t-83 241.5v17h131q0 -117 54.5 -177.5t152.5 -60.5t152.5 60.5t54.5 177.5h131v-17q0 -151 -84 -241.5t-254 -90.5zM1020 1327h145l-637 -1327h-143l195 408l-539 919h166l446 -768z" />
    <glyph glyph-name="uni040F" unicode="&#x40f;" horiz-adv-x="1396" 
d="M1214 1327v-1327h-446v-289h-137v289h-449v1327h150v-1198h733v1198h149z" />
    <glyph glyph-name="uni0410" unicode="&#x410;" horiz-adv-x="1325" 
d="M53 0l600 1348h21l600 -1348h-162l-125 291h-651l-127 -291h-156zM387 418h549l-272 637z" />
    <glyph glyph-name="uni0411" unicode="&#x411;" horiz-adv-x="1185" 
d="M578 786q60 0 111 -4t106.5 -15t99 -29t84 -47.5t67 -69.5t42.5 -96.5t16 -125.5q0 -99 -32.5 -172.5t-83.5 -116t-125 -68t-143.5 -34t-152.5 -8.5h-385v1327h819v-127h-669v-414h246zM559 127q86 0 152.5 12.5t122.5 41.5t86 83.5t30 132.5q0 62 -20 108.5t-54 75
t-85.5 46t-106.5 24t-125 6.5h-227v-530h227z" />
    <glyph glyph-name="uni0412" unicode="&#x412;" horiz-adv-x="1206" 
d="M838 698q54 -9 99.5 -31t84.5 -60t61.5 -99t22.5 -139q0 -369 -490 -369h-434v1327h324q62 0 112 -3t105 -12.5t97 -25t82 -42t65.5 -62.5t41 -88t15.5 -117q0 -81 -29 -142t-68.5 -91.5t-88.5 -45.5zM872 971q0 62 -22.5 106t-55 67.5t-85 37t-97.5 17t-108 3.5h-172
v-465h182q50 0 86 2.5t81 9.5t76 23t59 41t42 65t14 93zM614 129q340 0 340 246q0 129 -86.5 184t-242.5 55h-293v-485h282z" />
    <glyph glyph-name="uni0413" unicode="&#x413;" horiz-adv-x="989" 
d="M952 1327v-127h-620v-1200h-150v1327h770z" />
    <glyph glyph-name="uni0414" unicode="&#x414;" horiz-adv-x="1480" 
d="M1225 129h164v-418h-138v291h-1063v-291h-137v418h19q65 0 109.5 34.5t82.5 108.5q107 204 107 740v315h856v-1198zM510 1032q0 -318 -36 -539t-136 -364h739v1071h-567v-168z" />
    <glyph glyph-name="uni0415" unicode="&#x415;" horiz-adv-x="1036" 
d="M182 0v1327h766v-127h-616v-461h456v-125h-456v-485h641v-129h-791z" />
    <glyph glyph-name="uni0416" unicode="&#x416;" horiz-adv-x="1908" 
d="M1868 0h-197l-643 659v-659h-147v659l-643 -659h-197l668 676l-650 651h183l639 -643v643h147v-643l639 643h182l-649 -651z" />
    <glyph glyph-name="uni0417" unicode="&#x417;" horiz-adv-x="1067" 
d="M725 698q107 -16 175.5 -97t68.5 -230q0 -391 -484 -391q-118 0 -215 24.5t-141 56.5v154q136 -100 352 -100q73 0 127.5 10.5t104 36.5t76 79t26.5 130q0 125 -68 183t-221 58h-176v125h90q80 0 137 10t103.5 36t70 74.5t23.5 121.5q0 69 -22.5 116t-66 72.5t-97.5 36
t-127 10.5q-100 0 -187 -29t-145 -73v154q45 32 141 57t207 25q76 0 139 -9.5t122.5 -34t100 -64.5t65 -104t24.5 -149q0 -120 -55.5 -193t-147.5 -96z" />
    <glyph glyph-name="uni0418" unicode="&#x418;" horiz-adv-x="1427" 
d="M1225 1348h20v-1348h-147v1022l-895 -1042h-21v1347h148v-1024z" />
    <glyph glyph-name="uni0419" unicode="&#x419;" horiz-adv-x="1427" 
d="M750 1425q-172 0 -255 90.5t-83 241.5v17h131q0 -117 54.5 -177.5t152.5 -60.5q97 0 151.5 60t54.5 178h131v-17q0 -151 -84 -241.5t-253 -90.5zM1225 1348h20v-1348h-147v1022l-895 -1042h-21v1347h148v-1024z" />
    <glyph glyph-name="uni041A" unicode="&#x41a;" horiz-adv-x="1249" 
d="M182 0v1327h150v-641l659 641h199l-680 -651l696 -676h-205l-669 657v-657h-150z" />
    <glyph glyph-name="uni041B" unicode="&#x41b;" horiz-adv-x="1404" 
d="M354 1327h869v-1327h-150v1200h-575v-297q0 -120 -3 -211.5t-11.5 -191t-24 -171t-41.5 -139t-61.5 -109t-86.5 -66.5t-116 -25t-103 20v137q28 -14 78 -14q65 0 110 56.5t69.5 167t35 248t10.5 323.5v399z" />
    <glyph glyph-name="uni041C" unicode="&#x41c;" horiz-adv-x="1718" 
d="M850 -20l-416 960l-172 -940h-151l262 1348h20l467 -1069l467 1069h21l260 -1348h-148l-174 938l-416 -958h-20z" />
    <glyph glyph-name="uni041D" unicode="&#x41d;" horiz-adv-x="1429" 
d="M182 0v1327h150v-588h766v588h149v-1327h-149v610h-766v-610h-150z" />
    <glyph glyph-name="uni041E" unicode="&#x41e;" horiz-adv-x="1536" 
d="M766 -20q-153 0 -277.5 53t-205.5 146t-124.5 217t-43.5 268q0 195 76 348.5t226.5 244.5t354.5 91q154 0 278 -52t204.5 -144t123.5 -214.5t43 -265.5q0 -146 -43.5 -271.5t-125 -219.5t-206.5 -147.5t-280 -53.5zM770 119q227 0 363.5 154t136.5 397q0 237 -138 388.5
t-364 151.5q-222 0 -362 -152t-140 -390q0 -156 61 -280t176.5 -196.5t266.5 -72.5z" />
    <glyph glyph-name="uni041F" unicode="&#x41f;" horiz-adv-x="1404" 
d="M182 1327h1041v-1327h-150v1200h-741v-1200h-150v1327z" />
    <glyph glyph-name="uni0420" unicode="&#x420;" horiz-adv-x="1187" 
d="M573 1327q92 0 165 -10t144 -37.5t118 -73t75.5 -121.5t28.5 -178q0 -77 -17.5 -139.5t-46 -106t-71.5 -76t-88.5 -52t-102 -31t-107 -15.5t-108.5 -4h-231v-483h-150v1327h391zM555 610q68 0 123.5 7.5t108 28t87.5 53t56.5 85.5t21.5 123q0 88 -30.5 147.5t-88 90
t-123.5 43t-155 12.5h-223v-590h223z" />
    <glyph glyph-name="uni0421" unicode="&#x421;" horiz-adv-x="1298" 
d="M774 -20q-155 0 -280.5 50.5t-208 141t-126.5 215.5t-44 275t44 275.5t126 217t206.5 142.5t278.5 51q123 0 225 -30t152 -67v-153q-162 112 -369 112q-237 0 -374.5 -147.5t-137.5 -396.5q0 -257 144.5 -402t377.5 -145q112 0 211.5 31t167.5 79v-155
q-49 -34 -156.5 -64t-236.5 -30z" />
    <glyph glyph-name="uni0422" unicode="&#x422;" horiz-adv-x="1112" 
d="M481 0v1200h-399v127h948v-127h-399v-1200h-150z" />
    <glyph glyph-name="uni0423" unicode="&#x423;" horiz-adv-x="1196" 
d="M1020 1327h145l-637 -1327h-143l195 408l-539 919h166l446 -768z" />
    <glyph glyph-name="uni0424" unicode="&#x424;" horiz-adv-x="1652" 
d="M1538 664q0 -255 -172 -407.5t-467 -164.5v-149h-145v149q-297 11 -468 163.5t-171 408.5q0 255 172 407t467 164v149h145v-149q296 -11 467.5 -163.5t171.5 -407.5zM266 668q0 -199 131 -317t359 -126v879q-221 -8 -355.5 -124t-134.5 -312zM897 223q221 8 355 124
t134 312q0 199 -130.5 317t-358.5 126v-879z" />
    <glyph glyph-name="uni0425" unicode="&#x425;" horiz-adv-x="1204" 
d="M51 0l459 678l-438 649h178l352 -541l359 541h174l-441 -647l459 -680h-178l-373 571l-377 -571h-174z" />
    <glyph glyph-name="uni0426" unicode="&#x426;" horiz-adv-x="1470" 
d="M1214 129h164v-418h-137v289h-1059v1327h150v-1198h733v1198h149v-1198z" />
    <glyph glyph-name="uni0427" unicode="&#x427;" horiz-adv-x="1329" 
d="M999 1327h150v-1327h-150v625q-119 -162 -381 -162q-246 0 -360.5 117t-114.5 356v391h150v-354q0 -188 81 -280.5t269 -92.5q181 0 268.5 92.5t87.5 280.5v354z" />
    <glyph glyph-name="uni0428" unicode="&#x428;" horiz-adv-x="1980" 
d="M1649 1327h149v-1327h-1616v1327h150v-1198h583v1198h150v-1198h584v1198z" />
    <glyph glyph-name="uni0429" unicode="&#x429;" horiz-adv-x="2054" 
d="M1798 129h164v-418h-137v289h-1643v1327h150v-1198h583v1198h150v-1198h584v1198h149v-1198z" />
    <glyph glyph-name="uni042A" unicode="&#x42a;" horiz-adv-x="1486" 
d="M872 844q92 0 165.5 -10t144 -38t117.5 -73.5t75.5 -121.5t28.5 -177q0 -77 -17.5 -139.5t-46 -106t-71.5 -76t-88.5 -52t-102 -31t-107 -15.5t-108.5 -4h-381v1200h-399v127h549v-483h241zM854 127q67 0 122.5 7.5t108 28t88 53t57 85.5t21.5 123q0 71 -21 123.5
t-56 84.5t-88 51.5t-108 26.5t-124 7h-223v-590h223z" />
    <glyph glyph-name="uni042B" unicode="&#x42b;" horiz-adv-x="1681" 
d="M573 844q92 0 165.5 -10t144 -38t117.5 -73.5t75.5 -121.5t28.5 -177q0 -77 -17.5 -139.5t-46 -106t-71.5 -76t-88.5 -52t-102 -31t-107 -15.5t-108.5 -4h-381v1327h150v-483h241zM1350 1327h149v-1327h-149v1327zM555 127q68 0 123.5 7.5t108 28t87.5 53t56.5 85.5
t21.5 123q0 88 -30.5 147.5t-88 90t-123.5 43t-155 12.5h-223v-590h223z" />
    <glyph glyph-name="uni042C" unicode="&#x42c;" horiz-adv-x="1187" 
d="M573 844q92 0 165.5 -10t144 -38t117.5 -73.5t75.5 -121.5t28.5 -177q0 -77 -17.5 -139.5t-46 -106t-71.5 -76t-88.5 -52t-102 -31t-107 -15.5t-108.5 -4h-381v1327h150v-483h241zM555 127q68 0 123.5 7.5t108 28t87.5 53t56.5 85.5t21.5 123q0 88 -30.5 147.5t-88 90
t-123.5 43t-155 12.5h-223v-590h223z" />
    <glyph glyph-name="uni042D" unicode="&#x42d;" horiz-adv-x="1298" 
d="M522 1348q207 0 358 -87.5t227.5 -241t76.5 -353.5t-76.5 -354.5t-226 -243t-353.5 -88.5q-130 0 -238 29.5t-161 66.5v153q178 -110 391 -110q224 0 362.5 136.5t149.5 354.5h-624v125h624q-17 220 -161.5 347.5t-362.5 127.5q-104 0 -198 -31.5t-160 -80.5v155
q50 35 150.5 65t221.5 30z" />
    <glyph glyph-name="uni042E" unicode="&#x42e;" horiz-adv-x="2068" 
d="M1307 1348q153 0 277 -52t204 -144t123 -214.5t43 -265.5q0 -146 -43.5 -271.5t-125 -219.5t-206.5 -147.5t-279 -53.5q-145 0 -264 48.5t-199.5 133.5t-127 199.5t-54.5 248.5h-323v-610h-150v1327h150v-588h325q15 177 94 313t222.5 216t333.5 80zM1305 119
q227 0 361 154t134 397q0 156 -60.5 278.5t-174 192t-262.5 69.5q-220 0 -358 -151.5t-138 -390.5q0 -156 59.5 -280t174 -196.5t264.5 -72.5z" />
    <glyph glyph-name="uni042F" unicode="&#x42f;" horiz-adv-x="1214" 
d="M643 1327h389v-1327h-149v506h-303l-334 -506h-178l352 524q-289 60 -289 379q0 98 25.5 172.5t69.5 122t110.5 77t140.5 41t166 11.5zM666 631h217v569h-213q-77 0 -133.5 -7t-106 -25.5t-80 -49.5t-48 -81t-17.5 -119q0 -157 91.5 -222t289.5 -65z" />
    <glyph glyph-name="uni0430" unicode="&#x430;" horiz-adv-x="1003" 
d="M492 936q374 0 374 -371v-565h-129l-2 129q-84 -147 -307 -147q-158 0 -249 82t-91 215q0 142 99.5 222.5t279.5 80.5q149 0 256 -60v35q0 126 -59.5 192t-196.5 66q-157 0 -291 -82v129q136 74 316 74zM459 88q132 0 198 77.5t66 209.5v37q-39 29 -106.5 47t-141.5 18
q-114 0 -176.5 -50t-62.5 -142q0 -91 61 -144t162 -53z" />
    <glyph glyph-name="uni0431" unicode="&#x431;" horiz-adv-x="1181" 
d="M641 907q200 0 321 -125.5t121 -332.5q0 -214 -130.5 -340.5t-350.5 -126.5q-234 0 -351.5 142t-117.5 451v39q0 218 36 357.5t120 216.5q82 77 178 109.5t276 52.5q223 21 261 36v-126q-42 -14 -259 -39q-157 -15 -224.5 -37.5t-133.5 -83.5q-113 -105 -113 -369v-20
q51 94 146.5 145t220.5 51zM604 104q149 0 239.5 94t90.5 251q0 153 -92 244t-234 91q-158 0 -246 -95t-88 -232q0 -155 91 -254t239 -99z" />
    <glyph glyph-name="uni0432" unicode="&#x432;" horiz-adv-x="976" 
d="M657 489q92 -15 151.5 -73.5t59.5 -157.5q0 -88 -51 -147t-135.5 -85t-198.5 -26h-321v918h268q84 0 149.5 -11.5t119 -37.5t82 -73t28.5 -114q0 -76 -43 -126.5t-109 -66.5zM664 672q0 78 -61.5 109.5t-176.5 31.5h-121v-291h129q230 0 230 150zM479 106q244 0 244 154
q0 75 -60 116.5t-182 41.5h-176v-312h174z" />
    <glyph glyph-name="uni0433" unicode="&#x433;" horiz-adv-x="790" 
d="M729 918v-117h-424v-801h-143v918h567z" />
    <glyph glyph-name="uni0434" unicode="&#x434;" horiz-adv-x="1157" 
d="M952 117h144v-365h-133v250h-779v-250h-133v365h27q46 0 76.5 22t58.5 74q72 133 72 473v232h667v-801zM414 803v-107q0 -424 -117 -579h514v686h-397z" />
    <glyph glyph-name="uni0435" unicode="&#x435;" horiz-adv-x="1044" 
d="M575 -18q-235 0 -361 122t-126 347q0 219 117.5 352t326.5 133q199 0 311.5 -119t112.5 -323q0 -58 -6 -88h-712q7 -151 98.5 -226.5t259.5 -75.5q178 0 319 80v-129q-46 -26 -138 -49.5t-202 -23.5zM238 510h571q6 142 -71 223.5t-206 81.5q-126 0 -206 -83.5
t-88 -221.5z" />
    <glyph glyph-name="uni0436" unicode="&#x436;" horiz-adv-x="1435" 
d="M1407 0h-188l-431 461v-461h-141v461l-430 -461h-188l452 471l-434 447h174l426 -441v441h141v-441l426 441h175l-435 -447z" />
    <glyph glyph-name="uni0437" unicode="&#x437;" horiz-adv-x="886" 
d="M580 489q200 -37 200 -237q0 -74 -29.5 -127.5t-82 -84t-117.5 -44.5t-145 -14q-97 0 -175 20.5t-114 46.5v131q47 -35 122 -59.5t162 -24.5q242 0 242 158q0 80 -61 119t-189 39h-100v108h78q94 0 162.5 37.5t68.5 116.5q0 147 -194 147q-76 0 -150 -25.5t-121 -58.5
v125q43 26 124 50t177 24q59 0 109.5 -11.5t94.5 -37.5t69.5 -74.5t25.5 -116.5q0 -81 -43 -135t-114 -72z" />
    <glyph glyph-name="uni0438" unicode="&#x438;" horiz-adv-x="1112" 
d="M930 936h20v-936h-139v647l-629 -665h-20v936h139v-658z" />
    <glyph glyph-name="uni0439" unicode="&#x439;" horiz-adv-x="1112" 
d="M563 1024q-156 0 -230.5 83t-74.5 218v23h125v-9q0 -105 47.5 -161t132.5 -56q87 0 133.5 56t46.5 161v9h125v-23q0 -135 -76 -218t-229 -83zM930 936h20v-936h-139v647l-629 -665h-20v936h139v-658z" />
    <glyph glyph-name="uni043A" unicode="&#x43a;" horiz-adv-x="983" 
d="M954 0h-192l-457 457v-457h-143v918h143v-437l438 437h189l-461 -445z" />
    <glyph glyph-name="uni043B" unicode="&#x43b;" horiz-adv-x="1132" 
d="M283 918h688v-918h-144v801h-407v-176q0 -118 -7 -209t-25.5 -174t-48.5 -137t-79 -85.5t-115 -31.5q-58 0 -90 16v127q28 -14 68 -14q46 0 78 37.5t49.5 111.5t25 166t7.5 217v269z" />
    <glyph glyph-name="uni043C" unicode="&#x43c;" horiz-adv-x="1409" 
d="M1317 0h-143l-154 604l-307 -622h-21l-303 624l-151 -606h-146l244 934h20l349 -698l350 698h20z" />
    <glyph glyph-name="uni043D" unicode="&#x43d;" horiz-adv-x="1136" 
d="M831 918h144v-918h-144v406h-526v-406h-143v918h143v-396h526v396z" />
    <glyph glyph-name="uni043E" unicode="&#x43e;" horiz-adv-x="1130" 
d="M563 -18q-216 0 -345.5 131t-129.5 344q0 210 129.5 344.5t349.5 134.5q215 0 345 -125.5t130 -343.5q0 -219 -132 -352t-347 -133zM563 106q146 0 238 97.5t92 259.5q0 160 -92 254t-236 94q-150 0 -238.5 -99.5t-88.5 -254.5q0 -160 90.5 -255.5t234.5 -95.5z" />
    <glyph glyph-name="uni043F" unicode="&#x43f;" horiz-adv-x="1112" 
d="M162 918h788v-918h-143v801h-502v-801h-143v918z" />
    <glyph glyph-name="uni0440" unicode="&#x440;" horiz-adv-x="1191" 
d="M162 -406v1324h131l4 -166q108 184 352 184q207 0 331 -128.5t124 -342.5q0 -221 -126 -352t-329 -131q-117 0 -206.5 45.5t-137.5 119.5v-553h-143zM625 106q149 0 239 97t90 260q0 161 -90 254.5t-237 93.5q-154 0 -241 -101t-87 -255q0 -158 89 -253.5t237 -95.5z" />
    <glyph glyph-name="uni0441" unicode="&#x441;" horiz-adv-x="909" 
d="M559 -18q-209 0 -340 123.5t-131 345.5q0 221 127.5 353t347.5 132q124 0 242 -49v-139q-102 63 -232 63q-154 0 -244.5 -94t-90.5 -258q0 -165 88 -259t247 -94q78 0 141 21.5t99 48.5v-137q-32 -22 -101 -39.5t-153 -17.5z" />
    <glyph glyph-name="uni0442" unicode="&#x442;" horiz-adv-x="847" 
d="M786 918v-117h-290v-801h-144v801h-291v117h725z" />
    <glyph glyph-name="uni0443" unicode="&#x443;" horiz-adv-x="995" 
d="M221 -406l201 451l-381 873h158l299 -713l303 713h155l-579 -1324h-156z" />
    <glyph glyph-name="uni0444" unicode="&#x444;" horiz-adv-x="1325" 
d="M1237 467q0 -211 -141 -344t-365 -141v-388h-137v388q-227 6 -366.5 137.5t-139.5 337.5q0 133 61.5 239.5t177 170.5t267.5 69v422h137v-422q227 -6 366.5 -131.5t139.5 -337.5zM233 457q0 -155 103.5 -253.5t257.5 -101.5v713q-158 -3 -259.5 -105.5t-101.5 -252.5z
M729 102q155 5 259 104t104 257q0 155 -104.5 251t-258.5 101v-713z" />
    <glyph glyph-name="uni0445" unicode="&#x445;" horiz-adv-x="1013" 
d="M43 0l377 457l-369 461h178l279 -367l283 367h172l-367 -461l375 -457h-176l-289 358l-291 -358h-172z" />
    <glyph glyph-name="uni0446" unicode="&#x446;" horiz-adv-x="1146" 
d="M942 117h143v-365h-131v248h-792v918h143v-801h494v801h143v-801z" />
    <glyph glyph-name="uni0447" unicode="&#x447;" horiz-adv-x="1067" 
d="M762 918h143v-918h-143v412q-82 -127 -297 -127q-352 0 -352 389v244h143v-213q0 -154 54 -225.5t188 -71.5q129 0 196.5 69t67.5 228v213z" />
    <glyph glyph-name="uni0448" unicode="&#x448;" horiz-adv-x="1560" 
d="M1255 918h144v-918h-1237v918h143v-801h404v801h143v-801h403v801z" />
    <glyph glyph-name="uni0449" unicode="&#x449;" horiz-adv-x="1603" 
d="M1399 117h143v-365h-131v248h-1249v918h143v-801h404v801h143v-801h403v801h144v-801z" />
    <glyph glyph-name="uni044A" unicode="&#x44a;" horiz-adv-x="1138" 
d="M647 606q71 0 127 -6.5t112 -26t92.5 -51.5t59.5 -86.5t23 -128.5q0 -79 -26.5 -137t-66.5 -90t-101 -50.5t-115.5 -24t-124.5 -5.5h-275v801h-291v117h435v-312h151zM633 113q63 0 110 8t88 28t62.5 59t21.5 97q0 47 -15 81t-39.5 54.5t-63 33t-79 16.5t-93.5 4h-129
v-381h137z" />
    <glyph glyph-name="uni044B" unicode="&#x44b;" horiz-adv-x="1349" 
d="M455 606q72 0 128 -6.5t112 -26t92.5 -51.5t59.5 -86.5t23 -128.5q0 -79 -26.5 -137t-66.5 -90t-101 -50.5t-115.5 -24t-124.5 -5.5h-274v918h143v-312h150zM1044 918h144v-918h-144v918zM442 113q63 0 109.5 8t87.5 28t62.5 59t21.5 97t-21 96.5t-63 58t-90 27t-115 7.5
h-129v-381h137z" />
    <glyph glyph-name="uni044C" unicode="&#x44c;" horiz-adv-x="946" 
d="M455 606q72 0 128 -6.5t112 -26t92.5 -51.5t59.5 -86.5t23 -128.5q0 -79 -26.5 -137t-66.5 -90t-101 -50.5t-115.5 -24t-124.5 -5.5h-274v918h143v-312h150zM442 113q63 0 109.5 8t87.5 28t62.5 59t21.5 97t-21 96.5t-63 58t-90 27t-115 7.5h-129v-381h137z" />
    <glyph glyph-name="uni044D" unicode="&#x44d;" horiz-adv-x="919" 
d="M358 936q137 0 242.5 -53t168 -160.5t62.5 -257.5q0 -221 -128 -352t-349 -131q-146 0 -248 49v139q108 -64 238 -64q145 0 236.5 80.5t103.5 221.5h-414v112h414q-15 136 -104 213.5t-234 77.5q-76 0 -137 -21t-94 -47v136q32 21 98 39t145 18z" />
    <glyph glyph-name="uni044E" unicode="&#x44e;" horiz-adv-x="1544" 
d="M983 936q215 0 344 -125t129 -344t-131 -352t-344 -133q-202 0 -329 116.5t-142 307.5h-205v-406h-143v918h143v-396h207q21 186 146 300t325 114zM981 106q143 0 234.5 97.5t91.5 259.5q0 160 -91.5 254t-234.5 94q-149 0 -236.5 -99.5t-87.5 -254.5q0 -160 90 -255.5
t234 -95.5z" />
    <glyph glyph-name="uni044F" unicode="&#x44f;" horiz-adv-x="978" 
d="M483 918h334v-918h-143v342h-178l-230 -342h-172l250 354q-106 18 -159.5 87.5t-53.5 181.5q0 156 95 225.5t257 69.5zM504 455h170v350h-166q-122 0 -178 -39.5t-56 -136.5q0 -91 56 -132.5t174 -41.5z" />
    <glyph glyph-name="uni0451" unicode="&#x451;" horiz-adv-x="1044" 
d="M324 1155q-40 0 -66.5 26.5t-26.5 67.5q0 40 27 66t66 26q40 0 67 -26t27 -68q0 -41 -27 -66.5t-67 -25.5zM741 1155q-41 0 -67.5 26.5t-26.5 67.5t27 66.5t67 25.5q39 0 66 -26t27 -68q0 -40 -27 -66t-66 -26zM575 -18q-235 0 -361 122t-126 347q0 219 117.5 352
t326.5 133q199 0 311.5 -119t112.5 -323q0 -58 -6 -88h-712q7 -151 98.5 -226.5t259.5 -75.5q178 0 319 80v-129q-46 -26 -138 -49.5t-202 -23.5zM238 510h571q6 142 -71 223.5t-206 81.5q-126 0 -206 -83.5t-88 -221.5z" />
    <glyph glyph-name="uni0452" unicode="&#x452;" horiz-adv-x="1163" 
d="M662 874q194 0 286 -99.5t92 -299.5q0 -213 -80.5 -398t-222.5 -325h-170q157 151 243.5 329.5t86.5 360.5q0 153 -58 230.5t-206 77.5q-281 0 -281 -369v-381h-143v1038h-219v113h219v207h143v-207h328v-113h-328v-311q88 147 310 147z" />
    <glyph glyph-name="uni0453" unicode="&#x453;" horiz-adv-x="790" 
d="M791 1395l-285 -330h-141l235 330h191zM729 918v-117h-424v-801h-143v918h567z" />
    <glyph glyph-name="uni0454" unicode="&#x454;" horiz-adv-x="919" 
d="M573 106q78 0 141 21.5t99 48.5v-137q-32 -22 -101 -39.5t-153 -17.5q-209 0 -340 123.5t-131 345.5q0 221 127.5 353t347.5 132q124 0 242 -49v-139q-102 63 -232 63q-145 0 -233.5 -76.5t-103.5 -214.5h413v-112h-413q11 -141 99.5 -221.5t237.5 -80.5z" />
    <glyph glyph-name="uni0455" unicode="&#x455;" horiz-adv-x="772" 
d="M360 -18q-78 0 -146.5 16.5t-102.5 36.5v127q110 -66 241 -66q90 0 141.5 38.5t51.5 113.5q0 48 -23.5 82.5t-60.5 54.5t-82 36t-90 35.5t-82 46t-60.5 73.5t-23.5 112q0 123 77.5 185.5t213.5 62.5q68 0 125 -14.5t84 -30.5v-125q-92 55 -203 55q-83 0 -122.5 -34.5
t-39.5 -90.5q0 -43 23.5 -73t61 -48t82.5 -34t90 -36.5t82.5 -49t61 -78.5t23.5 -119q0 -138 -88.5 -207t-233.5 -69z" />
    <glyph glyph-name="uni0456" unicode="&#x456;" horiz-adv-x="520" 
d="M289 1155q-41 0 -67.5 26.5t-26.5 67.5q0 40 27.5 66t66.5 26q40 0 66 -26t26 -68q0 -41 -26.5 -66.5t-65.5 -25.5zM217 0v801h-129v117h272v-918h-143z" />
    <glyph glyph-name="uni0457" unicode="&#x457;" horiz-adv-x="520" 
d="M109 1155q-41 0 -68 26.5t-27 67.5t27.5 66.5t67.5 25.5q39 0 65.5 -26t26.5 -68q0 -41 -26.5 -66.5t-65.5 -25.5zM403 1155q-40 0 -67 26.5t-27 67.5q0 40 27.5 66t66.5 26q41 0 68 -26t27 -68q0 -40 -28 -66t-67 -26zM217 0v801h-129v117h272v-918h-143z" />
    <glyph glyph-name="uni0458" unicode="&#x458;" horiz-adv-x="544" 
d="M315 1155q-41 0 -67.5 26.5t-26.5 67.5q0 40 27.5 66t66.5 26q40 0 66.5 -26t26.5 -68q0 -40 -27 -66t-66 -26zM68 -424q-83 0 -162 27v125q73 -31 141 -31q60 0 100.5 20t60.5 59t28 83t8 106v836h-129v117h272v-945q0 -92 -15 -161t-50 -124t-99 -83.5t-155 -28.5z" />
    <glyph glyph-name="uni0459" unicode="&#x459;" horiz-adv-x="1613" 
d="M1122 606q71 0 127 -6.5t112 -26t92.5 -51.5t59.5 -86.5t23 -128.5q0 -79 -26.5 -137t-66.5 -90t-101 -50.5t-115.5 -24t-124.5 -5.5h-275v801h-407v-176q0 -118 -7 -209t-25.5 -174t-48.5 -137t-79 -85.5t-115 -31.5q-58 0 -90 16v127q28 -14 68 -14q46 0 78 37.5
t49.5 111.5t25 166t7.5 217v269h688v-312h151zM1108 113q63 0 110 8t88.5 28t63 59t21.5 97t-21.5 96.5t-63.5 58t-90 27t-116 7.5h-129v-381h137z" />
    <glyph glyph-name="uni045A" unicode="&#x45a;" horiz-adv-x="1617" 
d="M1126 606q71 0 127 -6.5t112 -26t92.5 -51.5t59.5 -86.5t23 -128.5q0 -79 -26.5 -137t-66.5 -90t-101 -50.5t-115.5 -24t-124.5 -5.5h-275v406h-526v-406h-143v918h143v-396h526v396h144v-312h151zM1112 113q63 0 110 8t88.5 28t63 59t21.5 97t-21 96.5t-63 58t-90.5 27
t-116.5 7.5h-129v-381h137z" />
    <glyph glyph-name="uni045B" unicode="&#x45b;" horiz-adv-x="1153" 
d="M662 874q181 0 267.5 -99.5t86.5 -299.5v-475h-144v442q0 56 -5.5 99t-21.5 84t-42 67t-69 42t-101 16q-281 0 -281 -369v-381h-143v1038h-219v113h219v207h143v-207h328v-113h-328v-311q88 147 310 147z" />
    <glyph glyph-name="uni045C" unicode="&#x45c;" horiz-adv-x="983" 
d="M846 1395l-285 -330h-141l235 330h191zM954 0h-192l-457 457v-457h-143v918h143v-437l438 437h189l-461 -445z" />
    <glyph glyph-name="uni045D" unicode="&#x45d;" horiz-adv-x="1112" 
d="M680 1065h-141l-285 330h190zM930 936h20v-936h-139v647l-629 -665h-20v936h139v-658z" />
    <glyph glyph-name="uni045E" unicode="&#x45e;" horiz-adv-x="995" 
d="M496 1024q-156 0 -231 83t-75 218v23h125v-9q0 -105 47.5 -161t133.5 -56q87 0 133.5 56t46.5 161v9h125v-23q0 -135 -76 -218t-229 -83zM221 -406l201 451l-381 873h158l299 -713l303 713h155l-579 -1324h-156z" />
    <glyph glyph-name="uni045F" unicode="&#x45f;" horiz-adv-x="1103" 
d="M942 918v-918h-324v-248h-133v248h-323v918h143v-801h494v801h143z" />
    <glyph glyph-name="uni0490" unicode="&#x490;" horiz-adv-x="989" 
d="M952 1616v-416h-620v-1200h-150v1327h633v289h137z" />
    <glyph glyph-name="uni0491" unicode="&#x491;" horiz-adv-x="790" 
d="M729 1165v-364h-424v-801h-143v918h434v247h133z" />
    <glyph glyph-name="Wgrave" unicode="&#x1e80;" horiz-adv-x="1904" 
d="M930 1464l-285 330h191l235 -330h-141zM565 -18l-495 1345h163l347 -999l362 999h21l362 -999l350 999h160l-494 -1345h-20l-369 1009l-366 -1009h-21z" />
    <glyph glyph-name="wgrave" unicode="&#x1e81;" horiz-adv-x="1480" 
d="M694 1065l-284 330h190l236 -330h-142zM453 -18l-398 936h158l254 -646l270 646h21l262 -646l252 646h153l-389 -936h-20l-268 657l-275 -657h-20z" />
    <glyph glyph-name="Wacute" unicode="&#x1e82;" horiz-adv-x="1904" 
d="M895 1464l238 330h190l-285 -330h-143zM565 -18l-495 1345h163l347 -999l362 999h21l362 -999l350 999h160l-494 -1345h-20l-369 1009l-366 -1009h-21z" />
    <glyph glyph-name="wacute" unicode="&#x1e83;" horiz-adv-x="1480" 
d="M659 1065l236 330h190l-284 -330h-142zM453 -18l-398 936h158l254 -646l270 646h21l262 -646l252 646h153l-389 -936h-20l-268 657l-275 -657h-20z" />
    <glyph glyph-name="Wdieresis" unicode="&#x1e84;" horiz-adv-x="1904" 
d="M758 1518q-46 0 -76.5 30t-30.5 76t30.5 76.5t76.5 30.5q45 0 74.5 -30.5t29.5 -76.5t-29 -76t-75 -30zM1143 1518q-46 0 -75.5 30t-29.5 76t29.5 76.5t75.5 30.5t76 -30.5t30 -76.5t-30 -76t-76 -30zM565 -18l-495 1345h163l347 -999l362 999h21l362 -999l350 999h160
l-494 -1345h-20l-369 1009l-366 -1009h-21z" />
    <glyph glyph-name="wdieresis" unicode="&#x1e85;" horiz-adv-x="1480" 
d="M553 1155q-40 0 -67 26.5t-27 67.5q0 40 27.5 66t66.5 26q40 0 67 -26t27 -68q0 -41 -27 -66.5t-67 -25.5zM938 1155q-41 0 -67.5 26.5t-26.5 67.5q0 40 27.5 66t66.5 26q40 0 67 -26t27 -68q0 -40 -27.5 -66t-66.5 -26zM453 -18l-398 936h158l254 -646l270 646h21
l262 -646l252 646h153l-389 -936h-20l-268 657l-275 -657h-20z" />
    <glyph glyph-name="uni1E9E" unicode="&#x1e9e;" horiz-adv-x="1308" 
d="M823 807q74 2 142 -21t123.5 -70.5t88.5 -127.5t33 -182q0 -208 -121 -317t-335 -109q-124 0 -240 34v138q103 -41 229 -41q158 0 236 77t78 213q0 124 -74.5 206.5t-218.5 82.5q-123 0 -191 -47l-14 16l373 543h-600v-1202h-150v1327h965v-20l-352 -523q18 18 28 23z
" />
    <glyph glyph-name="Ygrave" unicode="&#x1ef2;" horiz-adv-x="1200" 
d="M637 1464l-285 330h191l235 -330h-141zM522 0v526l-469 801h164l383 -670l387 670h160l-475 -801v-526h-150z" />
    <glyph glyph-name="ygrave" unicode="&#x1ef3;" horiz-adv-x="995" 
d="M508 1065l-285 330h191l235 -330h-141zM221 -406l201 451l-381 873h158l299 -713l303 713h155l-579 -1324h-156z" />
    <glyph glyph-name="uni2002" unicode="&#x2002;" horiz-adv-x="962" 
 />
    <glyph glyph-name="uni2003" unicode="&#x2003;" horiz-adv-x="1609" 
 />
    <glyph glyph-name="uni2009" unicode="&#x2009;" horiz-adv-x="323" 
 />
    <glyph glyph-name="uni200A" unicode="&#x200a;" horiz-adv-x="102" 
 />
    <glyph glyph-name="endash" unicode="&#x2013;" horiz-adv-x="962" 
d="M88 438v121h786v-121h-786z" />
    <glyph glyph-name="emdash" unicode="&#x2014;" horiz-adv-x="1609" 
d="M88 438v121h1434v-121h-1434z" />
    <glyph glyph-name="quoteleft" unicode="&#x2018;" horiz-adv-x="497" 
d="M266 1106q47 3 76 -24t29 -72q0 -47 -30.5 -76t-78.5 -29q-54 0 -86.5 39t-32.5 111t39.5 148.5t100.5 123.5h98q-50 -50 -81 -112.5t-34 -108.5z" />
    <glyph glyph-name="quoteright" unicode="&#x2019;" horiz-adv-x="497" 
d="M236 1339q54 0 86 -38.5t32 -110.5t-39 -148.5t-100 -123.5h-98q50 50 80.5 112.5t33.5 108.5q-47 -3 -75.5 24t-28.5 72q0 47 30.5 75.5t78.5 28.5z" />
    <glyph glyph-name="quotesinglbase" unicode="&#x201a;" horiz-adv-x="497" 
d="M236 154q54 0 86 -39t32 -111t-39 -148.5t-100 -123.5h-98q50 50 80.5 112.5t33.5 108.5q-47 -3 -75.5 24t-28.5 72q0 47 30.5 76t78.5 29z" />
    <glyph glyph-name="quotedblleft" unicode="&#x201c;" horiz-adv-x="808" 
d="M283 1327h98q-50 -50 -81 -112.5t-34 -108.5q47 3 76 -24t29 -72q0 -47 -30.5 -76t-78.5 -29q-54 0 -86.5 39t-32.5 111t39.5 148.5t100.5 123.5zM575 1106q47 3 76 -24t29 -72q0 -47 -30.5 -76t-78.5 -29q-54 0 -86 39t-32 111t39 148.5t100 123.5h98
q-50 -50 -81 -112.5t-34 -108.5z" />
    <glyph glyph-name="quotedblright" unicode="&#x201d;" horiz-adv-x="808" 
d="M236 1339q54 0 86 -38.5t32 -110.5t-39 -148.5t-100 -123.5h-98q50 50 80.5 112.5t33.5 108.5q-47 -3 -75.5 24t-28.5 72q0 47 30.5 75.5t78.5 28.5zM547 1339q54 0 86.5 -38.5t32.5 -110.5t-39.5 -148.5t-100.5 -123.5h-98q50 50 81 112.5t34 108.5q-47 -3 -76 24
t-29 72q0 47 30.5 75.5t78.5 28.5z" />
    <glyph glyph-name="quotedblbase" unicode="&#x201e;" horiz-adv-x="808" 
d="M236 154q54 0 86 -39t32 -111t-39 -148.5t-100 -123.5h-98q50 50 80.5 112.5t33.5 108.5q-47 -3 -75.5 24t-28.5 72q0 47 30.5 76t78.5 29zM547 154q54 0 86.5 -39t32.5 -111t-39.5 -148.5t-100.5 -123.5h-98q50 50 81 112.5t34 108.5q-47 -3 -76 24t-29 72q0 47 30.5 76
t78.5 29z" />
    <glyph glyph-name="dagger" unicode="&#x2020;" horiz-adv-x="1202" 
d="M545 -414l-15 1215h-348v117h346l-4 409h156l-6 -409h346v-117h-348l-15 -1215h-112z" />
    <glyph glyph-name="daggerdbl" unicode="&#x2021;" horiz-adv-x="1202" 
d="M545 -414l-8 652h-334v116h334l-7 447h-348v117h346l-4 409h156l-6 -409h346v-117h-348l-6 -447h333v-116h-333l-9 -652h-112z" />
    <glyph glyph-name="bullet" unicode="&#x2022;" horiz-adv-x="921" 
d="M463 264q-92 0 -151.5 59.5t-59.5 151.5q0 88 62 147.5t149 59.5q89 0 148 -59t59 -150t-59 -150t-148 -59z" />
    <glyph glyph-name="ellipsis" unicode="&#x2026;" horiz-adv-x="1361" 
d="M252 -18q-44 0 -72 29t-28 73q0 42 29 71t71 29q43 0 70.5 -29t27.5 -73t-27.5 -72t-70.5 -28zM682 -18q-45 0 -72.5 28.5t-27.5 73.5q0 43 28.5 71.5t71.5 28.5q42 0 70 -29t28 -73t-28 -72t-70 -28zM1110 -18q-44 0 -71 28.5t-27 73.5q0 43 28.5 71.5t69.5 28.5
q43 0 70.5 -29t27.5 -73t-27.5 -72t-70.5 -28z" />
    <glyph glyph-name="perthousand" unicode="&#x2030;" horiz-adv-x="2457" 
d="M406 719q-136 0 -224 84.5t-88 228.5q0 145 90 230.5t222 85.5q134 0 223.5 -83t89.5 -231q0 -146 -88 -230.5t-225 -84.5zM399 0l738 1327h147l-737 -1327h-148zM406 823q88 0 144 56.5t56 154.5q0 101 -57 156t-143 55q-83 0 -141 -57.5t-58 -155.5q0 -97 56.5 -153
t142.5 -56zM1276 -20q-137 0 -225 84.5t-88 228.5q0 146 90.5 230.5t222.5 84.5q134 0 223.5 -82t89.5 -231q0 -146 -88 -230.5t-225 -84.5zM2050 -20q-136 0 -224.5 84.5t-88.5 228.5q0 146 90.5 230.5t222.5 84.5q134 0 223.5 -82t89.5 -231q0 -146 -88 -230.5t-225 -84.5
zM1276 84q87 0 143 56t56 155q0 101 -56.5 156t-142.5 55q-85 0 -142 -56.5t-57 -154.5t56.5 -154.5t142.5 -56.5zM2050 84q87 0 143 56t56 155q0 101 -56.5 156t-142.5 55q-85 0 -142 -56.5t-57 -154.5t56.5 -154.5t142.5 -56.5z" />
    <glyph glyph-name="guilsinglleft" unicode="&#x2039;" horiz-adv-x="694" 
d="M375 152l-287 321l287 322h168l-295 -322l295 -321h-168z" />
    <glyph glyph-name="guilsinglright" unicode="&#x203a;" horiz-adv-x="694" 
d="M152 152l292 321l-292 322h167l287 -322l-287 -321h-167z" />
    <glyph glyph-name="fraction" unicode="&#x2044;" horiz-adv-x="884" 
d="M0 0l737 1327h148l-738 -1327h-147z" />
    <glyph glyph-name="Euro" unicode="&#x20ac;" 
d="M809 -20q-258 0 -416.5 129t-197.5 364h-175v117h162q-4 32 -4 72q0 37 4 69h-162v117h177q40 228 195.5 364t418.5 136q110 0 198.5 -22t139.5 -52v-146q-139 86 -330 86q-195 0 -312.5 -97.5t-152.5 -268.5h467v-117h-483q-4 -20 -4 -65q0 -62 2 -76h485v-117h-471
q36 -176 162.5 -267t308.5 -91q197 0 346 82v-146q-50 -28 -149 -49.5t-209 -21.5z" />
    <glyph glyph-name="uni20B4" unicode="&#x20b4;" horiz-adv-x="1101" 
d="M979 752h-197q-36 -28 -80 -56t-99.5 -60.5t-82.5 -49.5h459v-111h-592q-53 -66 -53 -145q0 -109 73.5 -163t202.5 -54q97 0 186.5 29.5t155.5 72.5v-156q-154 -79 -368 -79q-181 0 -291.5 82t-110.5 245q0 91 41 168h-100v111h190q26 23 61.5 48t57 39t70 42.5
t61.5 36.5h-440v112h596q69 69 69 158q0 92 -68 143.5t-188 51.5q-160 0 -313 -93v154q51 27 139.5 48.5t192.5 21.5q191 0 290 -81.5t99 -224.5q0 -97 -51 -178h90v-112z" />
    <glyph glyph-name="uni20BD" unicode="&#x20bd;" horiz-adv-x="1298" 
d="M672 473h-232v-141h277v-127h-277v-205h-149v205h-174v127h174v141h-174v127h174v727h393q92 0 164.5 -10t143.5 -38t118 -74.5t75.5 -123t28.5 -178.5q0 -78 -17.5 -141.5t-46.5 -107.5t-72 -77.5t-88.5 -52.5t-102 -31t-107 -16t-108.5 -4zM1061 901q0 72 -21 125.5
t-55.5 86t-87 52.5t-107.5 27.5t-124 7.5h-226v-600h226q67 0 122.5 8t107.5 28.5t87.5 53.5t56.5 87t21 124z" />
    <glyph glyph-name="uni2113" unicode="&#x2113;" horiz-adv-x="446" 
d="M152 0v1358h143v-1358h-143z" />
    <glyph glyph-name="uni2116" unicode="&#x2116;" horiz-adv-x="2291" 
d="M1247 -20l-919 1036v-1016h-146v1348h21l919 -1039v1018h146v-1347h-21zM1870 649q-156 0 -244 94t-88 250t90 254.5t248 98.5q154 0 241 -92t87 -253t-90 -256.5t-244 -95.5zM1874 750q99 0 156 66.5t57 184.5t-57 182t-156 64q-105 0 -161 -68t-56 -182
q0 -118 57.5 -182.5t159.5 -64.5zM1589 436v101h563v-101h-563z" />
    <glyph glyph-name="trademark" unicode="&#x2122;" horiz-adv-x="1720" 
d="M1141 551l-232 514l-86 -502h-112l151 785h21l268 -588l272 588h21l151 -785h-116l-82 500l-236 -512h-20zM276 563v664h-223v100h563v-100h-223v-664h-117z" />
    <glyph glyph-name="uni2126" unicode="&#x2126;" horiz-adv-x="1605" 
d="M1456 670q0 -187 -82 -328t-225 -213h307v-129h-543v127q175 52 283.5 193t108.5 350q0 237 -139.5 388.5t-362.5 151.5q-222 0 -362 -151.5t-140 -388.5q0 -209 108 -350t283 -193v-127h-545v129h306q-142 74 -224 213t-82 324q0 145 45 269.5t127.5 216t207.5 144
t278 52.5q152 0 276.5 -52.5t205.5 -144t125 -215t44 -266.5z" />
    <glyph glyph-name="estimated" unicode="&#x212e;" horiz-adv-x="1818" 
d="M911 -20q-159 0 -304 55t-250.5 148t-167.5 222.5t-62 272.5t62 273t167.5 223.5t250.5 148.5t304 55q156 0 300 -55t249 -148.5t167.5 -223.5t62.5 -273v-16h-1264q-16 0 -16 -13v-383q0 -19 24 -43q91 -94 215.5 -147t263.5 -53q147 0 276.5 60.5t223.5 164.5h115
q-113 -124 -274 -196t-343 -72zM426 700h963q16 0 16 11v389q0 18 -27 45q-87 90 -209.5 141t-255.5 51q-139 0 -262 -52t-217 -146q-24 -24 -24 -49v-379q0 -11 16 -11z" />
    <glyph glyph-name="arrowleft" unicode="&#x2190;" horiz-adv-x="1765" 
d="M733 113l-565 563l565 563h185l-496 -494h1175v-137h-1175l496 -495h-185z" />
    <glyph glyph-name="arrowup" unicode="&#x2191;" horiz-adv-x="1378" 
d="M614 0v1100l-446 -443v170l520 521l522 -521v-170l-448 443v-1100h-148z" />
    <glyph glyph-name="arrowright" unicode="&#x2192;" horiz-adv-x="1765" 
d="M848 113l495 495h-1175v137h1175l-495 494h184l565 -563l-565 -563h-184z" />
    <glyph glyph-name="arrowdown" unicode="&#x2193;" horiz-adv-x="1378" 
d="M688 -20l-520 520v170l446 -443v1100h148v-1100l448 443v-170z" />
    <glyph glyph-name="partialdiff" unicode="&#x2202;" horiz-adv-x="1157" 
d="M563 -18q-218 0 -346.5 131t-128.5 344q0 210 123 344.5t340 134.5q134 0 226.5 -58t135.5 -149q-33 537 -428 537q-131 0 -221 -41v129q92 35 228 35q577 0 577 -775q0 -297 -129 -464.5t-377 -167.5zM563 106q143 0 236.5 96t93.5 265q0 157 -92 250.5t-236 93.5
q-151 0 -239 -99t-88 -255q0 -160 90.5 -255.5t234.5 -95.5z" />
    <glyph glyph-name="uni2206" unicode="&#x2206;" horiz-adv-x="1323" 
d="M51 0l602 1348h21l598 -1348h-1221zM264 129h791l-396 918z" />
    <glyph glyph-name="product" unicode="&#x220f;" horiz-adv-x="1552" 
d="M326 -406v1606h-205v127h1311v-127h-203v-1606h-150v1606h-604v-1606h-149z" />
    <glyph glyph-name="summation" unicode="&#x2211;" horiz-adv-x="1138" 
d="M104 0v20l502 650l-495 637v20h944v-127h-676l412 -530l-416 -541h700v-129h-971z" />
    <glyph glyph-name="minus" unicode="&#x2212;" 
d="M190 403v119h836v-119h-836z" />
    <glyph glyph-name="radical" unicode="&#x221a;" horiz-adv-x="1183" 
d="M539 0l-209 524h-203v119h305l176 -459l414 1143h147l-489 -1327h-141z" />
    <glyph glyph-name="infinity" unicode="&#x221e;" horiz-adv-x="1413" 
d="M389 346q-136 0 -218.5 81.5t-82.5 238.5q0 154 83 234.5t218 80.5q103 0 185.5 -57.5t132.5 -161.5q50 104 132 161.5t185 57.5q135 0 218 -80.5t83 -234.5q0 -157 -82.5 -238.5t-218.5 -81.5q-102 0 -184 61t-133 166q-51 -105 -133 -166t-185 -61zM403 465
q77 0 134.5 52.5t103.5 150.5q-45 97 -102.5 146.5t-137.5 49.5q-90 0 -136 -54t-46 -146t47 -145.5t137 -53.5zM1010 465q90 0 137 53.5t47 145.5t-46 145t-136 53q-80 0 -137.5 -49t-102.5 -145q46 -98 103.5 -150.5t134.5 -52.5z" />
    <glyph glyph-name="integral" unicode="&#x222b;" horiz-adv-x="735" 
d="M178 -424q-91 0 -158 25v123q70 -27 138 -27q90 0 124.5 54.5t34.5 189.5v1060q0 175 70 261t227 86q76 0 140 -23v-127q-65 25 -127 25q-91 0 -128.5 -56t-37.5 -178v-1028q0 -75 -5.5 -128.5t-23 -105t-48.5 -82.5t-82.5 -50t-123.5 -19z" />
    <glyph glyph-name="approxequal" unicode="&#x2248;" 
d="M799 526q-56 0 -113.5 18.5t-96 41t-86.5 41t-89 18.5q-53 0 -81 -28.5t-30 -75.5h-113q3 100 61 159.5t165 59.5q54 0 108.5 -18.5t92 -41t87.5 -41t97 -18.5q55 0 83 29.5t31 74.5h111q-2 -99 -59 -159t-168 -60zM799 166q-56 0 -113.5 18.5t-96 41t-86.5 41t-89 18.5
q-53 0 -81 -29t-30 -76h-113q3 100 61 159.5t165 59.5q54 0 108.5 -18.5t92 -40.5t87.5 -40.5t97 -18.5q55 0 83 29.5t31 74.5h111q-2 -99 -59 -159t-168 -60z" />
    <glyph glyph-name="notequal" unicode="&#x2260;" 
d="M324 31l98 192h-232v119h283l123 242h-406v118h459l99 189h126l-98 -189h250v-118h-305l-121 -242h426v-119h-479l-98 -192h-125z" />
    <glyph glyph-name="lessequal" unicode="&#x2264;" 
d="M1026 217l-833 436v21l833 436v-141l-602 -303l602 -304v-145zM190 0v119h836v-119h-836z" />
    <glyph glyph-name="greaterequal" unicode="&#x2265;" 
d="M193 217v141l604 304l-604 303v145l833 -436v-21zM190 0v119h836v-119h-836z" />
    <glyph glyph-name="dotmath" unicode="&#x22c5;" horiz-adv-x="548" 
d="M274 373q-44 0 -71 28.5t-27 73.5q0 43 28.5 71.5t69.5 28.5q43 0 71 -29t28 -73q0 -43 -28 -71.5t-71 -28.5z" />
    <glyph glyph-name="lozenge" unicode="&#x25ca;" horiz-adv-x="1122" 
d="M551 -20l-479 671l479 697h20l480 -697l-480 -671h-20zM561 172l342 479l-342 504l-342 -504z" />
    <glyph glyph-name="uniF8FF" unicode="&#xf8ff;" horiz-adv-x="1124" 
d="M236 1206q-26 0 -44 18t-18 46q0 25 18 43t44 18q25 0 44 -18t19 -43q0 -27 -19 -45.5t-44 -18.5zM371 1206q-25 0 -43.5 18.5t-18.5 45.5q0 25 18.5 43t43.5 18q26 0 43.5 -18t17.5 -43q0 -28 -17.5 -46t-43.5 -18zM504 1206q-25 0 -44.5 18.5t-19.5 45.5
q0 24 19.5 42.5t44.5 18.5q26 0 43.5 -18t17.5 -43q0 -28 -17.5 -46t-43.5 -18zM639 1206q-26 0 -43.5 18t-17.5 46q0 25 17.5 43t43.5 18q25 0 44 -18t19 -43q0 -27 -19 -45.5t-44 -18.5zM774 1206q-28 0 -45.5 18t-17.5 46q0 25 18 43t45 18q24 0 43 -18.5t19 -42.5
q0 -27 -19 -45.5t-43 -18.5zM907 1206q-25 0 -44 18.5t-19 45.5q0 25 19 43t44 18q26 0 44 -18t18 -43q0 -28 -18 -46t-44 -18zM236 1073q-26 0 -44 18t-18 44q0 25 18 43t44 18q25 0 44 -18t19 -43q0 -26 -19 -44t-44 -18zM236 938q-26 0 -44 18.5t-18 44.5q0 25 18 42.5
t44 17.5q25 0 44 -18t19 -42q0 -26 -19 -44.5t-44 -18.5zM504 938q-25 0 -44.5 18.5t-19.5 44.5q0 24 19.5 42t44.5 18q26 0 43.5 -17.5t17.5 -42.5q0 -26 -17.5 -44.5t-43.5 -18.5zM639 938q-26 0 -43.5 18.5t-17.5 44.5q0 25 17.5 42.5t43.5 17.5q25 0 44 -18t19 -42
q0 -26 -19 -44.5t-44 -18.5zM774 938q-27 0 -45 18t-18 45q0 25 18 42.5t45 17.5q24 0 43 -18t19 -42q0 -26 -19 -44.5t-43 -18.5zM907 938q-25 0 -44 18.5t-19 44.5q0 24 19 42t44 18q26 0 44 -17.5t18 -42.5q0 -26 -18 -44.5t-44 -18.5zM236 807q-27 0 -44.5 16.5
t-17.5 42.5t18 44t44 18q25 0 44 -18t19 -44t-18.5 -42.5t-44.5 -16.5zM504 807q-26 0 -45 17t-19 42q0 26 19.5 44t44.5 18q26 0 43.5 -18t17.5 -44t-17.5 -42.5t-43.5 -16.5zM236 670q-26 0 -44 17.5t-18 43.5t18 45t44 19q25 0 44 -19t19 -45t-19 -43.5t-44 -17.5z
M504 670q-25 0 -44.5 17.5t-19.5 43.5t19.5 45t44.5 19q26 0 43.5 -18.5t17.5 -45.5q0 -26 -17.5 -43.5t-43.5 -17.5zM639 670q-26 0 -43.5 17.5t-17.5 43.5q0 27 17.5 45.5t43.5 18.5q25 0 44 -19t19 -45t-19 -43.5t-44 -17.5zM774 670q-28 0 -45.5 17.5t-17.5 43.5
q0 27 18 45.5t45 18.5q24 0 43 -19t19 -45q0 -25 -19 -43t-43 -18zM907 670q-25 0 -44 17.5t-19 43.5t19 45t44 19q26 0 44 -19t18 -45t-18 -43.5t-44 -17.5zM236 537q-26 0 -44 17.5t-18 43.5q0 25 18 43t44 18q25 0 44 -18t19 -43q0 -26 -19 -43.5t-44 -17.5zM907 537
q-25 0 -44 17.5t-19 43.5q0 25 19 43t44 18q26 0 44 -18t18 -43q0 -26 -18 -43.5t-44 -17.5zM236 403q-26 0 -44 18t-18 44q0 25 18 42t44 17q25 0 44 -17.5t19 -41.5q0 -26 -19 -44t-44 -18zM504 403q-25 0 -44.5 18t-19.5 44q0 24 19.5 41.5t44.5 17.5q26 0 43.5 -17
t17.5 -42q0 -26 -17.5 -44t-43.5 -18zM639 403q-26 0 -43.5 18t-17.5 44q0 25 17.5 42t43.5 17q25 0 44 -17.5t19 -41.5q0 -26 -19 -44t-44 -18zM774 403q-28 0 -45.5 17.5t-17.5 44.5q0 25 18 42t45 17q24 0 43 -17.5t19 -41.5q0 -26 -19 -44t-43 -18zM907 403
q-25 0 -44 18t-19 44q0 24 19 41.5t44 17.5q26 0 44 -17t18 -42q0 -26 -18 -44t-44 -18zM236 266q-26 0 -44 19t-18 45t18 43.5t44 17.5q25 0 44 -17.5t19 -43.5t-19 -45t-44 -19zM236 133q-26 0 -44 18t-18 44q0 27 17.5 44t44.5 17q26 0 44.5 -17t18.5 -44q0 -26 -19 -44
t-44 -18zM504 133q-25 0 -44.5 18t-19.5 44q0 27 19 44t45 17q27 0 44 -17t17 -44q0 -26 -17.5 -44t-43.5 -18zM236 0q-26 0 -44 17.5t-18 43.5q0 25 18 44.5t44 19.5q25 0 44 -19.5t19 -44.5q0 -26 -19 -43.5t-44 -17.5zM371 0q-25 0 -43.5 17.5t-18.5 43.5q0 25 18.5 44.5
t43.5 19.5q26 0 43.5 -19.5t17.5 -44.5q0 -26 -17.5 -43.5t-43.5 -17.5zM504 0q-25 0 -44.5 17.5t-19.5 43.5q0 25 19.5 44.5t44.5 19.5q26 0 43.5 -19.5t17.5 -44.5q0 -26 -17.5 -43.5t-43.5 -17.5z" />
    <glyph glyph-name="Cacute.loclPLK" horiz-adv-x="1298" 
d="M698 1464l158 330h172l-194 -330h-136zM774 -20q-155 0 -280.5 50.5t-208 141t-126.5 215.5t-44 275t44 275.5t126 217t206.5 142.5t278.5 51q123 0 225 -30t152 -67v-153q-162 112 -369 112q-237 0 -374.5 -147.5t-137.5 -396.5q0 -257 144.5 -402t377.5 -145
q112 0 211.5 31t167.5 79v-155q-49 -34 -156.5 -64t-236.5 -30z" />
    <glyph glyph-name="Iacute_J.loclNLD" horiz-adv-x="1456" 
d="M182 1464l238 330h190l-284 -330h-144zM805 1464l237 330h191l-285 -330h-143zM182 0v1327h150v-1327h-150zM881 -20q-164 0 -256 45v141q89 -51 233 -51q167 0 227 84.5t60 289.5v713h-346v125h495v-883q0 -238 -94.5 -351t-318.5 -113z" />
    <glyph glyph-name="Nacute.loclPLK" horiz-adv-x="1449" 
d="M655 1464l158 330h172l-194 -330h-136zM1247 -20l-919 1036v-1016h-146v1348h21l919 -1039v1018h146v-1347h-21z" />
    <glyph glyph-name="Oacute.loclPLK" horiz-adv-x="1536" 
d="M702 1464l158 330h172l-194 -330h-136zM766 -20q-153 0 -277.5 53t-205.5 146t-124.5 217t-43.5 268q0 195 76 348.5t226.5 244.5t354.5 91q154 0 278 -52t204.5 -144t123.5 -214.5t43 -265.5q0 -146 -43.5 -271.5t-125 -219.5t-206.5 -147.5t-280 -53.5zM770 119
q227 0 363.5 154t136.5 397q0 237 -138 388.5t-364 151.5q-222 0 -362 -152t-140 -390q0 -156 61 -280t176.5 -196.5t266.5 -72.5z" />
    <glyph glyph-name="Sacute.loclPLK" horiz-adv-x="1007" 
d="M477 1464l158 330h172l-195 -330h-135zM481 -20q-196 0 -346 79v156q66 -43 155.5 -72.5t186.5 -29.5q130 0 203.5 56t73.5 173q0 67 -33.5 116.5t-87 81.5t-118.5 59.5t-129.5 59t-118 71.5t-87 106t-33.5 153q0 166 106.5 262.5t293.5 96.5q92 0 175.5 -22t129.5 -48
v-154q-146 93 -297 93q-116 0 -186 -57.5t-70 -162.5q0 -50 20.5 -90t56 -67t81 -50t95.5 -44t100 -43.5t95.5 -54t81 -70t56 -96.5t20.5 -130q0 -187 -112 -279.5t-312 -92.5z" />
    <glyph glyph-name="Zacute.loclPLK" horiz-adv-x="1208" 
d="M535 1464l157 330h172l-194 -330h-135zM104 0v20l762 1180h-727v127h963v-20l-760 -1178h768v-129h-1006z" />
    <glyph glyph-name="cacute.loclPLK" horiz-adv-x="909" 
d="M453 1065l155 330h174l-194 -330h-135zM559 -18q-209 0 -340 123.5t-131 345.5q0 221 127.5 353t347.5 132q124 0 242 -49v-139q-102 63 -232 63q-154 0 -244.5 -94t-90.5 -258q0 -165 88 -259t247 -94q78 0 141 21.5t99 48.5v-137q-32 -22 -101 -39.5t-153 -17.5z" />
    <glyph glyph-name="iacute_j.loclNLD" horiz-adv-x="946" 
d="M109 1065l235 330h191l-285 -330h-141zM575 1065l236 330h190l-284 -330h-142zM178 0v801h-129v117h273v-918h-144zM475 -424q-83 0 -162 27v125q73 -31 142 -31q60 0 100 20t60.5 59t28 83t7.5 106v836h-129v117h273v-945q0 -92 -15.5 -161t-50.5 -124t-99 -83.5
t-155 -28.5z" />
    <glyph glyph-name="i.loclTRK" horiz-adv-x="473" 
d="M248 1155q-41 0 -67.5 26.5t-26.5 67.5t27 66.5t67 25.5q39 0 65.5 -26t26.5 -68q0 -41 -26.5 -66.5t-65.5 -25.5zM178 0v801h-129v117h273v-918h-144z" />
    <glyph glyph-name="nacute.loclPLK" horiz-adv-x="1093" 
d="M471 1065l156 330h174l-195 -330h-135zM152 0v918h131l2 -148q38 78 119 122t200 44q181 0 266.5 -99.5t85.5 -299.5v-537h-143v504q0 72 -9.5 123t-35 95.5t-74.5 66.5t-123 22q-276 0 -276 -369v-442h-143z" />
    <glyph glyph-name="oacute.loclPLK" horiz-adv-x="1130" 
d="M455 1065l155 330h174l-194 -330h-135zM563 -18q-216 0 -345.5 131t-129.5 344q0 210 129.5 344.5t349.5 134.5q215 0 345 -125.5t130 -343.5q0 -219 -132 -352t-347 -133zM563 106q146 0 238 97.5t92 259.5q0 160 -92 254t-236 94q-150 0 -238.5 -99.5t-88.5 -254.5
q0 -160 90.5 -255.5t234.5 -95.5z" />
    <glyph glyph-name="sacute.loclPLK" horiz-adv-x="772" 
d="M297 1065l156 330h174l-195 -330h-135zM360 -18q-78 0 -146.5 16.5t-102.5 36.5v127q110 -66 241 -66q90 0 141.5 38.5t51.5 113.5q0 48 -23.5 82.5t-60.5 54.5t-82 36t-90 35.5t-82 46t-60.5 73.5t-23.5 112q0 123 77.5 185.5t213.5 62.5q68 0 125 -14.5t84 -30.5v-125
q-92 55 -203 55q-83 0 -122.5 -34.5t-39.5 -90.5q0 -43 23.5 -73t61 -48t82.5 -34t90 -36.5t82.5 -49t61 -78.5t23.5 -119q0 -138 -88.5 -207t-233.5 -69z" />
    <glyph glyph-name="germandbls.calt" horiz-adv-x="1308" 
d="M823 807q74 2 142 -21t123.5 -70.5t88.5 -127.5t33 -182q0 -208 -121 -317t-335 -109q-124 0 -240 34v138q103 -41 229 -41q158 0 236 77t78 213q0 124 -74.5 206.5t-218.5 82.5q-123 0 -191 -47l-14 16l373 543h-600v-1202h-150v1327h965v-20l-352 -523q18 18 28 23z
" />
    <glyph glyph-name="zacute.loclPLK" horiz-adv-x="960" 
d="M371 1065l155 330h174l-194 -330h-135zM84 0v20l565 781h-530v117h758v-21l-566 -778h574v-119h-801z" />
    <glyph glyph-name="uni0414.loclBGR" horiz-adv-x="1484" 
d="M1278 129h135v-418h-137v291h-1067v-291h-137v418h137l524 1219h21zM743 1065l-385 -936h764z" />
    <glyph glyph-name="uni041B.loclBGR" horiz-adv-x="1304" 
d="M1253 0h-161l-439 1049l-444 -1049h-156l590 1348h21z" />
    <glyph glyph-name="uni0424.loclBGR" horiz-adv-x="1632" 
d="M1518 664q0 -274 -172.5 -439.5t-456.5 -179.5v-123h-146v123q-285 12 -456.5 178.5t-171.5 440.5t172 439t456 179v123h146v-123q286 -12 457.5 -178t171.5 -440zM266 668q0 -218 131 -349.5t348 -140.5v971q-210 -9 -344.5 -137t-134.5 -344zM887 178q210 9 344.5 137
t134.5 344q0 219 -131 350t-348 140v-971z" />
    <glyph glyph-name="uni0431.loclSRB" horiz-adv-x="1130" 
d="M690 907q352 -115 352 -450q0 -214 -132 -344.5t-347 -130.5q-216 0 -345.5 128.5t-129.5 335.5q0 161 84.5 276.5t235.5 154.5q-112 37 -171 93t-59 148q0 119 88 179.5t234 60.5h286q102 0 160 18v-121q-48 -18 -182 -18h-258q-184 0 -184 -115q0 -29 11.5 -52t28 -38
t50 -30.5t60 -25t75.5 -24.5zM563 106q146 0 238 94.5t92 252.5q0 155 -92 246.5t-236 91.5q-150 0 -238.5 -97.5t-88.5 -247.5q0 -155 90.5 -247.5t234.5 -92.5z" />
    <glyph glyph-name="uni0432.loclBGR" horiz-adv-x="1069" 
d="M711 713q127 -23 198.5 -114.5t71.5 -225.5q0 -188 -120 -289.5t-308 -101.5q-214 0 -322 110.5t-108 351.5v437q0 251 101 377t317 126q178 0 275 -94t97 -268q0 -113 -55.5 -195.5t-146.5 -113.5zM532 1266q-266 0 -266 -353v-157h197q152 0 226.5 70t74.5 200
q0 116 -60.5 178t-171.5 62zM559 100q129 0 200.5 69t71.5 193q0 149 -80.5 214t-256.5 65h-228v-190q0 -178 76 -264.5t217 -86.5z" />
    <glyph glyph-name="uni0433.loclBGR" horiz-adv-x="817" 
d="M434 -18q-146 0 -233.5 64t-87.5 192q0 58 19.5 103t50.5 72.5t71.5 50.5t82.5 37.5t82.5 32.5t71.5 36.5t50.5 49t19.5 70.5q0 127 -168 127q-120 0 -235 -63v129q30 18 102.5 35.5t153.5 17.5q140 0 218.5 -62.5t78.5 -185.5q0 -65 -25 -113t-64.5 -74.5t-87.5 -47
t-95.5 -37.5t-87 -38t-64.5 -56.5t-25 -85.5q0 -66 48 -101t132 -35q125 0 248 76v-131q-36 -24 -106.5 -43.5t-149.5 -19.5z" />
    <glyph glyph-name="uni0434.loclBGR" horiz-adv-x="1177" 
d="M551 -424q-171 0 -268 39v131q121 -45 264 -45q179 0 257.5 104t78.5 291v80q-40 -77 -126.5 -126.5t-213.5 -49.5q-210 0 -332.5 131t-122.5 336q0 206 121.5 337.5t331.5 131.5q124 0 215 -50t137 -130l2 162h131v-820q0 -259 -110 -390.5t-365 -131.5zM565 127
q148 0 233 96t87 246q0 160 -90 251t-236 91q-147 0 -234 -93.5t-87 -246.5q0 -156 89 -250t238 -94z" />
    <glyph glyph-name="uni0436.loclBGR" horiz-adv-x="1435" 
d="M1407 0h-188l-431 483v-483h-141v483l-430 -483h-188l452 492l-436 426h176l426 -418v858h141v-858l426 418h177l-437 -426z" />
    <glyph glyph-name="uni0437.loclBGR" horiz-adv-x="882" 
d="M571 299q104 -31 167 -114t63 -228q0 -101 -33.5 -175.5t-94.5 -119t-138.5 -65.5t-172.5 -21q-104 0 -183.5 21.5t-117.5 48.5v141q46 -36 124.5 -61t172.5 -25q293 0 293 258q0 138 -75 201t-238 63h-90v117h69q139 0 217 57t78 193q0 118 -65.5 169.5t-169.5 51.5
q-89 0 -167 -25t-128 -59v135q45 26 131 50t193 24q54 0 102.5 -9t96 -32t81.5 -58.5t55 -93t21 -131.5q0 -110 -53 -193t-138 -120z" />
    <glyph glyph-name="uni0438.loclBGR" horiz-adv-x="1107" 
d="M803 918h143v-918h-131l-2 141q-83 -159 -317 -159q-178 0 -263.5 99t-85.5 298v539h144v-504q0 -57 5.5 -100.5t21 -84.5t41.5 -67t68.5 -42t100.5 -16q275 0 275 369v445z" />
    <glyph glyph-name="uni0439.loclBGR" horiz-adv-x="1107" 
d="M547 1024q-156 0 -230.5 83t-74.5 218v23h125v-9q0 -105 47.5 -161t132.5 -56q87 0 133.5 56t46.5 161v9h125v-23q0 -135 -76 -218t-229 -83zM803 918h143v-918h-131l-2 141q-83 -159 -317 -159q-178 0 -263.5 99t-85.5 298v539h144v-504q0 -57 5.5 -100.5t21 -84.5
t41.5 -67t68.5 -42t100.5 -16q275 0 275 369v445z" />
    <glyph glyph-name="uni045D.loclBGR" horiz-adv-x="1107" 
d="M629 1065h-142l-284 330h190zM803 918h143v-918h-131l-2 141q-83 -159 -317 -159q-178 0 -263.5 99t-85.5 298v539h144v-504q0 -57 5.5 -100.5t21 -84.5t41.5 -67t68.5 -42t100.5 -16q275 0 275 369v445z" />
    <glyph glyph-name="uni043A.loclBGR" horiz-adv-x="983" 
d="M162 0v1358h143v-856l438 416h191l-465 -426l485 -492h-190l-459 477v-477h-143z" />
    <glyph glyph-name="uni043B.loclBGR" horiz-adv-x="993" 
d="M954 0h-159l-299 672l-301 -672h-154l444 936h21z" />
    <glyph glyph-name="uni043F.loclBGR" horiz-adv-x="1114" 
d="M162 0v918h131l2 -148q38 78 119 122t200 44q181 0 267 -99.5t86 -299.5v-537h-144v504q0 57 -5.5 100t-21 83.5t-42 66.5t-70 41.5t-102.5 15.5q-277 0 -277 -369v-442h-143z" />
    <glyph glyph-name="uni0442.loclBGR" horiz-adv-x="1660" 
d="M162 0v918h131l2 -138q38 72 113 114t180 42q225 0 286 -178q39 84 119.5 131t194.5 47q325 0 325 -365v-571h-143v557q0 57 -9.5 100t-32 79.5t-64.5 55.5t-103 19q-72 0 -123 -27t-78 -78t-39 -113t-12 -144v-449h-143v557q0 118 -46.5 186t-162.5 68q-72 0 -123 -27
t-78 -78t-39 -113t-12 -144v-449h-143z" />
    <glyph glyph-name="uni0446.loclBGR" horiz-adv-x="1171" 
d="M1053 106q39 0 57 9v-363h-131v242h-14q-139 0 -158 135q-86 -147 -309 -147q-180 0 -265.5 99t-85.5 298v539h144v-504q0 -57 5.5 -100.5t21.5 -84.5t42 -67t69 -42t101 -16q273 0 273 369v445h143v-687q0 -67 24 -96t83 -29z" />
    <glyph glyph-name="uni0448.loclBGR" horiz-adv-x="1644" 
d="M1339 918h144v-918h-131l-2 129q-39 -68 -114 -107.5t-175 -39.5q-218 0 -283 170q-40 -82 -118.5 -126t-188.5 -44q-324 0 -324 362v574h144v-560q0 -56 9.5 -99t31.5 -79.5t63.5 -56t100.5 -19.5q71 0 120.5 27.5t76.5 79t38.5 114t11.5 144.5v449h144v-560
q0 -118 46 -186t161 -68q70 0 119.5 27.5t76 79t38 114t11.5 144.5v449z" />
    <glyph glyph-name="uni0449.loclBGR" horiz-adv-x="1708" 
d="M1589 106q40 0 58 9v-363h-131v242h-15q-134 0 -158 127q-39 -65 -112 -102t-170 -37q-218 0 -283 170q-40 -82 -118.5 -126t-188.5 -44q-324 0 -324 362v574h144v-560q0 -56 9.5 -99t31.5 -79.5t63.5 -56t100.5 -19.5q71 0 120.5 27.5t76.5 79t38.5 114t11.5 144.5v449
h144v-560q0 -118 46 -186t161 -68q70 0 119.5 27.5t76 79t38 114t11.5 144.5v449h144v-687q0 -67 23.5 -96t82.5 -29z" />
    <glyph glyph-name="uni044C.loclBGR" horiz-adv-x="1038" 
d="M575 739q172 0 272.5 -101t100.5 -273q0 -177 -111 -280t-300 -103q-191 0 -295.5 103t-104.5 318v515h144v-316q99 137 294 137zM539 96q119 0 191.5 72.5t72.5 193.5q0 124 -72 194.5t-190 70.5q-123 0 -192.5 -75.5t-69.5 -186.5q0 -123 70.5 -196t189.5 -73z" />
    <glyph glyph-name="uni044A.loclBGR" horiz-adv-x="1234" 
d="M770 739q172 0 272.5 -101t100.5 -273q0 -177 -111.5 -280t-300.5 -103q-191 0 -295 103t-104 318v398h-291v117h434v-316q99 137 295 137zM733 96q120 0 192 72.5t72 193.5q0 124 -72 194.5t-190 70.5q-123 0 -192.5 -75.5t-69.5 -186.5q0 -123 70.5 -196t189.5 -73z
" />
    <glyph glyph-name="xi.ss02" horiz-adv-x="860" 
d="M559 115q150 -38 207 -81t57 -128q0 -89 -78 -195h-135q66 87 66 160q0 48 -38 75t-146 50q-94 19 -161 45.5t-120 70.5t-79 110t-26 155q0 124 76 215.5t207 118.5q-85 30 -137.5 102t-52.5 166q0 93 43.5 162.5t117.5 99.5h-258v117h697v-117h-140q-156 0 -234.5 -60.5
t-78.5 -176.5q0 -111 75.5 -178.5t209.5 -67.5h90v-117h-107q-176 0 -267 -65.5t-91 -184.5q0 -122 71.5 -180t231.5 -96z" />
    <glyph glyph-name="zero.tf" 
d="M608 -20q-122 0 -218.5 54t-157 148t-92 217.5t-31.5 266.5q0 112 19.5 213t60 187t99 148.5t140.5 98t180 35.5t180 -35.5t140.5 -98t99.5 -148.5t60.5 -187t19.5 -213q0 -193 -55 -346t-170 -246.5t-275 -93.5zM608 115q167 0 256.5 149t89.5 402t-89 402t-257 149
q-166 0 -256 -149t-90 -402q0 -252 91 -401.5t255 -149.5z" />
    <glyph glyph-name="one.tf" 
d="M618 0v1159l-309 -141v133l439 197h16v-1348h-146z" />
    <glyph glyph-name="two.tf" 
d="M174 0v16l447 539q113 137 161.5 227t48.5 185q0 112 -66.5 181t-201.5 69q-162 0 -323 -123v149q138 105 340 105q198 0 300.5 -101.5t102.5 -279.5q0 -114 -51 -216t-191 -266l-303 -356h568v-129h-832z" />
    <glyph glyph-name="three.tf" 
d="M662 793q161 0 261.5 -106t100.5 -286q0 -206 -129 -313.5t-348 -107.5q-110 0 -204.5 23.5t-137.5 55.5v154q55 -43 141 -70.5t189 -27.5q159 0 247 72t88 216q0 142 -79.5 215.5t-215.5 73.5q-127 0 -210 -63l-17 16l412 555h-539v127h783v-16l-386 -523q18 5 44 5z
" />
    <glyph glyph-name="four.tf" 
d="M750 0v258h-691v16l815 1074h15v-973h186v-117h-186v-258h-139zM285 375h465v616z" />
    <glyph glyph-name="five.tf" 
d="M549 -20q-126 0 -212 24t-130 55v154q49 -41 136 -69.5t192 -28.5q162 0 249.5 79t87.5 228q0 138 -80 214.5t-221 76.5q-95 0 -172.5 -37t-124.5 -92l-18 6l102 737h592v-127h-469l-57 -414q89 56 205 56q178 0 287.5 -105t109.5 -309q0 -221 -124 -334.5t-353 -113.5z
" />
    <glyph glyph-name="six.tf" 
d="M643 860q118 0 212 -46.5t152 -145t58 -236.5q0 -199 -121 -325.5t-336 -126.5q-214 0 -337.5 129t-123.5 370q0 246 135 483.5t343 364.5h227q-167 -94 -313 -258t-199 -342q43 62 121 97.5t182 35.5zM608 111q139 0 222 86.5t83 224.5q0 139 -84 224t-221 85
q-134 0 -220.5 -87.5t-86.5 -221.5q0 -137 84 -224t223 -87z" />
    <glyph glyph-name="seven.tf" 
d="M395 0q24 345 146 666.5t297 531.5h-678v129h938v-16q-152 -147 -271.5 -369t-188 -463t-87.5 -479h-156z" />
    <glyph glyph-name="eight.tf" 
d="M608 -20q-199 0 -312.5 105.5t-113.5 274.5q0 125 60.5 214t152.5 120q-74 27 -126 101t-52 192q0 164 106.5 262.5t284.5 98.5q174 0 281.5 -98t107.5 -263q0 -119 -53 -191.5t-129 -99.5q95 -28 156 -114.5t61 -221.5q0 -168 -112 -274t-312 -106zM608 750
q110 0 174 61t64 172q0 104 -64.5 169t-173.5 65q-107 0 -173 -66.5t-66 -167.5q0 -112 63 -172.5t176 -60.5zM608 113q124 0 197.5 72t73.5 186q0 117 -72.5 185.5t-198.5 68.5q-124 0 -198 -69t-74 -185t72.5 -187t199.5 -71z" />
    <glyph glyph-name="nine.tf" 
d="M604 1348q219 0 339 -128.5t120 -369.5q0 -240 -126.5 -463.5t-348.5 -386.5h-215q183 133 320.5 291.5t189.5 312.5q-41 -53 -116 -91t-185 -38q-192 0 -313.5 115t-121.5 309q0 196 120.5 322.5t336.5 126.5zM604 606q138 0 219.5 82t81.5 221t-82 223.5t-217 84.5
q-140 0 -222.5 -83t-82.5 -227q0 -141 84.5 -221t218.5 -80z" />
    <glyph glyph-name="periodcentered.case" horiz-adv-x="514" 
d="M264 575q-44 0 -72 29t-28 74q0 42 29 71t71 29q43 0 70.5 -29t27.5 -73t-27.5 -72.5t-70.5 -28.5z" />
    <glyph glyph-name="bullet.case" horiz-adv-x="921" 
d="M485 467q-92 0 -151.5 59.5t-59.5 151.5q0 88 62 147.5t149 59.5q89 0 148 -59t59 -150t-59 -150t-148 -59z" />
    <glyph glyph-name="exclamdown.case" horiz-adv-x="561" 
d="M281 1346q43 0 70.5 -28.5t27.5 -72.5t-27.5 -73t-70.5 -29q-41 0 -70 28.5t-29 71.5q0 45 27.5 74t71.5 29zM211 967h141l6 -967h-153z" />
    <glyph glyph-name="questiondown.case" horiz-adv-x="909" 
d="M520 1145q-42 0 -70 29t-28 73t28.5 72.5t71.5 28.5q44 0 71.5 -29t27.5 -72q0 -44 -29 -73t-72 -29zM516 -18q-191 0 -305.5 96t-114.5 274q0 87 29.5 156.5t80.5 113t113 68t132 29.5v250h141v-340q-73 -2 -133.5 -17.5t-109.5 -47t-76 -84.5t-27 -124
q0 -121 78.5 -183t201.5 -62q96 0 182 34.5t123 71.5v-149q-41 -31 -124.5 -58.5t-190.5 -27.5z" />
    <glyph glyph-name="numbersign.tf" 
d="M139 0l92 362h-186l31 115h182l98 373h-186l29 115h184l92 362h139l-90 -362h320l92 362h139l-90 -362h186l-30 -115h-185l-96 -373h187l-31 -115h-185l-92 -362h-139l92 362h-321l-92 -362h-140zM399 477h320l98 373h-321z" />
    <glyph glyph-name="braceleft.case" horiz-adv-x="770" 
d="M547 -195q-178 0 -270.5 88t-92.5 238q0 67 21 130.5t46.5 104.5t46.5 92t21 95q0 72 -41.5 113t-113.5 47v30q72 5 113.5 42.5t41.5 105.5q0 44 -21 90.5t-46.5 83t-46.5 96.5t-21 127q0 151 92.5 240.5t270.5 89.5q116 0 194 -35v-121q-71 41 -178 41
q-116 0 -176.5 -59.5t-60.5 -167.5q0 -51 21.5 -104t47 -89.5t47 -86.5t21.5 -97q0 -79 -41 -119.5t-92 -50.5q49 -12 91 -58t42 -126q0 -48 -21.5 -101.5t-47 -94.5t-47 -97t-21.5 -109q0 -106 63 -164.5t174 -58.5q100 0 178 43v-121q-82 -37 -194 -37z" />
    <glyph glyph-name="braceright.case" horiz-adv-x="770" 
d="M240 -195q-113 0 -195 37v121q78 -43 178 -43q111 0 174.5 58.5t63.5 164.5q0 53 -21.5 109.5t-47 97.5t-47 94t-21.5 101q0 80 42 126t91 58q-51 10 -92 50.5t-41 119.5q0 46 21.5 96t47 87t47 90t21.5 104q0 108 -61 167.5t-177 59.5q-107 0 -178 -41v121q78 35 195 35
q178 0 270 -89.5t92 -240.5q0 -55 -14 -104t-34 -85t-39.5 -68.5t-33.5 -68t-14 -71.5q0 -68 42 -105.5t114 -42.5v-30q-72 -6 -114 -47t-42 -113q0 -44 21 -94.5t46.5 -91.5t46.5 -105t21 -131q0 -150 -92 -238t-270 -88z" />
    <glyph glyph-name="bracketleft.case" horiz-adv-x="604" 
d="M182 -195v1733h412v-123h-268v-1485h268v-125h-412z" />
    <glyph glyph-name="bracketright.case" horiz-adv-x="636" 
d="M45 -195v125h268v1485h-268v123h412v-1733h-412z" />
    <glyph glyph-name="parenleft.case" horiz-adv-x="638" 
d="M504 -195q-80 66 -145.5 146.5t-122.5 186.5t-89 242t-32 288t32 288t89 243t124 189t148 150h184q-96 -80 -168 -163.5t-132.5 -189.5t-92 -237.5t-31.5 -283.5q0 -249 98 -459t326 -400h-188z" />
    <glyph glyph-name="parenright.case" horiz-adv-x="630" 
d="M-61 -195q228 190 324.5 399.5t96.5 459.5q0 152 -31.5 283.5t-91 237.5t-131.5 189.5t-167 163.5h184q81 -68 148 -150t124 -189t89 -243t32 -288t-32 -288t-89 -242t-122.5 -186.5t-145.5 -146.5h-188z" />
    <glyph glyph-name="emdash.case" horiz-adv-x="1609" 
d="M88 616v121h1434v-121h-1434z" />
    <glyph glyph-name="endash.case" horiz-adv-x="962" 
d="M88 616v121h786v-121h-786z" />
    <glyph glyph-name="hyphen.case" horiz-adv-x="550" 
d="M88 618v117h375v-117h-375z" />
    <glyph glyph-name="uni00AD.case" horiz-adv-x="550" 
d="M88 618v117h375v-117h-375z" />
    <glyph glyph-name="guillemotleft.case" horiz-adv-x="1095" 
d="M383 354l-287 322l287 321h168l-295 -321l295 -322h-168zM776 354l-287 322l287 321h168l-295 -321l295 -322h-168z" />
    <glyph glyph-name="guillemotright.case" horiz-adv-x="1071" 
d="M152 354l292 322l-292 321h167l287 -321l-287 -322h-167zM545 354l293 322l-293 321h168l286 -321l-286 -322h-168z" />
    <glyph glyph-name="guilsinglleft.case" horiz-adv-x="686" 
d="M383 354l-287 322l287 321h168l-295 -321l295 -322h-168z" />
    <glyph glyph-name="guilsinglright.case" horiz-adv-x="677" 
d="M152 354l292 322l-292 321h167l287 -321l-287 -322h-167z" />
    <glyph glyph-name="cent.ss01" horiz-adv-x="970" 
d="M547 0v188q-192 12 -308 134t-116 333q0 207 113.5 337t310.5 145v190h121v-190q125 -7 202 -47v-138q-107 68 -258 68q-162 0 -251 -97t-89 -261q0 -163 86 -258.5t258 -96.5q85 0 154.5 22t108.5 50v-137q-29 -19 -85 -35t-126 -19v-188h-121z" />
    <glyph glyph-name="dollar.ss01" horiz-adv-x="1042" 
d="M469 -184v188q-218 9 -338 76v141q68 -44 175 -70t204 -26q141 0 212 57t71 164q0 47 -15 84.5t-36 62t-60.5 46.5t-72.5 34.5t-87 30.5q-50 17 -82 28t-74 28.5t-68.5 33.5t-58 38t-50 46.5t-35 55t-24 68t-7.5 81.5q0 152 90.5 237t255.5 103v209h121v-209
q161 -8 270 -68v-145q-67 42 -153 69t-172 27q-122 0 -193.5 -55t-71.5 -160q0 -41 13 -74t33.5 -56t58 -44t74 -35t92.5 -32q159 -54 227 -95q166 -99 174 -285v-20q0 -84 -28 -148.5t-77.5 -105t-111 -63t-135.5 -29.5v-188h-121z" />
    <glyph glyph-name="cent.tf.ss01" 
d="M651 0v188q-192 12 -308 134t-116 333q0 207 113.5 337t310.5 145v190h121v-190q126 -7 203 -47v-138q-107 68 -258 68q-162 0 -251 -97t-89 -261q0 -163 86 -258.5t258 -96.5q85 0 154 22t108 50v-137q-29 -19 -85 -35t-126 -19v-188h-121z" />
    <glyph glyph-name="dollar.tf.ss01" 
d="M559 -184v188q-218 9 -338 76v141q68 -44 175 -70t204 -26q141 0 212 57t71 164q0 47 -15 84.5t-36 62t-60.5 46.5t-72.5 34.5t-87 30.5q-50 17 -82 28t-74 28.5t-68.5 33.5t-58 38t-50 46.5t-35 55t-24 68t-7.5 81.5q0 152 90.5 237t255.5 103v209h121v-209
q161 -8 270 -68v-145q-67 42 -153 69t-172 27q-122 0 -193.5 -55t-71.5 -160q0 -41 13 -74t33.5 -56t58 -44t74 -35t92.5 -32q159 -54 227 -95q166 -99 174 -285v-20q0 -84 -28 -148.5t-77.5 -105t-111 -63t-135.5 -29.5v-188h-121z" />
    <glyph glyph-name="cent.tf" 
d="M657 0v184q-192 11 -311 134t-119 337q0 211 116 342.5t314 141.5v188h91v-188q135 -5 227 -49v-138q-106 61 -227 66v-711q74 4 138 26.5t97 45.5v-137q-30 -18 -95 -35.5t-140 -20.5v-186h-91zM657 309v711q-124 -12 -202 -109.5t-78 -248.5q0 -147 73.5 -245
t206.5 -108z" />
    <glyph glyph-name="dollar.tf" 
d="M573 -184v186q-225 6 -352 78v141q142 -90 352 -96v491q-69 23 -113.5 41.5t-96 50t-81 67t-49.5 89.5t-20 121q0 153 95.5 239.5t264.5 100.5v207h91v-207q168 -8 286 -70v-145q-136 86 -286 94v-465q44 -15 74 -27t72 -32t70 -40t59.5 -49.5t50 -62.5t30.5 -77t12 -95
q0 -73 -20 -132t-53.5 -98t-81.5 -66t-100 -40.5t-113 -17.5v-186h-91zM573 764v440q-97 -9 -155 -63.5t-58 -147.5q0 -89 54 -140t159 -89zM664 127q105 11 162 67.5t57 151.5q0 94 -56 149t-163 95v-463z" />
    <glyph glyph-name="Euro.tf" 
d="M819 -20q-258 0 -416.5 129t-197.5 364h-174v117h162q-5 40 -5 72q0 29 5 69h-162v117h176q40 228 195.5 364t418.5 136q110 0 198.5 -22t139.5 -52v-146q-139 86 -330 86q-195 0 -312 -97t-152 -269h466v-117h-483q-4 -20 -4 -65q0 -62 2 -76h485v-117h-471
q36 -176 162.5 -267t308.5 -91q198 0 347 82v-146q-49 -28 -149 -49.5t-210 -21.5z" />
    <glyph glyph-name="florin.tf" 
d="M227 -424q-83 0 -135 21v127q65 -21 121 -21q96 0 135 61.5t70 233.5l102 590h-211v125h234l43 241q18 100 43 170t65.5 122t100 77t141.5 25q89 0 135 -23v-129q-51 21 -115 21q-98 0 -146.5 -65t-76.5 -226l-37 -213h281v-125h-305l-107 -619q-14 -78 -27.5 -130
t-39 -106.5t-59 -85.5t-87.5 -51t-125 -20z" />
    <glyph glyph-name="uni20B4.tf" 
d="M1040 752h-196q-36 -28 -80 -56t-99.5 -60.5t-82.5 -49.5h458v-111h-591q-54 -67 -54 -145q0 -109 74 -163t203 -54q97 0 186.5 29.5t155.5 72.5v-156q-154 -79 -369 -79q-181 0 -291 82t-110 245q0 91 41 168h-101v111h191q26 23 61.5 48t57 39t70 42.5t61.5 36.5h-441
v112h596q70 70 70 158q0 92 -68 143.5t-188 51.5q-160 0 -313 -93v154q51 27 139 48.5t192 21.5q191 0 290 -81.5t99 -224.5q0 -97 -51 -178h90v-112z" />
    <glyph glyph-name="uni20BD.tf" 
d="M602 473h-231v-141h276v-127h-276v-205h-150v205h-174v127h174v141h-174v127h174v727h393q92 0 165 -10t143.5 -38t117.5 -74t76 -123t29 -179q0 -78 -17.5 -141.5t-46.5 -107.5t-72 -77.5t-88.5 -52.5t-102.5 -31t-107.5 -16t-108.5 -4zM991 901q0 72 -21 125.5
t-55.5 86t-87 52.5t-107.5 27.5t-124 7.5h-225v-600h225q67 0 122.5 8t107.5 28.5t87.5 53.5t56.5 87t21 124z" />
    <glyph glyph-name="sterling.tf" 
d="M211 0v16q138 149 197 261.5t59 214.5q0 54 -23 98h-213v125h148q-78 112 -78 239q0 177 111.5 285.5t310.5 108.5q91 0 167.5 -23t123.5 -57v-150q-42 36 -113.5 66t-161.5 30q-138 0 -211 -72t-73 -200q0 -109 92 -227h352v-125h-303q20 -48 20 -98q0 -189 -157 -363
h585v-129h-833z" />
    <glyph glyph-name="yen.tf" 
d="M532 0v393h-292v117h299l-74 141h-254v117h188l-286 559h163l334 -684l336 684h160l-291 -559h193v-117h-260l-74 -141h305v-117h-299v-393h-148z" />
    <glyph glyph-name="at.case" horiz-adv-x="2041" 
d="M1049 -215q-276 0 -486 105.5t-329 311t-119 484.5q0 212 73 386t200 288t298 175.5t369 61.5q178 0 335 -53t277 -152t190 -252.5t70 -342.5q0 -256 -117 -398.5t-311 -142.5q-103 0 -164.5 43t-77.5 109q-41 -74 -121.5 -113t-172.5 -39q-160 0 -256.5 107t-96.5 286
q0 118 43 216.5t133.5 161.5t212.5 63q108 0 179.5 -46.5t105.5 -125.5l19 147h118l-43 -381q-16 -136 -16 -174q0 -139 149 -139q129 0 204 106t75 289q0 142 -41 261t-111.5 201.5t-165 140t-200.5 84t-219 26.5q-169 0 -315.5 -55.5t-254 -156.5t-169.5 -252.5
t-62 -334.5q0 -184 60.5 -331t168 -243t253.5 -147t319 -51q103 0 208.5 19t188.5 48.5t140.5 55.5t95.5 49v-135q-20 -14 -71.5 -37t-134.5 -52.5t-199.5 -50t-231.5 -20.5zM981 375q127 0 197.5 91t70.5 234q0 122 -57.5 198.5t-173.5 76.5q-127 0 -201 -93t-74 -235
q0 -129 64 -200.5t174 -71.5z" />
    <glyph glyph-name="uni0308.case" horiz-adv-x="0" 
d="M-711 1518q-46 0 -76 30t-30 76t30 76.5t76 30.5t75.5 -30.5t29.5 -76.5t-29.5 -76t-75.5 -30zM-326 1518q-46 0 -75 30t-29 76t29.5 76.5t74.5 30.5q46 0 76.5 -30.5t30.5 -76.5t-30.5 -76t-76.5 -30z" />
    <glyph glyph-name="uni0307.case" horiz-adv-x="0" 
d="M-535 1520q-46 0 -75 29.5t-29 76.5q0 44 30 73.5t74 29.5q43 0 73 -30t30 -75t-30 -74.5t-73 -29.5z" />
    <glyph glyph-name="gravecomb.case" horiz-adv-x="0" 
d="M-453 1464l-284 330h190l236 -330h-142z" />
    <glyph glyph-name="acutecomb.case" horiz-adv-x="0" 
d="M-727 1464l238 330h190l-285 -330h-143z" />
    <glyph glyph-name="uni030B.case" horiz-adv-x="0" 
d="M-926 1464l267 330h190l-313 -330h-144zM-545 1464l266 330h191l-313 -330h-144z" />
    <glyph glyph-name="uni0302.case" horiz-adv-x="0" 
d="M-854 1464l338 348l340 -348h-160l-180 195l-178 -195h-160z" />
    <glyph glyph-name="uni030C.case" horiz-adv-x="0" 
d="M-516 1446l-338 348h160l178 -195l180 195h160z" />
    </font>
</defs>
</svg>
