<?xml version="1.0" standalone="no"?>
<!DOCTYPE svg PUBLIC "-//W3C//DTD SVG 1.1//EN" "http://www.w3.org/Graphics/SVG/1.1/DTD/svg11.dtd" >
<svg xmlns="http://www.w3.org/2000/svg" xmlns:xlink="http://www.w3.org/1999/xlink" version="1.1">
<metadata>
Created by FontForge 20170731 at Thu Jul 30 05:04:02 2020
 By Aleksey,,,
Nespresso Lucas is a licensed version of FS Lucas, Copyright (c) 2016. All rights reserved. This font may not be altered in any way without prior permission of Fontsmith Ltd.
</metadata>
<defs>
<font id="NespressoLucas-Light" horiz-adv-x="1210" >
  <font-face 
    font-family="Nespresso Lucas Light"
    font-weight="300"
    font-stretch="normal"
    units-per-em="2048"
    panose-1="2 11 6 3 6 3 2 3 2 3"
    ascent="1516"
    descent="-532"
    x-height="915"
    cap-height="1327"
    bbox="-887 -426 2255 1835"
    underline-thickness="90"
    underline-position="-294"
    unicode-range="U+000D-FB02"
  />
<missing-glyph horiz-adv-x="1411" 
d="M190 -424v1751h1033v-1751h-1033zM707 512l421 758h-843zM252 -297l424 750l-424 747v-1497zM1161 -297v1497l-424 -747zM285 -365h843l-421 768z" />
    <glyph glyph-name="fi" unicode="fi" horiz-adv-x="1112" 
d="M229 0v825h-155v90h155v95q0 185 72 278.5t229 93.5q72 0 109 -16v-94q-37 14 -92 14q-107 0 -158 -64.5t-51 -217.5v-89h618v-915h-108v825h-510v-825h-109zM901 1171q-34 0 -56 21.5t-22 56.5t22.5 57.5t55.5 22.5q34 0 56 -22.5t22 -57.5t-22 -56.5t-56 -21.5z" />
    <glyph glyph-name="fl" unicode="fl" horiz-adv-x="1112" 
d="M229 0v825h-155v90h155v95q0 185 72 278.5t229 93.5q72 0 109 -16v-94q-37 14 -92 14q-107 0 -158 -64.5t-51 -217.5v-89h280v-90h-280v-825h-109zM848 0v1352h108v-1352h-108z" />
    <glyph glyph-name="f_f.liga" unicode="ff" horiz-adv-x="1316" 
d="M229 0v825h-155v90h155v82q0 187 74 279t238 92q84 0 137 -20v-97q-63 23 -121 23q-115 0 -167 -64.5t-52 -218.5v-76h510v95q0 187 76.5 279.5t244.5 92.5q101 0 177 -32v-97q-75 33 -168 33q-117 0 -169.5 -66.5t-52.5 -218.5v-86h289v-90h-289v-825h-108v825h-510
v-825h-109z" />
    <glyph glyph-name="f_f_i.liga" unicode="ffi" horiz-adv-x="1732" 
d="M229 0v825h-155v90h155v82q0 187 74 279t238 92q72 0 118 -16v-97q-51 19 -102 19q-115 0 -167 -64.5t-52 -218.5v-76h510v95q0 186 73 279t236 93q70 0 113 -16v-94q-47 14 -94 14q-115 0 -167.5 -63.5t-52.5 -218.5v-89h619v-915h-109v825h-510v-825h-108v825h-510
v-825h-109zM1522 1171q-35 0 -57.5 21.5t-22.5 56.5t23 57.5t57 22.5q33 0 55 -22.5t22 -57.5t-22 -56.5t-55 -21.5z" />
    <glyph glyph-name="f_f_j.liga" unicode="ffj" horiz-adv-x="1734" 
d="M1288 -424q-80 0 -158 29v96q69 -33 144 -33q50 0 86.5 16t56.5 40t31.5 62t14.5 72t3 81v886h-510v-825h-108v825h-510v-825h-109v825h-155v90h155v82q0 187 74 279t238 92q72 0 118 -16v-97q-51 19 -102 19q-115 0 -167 -64.5t-52 -218.5v-76h510v95q0 186 73 279
t236 93q70 0 113 -16v-94q-47 14 -94 14q-115 0 -167.5 -63.5t-52.5 -218.5v-89h619v-972q0 -63 -6 -112t-24.5 -98.5t-49 -82.5t-83.5 -53.5t-124 -20.5zM1522 1167q-37 0 -60.5 22.5t-23.5 59.5q0 36 24 60t60 24q34 0 58 -24t24 -60t-24 -59t-58 -23z" />
    <glyph glyph-name="f_f_l.liga" unicode="ffl" horiz-adv-x="1732" 
d="M229 0v825h-155v90h155v82q0 187 74 279t238 92q72 0 118 -16v-97q-51 19 -102 19q-115 0 -167 -64.5t-52 -218.5v-76h510v95q0 186 73 279t236 93q70 0 113 -16v-94q-47 14 -94 14q-115 0 -167.5 -63.5t-52.5 -218.5v-89h281v-90h-281v-825h-108v825h-510v-825h-109z
M1466 0v1358h109v-1358h-109z" />
    <glyph glyph-name="f_f_t.liga" unicode="fft" horiz-adv-x="1978" 
d="M229 0v825h-155v90h155v82q0 187 74 279t238 92q72 0 118 -16v-97q-51 19 -102 19q-115 0 -167 -64.5t-52 -218.5v-76h510v95q0 186 73 279t236 93q73 0 113 -16v-94q-47 14 -94 14q-116 0 -168 -64.5t-52 -224.5v-82h256v-90h-256v-825h-108v825h-510v-825h-109z
M1716 -18q-74 0 -124 20.5t-76.5 60t-37 86.5t-10.5 111v565h-110v17q136 115 203 291h16v-218h270v-90h-270v-544q0 -107 31.5 -156t126.5 -49q77 0 149 28v-94q-63 -28 -168 -28z" />
    <glyph glyph-name="f_j.liga" unicode="fj" horiz-adv-x="1112" 
d="M668 -424q-80 0 -158 29v96q69 -33 145 -33q50 0 86.5 16t56.5 40t32 62t15 72.5t3 80.5v886h-510v-825h-109v825h-155v90h155v95q0 185 72 278.5t229 93.5q72 0 109 -16v-94q-37 14 -92 14q-107 0 -158 -64.5t-51 -217.5v-89h618v-972q0 -63 -6 -112t-24 -99t-49 -82.5
t-84 -53t-125 -20.5zM901 1171q-34 0 -56 21.5t-22 56.5t22.5 57.5t55.5 22.5q34 0 56 -22.5t22 -57.5t-22 -56.5t-56 -21.5z" />
    <glyph glyph-name="f_t.liga" unicode="ft" horiz-adv-x="1357" 
d="M229 0v825h-155v90h155v95q0 185 73.5 278.5t236.5 93.5q70 0 110 -16v-94q-47 14 -92 14q-115 0 -167 -63.5t-52 -218.5v-89h254v-90h-254v-825h-109zM1096 -18q-74 0 -124 20.5t-76.5 60t-37 86.5t-10.5 111v565h-111v17q136 115 203 291h16v-218h271v-90h-271v-544
q0 -107 31.5 -156t126.5 -49q78 0 150 28v-94q-63 -28 -168 -28z" />
    <glyph glyph-name="t_t.liga" unicode="tt" horiz-adv-x="1366" 
d="M457 -18q-74 0 -125 20.5t-77.5 60t-37 86.5t-10.5 111v565h-135v19q72 49 132.5 128.5t92.5 160.5h18v-218h273v-90h-273v-544q0 -106 32 -155.5t126 -49.5q75 0 152 28v-94q-63 -28 -168 -28zM1104 -18q-74 0 -124 20.5t-76.5 60t-37 86.5t-10.5 111v565h-137v19
q73 50 134 129.5t91 159.5h21v-218h270v-90h-270v-544q0 -107 31 -156t126 -49q78 0 150 28v-94q-63 -28 -168 -28z" />
    <glyph glyph-name=".notdef" horiz-adv-x="1411" 
d="M190 -424v1751h1033v-1751h-1033zM707 512l421 758h-843zM252 -297l424 750l-424 747v-1497zM1161 -297v1497l-424 -747zM285 -365h843l-421 768z" />
    <glyph glyph-name=".null" horiz-adv-x="0" 
 />
    <glyph glyph-name="nonmarkingreturn" horiz-adv-x="682" 
 />
    <glyph glyph-name="CR" unicode="&#xd;" horiz-adv-x="430" 
 />
    <glyph glyph-name="space" unicode=" " horiz-adv-x="430" 
 />
    <glyph glyph-name="exclam" unicode="!" horiz-adv-x="540" 
d="M217 340l-4 987h117l-4 -987h-109zM270 -18q-36 0 -58 23.5t-22 60.5q0 35 23 58t57 23q35 0 58.5 -23.5t23.5 -60.5q0 -35 -23 -58t-59 -23z" />
    <glyph glyph-name="quotedbl" unicode="&#x22;" horiz-adv-x="718" 
d="M205 938l-15 389h119l-14 -389h-90zM426 938l-14 389h118l-14 -389h-90z" />
    <glyph glyph-name="numbersign" unicode="#" horiz-adv-x="1159" 
d="M117 0l96 375h-186l24 90h182l105 397h-186l24 90h184l93 375h108l-94 -375h373l94 375h106l-94 -375h187l-23 -90h-184l-105 -397h187l-23 -90h-184l-96 -375h-107l96 375h-375l-94 -375h-108zM342 465h373l102 397h-373z" />
    <glyph glyph-name="dollar" unicode="$" horiz-adv-x="1028" 
d="M485 -184v186q-104 1 -200 22t-154 54v112q147 -89 354 -92v535q-56 20 -92 34.5t-81.5 38t-74 49t-55 60t-39 79.5t-12.5 99q0 150 94 235t260 99v205h76v-205q158 -5 289 -74v-114q-146 89 -289 92v-504q63 -22 105.5 -40t95.5 -51t84.5 -70t53.5 -94t22 -126
q0 -75 -22 -134t-56.5 -96t-83.5 -62.5t-96.5 -36.5t-102.5 -15v-186h-76zM485 748v485q-106 -9 -172.5 -69t-66.5 -163q0 -52 17 -92t52 -69.5t74 -50t96 -41.5zM561 98q116 11 180 73.5t64 168.5t-62.5 166t-181.5 106v-514z" />
    <glyph glyph-name="percent" unicode="%" horiz-adv-x="1595" 
d="M391 731q-132 0 -216.5 82.5t-84.5 224.5q0 144 87 227t214 83q131 0 216 -80.5t85 -227.5q0 -143 -84.5 -226t-216.5 -83zM373 0l737 1327h113l-738 -1327h-112zM391 813q93 0 152 60t59 167q0 110 -60 169t-151 59q-90 0 -150.5 -61.5t-60.5 -166.5q0 -106 59.5 -166.5
t151.5 -60.5zM1206 -20q-132 0 -216.5 82.5t-84.5 224.5q0 144 86 226.5t215 82.5q130 0 215.5 -80.5t85.5 -226.5q0 -143 -84.5 -226t-216.5 -83zM1206 61q92 0 151.5 60.5t59.5 167.5q0 110 -59.5 168.5t-151.5 58.5q-90 0 -151.5 -61t-61.5 -166q0 -106 60.5 -167
t152.5 -61z" />
    <glyph glyph-name="ampersand" unicode="&#x26;" horiz-adv-x="1429" 
d="M1360 53l-68 -76l-180 164q-74 -76 -185 -117.5t-243 -41.5q-112 0 -210 31.5t-170.5 88.5t-114.5 143.5t-42 190.5q0 135 66 234.5t156 142.5q-84 91 -84 223q0 142 98.5 227t257.5 85q82 0 144 -20.5t89 -39.5v-106q-98 69 -225 69q-108 0 -178 -54t-70 -159
q0 -74 37.5 -134.5t122.5 -137.5l537 -477q39 74 39 178q0 128 -67.5 221t-182.5 127l67 70q124 -34 207.5 -145.5t83.5 -270.5q0 -143 -71 -252zM696 80q220 0 340 129l-604 541q-68 -36 -118 -115t-50 -189q0 -112 58 -196t155 -127t219 -43z" />
    <glyph glyph-name="quotesingle" unicode="'" horiz-adv-x="497" 
d="M205 938l-15 389h119l-16 -389h-88z" />
    <glyph glyph-name="parenleft" unicode="(" horiz-adv-x="587" 
d="M485 -406q-80 66 -146.5 146.5t-124 186.5t-90 242t-32.5 288t32.5 288.5t90.5 243t125 188.5t149 150h144q-95 -80 -167 -163.5t-132 -189.5t-91.5 -237.5t-31.5 -283.5q0 -250 97 -459.5t325 -399.5h-148z" />
    <glyph glyph-name="parenright" unicode=")" horiz-adv-x="587" 
d="M-45 -406q228 190 325 399.5t97 459.5q0 152 -31.5 283.5t-91.5 237.5t-132 189.5t-167 163.5h143q64 -54 119.5 -115t108 -143t89.5 -172t59 -203.5t22 -236.5q0 -152 -32.5 -288t-90.5 -242t-124.5 -186.5t-146.5 -146.5h-147z" />
    <glyph glyph-name="asterisk" unicode="*" horiz-adv-x="720" 
d="M319 717l9 252l-211 -135l-41 71l223 117l-223 117l41 71l211 -135l-9 252h82l-8 -252l211 135l41 -71l-223 -117l223 -117l-41 -71l-211 135l8 -252h-82z" />
    <glyph glyph-name="plus" unicode="+" 
d="M555 47v369h-358v92h358v366h100v-366h361v-92h-361v-369h-100z" />
    <glyph glyph-name="comma" unicode="," horiz-adv-x="473" 
d="M207 147q46 0 73 -33t27 -94q0 -66 -35 -133t-86 -108h-77q44 48 72 106.5t28 98.5q-40 -6 -66 16.5t-26 60.5q0 39 25.5 62.5t64.5 23.5z" />
    <glyph glyph-name="hyphen" unicode="-" horiz-adv-x="544" 
d="M92 453v90h361v-90h-361z" />
    <glyph glyph-name="period" unicode="." horiz-adv-x="477" 
d="M240 -18q-37 0 -59.5 23.5t-22.5 60.5q0 35 23.5 58t58.5 23t57 -23.5t22 -60.5q0 -35 -22 -58t-57 -23z" />
    <glyph glyph-name="slash" unicode="/" horiz-adv-x="720" 
d="M0 -406l586 1733h112l-585 -1733h-113z" />
    <glyph glyph-name="zero" unicode="0" horiz-adv-x="1204" 
d="M602 -20q-122 0 -217 54t-154 149t-89.5 217.5t-30.5 265.5q0 142 30.5 263.5t89.5 216t154 148.5t217 54q98 0 179 -35.5t138.5 -98t97 -148.5t58.5 -186.5t19 -213.5q0 -115 -19 -217t-59 -188t-98 -148.5t-138.5 -97.5t-177.5 -35zM602 84q124 0 209.5 76t125.5 205
t40 301q0 173 -39.5 301t-125 204t-210.5 76q-122 0 -207.5 -75.5t-126.5 -204.5t-41 -301q0 -171 41.5 -301t127 -205.5t206.5 -75.5z" />
    <glyph glyph-name="one" unicode="1" horiz-adv-x="827" 
d="M428 0v1204l-311 -143v102l409 185h15v-1348h-113z" />
    <glyph glyph-name="two" unicode="2" horiz-adv-x="1046" 
d="M104 0v14l455 539q122 141 172.5 234.5t50.5 193.5q0 120 -69 193t-217 73q-170 0 -326 -121v119q135 103 338 103q192 0 291.5 -98t99.5 -271q0 -110 -51.5 -211t-194.5 -268l-348 -400h617v-100h-818z" />
    <glyph glyph-name="three" unicode="3" horiz-adv-x="1060" 
d="M571 795q168 0 268.5 -111t100.5 -287q0 -204 -127 -310.5t-344 -106.5q-109 0 -202 24t-136 55v121q49 -41 136.5 -68.5t193.5 -27.5q172 0 267 79.5t95 233.5t-85.5 234t-225.5 80q-132 0 -219 -66l-14 17l452 567h-584v98h773v-14l-418 -527q35 9 69 9z" />
    <glyph glyph-name="four" unicode="4" horiz-adv-x="1124" 
d="M756 0v272h-711v13l803 1063h12v-986h187v-90h-187v-272h-104zM219 362h537v713z" />
    <glyph glyph-name="five" unicode="5" horiz-adv-x="1060" 
d="M471 -20q-124 0 -211.5 25t-128.5 54v121q49 -40 136 -68t194 -28q173 0 267.5 87t94.5 249q0 150 -83.5 234.5t-233.5 84.5q-98 0 -178 -38t-127 -95l-19 6l101 715h581v-98h-489l-64 -457q92 66 228 66q181 0 291 -104.5t110 -309.5q0 -217 -121.5 -330.5
t-347.5 -113.5z" />
    <glyph glyph-name="six" unicode="6" horiz-adv-x="1148" 
d="M598 856q187 0 306.5 -112.5t119.5 -315.5q0 -197 -118.5 -322.5t-330.5 -125.5q-209 0 -329.5 126t-120.5 367q0 248 134.5 487.5t342.5 366.5h174q-169 -94 -312 -264t-196 -369q42 74 126 118t204 44zM575 80q153 0 242.5 94t89.5 246q0 151 -91 244.5t-241 93.5
q-148 0 -240.5 -96.5t-92.5 -241.5q0 -151 89.5 -245.5t243.5 -94.5z" />
    <glyph glyph-name="seven" unicode="7" horiz-adv-x="1089" 
d="M369 0q27 371 153.5 693t308.5 534h-720v100h923v-14q-123 -119 -222.5 -278t-165.5 -332t-106 -350t-53 -353h-118z" />
    <glyph glyph-name="eight" unicode="8" horiz-adv-x="1163" 
d="M584 -20q-197 0 -306.5 104t-109.5 268q0 132 64.5 223t160.5 117q-78 25 -134 100.5t-56 200.5q0 162 101.5 258.5t277.5 96.5q173 0 276 -96t103 -259q0 -126 -57.5 -199.5t-137.5 -99.5q98 -25 164.5 -114t66.5 -228q0 -162 -108 -267t-305 -105zM582 735
q125 0 194.5 66t69.5 190q0 116 -70 186t-194 70q-122 0 -193.5 -71.5t-71.5 -184.5q0 -124 69 -190t196 -66zM584 82q138 0 217.5 78t79.5 202q0 129 -79 204t-218 75q-138 0 -219.5 -75t-81.5 -204q0 -126 79.5 -203t221.5 -77z" />
    <glyph glyph-name="nine" unicode="9" horiz-adv-x="1140" 
d="M567 1348q214 0 331.5 -126.5t117.5 -361.5q0 -243 -129 -469.5t-352 -390.5h-164q181 130 312.5 292.5t182.5 321.5q-39 -57 -118.5 -97t-196.5 -40q-189 0 -310.5 112.5t-121.5 309.5q0 200 116.5 324.5t331.5 124.5zM565 578q154 0 243 88t89 241q0 154 -89.5 247
t-238.5 93q-157 0 -245 -91.5t-88 -250.5q0 -154 91 -240.5t238 -86.5z" />
    <glyph glyph-name="colon" unicode=":" horiz-adv-x="477" 
d="M240 606q-37 0 -59.5 23.5t-22.5 60.5q0 35 23.5 58.5t58.5 23.5t57 -23.5t22 -60.5q0 -36 -22 -59t-57 -23zM240 -18q-37 0 -59.5 23.5t-22.5 60.5q0 35 23.5 58t58.5 23t57 -23.5t22 -60.5q0 -35 -22 -58t-57 -23z" />
    <glyph glyph-name="semicolon" unicode=";" horiz-adv-x="466" 
d="M238 606q-37 0 -59.5 23.5t-22.5 60.5q0 35 23.5 58.5t58.5 23.5t57 -23.5t22 -60.5q0 -36 -22 -59t-57 -23zM217 147q46 0 73 -33t27 -94q0 -66 -33.5 -133t-84.5 -108h-78q44 48 72 106.5t28 98.5q-41 -6 -66.5 16t-25.5 61t24.5 62.5t63.5 23.5z" />
    <glyph glyph-name="less" unicode="&#x3c;" 
d="M1016 23l-821 430v20l821 430v-108l-649 -330l649 -332v-110z" />
    <glyph glyph-name="equal" unicode="=" 
d="M197 598v92h819v-92h-819zM197 236v92h819v-92h-819z" />
    <glyph glyph-name="greater" unicode="&#x3e;" 
d="M195 23v108l649 330l-649 332v110l821 -430v-20z" />
    <glyph glyph-name="question" unicode="?" horiz-adv-x="911" 
d="M334 340v350q76 2 139 17.5t115 48.5t81 90t29 135q0 134 -86.5 200t-218.5 66q-96 0 -182 -31.5t-127 -72.5v119q41 32 125 59t190 27q186 0 299 -94t113 -271q0 -90 -30.5 -160.5t-84 -113t-117 -65.5t-137.5 -28v-276h-108zM389 -18q-37 0 -59.5 23t-22.5 58
q0 37 23.5 60.5t58.5 23.5t57.5 -23.5t22.5 -60.5q0 -35 -22.5 -58t-57.5 -23z" />
    <glyph glyph-name="at" unicode="@" horiz-adv-x="2039" 
d="M1047 -424q-204 0 -375 61.5t-293.5 175t-191 284t-68.5 380.5q0 212 72.5 386t199 288t296.5 176t366 62q176 0 332 -53t276 -151.5t190 -252t70 -342.5q0 -256 -115.5 -399.5t-306.5 -143.5q-105 0 -161 45t-70 113q-41 -76 -123.5 -117t-175.5 -41q-163 0 -258 107
t-95 288q0 88 25 166.5t72 139.5t121.5 97t166.5 36q118 0 194.5 -52.5t107.5 -138.5l20 166h92l-45 -407q-16 -136 -16 -173q0 -141 153 -141q138 0 224 117.5t86 308.5q0 148 -43.5 271.5t-117.5 208t-173 143t-207.5 85.5t-224.5 27q-172 0 -322.5 -56.5t-262.5 -160
t-176.5 -260t-64.5 -346.5q0 -154 41 -284t115.5 -224.5t177 -161t227 -99t265.5 -32.5q105 0 210.5 19t188 48.5t137.5 54.5t92 48v-106q-22 -15 -72 -37.5t-132.5 -52t-197.5 -50t-230 -20.5zM981 139q139 0 216 98t77 255q0 84 -25 149.5t-85 108.5t-148 43
q-140 0 -219.5 -100.5t-79.5 -252.5q0 -145 70 -223t194 -78z" />
    <glyph glyph-name="A" unicode="A" horiz-adv-x="1329" 
d="M57 0l600 1348h21l594 -1348h-123l-137 315h-695l-139 -315h-121zM356 414h617l-307 714z" />
    <glyph glyph-name="B" unicode="B" horiz-adv-x="1204" 
d="M819 696q125 -19 202 -100.5t77 -230.5q0 -365 -465 -365h-443v1327h320q87 0 153.5 -7t135.5 -28.5t113.5 -58t73 -100t28.5 -150.5q0 -124 -56.5 -194.5t-138.5 -92.5zM897 979q0 48 -12.5 86.5t-32 64.5t-51 45t-63 29.5t-73.5 17t-77 8t-80 1.5h-205v-506h219
q51 0 87.5 2.5t84.5 10t80.5 24.5t62.5 44t45 71t15 102zM631 98q350 0 350 271q0 260 -338 260h-340v-531h328z" />
    <glyph glyph-name="C" unicode="C" horiz-adv-x="1296" 
d="M768 -20q-203 0 -351 86t-223 239t-75 357q0 201 73.5 354.5t221 242.5t350.5 89q123 0 225.5 -30t153.5 -69v-119q-163 113 -373 113q-250 0 -392 -155.5t-142 -421.5q0 -274 148.5 -426t393.5 -152q114 0 214.5 30.5t170.5 78.5v-121q-50 -35 -157.5 -65.5
t-237.5 -30.5z" />
    <glyph glyph-name="D" unicode="D" horiz-adv-x="1384" 
d="M461 1327q72 0 131 -3t127.5 -11.5t123.5 -23t113 -39.5t102 -59t84 -83t66 -110t41 -141.5t15 -176.5q0 -121 -24.5 -220.5t-65.5 -169t-102.5 -122t-127.5 -84t-149 -51t-158.5 -26.5t-163.5 -7h-283v1327h271zM457 98q84 0 155 6.5t143 24t129 45t107.5 72.5t84 104.5
t52.5 142.5t19 185q0 103 -19.5 184.5t-52 139t-84 99.5t-107 66.5t-129.5 39t-142 19.5t-154 5h-156v-1133h154z" />
    <glyph glyph-name="E" unicode="E" horiz-adv-x="1026" 
d="M190 0v1327h752v-98h-639v-504h479v-96h-479v-529h664v-100h-777z" />
    <glyph glyph-name="F" unicode="F" horiz-adv-x="1001" 
d="M190 0v1327h754v-98h-641v-529h485v-96h-485v-604h-113z" />
    <glyph glyph-name="G" unicode="G" horiz-adv-x="1456" 
d="M774 -20q-159 0 -285 51.5t-206 143t-122 215t-42 269.5q0 215 86 372.5t235 237t344 79.5q104 0 207 -25t151 -46.5t68 -35.5v-121q-73 50 -185 86.5t-234 36.5q-250 0 -402.5 -154t-152.5 -427q0 -166 61 -294.5t184 -204t293 -75.5q121 0 212 37.5t145.5 106t82 156
t29.5 196.5h-471v100h586v-57q0 -100 -15.5 -187.5t-56 -174t-104.5 -148t-168.5 -99.5t-239.5 -38z" />
    <glyph glyph-name="H" unicode="H" horiz-adv-x="1429" 
d="M190 0v1327h113v-602h823v602h113v-1327h-113v625h-823v-625h-113z" />
    <glyph glyph-name="I" unicode="I" horiz-adv-x="493" 
d="M190 0v1327h113v-1327h-113z" />
    <glyph glyph-name="J" unicode="J" horiz-adv-x="946" 
d="M379 -20q-168 0 -252 43v112q87 -51 235 -51q175 0 239.5 86t64.5 307v754h-357v96h471v-889q0 -116 -19.5 -197.5t-65 -142t-124 -89.5t-192.5 -29z" />
    <glyph glyph-name="K" unicode="K" 
d="M190 0v1327h113v-643l688 643h156l-709 -653l727 -674h-159l-703 659v-659h-113z" />
    <glyph glyph-name="L" unicode="L" horiz-adv-x="1069" 
d="M190 0v1327h113v-1227h684v-100h-797z" />
    <glyph glyph-name="M" unicode="M" horiz-adv-x="1705" 
d="M844 -20l-426 1054l-193 -1034h-114l260 1348h20l463 -1133l465 1133h20l256 -1348h-112l-193 1030l-426 -1050h-20z" />
    <glyph glyph-name="N" unicode="N" horiz-adv-x="1449" 
d="M1241 -20l-940 1110v-1090h-111v1348h21l940 -1112v1091h111v-1347h-21z" />
    <glyph glyph-name="O" unicode="O" horiz-adv-x="1529" 
d="M762 -20q-123 0 -227 35t-180 97.5t-129.5 148t-80 187.5t-26.5 216q0 144 43.5 268.5t124.5 217t205 145.5t276 53q154 0 277 -52.5t202.5 -144.5t121.5 -214t42 -263q0 -145 -42.5 -271t-123 -220.5t-205 -148.5t-278.5 -54zM766 88q244 0 386 162.5t142 421.5
q0 163 -63 292t-184.5 204t-282.5 75q-235 0 -381.5 -161.5t-146.5 -413.5q0 -164 62.5 -294.5t184 -208t283.5 -77.5z" />
    <glyph glyph-name="P" unicode="P" horiz-adv-x="1185" 
d="M584 1327q88 0 158.5 -10t139 -37.5t114.5 -72.5t74 -119t28 -173q0 -100 -30.5 -175.5t-79 -120.5t-118.5 -72.5t-139.5 -37t-152.5 -9.5h-275v-500h-113v1327h394zM571 596q410 0 410 319q0 90 -30.5 153t-88 97.5t-128 49t-163.5 14.5h-268v-633h268z" />
    <glyph glyph-name="Q" unicode="Q" horiz-adv-x="1529" 
d="M1489 39l-59 -74l-224 178q-174 -163 -444 -163q-123 0 -227 35t-180 97.5t-129.5 148t-80 187.5t-26.5 216q0 144 43.5 268.5t124.5 217t205 145.5t276 53q154 0 277 -52.5t202.5 -144.5t121.5 -214t42 -263q0 -274 -141 -461zM236 668q0 -164 62.5 -294.5t184 -208
t283.5 -77.5q212 0 350 125l-242 193l60 75l246 -196q114 153 114 387q0 163 -63 292t-184.5 204t-282.5 75q-235 0 -381.5 -161.5t-146.5 -413.5z" />
    <glyph glyph-name="R" unicode="R" horiz-adv-x="1208" 
d="M791 537l344 -537h-138l-325 520h-369v-520h-113v1327h424q217 0 342 -98t125 -301q0 -91 -25 -163t-68 -117t-91.5 -72t-105.5 -39zM604 618q76 0 137.5 15t113.5 48.5t81 95.5t29 149q0 157 -101.5 230t-273.5 73h-287v-611h301z" />
    <glyph glyph-name="S" unicode="S" horiz-adv-x="1003" 
d="M483 -20q-203 0 -342 81v119q64 -41 153 -69.5t185 -28.5q139 0 220 61.5t81 194.5q0 72 -34.5 125.5t-90 87t-122.5 61.5t-134 59.5t-122.5 70.5t-90 104t-34.5 151q0 163 104.5 257t284.5 94q169 0 305 -72v-121q-144 92 -297 92q-126 0 -203.5 -62.5t-77.5 -178.5
q0 -55 21.5 -98t58 -72t83.5 -53t99 -45.5t104.5 -44t99.5 -53.5t83.5 -69.5t58 -96.5t21.5 -130q0 -185 -110.5 -274.5t-303.5 -89.5z" />
    <glyph glyph-name="T" unicode="T" horiz-adv-x="1097" 
d="M492 0v1229h-410v98h934v-98h-410v-1229h-114z" />
    <glyph glyph-name="U" unicode="U" horiz-adv-x="1333" 
d="M668 -20q-261 0 -381.5 138t-120.5 412v797h115v-770q0 -247 92.5 -360t292.5 -113q196 0 292.5 112t96.5 361v770h112v-795q0 -286 -124 -419t-375 -133z" />
    <glyph glyph-name="V" unicode="V" horiz-adv-x="1339" 
d="M659 -18l-602 1345h127l488 -1118l487 1118h123l-602 -1345h-21z" />
    <glyph glyph-name="W" unicode="W" horiz-adv-x="1849" 
d="M539 -18l-465 1345h127l352 -1077l362 1077h21l362 -1077l355 1077h121l-463 -1345h-21l-364 1083l-367 -1083h-20z" />
    <glyph glyph-name="X" unicode="X" horiz-adv-x="1169" 
d="M57 0l457 680l-436 647h135l371 -563l379 563h131l-441 -647l459 -680h-133l-395 598l-396 -598h-131z" />
    <glyph glyph-name="Y" unicode="Y" horiz-adv-x="1171" 
d="M526 0v526l-469 801h127l402 -698l405 698h123l-473 -801v-526h-115z" />
    <glyph glyph-name="Z" unicode="Z" horiz-adv-x="1204" 
d="M113 0v20l798 1209h-768v98h947v-20l-797 -1207h807v-100h-987z" />
    <glyph glyph-name="bracketleft" unicode="[" horiz-adv-x="622" 
d="M190 -406v1733h398v-94h-289v-1542h289v-97h-398z" />
    <glyph glyph-name="backslash" unicode="\" horiz-adv-x="720" 
d="M608 -406l-585 1733h112l586 -1733h-113z" />
    <glyph glyph-name="bracketright" unicode="]" horiz-adv-x="622" 
d="M35 -406v97h289v1542h-289v94h397v-1733h-397z" />
    <glyph glyph-name="asciicircum" unicode="^" 
d="M180 686l414 662h20l418 -662h-121l-307 502l-305 -502h-119z" />
    <glyph glyph-name="underscore" unicode="_" horiz-adv-x="772" 
d="M0 -319v90h772v-90h-772z" />
    <glyph glyph-name="grave" unicode="`" horiz-adv-x="1050" 
d="M639 1065l-270 326h143l236 -326h-109z" />
    <glyph glyph-name="a" unicode="a" horiz-adv-x="993" 
d="M485 932q367 0 367 -357v-575h-98l-2 145q-86 -163 -320 -163q-161 0 -250.5 82.5t-89.5 214.5q0 141 96.5 222t274.5 81q167 0 280 -72v47q0 143 -64.5 214t-213.5 71q-150 0 -289 -82v100q133 72 309 72zM453 66q149 0 219.5 87t70.5 226v41q-41 35 -115 57.5
t-159 22.5q-128 0 -196 -56.5t-68 -160.5q0 -99 68.5 -158t179.5 -59z" />
    <glyph glyph-name="b" unicode="b" horiz-adv-x="1175" 
d="M627 -18q-136 0 -230.5 57.5t-138.5 144.5l-2 -184h-100v1358h108v-621q49 90 139.5 142.5t223.5 52.5q209 0 332.5 -125.5t123.5 -343.5q0 -219 -126 -350t-330 -131zM612 78q162 0 259.5 103t97.5 280t-98.5 277t-256.5 100q-168 0 -261 -108t-93 -277
q0 -172 95.5 -273.5t256.5 -101.5z" />
    <glyph glyph-name="c" unicode="c" horiz-adv-x="907" 
d="M557 -18q-211 0 -338 125t-127 346t125 350t342 129q134 0 240 -47v-109q-100 62 -232 62q-169 0 -264.5 -102.5t-95.5 -278.5t93.5 -277.5t264.5 -101.5q80 0 143.5 20.5t98.5 46.5v-106q-31 -20 -98 -38.5t-152 -18.5z" />
    <glyph glyph-name="d" unicode="d" horiz-adv-x="1175" 
d="M549 -18q-204 0 -330.5 129t-126.5 344q0 135 50.5 241t155 171t249.5 65q136 0 227 -54.5t137 -138.5v619h109v-1358h-98l-4 188q-39 -88 -133.5 -147t-235.5 -59zM563 78q116 0 196.5 53.5t117 138t36.5 191.5q0 165 -90 271t-260 106q-89 0 -159 -31.5t-112 -85.5
t-63.5 -121.5t-21.5 -144.5q0 -164 93.5 -270.5t262.5 -106.5z" />
    <glyph glyph-name="e" unicode="e" horiz-adv-x="1038" 
d="M571 -18q-234 0 -356.5 122.5t-122.5 344.5q0 221 116.5 352t321.5 131q190 0 303 -113.5t113 -316.5q0 -52 -4 -88h-735q6 -166 102.5 -251t276.5 -85q105 0 187.5 24t129.5 52v-101q-38 -25 -130 -48t-202 -23zM207 498h627q9 158 -76 250t-228 92q-141 0 -228 -93
t-95 -249z" />
    <glyph glyph-name="f" unicode="f" horiz-adv-x="696" 
d="M229 0v825h-155v90h155v95q0 187 76 279.5t244 92.5q103 0 176 -32v-99q-72 35 -166 35q-118 0 -169.5 -66.5t-51.5 -218.5v-86h287v-90h-287v-825h-109z" />
    <glyph glyph-name="g" unicode="g" horiz-adv-x="1169" 
d="M551 -424q-81 0 -155 12.5t-109 26.5v100q116 -43 262 -43q80 0 142 21t102 58t65.5 91.5t36 116.5t10.5 139v97q-41 -85 -130.5 -140t-225.5 -55q-211 0 -334 130t-123 337q0 204 119 334.5t332 130.5q137 0 231 -54.5t137 -142.5l4 180h99v-815q0 -95 -13 -171.5
t-46 -143.5t-84.5 -112t-132.5 -71t-187 -26zM563 98q163 0 252.5 104t91.5 265q0 175 -97.5 273t-254.5 98q-161 0 -254.5 -101.5t-93.5 -267.5q0 -168 96.5 -269.5t259.5 -101.5z" />
    <glyph glyph-name="h" unicode="h" horiz-adv-x="1087" 
d="M156 0v1358h108v-592q85 166 328 166q185 0 269.5 -101t84.5 -299v-532h-108v500q0 65 -7 114.5t-25 93t-48 71t-77 43.5t-110 16q-150 0 -228.5 -92t-78.5 -293v-453h-108z" />
    <glyph glyph-name="i" unicode="i" horiz-adv-x="446" 
d="M236 1171q-34 0 -57 21.5t-23 56.5t23.5 57.5t56.5 22.5q34 0 55.5 -22.5t21.5 -57.5t-22 -56.5t-55 -21.5zM182 0v825h-131v90h240v-915h-109z" />
    <glyph glyph-name="j" unicode="j" horiz-adv-x="446" 
d="M236 1171q-34 0 -57 21.5t-23 56.5t23.5 57.5t56.5 22.5q34 0 55.5 -22.5t21.5 -57.5t-22 -56.5t-55 -21.5zM2 -424q-80 0 -158 29v96q69 -33 144 -33q51 0 87.5 16t57 40t32 62t14.5 72t3 81v886h-131v90h240v-972q0 -79 -11 -138.5t-40.5 -114.5t-89.5 -84.5
t-148 -29.5z" />
    <glyph glyph-name="k" unicode="k" horiz-adv-x="937" 
d="M156 0v1358h108v-858l469 415h150l-494 -426l514 -489h-149l-490 477v-477h-108z" />
    <glyph glyph-name="l" unicode="l" horiz-adv-x="421" 
d="M156 0v1358h108v-1358h-108z" />
    <glyph glyph-name="m" unicode="m" horiz-adv-x="1634" 
d="M156 0v915h100l2 -149q35 77 111.5 121.5t193.5 44.5q235 0 289 -193q76 193 322 193q156 0 237.5 -83t81.5 -265v-584h-109v569q0 128 -52 198.5t-177 70.5q-78 0 -133.5 -28t-85.5 -80.5t-43.5 -118t-13.5 -150.5v-461h-109v569q0 128 -52 198.5t-177 70.5
q-78 0 -133.5 -28t-86 -80.5t-44 -118t-13.5 -150.5v-461h-108z" />
    <glyph glyph-name="n" unicode="n" horiz-adv-x="1087" 
d="M156 0v915h100l2 -165q33 85 118 133.5t216 48.5q185 0 269.5 -101t84.5 -299v-532h-108v500q0 82 -12 140t-41 105t-83 70t-133 23q-305 0 -305 -385v-453h-108z" />
    <glyph glyph-name="o" unicode="o" horiz-adv-x="1122" 
d="M559 -18q-214 0 -340.5 130.5t-126.5 342.5q0 210 126 343.5t343 133.5q211 0 340 -124.5t129 -340.5q0 -219 -130 -352t-341 -133zM557 78q157 0 257.5 103.5t100.5 281.5q0 174 -100 274.5t-256 100.5q-161 0 -256.5 -106.5t-95.5 -276.5q0 -174 97.5 -275.5
t252.5 -101.5z" />
    <glyph glyph-name="p" unicode="p" horiz-adv-x="1175" 
d="M156 -406v1321h100l4 -182q107 199 369 199q208 0 331 -126.5t123 -342.5q0 -221 -125 -351t-331 -130q-127 0 -220.5 52t-140.5 136l-2 -576h-108zM612 78q162 0 259.5 103t97.5 280q0 176 -98 276.5t-257 100.5q-166 0 -260 -108.5t-94 -276.5q0 -172 95.5 -273.5
t256.5 -101.5z" />
    <glyph glyph-name="q" unicode="q" horiz-adv-x="1175" 
d="M911 -424v602q-42 -83 -135.5 -139.5t-226.5 -56.5q-203 0 -330 128.5t-127 344.5q0 134 51 240.5t156 171.5t250 65q77 0 142 -18.5t108.5 -50t72 -63.5t46.5 -67l4 182h98v-1288zM563 78q116 0 196.5 53.5t117 138t36.5 191.5q0 165 -90 271t-260 106q-89 0 -159 -31.5
t-112 -85.5t-63.5 -121.5t-21.5 -144.5q0 -164 93.5 -270.5t262.5 -106.5z" />
    <glyph glyph-name="r" unicode="r" horiz-adv-x="663" 
d="M156 0v915h100l2 -170q32 82 112.5 134.5t192.5 52.5q46 0 64 -6v-101q-26 13 -78 13q-133 0 -209 -93.5t-76 -291.5v-453h-108z" />
    <glyph glyph-name="s" unicode="s" horiz-adv-x="765" 
d="M358 -18q-78 0 -145.5 16.5t-97.5 36.5v100q113 -65 237 -65q99 0 156 43.5t57 128.5q0 53 -24 90.5t-62.5 59t-85 38.5t-93 36.5t-85 45.5t-62.5 72.5t-24 111.5q0 116 74.5 176t202.5 60q123 0 206 -43v-98q-92 55 -200 55q-93 0 -137 -39.5t-44 -104.5q0 -48 24.5 -81
t63 -52.5t85.5 -36t94.5 -37t86 -48.5t63 -78t24.5 -119q0 -136 -86.5 -202t-227.5 -66z" />
    <glyph glyph-name="t" unicode="t" horiz-adv-x="718" 
d="M457 -18q-74 0 -125 20.5t-77.5 60t-37 86.5t-10.5 111v565h-135v19q72 49 132.5 128.5t92.5 160.5h18v-218h273v-90h-273v-544q0 -106 32 -155.5t126 -49.5q75 0 152 28v-94q-63 -28 -168 -28z" />
    <glyph glyph-name="u" unicode="u" horiz-adv-x="1032" 
d="M516 -18q-87 0 -153.5 23t-108 61t-67.5 92.5t-36 111t-10 123.5v522h109v-520q0 -319 268 -319q266 0 266 319v520h107v-522q0 -65 -9.5 -120.5t-35.5 -110.5t-67 -93.5t-108 -62.5t-155 -24z" />
    <glyph glyph-name="v" unicode="v" horiz-adv-x="980" 
d="M483 -18l-434 933h121l324 -737l321 737h117l-428 -933h-21z" />
    <glyph glyph-name="w" unicode="w" horiz-adv-x="1488" 
d="M444 -18l-381 933h121l273 -714l286 714h21l276 -714l269 714h116l-372 -933h-21l-278 720l-289 -720h-21z" />
    <glyph glyph-name="x" unicode="x" horiz-adv-x="983" 
d="M47 0l379 457l-369 458h133l304 -389l303 389h131l-369 -458l377 -457h-135l-309 381l-314 -381h-131z" />
    <glyph glyph-name="y" unicode="y" horiz-adv-x="980" 
d="M233 -406l199 447l-383 874h121l319 -753l326 753h117l-582 -1321h-117z" />
    <glyph glyph-name="z" unicode="z" horiz-adv-x="958" 
d="M92 0v20l604 805h-569v90h741v-20l-604 -803h613v-92h-785z" />
    <glyph glyph-name="braceleft" unicode="{" horiz-adv-x="755" 
d="M535 -424q-178 0 -267.5 88.5t-89.5 239.5q0 67 21 131.5t46.5 105.5t46.5 92t21 95q0 144 -155 157v27q72 5 113.5 42.5t41.5 107.5q0 44 -21 90t-46.5 82t-46.5 95.5t-21 127.5q0 153 89.5 242.5t267.5 89.5q118 0 186 -35v-94q-71 40 -176 40q-127 0 -193.5 -65.5
t-66.5 -185.5q0 -53 21 -107t46.5 -91.5t46.5 -87.5t21 -95q0 -76 -37 -118t-80 -52q44 -9 80.5 -54.5t36.5 -124.5q0 -46 -21 -99t-46.5 -94.5t-46.5 -99.5t-21 -112q0 -118 68.5 -183t191.5 -65q98 0 176 43v-96q-83 -37 -186 -37z" />
    <glyph glyph-name="bar" unicode="|" horiz-adv-x="460" 
d="M174 -406v1733h111v-1733h-111z" />
    <glyph glyph-name="braceright" unicode="}" horiz-adv-x="755" 
d="M221 -424q-103 0 -186 37v96q78 -43 176 -43q123 0 191.5 65t68.5 183q0 54 -21 112t-46.5 99.5t-46.5 94.5t-21 99q0 79 36.5 124.5t80.5 54.5q-43 10 -80 52t-37 118q0 45 21 95t46.5 87.5t46.5 91.5t21 107q0 120 -66.5 185.5t-193.5 65.5q-105 0 -176 -40v94
q68 35 186 35q178 0 267.5 -89.5t89.5 -242.5q0 -56 -14 -105t-34 -84t-40 -67t-34 -67.5t-14 -71.5q0 -70 42 -107.5t114 -42.5v-27q-156 -13 -156 -157q0 -36 14 -75t34 -75.5t40 -75.5t34 -91t14 -107q0 -151 -89.5 -239.5t-267.5 -88.5z" />
    <glyph glyph-name="asciitilde" unicode="~" 
d="M805 356q-58 0 -117.5 19.5t-100 43t-91 43t-93.5 19.5q-57 0 -87 -29.5t-33 -80.5h-86q2 89 55.5 143.5t153.5 54.5q54 0 109.5 -19.5t94.5 -43t92.5 -43t104.5 -19.5q59 0 89 30.5t32 80.5h88q-2 -89 -54.5 -144t-156.5 -55z" />
    <glyph glyph-name="uni00A0" unicode="&#xa0;" horiz-adv-x="430" 
 />
    <glyph glyph-name="exclamdown" unicode="&#xa1;" horiz-adv-x="540" 
d="M270 768q-34 0 -57 23.5t-23 58.5q0 36 22 59t58 23q37 0 59.5 -22.5t22.5 -59.5q0 -35 -23.5 -58.5t-58.5 -23.5zM211 -406l6 988h109l4 -988h-119z" />
    <glyph glyph-name="cent" unicode="&#xa2;" horiz-adv-x="968" 
d="M549 0v186q-191 9 -306.5 133t-115.5 338q0 210 114 339.5t308 140.5v190h76v-190q81 -1 146.5 -18.5t90.5 -31.5v-106q-93 57 -237 63v-763q76 3 143.5 23.5t101.5 43.5v-104q-27 -19 -96 -38t-149 -20v-186h-76zM549 281v763q-139 -11 -223 -114t-84 -268
q0 -163 80.5 -267t226.5 -114z" />
    <glyph glyph-name="sterling" unicode="&#xa3;" horiz-adv-x="1058" 
d="M117 0v14q144 151 200 262.5t56 219.5q0 59 -27 108h-209v96h156q-86 121 -86 254q0 178 109 286t307 108q87 0 160.5 -23t121.5 -57v-115q-118 92 -272 92q-150 0 -229.5 -79t-79.5 -222q0 -116 98 -244h369v-96h-328q22 -49 22 -108q0 -212 -176 -396h627v-100h-819z
" />
    <glyph glyph-name="currency" unicode="&#xa4;" 
d="M287 248l-74 74l123 122q-72 88 -72 205q0 108 68 203l-119 119l74 73l121 -120q90 67 198 67q109 0 199 -67l121 120l71 -73l-118 -121q69 -91 69 -201q0 -111 -71 -205l120 -122l-71 -74l-123 123q-94 -64 -197 -64q-106 0 -196 64zM606 391q107 0 182.5 74.5
t75.5 183.5q0 108 -76 184t-182 76q-108 0 -183 -76t-75 -184q0 -110 75 -184t183 -74z" />
    <glyph glyph-name="yen" unicode="&#xa5;" horiz-adv-x="1011" 
d="M449 0v420h-295v90h299l-76 145h-252v90h203l-295 582h125l348 -711l352 711h121l-297 -582h207v-90h-258l-74 -145h303v-90h-301v-420h-110z" />
    <glyph glyph-name="brokenbar" unicode="&#xa6;" horiz-adv-x="460" 
d="M174 649v678h111v-678h-111zM174 -406v678h111v-678h-111z" />
    <glyph glyph-name="section" unicode="&#xa7;" horiz-adv-x="899" 
d="M422 -424q-159 0 -270 49v103q131 -64 266 -64q264 0 264 230q0 47 -24.5 86t-65 65.5t-92 53t-105 49t-105 54t-92 67t-65 88.5t-24.5 118q0 111 55.5 181t128.5 96q-152 92 -152 258q0 88 28 154.5t78.5 106t115.5 58.5t143 19q122 0 221 -43v-97q-102 52 -217 52
q-121 0 -193.5 -60.5t-72.5 -179.5q0 -50 19.5 -91t53 -69t77 -52t91.5 -44.5t95.5 -41t91 -47t77 -58.5t53 -78t19.5 -103q0 -62 -19.5 -113.5t-52 -85t-66.5 -54.5t-69 -31q27 -12 52.5 -30.5t54.5 -48.5t47 -74.5t18 -96.5q0 -67 -17.5 -122.5t-57 -103t-113 -74
t-176.5 -26.5zM524 195q86 24 140.5 80t54.5 147q0 39 -15.5 72.5t-37 56t-61.5 46.5t-69.5 38t-81.5 36.5t-79 35.5q-64 -16 -114 -72.5t-50 -147.5q0 -97 65.5 -154t247.5 -138z" />
    <glyph glyph-name="dieresis" unicode="&#xa8;" horiz-adv-x="1034" 
d="M354 1171q-34 0 -56 21.5t-22 56.5t22.5 57.5t55.5 22.5q34 0 56 -22.5t22 -57.5t-22 -56.5t-56 -21.5zM727 1171q-34 0 -57 21.5t-23 56.5t23 57.5t57 22.5t56 -22.5t22 -57.5t-22.5 -56.5t-55.5 -21.5z" />
    <glyph glyph-name="copyright" unicode="&#xa9;" horiz-adv-x="1576" 
d="M786 -20q-185 0 -338 88.5t-241 245.5t-88 350q0 155 51.5 284.5t141.5 216.5t212 135t262 48q188 0 340 -82t242 -239t90 -363q0 -145 -52.5 -272.5t-142.5 -217.5t-214 -142t-263 -52zM788 68q118 0 222.5 44.5t181.5 122t121.5 190t44.5 241.5q0 185 -76 321.5
t-204 205.5t-290 69q-119 0 -222 -40.5t-180.5 -115t-122 -188t-44.5 -252.5q0 -173 75.5 -310t205.5 -212.5t288 -75.5zM809 326q-67 0 -126.5 20.5t-107.5 59.5t-76 104t-28 147q0 156 94.5 252.5t245.5 96.5q101 0 178 -35v-84q-80 41 -170 41q-117 0 -186.5 -71.5
t-69.5 -192.5q0 -128 73.5 -193t182.5 -65q99 0 176 47v-86q-72 -41 -186 -41z" />
    <glyph glyph-name="ordfeminine" unicode="&#xaa;" horiz-adv-x="768" 
d="M342 649q-117 0 -183.5 59t-66.5 160q0 104 72 163t198 59q116 0 203 -50v35q0 97 -42 146t-150 49t-213 -49v77q104 50 227 50q145 0 205.5 -67.5t60.5 -207.5v-409h-71l-7 100q-69 -115 -233 -115zM373 1020q-91 0 -140 -38.5t-49 -111.5q0 -147 176 -147
q205 0 205 219v27q-79 51 -192 51zM104 526h551v-80h-551v80z" />
    <glyph glyph-name="guillemotleft" unicode="&#xab;" horiz-adv-x="1013" 
d="M379 152l-287 321l287 322h129l-293 -322l293 -321h-129zM727 152l-287 321l287 322h129l-293 -322l293 -321h-129z" />
    <glyph glyph-name="logicalnot" unicode="&#xac;" 
d="M915 227v371h-718v94h819v-465h-101z" />
    <glyph glyph-name="uni00AD" unicode="&#xad;" horiz-adv-x="544" 
d="M92 453v90h361v-90h-361z" />
    <glyph glyph-name="registered" unicode="&#xae;" horiz-adv-x="1576" 
d="M786 -20q-185 0 -338 88.5t-241 245.5t-88 350q0 155 51.5 284.5t141.5 216.5t212 135t262 48q188 0 340 -82t242 -239t90 -363q0 -145 -52.5 -272.5t-142.5 -217.5t-214 -142t-263 -52zM788 68q118 0 222.5 44.5t181.5 122t121.5 190t44.5 241.5q0 185 -76 321.5
t-204 205.5t-290 69q-119 0 -222 -40.5t-180.5 -115t-122 -188t-44.5 -252.5q0 -173 75.5 -310t205.5 -212.5t288 -75.5zM573 334v663h205q45 0 79.5 -4t69.5 -17t57 -35t36 -59.5t14 -88.5q0 -160 -139 -191l160 -268h-103l-145 258h-148v-258h-86zM659 662h91
q113 0 154.5 24.5t41.5 106.5q0 76 -41.5 104.5t-148.5 28.5h-97v-264z" />
    <glyph glyph-name="macron" unicode="&#xaf;" horiz-adv-x="1030" 
d="M248 1192v90h575v-90h-575z" />
    <glyph glyph-name="degree" unicode="&#xb0;" horiz-adv-x="1103" 
d="M553 836q-110 0 -181 71.5t-71 184.5t71 184.5t181 71.5t181 -71.5t71 -184.5t-71 -184.5t-181 -71.5zM553 909q75 0 124.5 50t49.5 133q0 84 -49.5 134t-124.5 50t-125.5 -49.5t-50.5 -134.5q0 -84 49.5 -133.5t126.5 -49.5z" />
    <glyph glyph-name="plusminus" unicode="&#xb1;" 
d="M555 182v369h-358v94h358v365h100v-365h361v-94h-361v-369h-100zM197 0v92h819v-92h-819z" />
    <glyph glyph-name="uni00B2" unicode="&#xb2;" horiz-adv-x="751" 
d="M115 539v10l264 323q69 82 98 135.5t29 108.5q0 70 -39.5 111t-120.5 41q-107 0 -201 -78v90q84 68 209 68q119 0 181.5 -61.5t62.5 -166.5q0 -69 -30 -129.5t-115 -161.5l-185 -213h342v-77h-495z" />
    <glyph glyph-name="uni00B3" unicode="&#xb3;" horiz-adv-x="751" 
d="M342 518q-66 0 -124 15t-81 32v92q72 -57 197 -57q97 0 150 42.5t53 129.5q0 85 -48.5 129.5t-130.5 44.5q-67 0 -125 -37l-10 11l258 329h-338v78h475v-12l-243 -316q29 4 62.5 3.5t67.5 -17.5t61.5 -41.5t45 -69.5t17.5 -102q0 -124 -78 -189t-209 -65z" />
    <glyph glyph-name="acute" unicode="&#xb4;" horiz-adv-x="1050" 
d="M369 1065l233 326h146l-271 -326h-108z" />
    <glyph glyph-name="uni00B5" unicode="&#xb5;" horiz-adv-x="1085" 
d="M819 915h109v-915h-99l-4 176q-34 -83 -113 -129.5t-192 -46.5q-187 0 -256 113v-519h-108v1321h108v-485q0 -165 59 -251.5t201 -86.5q295 0 295 385v438z" />
    <glyph glyph-name="paragraph" unicode="&#xb6;" horiz-adv-x="1282" 
d="M590 -426q-64 0 -105 18v95q30 -15 74 -15q54 0 73 26t19 93v709h-20q-70 0 -122.5 3t-112 13t-102 27.5t-84 48t-66.5 73t-40.5 104.5t-15.5 140q0 66 11 120.5t28.5 95t47 72t59 52.5t73 36t79.5 23t87.5 12.5t89 5.5t92.5 1h549v-98h-182v-1635h-113v1635h-143v-1469
q0 -95 -42.5 -140.5t-133.5 -45.5z" />
    <glyph glyph-name="periodcentered" unicode="&#xb7;" horiz-adv-x="477" 
d="M240 391q-36 0 -59 24t-23 60q0 35 23.5 58.5t58.5 23.5t57 -23t22 -59q0 -37 -22 -60.5t-57 -23.5z" />
    <glyph glyph-name="cedilla" unicode="&#xb8;" horiz-adv-x="1054" 
d="M520 -424q-83 0 -135 27v75q61 -32 129 -32q121 0 121 102q0 51 -27 76.5t-76 25.5q-61 0 -100 -45l-20 13l65 215h78l-41 -131q20 10 51 10q68 0 112 -40t44 -124q0 -88 -55 -130t-146 -42z" />
    <glyph glyph-name="uni00B9" unicode="&#xb9;" horiz-adv-x="751" 
d="M358 539v696l-204 -94v78l286 129h9v-809h-91z" />
    <glyph glyph-name="ordmasculine" unicode="&#xba;" horiz-adv-x="839" 
d="M418 649q-155 0 -240.5 93.5t-85.5 250.5t87.5 256t244.5 99q154 0 239 -93t85 -254q0 -162 -88.5 -257t-241.5 -95zM422 729q108 0 169.5 72.5t61.5 199.5t-62 197t-169 70q-113 0 -174.5 -74t-61.5 -197q0 -127 62.5 -197.5t173.5 -70.5zM143 446v80h551v-80h-551z" />
    <glyph glyph-name="guillemotright" unicode="&#xbb;" horiz-adv-x="1013" 
d="M156 152l295 321l-295 322h129l286 -322l-286 -321h-129zM506 152l293 321l-293 322h129l287 -322l-287 -321h-129z" />
    <glyph glyph-name="onequarter" unicode="&#xbc;" horiz-adv-x="1699" 
d="M449 539h-91v696l-204 -94v78l286 129h9v-809zM1151 1327h113l-738 -1327h-112zM1548 225v-71h-112v-154h-84v154h-414v10l487 645h11v-584h112zM1352 600l-281 -375h281v375z" />
    <glyph glyph-name="onehalf" unicode="&#xbd;" horiz-adv-x="1699" 
d="M358 539v696l-204 -94v78l286 129h9v-809h-91zM414 0l737 1327h113l-738 -1327h-112zM1090 0v10l264 324q69 82 98 135.5t29 108.5q0 70 -39.5 110.5t-120.5 40.5q-107 0 -201 -78v90q84 68 209 68q119 0 181.5 -61t62.5 -166q0 -69 -30.5 -129t-115.5 -162l-184 -213
h342v-78h-495z" />
    <glyph glyph-name="threequarters" unicode="&#xbe;" horiz-adv-x="1699" 
d="M629 772q0 -124 -78 -189t-209 -65q-66 0 -124 15t-81 32v92q72 -57 197 -57q97 0 150 42.5t53 129.5q0 85 -48.5 129.5t-130.5 44.5q-67 0 -125 -37l-10 11l258 329h-338v78h475v-12l-243 -316q29 4 62.5 3.5t67.5 -17.5t61.5 -41.5t45 -69.5t17.5 -102zM1151 1327h113
l-738 -1327h-112zM1548 225v-71h-112v-154h-84v154h-414v10l487 645h11v-584h112zM1352 600l-281 -375h281v375z" />
    <glyph glyph-name="questiondown" unicode="&#xbf;" horiz-adv-x="911" 
d="M522 768q-35 0 -57.5 23.5t-22.5 58.5q0 37 22.5 59.5t57.5 22.5q36 0 59 -23t23 -59t-23 -59t-59 -23zM514 -424q-186 0 -300 94t-114 271q0 90 31 160.5t84.5 112.5t117 65t136.5 28v277h109v-351q-76 -2 -138.5 -17.5t-114.5 -48t-81 -89.5t-29 -135q0 -91 43 -153.5
t109 -89t151 -26.5q97 0 182.5 33t126.5 74v-119q-41 -32 -124.5 -59t-188.5 -27z" />
    <glyph glyph-name="Agrave" unicode="&#xc0;" horiz-adv-x="1329" 
d="M653 1468l-268 326h143l234 -326h-109zM57 0l600 1348h21l594 -1348h-123l-137 315h-695l-139 -315h-121zM356 414h617l-307 714z" />
    <glyph glyph-name="Aacute" unicode="&#xc1;" horiz-adv-x="1329" 
d="M580 1468l233 326h143l-268 -326h-108zM57 0l600 1348h21l594 -1348h-123l-137 315h-695l-139 -315h-121zM356 414h617l-307 714z" />
    <glyph glyph-name="Acircumflex" unicode="&#xc2;" horiz-adv-x="1329" 
d="M338 1468l328 344l329 -344h-123l-206 222l-203 -222h-125zM57 0l600 1348h21l594 -1348h-123l-137 315h-695l-139 -315h-121zM356 414h617l-307 714z" />
    <glyph glyph-name="Atilde" unicode="&#xc3;" horiz-adv-x="1329" 
d="M823 1528q-39 0 -75.5 13.5t-64.5 32t-54.5 37.5t-56 32.5t-58.5 13.5q-33 0 -55.5 -14.5t-32 -36.5t-13 -38t-3.5 -30h-80q0 87 47.5 144t134.5 57q49 0 95.5 -20t77 -44.5t68 -44.5t70.5 -20q31 0 52.5 13t31 34t13.5 38t4 34h80q0 -83 -47 -142t-134 -59zM57 0
l600 1348h21l594 -1348h-123l-137 315h-695l-139 -315h-121zM356 414h617l-307 714z" />
    <glyph glyph-name="Adieresis" unicode="&#xc4;" horiz-adv-x="1329" 
d="M481 1534q-39 0 -64.5 25.5t-25.5 64.5q0 40 26 66t64 26t64 -26t26 -66q0 -39 -25.5 -64.5t-64.5 -25.5zM854 1534q-39 0 -64.5 25.5t-25.5 64.5q0 40 26 66t64 26t64 -26t26 -66q0 -39 -25.5 -64.5t-64.5 -25.5zM57 0l600 1348h21l594 -1348h-123l-137 315h-695
l-139 -315h-121zM356 414h617l-307 714z" />
    <glyph glyph-name="Aring" unicode="&#xc5;" horiz-adv-x="1329" 
d="M57 0l549 1241q-69 18 -111 72t-42 131q0 93 61 152t154 59t153 -59t60 -152q0 -77 -42.5 -131t-111.5 -72l545 -1241h-123l-137 315h-695l-139 -315h-121zM668 1305q59 0 97 37.5t38 101.5q0 62 -38.5 100.5t-96.5 38.5q-60 0 -99 -37.5t-39 -101.5t39 -101.5t99 -37.5z
M356 414h617l-307 719z" />
    <glyph glyph-name="AE" unicode="&#xc6;" horiz-adv-x="1835" 
d="M57 0l592 1327h594l45 -98h-559l221 -504h441l45 -96h-441l232 -529h571l45 -100h-694l-137 315h-695l-139 -315h-121zM358 414h615l-307 712z" />
    <glyph glyph-name="Ccedilla" unicode="&#xc7;" horiz-adv-x="1296" 
d="M768 -20h-18l-25 -78q20 10 51 10q68 0 112 -40t44 -124q0 -88 -55 -130t-146 -42q-83 0 -135 27v75q61 -32 129 -32q121 0 121 102q0 51 -27 76.5t-76 25.5q-61 0 -100 -45l-20 13l51 166q-175 20 -300.5 110.5t-190 235.5t-64.5 332q0 201 73.5 354.5t221 242.5
t350.5 89q123 0 225.5 -30t153.5 -69v-119q-163 113 -373 113q-250 0 -392 -155.5t-142 -421.5q0 -274 148.5 -426t393.5 -152q114 0 214.5 30.5t170.5 78.5v-121q-50 -35 -157.5 -65.5t-237.5 -30.5z" />
    <glyph glyph-name="Egrave" unicode="&#xc8;" horiz-adv-x="1026" 
d="M614 1468l-268 326h143l234 -326h-109zM190 0v1327h752v-98h-639v-504h479v-96h-479v-529h664v-100h-777z" />
    <glyph glyph-name="Eacute" unicode="&#xc9;" horiz-adv-x="1026" 
d="M471 1468l234 326h143l-268 -326h-109zM190 0v1327h752v-98h-639v-504h479v-96h-479v-529h664v-100h-777z" />
    <glyph glyph-name="Ecircumflex" unicode="&#xca;" horiz-adv-x="1026" 
d="M242 1468l327 344l330 -344h-123l-207 222l-202 -222h-125zM190 0v1327h752v-98h-639v-504h479v-96h-479v-529h664v-100h-777z" />
    <glyph glyph-name="Edieresis" unicode="&#xcb;" horiz-adv-x="1026" 
d="M385 1534q-39 0 -64.5 25.5t-25.5 64.5q0 40 26 66t64 26t64 -26t26 -66q0 -39 -25.5 -64.5t-64.5 -25.5zM758 1534q-39 0 -64.5 25.5t-25.5 64.5q0 40 26 66t64 26t64 -26t26 -66q0 -39 -25.5 -64.5t-64.5 -25.5zM190 0v1327h752v-98h-639v-504h479v-96h-479v-529h664
v-100h-777z" />
    <glyph glyph-name="Igrave" unicode="&#xcc;" horiz-adv-x="493" 
d="M201 1468l-269 326h144l233 -326h-108zM190 0v1327h113v-1327h-113z" />
    <glyph glyph-name="Iacute" unicode="&#xcd;" horiz-adv-x="493" 
d="M190 1468l234 326h143l-268 -326h-109zM190 0v1327h113v-1327h-113z" />
    <glyph glyph-name="Icircumflex" unicode="&#xce;" horiz-adv-x="493" 
d="M-82 1468l328 344l329 -344h-122l-207 222l-203 -222h-125zM190 0v1327h113v-1327h-113z" />
    <glyph glyph-name="Idieresis" unicode="&#xcf;" horiz-adv-x="493" 
d="M61 1534q-39 0 -64.5 25.5t-25.5 64.5q0 40 26 66t64 26q39 0 65 -26t26 -66q0 -39 -26 -64.5t-65 -25.5zM434 1534q-39 0 -64.5 25.5t-25.5 64.5q0 40 26 66t64 26t64 -26t26 -66q0 -39 -25.5 -64.5t-64.5 -25.5zM190 0v1327h113v-1327h-113z" />
    <glyph glyph-name="Eth" unicode="&#xd0;" horiz-adv-x="1431" 
d="M508 1327q72 0 131 -3t127.5 -11.5t123.5 -23t113 -39.5t102 -59t84 -83t66 -110t41 -141.5t15 -176.5q0 -121 -24.5 -220.5t-65.5 -169t-102.5 -122t-127.5 -84t-149 -51t-158.5 -26.5t-163.5 -7h-282v629h-205v96h205v602h270zM504 98q84 0 155 6.5t143 24t129 45
t107.5 72.5t84 104.5t52.5 142.5t19 185q0 103 -19.5 184.5t-52 139t-84 99.5t-107 66.5t-129.5 39t-142 19.5t-154 5h-156v-506h326v-96h-326v-531h154z" />
    <glyph glyph-name="Ntilde" unicode="&#xd1;" horiz-adv-x="1449" 
d="M879 1528q-47 0 -92.5 20t-75.5 44.5t-68.5 44.5t-73.5 20q-33 0 -55.5 -14.5t-32 -36.5t-13 -38t-3.5 -30h-80q0 87 47.5 144t134.5 57q49 0 96 -20t77 -44.5t68 -44.5t71 -20q31 0 52.5 13t31 34t13 38t3.5 34h80q0 -83 -46.5 -142t-133.5 -59zM1241 -20l-940 1110
v-1090h-111v1348h21l940 -1112v1091h111v-1347h-21z" />
    <glyph glyph-name="Ograve" unicode="&#xd2;" horiz-adv-x="1529" 
d="M811 1468l-268 326h143l234 -326h-109zM762 -20q-123 0 -227 35t-180 97.5t-129.5 148t-80 187.5t-26.5 216q0 144 43.5 268.5t124.5 217t205 145.5t276 53q154 0 277 -52.5t202.5 -144.5t121.5 -214t42 -263q0 -145 -42.5 -271t-123 -220.5t-205 -148.5t-278.5 -54z
M766 88q244 0 386 162.5t142 421.5q0 163 -63 292t-184.5 204t-282.5 75q-235 0 -381.5 -161.5t-146.5 -413.5q0 -164 62.5 -294.5t184 -208t283.5 -77.5z" />
    <glyph glyph-name="Oacute" unicode="&#xd3;" horiz-adv-x="1529" 
d="M668 1468l233 326h143l-268 -326h-108zM762 -20q-123 0 -227 35t-180 97.5t-129.5 148t-80 187.5t-26.5 216q0 144 43.5 268.5t124.5 217t205 145.5t276 53q154 0 277 -52.5t202.5 -144.5t121.5 -214t42 -263q0 -145 -42.5 -271t-123 -220.5t-205 -148.5t-278.5 -54z
M766 88q244 0 386 162.5t142 421.5q0 163 -63 292t-184.5 204t-282.5 75q-235 0 -381.5 -161.5t-146.5 -413.5q0 -164 62.5 -294.5t184 -208t283.5 -77.5z" />
    <glyph glyph-name="Ocircumflex" unicode="&#xd4;" horiz-adv-x="1529" 
d="M438 1468l328 344l330 -344h-123l-207 222l-203 -222h-125zM762 -20q-123 0 -227 35t-180 97.5t-129.5 148t-80 187.5t-26.5 216q0 144 43.5 268.5t124.5 217t205 145.5t276 53q154 0 277 -52.5t202.5 -144.5t121.5 -214t42 -263q0 -145 -42.5 -271t-123 -220.5
t-205 -148.5t-278.5 -54zM766 88q244 0 386 162.5t142 421.5q0 163 -63 292t-184.5 204t-282.5 75q-235 0 -381.5 -161.5t-146.5 -413.5q0 -164 62.5 -294.5t184 -208t283.5 -77.5z" />
    <glyph glyph-name="Otilde" unicode="&#xd5;" horiz-adv-x="1529" 
d="M924 1528q-47 0 -92.5 20t-75.5 44.5t-68.5 44.5t-73.5 20q-33 0 -55.5 -14.5t-32 -36.5t-13 -38t-3.5 -30h-80q0 87 47.5 144t134.5 57q49 0 96 -20t77 -44.5t68 -44.5t71 -20q31 0 52.5 13t31 34t13 38t3.5 34h80q0 -83 -46.5 -142t-133.5 -59zM762 -20q-123 0 -227 35
t-180 97.5t-129.5 148t-80 187.5t-26.5 216q0 144 43.5 268.5t124.5 217t205 145.5t276 53q154 0 277 -52.5t202.5 -144.5t121.5 -214t42 -263q0 -145 -42.5 -271t-123 -220.5t-205 -148.5t-278.5 -54zM766 88q244 0 386 162.5t142 421.5q0 163 -63 292t-184.5 204
t-282.5 75q-235 0 -381.5 -161.5t-146.5 -413.5q0 -164 62.5 -294.5t184 -208t283.5 -77.5z" />
    <glyph glyph-name="Odieresis" unicode="&#xd6;" horiz-adv-x="1529" 
d="M582 1534q-39 0 -64.5 25.5t-25.5 64.5q0 40 26 66t64 26t64 -26t26 -66q0 -39 -25.5 -64.5t-64.5 -25.5zM954 1534q-39 0 -64.5 25.5t-25.5 64.5q0 40 26 66t64 26t64 -26t26 -66q0 -39 -25.5 -64.5t-64.5 -25.5zM762 -20q-123 0 -227 35t-180 97.5t-129.5 148
t-80 187.5t-26.5 216q0 144 43.5 268.5t124.5 217t205 145.5t276 53q154 0 277 -52.5t202.5 -144.5t121.5 -214t42 -263q0 -145 -42.5 -271t-123 -220.5t-205 -148.5t-278.5 -54zM766 88q244 0 386 162.5t142 421.5q0 163 -63 292t-184.5 204t-282.5 75
q-235 0 -381.5 -161.5t-146.5 -413.5q0 -164 62.5 -294.5t184 -208t283.5 -77.5z" />
    <glyph glyph-name="multiply" unicode="&#xd7;" 
d="M285 63l-74 74l324 326l-324 323l74 74l323 -323l322 323l74 -74l-324 -323l324 -326l-74 -74l-322 326z" />
    <glyph glyph-name="Oslash" unicode="&#xd8;" horiz-adv-x="1529" 
d="M119 -61l174 231q-174 189 -174 494q0 144 43.5 268.5t124.5 217t205 145.5t276 53q198 0 348 -91l113 150h121l-154 -207q105 -90 160 -226.5t55 -299.5q0 -145 -42.5 -271t-123 -220.5t-205 -148.5t-278.5 -54q-234 0 -393 124l-127 -165h-123zM367 268l680 897
q-118 78 -283 78q-235 0 -381.5 -161.5t-146.5 -413.5q0 -241 131 -400zM766 88q244 0 386 162.5t142 421.5q0 135 -44 248t-126 186l-686 -905q129 -113 328 -113z" />
    <glyph glyph-name="Ugrave" unicode="&#xd9;" horiz-adv-x="1333" 
d="M711 1468l-269 326h144l233 -326h-108zM668 -20q-261 0 -381.5 138t-120.5 412v797h115v-770q0 -247 92.5 -360t292.5 -113q196 0 292.5 112t96.5 361v770h112v-795q0 -286 -124 -419t-375 -133z" />
    <glyph glyph-name="Uacute" unicode="&#xda;" horiz-adv-x="1333" 
d="M567 1468l234 326h143l-268 -326h-109zM668 -20q-261 0 -381.5 138t-120.5 412v797h115v-770q0 -247 92.5 -360t292.5 -113q196 0 292.5 112t96.5 361v770h112v-795q0 -286 -124 -419t-375 -133z" />
    <glyph glyph-name="Ucircumflex" unicode="&#xdb;" horiz-adv-x="1333" 
d="M338 1468l328 344l329 -344h-123l-206 222l-203 -222h-125zM668 -20q-261 0 -381.5 138t-120.5 412v797h115v-770q0 -247 92.5 -360t292.5 -113q196 0 292.5 112t96.5 361v770h112v-795q0 -286 -124 -419t-375 -133z" />
    <glyph glyph-name="Udieresis" unicode="&#xdc;" horiz-adv-x="1333" 
d="M481 1534q-39 0 -64.5 25.5t-25.5 64.5q0 40 26 66t64 26t64 -26t26 -66q0 -39 -25.5 -64.5t-64.5 -25.5zM854 1534q-39 0 -64.5 25.5t-25.5 64.5q0 40 26 66t64 26t64 -26t26 -66q0 -39 -25.5 -64.5t-64.5 -25.5zM668 -20q-261 0 -381.5 138t-120.5 412v797h115v-770
q0 -247 92.5 -360t292.5 -113q196 0 292.5 112t96.5 361v770h112v-795q0 -286 -124 -419t-375 -133z" />
    <glyph glyph-name="Yacute" unicode="&#xdd;" horiz-adv-x="1171" 
d="M485 1468l234 326h143l-268 -326h-109zM526 0v526l-469 801h127l402 -698l405 698h123l-473 -801v-526h-115z" />
    <glyph glyph-name="Thorn" unicode="&#xde;" horiz-adv-x="1183" 
d="M584 1077q88 0 158.5 -10t139 -37t114.5 -71.5t74 -118.5t28 -172q0 -101 -30.5 -177t-79 -121t-118.5 -73t-139.5 -37.5t-152.5 -9.5h-275v-250h-113v1327h113v-250h281zM571 348q410 0 410 318q0 90 -30.5 153t-88 97t-128 48.5t-163.5 14.5h-268v-631h268z" />
    <glyph glyph-name="germandbls" unicode="&#xdf;" horiz-adv-x="1144" 
d="M748 571q126 8 213.5 -63.5t87.5 -212.5q0 -313 -344 -313q-70 0 -132 14.5t-92 30.5v98q104 -53 215 -53q130 0 186 55.5t56 161.5q0 57 -19 99t-51.5 65t-71 34t-83.5 11q-96 0 -164 -41l-14 16l286 352h-483v-1124h-109v1124h-155v90h155v95q0 187 76 279.5t244 92.5
q103 0 176 -32v-97q-76 33 -162 33q-123 0 -174 -66t-51 -223v-82h639v-20l-268 -346q8 11 39 22z" />
    <glyph glyph-name="agrave" unicode="&#xe0;" horiz-adv-x="993" 
d="M614 1065h-108l-270 326h143zM485 932q367 0 367 -357v-575h-98l-2 145q-86 -163 -320 -163q-161 0 -250.5 82.5t-89.5 214.5q0 141 96.5 222t274.5 81q167 0 280 -72v47q0 143 -64.5 214t-213.5 71q-150 0 -289 -82v100q133 72 309 72zM453 66q149 0 219.5 87t70.5 226
v41q-41 35 -115 57.5t-159 22.5q-128 0 -196 -56.5t-68 -160.5q0 -99 68.5 -158t179.5 -59z" />
    <glyph glyph-name="aacute" unicode="&#xe1;" horiz-adv-x="993" 
d="M748 1391l-271 -326h-108l233 326h146zM485 932q367 0 367 -357v-575h-98l-2 145q-86 -163 -320 -163q-161 0 -250.5 82.5t-89.5 214.5q0 141 96.5 222t274.5 81q167 0 280 -72v47q0 143 -64.5 214t-213.5 71q-150 0 -289 -82v100q133 72 309 72zM453 66q149 0 219.5 87
t70.5 226v41q-41 35 -115 57.5t-159 22.5q-128 0 -196 -56.5t-68 -160.5q0 -99 68.5 -158t179.5 -59z" />
    <glyph glyph-name="acircumflex" unicode="&#xe2;" horiz-adv-x="993" 
d="M485 1288l-202 -223h-125l327 344l330 -344h-123zM485 932q367 0 367 -357v-575h-98l-2 145q-86 -163 -320 -163q-161 0 -250.5 82.5t-89.5 214.5q0 141 96.5 222t274.5 81q167 0 280 -72v47q0 143 -64.5 214t-213.5 71q-150 0 -289 -82v100q133 72 309 72zM453 66
q149 0 219.5 87t70.5 226v41q-41 35 -115 57.5t-159 22.5q-128 0 -196 -56.5t-68 -160.5q0 -99 68.5 -158t179.5 -59z" />
    <glyph glyph-name="atilde" unicode="&#xe3;" horiz-adv-x="993" 
d="M334 1253q-33 0 -56 -14t-32.5 -35.5t-13 -38t-3.5 -30.5h-79q0 88 47.5 145t134.5 57q49 0 95.5 -20.5t77 -45t68 -45t70.5 -20.5q40 0 64.5 24t30 48t5.5 49h80q0 -85 -46.5 -144t-133.5 -59q-39 0 -75.5 13.5t-64.5 32t-54.5 37.5t-56 32.5t-58.5 13.5zM485 932
q367 0 367 -357v-575h-98l-2 145q-86 -163 -320 -163q-161 0 -250.5 82.5t-89.5 214.5q0 141 96.5 222t274.5 81q167 0 280 -72v47q0 143 -64.5 214t-213.5 71q-150 0 -289 -82v100q133 72 309 72zM453 66q149 0 219.5 87t70.5 226v41q-41 35 -115 57.5t-159 22.5
q-128 0 -196 -56.5t-68 -160.5q0 -99 68.5 -158t179.5 -59z" />
    <glyph glyph-name="adieresis" unicode="&#xe4;" horiz-adv-x="993" 
d="M301 1171q-34 0 -56 21.5t-22 56.5t22.5 57.5t55.5 22.5q34 0 56 -22.5t22 -57.5t-22 -56.5t-56 -21.5zM674 1171q-34 0 -57 21.5t-23 56.5t23 57.5t57 22.5t56 -22.5t22 -57.5t-22.5 -56.5t-55.5 -21.5zM485 932q367 0 367 -357v-575h-98l-2 145q-86 -163 -320 -163
q-161 0 -250.5 82.5t-89.5 214.5q0 141 96.5 222t274.5 81q167 0 280 -72v47q0 143 -64.5 214t-213.5 71q-150 0 -289 -82v100q133 72 309 72zM453 66q149 0 219.5 87t70.5 226v41q-41 35 -115 57.5t-159 22.5q-128 0 -196 -56.5t-68 -160.5q0 -99 68.5 -158t179.5 -59z" />
    <glyph glyph-name="aring" unicode="&#xe5;" horiz-adv-x="993" 
d="M487 1044q-93 0 -153 59t-60 152t60 152t153 59q94 0 153.5 -58.5t59.5 -152.5t-59.5 -152.5t-153.5 -58.5zM487 1395q-60 0 -97.5 -37.5t-37.5 -102.5t37.5 -102t97.5 -37q61 0 98.5 37t37.5 102q0 63 -38 101.5t-98 38.5zM485 932q367 0 367 -357v-575h-98l-2 145
q-86 -163 -320 -163q-161 0 -250.5 82.5t-89.5 214.5q0 141 96.5 222t274.5 81q167 0 280 -72v47q0 143 -64.5 214t-213.5 71q-150 0 -289 -82v100q133 72 309 72zM453 66q149 0 219.5 87t70.5 226v41q-41 35 -115 57.5t-159 22.5q-128 0 -196 -56.5t-68 -160.5
q0 -99 68.5 -158t179.5 -59z" />
    <glyph glyph-name="ae" unicode="&#xe6;" horiz-adv-x="1683" 
d="M1591 502q0 -52 -4 -88h-735q6 -166 102.5 -251t276.5 -85q105 0 187.5 24t129.5 52v-101q-38 -25 -129.5 -48t-201.5 -23q-159 0 -269 57.5t-151 161.5q-11 -37 -35 -72t-65 -70t-107.5 -56t-149.5 -21q-167 0 -257.5 82.5t-90.5 214.5q0 141 97 222t276 81
q165 0 278 -72v47q0 143 -64 214t-212 71q-152 0 -291 -82v100q133 72 311 72q271 0 326 -205q45 95 141 150t222 55q190 0 302.5 -113.5t112.5 -316.5zM1479 498q9 158 -75.5 250t-227.5 92q-141 0 -228.5 -93t-95.5 -249h627zM453 66q149 0 219.5 87t70.5 226v41
q-41 35 -115 57.5t-159 22.5q-128 0 -196 -56.5t-68 -160.5q0 -99 68.5 -158t179.5 -59z" />
    <glyph glyph-name="ccedilla" unicode="&#xe7;" horiz-adv-x="907" 
d="M557 -18h-25l-24 -80q20 10 51 10q68 0 112 -40t44 -124q0 -88 -55 -130t-146 -42q-83 0 -135 27v75q61 -32 129 -32q121 0 121 102q0 51 -27 76.5t-76 25.5q-61 0 -100 -45l-20 13l53 172q-170 28 -268.5 149t-98.5 314q0 221 125 350t342 129q134 0 240 -47v-109
q-100 62 -232 62q-169 0 -264.5 -102.5t-95.5 -278.5t93.5 -277.5t264.5 -101.5q80 0 143.5 20.5t98.5 46.5v-106q-31 -20 -98 -38.5t-152 -18.5z" />
    <glyph glyph-name="egrave" unicode="&#xe8;" horiz-adv-x="1038" 
d="M549 1065l-270 326h143l235 -326h-108zM571 -18q-234 0 -356.5 122.5t-122.5 344.5q0 221 116.5 352t321.5 131q190 0 303 -113.5t113 -316.5q0 -52 -4 -88h-735q6 -166 102.5 -251t276.5 -85q105 0 187.5 24t129.5 52v-101q-38 -25 -130 -48t-202 -23zM207 498h627
q9 158 -76 250t-228 92q-141 0 -228 -93t-95 -249z" />
    <glyph glyph-name="eacute" unicode="&#xe9;" horiz-adv-x="1038" 
d="M412 1065l233 326h146l-271 -326h-108zM571 -18q-234 0 -356.5 122.5t-122.5 344.5q0 221 116.5 352t321.5 131q190 0 303 -113.5t113 -316.5q0 -52 -4 -88h-735q6 -166 102.5 -251t276.5 -85q105 0 187.5 24t129.5 52v-101q-38 -25 -130 -48t-202 -23zM207 498h627
q9 158 -76 250t-228 92q-141 0 -228 -93t-95 -249z" />
    <glyph glyph-name="ecircumflex" unicode="&#xea;" horiz-adv-x="1038" 
d="M201 1065l327 344l330 -344h-123l-207 223l-202 -223h-125zM571 -18q-234 0 -356.5 122.5t-122.5 344.5q0 221 116.5 352t321.5 131q190 0 303 -113.5t113 -316.5q0 -52 -4 -88h-735q6 -166 102.5 -251t276.5 -85q105 0 187.5 24t129.5 52v-101q-38 -25 -130 -48
t-202 -23zM207 498h627q9 158 -76 250t-228 92q-141 0 -228 -93t-95 -249z" />
    <glyph glyph-name="edieresis" unicode="&#xeb;" horiz-adv-x="1038" 
d="M344 1171q-34 0 -56 21.5t-22 56.5t22.5 57.5t55.5 22.5q34 0 56 -22.5t22 -57.5t-22 -56.5t-56 -21.5zM717 1171q-34 0 -57 21.5t-23 56.5t23 57.5t57 22.5t56 -22.5t22 -57.5t-22.5 -56.5t-55.5 -21.5zM571 -18q-234 0 -356.5 122.5t-122.5 344.5q0 221 116.5 352
t321.5 131q190 0 303 -113.5t113 -316.5q0 -52 -4 -88h-735q6 -166 102.5 -251t276.5 -85q105 0 187.5 24t129.5 52v-101q-38 -25 -130 -48t-202 -23zM207 498h627q9 158 -76 250t-228 92q-141 0 -228 -93t-95 -249z" />
    <glyph glyph-name="igrave" unicode="&#xec;" horiz-adv-x="446" 
d="M246 1065l-271 326h144l235 -326h-108zM182 0v825h-131v90h240v-915h-109z" />
    <glyph glyph-name="iacute" unicode="&#xed;" horiz-adv-x="446" 
d="M45 1065l234 326h145l-270 -326h-109zM182 0v825h-131v90h240v-915h-109z" />
    <glyph glyph-name="icircumflex" unicode="&#xee;" horiz-adv-x="446" 
d="M-96 1065l327 344l330 -344h-123l-207 223l-202 -223h-125zM182 0v825h-131v90h240v-915h-109z" />
    <glyph glyph-name="idieresis" unicode="&#xef;" horiz-adv-x="446" 
d="M47 1171q-34 0 -56 21.5t-22 56.5t22.5 57.5t55.5 22.5q34 0 56 -22.5t22 -57.5t-22 -56.5t-56 -21.5zM420 1171q-34 0 -57 21.5t-23 56.5t23 57.5t57 22.5t56 -22.5t22 -57.5t-22.5 -56.5t-55.5 -21.5zM182 0v825h-131v90h240v-915h-109z" />
    <glyph glyph-name="eth" unicode="&#xf0;" horiz-adv-x="1124" 
d="M559 -18q-214 0 -340.5 130.5t-126.5 342.5q0 210 123 343.5t334 133.5q138 0 225 -53t123 -127q-31 115 -111 220.5t-184 178.5l-176 -102l-41 65l143 84q-97 59 -245 92v92q85 -17 175 -54.5t154 -80.5l185 109l43 -68l-156 -88q348 -264 348 -690q0 -253 -130 -390.5
t-343 -137.5zM559 78q157 0 256.5 103.5t99.5 281.5q0 169 -96 272t-260 103q-161 0 -256.5 -106.5t-95.5 -276.5q0 -174 97.5 -275.5t254.5 -101.5z" />
    <glyph glyph-name="ntilde" unicode="&#xf1;" horiz-adv-x="1087" 
d="M731 1124q-39 0 -75.5 13.5t-64.5 32t-54.5 37.5t-56 32.5t-58.5 13.5q-33 0 -56 -14t-32.5 -35.5t-13 -38t-3.5 -30.5h-79q0 88 47.5 145t134.5 57q49 0 95.5 -20.5t77 -45t68 -45t70.5 -20.5q40 0 64.5 24t30 48t5.5 49h80q0 -85 -46.5 -144t-133.5 -59zM156 0v915h100
l2 -165q33 85 118 133.5t216 48.5q185 0 269.5 -101t84.5 -299v-532h-108v500q0 82 -12 140t-41 105t-83 70t-133 23q-305 0 -305 -385v-453h-108z" />
    <glyph glyph-name="ograve" unicode="&#xf2;" horiz-adv-x="1122" 
d="M578 1065l-271 326h144l235 -326h-108zM559 -18q-214 0 -340.5 130.5t-126.5 342.5q0 210 126 343.5t343 133.5q211 0 340 -124.5t129 -340.5q0 -219 -130 -352t-341 -133zM557 78q157 0 257.5 103.5t100.5 281.5q0 174 -100 274.5t-256 100.5q-161 0 -256.5 -106.5
t-95.5 -276.5q0 -174 97.5 -275.5t252.5 -101.5z" />
    <glyph glyph-name="oacute" unicode="&#xf3;" horiz-adv-x="1122" 
d="M440 1065l234 326h145l-270 -326h-109zM559 -18q-214 0 -340.5 130.5t-126.5 342.5q0 210 126 343.5t343 133.5q211 0 340 -124.5t129 -340.5q0 -219 -130 -352t-341 -133zM557 78q157 0 257.5 103.5t100.5 281.5q0 174 -100 274.5t-256 100.5q-161 0 -256.5 -106.5
t-95.5 -276.5q0 -174 97.5 -275.5t252.5 -101.5z" />
    <glyph glyph-name="ocircumflex" unicode="&#xf4;" horiz-adv-x="1122" 
d="M229 1065l328 344l330 -344h-123l-207 223l-203 -223h-125zM559 -18q-214 0 -340.5 130.5t-126.5 342.5q0 210 126 343.5t343 133.5q211 0 340 -124.5t129 -340.5q0 -219 -130 -352t-341 -133zM557 78q157 0 257.5 103.5t100.5 281.5q0 174 -100 274.5t-256 100.5
q-161 0 -256.5 -106.5t-95.5 -276.5q0 -174 97.5 -275.5t252.5 -101.5z" />
    <glyph glyph-name="otilde" unicode="&#xf5;" horiz-adv-x="1122" 
d="M715 1124q-39 0 -75.5 13.5t-64.5 32t-54.5 37.5t-56 32.5t-58.5 13.5q-33 0 -56 -14t-32.5 -35.5t-13 -38t-3.5 -30.5h-80q0 88 47.5 145t134.5 57q49 0 96 -20.5t77 -45t68 -45t71 -20.5q40 0 64.5 24t30 48t5.5 49h80q0 -85 -46.5 -144t-133.5 -59zM559 -18
q-214 0 -340.5 130.5t-126.5 342.5q0 210 126 343.5t343 133.5q211 0 340 -124.5t129 -340.5q0 -219 -130 -352t-341 -133zM557 78q157 0 257.5 103.5t100.5 281.5q0 174 -100 274.5t-256 100.5q-161 0 -256.5 -106.5t-95.5 -276.5q0 -174 97.5 -275.5t252.5 -101.5z" />
    <glyph glyph-name="odieresis" unicode="&#xf6;" horiz-adv-x="1122" 
d="M373 1171q-34 0 -56 21.5t-22 56.5t22.5 57.5t55.5 22.5q34 0 56 -22.5t22 -57.5t-22 -56.5t-56 -21.5zM745 1171q-34 0 -56.5 21.5t-22.5 56.5t22.5 57.5t56.5 22.5t56 -22.5t22 -57.5t-22.5 -56.5t-55.5 -21.5zM559 -18q-214 0 -340.5 130.5t-126.5 342.5
q0 210 126 343.5t343 133.5q211 0 340 -124.5t129 -340.5q0 -219 -130 -352t-341 -133zM557 78q157 0 257.5 103.5t100.5 281.5q0 174 -100 274.5t-256 100.5q-161 0 -256.5 -106.5t-95.5 -276.5q0 -174 97.5 -275.5t252.5 -101.5z" />
    <glyph glyph-name="divide" unicode="&#xf7;" 
d="M610 727q-35 0 -55 22t-20 56t21.5 56t53.5 22q34 0 55 -22t21 -56q0 -35 -20.5 -56.5t-55.5 -21.5zM193 416v92h819v-92h-819zM610 45q-35 0 -55 22t-20 56t21.5 56t53.5 22q34 0 55 -22t21 -56t-20.5 -56t-55.5 -22z" />
    <glyph glyph-name="oslash" unicode="&#xf8;" horiz-adv-x="1122" 
d="M125 -61l115 155q-71 62 -109.5 155t-38.5 206q0 210 126 343.5t343 133.5q144 0 252 -60l78 105h104l-112 -152q147 -128 147 -358q0 -219 -130 -352t-341 -133q-144 0 -252 63l-78 -106h-104zM303 182l449 602q-79 54 -193 54q-161 0 -256.5 -106.5t-95.5 -276.5
q0 -174 96 -273zM557 78q157 0 257.5 103.5t100.5 281.5q0 169 -98 270l-448 -602q74 -53 188 -53z" />
    <glyph glyph-name="ugrave" unicode="&#xf9;" horiz-adv-x="1032" 
d="M537 1065l-271 326h144l235 -326h-108zM516 -18q-87 0 -153.5 23t-108 61t-67.5 92.5t-36 111t-10 123.5v522h109v-520q0 -319 268 -319q266 0 266 319v520h107v-522q0 -65 -9.5 -120.5t-35.5 -110.5t-67 -93.5t-108 -62.5t-155 -24z" />
    <glyph glyph-name="uacute" unicode="&#xfa;" horiz-adv-x="1032" 
d="M399 1065l234 326h145l-270 -326h-109zM516 -18q-87 0 -153.5 23t-108 61t-67.5 92.5t-36 111t-10 123.5v522h109v-520q0 -319 268 -319q266 0 266 319v520h107v-522q0 -65 -9.5 -120.5t-35.5 -110.5t-67 -93.5t-108 -62.5t-155 -24z" />
    <glyph glyph-name="ucircumflex" unicode="&#xfb;" horiz-adv-x="1032" 
d="M188 1065l328 344l330 -344h-123l-207 223l-203 -223h-125zM516 -18q-87 0 -153.5 23t-108 61t-67.5 92.5t-36 111t-10 123.5v522h109v-520q0 -319 268 -319q266 0 266 319v520h107v-522q0 -65 -9.5 -120.5t-35.5 -110.5t-67 -93.5t-108 -62.5t-155 -24z" />
    <glyph glyph-name="udieresis" unicode="&#xfc;" horiz-adv-x="1032" 
d="M332 1171q-34 0 -56 21.5t-22 56.5t22.5 57.5t55.5 22.5q34 0 56 -22.5t22 -57.5t-22 -56.5t-56 -21.5zM705 1171q-34 0 -57 21.5t-23 56.5t23 57.5t57 22.5t55.5 -22.5t21.5 -57.5t-22 -56.5t-55 -21.5zM516 -18q-87 0 -153.5 23t-108 61t-67.5 92.5t-36 111t-10 123.5
v522h109v-520q0 -319 268 -319q266 0 266 319v520h107v-522q0 -65 -9.5 -120.5t-35.5 -110.5t-67 -93.5t-108 -62.5t-155 -24z" />
    <glyph glyph-name="yacute" unicode="&#xfd;" horiz-adv-x="980" 
d="M371 1065l233 326h146l-271 -326h-108zM233 -406l199 447l-383 874h121l319 -753l326 753h117l-582 -1321h-117z" />
    <glyph glyph-name="thorn" unicode="&#xfe;" horiz-adv-x="1175" 
d="M156 -406v1764h108v-623q106 197 365 197q208 0 331 -126.5t123 -342.5q0 -221 -125 -351t-331 -130q-127 0 -220.5 52t-140.5 136l-2 -576h-108zM612 78q162 0 259.5 103t97.5 280q0 176 -98 276.5t-257 100.5q-166 0 -260 -108.5t-94 -276.5q0 -172 95.5 -273.5
t256.5 -101.5z" />
    <glyph glyph-name="ydieresis" unicode="&#xff;" horiz-adv-x="980" 
d="M303 1171q-34 0 -56 21.5t-22 56.5t22.5 57.5t55.5 22.5q34 0 56 -22.5t22 -57.5t-22 -56.5t-56 -21.5zM676 1171q-34 0 -57 21.5t-23 56.5t23 57.5t57 22.5t56 -22.5t22 -57.5t-22.5 -56.5t-55.5 -21.5zM233 -406l199 447l-383 874h121l319 -753l326 753h117l-582 -1321
h-117z" />
    <glyph glyph-name="Amacron" unicode="&#x100;" horiz-adv-x="1329" 
d="M379 1579v92h575v-92h-575zM57 0l600 1348h21l594 -1348h-123l-137 315h-695l-139 -315h-121zM356 414h617l-307 714z" />
    <glyph glyph-name="amacron" unicode="&#x101;" horiz-adv-x="993" 
d="M774 1282v-90h-575v90h575zM485 932q367 0 367 -357v-575h-98l-2 145q-86 -163 -320 -163q-161 0 -250.5 82.5t-89.5 214.5q0 141 96.5 222t274.5 81q167 0 280 -72v47q0 143 -64.5 214t-213.5 71q-150 0 -289 -82v100q133 72 309 72zM453 66q149 0 219.5 87t70.5 226v41
q-41 35 -115 57.5t-159 22.5q-128 0 -196 -56.5t-68 -160.5q0 -99 68.5 -158t179.5 -59z" />
    <glyph glyph-name="Abreve" unicode="&#x102;" horiz-adv-x="1329" 
d="M666 1450q-180 0 -256 88t-76 244v12h90q0 -129 57.5 -188.5t184.5 -59.5q128 0 184.5 59t56.5 189h90v-12q0 -332 -331 -332zM57 0l600 1348h21l594 -1348h-123l-137 315h-695l-139 -315h-121zM356 414h617l-307 714z" />
    <glyph glyph-name="abreve" unicode="&#x103;" horiz-adv-x="993" 
d="M485 1047q-93 0 -159 24.5t-102 71t-52 104t-16 131.5v13h86q0 -131 58.5 -192.5t184.5 -61.5q128 0 186 61.5t58 192.5h86v-13q0 -331 -330 -331zM485 932q367 0 367 -357v-575h-98l-2 145q-86 -163 -320 -163q-161 0 -250.5 82.5t-89.5 214.5q0 141 96.5 222t274.5 81
q167 0 280 -72v47q0 143 -64.5 214t-213.5 71q-150 0 -289 -82v100q133 72 309 72zM453 66q149 0 219.5 87t70.5 226v41q-41 35 -115 57.5t-159 22.5q-128 0 -196 -56.5t-68 -160.5q0 -99 68.5 -158t179.5 -59z" />
    <glyph glyph-name="Aogonek" unicode="&#x104;" horiz-adv-x="1329" 
d="M1126 -424q-85 0 -137.5 42.5t-52.5 133.5q0 88 56 158t151 104l-131 301h-695l-139 -315h-121l600 1348h21l592 -1348q-118 -29 -183 -92t-65 -141q0 -59 31 -88t86 -29q58 0 114 31v-78q-54 -27 -127 -27zM356 414h617l-307 714z" />
    <glyph glyph-name="aogonek" unicode="&#x105;" horiz-adv-x="993" 
d="M852 0q-118 -35 -179 -95t-61 -138q0 -117 115 -117q65 0 115 31v-78q-54 -27 -125 -27q-86 0 -138.5 42.5t-52.5 133.5q0 93 62 165t166 103l-2 125q-86 -163 -320 -163q-161 0 -250.5 82.5t-89.5 214.5q0 141 96.5 222t274.5 81q167 0 280 -72v47q0 143 -64.5 214
t-213.5 71q-150 0 -289 -82v100q133 72 309 72q367 0 367 -357v-575zM453 66q149 0 219.5 87t70.5 226v41q-41 35 -115 57.5t-159 22.5q-128 0 -196 -56.5t-68 -160.5q0 -99 68.5 -158t179.5 -59z" />
    <glyph glyph-name="Cacute" unicode="&#x106;" horiz-adv-x="1296" 
d="M662 1468l233 326h143l-268 -326h-108zM768 -20q-203 0 -351 86t-223 239t-75 357q0 201 73.5 354.5t221 242.5t350.5 89q123 0 225.5 -30t153.5 -69v-119q-163 113 -373 113q-250 0 -392 -155.5t-142 -421.5q0 -274 148.5 -426t393.5 -152q114 0 214.5 30.5t170.5 78.5
v-121q-50 -35 -157.5 -65.5t-237.5 -30.5z" />
    <glyph glyph-name="cacute" unicode="&#x107;" horiz-adv-x="907" 
d="M440 1065l234 326h145l-270 -326h-109zM557 -18q-211 0 -338 125t-127 346t125 350t342 129q134 0 240 -47v-109q-100 62 -232 62q-169 0 -264.5 -102.5t-95.5 -278.5t93.5 -277.5t264.5 -101.5q80 0 143.5 20.5t98.5 46.5v-106q-31 -20 -98 -38.5t-152 -18.5z" />
    <glyph glyph-name="Ccircumflex" unicode="&#x108;" horiz-adv-x="1296" 
d="M432 1468l328 344l330 -344h-123l-207 222l-203 -222h-125zM768 -20q-203 0 -351 86t-223 239t-75 357q0 201 73.5 354.5t221 242.5t350.5 89q123 0 225.5 -30t153.5 -69v-119q-163 113 -373 113q-250 0 -392 -155.5t-142 -421.5q0 -274 148.5 -426t393.5 -152
q114 0 214.5 30.5t170.5 78.5v-121q-50 -35 -157.5 -65.5t-237.5 -30.5z" />
    <glyph glyph-name="ccircumflex" unicode="&#x109;" horiz-adv-x="907" 
d="M229 1065l328 344l330 -344h-123l-207 223l-203 -223h-125zM557 -18q-211 0 -338 125t-127 346t125 350t342 129q134 0 240 -47v-109q-100 62 -232 62q-169 0 -264.5 -102.5t-95.5 -278.5t93.5 -277.5t264.5 -101.5q80 0 143.5 20.5t98.5 46.5v-106q-31 -20 -98 -38.5
t-152 -18.5z" />
    <glyph glyph-name="Cdotaccent" unicode="&#x10a;" horiz-adv-x="1296" 
d="M762 1536q-38 0 -63 25t-25 63q0 39 25.5 63.5t62.5 24.5q39 0 63.5 -24.5t24.5 -63.5t-25.5 -63.5t-62.5 -24.5zM768 -20q-203 0 -351 86t-223 239t-75 357q0 201 73.5 354.5t221 242.5t350.5 89q123 0 225.5 -30t153.5 -69v-119q-163 113 -373 113q-250 0 -392 -155.5
t-142 -421.5q0 -274 148.5 -426t393.5 -152q114 0 214.5 30.5t170.5 78.5v-121q-50 -35 -157.5 -65.5t-237.5 -30.5z" />
    <glyph glyph-name="cdotaccent" unicode="&#x10b;" horiz-adv-x="907" 
d="M559 1171q-34 0 -56 21.5t-22 56.5t22.5 57.5t55.5 22.5q34 0 57 -22.5t23 -57.5t-23 -56.5t-57 -21.5zM557 -18q-211 0 -338 125t-127 346t125 350t342 129q134 0 240 -47v-109q-100 62 -232 62q-169 0 -264.5 -102.5t-95.5 -278.5t93.5 -277.5t264.5 -101.5
q80 0 143.5 20.5t98.5 46.5v-106q-31 -20 -98 -38.5t-152 -18.5z" />
    <glyph glyph-name="Ccaron" unicode="&#x10c;" horiz-adv-x="1296" 
d="M760 1450l-328 344h125l203 -221l207 221h123zM768 -20q-203 0 -351 86t-223 239t-75 357q0 201 73.5 354.5t221 242.5t350.5 89q123 0 225.5 -30t153.5 -69v-119q-163 113 -373 113q-250 0 -392 -155.5t-142 -421.5q0 -274 148.5 -426t393.5 -152q114 0 214.5 30.5
t170.5 78.5v-121q-50 -35 -157.5 -65.5t-237.5 -30.5z" />
    <glyph glyph-name="ccaron" unicode="&#x10d;" horiz-adv-x="907" 
d="M557 1047l-328 344h125l203 -222l207 222h123zM557 -18q-211 0 -338 125t-127 346t125 350t342 129q134 0 240 -47v-109q-100 62 -232 62q-169 0 -264.5 -102.5t-95.5 -278.5t93.5 -277.5t264.5 -101.5q80 0 143.5 20.5t98.5 46.5v-106q-31 -20 -98 -38.5t-152 -18.5z
" />
    <glyph glyph-name="Dcaron" unicode="&#x10e;" horiz-adv-x="1384" 
d="M1010 1794l-330 -344l-328 344h125l203 -221l207 221h123zM461 1327q72 0 131 -3t127.5 -11.5t123.5 -23t113 -39.5t102 -59t84 -83t66 -110t41 -141.5t15 -176.5q0 -121 -24.5 -220.5t-65.5 -169t-102.5 -122t-127.5 -84t-149 -51t-158.5 -26.5t-163.5 -7h-283v1327h271
zM457 98q84 0 155 6.5t143 24t129 45t107.5 72.5t84 104.5t52.5 142.5t19 185q0 103 -19.5 184.5t-52 139t-84 99.5t-107 66.5t-129.5 39t-142 19.5t-154 5h-156v-1133h154z" />
    <glyph glyph-name="dcaron" unicode="&#x10f;" horiz-adv-x="1341" 
d="M1243 1368q38 0 65 -26.5t27 -79.5q0 -99 -96 -172h-80q87 84 90 137q-37 -6 -61.5 13t-24.5 54q0 33 23 53.5t57 20.5zM911 739v619h109v-1358h-98l-4 188q-39 -88 -133.5 -147t-235.5 -59q-204 0 -330.5 129t-126.5 344q0 135 50.5 241t155 171t249.5 65
q136 0 227 -54.5t137 -138.5zM563 78q116 0 196.5 53.5t117 138t36.5 191.5q0 165 -90 271t-260 106q-89 0 -159 -31.5t-112 -85.5t-63.5 -121.5t-21.5 -144.5q0 -164 93.5 -270.5t262.5 -106.5z" />
    <glyph glyph-name="Dcroat" unicode="&#x110;" horiz-adv-x="1431" 
d="M508 1327q72 0 131 -3t127.5 -11.5t123.5 -23t113 -39.5t102 -59t84 -83t66 -110t41 -141.5t15 -176.5q0 -121 -24.5 -220.5t-65.5 -169t-102.5 -122t-127.5 -84t-149 -51t-158.5 -26.5t-163.5 -7h-282v629h-205v96h205v602h270zM504 98q84 0 155 6.5t143 24t129 45
t107.5 72.5t84 104.5t52.5 142.5t19 185q0 103 -19.5 184.5t-52 139t-84 99.5t-107 66.5t-129.5 39t-142 19.5t-154 5h-156v-506h326v-96h-326v-531h154z" />
    <glyph glyph-name="dcroat" unicode="&#x111;" horiz-adv-x="1140" 
d="M1171 1167v-88h-151v-1079h-98l-4 188q-39 -88 -133.5 -147t-235.5 -59q-204 0 -330.5 129t-126.5 344q0 135 50.5 241t155 171t249.5 65q136 0 227 -54.5t137 -138.5v340h-290v88h290v191h109v-191h151zM563 78q116 0 196.5 53.5t117 138t36.5 191.5q0 165 -90 271
t-260 106q-89 0 -159 -31.5t-112 -85.5t-63.5 -121.5t-21.5 -144.5q0 -164 93.5 -270.5t262.5 -106.5z" />
    <glyph glyph-name="Emacron" unicode="&#x112;" horiz-adv-x="1026" 
d="M283 1579v92h575v-92h-575zM190 0v1327h752v-98h-639v-504h479v-96h-479v-529h664v-100h-777z" />
    <glyph glyph-name="emacron" unicode="&#x113;" horiz-adv-x="1038" 
d="M242 1192v90h575v-90h-575zM571 -18q-234 0 -356.5 122.5t-122.5 344.5q0 221 116.5 352t321.5 131q190 0 303 -113.5t113 -316.5q0 -52 -4 -88h-735q6 -166 102.5 -251t276.5 -85q105 0 187.5 24t129.5 52v-101q-38 -25 -130 -48t-202 -23zM207 498h627q9 158 -76 250
t-228 92q-141 0 -228 -93t-95 -249z" />
    <glyph glyph-name="Ebreve" unicode="&#x114;" horiz-adv-x="1026" 
d="M569 1450q-180 0 -255.5 88t-75.5 244v12h90q0 -130 57 -189t184 -59q128 0 185 59t57 189h90v-12q0 -332 -332 -332zM190 0v1327h752v-98h-639v-504h479v-96h-479v-529h664v-100h-777z" />
    <glyph glyph-name="ebreve" unicode="&#x115;" horiz-adv-x="1038" 
d="M528 1047q-93 0 -159 24.5t-102 71t-52 104t-16 131.5v13h86q0 -131 58.5 -192.5t184.5 -61.5q128 0 186 61.5t58 192.5h86v-13q0 -331 -330 -331zM571 -18q-234 0 -356.5 122.5t-122.5 344.5q0 221 116.5 352t321.5 131q190 0 303 -113.5t113 -316.5q0 -52 -4 -88h-735
q6 -166 102.5 -251t276.5 -85q105 0 187.5 24t129.5 52v-101q-38 -25 -130 -48t-202 -23zM207 498h627q9 158 -76 250t-228 92q-141 0 -228 -93t-95 -249z" />
    <glyph glyph-name="Edotaccent" unicode="&#x116;" horiz-adv-x="1026" 
d="M571 1536q-38 0 -63 25t-25 63q0 39 25.5 63.5t62.5 24.5q39 0 63.5 -24.5t24.5 -63.5t-25.5 -63.5t-62.5 -24.5zM190 0v1327h752v-98h-639v-504h479v-96h-479v-529h664v-100h-777z" />
    <glyph glyph-name="edotaccent" unicode="&#x117;" horiz-adv-x="1038" 
d="M530 1171q-34 0 -55.5 21.5t-21.5 56.5t22 57.5t55 22.5q34 0 57 -22.5t23 -57.5t-23 -56.5t-57 -21.5zM571 -18q-234 0 -356.5 122.5t-122.5 344.5q0 221 116.5 352t321.5 131q190 0 303 -113.5t113 -316.5q0 -52 -4 -88h-735q6 -166 102.5 -251t276.5 -85
q105 0 187.5 24t129.5 52v-101q-38 -25 -130 -48t-202 -23zM207 498h627q9 158 -76 250t-228 92q-141 0 -228 -93t-95 -249z" />
    <glyph glyph-name="Eogonek" unicode="&#x118;" horiz-adv-x="1026" 
d="M827 -424q-85 0 -136.5 42.5t-51.5 133.5q0 83 47.5 148.5t132.5 99.5h-629v1327h752v-98h-639v-504h479v-96h-479v-529h664v-100q-120 -33 -182 -94t-62 -139q0 -59 31 -88t86 -29q58 0 114 31v-78q-54 -27 -127 -27z" />
    <glyph glyph-name="eogonek" unicode="&#x119;" horiz-adv-x="1038" 
d="M707 -424q-85 0 -137 42.5t-52 133.5q0 74 41 137.5t113 100.5q-46 -8 -101 -8q-234 0 -356.5 122.5t-122.5 344.5q0 221 116.5 352t321.5 131q190 0 303 -113.5t113 -316.5q0 -52 -4 -88h-735q6 -166 102.5 -251t276.5 -85q105 0 187.5 24t129.5 52v-101
q-76 -35 -125 -63t-92.5 -62.5t-63.5 -74t-20 -86.5q0 -59 31 -88t86 -29q59 0 115 31v-78q-54 -27 -127 -27zM207 498h627q9 158 -76 250t-228 92q-141 0 -228 -93t-95 -249z" />
    <glyph glyph-name="Ecaron" unicode="&#x11a;" horiz-adv-x="1026" 
d="M569 1450l-327 344h125l202 -221l207 221h123zM190 0v1327h752v-98h-639v-504h479v-96h-479v-529h664v-100h-777z" />
    <glyph glyph-name="ecaron" unicode="&#x11b;" horiz-adv-x="1038" 
d="M528 1047l-327 344h125l202 -222l207 222h123zM571 -18q-234 0 -356.5 122.5t-122.5 344.5q0 221 116.5 352t321.5 131q190 0 303 -113.5t113 -316.5q0 -52 -4 -88h-735q6 -166 102.5 -251t276.5 -85q105 0 187.5 24t129.5 52v-101q-38 -25 -130 -48t-202 -23zM207 498
h627q9 158 -76 250t-228 92q-141 0 -228 -93t-95 -249z" />
    <glyph glyph-name="Gcircumflex" unicode="&#x11c;" horiz-adv-x="1456" 
d="M455 1468l327 344l330 -344h-123l-207 222l-202 -222h-125zM774 -20q-159 0 -285 51.5t-206 143t-122 215t-42 269.5q0 215 86 372.5t235 237t344 79.5q104 0 207 -25t151 -46.5t68 -35.5v-121q-73 50 -185 86.5t-234 36.5q-250 0 -402.5 -154t-152.5 -427
q0 -166 61 -294.5t184 -204t293 -75.5q121 0 212 37.5t145.5 106t82 156t29.5 196.5h-471v100h586v-57q0 -100 -15.5 -187.5t-56 -174t-104.5 -148t-168.5 -99.5t-239.5 -38z" />
    <glyph glyph-name="gcircumflex" unicode="&#x11d;" horiz-adv-x="1169" 
d="M242 1065l327 344l330 -344h-123l-207 223l-202 -223h-125zM551 -424q-81 0 -155 12.5t-109 26.5v100q116 -43 262 -43q80 0 142 21t102 58t65.5 91.5t36 116.5t10.5 139v97q-41 -85 -130.5 -140t-225.5 -55q-211 0 -334 130t-123 337q0 204 119 334.5t332 130.5
q137 0 231 -54.5t137 -142.5l4 180h99v-815q0 -95 -13 -171.5t-46 -143.5t-84.5 -112t-132.5 -71t-187 -26zM563 98q163 0 252.5 104t91.5 265q0 175 -97.5 273t-254.5 98q-161 0 -254.5 -101.5t-93.5 -267.5q0 -168 96.5 -269.5t259.5 -101.5z" />
    <glyph glyph-name="Gbreve" unicode="&#x11e;" horiz-adv-x="1456" 
d="M782 1450q-180 0 -255.5 88t-75.5 244v12h90q0 -130 57 -189t184 -59q128 0 185 59t57 189h90v-12q0 -332 -332 -332zM774 -20q-159 0 -285 51.5t-206 143t-122 215t-42 269.5q0 215 86 372.5t235 237t344 79.5q104 0 207 -25t151 -46.5t68 -35.5v-121q-73 50 -185 86.5
t-234 36.5q-250 0 -402.5 -154t-152.5 -427q0 -166 61 -294.5t184 -204t293 -75.5q121 0 212 37.5t145.5 106t82 156t29.5 196.5h-471v100h586v-57q0 -100 -15.5 -187.5t-56 -174t-104.5 -148t-168.5 -99.5t-239.5 -38z" />
    <glyph glyph-name="gbreve" unicode="&#x11f;" horiz-adv-x="1169" 
d="M569 1047q-93 0 -159 24.5t-102 71t-52 104t-16 131.5v13h86q0 -131 58.5 -192.5t184.5 -61.5q128 0 186 61.5t58 192.5h86v-13q0 -331 -330 -331zM551 -424q-81 0 -155 12.5t-109 26.5v100q116 -43 262 -43q80 0 142 21t102 58t65.5 91.5t36 116.5t10.5 139v97
q-41 -85 -130.5 -140t-225.5 -55q-211 0 -334 130t-123 337q0 204 119 334.5t332 130.5q137 0 231 -54.5t137 -142.5l4 180h99v-815q0 -95 -13 -171.5t-46 -143.5t-84.5 -112t-132.5 -71t-187 -26zM563 98q163 0 252.5 104t91.5 265q0 175 -97.5 273t-254.5 98
q-161 0 -254.5 -101.5t-93.5 -267.5q0 -168 96.5 -269.5t259.5 -101.5z" />
    <glyph glyph-name="Gdotaccent" unicode="&#x120;" horiz-adv-x="1456" 
d="M784 1536q-38 0 -63 25t-25 63q0 39 25.5 63.5t62.5 24.5q39 0 63.5 -24.5t24.5 -63.5t-25.5 -63.5t-62.5 -24.5zM774 -20q-159 0 -285 51.5t-206 143t-122 215t-42 269.5q0 215 86 372.5t235 237t344 79.5q104 0 207 -25t151 -46.5t68 -35.5v-121q-73 50 -185 86.5
t-234 36.5q-250 0 -402.5 -154t-152.5 -427q0 -166 61 -294.5t184 -204t293 -75.5q121 0 212 37.5t145.5 106t82 156t29.5 196.5h-471v100h586v-57q0 -100 -15.5 -187.5t-56 -174t-104.5 -148t-168.5 -99.5t-239.5 -38z" />
    <glyph glyph-name="gdotaccent" unicode="&#x121;" horiz-adv-x="1169" 
d="M571 1171q-34 0 -55.5 21.5t-21.5 56.5t22 57.5t55 22.5q34 0 57 -22.5t23 -57.5t-23 -56.5t-57 -21.5zM551 -424q-81 0 -155 12.5t-109 26.5v100q116 -43 262 -43q80 0 142 21t102 58t65.5 91.5t36 116.5t10.5 139v97q-41 -85 -130.5 -140t-225.5 -55q-211 0 -334 130
t-123 337q0 204 119 334.5t332 130.5q137 0 231 -54.5t137 -142.5l4 180h99v-815q0 -95 -13 -171.5t-46 -143.5t-84.5 -112t-132.5 -71t-187 -26zM563 98q163 0 252.5 104t91.5 265q0 175 -97.5 273t-254.5 98q-161 0 -254.5 -101.5t-93.5 -267.5q0 -168 96.5 -269.5
t259.5 -101.5z" />
    <glyph glyph-name="Gcommaaccent" unicode="&#x122;" horiz-adv-x="1456" 
d="M772 684h586v-57q0 -100 -15.5 -187.5t-56 -174t-104.5 -148t-168.5 -99.5t-239.5 -38q-159 0 -285 51.5t-206 143t-122 215t-42 269.5q0 215 86 372.5t235 237t344 79.5q104 0 207 -25t151 -46.5t68 -35.5v-121q-73 50 -185 86.5t-234 36.5q-250 0 -402.5 -154
t-152.5 -427q0 -166 61 -294.5t184 -204t293 -75.5q121 0 212 37.5t145.5 106t82 156t29.5 196.5h-471v100zM766 -154q39 0 66.5 -26t27.5 -76q0 -96 -88 -168h-80q78 71 84 129q-37 -8 -62.5 11.5t-25.5 56.5q0 33 22.5 53t55.5 20z" />
    <glyph glyph-name="gcommaaccent" unicode="&#x123;" horiz-adv-x="1169" 
d="M551 1065q-38 0 -65 26.5t-27 79.5q0 99 96 172h80q-87 -84 -90 -137q37 6 61.5 -13t24.5 -54q0 -33 -23 -53.5t-57 -20.5zM915 915h99v-815q0 -95 -13 -171.5t-46 -143.5t-84.5 -112t-132.5 -71t-187 -26q-81 0 -155 12.5t-109 26.5v100q116 -43 262 -43q80 0 142 21
t102 58t65.5 91.5t36 116.5t10.5 139v97q-41 -85 -130.5 -140t-225.5 -55q-211 0 -334 130t-123 337q0 204 119 334.5t332 130.5q137 0 231 -54.5t137 -142.5zM563 98q163 0 252.5 104t91.5 265q0 175 -97.5 273t-254.5 98q-161 0 -254.5 -101.5t-93.5 -267.5
q0 -168 96.5 -269.5t259.5 -101.5z" />
    <glyph glyph-name="Hcircumflex" unicode="&#x124;" horiz-adv-x="1429" 
d="M385 1468l328 344l329 -344h-122l-207 222l-203 -222h-125zM190 0v1327h113v-602h823v602h113v-1327h-113v625h-823v-625h-113z" />
    <glyph glyph-name="hcircumflex" unicode="&#x125;" horiz-adv-x="1087" 
d="M-119 1450l328 344l330 -344h-123l-207 221l-203 -221h-125zM156 0v1358h108v-592q85 166 328 166q185 0 269.5 -101t84.5 -299v-532h-108v500q0 65 -7 114.5t-25 93t-48 71t-77 43.5t-110 16q-150 0 -228.5 -92t-78.5 -293v-453h-108z" />
    <glyph glyph-name="Hbar" unicode="&#x126;" horiz-adv-x="1464" 
d="M1432 1075v-90h-146v-985h-112v625h-824v-625h-112v985h-205v90h205v252h112v-252h824v252h112v-252h146zM1174 725v260h-824v-260h824z" />
    <glyph glyph-name="hbar" unicode="&#x127;" horiz-adv-x="1087" 
d="M592 932q185 0 269.5 -101t84.5 -299v-532h-108v500q0 65 -7 114.5t-25 93t-48 71t-77 43.5t-110 16q-150 0 -228.5 -92t-78.5 -293v-453h-108v1079h-152v88h152v191h108v-191h291v-88h-291v-313q85 166 328 166z" />
    <glyph glyph-name="Itilde" unicode="&#x128;" horiz-adv-x="493" 
d="M403 1528q-39 0 -75.5 13.5t-64.5 32t-54.5 37.5t-56 32.5t-58.5 13.5q-33 0 -55.5 -14.5t-32 -36.5t-13 -38t-3.5 -30h-80q0 87 47.5 144t134.5 57q49 0 95.5 -20t77 -44.5t68 -44.5t70.5 -20q31 0 52.5 13t31 34t13.5 38t4 34h80q0 -83 -47 -142t-134 -59zM190 0v1327
h113v-1327h-113z" />
    <glyph glyph-name="itilde" unicode="&#x129;" horiz-adv-x="446" 
d="M389 1124q-39 0 -75.5 13.5t-64.5 32t-54.5 37.5t-56 32.5t-58.5 13.5q-33 0 -56 -14t-32.5 -35.5t-13 -38t-3.5 -30.5h-79q0 88 47.5 145t134.5 57q49 0 95.5 -20.5t77 -45t68 -45t70.5 -20.5q40 0 64.5 24t30 48t5.5 49h80q0 -85 -46.5 -144t-133.5 -59zM182 0v825
h-131v90h240v-915h-109z" />
    <glyph glyph-name="Imacron" unicode="&#x12a;" horiz-adv-x="493" 
d="M-41 1579v92h576v-92h-576zM190 0v1327h113v-1327h-113z" />
    <glyph glyph-name="imacron" unicode="&#x12b;" horiz-adv-x="446" 
d="M-55 1192v90h575v-90h-575zM182 0v825h-131v90h240v-915h-109z" />
    <glyph glyph-name="Ibreve" unicode="&#x12c;" horiz-adv-x="493" 
d="M246 1450q-180 0 -256 88t-76 244v12h90q0 -129 57.5 -188.5t184.5 -59.5q128 0 184.5 59t56.5 189h91v-12q0 -332 -332 -332zM190 0v1327h113v-1327h-113z" />
    <glyph glyph-name="ibreve" unicode="&#x12d;" horiz-adv-x="446" 
d="M231 1047q-93 0 -159 24.5t-102 71t-52 104t-16 131.5v13h86q0 -131 58.5 -192.5t184.5 -61.5q128 0 186 61.5t58 192.5h86v-13q0 -331 -330 -331zM182 0v825h-131v90h240v-915h-109z" />
    <glyph glyph-name="Iogonek" unicode="&#x12e;" horiz-adv-x="493" 
d="M211 -424q-86 0 -138.5 43t-52.5 137q0 77 46.5 147.5t123.5 108.5v1315h113v-1327q-94 -36 -145.5 -98.5t-51.5 -134.5q0 -59 31 -88t84 -29q61 0 117 31v-78q-54 -27 -127 -27z" />
    <glyph glyph-name="iogonek" unicode="&#x12f;" horiz-adv-x="446" 
d="M236 1329q34 0 55.5 -22.5t21.5 -57.5t-22 -56.5t-55 -21.5q-34 0 -57 21.5t-23 56.5t23.5 57.5t56.5 22.5zM51 825v90h240v-915q-111 -35 -171.5 -96t-60.5 -137q0 -117 115 -117q61 0 117 31v-78q-54 -27 -127 -27q-86 0 -138.5 42.5t-52.5 133.5q0 90 56 160t153 106
v807h-131z" />
    <glyph glyph-name="Idotaccent" unicode="&#x130;" horiz-adv-x="493" 
d="M248 1536q-38 0 -63 25t-25 63q0 39 25.5 63.5t62.5 24.5q39 0 63.5 -24.5t24.5 -63.5t-25.5 -63.5t-62.5 -24.5zM190 0v1327h113v-1327h-113z" />
    <glyph glyph-name="dotlessi" unicode="&#x131;" horiz-adv-x="446" 
d="M182 0v825h-131v90h240v-915h-109z" />
    <glyph glyph-name="IJ" unicode="&#x132;" horiz-adv-x="1427" 
d="M190 0v1327h113v-1327h-113zM860 -20q-168 0 -252 43v112q87 -51 236 -51q175 0 239 86t64 307v754h-356v96h471v-889q0 -116 -19.5 -198t-65.5 -142t-124.5 -89t-192.5 -29z" />
    <glyph glyph-name="ij" unicode="&#x133;" horiz-adv-x="892" 
d="M236 1171q-34 0 -57 21.5t-23 56.5t23.5 57.5t56.5 22.5q34 0 55.5 -22.5t21.5 -57.5t-22 -56.5t-55 -21.5zM682 1171q-34 0 -57 21.5t-23 56.5t23.5 57.5t56.5 22.5q34 0 56 -22.5t22 -57.5t-22.5 -56.5t-55.5 -21.5zM182 0v825h-131v90h240v-915h-109zM449 -424
q-80 0 -158 29v96q69 -33 143 -33q51 0 87.5 16t57 40t32.5 62t15 72t3 81v886h-131v90h239v-972q0 -63 -6 -112t-24.5 -98.5t-49.5 -82.5t-84 -53.5t-124 -20.5z" />
    <glyph glyph-name="Jcircumflex" unicode="&#x134;" horiz-adv-x="946" 
d="M199 1468l327 344l330 -344h-123l-207 222l-202 -222h-125zM379 -20q-168 0 -252 43v112q87 -51 235 -51q175 0 239.5 86t64.5 307v754h-357v96h471v-889q0 -116 -19.5 -197.5t-65 -142t-124 -89.5t-192.5 -29z" />
    <glyph glyph-name="jcircumflex" unicode="&#x135;" horiz-adv-x="446" 
d="M-100 1065l327 344l330 -344h-123l-207 223l-202 -223h-125zM2 -424q-80 0 -158 29v96q69 -33 144 -33q51 0 87.5 16t57 40t32 62t14.5 72t3 81v886h-131v90h240v-972q0 -79 -11 -138.5t-40.5 -114.5t-89.5 -84.5t-148 -29.5z" />
    <glyph glyph-name="Kcommaaccent" unicode="&#x136;" 
d="M438 674l727 -674h-159l-703 659v-659h-113v1327h113v-643l688 643h156zM612 -154q39 0 67 -26t28 -76q0 -95 -89 -168h-79q78 71 84 129q-37 -8 -62.5 11.5t-25.5 56.5q0 33 22 53t55 20z" />
    <glyph glyph-name="kcommaaccent" unicode="&#x137;" horiz-adv-x="937" 
d="M389 489l514 -489h-149l-490 477v-477h-108v1358h108v-858l469 415h150zM479 -154q39 0 66.5 -26t27.5 -76q0 -96 -88 -168h-79q77 70 83 129q-37 -8 -62.5 11.5t-25.5 56.5q0 33 22.5 53t55.5 20z" />
    <glyph glyph-name="kgreenlandic" unicode="&#x138;" horiz-adv-x="933" 
d="M156 0v915h108v-434l467 434h150l-496 -444l518 -471h-149l-490 455v-455h-108z" />
    <glyph glyph-name="Lacute" unicode="&#x139;" horiz-adv-x="1069" 
d="M186 1468l234 326h143l-268 -326h-109zM190 0v1327h113v-1227h684v-100h-797z" />
    <glyph glyph-name="lacute" unicode="&#x13a;" horiz-adv-x="421" 
d="M158 1507l233 326h146l-271 -326h-108zM156 0v1358h108v-1358h-108z" />
    <glyph glyph-name="Lcommaaccent" unicode="&#x13b;" horiz-adv-x="1069" 
d="M303 100h684v-100h-797v1327h113v-1227zM582 -154q39 0 66.5 -26t27.5 -76q0 -96 -88 -168h-80q78 71 84 129q-37 -8 -62.5 11.5t-25.5 56.5q0 33 22.5 53t55.5 20z" />
    <glyph glyph-name="lcommaaccent" unicode="&#x13c;" horiz-adv-x="421" 
d="M264 1358v-1358h-108v1358h108zM203 -154q39 0 66.5 -26t27.5 -76q0 -96 -88 -168h-80q78 71 84 129q-37 -8 -62.5 11.5t-25.5 56.5q0 33 22.5 53t55.5 20z" />
    <glyph glyph-name="Lcaron" unicode="&#x13d;" horiz-adv-x="1069" 
d="M594 1069q87 84 90 137q-37 -6 -61.5 13.5t-24.5 54.5q0 33 23 53.5t57 20.5q38 0 65 -27t27 -80q0 -99 -96 -172h-80zM303 100h684v-100h-797v1327h113v-1227z" />
    <glyph glyph-name="lcaron" unicode="&#x13e;" horiz-adv-x="579" 
d="M487 1368q38 0 65.5 -26.5t27.5 -79.5q0 -98 -97 -172h-80q88 85 91 137q-37 -6 -61.5 13t-24.5 54q0 33 22.5 53.5t56.5 20.5zM156 0v1358h108v-1358h-108z" />
    <glyph glyph-name="Ldot" unicode="&#x13f;" horiz-adv-x="1069" 
d="M190 0v1327h113v-1227h684v-100h-797zM780 592q-37 0 -59.5 23.5t-22.5 60.5q0 35 23.5 58.5t58.5 23.5t57.5 -23.5t22.5 -60.5q0 -35 -22.5 -58.5t-57.5 -23.5z" />
    <glyph glyph-name="ldot" unicode="&#x140;" horiz-adv-x="632" 
d="M156 0v1358h108v-1358h-108zM520 592q-38 0 -63 25t-25 63q0 39 25.5 63.5t62.5 24.5t62.5 -24.5t25.5 -63.5t-25.5 -63.5t-62.5 -24.5z" />
    <glyph glyph-name="Lslash" unicode="&#x141;" horiz-adv-x="1069" 
d="M190 0v557l-182 -100v100l182 100v670h113v-622l365 198v-102l-365 -199v-502h684v-100h-797z" />
    <glyph glyph-name="lslash" unicode="&#x142;" horiz-adv-x="501" 
d="M195 0v610l-164 -94v94l164 92v656h108v-606l168 94v-96l-168 -93v-657h-108z" />
    <glyph glyph-name="Nacute" unicode="&#x143;" horiz-adv-x="1449" 
d="M623 1468l233 326h143l-268 -326h-108zM1241 -20l-940 1110v-1090h-111v1348h21l940 -1112v1091h111v-1347h-21z" />
    <glyph glyph-name="nacute" unicode="&#x144;" horiz-adv-x="1087" 
d="M457 1065l233 326h146l-271 -326h-108zM156 0v915h100l2 -165q33 85 118 133.5t216 48.5q185 0 269.5 -101t84.5 -299v-532h-108v500q0 82 -12 140t-41 105t-83 70t-133 23q-305 0 -305 -385v-453h-108z" />
    <glyph glyph-name="Ncommaaccent" unicode="&#x145;" horiz-adv-x="1449" 
d="M1151 1327h111v-1347h-21l-940 1110v-1090h-111v1348h21l940 -1112v1091zM715 -154q39 0 66.5 -26t27.5 -76q0 -96 -88 -168h-80q78 71 84 129q-37 -8 -62.5 11.5t-25.5 56.5q0 33 22.5 53t55.5 20z" />
    <glyph glyph-name="ncommaaccent" unicode="&#x146;" horiz-adv-x="1087" 
d="M592 932q185 0 269.5 -101t84.5 -299v-532h-108v500q0 82 -12 140t-41 105t-83 70t-133 23q-305 0 -305 -385v-453h-108v915h100l2 -165q33 85 118 133.5t216 48.5zM541 -154q39 0 66.5 -26t27.5 -76q0 -96 -88 -168h-80q78 71 84 129q-37 -8 -62.5 11.5t-25.5 56.5
q0 33 22.5 53t55.5 20z" />
    <glyph glyph-name="Ncaron" unicode="&#x147;" horiz-adv-x="1449" 
d="M721 1450l-328 344h125l203 -221l207 221h123zM1241 -20l-940 1110v-1090h-111v1348h21l940 -1112v1091h111v-1347h-21z" />
    <glyph glyph-name="ncaron" unicode="&#x148;" horiz-adv-x="1087" 
d="M573 1047l-327 344h125l202 -222l207 222h123zM156 0v915h100l2 -165q33 85 118 133.5t216 48.5q185 0 269.5 -101t84.5 -299v-532h-108v500q0 82 -12 140t-41 105t-83 70t-133 23q-305 0 -305 -385v-453h-108z" />
    <glyph glyph-name="Eng" unicode="&#x14a;" horiz-adv-x="1449" 
d="M877 -424q-135 0 -232 41v100q83 -45 219 -45q161 0 224 88t63 273v47l-850 1010v-1090h-111v1348h17l944 -1112v1091h111v-1298q0 -234 -86.5 -343.5t-298.5 -109.5z" />
    <glyph glyph-name="eng" unicode="&#x14b;" horiz-adv-x="1087" 
d="M670 -424q-38 0 -62 6v90q28 -4 47 -4q49 0 83.5 15t53.5 38t29.5 60t13.5 70t3 79v570q0 82 -12 140t-41 105t-83 70t-133 23q-305 0 -305 -385v-453h-108v915h100l2 -165q33 85 118 133.5t216 48.5q185 0 269.5 -101t84.5 -299v-591q0 -43 -1.5 -74.5t-8 -72t-17.5 -69
t-31.5 -58.5t-49 -48.5t-71.5 -30.5t-97 -12z" />
    <glyph glyph-name="Omacron" unicode="&#x14c;" horiz-adv-x="1529" 
d="M479 1579v92h576v-92h-576zM762 -20q-123 0 -227 35t-180 97.5t-129.5 148t-80 187.5t-26.5 216q0 144 43.5 268.5t124.5 217t205 145.5t276 53q154 0 277 -52.5t202.5 -144.5t121.5 -214t42 -263q0 -145 -42.5 -271t-123 -220.5t-205 -148.5t-278.5 -54zM766 88
q244 0 386 162.5t142 421.5q0 163 -63 292t-184.5 204t-282.5 75q-235 0 -381.5 -161.5t-146.5 -413.5q0 -164 62.5 -294.5t184 -208t283.5 -77.5z" />
    <glyph glyph-name="omacron" unicode="&#x14d;" horiz-adv-x="1122" 
d="M270 1192v90h576v-90h-576zM559 -18q-214 0 -340.5 130.5t-126.5 342.5q0 210 126 343.5t343 133.5q211 0 340 -124.5t129 -340.5q0 -219 -130 -352t-341 -133zM557 78q157 0 257.5 103.5t100.5 281.5q0 174 -100 274.5t-256 100.5q-161 0 -256.5 -106.5t-95.5 -276.5
q0 -174 97.5 -275.5t252.5 -101.5z" />
    <glyph glyph-name="Obreve" unicode="&#x14e;" horiz-adv-x="1529" 
d="M766 1450q-180 0 -256 88t-76 244v12h90q0 -129 57.5 -188.5t184.5 -59.5q128 0 185 59t57 189h90v-12q0 -332 -332 -332zM762 -20q-123 0 -227 35t-180 97.5t-129.5 148t-80 187.5t-26.5 216q0 144 43.5 268.5t124.5 217t205 145.5t276 53q154 0 277 -52.5t202.5 -144.5
t121.5 -214t42 -263q0 -145 -42.5 -271t-123 -220.5t-205 -148.5t-278.5 -54zM766 88q244 0 386 162.5t142 421.5q0 163 -63 292t-184.5 204t-282.5 75q-235 0 -381.5 -161.5t-146.5 -413.5q0 -164 62.5 -294.5t184 -208t283.5 -77.5z" />
    <glyph glyph-name="obreve" unicode="&#x14f;" horiz-adv-x="1122" 
d="M557 1047q-93 0 -159 24.5t-102.5 71t-52.5 104t-16 131.5v13h86q0 -131 59 -192.5t185 -61.5q128 0 186 61.5t58 192.5h86v-13q0 -331 -330 -331zM559 -18q-214 0 -340.5 130.5t-126.5 342.5q0 210 126 343.5t343 133.5q211 0 340 -124.5t129 -340.5q0 -219 -130 -352
t-341 -133zM557 78q157 0 257.5 103.5t100.5 281.5q0 174 -100 274.5t-256 100.5q-161 0 -256.5 -106.5t-95.5 -276.5q0 -174 97.5 -275.5t252.5 -101.5z" />
    <glyph glyph-name="Ohungarumlaut" unicode="&#x150;" horiz-adv-x="1529" 
d="M453 1468l262 326h145l-299 -326h-108zM803 1468l264 326h143l-299 -326h-108zM762 -20q-123 0 -227 35t-180 97.5t-129.5 148t-80 187.5t-26.5 216q0 144 43.5 268.5t124.5 217t205 145.5t276 53q154 0 277 -52.5t202.5 -144.5t121.5 -214t42 -263q0 -145 -42.5 -271
t-123 -220.5t-205 -148.5t-278.5 -54zM766 88q244 0 386 162.5t142 421.5q0 163 -63 292t-184.5 204t-282.5 75q-235 0 -381.5 -161.5t-146.5 -413.5q0 -164 62.5 -294.5t184 -208t283.5 -77.5z" />
    <glyph glyph-name="ohungarumlaut" unicode="&#x151;" horiz-adv-x="1122" 
d="M291 1065l262 326h145l-299 -326h-108zM641 1065l264 326h144l-299 -326h-109zM559 -18q-214 0 -340.5 130.5t-126.5 342.5q0 210 126 343.5t343 133.5q211 0 340 -124.5t129 -340.5q0 -219 -130 -352t-341 -133zM557 78q157 0 257.5 103.5t100.5 281.5q0 174 -100 274.5
t-256 100.5q-161 0 -256.5 -106.5t-95.5 -276.5q0 -174 97.5 -275.5t252.5 -101.5z" />
    <glyph glyph-name="OE" unicode="&#x152;" horiz-adv-x="2127" 
d="M762 -20q-123 0 -227 35t-180 97.5t-129.5 148t-80 187.5t-26.5 216q0 144 43.5 268.5t124 217t204 145.5t275.5 53q195 0 332 -86t205 -236v301h741v-98h-639v-504h479v-96h-479v-529h663v-100h-765v309q-58 -148 -202 -238.5t-339 -90.5zM766 88q162 0 282.5 76
t182 207.5t61.5 300.5q0 250 -143.5 410.5t-384.5 160.5q-235 0 -381.5 -161.5t-146.5 -413.5q0 -163 62.5 -293.5t184 -208.5t283.5 -78z" />
    <glyph glyph-name="oe" unicode="&#x153;" horiz-adv-x="1861" 
d="M559 -18q-214 0 -340.5 130.5t-126.5 342.5q0 210 126 343.5t343 133.5q148 0 257.5 -65t148.5 -181q50 118 150 182t237 64q190 0 302.5 -113.5t112.5 -316.5q0 -52 -4 -88h-735q6 -167 103 -252.5t276 -85.5q104 0 186.5 24.5t130.5 53.5v-101q-38 -25 -129.5 -48
t-199.5 -23q-166 0 -276.5 64.5t-153.5 182.5q-51 -117 -159 -182t-249 -65zM1030 498h627q9 158 -75.5 250t-227.5 92q-141 0 -228.5 -93t-95.5 -249zM557 78q157 0 257.5 103.5t100.5 281.5q0 174 -100 274.5t-256 100.5q-161 0 -256.5 -106.5t-95.5 -276.5
q0 -174 97.5 -275.5t252.5 -101.5z" />
    <glyph glyph-name="Racute" unicode="&#x154;" horiz-adv-x="1208" 
d="M881 1794l-269 -326h-108l233 326h144zM791 537l344 -537h-138l-325 520h-369v-520h-113v1327h424q217 0 342 -98t125 -301q0 -91 -25 -163t-68 -117t-91.5 -72t-105.5 -39zM604 618q76 0 137.5 15t113.5 48.5t81 95.5t29 149q0 157 -101.5 230t-273.5 73h-287v-611h301z
" />
    <glyph glyph-name="racute" unicode="&#x155;" horiz-adv-x="663" 
d="M315 1065l234 326h145l-270 -326h-109zM156 0v915h100l2 -170q32 82 112.5 134.5t192.5 52.5q46 0 64 -6v-101q-26 13 -78 13q-133 0 -209 -93.5t-76 -291.5v-453h-108z" />
    <glyph glyph-name="Rcommaaccent" unicode="&#x156;" horiz-adv-x="1208" 
d="M791 537l344 -537h-138l-325 520h-369v-520h-113v1327h424q217 0 342 -98t125 -301q0 -91 -25 -163t-68 -117t-91.5 -72t-105.5 -39zM604 618q76 0 137.5 15t113.5 48.5t81 95.5t29 149q0 157 -101.5 230t-273.5 73h-287v-611h301zM637 -154q39 0 66.5 -26t27.5 -76
q0 -96 -88 -168h-80q78 71 84 129q-37 -8 -62.5 11.5t-25.5 56.5q0 33 22.5 53t55.5 20z" />
    <glyph glyph-name="rcommaaccent" unicode="&#x157;" horiz-adv-x="663" 
d="M563 932q46 0 64 -6v-101q-26 13 -78 13q-133 0 -209 -93.5t-76 -291.5v-453h-108v915h100l2 -170q32 82 112.5 134.5t192.5 52.5zM203 -154q39 0 66.5 -26t27.5 -76q0 -96 -88 -168h-80q78 71 84 129q-37 -8 -62.5 11.5t-25.5 56.5q0 33 22.5 53t55.5 20z" />
    <glyph glyph-name="Rcaron" unicode="&#x158;" horiz-adv-x="1208" 
d="M932 1794l-330 -344l-328 344h125l203 -221l207 221h123zM791 537l344 -537h-138l-325 520h-369v-520h-113v1327h424q217 0 342 -98t125 -301q0 -91 -25 -163t-68 -117t-91.5 -72t-105.5 -39zM604 618q76 0 137.5 15t113.5 48.5t81 95.5t29 149q0 157 -101.5 230
t-273.5 73h-287v-611h301z" />
    <glyph glyph-name="rcaron" unicode="&#x159;" horiz-adv-x="663" 
d="M432 1047l-328 344h125l203 -222l207 222h123zM156 0v915h100l2 -170q32 82 112.5 134.5t192.5 52.5q46 0 64 -6v-101q-26 13 -78 13q-133 0 -209 -93.5t-76 -291.5v-453h-108z" />
    <glyph glyph-name="Sacute" unicode="&#x15a;" horiz-adv-x="1003" 
d="M440 1468l234 326h143l-268 -326h-109zM483 -20q-203 0 -342 81v119q64 -41 153 -69.5t185 -28.5q139 0 220 61.5t81 194.5q0 72 -34.5 125.5t-90 87t-122.5 61.5t-134 59.5t-122.5 70.5t-90 104t-34.5 151q0 163 104.5 257t284.5 94q169 0 305 -72v-121q-144 92 -297 92
q-126 0 -203.5 -62.5t-77.5 -178.5q0 -55 21.5 -98t58 -72t83.5 -53t99 -45.5t104.5 -44t99.5 -53.5t83.5 -69.5t58 -96.5t21.5 -130q0 -185 -110.5 -274.5t-303.5 -89.5z" />
    <glyph glyph-name="sacute" unicode="&#x15b;" horiz-adv-x="765" 
d="M285 1065l233 326h146l-271 -326h-108zM358 -18q-78 0 -145.5 16.5t-97.5 36.5v100q113 -65 237 -65q99 0 156 43.5t57 128.5q0 53 -24 90.5t-62.5 59t-85 38.5t-93 36.5t-85 45.5t-62.5 72.5t-24 111.5q0 116 74.5 176t202.5 60q123 0 206 -43v-98q-92 55 -200 55
q-93 0 -137 -39.5t-44 -104.5q0 -48 24.5 -81t63 -52.5t85.5 -36t94.5 -37t86 -48.5t63 -78t24.5 -119q0 -136 -86.5 -202t-227.5 -66z" />
    <glyph glyph-name="Scircumflex" unicode="&#x15c;" horiz-adv-x="1003" 
d="M211 1468l328 344l329 -344h-123l-206 222l-203 -222h-125zM483 -20q-203 0 -342 81v119q64 -41 153 -69.5t185 -28.5q139 0 220 61.5t81 194.5q0 72 -34.5 125.5t-90 87t-122.5 61.5t-134 59.5t-122.5 70.5t-90 104t-34.5 151q0 163 104.5 257t284.5 94q169 0 305 -72
v-121q-144 92 -297 92q-126 0 -203.5 -62.5t-77.5 -178.5q0 -55 21.5 -98t58 -72t83.5 -53t99 -45.5t104.5 -44t99.5 -53.5t83.5 -69.5t58 -96.5t21.5 -130q0 -185 -110.5 -274.5t-303.5 -89.5z" />
    <glyph glyph-name="scircumflex" unicode="&#x15d;" horiz-adv-x="765" 
d="M74 1065l327 344l330 -344h-123l-207 223l-202 -223h-125zM358 -18q-78 0 -145.5 16.5t-97.5 36.5v100q113 -65 237 -65q99 0 156 43.5t57 128.5q0 53 -24 90.5t-62.5 59t-85 38.5t-93 36.5t-85 45.5t-62.5 72.5t-24 111.5q0 116 74.5 176t202.5 60q123 0 206 -43v-98
q-92 55 -200 55q-93 0 -137 -39.5t-44 -104.5q0 -48 24.5 -81t63 -52.5t85.5 -36t94.5 -37t86 -48.5t63 -78t24.5 -119q0 -136 -86.5 -202t-227.5 -66z" />
    <glyph glyph-name="Scedilla" unicode="&#x15e;" horiz-adv-x="1003" 
d="M483 -20h-8l-24 -78q20 10 51 10q67 0 111 -40t44 -124q0 -88 -54.5 -130t-145.5 -42q-83 0 -135 27v75q61 -32 129 -32q120 0 120 102t-102 102q-61 0 -100 -45l-21 13l51 166q-157 17 -258 77v119q64 -41 153 -69.5t185 -28.5q139 0 220 61.5t81 194.5
q0 72 -34.5 125.5t-90 87t-122.5 61.5t-134 59.5t-122.5 70.5t-90 104t-34.5 151q0 163 104.5 257t284.5 94q169 0 305 -72v-121q-144 92 -297 92q-126 0 -203.5 -62.5t-77.5 -178.5q0 -55 21.5 -98t58 -72t83.5 -53t99 -45.5t104.5 -44t99.5 -53.5t83.5 -69.5t58 -96.5
t21.5 -130q0 -185 -110.5 -274.5t-303.5 -89.5z" />
    <glyph glyph-name="scedilla" unicode="&#x15f;" horiz-adv-x="765" 
d="M672 250q0 -133 -82.5 -199t-218.5 -69l-25 -80q20 10 51 10q68 0 112 -40t44 -124q0 -88 -55 -130t-146 -42q-83 0 -135 27v75q61 -32 129 -32q121 0 121 102t-102 102q-62 0 -101 -45l-20 13l51 168q-119 11 -180 49v100q113 -65 237 -65q99 0 156 43.5t57 128.5
q0 53 -24 90.5t-62.5 59t-85 38.5t-93 36.5t-85 45.5t-62.5 72.5t-24 111.5q0 116 74.5 176t202.5 60q123 0 206 -43v-98q-92 55 -200 55q-93 0 -137 -39.5t-44 -104.5q0 -48 24.5 -81t63 -52.5t85.5 -36t94.5 -37t86 -48.5t63 -78t24.5 -119z" />
    <glyph glyph-name="Scaron" unicode="&#x160;" horiz-adv-x="1003" 
d="M539 1450l-328 344h125l203 -221l206 221h123zM483 -20q-203 0 -342 81v119q64 -41 153 -69.5t185 -28.5q139 0 220 61.5t81 194.5q0 72 -34.5 125.5t-90 87t-122.5 61.5t-134 59.5t-122.5 70.5t-90 104t-34.5 151q0 163 104.5 257t284.5 94q169 0 305 -72v-121
q-144 92 -297 92q-126 0 -203.5 -62.5t-77.5 -178.5q0 -55 21.5 -98t58 -72t83.5 -53t99 -45.5t104.5 -44t99.5 -53.5t83.5 -69.5t58 -96.5t21.5 -130q0 -185 -110.5 -274.5t-303.5 -89.5z" />
    <glyph glyph-name="scaron" unicode="&#x161;" horiz-adv-x="765" 
d="M401 1047l-327 344h125l202 -222l207 222h123zM358 -18q-78 0 -145.5 16.5t-97.5 36.5v100q113 -65 237 -65q99 0 156 43.5t57 128.5q0 53 -24 90.5t-62.5 59t-85 38.5t-93 36.5t-85 45.5t-62.5 72.5t-24 111.5q0 116 74.5 176t202.5 60q123 0 206 -43v-98
q-92 55 -200 55q-93 0 -137 -39.5t-44 -104.5q0 -48 24.5 -81t63 -52.5t85.5 -36t94.5 -37t86 -48.5t63 -78t24.5 -119q0 -136 -86.5 -202t-227.5 -66z" />
    <glyph glyph-name="uni0162" unicode="&#x162;" horiz-adv-x="1097" 
d="M82 1327h934v-98h-410v-1229h-114v1229h-410v98zM541 -154q39 0 66.5 -26t27.5 -76q0 -96 -88 -168h-80q78 71 84 129q-37 -8 -62.5 11.5t-25.5 56.5q0 33 22.5 53t55.5 20z" />
    <glyph glyph-name="uni0163" unicode="&#x163;" horiz-adv-x="718" 
d="M473 76q75 0 152 28v-94q-63 -28 -168 -28q-74 0 -125 20.5t-77.5 60t-37 86.5t-10.5 111v565h-135v19q72 49 132.5 128.5t92.5 160.5h18v-218h273v-90h-273v-544q0 -106 32 -155.5t126 -49.5zM410 -154q39 0 66.5 -26t27.5 -76q0 -96 -88 -168h-80q78 71 84 129
q-37 -8 -62.5 11.5t-25.5 56.5q0 33 22.5 53t55.5 20z" />
    <glyph glyph-name="Tcaron" unicode="&#x164;" horiz-adv-x="1097" 
d="M547 1450l-328 344h125l203 -221l207 221h123zM492 0v1229h-410v98h934v-98h-410v-1229h-114z" />
    <glyph glyph-name="tcaron" unicode="&#x165;" horiz-adv-x="712" 
d="M623 1389q38 0 65 -27t27 -80q0 -98 -97 -172h-79q87 84 90 137q-37 -6 -61.5 13.5t-24.5 54.5q0 33 23 53.5t57 20.5zM315 281q0 -106 32 -155.5t126 -49.5q75 0 152 28v-94q-63 -28 -168 -28q-74 0 -125 20.5t-77.5 60t-37 86.5t-10.5 111v565h-135v19
q72 49 132.5 128.5t92.5 160.5h18v-218h273v-90h-273v-544z" />
    <glyph glyph-name="Tbar" unicode="&#x166;" horiz-adv-x="1097" 
d="M1016 1229h-410v-572h242v-92h-242v-565h-114v565h-240v92h240v572h-410v98h934v-98z" />
    <glyph glyph-name="tbar" unicode="&#x167;" horiz-adv-x="718" 
d="M473 76q75 0 152 28v-94q-63 -28 -168 -28q-74 0 -125 20.5t-77.5 60t-37 86.5t-10.5 111v191h-109v86h109v288h-135v19q72 49 132.5 128.5t92.5 160.5h18v-218h273v-90h-273v-288h232v-86h-232v-170q0 -106 32 -155.5t126 -49.5z" />
    <glyph glyph-name="Utilde" unicode="&#x168;" horiz-adv-x="1333" 
d="M823 1528q-39 0 -75.5 13.5t-64.5 32t-54.5 37.5t-56 32.5t-58.5 13.5q-33 0 -55.5 -14.5t-32 -36.5t-13 -38t-3.5 -30h-80q0 87 47.5 144t134.5 57q49 0 95.5 -20t77 -44.5t68 -44.5t70.5 -20q31 0 52.5 13t31 34t13.5 38t4 34h80q0 -83 -47 -142t-134 -59zM668 -20
q-261 0 -381.5 138t-120.5 412v797h115v-770q0 -247 92.5 -360t292.5 -113q196 0 292.5 112t96.5 361v770h112v-795q0 -286 -124 -419t-375 -133z" />
    <glyph glyph-name="utilde" unicode="&#x169;" horiz-adv-x="1032" 
d="M674 1124q-39 0 -75.5 13.5t-64.5 32t-54.5 37.5t-56 32.5t-58.5 13.5q-33 0 -56 -14t-32.5 -35.5t-13 -38t-3.5 -30.5h-80q0 88 47.5 145t134.5 57q49 0 96 -20.5t77 -45t68 -45t71 -20.5q40 0 64.5 24t30 48t5.5 49h80q0 -85 -46.5 -144t-133.5 -59zM516 -18
q-87 0 -153.5 23t-108 61t-67.5 92.5t-36 111t-10 123.5v522h109v-520q0 -319 268 -319q266 0 266 319v520h107v-522q0 -65 -9.5 -120.5t-35.5 -110.5t-67 -93.5t-108 -62.5t-155 -24z" />
    <glyph glyph-name="Umacron" unicode="&#x16a;" horiz-adv-x="1333" 
d="M379 1579v92h575v-92h-575zM668 -20q-261 0 -381.5 138t-120.5 412v797h115v-770q0 -247 92.5 -360t292.5 -113q196 0 292.5 112t96.5 361v770h112v-795q0 -286 -124 -419t-375 -133z" />
    <glyph glyph-name="umacron" unicode="&#x16b;" horiz-adv-x="1032" 
d="M229 1192v90h576v-90h-576zM516 -18q-87 0 -153.5 23t-108 61t-67.5 92.5t-36 111t-10 123.5v522h109v-520q0 -319 268 -319q266 0 266 319v520h107v-522q0 -65 -9.5 -120.5t-35.5 -110.5t-67 -93.5t-108 -62.5t-155 -24z" />
    <glyph glyph-name="Ubreve" unicode="&#x16c;" horiz-adv-x="1333" 
d="M666 1450q-180 0 -256 88t-76 244v12h90q0 -129 57.5 -188.5t184.5 -59.5q128 0 184.5 59t56.5 189h90v-12q0 -332 -331 -332zM668 -20q-261 0 -381.5 138t-120.5 412v797h115v-770q0 -247 92.5 -360t292.5 -113q196 0 292.5 112t96.5 361v770h112v-795q0 -286 -124 -419
t-375 -133z" />
    <glyph glyph-name="ubreve" unicode="&#x16d;" horiz-adv-x="1032" 
d="M516 1047q-93 0 -159 24.5t-102.5 71t-52.5 104t-16 131.5v13h86q0 -131 59 -192.5t185 -61.5q128 0 186 61.5t58 192.5h86v-13q0 -331 -330 -331zM516 -18q-87 0 -153.5 23t-108 61t-67.5 92.5t-36 111t-10 123.5v522h109v-520q0 -319 268 -319q266 0 266 319v520h107
v-522q0 -65 -9.5 -120.5t-35.5 -110.5t-67 -93.5t-108 -62.5t-155 -24z" />
    <glyph glyph-name="Uring" unicode="&#x16e;" horiz-adv-x="1333" 
d="M668 1413q-93 0 -153 59t-60 152t60 152t153 59q94 0 153.5 -58.5t59.5 -152.5t-59.5 -152.5t-153.5 -58.5zM668 1485q61 0 98 37t37 102q0 63 -37.5 101t-97.5 38t-98 -37t-38 -102t38 -102t98 -37zM668 -20q-261 0 -381.5 138t-120.5 412v797h115v-770
q0 -247 92.5 -360t292.5 -113q196 0 292.5 112t96.5 361v770h112v-795q0 -286 -124 -419t-375 -133z" />
    <glyph glyph-name="uring" unicode="&#x16f;" horiz-adv-x="1032" 
d="M518 1044q-93 0 -153 59t-60 152t60 152t153 59q94 0 153.5 -58.5t59.5 -152.5t-59.5 -152.5t-153.5 -58.5zM518 1116q61 0 98 37t37 102q0 63 -37.5 101.5t-97.5 38.5t-97.5 -37.5t-37.5 -102.5t37.5 -102t97.5 -37zM516 -18q-87 0 -153.5 23t-108 61t-67.5 92.5
t-36 111t-10 123.5v522h109v-520q0 -319 268 -319q266 0 266 319v520h107v-522q0 -65 -9.5 -120.5t-35.5 -110.5t-67 -93.5t-108 -62.5t-155 -24z" />
    <glyph glyph-name="Uhungarumlaut" unicode="&#x170;" horiz-adv-x="1333" 
d="M352 1468l262 326h146l-299 -326h-109zM702 1468l265 326h143l-299 -326h-109zM668 -20q-261 0 -381.5 138t-120.5 412v797h115v-770q0 -247 92.5 -360t292.5 -113q196 0 292.5 112t96.5 361v770h112v-795q0 -286 -124 -419t-375 -133z" />
    <glyph glyph-name="uhungarumlaut" unicode="&#x171;" horiz-adv-x="1032" 
d="M250 1065l262 326h145l-299 -326h-108zM600 1065l264 326h144l-299 -326h-109zM516 -18q-87 0 -153.5 23t-108 61t-67.5 92.5t-36 111t-10 123.5v522h109v-520q0 -319 268 -319q266 0 266 319v520h107v-522q0 -65 -9.5 -120.5t-35.5 -110.5t-67 -93.5t-108 -62.5
t-155 -24z" />
    <glyph glyph-name="Uogonek" unicode="&#x172;" horiz-adv-x="1333" 
d="M795 -424q-86 0 -138.5 42.5t-52.5 133.5q0 76 42.5 139t115.5 97q-36 -8 -94 -8q-261 0 -381.5 138t-120.5 412v797h115v-770q0 -247 92.5 -360t292.5 -113q196 0 292.5 112t96.5 361v770h112v-809q0 -97 -16.5 -176t-44 -131.5t-63 -94.5t-75.5 -70t-79.5 -51.5
t-75 -45.5t-63 -46t-44 -59t-16.5 -80q0 -114 115 -114q65 0 115 31v-78q-54 -27 -125 -27z" />
    <glyph glyph-name="uogonek" unicode="&#x173;" horiz-adv-x="1032" 
d="M625 -424q-85 0 -137 42.5t-52 133.5q0 76 43 140.5t111 97.5q-24 -8 -74 -8q-87 0 -153.5 23t-108 61t-67.5 92.5t-36 111t-10 123.5v522h109v-520q0 -319 268 -319q266 0 266 319v520h107v-532q0 -89 -20.5 -158t-53 -112.5t-72 -77.5t-79.5 -61t-72.5 -54.5t-53 -66.5
t-20.5 -89q0 -58 31 -86t86 -28q65 0 115 31v-78q-54 -27 -127 -27z" />
    <glyph glyph-name="Wcircumflex" unicode="&#x174;" horiz-adv-x="1849" 
d="M596 1468l328 344l329 -344h-123l-206 222l-203 -222h-125zM539 -18l-465 1345h127l352 -1077l362 1077h21l362 -1077l355 1077h121l-463 -1345h-21l-364 1083l-367 -1083h-20z" />
    <glyph glyph-name="wcircumflex" unicode="&#x175;" horiz-adv-x="1488" 
d="M424 1065l328 344l329 -344h-123l-206 223l-203 -223h-125zM444 -18l-381 933h121l273 -714l286 714h21l276 -714l269 714h116l-372 -933h-21l-278 720l-289 -720h-21z" />
    <glyph glyph-name="Ycircumflex" unicode="&#x176;" horiz-adv-x="1171" 
d="M256 1468l328 344l329 -344h-122l-207 222l-203 -222h-125zM526 0v526l-469 801h127l402 -698l405 698h123l-473 -801v-526h-115z" />
    <glyph glyph-name="ycircumflex" unicode="&#x177;" horiz-adv-x="980" 
d="M160 1065l327 344l330 -344h-123l-207 223l-202 -223h-125zM233 -406l199 447l-383 874h121l319 -753l326 753h117l-582 -1321h-117z" />
    <glyph glyph-name="Ydieresis" unicode="&#x178;" horiz-adv-x="1171" 
d="M399 1534q-39 0 -64.5 25.5t-25.5 64.5q0 40 26 66t64 26t64 -26t26 -66q0 -39 -25.5 -64.5t-64.5 -25.5zM772 1534q-39 0 -64.5 25.5t-25.5 64.5q0 40 26 66t64 26t64 -26t26 -66q0 -39 -25.5 -64.5t-64.5 -25.5zM526 0v526l-469 801h127l402 -698l405 698h123
l-473 -801v-526h-115z" />
    <glyph glyph-name="Zacute" unicode="&#x179;" horiz-adv-x="1204" 
d="M502 1468l233 326h144l-269 -326h-108zM113 0v20l798 1209h-768v98h947v-20l-797 -1207h807v-100h-987z" />
    <glyph glyph-name="zacute" unicode="&#x17a;" horiz-adv-x="958" 
d="M362 1065l234 326h145l-270 -326h-109zM92 0v20l604 805h-569v90h741v-20l-604 -803h613v-92h-785z" />
    <glyph glyph-name="Zdotaccent" unicode="&#x17b;" horiz-adv-x="1204" 
d="M602 1536q-38 0 -63 25t-25 63q0 39 25.5 63.5t62.5 24.5q39 0 63.5 -24.5t24.5 -63.5t-25.5 -63.5t-62.5 -24.5zM113 0v20l798 1209h-768v98h947v-20l-797 -1207h807v-100h-987z" />
    <glyph glyph-name="zdotaccent" unicode="&#x17c;" horiz-adv-x="958" 
d="M481 1171q-34 0 -56 21.5t-22 56.5t22.5 57.5t55.5 22.5q34 0 57 -22.5t23 -57.5t-23 -56.5t-57 -21.5zM92 0v20l604 805h-569v90h741v-20l-604 -803h613v-92h-785z" />
    <glyph glyph-name="Zcaron" unicode="&#x17d;" horiz-adv-x="1204" 
d="M600 1450l-328 344h125l203 -221l207 221h123zM113 0v20l798 1209h-768v98h947v-20l-797 -1207h807v-100h-987z" />
    <glyph glyph-name="zcaron" unicode="&#x17e;" horiz-adv-x="958" 
d="M479 1047l-327 344h124l203 -222l207 222h123zM92 0v20l604 805h-569v90h741v-20l-604 -803h613v-92h-785z" />
    <glyph glyph-name="longs" unicode="&#x17f;" horiz-adv-x="696" 
d="M229 0v825h-155v90h155v95q0 187 76 279.5t244 92.5q103 0 176 -32v-97q-76 33 -162 33q-123 0 -174 -66t-51 -223v-997h-109z" />
    <glyph glyph-name="florin" unicode="&#x192;" horiz-adv-x="944" 
d="M68 -424q-82 0 -134 21v96q58 -21 125 -21q51 0 83.5 15t56.5 57t39 98t32 156l107 604h-225v96h239l47 256q18 103 41.5 173t61.5 121.5t93.5 75.5t133.5 24t131 -21v-100q-45 20 -115 20q-103 0 -152.5 -70t-82.5 -251l-39 -228h295v-96h-313l-111 -633
q-14 -82 -27 -135t-36.5 -106.5t-55 -84t-80 -49t-114.5 -18.5z" />
    <glyph glyph-name="uni01CD" unicode="&#x1cd;" horiz-adv-x="1329" 
d="M666 1450l-328 344h125l203 -221l206 221h123zM57 0l600 1348h21l594 -1348h-123l-137 315h-695l-139 -315h-121zM356 414h617l-307 714z" />
    <glyph glyph-name="uni01CE" unicode="&#x1ce;" horiz-adv-x="993" 
d="M815 1391l-330 -344l-327 344h125l202 -222l207 222h123zM485 932q367 0 367 -357v-575h-98l-2 145q-86 -163 -320 -163q-161 0 -250.5 82.5t-89.5 214.5q0 141 96.5 222t274.5 81q167 0 280 -72v47q0 143 -64.5 214t-213.5 71q-150 0 -289 -82v100q133 72 309 72z
M453 66q149 0 219.5 87t70.5 226v41q-41 35 -115 57.5t-159 22.5q-128 0 -196 -56.5t-68 -160.5q0 -99 68.5 -158t179.5 -59z" />
    <glyph glyph-name="AEacute" unicode="&#x1fc;" horiz-adv-x="1835" 
d="M692 1468l234 326h143l-268 -326h-109zM57 0l592 1327h594l45 -98h-559l221 -504h441l45 -96h-441l232 -529h571l45 -100h-694l-137 315h-695l-139 -315h-121zM358 414h615l-307 712z" />
    <glyph glyph-name="aeacute" unicode="&#x1fd;" horiz-adv-x="1683" 
d="M1149 1391l-270 -326h-109l234 326h145zM1591 502q0 -52 -4 -88h-735q6 -166 102.5 -251t276.5 -85q105 0 187.5 24t129.5 52v-101q-38 -25 -129.5 -48t-201.5 -23q-159 0 -269 57.5t-151 161.5q-11 -37 -35 -72t-65 -70t-107.5 -56t-149.5 -21q-167 0 -257.5 82.5
t-90.5 214.5q0 141 97 222t276 81q165 0 278 -72v47q0 143 -64 214t-212 71q-152 0 -291 -82v100q133 72 311 72q271 0 326 -205q45 95 141 150t222 55q190 0 302.5 -113.5t112.5 -316.5zM1479 498q9 158 -75.5 250t-227.5 92q-141 0 -228.5 -93t-95.5 -249h627zM453 66
q149 0 219.5 87t70.5 226v41q-41 35 -115 57.5t-159 22.5q-128 0 -196 -56.5t-68 -160.5q0 -99 68.5 -158t179.5 -59z" />
    <glyph glyph-name="Oslashacute" unicode="&#x1fe;" horiz-adv-x="1529" 
d="M662 1468l233 326h143l-268 -326h-108zM119 -61l174 231q-174 189 -174 494q0 144 43.5 268.5t124.5 217t205 145.5t276 53q198 0 348 -91l113 150h121l-154 -207q105 -90 160 -226.5t55 -299.5q0 -145 -42.5 -271t-123 -220.5t-205 -148.5t-278.5 -54q-234 0 -393 124
l-127 -165h-123zM367 268l680 897q-118 78 -283 78q-235 0 -381.5 -161.5t-146.5 -413.5q0 -241 131 -400zM766 88q244 0 386 162.5t142 421.5q0 135 -44 248t-126 186l-686 -905q129 -113 328 -113z" />
    <glyph glyph-name="oslashacute" unicode="&#x1ff;" horiz-adv-x="1122" 
d="M436 1065l234 326h145l-270 -326h-109zM125 -61l115 155q-71 62 -109.5 155t-38.5 206q0 210 126 343.5t343 133.5q144 0 252 -60l78 105h104l-112 -152q147 -128 147 -358q0 -219 -130 -352t-341 -133q-144 0 -252 63l-78 -106h-104zM303 182l449 602q-79 54 -193 54
q-161 0 -256.5 -106.5t-95.5 -276.5q0 -174 96 -273zM557 78q157 0 257.5 103.5t100.5 281.5q0 169 -98 270l-448 -602q74 -53 188 -53z" />
    <glyph glyph-name="Scommaaccent" unicode="&#x218;" horiz-adv-x="1003" 
d="M268 1006q0 -55 21.5 -98t58 -72t83.5 -53t99 -45.5t104.5 -44t99.5 -53.5t83.5 -69.5t58 -96.5t21.5 -130q0 -185 -110.5 -274.5t-303.5 -89.5q-203 0 -342 81v119q64 -41 153 -69.5t185 -28.5q139 0 220 61.5t81 194.5q0 72 -34.5 125.5t-90 87t-122.5 61.5t-134 59.5
t-122.5 70.5t-90 104t-34.5 151q0 163 104.5 257t284.5 94q169 0 305 -72v-121q-144 92 -297 92q-126 0 -203.5 -62.5t-77.5 -178.5zM469 -154q39 0 66.5 -26t27.5 -76q0 -96 -88 -168h-80q78 71 84 129q-37 -8 -62.5 11.5t-25.5 56.5q0 33 22.5 53t55.5 20z" />
    <glyph glyph-name="scommaaccent" unicode="&#x219;" horiz-adv-x="765" 
d="M231 702q0 -48 24.5 -81t63 -52.5t85.5 -36t94.5 -37t86 -48.5t63 -78t24.5 -119q0 -136 -86.5 -202t-227.5 -66q-78 0 -145.5 16.5t-97.5 36.5v100q113 -65 237 -65q99 0 156 43.5t57 128.5q0 53 -24 90.5t-62.5 59t-85 38.5t-93 36.5t-85 45.5t-62.5 72.5t-24 111.5
q0 116 74.5 176t202.5 60q123 0 206 -43v-98q-92 55 -200 55q-93 0 -137 -39.5t-44 -104.5zM365 -154q39 0 66.5 -26t27.5 -76q0 -96 -88 -168h-80q78 71 84 129q-37 -8 -62.5 11.5t-25.5 56.5q0 33 22.5 53t55.5 20z" />
    <glyph glyph-name="uni021A" unicode="&#x21a;" horiz-adv-x="1097" 
d="M82 1327h934v-98h-410v-1229h-114v1229h-410v98zM541 -154q39 0 66.5 -26t27.5 -76q0 -96 -88 -168h-80q78 71 84 129q-37 -8 -62.5 11.5t-25.5 56.5q0 33 22.5 53t55.5 20z" />
    <glyph glyph-name="uni021B" unicode="&#x21b;" horiz-adv-x="718" 
d="M473 76q75 0 152 28v-94q-63 -28 -168 -28q-74 0 -125 20.5t-77.5 60t-37 86.5t-10.5 111v565h-135v19q72 49 132.5 128.5t92.5 160.5h18v-218h273v-90h-273v-544q0 -106 32 -155.5t126 -49.5zM410 -154q39 0 66.5 -26t27.5 -76q0 -96 -88 -168h-80q78 71 84 129
q-37 -8 -62.5 11.5t-25.5 56.5q0 33 22.5 53t55.5 20z" />
    <glyph glyph-name="uni0237" unicode="&#x237;" horiz-adv-x="446" 
d="M2 -424q-80 0 -158 29v96q69 -33 144 -33q51 0 87.5 16t57 40t32 62t14.5 72t3 81v886h-131v90h240v-972q0 -79 -11 -138.5t-40.5 -114.5t-89.5 -84.5t-148 -29.5z" />
    <glyph glyph-name="circumflex" unicode="&#x2c6;" horiz-adv-x="1024" 
d="M203 1065l327 344l330 -344h-123l-207 223l-202 -223h-125z" />
    <glyph glyph-name="caron" unicode="&#x2c7;" horiz-adv-x="1024" 
d="M530 1047l-327 344h125l202 -222l207 222h123z" />
    <glyph glyph-name="breve" unicode="&#x2d8;" horiz-adv-x="1024" 
d="M528 1047q-93 0 -159 24.5t-102 71t-52 104t-16 131.5v13h86q0 -131 58.5 -192.5t184.5 -61.5q128 0 186 61.5t58 192.5h86v-13q0 -331 -330 -331z" />
    <glyph glyph-name="dotaccent" unicode="&#x2d9;" horiz-adv-x="1069" 
d="M578 1171q-34 0 -56 21.5t-22 56.5t22.5 57.5t55.5 22.5q34 0 56.5 -22.5t22.5 -57.5t-22.5 -56.5t-56.5 -21.5z" />
    <glyph glyph-name="ring" unicode="&#x2da;" horiz-adv-x="1044" 
d="M551 1044q-93 0 -153 59t-60 152t60 152t153 59q94 0 153.5 -58.5t59.5 -152.5t-59.5 -152.5t-153.5 -58.5zM551 1116q61 0 98 37t37 102q0 63 -37.5 101.5t-97.5 38.5t-97.5 -37.5t-37.5 -102.5t37.5 -102t97.5 -37z" />
    <glyph glyph-name="ogonek" unicode="&#x2db;" horiz-adv-x="1054" 
d="M670 -424q-86 0 -138.5 42.5t-52.5 133.5q0 100 70 175.5t186 105.5l74 -27q-118 -37 -181 -98.5t-63 -140.5q0 -117 117 -117q59 0 115 31v-78q-54 -27 -127 -27z" />
    <glyph glyph-name="tilde" unicode="&#x2dc;" horiz-adv-x="1021" 
d="M684 1124q-39 0 -75.5 13.5t-64.5 32t-54.5 37.5t-56 32.5t-58.5 13.5q-33 0 -56 -14t-32.5 -35.5t-13 -38t-3.5 -30.5h-80q0 87 48 144.5t135 57.5q49 0 95.5 -20.5t77 -45t68 -45t70.5 -20.5q40 0 64.5 24t30 48t5.5 49h80q0 -85 -46.5 -144t-133.5 -59z" />
    <glyph glyph-name="hungarumlaut" unicode="&#x2dd;" horiz-adv-x="1015" 
d="M141 1065l262 326h146l-299 -326h-109zM492 1065l264 326h143l-299 -326h-108z" />
    <glyph glyph-name="gravecomb" unicode="&#x300;" horiz-adv-x="0" 
d="M-446 1065l-271 326h144l235 -326h-108z" />
    <glyph glyph-name="acutecomb" unicode="&#x301;" horiz-adv-x="0" 
d="M-717 1065l234 326h145l-270 -326h-109z" />
    <glyph glyph-name="uni0302" unicode="&#x302;" horiz-adv-x="0" 
d="M-842 1065l328 344l330 -344h-123l-207 223l-203 -223h-125z" />
    <glyph glyph-name="tildecomb" unicode="&#x303;" horiz-adv-x="0" 
d="M-354 1124q-47 0 -92.5 20t-75.5 44.5t-68.5 44.5t-73.5 20q-33 0 -55.5 -14t-32 -35.5t-13 -38t-3.5 -30.5h-80q0 88 47.5 145t134.5 57q49 0 96 -20.5t77 -45t68 -45t71 -20.5q40 0 64.5 24t30 48t5.5 49h80q0 -85 -46.5 -144t-133.5 -59z" />
    <glyph glyph-name="uni0304" unicode="&#x304;" horiz-adv-x="0" 
d="M-803 1192v90h576v-90h-576z" />
    <glyph glyph-name="uni0306" unicode="&#x306;" horiz-adv-x="0" 
d="M-510 1047q-93 0 -159 24.5t-102.5 71t-52.5 104t-16 131.5v13h86q0 -131 59 -192.5t185 -61.5q128 0 186 61.5t58 192.5h86v-13q0 -331 -330 -331z" />
    <glyph glyph-name="uni0307" unicode="&#x307;" horiz-adv-x="0" 
d="M-535 1171q-34 0 -55.5 21.5t-21.5 56.5t22 57.5t55 22.5q34 0 57 -22.5t23 -57.5t-23 -56.5t-57 -21.5z" />
    <glyph glyph-name="uni0308" unicode="&#x308;" horiz-adv-x="0" 
d="M-702 1171q-34 0 -56 21.5t-22 56.5t22.5 57.5t55.5 22.5q34 0 55.5 -22.5t21.5 -57.5t-21.5 -56.5t-55.5 -21.5zM-330 1171q-34 0 -57 21.5t-23 56.5t23 57.5t57 22.5t56 -22.5t22 -57.5t-22.5 -56.5t-55.5 -21.5z" />
    <glyph glyph-name="uni030A" unicode="&#x30a;" horiz-adv-x="0" 
d="M-524 1044q-93 0 -153 59t-60 152t60 152t153 59q94 0 153.5 -58.5t59.5 -152.5t-59.5 -152.5t-153.5 -58.5zM-524 1116q61 0 98 37t37 102q0 63 -37.5 101.5t-97.5 38.5t-97.5 -37.5t-37.5 -102.5t37.5 -102t97.5 -37z" />
    <glyph glyph-name="uni030B" unicode="&#x30b;" horiz-adv-x="0" 
d="M-887 1065l262 326h146l-299 -326h-109zM-537 1065l265 326h143l-299 -326h-109z" />
    <glyph glyph-name="uni030C" unicode="&#x30c;" horiz-adv-x="0" 
d="M-514 1047l-328 344h125l203 -222l207 222h123z" />
    <glyph glyph-name="uni0315" unicode="&#x315;" horiz-adv-x="0" 
d="M-535 1348q38 0 65.5 -27t27.5 -80q0 -98 -97 -172h-79q87 84 90 137q-37 -6 -61.5 13.5t-24.5 54.5q0 33 22.5 53.5t56.5 20.5z" />
    <glyph glyph-name="uni0326" unicode="&#x326;" horiz-adv-x="0" 
d="M-522 -154q39 0 66.5 -26t27.5 -76q0 -96 -88 -168h-80q78 71 84 129q-37 -8 -62.5 11.5t-25.5 56.5q0 33 22.5 53t55.5 20z" />
    <glyph glyph-name="uni0327" unicode="&#x327;" horiz-adv-x="0" 
d="M-567 -424q-83 0 -135 27v75q61 -32 129 -32q120 0 120 102t-102 102q-61 0 -100 -45l-21 13l66 215h78l-41 -131q20 10 51 10q67 0 111 -40t44 -124q0 -88 -54.5 -130t-145.5 -42z" />
    <glyph glyph-name="uni0328" unicode="&#x328;" horiz-adv-x="0" 
d="M-426 -424q-86 0 -138 42.5t-52 133.5q0 100 70 175.5t186 105.5l73 -27q-117 -37 -180 -98.5t-63 -140.5q0 -117 116 -117q59 0 115 31v-78q-54 -27 -127 -27z" />
    <glyph glyph-name="uni0374" unicode="&#x374;" horiz-adv-x="335" 
d="M35 844l164 483h120l-202 -483h-82z" />
    <glyph glyph-name="uni0375" unicode="&#x375;" horiz-adv-x="335" 
d="M6 -285l164 484h121l-203 -484h-82z" />
    <glyph glyph-name="uni037E" unicode="&#x37e;" horiz-adv-x="466" 
d="M238 606q-37 0 -59.5 23.5t-22.5 60.5q0 35 23.5 58.5t58.5 23.5t57 -23.5t22 -60.5q0 -36 -22 -59t-57 -23zM217 147q46 0 73 -33t27 -94q0 -66 -33.5 -133t-84.5 -108h-78q44 48 72 106.5t28 98.5q-41 -6 -66.5 16t-25.5 61t24.5 62.5t63.5 23.5z" />
    <glyph glyph-name="tonos" unicode="&#x384;" horiz-adv-x="1058" 
d="M342 1079l129 312h131l-158 -312h-102z" />
    <glyph glyph-name="dieresistonos" unicode="&#x385;" horiz-adv-x="1228" 
d="M434 1079l80 312h123l-113 -312h-90zM260 1079q-35 0 -57.5 22.5t-22.5 57.5q0 34 23 56t57 22q33 0 55.5 -22.5t22.5 -57.5t-22.5 -56.5t-55.5 -21.5zM758 1079q-35 0 -57.5 22.5t-22.5 57.5q0 34 23 56t57 22q33 0 55.5 -22.5t22.5 -57.5t-22.5 -56.5t-55.5 -21.5z" />
    <glyph glyph-name="Alphatonos" unicode="&#x386;" horiz-adv-x="1271" 
d="M0 0l600 1348h21l593 -1348h-122l-138 315h-694l-139 -315h-121zM86 1001l143 326h125l-172 -326h-96zM299 414h616l-307 714z" />
    <glyph glyph-name="anoteleia" unicode="&#x387;" horiz-adv-x="477" 
d="M240 391q-36 0 -59 24t-23 60q0 35 23.5 58.5t58.5 23.5t57 -23t22 -59q0 -37 -22 -60.5t-57 -23.5z" />
    <glyph glyph-name="Epsilontonos" unicode="&#x388;" horiz-adv-x="1239" 
d="M0 1001l143 326h125l-172 -326h-96zM406 0v1327h751v-98h-639v-504h479v-96h-479v-529h664v-100h-776z" />
    <glyph glyph-name="Etatonos" unicode="&#x389;" horiz-adv-x="1644" 
d="M0 1001l143 326h125l-172 -326h-96zM406 0v1327h112v-602h823v602h113v-1327h-113v625h-823v-625h-112z" />
    <glyph glyph-name="Iotatonos" unicode="&#x38a;" horiz-adv-x="706" 
d="M0 1001l143 326h125l-172 -326h-96zM406 0v1327h112v-1327h-112z" />
    <glyph glyph-name="Omicrontonos" unicode="&#x38c;" horiz-adv-x="1640" 
d="M872 -20q-123 0 -227 35t-180 97.5t-129.5 148t-80 187.5t-26.5 216q0 144 43.5 268.5t124.5 217t205.5 145.5t276.5 53q154 0 277 -52.5t202.5 -144.5t121.5 -214t42 -263q0 -116 -26.5 -220t-81 -190.5t-131 -150t-182 -98.5t-229.5 -35zM0 1001l143 326h125l-172 -326
h-96zM877 88q244 0 386 162.5t142 421.5q0 163 -63 292t-185 204t-283 75q-235 0 -381.5 -161.5t-146.5 -413.5q0 -164 62.5 -294.5t184.5 -208t284 -77.5z" />
    <glyph glyph-name="Upsilontonos" unicode="&#x38e;" horiz-adv-x="1476" 
d="M0 1001l143 326h125l-172 -326h-96zM831 0v526l-469 801h127l402 -698l405 698h123l-473 -801v-526h-115z" />
    <glyph glyph-name="Omegatonos" unicode="&#x38f;" horiz-adv-x="1703" 
d="M1554 668q0 -198 -91 -347t-246 -221h337v-100h-538v96q189 54 305.5 205t116.5 369q0 251 -147.5 412t-383.5 161t-383 -161t-147 -412q0 -217 117 -368t305 -206v-96h-537v100h336q-154 73 -245 221t-91 345q0 144 43 267.5t123.5 216t204.5 145.5t276 53t275 -53
t203.5 -145t123.5 -215.5t43 -266.5zM143 1327h125l-172 -326h-96z" />
    <glyph glyph-name="iotadieresistonos" unicode="&#x390;" horiz-adv-x="446" 
d="M158 1079l80 312h122l-112 -312h-90zM-16 1079q-35 0 -57.5 22.5t-22.5 57.5q0 34 23 56t57 22q33 0 55 -22.5t22 -57.5t-22 -56.5t-55 -21.5zM481 1079q-35 0 -57.5 22.5t-22.5 57.5q0 34 23 56t57 22q33 0 55.5 -22.5t22.5 -57.5t-22.5 -56.5t-55.5 -21.5zM182 0v825
h-131v90h240v-915h-109z" />
    <glyph glyph-name="Alpha" unicode="&#x391;" horiz-adv-x="1329" 
d="M57 0l600 1348h21l594 -1348h-123l-137 315h-695l-139 -315h-121zM356 414h617l-307 714z" />
    <glyph glyph-name="Beta" unicode="&#x392;" horiz-adv-x="1204" 
d="M819 696q125 -19 202 -100.5t77 -230.5q0 -365 -465 -365h-443v1327h320q87 0 153.5 -7t135.5 -28.5t113.5 -58t73 -100t28.5 -150.5q0 -124 -56.5 -194.5t-138.5 -92.5zM897 979q0 48 -12.5 86.5t-32 64.5t-51 45t-63 29.5t-73.5 17t-77 8t-80 1.5h-205v-506h219
q51 0 87.5 2.5t84.5 10t80.5 24.5t62.5 44t45 71t15 102zM631 98q350 0 350 271q0 260 -338 260h-340v-531h328z" />
    <glyph glyph-name="Gamma" unicode="&#x393;" horiz-adv-x="980" 
d="M944 1327v-98h-641v-1229h-113v1327h754z" />
    <glyph glyph-name="uni0394" unicode="&#x394;" horiz-adv-x="1329" 
d="M676 1348l596 -1348h-1215l598 1348h21zM1106 100l-442 1026l-443 -1026h885z" />
    <glyph glyph-name="Epsilon" unicode="&#x395;" horiz-adv-x="1026" 
d="M190 0v1327h752v-98h-639v-504h479v-96h-479v-529h664v-100h-777z" />
    <glyph glyph-name="Zeta" unicode="&#x396;" horiz-adv-x="1204" 
d="M113 0v20l798 1209h-768v98h947v-20l-797 -1207h807v-100h-987z" />
    <glyph glyph-name="Eta" unicode="&#x397;" horiz-adv-x="1429" 
d="M190 0v1327h113v-602h823v602h113v-1327h-113v625h-823v-625h-113z" />
    <glyph glyph-name="Theta" unicode="&#x398;" horiz-adv-x="1529" 
d="M762 -20q-123 0 -227 35t-180 97.5t-129.5 148t-80 187.5t-26.5 216q0 144 43.5 268.5t124.5 217t205 145.5t276 53q154 0 277 -52.5t202.5 -144.5t121.5 -214t42 -263q0 -145 -42.5 -271t-123 -220.5t-205 -148.5t-278.5 -54zM766 88q244 0 386 162.5t142 421.5
q0 163 -63 292t-184.5 204t-282.5 75q-235 0 -381.5 -161.5t-146.5 -413.5q0 -164 62.5 -294.5t184 -208t283.5 -77.5zM416 625v100h700v-100h-700z" />
    <glyph glyph-name="Iota" unicode="&#x399;" horiz-adv-x="493" 
d="M190 0v1327h113v-1327h-113z" />
    <glyph glyph-name="Kappa" unicode="&#x39a;" 
d="M190 0v1327h113v-643l688 643h156l-709 -653l727 -674h-159l-703 659v-659h-113z" />
    <glyph glyph-name="Lambda" unicode="&#x39b;" horiz-adv-x="1308" 
d="M1251 0h-123l-473 1126l-477 -1126h-121l590 1348h21z" />
    <glyph glyph-name="Mu" unicode="&#x39c;" horiz-adv-x="1705" 
d="M844 -20l-426 1054l-193 -1034h-114l260 1348h20l463 -1133l465 1133h20l256 -1348h-112l-193 1030l-426 -1050h-20z" />
    <glyph glyph-name="Nu" unicode="&#x39d;" horiz-adv-x="1449" 
d="M1241 -20l-940 1110v-1090h-111v1348h21l940 -1112v1091h111v-1347h-21z" />
    <glyph glyph-name="Xi" unicode="&#x39e;" horiz-adv-x="1087" 
d="M90 1229v98h907v-98h-907zM213 629v98h674v-98h-674zM80 0v100h928v-100h-928z" />
    <glyph glyph-name="Omicron" unicode="&#x39f;" horiz-adv-x="1529" 
d="M762 -20q-123 0 -227 35t-180 97.5t-129.5 148t-80 187.5t-26.5 216q0 144 43.5 268.5t124.5 217t205 145.5t276 53q154 0 277 -52.5t202.5 -144.5t121.5 -214t42 -263q0 -145 -42.5 -271t-123 -220.5t-205 -148.5t-278.5 -54zM766 88q244 0 386 162.5t142 421.5
q0 163 -63 292t-184.5 204t-282.5 75q-235 0 -381.5 -161.5t-146.5 -413.5q0 -164 62.5 -294.5t184 -208t283.5 -77.5z" />
    <glyph glyph-name="Pi" unicode="&#x3a0;" horiz-adv-x="1402" 
d="M190 1327h1022v-1327h-114v1229h-795v-1229h-113v1327z" />
    <glyph glyph-name="Rho" unicode="&#x3a1;" horiz-adv-x="1185" 
d="M584 1327q88 0 158.5 -10t139 -37.5t114.5 -72.5t74 -119t28 -173q0 -100 -30.5 -175.5t-79 -120.5t-118.5 -72.5t-139.5 -37t-152.5 -9.5h-275v-500h-113v1327h394zM571 596q410 0 410 319q0 90 -30.5 153t-88 97.5t-128 49t-163.5 14.5h-268v-633h268z" />
    <glyph glyph-name="Sigma" unicode="&#x3a3;" horiz-adv-x="1148" 
d="M313 100h754v-100h-956v20l505 652l-499 635v20h930v-98h-732l441 -559z" />
    <glyph glyph-name="Tau" unicode="&#x3a4;" horiz-adv-x="1097" 
d="M492 0v1229h-410v98h934v-98h-410v-1229h-114z" />
    <glyph glyph-name="Upsilon" unicode="&#x3a5;" horiz-adv-x="1171" 
d="M526 0v526l-469 801h127l402 -698l405 698h123l-473 -801v-526h-115z" />
    <glyph glyph-name="Phi" unicode="&#x3a6;" horiz-adv-x="1622" 
d="M1503 664q0 -275 -174.5 -440.5t-462.5 -174.5v-127h-110v127q-291 9 -464 174t-173 441q0 275 175 441t462 175v125h110v-125q291 -9 464 -174.5t173 -441.5zM236 668q0 -236 142.5 -375.5t379.5 -145.5v1033q-229 -6 -375.5 -143t-146.5 -369zM864 147q229 6 375.5 143
t146.5 369q0 236 -142.5 375.5t-379.5 145.5v-1033z" />
    <glyph glyph-name="Chi" unicode="&#x3a7;" horiz-adv-x="1169" 
d="M57 0l457 680l-436 647h135l371 -563l379 563h131l-441 -647l459 -680h-133l-395 598l-396 -598h-131z" />
    <glyph glyph-name="Psi" unicode="&#x3a8;" horiz-adv-x="1640" 
d="M1354 1327h114v-266q0 -284 -141.5 -430.5t-449.5 -149.5v-481h-113v481q-309 3 -450.5 151t-141.5 429v266h115v-262q0 -241 113 -360.5t364 -120.5v743h113v-743q249 1 363 116.5t114 356.5v270z" />
    <glyph glyph-name="uni03A9" unicode="&#x3a9;" horiz-adv-x="1593" 
d="M1444 668q0 -198 -91.5 -347t-246.5 -221h338v-100h-539v96q189 54 305.5 205t116.5 369q0 251 -147 412t-383 161t-383.5 -161t-147.5 -412q0 -217 117 -368t305 -206v-96h-536v100h335q-154 73 -244.5 220.5t-90.5 345.5q0 144 43 267.5t123.5 216t204.5 145.5t276 53
t275 -53t203.5 -145t123.5 -215.5t43 -266.5z" />
    <glyph glyph-name="Iotadieresis" unicode="&#x3aa;" horiz-adv-x="493" 
d="M61 1534q-39 0 -64.5 25.5t-25.5 64.5q0 40 26 66t64 26q39 0 65 -26t26 -66q0 -39 -26 -64.5t-65 -25.5zM434 1534q-39 0 -64.5 25.5t-25.5 64.5q0 40 26 66t64 26t64 -26t26 -66q0 -39 -25.5 -64.5t-64.5 -25.5zM190 0v1327h113v-1327h-113z" />
    <glyph glyph-name="Upsilondieresis" unicode="&#x3ab;" horiz-adv-x="1171" 
d="M401 1534q-39 0 -64.5 25.5t-25.5 64.5q0 40 26 66t64 26q39 0 65 -26t26 -66q0 -39 -26 -64.5t-65 -25.5zM774 1534q-39 0 -64.5 25.5t-25.5 64.5q0 40 26 66t64 26t64 -26t26 -66q0 -39 -25.5 -64.5t-64.5 -25.5zM526 0v526l-469 801h127l402 -698l405 698h123
l-473 -801v-526h-115z" />
    <glyph glyph-name="alphatonos" unicode="&#x3ac;" horiz-adv-x="1173" 
d="M772 1391l-158 -312h-102l129 312h131zM918 915h98v-915h-98l-5 186q-42 -89 -137 -146.5t-233 -57.5q-93 0 -174.5 30.5t-143.5 88.5t-97.5 148.5t-35.5 203.5q0 220 126.5 349.5t330.5 129.5q132 0 225 -53t139 -138zM555 78q53 0 101.5 12t95 40t80.5 71t54.5 109.5
t20.5 150.5q0 97 -27.5 171t-75.5 118t-109.5 66t-133.5 22q-152 0 -253 -98.5t-101 -282.5q0 -181 96.5 -280t251.5 -99z" />
    <glyph glyph-name="epsilontonos" unicode="&#x3ad;" horiz-adv-x="890" 
d="M651 1391l-157 -312h-103l129 312h131zM498 70q91 0 166 24.5t118 57.5v-101q-39 -26 -121 -47.5t-186 -21.5q-103 0 -179 23.5t-123.5 81t-47.5 146.5q0 87 53.5 152t149.5 88q-85 22 -134 78t-49 139q0 121 96 181.5t240 60.5q87 1 166.5 -22t118.5 -48v-100
q-45 32 -121.5 58t-163.5 26q-99 0 -161 -40t-62 -120q0 -87 71 -130.5t195 -43.5h88v-84h-86q-288 0 -288 -182q0 -49 21.5 -85t59.5 -55t82 -27.5t97 -8.5z" />
    <glyph glyph-name="etatonos" unicode="&#x3ae;" horiz-adv-x="1087" 
d="M731 1391l-158 -312h-102l129 312h131zM592 932q185 0 269.5 -101t84.5 -299v-938h-108v906q0 82 -12 140t-41 105t-83 70t-133 23q-305 0 -305 -385v-453h-108v915h100l2 -157q36 82 121.5 128t212.5 46z" />
    <glyph glyph-name="iotatonos" unicode="&#x3af;" horiz-adv-x="446" 
d="M160 1079l129 312h131l-158 -312h-102zM182 0v825h-131v90h240v-915h-109z" />
    <glyph glyph-name="upsilondieresistonos" unicode="&#x3b0;" horiz-adv-x="1032" 
d="M440 1079l80 312h123l-113 -312h-90zM266 1079q-35 0 -57.5 22.5t-22.5 57.5q0 34 23 56t57 22q33 0 55.5 -22.5t22.5 -57.5t-22.5 -56.5t-55.5 -21.5zM764 1079q-35 0 -57.5 22.5t-22.5 57.5q0 34 23 56t57 22q33 0 55.5 -22.5t22.5 -57.5t-22.5 -56.5t-55.5 -21.5z
M516 -18q-87 0 -153.5 23t-108 61t-67.5 92.5t-36 111t-10 123.5v522h109v-520q0 -319 268 -319q266 0 266 319v520h107v-522q0 -65 -9.5 -120.5t-35.5 -110.5t-67 -93.5t-108 -62.5t-155 -24z" />
    <glyph glyph-name="alpha" unicode="&#x3b1;" horiz-adv-x="1173" 
d="M918 915h98v-915h-98l-5 186q-42 -89 -137 -146.5t-233 -57.5q-93 0 -174.5 30.5t-143.5 88.5t-97.5 148.5t-35.5 203.5q0 220 126.5 349.5t330.5 129.5q132 0 225 -53t139 -138zM555 78q53 0 101.5 12t95 40t80.5 71t54.5 109.5t20.5 150.5q0 97 -27.5 171t-75.5 118
t-109.5 66t-133.5 22q-152 0 -253 -98.5t-101 -282.5q0 -181 96.5 -280t251.5 -99z" />
    <glyph glyph-name="beta" unicode="&#x3b2;" horiz-adv-x="1077" 
d="M709 713q41 -5 79.5 -18.5t77.5 -40.5t67 -65t46 -95t18 -127q0 -128 -54.5 -216.5t-143 -128.5t-205.5 -40q-242 0 -330 168v-556h-108v1295q0 235 101.5 364t305.5 129q162 0 263.5 -89.5t101.5 -260.5q0 -116 -63 -203t-156 -116zM596 74q134 0 212.5 73t78.5 215
q0 83 -26 141t-77.5 91t-118 47t-157.5 14h-64v90h64q149 0 228 75.5t79 205.5q0 131 -70.5 198.5t-187.5 67.5q-134 0 -213.5 -94t-79.5 -280v-445q0 -202 85.5 -300.5t246.5 -98.5z" />
    <glyph glyph-name="gamma" unicode="&#x3b3;" horiz-adv-x="980" 
d="M932 915l-385 -849v-472h-109v469l-389 852h121l324 -749l321 749h117z" />
    <glyph glyph-name="delta" unicode="&#x3b4;" horiz-adv-x="1130" 
d="M705 885q163 -74 241 -182t78 -265q0 -204 -127.5 -330t-333.5 -126q-209 0 -333 126t-124 330q0 181 115 301t307 127l-65 29q-97 43 -150 98.5t-53 139.5q0 120 97.5 184.5t256.5 64.5q102 0 185.5 -22t128.5 -47v-105q-53 33 -135 55.5t-177 22.5q-103 0 -174 -35.5
t-71 -109.5q0 -64 45.5 -104t148.5 -89zM561 78q153 0 250.5 97.5t97.5 262.5q0 161 -97 252.5t-249 91.5q-156 0 -249 -96t-93 -248q0 -167 94.5 -263.5t245.5 -96.5z" />
    <glyph glyph-name="epsilon" unicode="&#x3b5;" horiz-adv-x="890" 
d="M498 70q91 0 166 24.5t118 57.5v-101q-39 -26 -121 -47.5t-186 -21.5q-103 0 -179 23.5t-123.5 81t-47.5 146.5q0 87 53.5 152t149.5 88q-85 22 -134 78t-49 139q0 121 96 181.5t240 60.5q87 1 166.5 -22t118.5 -48v-100q-45 32 -121.5 58t-163.5 26q-99 0 -161 -40
t-62 -120q0 -87 71 -130.5t195 -43.5h88v-84h-86q-288 0 -288 -182q0 -49 21.5 -85t59.5 -55t82 -27.5t97 -8.5z" />
    <glyph glyph-name="zeta" unicode="&#x3b6;" horiz-adv-x="847" 
d="M799 1337l-226 -284q-171 -219 -252 -376.5t-81 -293.5q0 -73 17 -123t55 -82t83 -50t115 -34q158 -37 218 -77.5t60 -125.5q0 -88 -73 -182h-105q66 85 66 160q0 56 -47.5 83t-155.5 48q-173 33 -260.5 115.5t-87.5 249.5q0 154 87.5 321t270.5 393l154 189h-510v90h672
v-21z" />
    <glyph glyph-name="eta" unicode="&#x3b7;" horiz-adv-x="1087" 
d="M592 932q185 0 269.5 -101t84.5 -299v-938h-108v906q0 82 -12 140t-41 105t-83 70t-133 23q-305 0 -305 -385v-453h-108v915h100l2 -157q36 82 121.5 128t212.5 46z" />
    <glyph glyph-name="theta" unicode="&#x3b8;" horiz-adv-x="1183" 
d="M592 1382q129 0 223.5 -55t148 -154t78.5 -220t25 -269q0 -119 -16.5 -222.5t-53 -192.5t-91 -152t-134.5 -99t-180 -36q-129 0 -223.5 54.5t-148 153.5t-78.5 221t-25 273q0 146 26.5 268.5t81.5 221t148.5 153.5t218.5 55zM592 1286q-94 0 -163.5 -41.5t-112 -118
t-64 -176.5t-23.5 -225h725q-2 125 -23 224t-62.5 176.5t-111.5 119t-165 41.5zM592 78q93 0 162 41t111 117t63.5 174.5t25.5 224.5h-725q3 -124 25 -223.5t64.5 -175.5t112 -117t161.5 -41z" />
    <glyph glyph-name="iota" unicode="&#x3b9;" horiz-adv-x="446" 
d="M182 0v825h-131v90h240v-915h-109z" />
    <glyph glyph-name="kappa" unicode="&#x3ba;" horiz-adv-x="946" 
d="M913 0h-149l-490 459v-459h-108v915h108v-436l467 436h150l-490 -444z" />
    <glyph glyph-name="lambda" unicode="&#x3bb;" horiz-adv-x="1040" 
d="M989 78q33 0 51 12v-86q-33 -14 -82 -14q-71 0 -110 38t-72 119l-254 635l-334 -782h-118l401 911l-104 263q-23 58 -47.5 82t-61.5 24t-55 -12v86q33 14 84 14q71 0 110 -38.5t72 -119.5l410 -1026q25 -60 48.5 -83t61.5 -23z" />
    <glyph glyph-name="uni03BC" unicode="&#x3bc;" horiz-adv-x="1085" 
d="M819 915h109v-915h-99l-4 176q-34 -83 -113 -129.5t-192 -46.5q-187 0 -256 113v-519h-108v1321h108v-485q0 -165 59 -251.5t201 -86.5q295 0 295 385v438z" />
    <glyph glyph-name="nu" unicode="&#x3bd;" horiz-adv-x="980" 
d="M483 -18l-434 933h121l324 -737l321 737h117l-428 -933h-21z" />
    <glyph glyph-name="xi" unicode="&#x3be;" horiz-adv-x="845" 
d="M557 1288q-128 0 -206.5 -60t-78.5 -184q-2 -132 78.5 -206t229.5 -74h94v-88h-101q-178 0 -263 -76.5t-85 -206.5q0 -73 20.5 -124.5t65.5 -85.5t99.5 -55t138.5 -40q149 -34 204.5 -73t55.5 -124q0 -86 -74 -182h-104q65 84 65 160q0 51 -39 78.5t-149 48.5
q-201 37 -299 124.5t-98 262.5q0 121 70.5 216.5t193.5 125.5q-109 34 -163 120t-54 187q0 88 31 156.5t85 110t123.5 62.5t151.5 21q137 0 260 -49v-108q-106 63 -252 63z" />
    <glyph glyph-name="omicron" unicode="&#x3bf;" horiz-adv-x="1122" 
d="M559 -18q-214 0 -340.5 130.5t-126.5 342.5q0 210 126 343.5t343 133.5q211 0 340 -124.5t129 -340.5q0 -219 -130 -352t-341 -133zM557 78q157 0 257.5 103.5t100.5 281.5q0 174 -100 274.5t-256 100.5q-161 0 -256.5 -106.5t-95.5 -276.5q0 -174 97.5 -275.5
t252.5 -101.5z" />
    <glyph glyph-name="pi" unicode="&#x3c0;" horiz-adv-x="1202" 
d="M1112 915v-90h-141v-825h-109v825h-522v-825h-109v825h-141v90h1022z" />
    <glyph glyph-name="rho" unicode="&#x3c1;" horiz-adv-x="1144" 
d="M125 -406v816q0 251 122.5 386.5t340.5 135.5q215 0 340 -126t125 -343q0 -221 -125.5 -351t-331.5 -130q-126 0 -219.5 52t-140.5 136l-3 -576h-108zM582 78q162 0 259 103t97 280t-97.5 277t-256.5 100q-167 0 -261 -107t-94 -274q0 -172 96 -275.5t257 -103.5z" />
    <glyph glyph-name="uni03C2" unicode="&#x3c2;" horiz-adv-x="907" 
d="M623 -291q65 84 65 158q0 50 -37 76.5t-139 48.5q-213 46 -316.5 155.5t-103.5 321.5q0 213 125 338t342 125q134 0 240 -47v-109q-100 62 -232 62q-169 0 -264.5 -97.5t-95.5 -267.5q0 -93 22 -159t68 -109.5t104 -69.5t144 -47q146 -35 201 -74.5t55 -122.5
q0 -86 -74 -182h-104z" />
    <glyph glyph-name="sigma" unicode="&#x3c3;" horiz-adv-x="1136" 
d="M1081 915v-90h-262q90 -50 140.5 -149.5t50.5 -231.5q0 -207 -127.5 -334.5t-331.5 -127.5q-209 0 -334 128t-125 336q0 209 129.5 339t364.5 130h495zM897 449q0 174 -94.5 273t-249.5 99q-159 0 -252.5 -104.5t-93.5 -272.5q0 -169 95.5 -267.5t248.5 -98.5
q152 0 249 100.5t97 270.5z" />
    <glyph glyph-name="tau" unicode="&#x3c4;" horiz-adv-x="839" 
d="M778 825h-305v-628q0 -66 18.5 -93.5t67.5 -27.5q36 0 64 12v-86q-33 -14 -86 -14q-97 0 -134.5 49.5t-37.5 146.5v641h-304v90h717v-90z" />
    <glyph glyph-name="upsilon" unicode="&#x3c5;" horiz-adv-x="1032" 
d="M516 -18q-87 0 -153.5 23t-108 61t-67.5 92.5t-36 111t-10 123.5v522h109v-520q0 -319 268 -319q266 0 266 319v520h107v-522q0 -65 -9.5 -120.5t-35.5 -110.5t-67 -93.5t-108 -62.5t-155 -24z" />
    <glyph glyph-name="phi" unicode="&#x3c6;" horiz-adv-x="1306" 
d="M1214 467q0 -212 -142.5 -346t-366.5 -139v-388h-103v388q-228 4 -369 136t-141 337q0 204 139.5 338.5t370.5 138.5v426h103v-426q226 -5 367.5 -130t141.5 -335zM203 455q0 -169 115 -273t284 -106v766q-174 -1 -286.5 -111.5t-112.5 -275.5zM705 76q170 5 283.5 110
t113.5 277q0 168 -114.5 272t-282.5 107v-766z" />
    <glyph glyph-name="chi" unicode="&#x3c7;" horiz-adv-x="1017" 
d="M938 -330q21 0 47 13v-84q-34 -17 -72 -17q-37 0 -64.5 10.5t-49.5 34t-36 46t-34 63.5l-215 416l-313 -558h-133l395 658l-248 483q-32 61 -54.5 83t-58.5 22q-27 0 -49 -11v84q35 15 78 15q69 0 104 -35t80 -123l213 -414l312 559h129l-387 -659l249 -483
q31 -60 52.5 -81.5t54.5 -21.5z" />
    <glyph glyph-name="psi" unicode="&#x3c8;" horiz-adv-x="1327" 
d="M1075 915h109v-438q0 -89 -13.5 -160.5t-47 -135.5t-85.5 -107t-133.5 -67.5t-187.5 -24.5h-2v-392h-105v392h-4q-105 0 -185.5 24.5t-133 67.5t-85.5 106.5t-47 136t-14 160.5v438h109v-434q0 -199 82.5 -302t275.5 -103h2v839h105v-839q195 0 277.5 102.5t82.5 302.5
v434z" />
    <glyph glyph-name="omega" unicode="&#x3c9;" horiz-adv-x="1445" 
d="M1192 915q69 -91 116.5 -230t47.5 -292q0 -188 -86 -299.5t-238 -111.5q-125 0 -202.5 69t-106.5 193q-27 -124 -105.5 -193t-209.5 -69q-149 0 -233.5 111.5t-84.5 299.5q0 153 47.5 292t116.5 230h111q-70 -90 -115 -221.5t-45 -279.5q0 -91 20.5 -164t73.5 -123.5
t133 -50.5q107 0 174.5 108.5t67.5 298.5v160h98v-160q0 -190 68.5 -298.5t175.5 -108.5q79 0 131.5 50.5t73 123.5t20.5 164q0 148 -45 279.5t-115 221.5h111z" />
    <glyph glyph-name="iotadieresis" unicode="&#x3ca;" horiz-adv-x="493" 
d="M102 1079q-35 0 -57 22.5t-22 57.5q0 34 22.5 56t56.5 22q33 0 55.5 -22.5t22.5 -57.5t-22.5 -56.5t-55.5 -21.5zM377 1079q-34 0 -56 22.5t-22 57.5q0 33 22.5 55.5t55.5 22.5q34 0 57 -22.5t23 -57.5t-23 -56.5t-57 -21.5zM219 0v825h-131v90h240v-915h-109z" />
    <glyph glyph-name="upsilondieresis" unicode="&#x3cb;" horiz-adv-x="1032" 
d="M330 1079q-34 0 -56 21.5t-22 56.5t22.5 57.5t55.5 22.5q34 0 56 -22.5t22 -57.5t-22 -56.5t-56 -21.5zM702 1079q-34 0 -56.5 21.5t-22.5 56.5t22.5 57.5t56.5 22.5t56 -22.5t22 -57.5t-22.5 -56.5t-55.5 -21.5zM516 -18q-87 0 -153.5 23t-108 61t-67.5 92.5t-36 111
t-10 123.5v522h109v-520q0 -319 268 -319q266 0 266 319v520h107v-522q0 -65 -9.5 -120.5t-35.5 -110.5t-67 -93.5t-108 -62.5t-155 -24z" />
    <glyph glyph-name="omicrontonos" unicode="&#x3cc;" horiz-adv-x="1122" 
d="M487 1079l129 312h132l-158 -312h-103zM559 -18q-214 0 -340.5 130.5t-126.5 342.5q0 210 126 343.5t343 133.5q211 0 340 -124.5t129 -340.5q0 -219 -130 -352t-341 -133zM557 78q157 0 257.5 103.5t100.5 281.5q0 174 -100 274.5t-256 100.5q-161 0 -256.5 -106.5
t-95.5 -276.5q0 -174 97.5 -275.5t252.5 -101.5z" />
    <glyph glyph-name="upsilontonos" unicode="&#x3cd;" horiz-adv-x="1032" 
d="M442 1079l129 312h131l-157 -312h-103zM516 -18q-87 0 -153.5 23t-108 61t-67.5 92.5t-36 111t-10 123.5v522h109v-520q0 -319 268 -319q266 0 266 319v520h107v-522q0 -65 -9.5 -120.5t-35.5 -110.5t-67 -93.5t-108 -62.5t-155 -24z" />
    <glyph glyph-name="omegatonos" unicode="&#x3ce;" horiz-adv-x="1445" 
d="M909 1391l-157 -312h-103l129 312h131zM1192 915q69 -91 116.5 -230t47.5 -292q0 -188 -86 -299.5t-238 -111.5q-125 0 -202.5 69t-106.5 193q-27 -124 -105.5 -193t-209.5 -69q-149 0 -233.5 111.5t-84.5 299.5q0 153 47.5 292t116.5 230h111q-70 -90 -115 -221.5
t-45 -279.5q0 -91 20.5 -164t73.5 -123.5t133 -50.5q107 0 174.5 108.5t67.5 298.5v160h98v-160q0 -190 68.5 -298.5t175.5 -108.5q79 0 131.5 50.5t73 123.5t20.5 164q0 148 -45 279.5t-115 221.5h111z" />
    <glyph glyph-name="beta.ss02" unicode="&#x3d0;" horiz-adv-x="1060" 
d="M688 709q134 -21 206.5 -112.5t72.5 -227.5q0 -79 -22 -143.5t-60 -109.5t-91 -75.5t-113 -44.5t-128 -14q-208 0 -315 110.5t-107 343.5v463q0 483 408 483q171 0 265.5 -91.5t94.5 -262.5q0 -116 -57.5 -201t-153.5 -118zM530 1290q-290 0 -290 -362v-187h229
q160 0 238.5 76.5t78.5 214.5q0 125 -67 191.5t-189 66.5zM559 74q137 0 215 73.5t78 210.5q0 157 -86.5 226t-271.5 69h-254v-207q0 -372 319 -372z" />
    <glyph glyph-name="theta.ss02" unicode="&#x3d1;" horiz-adv-x="1214" 
d="M649 1382q465 0 465 -684q0 -124 -15.5 -229t-51.5 -196t-90 -154.5t-135 -100t-183 -36.5q-211 0 -315.5 125t-104.5 344v45q0 65 -17 90.5t-65 25.5q-33 0 -61 -12v86q28 14 94 14q85 0 121.5 -45t36.5 -141v-41q0 -189 78.5 -292t238.5 -103q354 0 354 620v52
q-140 -91 -317 -91q-195 0 -308.5 98.5t-113.5 274.5q0 150 103 250t286 100zM369 1032q0 -133 89 -203.5t238 -68.5q165 0 301 86q-16 206 -104 323t-248 117q-121 0 -198.5 -65.5t-77.5 -188.5z" />
    <glyph glyph-name="phi.ss02" unicode="&#x3d5;" horiz-adv-x="1292" 
d="M1200 467q0 -215 -139.5 -347.5t-368.5 -137.5v-390h-104v390q-128 1 -225.5 40t-156 108t-87.5 157t-29 194q0 128 46 243.5t112 190.5h112q-70 -78 -115.5 -190.5t-45.5 -239.5q0 -89 21.5 -161t67 -127.5t121.5 -87t179 -33.5v850h74q251 0 394.5 -121.5t143.5 -337.5
zM692 76q175 5 286.5 109t111.5 278q0 168 -110.5 266.5t-287.5 104.5v-758z" />
    <glyph glyph-name="uni0401" unicode="&#x401;" horiz-adv-x="1026" 
d="M385 1534q-39 0 -64.5 25.5t-25.5 64.5q0 40 26 66t64 26t64 -26t26 -66q0 -39 -25.5 -64.5t-64.5 -25.5zM758 1534q-39 0 -64.5 25.5t-25.5 64.5q0 40 26 66t64 26t64 -26t26 -66q0 -39 -25.5 -64.5t-64.5 -25.5zM190 0v1327h752v-98h-639v-504h479v-96h-479v-529h664
v-100h-777z" />
    <glyph glyph-name="uni0402" unicode="&#x402;" horiz-adv-x="1611" 
d="M1028 856q461 0 461 -440q0 -95 -21.5 -171.5t-68 -138t-127 -95.5t-189.5 -34q-67 0 -129 17v104q56 -18 121 -18q155 0 228 90.5t73 239.5q0 342 -368 342q-402 0 -402 -396v-356h-114v1229h-410v98h1016v-98h-492v-559q111 186 422 186z" />
    <glyph glyph-name="uni0403" unicode="&#x403;" horiz-adv-x="980" 
d="M879 1794l-269 -326h-108l233 326h144zM944 1327v-98h-641v-1229h-113v1327h754z" />
    <glyph glyph-name="uni0404" unicode="&#x404;" horiz-adv-x="1296" 
d="M778 88q114 0 214.5 30.5t170.5 78.5v-121q-50 -35 -157.5 -65.5t-237.5 -30.5q-203 0 -351 86t-223 239t-75 357q0 201 73.5 354.5t221 242.5t350.5 89q123 0 225.5 -30t153.5 -69v-119q-163 113 -373 113q-238 0 -380.5 -142.5t-153.5 -379.5h645v-96h-648
q9 -250 158.5 -393.5t386.5 -143.5z" />
    <glyph glyph-name="uni0405" unicode="&#x405;" horiz-adv-x="1003" 
d="M483 -20q-203 0 -342 81v119q64 -41 153 -69.5t185 -28.5q139 0 220 61.5t81 194.5q0 72 -34.5 125.5t-90 87t-122.5 61.5t-134 59.5t-122.5 70.5t-90 104t-34.5 151q0 163 104.5 257t284.5 94q169 0 305 -72v-121q-144 92 -297 92q-126 0 -203.5 -62.5t-77.5 -178.5
q0 -55 21.5 -98t58 -72t83.5 -53t99 -45.5t104.5 -44t99.5 -53.5t83.5 -69.5t58 -96.5t21.5 -130q0 -185 -110.5 -274.5t-303.5 -89.5z" />
    <glyph glyph-name="uni0406" unicode="&#x406;" horiz-adv-x="493" 
d="M190 0v1327h113v-1327h-113z" />
    <glyph glyph-name="uni0407" unicode="&#x407;" horiz-adv-x="493" 
d="M61 1534q-39 0 -64.5 25.5t-25.5 64.5q0 40 26 66t64 26q39 0 65 -26t26 -66q0 -39 -26 -64.5t-65 -25.5zM434 1534q-39 0 -64.5 25.5t-25.5 64.5q0 40 26 66t64 26t64 -26t26 -66q0 -39 -25.5 -64.5t-64.5 -25.5zM190 0v1327h113v-1327h-113z" />
    <glyph glyph-name="uni0408" unicode="&#x408;" horiz-adv-x="946" 
d="M379 -20q-168 0 -252 43v112q87 -51 235 -51q175 0 239.5 86t64.5 307v754h-357v96h471v-889q0 -116 -19.5 -197.5t-65 -142t-124 -89.5t-192.5 -29z" />
    <glyph glyph-name="uni0409" unicode="&#x409;" horiz-adv-x="2093" 
d="M1491 827q88 0 158.5 -10t139 -37t114.5 -71.5t74 -118.5t28 -172q0 -418 -518 -418h-389v1229h-623v-309q0 -124 -3 -220t-11.5 -196.5t-23.5 -174t-39.5 -140.5t-58.5 -108.5t-81.5 -66t-107.5 -24.5q-65 0 -95 18v107q31 -17 78 -17q55 0 96 41t67 111.5t42 178.5
t22.5 230t6.5 277v391h845v-500h279zM1479 98q409 0 409 320q0 90 -30 152t-87 96t-127.5 48.5t-164.5 14.5h-267v-631h267z" />
    <glyph glyph-name="uni040A" unicode="&#x40a;" horiz-adv-x="2121" 
d="M1520 827q88 0 158.5 -10t139 -37t114.5 -71.5t74 -118.5t28 -172q0 -418 -521 -418h-387v625h-823v-625h-113v1327h113v-602h823v602h113v-500h281zM1507 98q410 0 410 320q0 89 -30.5 151.5t-88 96.5t-128 48.5t-163.5 14.5h-268v-631h268z" />
    <glyph glyph-name="uni040B" unicode="&#x40b;" horiz-adv-x="1613" 
d="M1022 856q451 0 451 -450v-406h-115v352q0 198 -82 299t-283 101q-387 0 -387 -385v-367h-114v1229h-410v98h1016v-98h-492v-555q112 182 416 182z" />
    <glyph glyph-name="uni040C" unicode="&#x40c;" 
d="M547 1468l233 326h144l-269 -326h-108zM190 0v1327h113v-643l688 643h156l-709 -653l727 -674h-159l-703 659v-659h-113z" />
    <glyph glyph-name="uni040D" unicode="&#x40d;" horiz-adv-x="1427" 
d="M838 1468h-109l-268 326h143zM1217 1348h20v-1348h-113v1092l-913 -1112h-21v1347h113v-1096z" />
    <glyph glyph-name="uni040E" unicode="&#x40e;" horiz-adv-x="1165" 
d="M616 1430q-170 0 -250.5 89.5t-80.5 241.5v13h100q0 -128 62 -192t169 -64t169.5 64t62.5 192h100v-13q0 -150 -83 -240.5t-249 -90.5zM1028 1327h111l-641 -1327h-111l197 410l-543 917h125l473 -805z" />
    <glyph glyph-name="uni040F" unicode="&#x40f;" horiz-adv-x="1394" 
d="M1204 1327v-1327h-454v-291h-105v291h-455v1327h113v-1227h789v1227h112z" />
    <glyph glyph-name="uni0410" unicode="&#x410;" horiz-adv-x="1329" 
d="M57 0l600 1348h21l594 -1348h-123l-137 315h-695l-139 -315h-121zM356 414h617l-307 714z" />
    <glyph glyph-name="uni0411" unicode="&#x411;" horiz-adv-x="1183" 
d="M586 778q84 0 152.5 -8.5t137.5 -34t115.5 -67t75.5 -111.5t29 -164q0 -393 -516 -393h-390v1327h799v-98h-686v-451h283zM571 98q408 0 408 295q0 82 -29.5 139.5t-86 89t-127.5 45t-165 13.5h-268v-582h268z" />
    <glyph glyph-name="uni0412" unicode="&#x412;" horiz-adv-x="1204" 
d="M819 696q125 -19 202 -100.5t77 -230.5q0 -365 -465 -365h-443v1327h320q87 0 153.5 -7t135.5 -28.5t113.5 -58t73 -100t28.5 -150.5q0 -124 -56.5 -194.5t-138.5 -92.5zM897 979q0 48 -12.5 86.5t-32 64.5t-51 45t-63 29.5t-73.5 17t-77 8t-80 1.5h-205v-506h219
q51 0 87.5 2.5t84.5 10t80.5 24.5t62.5 44t45 71t15 102zM631 98q350 0 350 271q0 260 -338 260h-340v-531h328z" />
    <glyph glyph-name="uni0413" unicode="&#x413;" horiz-adv-x="980" 
d="M944 1327v-98h-641v-1229h-113v1327h754z" />
    <glyph glyph-name="uni0414" unicode="&#x414;" horiz-adv-x="1462" 
d="M1206 100h160v-391h-104v293h-1102v-293h-105v389h21q62 0 103.5 32t80.5 101q113 212 113 773v323h833v-1227zM481 1024q0 -342 -37.5 -565t-142.5 -359h793v1129h-613v-205z" />
    <glyph glyph-name="uni0415" unicode="&#x415;" horiz-adv-x="1026" 
d="M190 0v1327h752v-98h-639v-504h479v-96h-479v-529h664v-100h-777z" />
    <glyph glyph-name="uni0416" unicode="&#x416;" horiz-adv-x="1855" 
d="M1810 0h-151l-676 662v-662h-111v662l-675 -662h-152l696 674l-675 653h139l667 -645v645h111v-645l668 645h139l-676 -653z" />
    <glyph glyph-name="uni0417" unicode="&#x417;" horiz-adv-x="1058" 
d="M692 692q121 -14 191.5 -96.5t70.5 -233.5q0 -106 -34.5 -182t-100 -118.5t-148.5 -62t-190 -19.5q-115 0 -210 25t-138 58v119q52 -42 141.5 -70t200.5 -28q80 0 139.5 11t113 40t82 87t28.5 145q0 131 -73 196.5t-249 65.5h-164v94h80q68 0 120.5 6.5t99 24.5t76.5 47
t47.5 76t17.5 110q0 78 -25.5 130.5t-74 79.5t-103.5 37.5t-129 10.5q-102 0 -190 -29t-138 -71v119q45 31 138.5 57.5t197.5 26.5q76 0 137.5 -9t119.5 -33.5t97 -63.5t62.5 -102t23.5 -147q0 -128 -57.5 -203t-159.5 -98z" />
    <glyph glyph-name="uni0418" unicode="&#x418;" horiz-adv-x="1427" 
d="M1217 1348h20v-1348h-113v1092l-913 -1112h-21v1347h113v-1096z" />
    <glyph glyph-name="uni0419" unicode="&#x419;" horiz-adv-x="1427" 
d="M741 1430q-170 0 -250.5 89.5t-80.5 241.5v13h100q0 -128 62 -192t169 -64t169.5 64t62.5 192h100v-13q0 -150 -83 -240.5t-249 -90.5zM1217 1348h20v-1348h-113v1092l-913 -1112h-21v1347h113v-1096z" />
    <glyph glyph-name="uni041A" unicode="&#x41a;" 
d="M190 0v1327h113v-643l688 643h156l-709 -653l727 -674h-159l-703 659v-659h-113z" />
    <glyph glyph-name="uni041B" unicode="&#x41b;" horiz-adv-x="1400" 
d="M367 1327h845v-1327h-114v1229h-623v-309q0 -124 -3 -220t-11.5 -196.5t-23.5 -174t-39.5 -140.5t-58.5 -108.5t-81.5 -66t-107.5 -24.5q-65 0 -95 18v107q31 -17 78 -17q55 0 96 41t67 111.5t42 178.5t22.5 230t6.5 277v391z" />
    <glyph glyph-name="uni041C" unicode="&#x41c;" horiz-adv-x="1705" 
d="M844 -20l-426 1054l-193 -1034h-114l260 1348h20l463 -1133l465 1133h20l256 -1348h-112l-193 1030l-426 -1050h-20z" />
    <glyph glyph-name="uni041D" unicode="&#x41d;" horiz-adv-x="1429" 
d="M190 0v1327h113v-602h823v602h113v-1327h-113v625h-823v-625h-113z" />
    <glyph glyph-name="uni041E" unicode="&#x41e;" horiz-adv-x="1529" 
d="M762 -20q-123 0 -227 35t-180 97.5t-129.5 148t-80 187.5t-26.5 216q0 144 43.5 268.5t124.5 217t205 145.5t276 53q154 0 277 -52.5t202.5 -144.5t121.5 -214t42 -263q0 -145 -42.5 -271t-123 -220.5t-205 -148.5t-278.5 -54zM766 88q244 0 386 162.5t142 421.5
q0 163 -63 292t-184.5 204t-282.5 75q-235 0 -381.5 -161.5t-146.5 -413.5q0 -164 62.5 -294.5t184 -208t283.5 -77.5z" />
    <glyph glyph-name="uni041F" unicode="&#x41f;" horiz-adv-x="1402" 
d="M190 1327h1022v-1327h-114v1229h-795v-1229h-113v1327z" />
    <glyph glyph-name="uni0420" unicode="&#x420;" horiz-adv-x="1185" 
d="M584 1327q88 0 158.5 -10t139 -37.5t114.5 -72.5t74 -119t28 -173q0 -100 -30.5 -175.5t-79 -120.5t-118.5 -72.5t-139.5 -37t-152.5 -9.5h-275v-500h-113v1327h394zM571 596q410 0 410 319q0 90 -30.5 153t-88 97.5t-128 49t-163.5 14.5h-268v-633h268z" />
    <glyph glyph-name="uni0421" unicode="&#x421;" horiz-adv-x="1296" 
d="M768 -20q-203 0 -351 86t-223 239t-75 357q0 201 73.5 354.5t221 242.5t350.5 89q123 0 225.5 -30t153.5 -69v-119q-163 113 -373 113q-250 0 -392 -155.5t-142 -421.5q0 -274 148.5 -426t393.5 -152q114 0 214.5 30.5t170.5 78.5v-121q-50 -35 -157.5 -65.5
t-237.5 -30.5z" />
    <glyph glyph-name="uni0422" unicode="&#x422;" horiz-adv-x="1097" 
d="M492 0v1229h-410v98h934v-98h-410v-1229h-114z" />
    <glyph glyph-name="uni0423" unicode="&#x423;" horiz-adv-x="1165" 
d="M1028 1327h111l-641 -1327h-111l197 410l-543 917h125l473 -805z" />
    <glyph glyph-name="uni0424" unicode="&#x424;" horiz-adv-x="1642" 
d="M1524 664q0 -255 -173.5 -407t-473.5 -161v-153h-111v153q-303 7 -475 159.5t-172 408.5q0 255 173.5 406.5t473.5 160.5v153h111v-153q303 -7 475 -159t172 -408zM236 668q0 -215 141.5 -339t390.5 -130v931q-242 -5 -387 -127t-145 -335zM874 197q242 5 387.5 127
t145.5 335q0 215 -141.5 339t-391.5 130v-931z" />
    <glyph glyph-name="uni0425" unicode="&#x425;" horiz-adv-x="1169" 
d="M57 0l457 680l-436 647h135l371 -563l379 563h131l-441 -647l459 -680h-133l-395 598l-396 -598h-131z" />
    <glyph glyph-name="uni0426" unicode="&#x426;" horiz-adv-x="1460" 
d="M1204 100h160v-391h-104v291h-1070v1327h113v-1227h787v1227h114v-1227z" />
    <glyph glyph-name="uni0427" unicode="&#x427;" horiz-adv-x="1316" 
d="M1014 1327h114v-1327h-114v653q-109 -182 -398 -182q-247 0 -358 116t-111 353v387h115v-362q0 -200 86.5 -295t286.5 -95q379 0 379 390v362z" />
    <glyph glyph-name="uni0428" unicode="&#x428;" horiz-adv-x="1947" 
d="M1645 1327h114v-1327h-1569v1327h113v-1227h615v1227h112v-1227h615v1227z" />
    <glyph glyph-name="uni0429" unicode="&#x429;" horiz-adv-x="2015" 
d="M1759 100h160v-391h-107v291h-1622v1327h113v-1227h615v1227h112v-1227h615v1227h114v-1227z" />
    <glyph glyph-name="uni042A" unicode="&#x42a;" horiz-adv-x="1486" 
d="M885 827q87 0 157.5 -10t139 -37t115 -71.5t74.5 -118.5t28 -172q0 -101 -30.5 -177t-79 -121t-118.5 -73t-139.5 -37.5t-152.5 -9.5h-390v1229h-407v98h522v-500h281zM870 98q412 0 412 320q0 90 -30.5 152t-88 96t-128.5 48.5t-165 14.5h-266v-631h266z" />
    <glyph glyph-name="uni042B" unicode="&#x42b;" horiz-adv-x="1658" 
d="M584 827q88 0 158.5 -10t139 -37t114.5 -71.5t74 -118.5t28 -172q0 -101 -30.5 -177t-79 -121t-118.5 -73t-139.5 -37.5t-152.5 -9.5h-388v1327h113v-500h281zM1356 1327h112v-1327h-112v1327zM571 98q410 0 410 320q0 89 -30.5 151.5t-88 96.5t-128 48.5t-163.5 14.5
h-268v-631h268z" />
    <glyph glyph-name="uni042C" unicode="&#x42c;" horiz-adv-x="1185" 
d="M584 827q88 0 158.5 -10t139 -37t114.5 -71.5t74 -118.5t28 -172q0 -101 -30.5 -177t-79 -121t-118.5 -73t-139.5 -37.5t-152.5 -9.5h-388v1327h113v-500h281zM571 98q410 0 410 320q0 89 -30.5 151.5t-88 96.5t-128 48.5t-163.5 14.5h-268v-631h268z" />
    <glyph glyph-name="uni042D" unicode="&#x42d;" horiz-adv-x="1296" 
d="M528 1348q203 0 351 -86t223.5 -239t75.5 -357q0 -201 -73.5 -354.5t-221.5 -242.5t-351 -89q-130 0 -237.5 29.5t-161.5 68.5v121q176 -111 393 -111q241 0 384.5 147.5t152.5 389.5h-649v96h647q-12 244 -160.5 383t-382.5 139q-108 0 -202.5 -31.5t-161.5 -81.5v121
q48 35 149.5 66t224.5 31z" />
    <glyph glyph-name="uni042E" unicode="&#x42e;" horiz-adv-x="2048" 
d="M1290 1348q153 0 275.5 -52.5t201.5 -144.5t120.5 -214t41.5 -263q0 -145 -42.5 -271t-122 -220.5t-203 -148.5t-277.5 -54q-118 0 -218.5 32.5t-175 91.5t-128.5 139.5t-83 177t-34 204.5h-342v-625h-113v1327h113v-602h344q9 133 56 246t127 197.5t198.5 132
t261.5 47.5zM1288 88q162 0 281.5 75.5t181 207t61.5 301.5q0 163 -62.5 292t-183 204t-280.5 75q-234 0 -379 -161t-145 -414q0 -164 61.5 -294.5t182 -208t282.5 -77.5z" />
    <glyph glyph-name="uni042F" unicode="&#x42f;" horiz-adv-x="1208" 
d="M633 1327h385v-1327h-113v520h-354l-342 -520h-135l358 532q-149 30 -225 122.5t-76 258.5q0 119 35 201t104 128t156.5 65.5t206.5 19.5zM643 616h262v613h-250q-106 0 -178 -13.5t-125.5 -47t-78.5 -93t-25 -149.5q0 -165 92.5 -237.5t302.5 -72.5z" />
    <glyph glyph-name="uni0430" unicode="&#x430;" horiz-adv-x="993" 
d="M485 932q367 0 367 -357v-575h-98l-2 145q-86 -163 -320 -163q-161 0 -250.5 82.5t-89.5 214.5q0 141 96.5 222t274.5 81q167 0 280 -72v47q0 143 -64.5 214t-213.5 71q-150 0 -289 -82v100q133 72 309 72zM453 66q149 0 219.5 87t70.5 226v41q-41 35 -115 57.5
t-159 22.5q-128 0 -196 -56.5t-68 -160.5q0 -99 68.5 -158t179.5 -59z" />
    <glyph glyph-name="uni0431" unicode="&#x431;" horiz-adv-x="1171" 
d="M627 905q201 0 321.5 -123.5t120.5 -330.5q0 -215 -127.5 -342t-341.5 -127q-229 0 -346 141t-117 442v43q0 224 35.5 363t116.5 215q80 77 175.5 109t283.5 53q210 21 247 36v-98q-39 -15 -247 -39q-171 -18 -244 -41t-139 -86q-65 -62 -92 -160.5t-27 -246.5v-19
q51 101 150 156t231 55zM600 76q161 0 258.5 100.5t97.5 269.5q0 170 -99.5 268.5t-252.5 98.5q-87 0 -156.5 -29.5t-113 -79.5t-66 -112t-22.5 -131q0 -171 97 -278t257 -107z" />
    <glyph glyph-name="uni0432" unicode="&#x432;" horiz-adv-x="968" 
d="M641 485q98 -16 156.5 -75t58.5 -158q0 -127 -100 -189.5t-277 -62.5h-313v915h256q85 0 149.5 -11t116.5 -36t79.5 -70.5t27.5 -111.5q0 -76 -44 -129.5t-110 -71.5zM684 680q0 46 -19.5 77t-57.5 47.5t-84.5 23t-110.5 6.5h-138v-324h150q129 0 194.5 40.5t65.5 129.5z
M473 84q270 0 270 170q0 176 -266 176h-203v-346h199z" />
    <glyph glyph-name="uni0433" unicode="&#x433;" horiz-adv-x="780" 
d="M719 915v-90h-445v-825h-108v915h553z" />
    <glyph glyph-name="uni0434" unicode="&#x434;" horiz-adv-x="1136" 
d="M932 90h143v-340h-100v252h-828v-252h-100v340h29q45 0 75.5 21.5t59.5 74.5q76 140 76 490v239h645v-825zM383 686q0 -446 -123 -596h565v737h-442v-141z" />
    <glyph glyph-name="uni0435" unicode="&#x435;" horiz-adv-x="1038" 
d="M571 -18q-234 0 -356.5 122.5t-122.5 344.5q0 221 116.5 352t321.5 131q190 0 303 -113.5t113 -316.5q0 -52 -4 -88h-735q6 -166 102.5 -251t276.5 -85q105 0 187.5 24t129.5 52v-101q-38 -25 -130 -48t-202 -23zM207 498h627q9 158 -76 250t-228 92q-141 0 -228 -93
t-95 -249z" />
    <glyph glyph-name="uni0436" unicode="&#x436;" horiz-adv-x="1380" 
d="M1348 0h-148l-457 463v-463h-106v461l-457 -461h-147l479 469l-459 446h133l451 -438v438h106v-440l453 440h131l-459 -446z" />
    <glyph glyph-name="uni0437" unicode="&#x437;" horiz-adv-x="878" 
d="M555 483q211 -34 211 -239q0 -135 -97 -198.5t-259 -63.5q-98 0 -176 21.5t-113 47.5v101q41 -33 116 -57.5t166 -24.5q259 0 259 176q0 90 -65 134t-212 44h-90v84h74q62 0 116 15.5t95 56.5t41 102q0 164 -213 164q-79 0 -150 -25.5t-117 -58.5v98q39 25 117.5 48.5
t169.5 23.5q297 0 297 -238q0 -79 -46.5 -135.5t-123.5 -75.5z" />
    <glyph glyph-name="uni0438" unicode="&#x438;" horiz-adv-x="1105" 
d="M918 934h20v-934h-107v709l-645 -727h-20v933h108v-716z" />
    <glyph glyph-name="uni0439" unicode="&#x439;" horiz-adv-x="1105" 
d="M555 1024q-152 0 -224.5 81.5t-72.5 215.5v20h98v-8q0 -115 53 -172t146 -57q94 0 146.5 57t52.5 172v8h98v-20q0 -132 -74.5 -214.5t-222.5 -82.5zM918 934h20v-934h-107v709l-645 -727h-20v933h108v-716z" />
    <glyph glyph-name="uni043A" unicode="&#x43a;" horiz-adv-x="946" 
d="M913 0h-149l-490 459v-459h-108v915h108v-436l467 436h150l-490 -444z" />
    <glyph glyph-name="uni043B" unicode="&#x43b;" horiz-adv-x="1120" 
d="M291 915h663v-915h-108v825h-453v-186q0 -118 -6 -210t-23.5 -177t-45.5 -140.5t-74.5 -88.5t-108.5 -33q-50 0 -76 16v96q21 -12 62 -12q94 0 132 146.5t38 422.5v256z" />
    <glyph glyph-name="uni043C" unicode="&#x43c;" horiz-adv-x="1421" 
d="M1321 0h-109l-170 674l-323 -692h-21l-319 694l-168 -676h-111l240 932h20l349 -750l356 750h20z" />
    <glyph glyph-name="uni043D" unicode="&#x43d;" horiz-adv-x="1130" 
d="M856 915h109v-915h-109v418h-582v-418h-108v915h108v-407h582v407z" />
    <glyph glyph-name="uni043E" unicode="&#x43e;" horiz-adv-x="1122" 
d="M559 -18q-214 0 -340.5 130.5t-126.5 342.5q0 210 126 343.5t343 133.5q211 0 340 -124.5t129 -340.5q0 -219 -130 -352t-341 -133zM557 78q157 0 257.5 103.5t100.5 281.5q0 174 -100 274.5t-256 100.5q-161 0 -256.5 -106.5t-95.5 -276.5q0 -174 97.5 -275.5
t252.5 -101.5z" />
    <glyph glyph-name="uni043F" unicode="&#x43f;" horiz-adv-x="1103" 
d="M166 915h772v-915h-109v825h-555v-825h-108v915z" />
    <glyph glyph-name="uni0440" unicode="&#x440;" horiz-adv-x="1185" 
d="M166 -406v1321h100l4 -182q107 199 369 199q208 0 331.5 -126.5t123.5 -342.5q0 -221 -125.5 -351t-331.5 -130q-127 0 -220.5 52t-140.5 136l-2 -576h-108zM623 78q162 0 259 103t97 280t-97.5 277t-256.5 100q-166 0 -260.5 -109t-94.5 -276q0 -172 96 -273.5
t257 -101.5z" />
    <glyph glyph-name="uni0441" unicode="&#x441;" horiz-adv-x="907" 
d="M557 -18q-211 0 -338 125t-127 346t125 350t342 129q134 0 240 -47v-109q-100 62 -232 62q-169 0 -264.5 -102.5t-95.5 -278.5t93.5 -277.5t264.5 -101.5q80 0 143.5 20.5t98.5 46.5v-106q-31 -20 -98 -38.5t-152 -18.5z" />
    <glyph glyph-name="uni0442" unicode="&#x442;" horiz-adv-x="843" 
d="M782 915v-90h-305v-825h-108v825h-308v90h721z" />
    <glyph glyph-name="uni0443" unicode="&#x443;" horiz-adv-x="980" 
d="M233 -406l199 447l-383 874h121l319 -753l326 753h117l-582 -1321h-117z" />
    <glyph glyph-name="uni0444" unicode="&#x444;" horiz-adv-x="1306" 
d="M1214 467q0 -212 -142.5 -346t-366.5 -139v-388h-103v388q-228 4 -369 136t-141 337q0 204 139.5 338.5t370.5 138.5v426h103v-426q226 -5 367.5 -130t141.5 -335zM203 455q0 -169 115 -273t284 -106v766q-174 -1 -286.5 -111.5t-112.5 -275.5zM705 76q170 5 283.5 110
t113.5 277q0 168 -114.5 272t-282.5 107v-766z" />
    <glyph glyph-name="uni0445" unicode="&#x445;" horiz-adv-x="983" 
d="M47 0l379 457l-369 458h133l304 -389l303 389h131l-369 -458l377 -457h-135l-309 381l-314 -381h-131z" />
    <glyph glyph-name="uni0446" unicode="&#x446;" horiz-adv-x="1134" 
d="M930 90h143v-340h-100v250h-807v915h108v-825h547v825h109v-825z" />
    <glyph glyph-name="uni0447" unicode="&#x447;" horiz-adv-x="1056" 
d="M780 915h109v-915h-109v436q-83 -149 -315 -149q-174 0 -261 95t-87 292v241h108v-210q0 -167 59.5 -245.5t204.5 -78.5q137 0 214 73.5t77 250.5v210z" />
    <glyph glyph-name="uni0448" unicode="&#x448;" horiz-adv-x="1552" 
d="M1276 915h108v-915h-1218v915h108v-825h447v825h108v-825h447v825z" />
    <glyph glyph-name="uni0449" unicode="&#x449;" horiz-adv-x="1589" 
d="M1384 90h144v-340h-101v250h-1261v915h108v-825h447v825h108v-825h447v825h108v-825z" />
    <glyph glyph-name="uni044A" unicode="&#x44a;" horiz-adv-x="1132" 
d="M641 594q73 0 129 -6.5t111.5 -25t92 -50.5t59 -86t22.5 -127q0 -78 -26 -134.5t-65 -87.5t-100 -49t-115 -23t-126 -5h-254v825h-308v90h416v-321h164zM633 88q71 0 123 8.5t97 30.5t68 64.5t23 105.5q0 64 -23 106.5t-69 64.5t-100 30t-131 8h-144v-418h156z" />
    <glyph glyph-name="uni044B" unicode="&#x44b;" horiz-adv-x="1310" 
d="M440 594q73 0 129 -6.5t111.5 -25t92 -50.5t59 -86t22.5 -127q0 -78 -26 -134.5t-65 -87.5t-100 -49t-115 -23t-126 -5h-256v915h108v-321h166zM1036 915h109v-915h-109v915zM432 88q70 0 121.5 8.5t96.5 30.5t68 64.5t23 105.5q0 52 -16 89.5t-42.5 60.5t-69 36.5
t-87.5 18t-106 4.5h-146v-418h158z" />
    <glyph glyph-name="uni044C" unicode="&#x44c;" horiz-adv-x="931" 
d="M440 594q73 0 129 -6.5t111.5 -25t92 -50.5t59 -86t22.5 -127q0 -78 -26 -134.5t-65 -87.5t-100 -49t-115 -23t-126 -5h-256v915h108v-321h166zM432 88q70 0 121.5 8.5t96.5 30.5t68 64.5t23 105.5q0 52 -16 89.5t-42.5 60.5t-69 36.5t-87.5 18t-106 4.5h-146v-418h158z
" />
    <glyph glyph-name="uni044D" unicode="&#x44d;" horiz-adv-x="917" 
d="M360 932q211 0 338 -124.5t127 -346.5q0 -220 -125 -349.5t-342 -129.5q-149 0 -247 49v108q103 -61 239 -61q164 0 259.5 91t103.5 251h-445v88h443q-11 154 -104.5 242t-254.5 88q-77 0 -138.5 -20t-94.5 -46v102q27 21 92.5 39.5t148.5 18.5z" />
    <glyph glyph-name="uni044E" unicode="&#x44e;" horiz-adv-x="1521" 
d="M965 932q209 0 337 -124.5t128 -340.5q0 -219 -128.5 -352t-338.5 -133q-202 0 -326 119.5t-135 316.5h-228v-418h-108v915h108v-407h228q15 190 138.5 307t324.5 117zM961 78q156 0 255 103.5t99 281.5q0 174 -98.5 274.5t-253.5 100.5q-159 0 -254 -106.5t-95 -276.5
q0 -174 96.5 -275.5t250.5 -101.5z" />
    <glyph glyph-name="uni044F" unicode="&#x44f;" horiz-adv-x="962" 
d="M485 915h310v-915h-109v358h-215l-242 -358h-129l254 367q-217 36 -217 264q0 152 91 218t257 66zM496 444h190v385h-180q-138 0 -198 -43t-60 -151q0 -100 59.5 -145.5t188.5 -45.5z" />
    <glyph glyph-name="uni0451" unicode="&#x451;" horiz-adv-x="1038" 
d="M328 1171q-35 0 -57.5 21.5t-22.5 56.5t23 57.5t57 22.5q33 0 55.5 -22.5t22.5 -57.5t-22.5 -56.5t-55.5 -21.5zM735 1171q-35 0 -57.5 21.5t-22.5 56.5t23 57.5t57 22.5q33 0 55.5 -22.5t22.5 -57.5t-22.5 -56.5t-55.5 -21.5zM571 -18q-234 0 -356.5 122.5t-122.5 344.5
q0 221 116.5 352t321.5 131q190 0 303 -113.5t113 -316.5q0 -52 -4 -88h-735q6 -166 102.5 -251t276.5 -85q105 0 187.5 24t129.5 52v-101q-38 -25 -130 -48t-202 -23zM207 498h627q9 158 -76 250t-228 92q-141 0 -228 -93t-95 -249z" />
    <glyph glyph-name="uni0452" unicode="&#x452;" horiz-adv-x="1155" 
d="M649 870q199 0 289 -100t90 -299q0 -207 -82.5 -394t-230.5 -327h-135q163 147 251.5 330t88.5 369q0 79 -13.5 136t-45.5 101.5t-90 67t-142 22.5q-150 0 -227.5 -92t-77.5 -293v-391h-109v1051h-225v88h225v219h109v-219h338v-88h-338v-346q82 165 325 165z" />
    <glyph glyph-name="uni0453" unicode="&#x453;" horiz-adv-x="780" 
d="M758 1391l-271 -326h-108l233 326h146zM719 915v-90h-445v-825h-108v915h553z" />
    <glyph glyph-name="uni0454" unicode="&#x454;" horiz-adv-x="917" 
d="M565 78q80 0 143.5 20.5t98.5 46.5v-106q-31 -20 -98 -38.5t-152 -18.5q-211 0 -338 125t-127 346t125 350t342 129q134 0 240 -47v-109q-100 62 -232 62q-161 0 -256 -88t-106 -242h444v-88h-446q9 -159 103 -250.5t259 -91.5z" />
    <glyph glyph-name="uni0455" unicode="&#x455;" horiz-adv-x="765" 
d="M358 -18q-78 0 -145.5 16.5t-97.5 36.5v100q113 -65 237 -65q99 0 156 43.5t57 128.5q0 53 -24 90.5t-62.5 59t-85 38.5t-93 36.5t-85 45.5t-62.5 72.5t-24 111.5q0 116 74.5 176t202.5 60q123 0 206 -43v-98q-92 55 -200 55q-93 0 -137 -39.5t-44 -104.5q0 -48 24.5 -81
t63 -52.5t85.5 -36t94.5 -37t86 -48.5t63 -78t24.5 -119q0 -136 -86.5 -202t-227.5 -66z" />
    <glyph glyph-name="uni0456" unicode="&#x456;" horiz-adv-x="493" 
d="M272 1171q-34 0 -56.5 21.5t-22.5 56.5t23 57.5t56 22.5q34 0 56 -22.5t22 -57.5t-22.5 -56.5t-55.5 -21.5zM219 0v825h-131v90h240v-915h-109z" />
    <glyph glyph-name="uni0457" unicode="&#x457;" horiz-adv-x="493" 
d="M102 1171q-35 0 -57 21.5t-22 56.5t22.5 57.5t56.5 22.5q33 0 55.5 -22.5t22.5 -57.5t-22.5 -56.5t-55.5 -21.5zM377 1171q-34 0 -56 21.5t-22 56.5t22.5 57.5t55.5 22.5q34 0 57 -22.5t23 -57.5t-23 -56.5t-57 -21.5zM219 0v825h-131v90h240v-915h-109z" />
    <glyph glyph-name="uni0458" unicode="&#x458;" horiz-adv-x="518" 
d="M303 1171q-34 0 -57 21.5t-23 56.5t23.5 57.5t56.5 22.5q34 0 56 -22.5t22 -57.5t-22.5 -56.5t-55.5 -21.5zM70 -424q-80 0 -158 29v96q69 -33 143 -33q51 0 87.5 16t57 40t32.5 62t15 72t3 81v886h-131v90h239v-972q0 -63 -6 -112t-24.5 -98.5t-49.5 -82.5t-84 -53.5
t-124 -20.5z" />
    <glyph glyph-name="uni0459" unicode="&#x459;" horiz-adv-x="1611" 
d="M1118 594q73 0 129 -6.5t111.5 -25t92 -50.5t59 -86t22.5 -127q0 -65 -16.5 -115.5t-49 -82.5t-70.5 -53t-91 -31t-99 -13.5t-106 -3.5h-254v825h-453v-186q0 -118 -6 -210t-23.5 -177t-45.5 -140.5t-74.5 -88.5t-108.5 -33q-50 0 -76 16v96q21 -12 62 -12
q94 0 132 146.5t38 422.5v256h663v-321h164zM1110 88q71 0 123 8.5t97 30.5t68 64.5t23 105.5q0 64 -23 106.5t-69 64.5t-100 30t-131 8h-144v-418h156z" />
    <glyph glyph-name="uni045A" unicode="&#x45a;" horiz-adv-x="1622" 
d="M1128 594q73 0 129.5 -6.5t112 -25t91.5 -50.5t58.5 -86t22.5 -127q0 -65 -16.5 -115.5t-49 -82.5t-70.5 -53t-91 -31t-99 -13.5t-106 -3.5h-254v418h-582v-418h-108v915h108v-407h582v407h109v-321h163zM1120 88q71 0 123 8.5t97 30.5t68.5 64.5t23.5 105.5
q0 64 -23 106.5t-69 64.5t-100 30t-132 8h-143v-418h155z" />
    <glyph glyph-name="uni045B" unicode="&#x45b;" horiz-adv-x="1146" 
d="M649 870q187 0 271 -100t84 -299v-471h-109v438q0 82 -11.5 140t-40 105t-82 70t-132.5 23q-150 0 -227.5 -92t-77.5 -293v-391h-109v1051h-225v88h225v219h109v-219h338v-88h-338v-346q82 165 325 165z" />
    <glyph glyph-name="uni045C" unicode="&#x45c;" horiz-adv-x="946" 
d="M801 1391l-271 -326h-108l233 326h146zM913 0h-149l-490 459v-459h-108v915h108v-436l467 436h150l-490 -444z" />
    <glyph glyph-name="uni045D" unicode="&#x45d;" horiz-adv-x="1105" 
d="M649 1065h-108l-271 326h144zM918 934h20v-934h-107v709l-645 -727h-20v933h108v-716z" />
    <glyph glyph-name="uni045E" unicode="&#x45e;" horiz-adv-x="980" 
d="M489 1024q-151 0 -223.5 81.5t-72.5 215.5v20h98v-8q0 -115 52.5 -172t145.5 -57q94 0 146.5 57t52.5 172v8h98v-20q0 -132 -74.5 -214.5t-222.5 -82.5zM233 -406l199 447l-383 874h121l319 -753l326 753h117l-582 -1321h-117z" />
    <glyph glyph-name="uni045F" unicode="&#x45f;" horiz-adv-x="1095" 
d="M930 915v-915h-332v-250h-100v250h-332v915h108v-825h547v825h109z" />
    <glyph glyph-name="uni0490" unicode="&#x490;" horiz-adv-x="980" 
d="M944 1618v-389h-641v-1229h-113v1327h650v291h104z" />
    <glyph glyph-name="uni0491" unicode="&#x491;" horiz-adv-x="780" 
d="M719 1165v-340h-445v-825h-108v915h452v250h101z" />
    <glyph glyph-name="Wgrave" unicode="&#x1e80;" horiz-adv-x="1849" 
d="M915 1468l-268 326h144l233 -326h-109zM539 -18l-465 1345h127l352 -1077l362 1077h21l362 -1077l355 1077h121l-463 -1345h-21l-364 1083l-367 -1083h-20z" />
    <glyph glyph-name="wgrave" unicode="&#x1e81;" horiz-adv-x="1488" 
d="M719 1065l-270 326h143l235 -326h-108zM444 -18l-381 933h121l273 -714l286 714h21l276 -714l269 714h116l-372 -933h-21l-278 720l-289 -720h-21z" />
    <glyph glyph-name="Wacute" unicode="&#x1e82;" horiz-adv-x="1849" 
d="M879 1468l233 326h143l-268 -326h-108zM539 -18l-465 1345h127l352 -1077l362 1077h21l362 -1077l355 1077h121l-463 -1345h-21l-364 1083l-367 -1083h-20z" />
    <glyph glyph-name="wacute" unicode="&#x1e83;" horiz-adv-x="1488" 
d="M682 1065l233 326h146l-270 -326h-109zM444 -18l-381 933h121l273 -714l286 714h21l276 -714l269 714h116l-372 -933h-21l-278 720l-289 -720h-21z" />
    <glyph glyph-name="Wdieresis" unicode="&#x1e84;" horiz-adv-x="1849" 
d="M739 1534q-39 0 -64.5 25.5t-25.5 64.5q0 40 26 66t64 26t64 -26t26 -66q0 -39 -25.5 -64.5t-64.5 -25.5zM1112 1534q-39 0 -64.5 25.5t-25.5 64.5q0 40 26 66t64 26t64 -26t26 -66q0 -39 -25.5 -64.5t-64.5 -25.5zM539 -18l-465 1345h127l352 -1077l362 1077h21
l362 -1077l355 1077h121l-463 -1345h-21l-364 1083l-367 -1083h-20z" />
    <glyph glyph-name="wdieresis" unicode="&#x1e85;" horiz-adv-x="1488" 
d="M567 1171q-34 0 -56 21.5t-22 56.5t22.5 57.5t55.5 22.5q34 0 56 -22.5t22 -57.5t-22 -56.5t-56 -21.5zM940 1171q-34 0 -57 21.5t-23 56.5t23 57.5t57 22.5t56 -22.5t22 -57.5t-22.5 -56.5t-55.5 -21.5zM444 -18l-381 933h121l273 -714l286 714h21l276 -714l269 714h116
l-372 -933h-21l-278 720l-289 -720h-21z" />
    <glyph glyph-name="uni1E9E" unicode="&#x1e9e;" horiz-adv-x="1282" 
d="M731 -18q-147 0 -239 34v107q106 -41 229 -41q169 0 254.5 85.5t85.5 229.5q0 62 -19 117.5t-56.5 100.5t-100 71.5t-142.5 26.5q-114 0 -198 -49l-15 16l412 551h-639v-1231h-113v1327h922v-20l-401 -543q30 30 80 39q73 2 140 -22t122.5 -71.5t89 -128t33.5 -182.5
q0 -200 -118 -308.5t-327 -108.5z" />
    <glyph glyph-name="Ygrave" unicode="&#x1ef2;" horiz-adv-x="1171" 
d="M629 1468l-269 326h144l233 -326h-108zM526 0v526l-469 801h127l402 -698l405 698h123l-473 -801v-526h-115z" />
    <glyph glyph-name="ygrave" unicode="&#x1ef3;" horiz-adv-x="980" 
d="M508 1065l-270 326h143l235 -326h-108zM233 -406l199 447l-383 874h121l319 -753l326 753h117l-582 -1321h-117z" />
    <glyph glyph-name="uni2002" unicode="&#x2002;" horiz-adv-x="956" 
 />
    <glyph glyph-name="uni2003" unicode="&#x2003;" horiz-adv-x="1603" 
 />
    <glyph glyph-name="uni2009" unicode="&#x2009;" horiz-adv-x="321" 
 />
    <glyph glyph-name="uni200A" unicode="&#x200a;" horiz-adv-x="100" 
 />
    <glyph glyph-name="endash" unicode="&#x2013;" horiz-adv-x="956" 
d="M92 451v94h772v-94h-772z" />
    <glyph glyph-name="emdash" unicode="&#x2014;" horiz-adv-x="1603" 
d="M92 451v94h1419v-94h-1419z" />
    <glyph glyph-name="quoteleft" unicode="&#x2018;" horiz-adv-x="473" 
d="M254 1122q39 6 65.5 -16.5t26.5 -61.5t-25.5 -62.5t-64.5 -23.5q-46 0 -73 33t-27 94q0 66 34.5 133.5t85.5 108.5h78q-44 -48 -72 -106.5t-28 -98.5z" />
    <glyph glyph-name="quoteright" unicode="&#x2019;" horiz-adv-x="473" 
d="M217 1339q46 0 73 -33t27 -94q0 -66 -34.5 -133t-85.5 -108h-78q44 48 72 106.5t28 98.5q-40 -6 -66 16.5t-26 60.5q0 39 25.5 62.5t64.5 23.5z" />
    <glyph glyph-name="quotesinglbase" unicode="&#x201a;" horiz-adv-x="473" 
d="M217 113q46 0 73 -33t27 -94q0 -66 -34.5 -133.5t-85.5 -108.5h-78q44 48 72 106.5t28 98.5q-39 -6 -65.5 16.5t-26.5 61.5t25.5 62.5t64.5 23.5z" />
    <glyph glyph-name="quotedblleft" unicode="&#x201c;" horiz-adv-x="739" 
d="M276 1327h78q-44 -48 -72 -106.5t-28 -98.5q39 6 65.5 -16.5t26.5 -61.5t-25.5 -62.5t-64.5 -23.5q-46 0 -73 33t-27 94q0 66 34.5 133.5t85.5 108.5zM522 1122q39 6 65.5 -16.5t26.5 -61.5t-25.5 -62.5t-64.5 -23.5q-46 0 -73 33t-27 94q0 66 35 133.5t86 108.5h78
q-45 -48 -73 -107t-28 -98z" />
    <glyph glyph-name="quotedblright" unicode="&#x201d;" horiz-adv-x="739" 
d="M217 1339q46 0 73 -33t27 -94q0 -66 -34.5 -133t-85.5 -108h-78q44 48 72 106.5t28 98.5q-40 -6 -66 16.5t-26 60.5q0 39 25.5 62.5t64.5 23.5zM483 1339q47 0 74 -33t27 -94q0 -66 -35 -133t-86 -108h-78q44 48 72 106.5t28 98.5q-40 -6 -66 16.5t-26 60.5
q0 39 25.5 62.5t64.5 23.5z" />
    <glyph glyph-name="quotedblbase" unicode="&#x201e;" horiz-adv-x="739" 
d="M217 113q46 0 73 -33t27 -94q0 -66 -34.5 -133.5t-85.5 -108.5h-78q44 48 72 106.5t28 98.5q-39 -6 -65.5 16.5t-26.5 61.5t25.5 62.5t64.5 23.5zM483 113q47 0 74 -33t27 -94q0 -66 -35 -133.5t-86 -108.5h-78q44 48 72 106.5t28 98.5q-39 -6 -65.5 16.5t-26.5 61.5
t25.5 62.5t64.5 23.5z" />
    <glyph glyph-name="dagger" unicode="&#x2020;" horiz-adv-x="1202" 
d="M559 -418l-12 1243h-357v90h357l-4 412h119l-5 -412h357v-90h-359l-10 -1243h-86z" />
    <glyph glyph-name="daggerdbl" unicode="&#x2021;" horiz-adv-x="1202" 
d="M559 -418l-6 668h-342v90h342l-6 485h-357v90h357l-4 412h119l-5 -412h357v-90h-359l-4 -485h342v-90h-342l-6 -668h-86z" />
    <glyph glyph-name="bullet" unicode="&#x2022;" horiz-adv-x="925" 
d="M465 272q-89 0 -146 57t-57 146q0 85 59.5 142t143.5 57q86 0 142.5 -56.5t56.5 -144.5t-56.5 -144.5t-142.5 -56.5z" />
    <glyph glyph-name="ellipsis" unicode="&#x2026;" horiz-adv-x="1323" 
d="M240 -18q-37 0 -59.5 23.5t-22.5 60.5q0 35 23.5 58t58.5 23t57 -23.5t22 -60.5q0 -35 -22 -58t-57 -23zM662 -18q-36 0 -58 23.5t-22 60.5q0 35 23 58t57 23q35 0 58 -23.5t23 -60.5q0 -36 -22.5 -58.5t-58.5 -22.5zM1085 -18q-36 0 -58.5 23.5t-22.5 60.5q0 35 23 58
t58 23t57.5 -23.5t22.5 -60.5q0 -35 -22.5 -58t-57.5 -23z" />
    <glyph glyph-name="perthousand" unicode="&#x2030;" horiz-adv-x="2344" 
d="M391 731q-132 0 -216.5 82.5t-84.5 224.5q0 144 87 227t214 83q131 0 216 -80.5t85 -227.5q0 -143 -84.5 -226t-216.5 -83zM373 0l737 1327h113l-738 -1327h-112zM391 813q93 0 152 60t59 167q0 110 -60 169t-151 59q-90 0 -150.5 -61.5t-60.5 -166.5q0 -106 59.5 -166.5
t151.5 -60.5zM1206 -20q-132 0 -216.5 82.5t-84.5 224.5q0 144 86 226.5t215 82.5q130 0 215.5 -80.5t85.5 -226.5q0 -143 -84.5 -226t-216.5 -83zM1954 -20q-131 0 -216 83t-85 224q0 144 87 226.5t214 82.5q131 0 216 -80.5t85 -226.5q0 -143 -84 -226t-217 -83zM1206 61
q92 0 151.5 60.5t59.5 167.5q0 110 -59.5 168.5t-151.5 58.5q-90 0 -151.5 -61t-61.5 -166q0 -106 60.5 -167t152.5 -61zM1954 61q94 0 153.5 60.5t59.5 167.5q0 110 -60 168.5t-153 58.5q-89 0 -150 -61t-61 -166q0 -106 59.5 -167t151.5 -61z" />
    <glyph glyph-name="guilsinglleft" unicode="&#x2039;" horiz-adv-x="663" 
d="M379 152l-287 321l287 322h129l-293 -322l293 -321h-129z" />
    <glyph glyph-name="guilsinglright" unicode="&#x203a;" horiz-adv-x="663" 
d="M156 152l295 321l-295 322h129l286 -322l-286 -321h-129z" />
    <glyph glyph-name="fraction" unicode="&#x2044;" horiz-adv-x="849" 
d="M0 0l737 1327h113l-737 -1327h-113z" />
    <glyph glyph-name="Euro" unicode="&#x20ac;" horiz-adv-x="1208" 
d="M805 -20q-259 0 -417.5 136.5t-194.5 379.5h-173v92h162q-2 18 -2 74q0 39 4 71h-164v92h173q39 238 194 380.5t416 142.5q201 0 340 -78v-115q-148 90 -332 90q-211 0 -337 -112t-159 -308h492v-92h-506q-4 -16 -4 -67q0 -42 4 -78h506v-92h-496q35 -198 169.5 -305
t332.5 -107t348 88v-115q-49 -30 -145 -53.5t-211 -23.5z" />
    <glyph glyph-name="uni20B4" unicode="&#x20b4;" horiz-adv-x="1097" 
d="M967 756h-199q-49 -36 -150.5 -93.5t-140.5 -84.5h490v-89h-594q-66 -76 -66 -167q0 -122 81.5 -181t219.5 -59q96 0 185 28.5t153 69.5v-119q-139 -81 -354 -81q-182 0 -292 81t-110 246q0 102 52 182h-111v89h186q27 25 64.5 51.5t66 43t75.5 43.5t69 40h-461v86h586
q102 85 102 194q0 101 -73.5 156t-206.5 55q-161 0 -316 -92v121q147 72 330 72q187 0 285 -79.5t98 -219.5q0 -118 -76 -207h107v-86z" />
    <glyph glyph-name="uni20BD" unicode="&#x20bd;" horiz-adv-x="1294" 
d="M686 485h-274v-155h288v-97h-288v-233h-113v233h-178v97h178v155h-178v97h178v745h393q87 0 157.5 -10t139 -38t115 -73.5t74.5 -121t28 -175.5q0 -102 -30.5 -179.5t-78.5 -123t-118.5 -74t-140 -38t-152.5 -9.5zM1090 909q0 92 -30.5 156t-88 99t-128.5 50t-165 15
h-266v-647h266q412 0 412 327z" />
    <glyph glyph-name="uni2113" unicode="&#x2113;" horiz-adv-x="421" 
d="M156 0v1358h108v-1358h-108z" />
    <glyph glyph-name="uni2116" unicode="&#x2116;" horiz-adv-x="2289" 
d="M1241 -20l-940 1110v-1090h-111v1348h21l940 -1112v1091h111v-1347h-21zM1868 649q-155 0 -240.5 93.5t-85.5 250.5t87.5 256t244.5 99q154 0 239 -93t85 -254q0 -162 -88.5 -257t-241.5 -95zM1872 729q108 0 169.5 72.5t61.5 199.5t-62 197t-169 70q-113 0 -174.5 -74
t-61.5 -197q0 -127 62.5 -197.5t173.5 -70.5zM1593 446v80h551v-80h-551z" />
    <glyph glyph-name="trademark" unicode="&#x2122;" horiz-adv-x="1687" 
d="M1118 561l-235 561l-95 -549h-88l146 775h20l262 -619l265 619h20l146 -775h-93l-92 545l-235 -557h-21zM283 573v676h-228v78h547v-78h-229v-676h-90z" />
    <glyph glyph-name="uni2126" unicode="&#x2126;" horiz-adv-x="1593" 
d="M1444 668q0 -198 -91.5 -347t-246.5 -221h338v-100h-539v96q189 54 305.5 205t116.5 369q0 251 -147 412t-383 161t-383.5 -161t-147.5 -412q0 -217 117 -368t305 -206v-96h-536v100h335q-154 73 -244.5 220.5t-90.5 345.5q0 144 43 267.5t123.5 216t204.5 145.5t276 53
t275 -53t203.5 -145t123.5 -215.5t43 -266.5z" />
    <glyph glyph-name="estimated" unicode="&#x212e;" horiz-adv-x="1818" 
d="M913 -20q-159 0 -304 55t-250.5 148t-167.5 222.5t-62 272.5t62 273t167.5 223.5t250.5 148.5t304 55q156 0 300 -55t249 -148.5t167.5 -223.5t62.5 -273v-16h-1264q-16 0 -16 -13v-383q0 -19 24 -43q91 -94 215.5 -147t263.5 -53q147 0 276.5 60.5t223.5 164.5h115
q-113 -124 -274 -196t-343 -72zM428 700h963q16 0 16 11v389q0 18 -27 45q-87 90 -209.5 141t-255.5 51q-139 0 -262 -52t-217 -146q-24 -24 -24 -49v-379q0 -11 16 -11z" />
    <glyph glyph-name="arrowleft" unicode="&#x2190;" horiz-adv-x="1763" 
d="M727 123l-555 553l555 553h141l-503 -500h1226v-104h-1226l503 -502h-141z" />
    <glyph glyph-name="arrowup" unicode="&#x2191;" horiz-adv-x="1388" 
d="M639 0v1155l-467 -459v129l522 523l523 -523v-129l-467 459v-1155h-111z" />
    <glyph glyph-name="arrowright" unicode="&#x2192;" horiz-adv-x="1763" 
d="M895 123l504 502h-1227v104h1227l-504 500h141l555 -553l-555 -553h-141z" />
    <glyph glyph-name="arrowdown" unicode="&#x2193;" horiz-adv-x="1388" 
d="M694 -20l-522 522v129l467 -459v1155h111v-1155l467 459v-129z" />
    <glyph glyph-name="partialdiff" unicode="&#x2202;" horiz-adv-x="1146" 
d="M557 -18q-212 0 -338.5 130.5t-126.5 344.5q0 209 121.5 342t335.5 133q151 0 250.5 -68.5t138.5 -171.5q-6 136 -33.5 241.5t-69 172.5t-99 110t-119 60.5t-132.5 17.5q-124 0 -221 -41v99q92 37 225 37q91 0 169 -20.5t153 -75t127.5 -140.5t84.5 -225.5t32 -321.5
q0 -294 -127.5 -459t-370.5 -165zM557 78q154 0 255 101.5t101 289.5q0 170 -99 269.5t-255 99.5q-161 0 -256.5 -106t-95.5 -277q0 -174 97.5 -275.5t252.5 -101.5z" />
    <glyph glyph-name="uni2206" unicode="&#x2206;" horiz-adv-x="1329" 
d="M57 0l598 1348h21l596 -1348h-1215zM221 100h885l-442 1024z" />
    <glyph glyph-name="product" unicode="&#x220f;" horiz-adv-x="1513" 
d="M324 -406v1635h-197v98h1259v-98h-194v-1635h-115v1635h-639v-1635h-114z" />
    <glyph glyph-name="summation" unicode="&#x2211;" horiz-adv-x="1130" 
d="M113 0v20l501 650l-495 637v20h932v-98h-729l436 -559l-441 -570h754v-100h-958z" />
    <glyph glyph-name="minus" unicode="&#x2212;" 
d="M197 416v92h819v-92h-819z" />
    <glyph glyph-name="radical" unicode="&#x221a;" horiz-adv-x="1165" 
d="M549 0l-215 551h-201v92h277l192 -502l432 1186h113l-492 -1327h-106z" />
    <glyph glyph-name="infinity" unicode="&#x221e;" horiz-adv-x="1417" 
d="M387 346q-135 0 -215 81t-80 239q0 155 80.5 235t214.5 80q111 0 193.5 -61.5t128.5 -167.5q47 107 129.5 168t191.5 61q134 0 214.5 -80t80.5 -235q0 -158 -80 -239t-215 -81q-109 0 -190.5 66t-130.5 176q-47 -109 -130 -175.5t-192 -66.5zM399 438q160 0 258 232
q-45 107 -107.5 164t-152.5 57q-101 0 -151.5 -61.5t-50.5 -165.5t50.5 -165t153.5 -61zM1020 438q103 0 153 61t50 165t-50 164.5t-153 60.5q-88 0 -150.5 -56t-109.5 -163q101 -232 260 -232z" />
    <glyph glyph-name="integral" unicode="&#x222b;" horiz-adv-x="704" 
d="M170 -424q-90 0 -154 25v96q60 -29 138 -29q91 0 124 53t33 189v1108q0 167 63 248.5t206 81.5q71 0 135 -23v-98q-63 26 -127 26q-90 0 -129 -58t-39 -187v-1080q0 -71 -4.5 -119.5t-20 -95.5t-42 -75t-72.5 -45t-111 -17z" />
    <glyph glyph-name="approxequal" unicode="&#x2248;" 
d="M805 539q-58 0 -117.5 19.5t-100 43t-91 43t-93.5 19.5q-57 0 -87 -30t-33 -81h-86q2 90 55.5 144.5t153.5 54.5q54 0 109.5 -19.5t94.5 -43t92.5 -43t104.5 -19.5q59 0 89 30t32 80h88q-2 -89 -54.5 -143.5t-156.5 -54.5zM805 176q-58 0 -117.5 19.5t-100 43t-91 43
t-93.5 19.5q-57 0 -87 -30t-33 -81h-86q2 90 55.5 144.5t153.5 54.5q54 0 109.5 -19.5t94.5 -43t92.5 -43t104.5 -19.5q59 0 89 30.5t32 80.5h88q-2 -89 -54.5 -144t-156.5 -55z" />
    <glyph glyph-name="notequal" unicode="&#x2260;" 
d="M332 45l100 191h-235v92h278l133 270h-411v92h456l97 187h100l-98 -187h264v-92h-307l-136 -270h443v-92h-484l-100 -191h-100z" />
    <glyph glyph-name="lessequal" unicode="&#x2264;" 
d="M1016 176l-821 430v21l821 430v-109l-649 -330l649 -331v-111zM197 0v92h819v-92h-819z" />
    <glyph glyph-name="greaterequal" unicode="&#x2265;" 
d="M195 176v109l649 329l-649 332v111l821 -430v-21zM197 0v92h819v-92h-819z" />
    <glyph glyph-name="dotmath" unicode="&#x22c5;" horiz-adv-x="503" 
d="M252 391q-36 0 -58 24t-22 60q0 35 23 58.5t57 23.5q35 0 58.5 -23.5t23.5 -58.5q0 -37 -22.5 -60.5t-59.5 -23.5z" />
    <glyph glyph-name="lozenge" unicode="&#x25ca;" horiz-adv-x="1118" 
d="M549 -20l-471 671l471 697h20l471 -697l-471 -671h-20zM559 125l369 526l-369 551l-369 -551z" />
    <glyph glyph-name="uniF8FF" unicode="&#xf8ff;" horiz-adv-x="1126" 
d="M236 1206q-26 0 -44 18t-18 46q0 25 18 43t44 18q25 0 44 -18t19 -43q0 -27 -19 -45.5t-44 -18.5zM371 1206q-25 0 -43.5 18.5t-18.5 45.5q0 25 18.5 43t43.5 18q26 0 43.5 -18t17.5 -43q0 -28 -17.5 -46t-43.5 -18zM504 1206q-25 0 -44.5 18.5t-19.5 45.5
q0 24 19.5 42.5t44.5 18.5q26 0 43.5 -18t17.5 -43q0 -28 -17.5 -46t-43.5 -18zM639 1206q-26 0 -43.5 18t-17.5 46q0 25 17.5 43t43.5 18q25 0 44 -18t19 -43q0 -27 -19 -45.5t-44 -18.5zM774 1206q-28 0 -45.5 18t-17.5 46q0 25 18 43t45 18q24 0 43 -18.5t19 -42.5
q0 -27 -19 -45.5t-43 -18.5zM907 1206q-25 0 -44 18.5t-19 45.5q0 25 19 43t44 18q26 0 44 -18t18 -43q0 -28 -18 -46t-44 -18zM236 1073q-26 0 -44 18t-18 44q0 25 18 43t44 18q25 0 44 -18t19 -43q0 -26 -19 -44t-44 -18zM236 938q-26 0 -44 18.5t-18 44.5q0 25 18 42.5
t44 17.5q25 0 44 -18t19 -42q0 -26 -19 -44.5t-44 -18.5zM504 938q-25 0 -44.5 18.5t-19.5 44.5q0 24 19.5 42t44.5 18q26 0 43.5 -17.5t17.5 -42.5q0 -26 -17.5 -44.5t-43.5 -18.5zM639 938q-26 0 -43.5 18.5t-17.5 44.5q0 25 17.5 42.5t43.5 17.5q25 0 44 -18t19 -42
q0 -26 -19 -44.5t-44 -18.5zM774 938q-27 0 -45 18t-18 45q0 25 18 42.5t45 17.5q24 0 43 -18t19 -42q0 -26 -19 -44.5t-43 -18.5zM907 938q-25 0 -44 18.5t-19 44.5q0 24 19 42t44 18q26 0 44 -17.5t18 -42.5q0 -26 -18 -44.5t-44 -18.5zM236 807q-27 0 -44.5 16.5
t-17.5 42.5t18 44t44 18q25 0 44 -18t19 -44t-18.5 -42.5t-44.5 -16.5zM504 807q-26 0 -45 17t-19 42q0 26 19.5 44t44.5 18q26 0 43.5 -18t17.5 -44t-17.5 -42.5t-43.5 -16.5zM236 670q-26 0 -44 17.5t-18 43.5t18 45t44 19q25 0 44 -19t19 -45t-19 -43.5t-44 -17.5z
M504 670q-25 0 -44.5 17.5t-19.5 43.5t19.5 45t44.5 19q26 0 43.5 -18.5t17.5 -45.5q0 -26 -17.5 -43.5t-43.5 -17.5zM639 670q-26 0 -43.5 17.5t-17.5 43.5q0 27 17.5 45.5t43.5 18.5q25 0 44 -19t19 -45t-19 -43.5t-44 -17.5zM774 670q-28 0 -45.5 17.5t-17.5 43.5
q0 27 18 45.5t45 18.5q24 0 43 -19t19 -45q0 -25 -19 -43t-43 -18zM907 670q-25 0 -44 17.5t-19 43.5t19 45t44 19q26 0 44 -19t18 -45t-18 -43.5t-44 -17.5zM236 537q-26 0 -44 17.5t-18 43.5q0 25 18 43t44 18q25 0 44 -18t19 -43q0 -26 -19 -43.5t-44 -17.5zM907 537
q-25 0 -44 17.5t-19 43.5q0 25 19 43t44 18q26 0 44 -18t18 -43q0 -26 -18 -43.5t-44 -17.5zM236 403q-26 0 -44 18t-18 44q0 25 18 42t44 17q25 0 44 -17.5t19 -41.5q0 -26 -19 -44t-44 -18zM504 403q-25 0 -44.5 18t-19.5 44q0 24 19.5 41.5t44.5 17.5q26 0 43.5 -17
t17.5 -42q0 -26 -17.5 -44t-43.5 -18zM639 403q-26 0 -43.5 18t-17.5 44q0 25 17.5 42t43.5 17q25 0 44 -17.5t19 -41.5q0 -26 -19 -44t-44 -18zM774 403q-28 0 -45.5 17.5t-17.5 44.5q0 25 18 42t45 17q24 0 43 -17.5t19 -41.5q0 -26 -19 -44t-43 -18zM907 403
q-25 0 -44 18t-19 44q0 24 19 41.5t44 17.5q26 0 44 -17t18 -42q0 -26 -18 -44t-44 -18zM236 266q-26 0 -44 19t-18 45t18 43.5t44 17.5q25 0 44 -17.5t19 -43.5t-19 -45t-44 -19zM236 133q-26 0 -44 18t-18 44q0 27 17.5 44t44.5 17q26 0 44.5 -17t18.5 -44q0 -26 -19 -44
t-44 -18zM504 133q-25 0 -44.5 18t-19.5 44q0 27 19 44t45 17q27 0 44 -17t17 -44q0 -26 -17.5 -44t-43.5 -18zM236 0q-26 0 -44 17.5t-18 43.5q0 25 18 44.5t44 19.5q25 0 44 -19.5t19 -44.5q0 -26 -19 -43.5t-44 -17.5zM371 0q-25 0 -43.5 17.5t-18.5 43.5q0 25 18.5 44.5
t43.5 19.5q26 0 43.5 -19.5t17.5 -44.5q0 -26 -17.5 -43.5t-43.5 -17.5zM504 0q-25 0 -44.5 17.5t-19.5 43.5q0 25 19.5 44.5t44.5 19.5q26 0 43.5 -19.5t17.5 -44.5q0 -26 -17.5 -43.5t-43.5 -17.5z" />
    <glyph glyph-name="Cacute.loclPLK" horiz-adv-x="1296" 
d="M713 1468l155 326h129l-184 -326h-100zM768 -20q-203 0 -351 86t-223 239t-75 357q0 201 73.5 354.5t221 242.5t350.5 89q123 0 225.5 -30t153.5 -69v-119q-163 113 -373 113q-250 0 -392 -155.5t-142 -421.5q0 -274 148.5 -426t393.5 -152q114 0 214.5 30.5t170.5 78.5
v-121q-50 -35 -157.5 -65.5t-237.5 -30.5z" />
    <glyph glyph-name="Iacute_J.loclNLD" horiz-adv-x="1427" 
d="M190 1468l234 326h143l-268 -326h-109zM797 1468l233 326h144l-269 -326h-108zM190 0v1327h113v-1327h-113zM860 -20q-168 0 -252 43v112q87 -51 236 -51q175 0 239 86t64 307v754h-356v96h471v-889q0 -116 -19.5 -198t-65.5 -142t-124.5 -89t-192.5 -29z" />
    <glyph glyph-name="Nacute.loclPLK" horiz-adv-x="1449" 
d="M674 1468l155 326h129l-184 -326h-100zM1241 -20l-940 1110v-1090h-111v1348h21l940 -1112v1091h111v-1347h-21z" />
    <glyph glyph-name="Oacute.loclPLK" horiz-adv-x="1529" 
d="M719 1468l155 326h130l-185 -326h-100zM762 -20q-123 0 -227 35t-180 97.5t-129.5 148t-80 187.5t-26.5 216q0 144 43.5 268.5t124.5 217t205 145.5t276 53q154 0 277 -52.5t202.5 -144.5t121.5 -214t42 -263q0 -145 -42.5 -271t-123 -220.5t-205 -148.5t-278.5 -54z
M766 88q244 0 386 162.5t142 421.5q0 163 -63 292t-184.5 204t-282.5 75q-235 0 -381.5 -161.5t-146.5 -413.5q0 -164 62.5 -294.5t184 -208t283.5 -77.5z" />
    <glyph glyph-name="Sacute.loclPLK" horiz-adv-x="1003" 
d="M492 1468l155 326h129l-184 -326h-100zM483 -20q-203 0 -342 81v119q64 -41 153 -69.5t185 -28.5q139 0 220 61.5t81 194.5q0 72 -34.5 125.5t-90 87t-122.5 61.5t-134 59.5t-122.5 70.5t-90 104t-34.5 151q0 163 104.5 257t284.5 94q169 0 305 -72v-121q-144 92 -297 92
q-126 0 -203.5 -62.5t-77.5 -178.5q0 -55 21.5 -98t58 -72t83.5 -53t99 -45.5t104.5 -44t99.5 -53.5t83.5 -69.5t58 -96.5t21.5 -130q0 -185 -110.5 -274.5t-303.5 -89.5z" />
    <glyph glyph-name="Zacute.loclPLK" horiz-adv-x="1204" 
d="M553 1468l156 326h129l-185 -326h-100zM113 0v20l798 1209h-768v98h947v-20l-797 -1207h807v-100h-987z" />
    <glyph glyph-name="cacute.loclPLK" horiz-adv-x="907" 
d="M463 1065l155 326h130l-183 -326h-102zM557 -18q-211 0 -338 125t-127 346t125 350t342 129q134 0 240 -47v-109q-100 62 -232 62q-169 0 -264.5 -102.5t-95.5 -278.5t93.5 -277.5t264.5 -101.5q80 0 143.5 20.5t98.5 46.5v-106q-31 -20 -98 -38.5t-152 -18.5z" />
    <glyph glyph-name="iacute_j.loclNLD" horiz-adv-x="892" 
d="M115 1065l233 326h146l-271 -326h-108zM557 1065l234 326h145l-270 -326h-109zM182 0v825h-131v90h240v-915h-109zM449 -424q-80 0 -158 29v96q69 -33 143 -33q51 0 87.5 16t57 40t32.5 62t15 72t3 81v886h-131v90h239v-972q0 -63 -6 -112t-24.5 -98.5t-49.5 -82.5
t-84 -53.5t-124 -20.5z" />
    <glyph glyph-name="i.loclTRK" horiz-adv-x="446" 
d="M233 1171q-34 0 -55.5 21.5t-21.5 56.5t22 57.5t55 22.5q34 0 57 -22.5t23 -57.5t-23 -56.5t-57 -21.5zM182 0v825h-131v90h240v-915h-109z" />
    <glyph glyph-name="nacute.loclPLK" horiz-adv-x="1087" 
d="M479 1065l156 326h129l-182 -326h-103zM156 0v915h100l2 -165q33 85 118 133.5t216 48.5q185 0 269.5 -101t84.5 -299v-532h-108v500q0 82 -12 140t-41 105t-83 70t-133 23q-305 0 -305 -385v-453h-108z" />
    <glyph glyph-name="oacute.loclPLK" horiz-adv-x="1122" 
d="M463 1065l155 326h130l-183 -326h-102zM559 -18q-214 0 -340.5 130.5t-126.5 342.5q0 210 126 343.5t343 133.5q211 0 340 -124.5t129 -340.5q0 -219 -130 -352t-341 -133zM557 78q157 0 257.5 103.5t100.5 281.5q0 174 -100 274.5t-256 100.5q-161 0 -256.5 -106.5
t-95.5 -276.5q0 -174 97.5 -275.5t252.5 -101.5z" />
    <glyph glyph-name="sacute.loclPLK" horiz-adv-x="765" 
d="M307 1065l156 326h129l-182 -326h-103zM358 -18q-78 0 -145.5 16.5t-97.5 36.5v100q113 -65 237 -65q99 0 156 43.5t57 128.5q0 53 -24 90.5t-62.5 59t-85 38.5t-93 36.5t-85 45.5t-62.5 72.5t-24 111.5q0 116 74.5 176t202.5 60q123 0 206 -43v-98q-92 55 -200 55
q-93 0 -137 -39.5t-44 -104.5q0 -48 24.5 -81t63 -52.5t85.5 -36t94.5 -37t86 -48.5t63 -78t24.5 -119q0 -136 -86.5 -202t-227.5 -66z" />
    <glyph glyph-name="germandbls.calt" horiz-adv-x="1282" 
d="M731 -18q-147 0 -239 34v107q106 -41 229 -41q169 0 254.5 85.5t85.5 229.5q0 62 -19 117.5t-56.5 100.5t-100 71.5t-142.5 26.5q-114 0 -198 -49l-15 16l412 551h-639v-1231h-113v1327h922v-20l-401 -543q30 30 80 39q73 2 140 -22t122.5 -71.5t89 -128t33.5 -182.5
q0 -200 -118 -308.5t-327 -108.5z" />
    <glyph glyph-name="zacute.loclPLK" horiz-adv-x="958" 
d="M385 1065l156 326h129l-183 -326h-102zM92 0v20l604 805h-569v90h741v-20l-604 -803h613v-92h-785z" />
    <glyph glyph-name="uni0414.loclBGR" horiz-adv-x="1468" 
d="M1268 100h133v-391h-105v293h-1124v-293h-104v391h135l522 1248h20zM735 1135l-416 -1035h830z" />
    <glyph glyph-name="uni041B.loclBGR" horiz-adv-x="1308" 
d="M1251 0h-123l-473 1126l-477 -1126h-121l590 1348h21z" />
    <glyph glyph-name="uni0424.loclBGR" horiz-adv-x="1622" 
d="M1503 664q0 -275 -174.5 -440.5t-462.5 -174.5v-127h-110v127q-291 9 -464 174t-173 441q0 275 175 441t462 175v125h110v-125q291 -9 464 -174.5t173 -441.5zM236 668q0 -236 142.5 -375.5t379.5 -145.5v1033q-229 -6 -375.5 -143t-146.5 -369zM864 147q229 6 375.5 143
t146.5 369q0 236 -142.5 375.5t-379.5 145.5v-1033z" />
    <glyph glyph-name="uni0431.loclSRB" horiz-adv-x="1122" 
d="M694 899q164 -53 250 -164.5t86 -277.5q0 -215 -130 -345t-341 -130q-213 0 -340 127.5t-127 334.5q0 173 92.5 293t257.5 150q-123 35 -190.5 90.5t-67.5 152.5q0 114 82.5 171t222.5 57h291q101 0 156 18v-94q-45 -18 -174 -18h-266q-203 0 -203 -127q0 -31 12 -56
t30 -42t51 -33.5t62 -26.5t76 -25zM557 78q157 0 257.5 101t100.5 274q0 169 -100 266.5t-256 97.5q-161 0 -256.5 -104t-95.5 -269q0 -169 97.5 -267.5t252.5 -98.5z" />
    <glyph glyph-name="uni0432.loclBGR" horiz-adv-x="1060" 
d="M688 709q134 -21 206.5 -112.5t72.5 -227.5q0 -79 -22 -143.5t-60 -109.5t-91 -75.5t-113 -44.5t-128 -14q-208 0 -315 110.5t-107 343.5v463q0 483 408 483q171 0 265.5 -91.5t94.5 -262.5q0 -116 -57.5 -201t-153.5 -118zM530 1290q-290 0 -290 -362v-187h229
q160 0 238.5 76.5t78.5 214.5q0 125 -67 191.5t-189 66.5zM559 74q137 0 215 73.5t78 210.5q0 157 -86.5 226t-271.5 69h-254v-207q0 -372 319 -372z" />
    <glyph glyph-name="uni0433.loclBGR" horiz-adv-x="804" 
d="M430 -18q-141 0 -227 60.5t-86 186.5q0 66 25.5 115t66.5 78t90 50.5t98.5 40.5t90.5 41t66.5 58t25.5 86q0 66 -45 105t-140 39q-124 0 -233 -62v101q30 17 98.5 34t147.5 17q134 0 210 -60t76 -176q0 -66 -25.5 -113.5t-66.5 -74.5t-90 -47.5t-98.5 -38.5t-90.5 -40.5
t-66.5 -62t-25.5 -94.5q0 -76 54.5 -113.5t150.5 -37.5q125 0 242 69v-102q-32 -22 -101 -40.5t-147 -18.5z" />
    <glyph glyph-name="uni0434.loclBGR" horiz-adv-x="1169" 
d="M551 -424q-81 0 -155 12.5t-109 26.5v100q116 -43 262 -43q80 0 142 21t102 58t65.5 91.5t36 116.5t10.5 139v97q-41 -85 -130.5 -140t-225.5 -55q-211 0 -334 130t-123 337q0 204 119 334.5t332 130.5q137 0 231 -54.5t137 -142.5l4 180h99v-815q0 -95 -13 -171.5
t-46 -143.5t-84.5 -112t-132.5 -71t-187 -26zM563 98q163 0 252.5 104t91.5 265q0 175 -97.5 273t-254.5 98q-161 0 -254.5 -101.5t-93.5 -267.5q0 -168 96.5 -269.5t259.5 -101.5z" />
    <glyph glyph-name="uni0436.loclBGR" horiz-adv-x="1380" 
d="M1348 0h-148l-457 481v-481h-106v481l-457 -481h-147l477 489l-461 426h137l451 -417v860h106v-860l453 417h135l-461 -426z" />
    <glyph glyph-name="uni0437.loclBGR" horiz-adv-x="886" 
d="M551 299q237 -62 237 -348q0 -98 -31.5 -171.5t-89.5 -117t-133 -65t-167 -21.5q-107 0 -187.5 21.5t-116.5 48.5v108q42 -33 119.5 -57.5t179.5 -24.5q314 0 314 283q0 146 -79 216.5t-261 70.5h-84v88h74q309 0 309 272q0 54 -15 96t-39 68t-57.5 42.5t-67.5 23
t-73 6.5q-96 0 -174 -25t-125 -57v104q42 26 126 49t189 23q55 0 103 -8.5t94.5 -30.5t79.5 -57t53.5 -91.5t20.5 -130.5q0 -111 -55.5 -195.5t-143.5 -119.5z" />
    <glyph glyph-name="uni0438.loclBGR" horiz-adv-x="1103" 
d="M827 915h109v-915h-98l-2 158q-36 -82 -120.5 -129t-211.5 -47q-184 0 -268 100.5t-84 298.5v534h108v-501q0 -65 7 -114.5t25 -93t47 -71t75.5 -43.5t109.5 -16q303 0 303 385v454z" />
    <glyph glyph-name="uni0439.loclBGR" horiz-adv-x="1103" 
d="M545 1024q-152 0 -224.5 81.5t-72.5 215.5v20h98v-8q0 -115 53 -172t146 -57q94 0 146 57t52 172v8h99v-20q0 -132 -74.5 -214.5t-222.5 -82.5zM827 915h109v-915h-98l-2 158q-36 -82 -120.5 -129t-211.5 -47q-184 0 -268 100.5t-84 298.5v534h108v-501q0 -65 7 -114.5
t25 -93t47 -71t75.5 -43.5t109.5 -16q303 0 303 385v454z" />
    <glyph glyph-name="uni045D.loclBGR" horiz-adv-x="1103" 
d="M614 1065h-108l-270 326h143zM827 915h109v-915h-98l-2 158q-36 -82 -120.5 -129t-211.5 -47q-184 0 -268 100.5t-84 298.5v534h108v-501q0 -65 7 -114.5t25 -93t47 -71t75.5 -43.5t109.5 -16q303 0 303 385v454z" />
    <glyph glyph-name="uni043A.loclBGR" horiz-adv-x="948" 
d="M166 0v1358h108v-858l469 415h150l-494 -426l514 -489h-149l-490 477v-477h-108z" />
    <glyph glyph-name="uni043B.loclBGR" horiz-adv-x="980" 
d="M932 0h-121l-322 737l-323 -737h-117l430 934h21z" />
    <glyph glyph-name="uni043F.loclBGR" horiz-adv-x="1107" 
d="M166 0v915h100l2 -165q33 85 118 133.5t216 48.5q185 0 269.5 -101t84.5 -299v-532h-108v500q0 82 -11.5 140t-40.5 105t-83 70t-133 23q-306 0 -306 -385v-453h-108z" />
    <glyph glyph-name="uni0442.loclBGR" horiz-adv-x="1654" 
d="M166 0v915h100l2 -149q35 77 111.5 121.5t193.5 44.5q235 0 289 -193q76 193 322 193q156 0 237.5 -83t81.5 -265v-584h-108v569q0 128 -52.5 198.5t-177.5 70.5q-78 0 -133.5 -28t-85.5 -80.5t-43.5 -118t-13.5 -150.5v-461h-109v569q0 128 -52 198.5t-177 70.5
q-78 0 -133.5 -28t-86 -80.5t-44 -118t-13.5 -150.5v-461h-108z" />
    <glyph glyph-name="uni0446.loclBGR" horiz-adv-x="1161" 
d="M1040 78q40 0 60 10v-338h-101v244q-6 -2 -20 -2q-141 0 -152 151q-38 -76 -120 -118.5t-203 -42.5q-184 0 -268 100.5t-84 298.5v534h108v-501q0 -82 11.5 -140t40.5 -105t82 -70t132 -23q301 0 301 385v454h109v-710q0 -70 23 -98.5t81 -28.5z" />
    <glyph glyph-name="uni0448.loclBGR" horiz-adv-x="1638" 
d="M1364 915h109v-915h-99l-2 143q-37 -74 -113 -117.5t-188 -43.5q-232 0 -287 186q-35 -88 -115 -137t-202 -49q-155 0 -235 83.5t-80 266.5v583h108v-569q0 -130 52 -200t175 -70q77 0 131 28t84 81.5t43 119t13 150.5v460h108v-569q0 -129 52 -199.5t174 -70.5
q77 0 131 28.5t84.5 81.5t43.5 118.5t13 150.5v460z" />
    <glyph glyph-name="uni0449.loclBGR" horiz-adv-x="1697" 
d="M1575 78q41 0 61 10v-338h-100v244q-6 -2 -20 -2q-136 0 -150 141q-82 -151 -295 -151q-232 0 -287 186q-35 -88 -115 -137t-202 -49q-155 0 -235 83.5t-80 266.5v583h108v-569q0 -130 52 -200t175 -70q77 0 131 28t84 81.5t43 119t13 150.5v460h108v-569
q0 -129 52 -199.5t174 -70.5q77 0 131 28.5t84.5 81.5t43.5 118.5t13 150.5v460h109v-710q0 -70 22.5 -98.5t79.5 -28.5z" />
    <glyph glyph-name="uni044C.loclBGR" horiz-adv-x="1026" 
d="M557 735q172 0 272.5 -100t100.5 -273q0 -176 -108 -278t-292 -102q-179 0 -284 100t-105 307v526h109v-335q104 155 307 155zM530 72q131 0 210 77.5t79 210.5q0 135 -78.5 211t-205.5 76q-133 0 -210 -82.5t-77 -202.5q0 -133 76.5 -211.5t205.5 -78.5z" />
    <glyph glyph-name="uni044A.loclBGR" horiz-adv-x="1230" 
d="M762 735q172 0 272.5 -100t100.5 -273q0 -176 -108 -278t-292 -102q-179 0 -283 100t-104 307v436h-307v90h416v-331q103 151 305 151zM735 72q131 0 210 77.5t79 210.5q0 135 -78.5 211t-206.5 76q-132 0 -208 -82.5t-76 -202.5q0 -134 75.5 -212t204.5 -78z" />
    <glyph glyph-name="xi.ss02" horiz-adv-x="856" 
d="M551 88q147 -33 203.5 -74t56.5 -123q0 -86 -74 -182h-104q65 84 65 160q0 51 -39 78.5t-149 48.5q-98 18 -168 46t-122.5 72t-78.5 110t-26 155q0 126 76.5 219t211.5 117q-91 32 -145.5 108t-54.5 172q0 97 46.5 169t123.5 104h-262v90h684v-90h-148q-165 0 -249.5 -65
t-84.5 -189q0 -115 80 -188.5t223 -73.5h95v-90h-105q-190 0 -284.5 -73t-94.5 -200q0 -71 21 -121.5t66 -84.5t99.5 -55t137.5 -40z" />
    <glyph glyph-name="zero.tf" 
d="M606 -20q-122 0 -217 54t-154 149t-89.5 217.5t-30.5 265.5q0 142 30.5 263.5t89.5 216t154 148.5t217 54q98 0 179 -35.5t138.5 -98t97 -148.5t58.5 -186.5t19 -213.5q0 -115 -19 -217t-59 -188t-98 -148.5t-138.5 -97.5t-177.5 -35zM606 84q124 0 209.5 76t125.5 205
t40 301q0 173 -39.5 301t-125 204t-210.5 76q-122 0 -207.5 -75.5t-126.5 -204.5t-41 -301q0 -171 41.5 -301t127 -205.5t206.5 -75.5z" />
    <glyph glyph-name="one.tf" 
d="M631 0v1204l-312 -143v102l410 185h14v-1348h-112z" />
    <glyph glyph-name="two.tf" 
d="M176 0v14l455 539q122 141 172.5 234.5t50.5 193.5q0 119 -69.5 192.5t-217.5 73.5q-169 0 -325 -121v119q135 103 338 103q192 0 291.5 -98t99.5 -271q0 -110 -51.5 -211t-194.5 -268l-348 -400h616v-100h-817z" />
    <glyph glyph-name="three.tf" 
d="M643 795q168 0 268.5 -111t100.5 -287q0 -204 -127 -310.5t-344 -106.5q-109 0 -202 24t-136 55v121q49 -41 136 -68.5t193 -27.5q172 0 267.5 79.5t95.5 233.5t-85.5 234t-225.5 80q-132 0 -219 -66l-15 17l453 567h-584v98h772v-14l-418 -527q35 9 70 9z" />
    <glyph glyph-name="four.tf" 
d="M776 0v272h-710v13l802 1063h13v-986h186v-90h-186v-272h-105zM240 362h536v713z" />
    <glyph glyph-name="five.tf" 
d="M553 -20q-124 0 -211.5 25t-128.5 54v121q49 -40 136 -68t194 -28q173 0 267.5 87t94.5 249q0 150 -83.5 234.5t-233.5 84.5q-98 0 -178 -38t-127 -95l-19 6l101 715h581v-98h-489l-64 -457q92 66 228 66q181 0 291 -104.5t110 -309.5q0 -217 -121.5 -330.5
t-347.5 -113.5z" />
    <glyph glyph-name="six.tf" 
d="M631 856q187 0 306.5 -112.5t119.5 -315.5q0 -197 -118.5 -322.5t-330.5 -125.5q-209 0 -329.5 126t-120.5 367q0 248 134.5 487.5t342.5 366.5h174q-169 -94 -312 -264t-196 -369q42 74 126 118t204 44zM608 80q153 0 242.5 94t89.5 246q0 151 -91 244.5t-241 93.5
q-148 0 -241 -96.5t-93 -241.5q0 -151 90 -245.5t244 -94.5z" />
    <glyph glyph-name="seven.tf" 
d="M412 0q27 371 153.5 693t308.5 534h-720v100h923v-14q-123 -119 -222.5 -278t-165.5 -332t-106 -350t-53 -353h-118z" />
    <glyph glyph-name="eight.tf" 
d="M608 -20q-196 0 -305.5 104t-109.5 268q0 132 64.5 223t160.5 117q-79 25 -135 100.5t-56 200.5q0 162 101.5 258.5t277.5 96.5q173 0 276 -96t103 -259q0 -126 -57 -199.5t-137 -99.5q98 -25 164.5 -114t66.5 -228q0 -162 -108.5 -267t-305.5 -105zM606 735
q125 0 194.5 66t69.5 190q0 116 -70 186t-194 70q-122 0 -193 -71.5t-71 -184.5q0 -124 68.5 -190t195.5 -66zM608 82q138 0 217.5 78t79.5 202q0 129 -79 204t-218 75q-138 0 -219.5 -75t-81.5 -204q0 -126 79.5 -203t221.5 -77z" />
    <glyph glyph-name="nine.tf" 
d="M606 1348q214 0 331.5 -126.5t117.5 -361.5q0 -243 -129.5 -469t-352.5 -391h-163q181 130 312.5 292.5t182.5 321.5q-39 -57 -118.5 -97t-196.5 -40q-189 0 -310.5 112.5t-121.5 309.5q0 200 116.5 324.5t331.5 124.5zM604 578q154 0 243 88t89 241q0 154 -89.5 247
t-238.5 93q-157 0 -245.5 -91.5t-88.5 -250.5q0 -154 91.5 -240.5t238.5 -86.5z" />
    <glyph glyph-name="periodcentered.case" horiz-adv-x="491" 
d="M252 594q-37 0 -59.5 23.5t-22.5 60.5q0 35 23.5 58.5t58.5 23.5t57.5 -23.5t22.5 -60.5q0 -35 -22.5 -58.5t-57.5 -23.5z" />
    <glyph glyph-name="bullet.case" horiz-adv-x="925" 
d="M489 475q-89 0 -145.5 57t-56.5 146q0 85 59 142t143 57q86 0 142.5 -56.5t56.5 -144.5t-56.5 -144.5t-142.5 -56.5z" />
    <glyph glyph-name="exclamdown.case" horiz-adv-x="540" 
d="M270 1346q36 0 59 -23t23 -59q0 -37 -23.5 -60.5t-58.5 -23.5q-34 0 -57 23.5t-23 58.5q0 37 22 60.5t58 23.5zM217 987h109l4 -987h-117z" />
    <glyph glyph-name="questiondown.case" horiz-adv-x="911" 
d="M522 1182q-35 0 -57.5 23.5t-22.5 60.5q0 35 22.5 58.5t57.5 23.5q36 0 59 -23t23 -59q0 -37 -23.5 -60.5t-58.5 -23.5zM514 -18q-186 0 -300 93.5t-114 270.5q0 90 31 160.5t84.5 113t117 65.5t136.5 28v276h109v-350q-76 -2 -138.5 -17.5t-114.5 -48t-81 -89.5
t-29 -134q0 -136 85.5 -202t217.5 -66q97 0 182.5 31.5t126.5 72.5v-118q-41 -32 -124.5 -59t-188.5 -27z" />
    <glyph glyph-name="numbersign.tf" 
d="M143 0l97 375h-187l25 90h182l105 397h-187l25 90h184l92 375h109l-94 -375h372l95 375h106l-94 -375h186l-22 -90h-185l-104 -397h186l-22 -90h-185l-96 -375h-106l96 375h-375l-94 -375h-109zM369 465h372l103 397h-373z" />
    <glyph glyph-name="braceleft.case" horiz-adv-x="757" 
d="M549 -197q-178 0 -267 88.5t-89 239.5q0 67 21 131.5t46.5 105.5t46.5 92t21 95q0 74 -41 113t-115 45v26q72 5 114 42.5t42 107.5q0 44 -21 90t-46.5 82t-46.5 95.5t-21 127.5q0 153 89 242.5t267 89.5q118 0 186 -35v-94q-73 41 -176 41q-127 0 -193.5 -66t-66.5 -186
q0 -53 21 -107t46.5 -91.5t46.5 -87.5t21 -95q0 -76 -37 -118t-80 -52q44 -9 80.5 -54t36.5 -124q0 -46 -21 -99.5t-46.5 -95t-46.5 -99.5t-21 -112q0 -118 68.5 -182.5t191.5 -64.5q98 0 176 43v-97q-83 -37 -186 -37z" />
    <glyph glyph-name="braceright.case" horiz-adv-x="755" 
d="M223 -197q-103 0 -186 37v97q78 -43 176 -43q123 0 191.5 64.5t68.5 182.5q0 54 -21 112t-46.5 99.5t-46.5 95t-21 99.5q0 79 36.5 124t80.5 54q-43 10 -80 52t-37 118q0 45 21 95t46.5 87.5t46.5 91.5t21 107q0 120 -66.5 186t-193.5 66q-103 0 -176 -41v94
q68 35 186 35q178 0 267.5 -89.5t89.5 -242.5q0 -56 -14 -105t-34 -84t-40 -67t-34 -67.5t-14 -71.5q0 -70 42 -107.5t114 -42.5v-26q-74 -6 -115 -45t-41 -113q0 -36 14 -75t34 -75.5t40 -75.5t34 -91t14 -107q0 -151 -89.5 -239.5t-267.5 -88.5z" />
    <glyph glyph-name="bracketleft.case" horiz-adv-x="589" 
d="M190 -195v1733h398v-94h-289v-1542h289v-97h-398z" />
    <glyph glyph-name="bracketright.case" horiz-adv-x="624" 
d="M37 -195v97h289v1542h-289v94h397v-1733h-397z" />
    <glyph glyph-name="parenleft.case" horiz-adv-x="616" 
d="M512 -195q-80 66 -146.5 146.5t-124 186.5t-90 242t-32.5 288t32.5 288.5t90.5 243t125 188.5t149 150h143q-95 -80 -167 -163.5t-131.5 -189.5t-91 -237.5t-31.5 -283.5q0 -250 96.5 -459.5t324.5 -399.5h-147z" />
    <glyph glyph-name="parenright.case" horiz-adv-x="606" 
d="M-53 -195q228 190 325 399.5t97 459.5q0 152 -31.5 283.5t-91.5 237.5t-132 189.5t-167 163.5h143q82 -68 149 -150t125 -188.5t90.5 -243t32.5 -288.5t-32.5 -288t-90 -242t-124 -186.5t-146.5 -146.5h-147z" />
    <glyph glyph-name="emdash.case" horiz-adv-x="1603" 
d="M92 629v94h1419v-94h-1419z" />
    <glyph glyph-name="endash.case" horiz-adv-x="956" 
d="M92 629v94h772v-94h-772z" />
    <glyph glyph-name="hyphen.case" horiz-adv-x="544" 
d="M92 631v90h361v-90h-361z" />
    <glyph glyph-name="uni00AD.case" horiz-adv-x="544" 
d="M92 631v90h361v-90h-361z" />
    <glyph glyph-name="guillemotleft.case" horiz-adv-x="1021" 
d="M387 356l-287 322l287 321h129l-293 -321l293 -322h-129zM737 356l-286 322l286 321h129l-293 -321l293 -322h-129z" />
    <glyph glyph-name="guillemotright.case" horiz-adv-x="1005" 
d="M156 356l295 322l-295 321h129l286 -321l-286 -322h-129zM506 356l295 322l-295 321h129l287 -321l-287 -322h-129z" />
    <glyph glyph-name="guilsinglleft.case" horiz-adv-x="665" 
d="M387 356l-287 322l287 321h129l-293 -321l293 -322h-129z" />
    <glyph glyph-name="guilsinglright.case" horiz-adv-x="655" 
d="M156 356l295 322l-295 321h129l286 -321l-286 -322h-129z" />
    <glyph glyph-name="cent.ss01" horiz-adv-x="968" 
d="M555 0v186q-197 12 -312.5 135.5t-115.5 335.5q0 208 114 337.5t314 142.5v190h94v-190q125 -6 213 -50v-106q-105 66 -258 66q-172 0 -267 -104.5t-95 -280.5q0 -178 92 -278t274 -103q84 0 153 19t109 48v-104q-26 -19 -85.5 -37t-135.5 -21v-186h-94z" />
    <glyph glyph-name="dollar.ss01" horiz-adv-x="1028" 
d="M475 -184v186q-228 10 -344 76v112q70 -44 173.5 -68t197.5 -24q150 0 226.5 61.5t76.5 180.5q0 51 -16 92t-38.5 68t-64.5 51.5t-77.5 39t-92.5 34.5q-54 18 -87 30.5t-79 32.5t-73.5 38.5t-58.5 46.5t-47.5 59t-28 72.5t-11.5 90.5q0 147 91.5 231t252.5 99v207h94
v-207q159 -5 281 -72v-114q-66 42 -152 68t-170 26q-127 0 -204.5 -59t-77.5 -173q0 -57 19.5 -99.5t61 -72.5t86.5 -49.5t117 -42.5q158 -56 223 -94q147 -88 166 -247q3 -26 3 -54q0 -71 -20.5 -128t-54.5 -94t-81 -63t-95 -38.5t-102 -16.5v-186h-94z" />
    <glyph glyph-name="cent.tf.ss01" 
d="M657 0v186q-197 12 -312.5 135.5t-115.5 335.5q0 208 114 337.5t314 142.5v190h95v-190q125 -6 213 -50v-106q-105 66 -258 66q-172 0 -267.5 -104.5t-95.5 -280.5q0 -177 92.5 -277.5t274.5 -103.5q84 0 153 19t109 48v-104q-26 -19 -85.5 -37t-135.5 -21v-186h-95z" />
    <glyph glyph-name="dollar.tf.ss01" 
d="M567 -184v186q-228 10 -344 76v112q70 -44 173.5 -68t197.5 -24q150 0 226.5 61.5t76.5 180.5q0 51 -16 92t-38.5 68t-64.5 51.5t-77.5 39t-92.5 34.5q-54 18 -87 30.5t-79 32.5t-73.5 38.5t-58.5 46.5t-47.5 59t-28 72.5t-11.5 90.5q0 147 91.5 231t252.5 99v207h95
v-207q158 -5 280 -72v-114q-66 42 -151.5 68t-169.5 26q-127 0 -205 -59t-78 -173q0 -57 19.5 -99.5t61.5 -72.5t87 -49.5t117 -42.5q45 -16 65 -23t61.5 -24t61.5 -28t53.5 -31.5t50.5 -39t39.5 -46t33 -56.5t18.5 -67t8 -80q0 -71 -20.5 -128t-54 -94t-80.5 -63t-95 -38.5
t-102 -16.5v-186h-95z" />
    <glyph glyph-name="cent.tf" 
d="M651 0v186q-191 9 -306.5 133t-115.5 338q0 210 114 339.5t308 140.5v190h76v-190q81 -1 147 -18.5t91 -31.5v-106q-93 57 -238 63v-763q77 3 144.5 23.5t101.5 43.5v-104q-27 -19 -96.5 -38t-149.5 -20v-186h-76zM651 281v763q-139 -11 -223 -114t-84 -268
q0 -163 80.5 -267t226.5 -114z" />
    <glyph glyph-name="dollar.tf" 
d="M578 -184v186q-104 1 -200.5 22t-154.5 54v112q147 -89 355 -92v535q-56 20 -92 34.5t-82 38t-74.5 49t-55 60t-39 79.5t-12.5 99q0 150 94.5 235t260.5 99v205h75v-205q158 -5 289 -74v-114q-146 89 -289 92v-504q63 -22 105.5 -40t95.5 -51t84.5 -70t53.5 -94t22 -126
q0 -75 -22 -134t-56.5 -96t-83.5 -62.5t-96.5 -36.5t-102.5 -15v-186h-75zM578 748v485q-107 -9 -173.5 -69t-66.5 -163q0 -52 17 -92t52.5 -69.5t74.5 -50t96 -41.5zM653 98q116 11 180 73.5t64 168.5t-62.5 166t-181.5 106v-514z" />
    <glyph glyph-name="Euro.tf" 
d="M817 -20q-259 0 -417.5 136.5t-194.5 379.5h-172v92h162q-2 18 -2 74q0 39 4 71h-164v92h172q39 238 194 380.5t416 142.5q201 0 340 -78v-115q-148 90 -332 90q-211 0 -336.5 -111.5t-158.5 -308.5h491v-92h-506q-4 -16 -4 -67q0 -42 4 -78h506v-92h-495
q35 -198 169 -305t332 -107q199 0 349 88v-115q-49 -30 -145.5 -53.5t-211.5 -23.5z" />
    <glyph glyph-name="florin.tf" 
d="M236 -424q-82 0 -134 21v96q58 -21 125 -21q51 0 83.5 15t56.5 57t39 98t32 156l107 604h-226v96h240l47 256q18 103 41.5 173t61.5 121.5t93.5 75.5t133.5 24t131 -21v-100q-45 20 -115 20q-103 0 -152.5 -70t-82.5 -251l-39 -228h295v-96h-314l-110 -633
q-14 -82 -27 -135t-36.5 -106.5t-55 -84t-80 -49t-114.5 -18.5z" />
    <glyph glyph-name="uni20B4.tf" 
d="M1026 756h-199q-49 -36 -150 -94t-140 -84h489v-89h-594q-65 -75 -65 -167q0 -122 81.5 -181t219.5 -59q96 0 185 28.5t153 69.5v-119q-139 -81 -355 -81q-119 0 -206.5 32.5t-141 107.5t-53.5 187q0 103 51 182h-111v89h187q27 25 64.5 51.5t65.5 43t75.5 43.5t68.5 40
h-461v86h586q103 86 103 194q0 101 -74 156t-207 55q-160 0 -315 -92v121q147 72 329 72q187 0 285 -79.5t98 -219.5q0 -119 -75 -207h106v-86z" />
    <glyph glyph-name="uni20BD.tf" 
d="M610 485h-274v-155h289v-97h-289v-233h-113v233h-178v97h178v155h-178v97h178v745h393q87 0 157.5 -10t139 -38t115 -73.5t74.5 -121t28 -175.5q0 -102 -30.5 -179.5t-78.5 -123t-118.5 -74t-140 -38t-152.5 -9.5zM1014 909q0 92 -30.5 156t-88 99t-128.5 50t-165 15
h-266v-647h266q412 0 412 327z" />
    <glyph glyph-name="sterling.tf" 
d="M215 0v14q144 151 200 262.5t56 219.5q0 59 -27 108h-208v96h155q-86 121 -86 254q0 178 109 286t307 108q88 0 162 -23t121 -57v-115q-118 92 -273 92q-150 0 -229.5 -79t-79.5 -222q0 -116 98 -244h369v-96h-328q23 -51 23 -108q0 -212 -176 -396h626v-100h-819z" />
    <glyph glyph-name="yen.tf" 
d="M549 0v420h-295v90h299l-76 145h-252v90h203l-295 582h125l348 -711l352 711h121l-297 -582h207v-90h-258l-74 -145h304v-90h-302v-420h-110z" />
    <glyph glyph-name="at.case" horiz-adv-x="2039" 
d="M1047 -215q-204 0 -375 61.5t-293.5 175t-191 284t-68.5 380.5q0 212 72.5 386t199 288t296.5 175.5t366 61.5q176 0 332 -53t276 -151t190 -251.5t70 -342.5q0 -256 -115.5 -399.5t-306.5 -143.5q-105 0 -161 45t-70 113q-41 -76 -123.5 -117t-175.5 -41
q-163 0 -258 107t-95 288q0 88 25 166.5t72 139.5t121.5 97t166.5 36q118 0 194.5 -52.5t107.5 -138.5l20 166h92l-45 -408q-16 -136 -16 -172q0 -141 153 -141q138 0 224 117.5t86 308.5q0 148 -43.5 271.5t-117.5 208t-173 143t-207.5 85.5t-224.5 27q-172 0 -322.5 -56.5
t-262.5 -160t-176.5 -260t-64.5 -346.5q0 -154 41 -284t115.5 -224.5t177 -161t227 -99t265.5 -32.5q105 0 210.5 19t188 48.5t137.5 54.5t92 48v-106q-22 -15 -72 -37.5t-132.5 -52t-197.5 -50t-230 -20.5zM981 348q139 0 216 97.5t77 254.5q0 84 -25 149.5t-85 108.5
t-148 43q-140 0 -219.5 -100t-79.5 -252q0 -145 70 -223t194 -78z" />
    <glyph glyph-name="uni0308.case" horiz-adv-x="0" 
d="M-702 1534q-39 0 -65 25.5t-26 64.5q0 40 26.5 66t64.5 26t64 -26t26 -66q0 -39 -25.5 -64.5t-64.5 -25.5zM-330 1534q-39 0 -64.5 25.5t-25.5 64.5q0 40 26 66t64 26t64 -26t26 -66q0 -39 -25.5 -64.5t-64.5 -25.5z" />
    </font>
</defs>
</svg>
